<?xml version="1.0" encoding="UTF-8"?> <svg xmlns="http://www.w3.org/2000/svg" id="Layer_1" data-name="Layer 1" width="150" height="105" viewBox="0 0 150 105"><title>endangered-species-revenge-logo</title><g id="CkKzaF"><path d="M46.36208,60.57217c-2.02655,3.00532-5.17091,3.18458-8.28318,3.3857a16.52975,16.52975,0,0,1-4.96277-.48488,1.03463,1.03463,0,0,0-.63171.00418,23.83784,23.83784,0,0,1-9.68028.85884,17.532,17.532,0,0,1-5.96589-1.06083,9.69069,9.69069,0,0,1-6.27062-8.47987,34.6838,34.6838,0,0,1,.16544-7.42236,6.13323,6.13323,0,0,1,1.38885-3.20435c.20288-.24692.29458-.42981.095-.75174a9.11371,9.11371,0,0,1-1.3464-4.73377,54.4678,54.4678,0,0,1,.02474-7.72285c.11574-.93767.64527-1.82142.67887-2.71153.032-.84873-.7333-1.62637-.87779-2.54594a35.96175,35.96175,0,0,1-.315-5.26065c-.04005-4.26527-.21956-8.5254-.37533-12.78622A6.5051,6.5051,0,0,1,15.70128.639,16.62794,16.62794,0,0,1,19.74571.43839a32.63816,32.63816,0,0,0,7.1274-.26976,9.4716,9.4716,0,0,1,4.5925.23622.75245.75245,0,0,0,.42364-.00069,10.1231,10.1231,0,0,1,3.1034-.18341c2.62967.28635,5.26525.011,7.89481.13694a17.38485,17.38485,0,0,1,5.14438.754.777.777,0,0,0,.6774-.06967A8.02525,8.02525,0,0,1,52.78493.27375a27.79725,27.79725,0,0,1,3.97485.0235A17.825,17.825,0,0,0,61.74927.13736a11.24071,11.24071,0,0,1,4.45414.25341A.99511.99511,0,0,0,66.69717.399,16.64506,16.64506,0,0,1,74.0781.85906a.96086.96086,0,0,0,.55831-.023A15.81531,15.81531,0,0,1,81.463.61542,1.69726,1.69726,0,0,0,82.581.52631,4.29757,4.29757,0,0,1,84.33537.11477a85.458,85.458,0,0,1,8.838.21186,3.81167,3.81167,0,0,1,1.65873.49052,3.37732,3.37732,0,0,0,2.16058.392,26.26475,26.26475,0,0,1,4.56143.01733.833.833,0,0,0,.56666-.05133c1.6332-1.12312,3.49007-1.16125,5.367-1.11,1.83591.05015,3.68217-.00782,5.50555.16914,2.89061.28053,5.78315-.02625,8.67465.21149,5.94631.4889,9.51635,3.99662,9.99231,9.905a66.80963,66.80963,0,0,1,.04936,9.74646,16.03807,16.03807,0,0,1-1.39831,5.72124c-.111.24111-.21877.43715-.04181.72642a10.48412,10.48412,0,0,1,1.465,4.86576c.14429,2.20982.16188,4.425.122,6.639a6.17791,6.17791,0,0,1-1.0858,3.32178.63957.63957,0,0,0-.03349.7697,8.11371,8.11371,0,0,1,.94078,4.17547c-.031,2.72428.08257,5.45349-.04025,8.17274-.22929,5.07716-2.795,8.803-8.0088,9.93278a32.92077,32.92077,0,0,1-13.101-.18986c-.16387-.03026-.35095-.13192-.48723-.085-2.17558.74912-4.41511.37866-6.625.34917a48.64491,48.64491,0,0,1-7.01654-.381,4.99669,4.99669,0,0,0-2.88772.22164,5.55749,5.55749,0,0,1-1.855.28647,24.42541,24.42541,0,0,1-7.62419-.37662,4.7792,4.7792,0,0,0-2.90362.09485,16.03024,16.03024,0,0,1-4.60518.39657,25.041,25.041,0,0,1-5.77988-.00331,13.34511,13.34511,0,0,1-2.97177-.89914.95067.95067,0,0,0-.75592-.12911,8.84786,8.84786,0,0,1-3.36527.37452c-3.16273-.1167-6.33271-.05727-9.48694-.379a32.43979,32.43979,0,0,1-4.27987-.75945A6.27437,6.27437,0,0,1,46.36208,60.57217ZM17.69659,44.854c-.4363.05173-.75082.0719-1.05863.1284A3.25354,3.25354,0,0,0,13.892,47.85594a30.35442,30.35442,0,0,0-.141,6.70221,6.82208,6.82208,0,0,0,5.39237,6.12449,23.63645,23.63645,0,0,0,3.73619.48426,23.40526,23.40526,0,0,0,7.92493-.481A9.459,9.459,0,0,1,34.468,60.5191a16.841,16.841,0,0,0,6.981-.18729,3.5921,3.5921,0,0,0,2.85637-3.32024c.06256-.86457.10674-1.7321.11051-2.59851.00177-.40615.125-.55328.53314-.54083a8.56812,8.56812,0,0,0,2.7979-.329c.49479-.15254.51927.06205.51341.4385-.01312.84372-.0225,1.68827-.00033,2.53161a3.35949,3.35949,0,0,0,2.597,3.40035c.77821.173,1.56262.32631,2.35074.44583a97.96816,97.96816,0,0,0,11.57964.557,3.33955,3.33955,0,0,0,2.16473-.724.57158.57158,0,0,1,.811-.0041A8.73167,8.73167,0,0,0,72.237,61.70792c2.12986.13669,4.24258-.24841,6.37231-.19339a7.188,7.188,0,0,0,3.72564-1.054c.42581-.24054.71992-.34041,1.10175.07866a2.4017,2.4017,0,0,0,1.34931.661,27.82561,27.82561,0,0,0,7.4903.16436,1.56627,1.56627,0,0,0,.82756-.23493c.96094-.77685,1.98492-.484,3.01626-.25889a5.67853,5.67853,0,0,0,.57245.09061c3.51429.39725,7.04557.37591,10.57407.43267a4.04168,4.04168,0,0,0,2.28467-.57111.61834.61834,0,0,1,.669-.08432,8.52126,8.52126,0,0,0,2.79584.71738,27.68846,27.68846,0,0,0,10.23207-.21409c3.40013-.87408,4.94829-3.04565,5.18146-6.693.18118-2.834.04281-5.68783.06221-8.53275a4.57722,4.57722,0,0,0-1.723-3.73754c-.358-.29753-.69518-.61993-1.06952-.95572,2.286-.97279,3.06712-2.08986,3.023-4.23418q-.04307-2.09169-.0899-4.18331c-.0561-2.34683-.44744-4.57172-2.36344-6.21183-.25053-.21446-.14282-.3231.01832-.505a8.01554,8.01554,0,0,0,1.89547-4.00794A37.92385,37.92385,0,0,0,128.194,8.95137a6.09981,6.09981,0,0,0-5.01066-5.10172,23.56112,23.56112,0,0,0-2.95361-.31693c-2.53381-.25625-5.063.23049-7.61863-.11135a56.027,56.027,0,0,0-6.6638-.17516,3.351,3.351,0,0,0-2.651,1.12374.58635.58635,0,0,1-.616.25082,21.28354,21.28354,0,0,0-5.34159-.26044c-1.32216.07051-2.68928.26008-3.88721-.65177a2.53723,2.53723,0,0,0-1.469-.33417q-3.2267-.07946-6.45364-.14709a3.73837,3.73837,0,0,0-2.59719.7208.80622.80622,0,0,1-.90687.12229,10.73488,10.73488,0,0,0-6.83682-.03671c-.79082.25891-1.46138.54649-2.15336-.14318a1.09252,1.09252,0,0,0-.601-.23226,13.11091,13.11091,0,0,0-5.03913-.11462,2.91942,2.91942,0,0,1-2.28271-.1344,3.71628,3.71628,0,0,0-2.0729-.17906c-1.381.13048-2.833-.03395-4.03082.90792-.24942.19613-.39918-.03537-.57127-.13566a4.26708,4.26708,0,0,0-2.49814-.58659,19.05318,19.05318,0,0,1-2.75021.02359,4.584,4.584,0,0,0-4.22386,1.3921.296.296,0,0,1-.47953.05814c-1.59552-1.15294-3.46986-1.25137-5.33221-1.34544-2.91409-.14719-5.83584.15613-8.75095-.15966a4.50825,4.50825,0,0,0-2.68352.44489.4262.4262,0,0,1-.46492-.0261c-1.96859-1.07885-4.00175-.53581-6.00979-.18021a4.91534,4.91534,0,0,1-1.34085.16487,15.24539,15.24539,0,0,0-1.88025-.11325c-1.90353.0581-3.80709-.31691-5.71342.08718-2.23682.47415-3.21121,1.676-3.11749,3.96217.10162,2.47886.20558,4.95786.27578,7.43772.08318,2.93819.07292,5.87859.2304,8.81531a3.81624,3.81624,0,0,0,1.72165,3.388c.39974.241.14433.41373.00548.61847a8.40471,8.40471,0,0,0-1.48752,4.97529c.03457,1.95137.06532,3.903.12482,5.85371a6.021,6.021,0,0,0,1.81515,4.1385C16.46462,43.55116,17.03828,44.16442,17.69659,44.854Z" fill="#026938"></path><path d="M17.69659,44.854c-.65831-.68957-1.232-1.30283-1.81918-1.90293a6.021,6.021,0,0,1-1.81515-4.1385c-.0595-1.9507-.09025-3.90234-.12482-5.85371A8.40471,8.40471,0,0,1,15.425,27.98356c.13885-.20474.39426-.37746-.00548-.61847a3.81624,3.81624,0,0,1-1.72165-3.38795c-.15748-2.93672-.14722-5.87712-.2304-8.81531-.0702-2.47986-.17416-4.95886-.27578-7.43772-.09372-2.28619.88067-3.488,3.11749-3.96217,1.90633-.40409,3.80989-.02908,5.71342-.08718a15.24539,15.24539,0,0,1,1.88025.11325,4.91534,4.91534,0,0,0,1.34085-.16487c2.008-.3556,4.0412-.89864,6.00979.18021a.4262.4262,0,0,0,.46492.0261,4.50825,4.50825,0,0,1,2.68352-.44489c2.91511.31579,5.83686.01247,8.75095.15966,1.86235.09407,3.73669.1925,5.33221,1.34544a.296.296,0,0,0,.47953-.05814,4.584,4.584,0,0,1,4.22386-1.3921,19.05318,19.05318,0,0,0,2.75021-.02359,4.26708,4.26708,0,0,1,2.49814.58659c.17209.10029.32185.33179.57127.13566,1.19777-.94187,2.64981-.77744,4.03082-.90792a3.71628,3.71628,0,0,1,2.0729.17906,2.91942,2.91942,0,0,0,2.28271.1344,13.11091,13.11091,0,0,1,5.03913.11462,1.09252,1.09252,0,0,1,.601.23226c.692.68967,1.36254.40209,2.15336.14318a10.73488,10.73488,0,0,1,6.83682.03671.80622.80622,0,0,0,.90687-.12229,3.73837,3.73837,0,0,1,2.59719-.7208q3.227.06331,6.45364.14709a2.53723,2.53723,0,0,1,1.469.33417c1.19793.91185,2.565.72228,3.88721.65177a21.28354,21.28354,0,0,1,5.34159.26044.58635.58635,0,0,0,.616-.25082,3.351,3.351,0,0,1,2.651-1.12374,56.027,56.027,0,0,1,6.6638.17516c2.55563.34184,5.08482-.1449,7.61863.11135a23.56112,23.56112,0,0,1,2.95361.31693A6.09981,6.09981,0,0,1,128.194,8.95137a37.92385,37.92385,0,0,1-.01115,13.22919,8.01554,8.01554,0,0,1-1.89547,4.00794c-.16114.182-.26885.29059-.01832.505,1.916,1.64011,2.30734,3.865,2.36344,6.21183q.05,2.09154.0899,4.18331c.04413,2.14432-.737,3.26139-3.023,4.23418.37434.33579.71153.65819,1.06952.95572a4.57722,4.57722,0,0,1,1.723,3.73754c-.0194,2.84492.119,5.69875-.06221,8.53275-.23317,3.64734-1.78133,5.81891-5.18146,6.693a27.68846,27.68846,0,0,1-10.23207.21409,8.52126,8.52126,0,0,1-2.79584-.71738.61834.61834,0,0,0-.669.08432,4.04168,4.04168,0,0,1-2.28467.57111c-3.5285-.05676-7.05978-.03542-10.57407-.43267a5.67853,5.67853,0,0,1-.57245-.09061c-1.03134-.22509-2.05532-.518-3.01626.25889a1.56627,1.56627,0,0,1-.82756.23493,27.82561,27.82561,0,0,1-7.4903-.16436,2.4017,2.4017,0,0,1-1.34931-.661c-.38183-.41907-.67594-.3192-1.10175-.07866a7.188,7.188,0,0,1-3.72564,1.054c-2.12973-.055-4.24245.33008-6.37231.19339a8.73167,8.73167,0,0,1-4.47388-1.51943.57158.57158,0,0,0-.811.0041,3.33955,3.33955,0,0,1-2.16473.724,97.96816,97.96816,0,0,1-11.57964-.557c-.78812-.11952-1.57253-.2728-2.35074-.44583a3.35949,3.35949,0,0,1-2.597-3.40035c-.02217-.84334-.01279-1.68789.00033-2.53161.00586-.37645-.01862-.591-.51341-.4385a8.56812,8.56812,0,0,1-2.7979.329c-.40817-.01245-.53137.13468-.53314.54083-.00377.86641-.048,1.73394-.11051,2.59851A3.5921,3.5921,0,0,1,41.449,60.33181a16.841,16.841,0,0,1-6.981.18729,9.459,9.459,0,0,0-3.66356.16684,23.40526,23.40526,0,0,1-7.92493.481,23.63645,23.63645,0,0,1-3.73619-.48426A6.82208,6.82208,0,0,1,13.751,54.55815a30.35442,30.35442,0,0,1,.141-6.70221A3.25354,3.25354,0,0,1,16.638,44.98239C16.94577,44.92589,17.26029,44.90572,17.69659,44.854Z" fill="#dddc3d"></path><path d="M44.33391,40.48794a18.78228,18.78228,0,0,1-.24468,3.29847c-.07244.34542-.20214.56277-.60346.575-.62616.019-1.25054.09052-1.87662.11984-.46728.02188-.66706-.19239-.70843-.68871-.21865-2.62323.07057-5.24139.03583-7.86168-.00407-.30681.10539-.43264.41324-.44027.3612-.00895.72144-.07771,1.08221-.07864,1.25117-.00325,1.57242.30473,1.68675,1.54616C44.22688,38.13218,44.33558,39.30582,44.33391,40.48794Z" fill="#dddc3d"></path><path d="M119.36655,16.19077c0-1.56716-.0164-2.84273.01164-4.11734.00693-.31455-.15145-.82472.40564-.84631.52067-.02018,1.09056-.01292,1.32017.63608a3.28191,3.28191,0,0,1,.15319,1.13806q-.025,3.17483-.05133,6.34966c-.00715,1.01854-.22744,1.24771-1.24115,1.377-.3761.048-.4902-.04216-.5277-.42966C119.29514,18.83214,119.41228,17.36459,119.36655,16.19077Z" fill="#dddc3d"></path><path d="M42.24586,15.95226c0-1.29838-.00845-2.59685.0059-3.89507.00363-.32772-.15974-.8144.40541-.83255.49707-.016,1.04632-.01122,1.27976.58851a2.84549,2.84549,0,0,1,.19226,1.05871c-.01559,2.16436-.02813,4.32875-.05188,6.493-.01084.98812-.23822,1.20755-1.19831,1.35872-.45537.0717-.61375-.06949-.61016-.51415.01144-1.419.00424-2.83811.00424-4.25717Z" fill="#dddc3d"></path><path d="M98.05511,14.62292c-.00008-.72139.01422-1.44318-.00595-2.164-.01055-.37716.1354-.48873.50587-.50568,1.30368-.05964,1.46713.07881,1.47749,1.37665.00882,1.1058.02688,2.2116.02553,3.31739-.001.78785-.06411.79421-1.27419.85655-.68908.03551-.73438-.36127-.7301-.861C98.05953,15.96955,98.05518,15.29621,98.05511,14.62292Z" fill="#dddc3d"></path><path d="M54.193,13.55265a7.51,7.51,0,0,1,.45684,2.27187c.12706,1.0505.25689,2.10088.36364,3.15352.08294.81788-.6.37617-.91866.49986-.27386.10628-.70936.12519-.67338-.36068a40.2372,40.2372,0,0,1,.54944-5.37492A.19451.19451,0,0,1,54.193,13.55265Z" fill="#dddc3d"></path></g><path d="M80.53836,39.94574c-.87083-.00007-1.74272-.02579-2.61207.00994-.49152.02021-.637-.16171-.6058-.62458.0389-.57622.02668-1.15581.03881-1.7339.03674-1.751-1.28336-2.29349-2.69141-2.34037-.68445-.02279-.96687.47653-1.055,1.14044a32.60586,32.60586,0,0,0-.08959,5.34162c.074,2.35846.16751,4.71631.2538,7.07438.01232.337.01039.67624.05076,1.01015.13543,1.12.48805,1.42691,1.61463,1.43793,2.05249.02008,2.051.02015,1.96618-2.04239-.03165-.77013-.04225-1.54131-.08615-2.31067-.02337-.40947.07-.60674.54669-.60024,1.81389.02479,3.62834.01479,5.44252.00585.31938-.00158.48524.068.48813.43539.02219,2.8214.08092,5.63606-1.0176,8.33151a4.53993,4.53993,0,0,1-4.5332,3.15029c-1.49783.01958-2.99218.07947-4.487.21715-3.4421.317-5.63813-1.37263-6.29541-4.7726a48.69309,48.69309,0,0,1-.579-7.77291c-.1036-3.32152-.33293-6.6414-.2132-9.96676a17.46768,17.46768,0,0,1,.71884-4.33778,4.29658,4.29658,0,0,1,4.21822-3.33987c1.93016-.11338,3.86691-.14131,5.79692-.16508a6.135,6.135,0,0,1,5.27563,2.68391,4.813,4.813,0,0,1,.88777,2.63226c.097,1.97209.16423,3.94564.25991,5.9178.02222.458-.11468.64817-.60862.62862C82.3294,39.92047,81.43337,39.94581,80.53836,39.94574Z" fill="#026938"></path><path d="M125.14806,50.61113c0,1.18106-.00218,2.36212.00082,3.54317a6.715,6.715,0,0,1-.30216,2.043,3.15867,3.15867,0,0,1-2.64763,2.1425,24.9477,24.9477,0,0,1-8.72439.091c-.21616-.02362-.43127-.05714-.6467-.08724a3.41174,3.41174,0,0,1-3.25116-3.21952,12.92524,12.92524,0,0,1,.0178-4.52719,1.24142,1.24142,0,0,0,.01582-.14362c.05282-.47375-.21279-1.09689.12178-1.38477.3009-.25891.90082-.18026,1.37066-.23518a23.85337,23.85337,0,0,1,4.3427.13392c.372.02426.46473.27113.4691.602.01078.816.01307,1.63321.064,2.44713.05221.83412.56721,1.32021,1.2674,1.26439a1.51565,1.51565,0,0,0,1.503-1.3959c.04889-.91665-.00676-1.83063.00652-2.74487a1.38712,1.38712,0,0,0-.62765-1.208,61.028,61.028,0,0,1-5.65412-4.63775c-.75-.74829-1.40962-1.58625-2.11489-2.37942-.686-.77153-.5012-1.74028-.5477-2.62933-.08555-1.63529-.04985-3.27666-.07585-4.91533a5.10724,5.10724,0,0,1,4.68816-4.98766,29.8145,29.8145,0,0,1,8.29358.42012,2.86461,2.86461,0,0,1,2.42134,2.43973,6.014,6.014,0,0,1,.14535.99985c.05216,1.75582.07143,3.51269.134,5.26806.02037.57135-.19641.76139-.75717.76486a9.85773,9.85773,0,0,0-1.87294.17849,8.38849,8.38849,0,0,1-3.22907-.24873c-.37628-.069-.47512-.29743-.3612-.63191a4.82124,4.82124,0,0,0-.1522-2.70476,1.4902,1.4902,0,0,0-1.75614-.91414c-.76609.08675-.85559.5933-.82535,1.19088.045.88977.11647,1.77824.15836,2.66812a1.2645,1.2645,0,0,0,.58579.94379c2.45741,1.99249,4.89762,4.005,7.27377,6.09461a1.8492,1.8492,0,0,1,.7019,1.565c-.03741,1.39729-.01138,2.79628-.01138,4.19458Z" fill="#026938"></path><path d="M32.665,49.7606c0,.98828-.06753,1.98232.01681,2.9634a6.83189,6.83189,0,0,1-.75265,3.54825c-.46441.98955-1.508,1.05581-2.37079,1.31319a15.85709,15.85709,0,0,1-4.968.36222,28.08574,28.08574,0,0,1-4.54072-.4418,3.48133,3.48133,0,0,1-3.03886-3.4312,25.62657,25.62657,0,0,1,.142-5.47731c.0353-.25613.09179-.37284.37057-.41155a23.22805,23.22805,0,0,1,5.49753.01551c.42151.04151.403.33043.409.62725.01647.81828.00087,1.63952.068,2.45385.07011.85031.5112,1.2476,1.22575,1.22106,1.02535-.03808,1.51149-.45218,1.52688-1.34333.01663-.96272-.00815-1.92614.00862-2.88886a1.17866,1.17866,0,0,0-.52992-1.03257,58.34314,58.34314,0,0,1-4.96755-3.98959c-.93932-.90212-1.82229-1.86263-2.72763-2.79974a3.62647,3.62647,0,0,1-.71794-2.65307c-.05083-1.758-.03894-3.51766-.06452-5.27647a5.09,5.09,0,0,1,4.544-4.88493,29.35333,29.35333,0,0,1,8.00949.31837c2.07781.43957,2.8778,1.312,2.98711,3.46009.09054,1.77926.092,3.563.13506,5.34471.0088.36371-.03365.72983-.49032.73516-1.68194.0196-3.3569.46781-5.05075.01905-.57347-.15193-.782-.2627-.62494-.94573a4.65335,4.65335,0,0,0-.27049-2.62316,1.72533,1.72533,0,0,0-2.2052-.63123.77461.77461,0,0,0-.2881.63451,15.632,15.632,0,0,0,.16565,3.31217c.03206.34885.31621.5231.55893.72146,2.46811,2.0171,4.929,4.04222,7.31837,6.15306a1.715,1.715,0,0,1,.65888,1.43435c-.03077,1.397-.00974,2.79519-.00974,4.19289Z" fill="#026938"></path><path d="M50.09647,37.14128c-.07407,2.57954.03408,5.4019-.29342,8.20918a13.92536,13.92536,0,0,1-.55316,2.61151,3.225,3.225,0,0,1-3.25656,2.57628c-1.23323.09948-2.46425-.01-3.6963-.02826-1.052-.01555-1.03961-.0096-1.06892,1.00713-.04719,1.63708-.12873,3.27333-.16042,4.91061a.67584.67584,0,0,1-.64918.77066,15.07155,15.07155,0,0,1-5.121.13756c-.46945-.07342-.67649-.21632-.57147-.73692a13.36581,13.36581,0,0,0,.007-2.44938c.07465-4.53027-.03676-9.05911-.09617-13.58811-.04992-3.80593-.154-7.61113-.225-11.41682-.017-.91248.05657-.96612.96971-1.03119a25.84313,25.84313,0,0,1,5.20984.06717c1.28322.16787,2.5359-.34642,3.82376-.21775.28744.02871.58023.0042.87056.0042,3.06326,0,4.62515,1.4385,4.79689,4.5296C50.1639,33.96176,50.09647,35.435,50.09647,37.14128Zm-5.76256,3.34666c.00167-1.18212-.107-2.35576-.21516-3.52985-.11433-1.24143-.43558-1.54941-1.68675-1.54616-.36077.00093-.721.06969-1.08221.07864-.30785.00763-.41731.13346-.41324.44027.03474,2.62029-.25448,5.23845-.03583,7.86168.04137.49632.24115.71059.70843.68871.62608-.02932,1.25046-.1008,1.87662-.11984.40132-.01221.531-.22956.60346-.575A18.78228,18.78228,0,0,0,44.33391,40.48794Z" fill="#026938"></path><path d="M51.64126,47.82718c-.074-3.408.14617-7.64882.0882-11.88825-.03227-2.36052.05935-4.71753.01468-7.07521-.01323-.69849.13131-.96482.91211-.94014,3.47912.11,6.96046.15,10.441.217.93654.018,1.25557.33476,1.255,1.36269-.00078,1.2761-.07026,2.552-.08071,3.82828-.00906,1.10633-.17942,1.31075-1.304,1.30974a27.10471,27.10471,0,0,1-3.46844-.23966c-.96919-.12583-1.35428.08362-1.22164,1.0951.15642,1.19294.23658,2.39679.31756,3.59806.0313.46433.234.61947.682.62619,1.42553.02135,2.8505.07706,4.27592.10823.918.02007,1.17149.26446,1.33818,1.15687.30907,1.65469-.27945,3.24534-.30317,4.87438-.00561.38492-.27948.37837-.56157.35973-1.32606-.08764-2.65318-.16056-3.97836-.25955-.99207-.0741-1.20382.09477-1.29737,1.06633a17.62885,17.62885,0,0,0,.24016,3.52511c.05246.506.50668.49194.827.53324,1.02965.13277,2.06752.20175,3.102.29809.38477.03584.77055.06726,1.15288.12164,1.04008.14793,1.22039.29107,1.27358,1.30241a37.554,37.554,0,0,1-.03389,4.26182c-.03355.54941-.4237.56643-.83257.5565-2.44058-.05924-4.88184-.09956-7.32153-.18452a29.52809,29.52809,0,0,1-4.95679-.61971c-.46742-.09665-.5708-.28132-.568-.7115C51.6495,53.62713,51.64126,51.14407,51.64126,47.82718Z" fill="#026938"></path><path d="M94.39923,48.2288c.00174-3.734.07558-7.46891.05473-11.20111-.01464-2.62206.04336-5.2423.02471-7.86308-.00435-.61282.208-.78945.79773-.772q5.36132.15848,10.72411.26382c.7212.01349,1.03276.36889,1.03884,1.011.01483,1.565-.00988,3.13038-.018,4.69561-.00261.50358-.36174.64985-.76025.71438a17.56793,17.56793,0,0,1-3.53425-.10415c-.11971-.00469-.23768-.04339-.35743-.05889-1.24746-.16147-1.44168.02365-1.33249,1.27419.09844,1.12716.21753,2.25291.29124,3.38165.02989.45779.21332.63924.66791.64392,1.37761.01419,2.75495.05258,4.13244.07943,1.114.02172,1.32544.29275,1.50207,1.39553.24991,1.56036-.32082,3.04459-.30578,4.5762.00422.4294-.22491.49036-.6133.4599-1.39641-.10949-2.79839-.15256-4.193-.27839a.80694.80694,0,0,0-1.01137.8271,27.81536,27.81536,0,0,0,.14925,3.82006c.00909.31212.26956.28913.47006.34114a25.482,25.482,0,0,0,4.16542.52518c1.68493.15107,1.70115.13409,1.73856,1.80184.027,1.20436-.00415,2.40994.01623,3.61455.008.47371-.14415.74022-.6525.7271a96.63011,96.63011,0,0,1-10.70926-.4788A4.24609,4.24609,0,0,1,94.549,57.1025c-.46448-.42281-.13627-1.36534-.14263-2.07783C94.38611,52.75954,94.39886,50.49411,94.39923,48.2288Z" fill="#026938"></path><path d="M85.4901,55.44274c-.20863-4.26141-.15177-8.5267-.16832-12.79042-.00934-2.40835.07178-4.81451-.05153-7.225-.10695-2.09064.23235-4.18448.07766-6.28211a.71321.71321,0,0,1,.82123-.85411,3.17708,3.17708,0,0,1,2.02342.341.28573.28573,0,0,0,.26193.0274c.79954-.74631,1.79079-.32706,2.68564-.41059.82771-.07726,1.14189.2828,1.157,1.12384.01811,1.01047-.04631,2.0221-.04742,3.03326-.00563,5.134-.04749,10.26861.0148,15.4019.03741,3.08375.09674,6.16728.09481,9.25148-.00056.88953-.17237,1.14016-1.02638,1.09993-1.75038-.08247-3.504.25258-5.25463-.09024-.45231-.08857-.622-.213-.597-.67419C85.51634,56.74594,85.4901,56.09363,85.4901,55.44274Z" fill="#026938"></path><path d="M64.57778,16.95117c0,2.38166-.01867,4.76356.01395,7.14477.00757.55276-.15964.78543-.70458.81666a4.31812,4.31812,0,0,1-2.48994-.16384c-.68972-.449-.33649-1.48452-.37433-2.25425-.24489-4.9811-.26627-9.96606-.1754-14.95238.0114-.62543.165-.94132.83822-.93824a15.3211,15.3211,0,0,0,1.807-.11278,1.08214,1.08214,0,0,1,1.27586.88542c.94558,2.90736,1.90821,5.80921,2.86589,8.71265.0815.24707.17184.49124.27538.786.19357-.19836.12169-.39179.122-.55778.00539-2.98782.019-5.97581-.00994-8.96337-.00527-.5458.16886-.74474.68838-.71.771.05158,1.54227.12239,2.314.13.51178.00509.662.24544.66422.69984.00587,1.228.10964,2.4618.02415,3.68284-.28925,4.13137-.43014,8.26811-.54192,12.4062-.01891.70031-.27732.91467-.98518.98191-2.57171.2443-2.11968.25736-2.99526-1.852-.80077-1.92916-1.62119-3.85022-2.43295-5.77484Z" fill="#026938"></path><path d="M29.78568,16.86268c0,2.43524-.01882,4.87073.01448,7.30552.00745.54473-.1804.71382-.68418.74112a15.3273,15.3273,0,0,1-2.173-.03487c-.40913-.03578-.55674-.17271-.59874-.60869-.17138-1.77921-.12945-3.56422-.16493-5.34461-.07395-3.71064-.05844-7.42317-.06589-11.13495-.00222-1.10536.01837-1.11071,1.14938-1.20383.50573-.04164,1.01776-.02589,1.51956-.09187.73477-.0966,1.05177.30616,1.24957.91739q.81229,2.51019,1.63886,5.01581c.47977,1.461.96362,2.92067,1.54424,4.38574.01074-.191.03069-.382.03082-.57306.002-2.94175.022-5.88375-.01531-8.825-.00787-.62087.19963-.81077.76944-.76894.69881.05131,1.40006.12663,2.09841.11076.67962-.01544.83734.30829.82378.90361-.04277,1.87841-.00091,3.76029-.09585,5.6356-.15591,3.07942-.34066,6.15679-.36321,9.24121-.01393,1.906-.01745,1.906-1.88448,2.07471-1.33343.12052-1.31911.11464-1.8421-1.15158-.83706-2.02662-1.69406-4.04506-2.5466-6.06529-.08146-.193-.191-.37429-.28751-.561Z" fill="#026938"></path><path d="M115.2999,12.339c-.00972-.96162.04108-2.64874-.07069-4.33469-.065-.98006.0947-1.16156,1.057-1.19139a40.3056,40.3056,0,0,1,5.79587.16556,3.02589,3.02589,0,0,1,2.91283,2.6618,34.60924,34.60924,0,0,1,.37437,7.63356,25.65945,25.65945,0,0,1-.34943,4.02634,7.76843,7.76843,0,0,1-.6218,1.8441,2.9185,2.9185,0,0,1-2.79237,1.82024c-1.7153-.00331-3.4315.06586-5.1458.139-.63889.02727-.90658-.17009-.93245-.84494C115.38447,20.52818,115.21821,16.79888,115.2999,12.339Zm4.06665,3.85176c.04573,1.17382-.07141,2.64137.07046,4.10753.0375.3875.1516.47765.5277.42966,1.01371-.12933,1.234-.3585,1.24115-1.377q.02229-3.17485.05133-6.34966a3.28191,3.28191,0,0,0-.15319-1.13806c-.22961-.649-.7995-.65626-1.32017-.63608-.55709.02159-.39871.53176-.40564.84631C119.35015,13.348,119.36655,14.62361,119.36655,16.19077Z" fill="#026938"></path><path d="M38.152,13.47922c-.01755-1.3674.11028-3.389-.0764-5.40958-.09748-1.05523.07284-1.22814,1.13223-1.25874a41.08055,41.08055,0,0,1,5.57175.15244,3.151,3.151,0,0,1,3.12133,2.87317,37.89764,37.89764,0,0,1,.31239,6.40874,22.94071,22.94071,0,0,1-.42711,5.383,7.24955,7.24955,0,0,1-.66794,1.74836,2.74968,2.74968,0,0,1-2.627,1.58531,52.54,52.54,0,0,0-5.28309.12563c-.56007.04679-.78628-.13706-.7992-.711C38.33212,20.96185,38.07,17.55165,38.152,13.47922Zm4.09385,2.473.02722,0c0,1.41906.0072,2.83819-.00424,4.25717-.00359.44466.15479.58585.61016.51415.96009-.15117,1.18747-.3706,1.19831-1.35872.02375-2.16427.03629-4.32866.05188-6.493a2.84549,2.84549,0,0,0-.19226-1.05871c-.23344-.59973-.78269-.60447-1.27976-.58851-.56515.01815-.40178.50483-.40541.83255C42.23741,13.35541,42.24586,14.65388,42.24586,15.95226Z" fill="#026938"></path><path d="M83.38738,18.6568c0,1.13148.00623,2.263-.00245,3.39441a2.14122,2.14122,0,0,1-.6859,1.62445,6.08858,6.08858,0,0,1-8.45564-.17121,5.72981,5.72981,0,0,1-1.26514-3.46991c-.20183-2.85389-.643-5.70851-.10082-8.56772a22.2577,22.2577,0,0,1,.6139-2.30132A2.21151,2.21151,0,0,1,74.5495,7.83593a8.027,8.027,0,0,1,6.64538-.59663,2.14942,2.14942,0,0,1,1.33618,1.15419,6.214,6.214,0,0,1,.72122,3.7534.41468.41468,0,0,1-.4903.391c-.94293-.00933-1.88589-.03069-2.82874-.02553-.35347.00194-.35949-.192-.37788-.45954-.0647-.94215-.28976-1.13163-1.2786-1.13564-1.004-.00408-1.30812.22644-1.35446,1.16682-.13766,2.79373.0458,5.58266.16788,8.37227a.3702.3702,0,0,0,.39717.40713q.10863.00651.21695.01746c1.817.1806,1.88284.12879,2.045-1.63587.03084-.33556.03438-.67447.08145-1.00748a.91559.91559,0,0,0-.65457-1.12254.83955.83955,0,0,1-.56572-1.09448,4.48341,4.48341,0,0,0,.05542-.71977c.06345-1.27162.06287-1.26828,1.37984-1.34937a18.97085,18.97085,0,0,1,2.82283.10926c.38745.03383.471.21009.47817.55321A29.52594,29.52594,0,0,1,83.38738,18.6568Z" fill="#026938"></path><path d="M98.49343,22.27431c-.04933.85639-.10443,1.71251-.14447,2.56934-.01212.25919-.021.48542-.36425.50028a9.08583,9.08583,0,0,1-2.87954.03528c-.49133-.133-.662-.32732-.656-.831.03159-2.64939.03744-5.29916.03988-7.94881.00251-2.74474-.03665-5.48887-.21519-8.22894-.02453-.37655.01263-.73155.4859-.69871,2.09954.14569,4.19844-.31148,6.29642.00544.334.05046.66986.09066,1.00222.15019,1.29213.2314,1.55856.34171,1.65645,1.6038.23028,2.96877.56329,5.95667-.07164,8.9167a3.23211,3.23211,0,0,1-1.57283,2.62059c-.34114.1615-.031.37981.05226.5295.49171.88413,1.02459,1.74572,1.50861,2.63384.52432.96208.34481,1.247-.73273,1.25455-.5074.00355-1.01519.00288-1.522.02328-1.08051.04349-1.20439-.04039-1.66479-1.0049A6.96078,6.96078,0,0,0,98.49343,22.27431Zm-.43825-7.65139c0,.67329.00435,1.34663-.00142,2.01987-.00428.49976.041.89654.7301.861,1.21008-.06234,1.27323-.0687,1.27419-.85655.00135-1.10579-.01671-2.21159-.02553-3.31739-.01036-1.29784-.17381-1.43629-1.47749-1.37665-.37047.01695-.51642.12852-.50587.50568C98.06933,13.17974,98.055,13.90153,98.05518,14.62292Z" fill="#026938"></path><path d="M54.16415,6.72185a11.85211,11.85211,0,0,0,1.739-.01664c.77792-.11654,1.06095.23939,1.141.922.261,2.22522.87318,4.38643,1.14837,6.6156.42185,3.41709.99562,6.81615,1.54356,10.21668.10038.62295-.13385.71266-.64325.665-.7939-.07426-1.5887-.14494-2.3847-.1882a.663.663,0,0,1-.68589-.59243c-.2873-1.10061-.30485-1.09624-1.41824-1.09636-.21768,0-.43564.00967-.653.00169-.752-.02758-1.20511.27333-1.18737,1.07766.01047.47481-.21828.60025-.66978.58165-.821-.03383-1.64584-.03884-2.46628.00115-.48968.02387-.55069-.17368-.51785-.59128.33257-4.22859.90974-8.42812,1.49633-12.62639.1899-1.35914.43216-2.711.62366-4.06993a.92418.92418,0,0,1,1.12148-.91952c.60181.04015,1.20845.00835,1.81294.00835Zm.0288,6.8308a.19451.19451,0,0,0-.22212.18965,40.2372,40.2372,0,0,0-.54944,5.37492c-.036.48587.39952.467.67338.36068.31869-.12369,1.0016.318.91866-.49986-.10675-1.05264-.23658-2.103-.36364-3.15352A7.51,7.51,0,0,0,54.193,13.55265Z" fill="#026938"></path><path d="M84.81625,15.16858c.08464-2.34927-.1475-5.16928.04906-7.98844.03286-.47129.12763-.67965.65615-.661q3.1162.10974,6.23491.14356c.61309.00666.80743.26814.78722.83773-.02907.81859-.04661,1.63994-.01085,2.45757.02181.49865-.22053.6684-.64.65524-.72385-.02271-1.44671-.08051-2.16953-.13023-.77456-.05327-.89529.06157-.83381.84592.049.62433.12291,1.2469.16235,1.87173.02584.40924.17384.59264.62495.57481.7725-.03052,1.5488.03427,2.32134.004.67357-.02635.89674.3009.92306.91118.03869.89721-.13708,1.77727-.16987,2.66725-.01375.37341-.24148.351-.492.33561-.772-.04737-1.54529-.07926-2.31539-.1475-.56575-.05012-.82291.19156-.798.739.02958.649.08568,1.29678.11207,1.94583.01234.30357.21567.32239.4365.36974a13.32932,13.32932,0,0,0,2.51662.30717c.712.01481.98185.34589.96523,1.02208-.01834.74692-.00549,1.49478.00345,2.24211.004.33045-.14026.503-.47445.48693a54.35041,54.35041,0,0,1-7.22937-.41327c-.561-.10254-.67512-.35193-.67045-.868C84.829,20.79785,84.81625,18.21777,84.81625,15.16858Z" fill="#026938"></path><path d="M24.70406,23.16972v.28906c-.00008,1.734.00162,1.71343-1.70888,1.573-1.73256-.14226-3.46775-.26679-5.20431-.339-.60559-.02516-.7643-.25054-.79611-.81516-.15442-2.74158-.12865-5.4868-.21192-8.22944q-.11829-3.89631-.29325-7.79076c-.02554-.56715.06213-.88448.73217-.932a52.15145,52.15145,0,0,1,6.50939.14171c1.30423.07021,1.30376.1398,1.24656,1.41946-.02255.50447-.10115,1.00921-.08659,1.51189.01892.65384-.30985.81727-.89416.814a17.60987,17.60987,0,0,0-2.38885.047.5686.5686,0,0,0-.58012.58134,8.41339,8.41339,0,0,0-.01674,2.15711c.06065.49483.29937.65037.76006.65726.86889.013,1.73714.07147,2.606.08207.37834.00462.515.15537.50533.51977-.02163.81772-.02413,1.636-.03337,2.454-.00872.7721-.23757.98988-1.01617.92211-.721-.06275-1.43922-.1565-2.15994-.22277-.44453-.04088-.649.1345-.63877.624a14.10218,14.10218,0,0,1-.1205,1.7269c-.05258.51124.183.69024.669.69425.77193.00636,1.54283-.0189,2.31691.04373.67079.05428.8699.38705.83774.988-.01926.35989-.00354.72164-.00354,1.08256Z" fill="#026938"></path><path d="M105.67031,14.95042c.05511-2.30343-.10353-5.00222.01292-7.70173.02323-.53828.1476-.75547.74074-.73193,2.05255.08146,4.10712.124,6.16131.14529.60336.00627.83079.26308.82062.82534-.0148.81893-.0504,1.63929-.01708,2.4566.02015.49448-.2194.67235-.63541.66663-.65123-.009-1.30381-.04405-1.95224-.10547-1.0341-.098-1.10473-.05071-1.04268.95546.037.60082.11567,1.19951.13952,1.80058.015.37757.19152.50479.54167.50512.82157.00078,1.64349.03249,2.46453.01566a.69813.69813,0,0,1,.82325.76612,18.8132,18.8132,0,0,1-.158,2.81143c-.03947.36757-.23414.35143-.48725.33509-.77149-.04981-1.5445-.08178-2.31436-.14948-.5249-.04616-.78583.16662-.77209.68442.01783.67241.05845,1.3442.08438,2.01645.01169.30324.24.30746.454.35728a18.3433,18.3433,0,0,0,2.7311.34194c.5676.04479.74715.304.73258.83122-.02195.79491-.01372,1.591-.00238,2.3863.00463.32478-.105.5151-.45265.49643a53.9007,53.9007,0,0,1-7.226-.41588c-.5083-.0963-.66392-.28316-.65888-.798C105.68438,20.74561,105.67031,18.04557,105.67031,14.95042Z" fill="#026938"></path><path d="M6.48423,77.88429c-.49716-.0776-1.02946.06558-1.41531-.24246a4.74356,4.74356,0,0,0-2.39119-.65594c-.21986-.03981-.45458-.00985-.59075-.26226-.0629-.11658-.19327-.10611-.30559-.11056A3.89879,3.89879,0,0,1,.5011,76.18028a.24987.24987,0,0,1-.18263-.26339c.00315-.05856.02451-.14136-.00365-.17279-.47726-.53308-.29955-1.13462-.188-1.73656.02132-.115.00406-.24657.0891-.32841a5.12894,5.12894,0,0,1,1.32359-1.2035c5.09659-2.26037,5.82454-1.95734,7.83854-2.12586,3.25034-.272,7.56055-.67661,10.49739,1.3843a5.88445,5.88445,0,0,1,2.28579,6.46035,10.83334,10.83334,0,0,1-2.04177,3.7369,18.09812,18.09812,0,0,1-1.42719,1.689c-.11354.11572-.24835.22831-.08693.40327.97722,1.05924,1.56508,2.40849,2.43759,3.55041a35.60238,35.60238,0,0,1,5.00017,9.44322c1.19325,3.24494.45208,2.59149,1.28367,3.95068a6.67647,6.67647,0,0,1,1.22823,3.42867,2.10135,2.10135,0,0,1-.02427.352c-.04013.25023-.09933.3043-.38931.20357a7.03041,7.03041,0,0,1-2.43619-1.83984c-.87322-.83322-1.83751-1.56131-2.73678-2.3661a15.79944,15.79944,0,0,1-1.15231-1.231c-1.70428-1.89215-2.91062-4.1826-4.51048-6.161-.81944-1.01331-1.70691-1.96777-2.49008-3.006a21.101,21.101,0,0,1-1.97816-2.85467.50157.50157,0,0,0-.14475-.20717c-.32512-.18436-1.276.38879-1.30624.76913a20.94941,20.94941,0,0,1-1.71775,7.34007c-.49153,1.0488.11,2.73311-1.29605,4.13992-.20942.20953-.3061.23179-.51265-.04437a5.08174,5.08174,0,0,1-.87755-2.26145c-.33642-1.93233-1.51078-2.9847-1.5417-7.09324-.00807-1.07192-.59187-.16615-2.4152-.92792-.08942-.03734-.2085-.05458-.21466-.18011-.00625-.12724.10774-.16823.1987-.19793.76861-.251,1.30566-.92387,2.05036-1.22228.24649-.09877.21324-.36338.19361-.58093-.33742-3.73973-.70277-3.74413-.59874-4.72053.10238-.96087-.66454-2.59878.7068-3.20513a.47656.47656,0,0,0,.23932-.23557A1.66883,1.66883,0,0,1,6.48423,77.88429Zm3.32906-.5452c.18506.35359.49657.48886.58941.79687.44034,1.461,1.21684,2.84625.92605,4.47286-.01262.0706-.03117.15967.05156.18928a.17129.17129,0,0,0,.146-.05232,23.78129,23.78129,0,0,1,1.98515-1.709,11.961,11.961,0,0,0,2.51536-3.46631c.22427-.4276.18513-.51568-.284-.59965C14.1507,76.68581,13.78354,76.82666,9.81329,77.33909Z" fill="#fff"></path><path d="M135.93272,75.04148c.9661-.11019,1.93635-.19081,2.89719-.33846a11.3855,11.3855,0,0,1,3.201-.04228,5.46191,5.46191,0,0,1,1.37751.41071c.61882.2552.98608,1.29247.20324,2.53823-.2901.46163-.73457.76758-1.02,1.22443a.59957.59957,0,0,1-.44212.23209c-1.539.29762-2.99758.93439-4.538,1.20563a15.78994,15.78994,0,0,1-2.30192.31718c-.62783.017-.76931.13335-.83.78522-.19993,2.1481-.71751,2.482.06026,2.73655,2.21016.72346,3.50023-.48883,9.64449-.53364a37.89325,37.89325,0,0,1,4.829.28684c.83359.10069,1.28472,1.07654.76508,1.59417-.06087.06062-.15656.095-.19545.16586-.54788.9978-1.56847,1.29593-2.413,1.87415a10.02222,10.02222,0,0,1-1.78769.7613c-1.12013.50315-1.28883.31346-7.58136,1.39563-1.11477.19172-2.18966.55409-3.30488.72247a1.31067,1.31067,0,0,1-.54427.01233,4.694,4.694,0,0,0-2.70306.20936c-.20673.06-.435.14912-.57976-.07847-.25268-.39734.67439-.586-.023-.90268-1.9365-.88006.37854-1.41971-.92641-3.72541-.17949-.3171-.2103-.50226.01752-4.87645.04762-.91438-.05283-1.82787.0316-2.7367.08879-.95577.011-1.9232.1284-2.86708a25.6009,25.6009,0,0,0,.12955-2.82069c.00816-.5821-.00431-.5862-.53847-.50761-.43608.06419-.59209.03677-.667-.1179-.07893-.16311.02478-.2884.13419-.38205.28712-.24575.19218-.4274-.08994-.54821-.77874-.33352-.7436-.45617-.45179-1.31923a5.63166,5.63166,0,0,1,1.3547-2.54516,1.248,1.248,0,0,0,.55025-1.08406c-.01557-.14223.07974-.343.23746-.30432.31578.0775.4602-.1537.655-.30741a1.43366,1.43366,0,0,1,1.78287.0691,3.07187,3.07187,0,0,0,2.64812.42567,25.80751,25.80751,0,0,1,5.18413-.77271c1.44183-.08478,2.81653-.5596,5.25369.35969a.98647.98647,0,0,1,.52849,1.271.975.975,0,0,1-.3076.41438c-.02236.018-.05269.03062-.06635.054a4.00423,4.00423,0,0,1-2.17335,1.50878c-.26006.11061-.67035.50308-.17945.56028a.79307.79307,0,0,1,.1659.03419c.18734.06453.53193-.06549.53231.19436.00031.21649-.3536.16308-.5456.19045-1.48069.211-2.93029.59469-4.40473.84585a30.84739,30.84739,0,0,0-3.75325.85582.61437.61437,0,0,0-.51919.59636c-.06313.89564-.14089,1.79017-.21212,2.68519-.01681.21123.081.29654.27866.279.16858-.01494.33784-.02141.5068-.03162Z" fill="#fff"></path><path d="M94.00843,80.10766a35.32743,35.32743,0,0,1-1.53013,8.92226c-.4753,1.26874-.02049,3.26277-.983,4.733-.19127.29213-.30037.28066-.508-.03036a5.65723,5.65723,0,0,1-.794-2.16073c-.18928-.99507-.49691-1.9653-.74636-2.94821-.18824-.74179-.26011-1.50665-.39328-2.25762-.22773-1.284.17681-6.20844-.52861-10.56126-.13277-.81922-.08513-1.67346-.17422-2.50963-.09809-.92028.606-.79264.82807-1.81644a8.83919,8.83919,0,0,1,.69-1.3818c.19017-.47236.644-.48261,1.02173-.56538a1.85138,1.85138,0,0,1,1.93216,1.01856c.36719.85254.77167.23538,1.34643.6345,2.62417,1.82233,2.46822,2.54443,3.22822,3.75133a25.95766,25.95766,0,0,1,2.96054,6.09332,1.1315,1.1315,0,0,0,.117.232c.01118.01887.04821.021.10019.0413.12946-.2551.00641-.51723.00648-.767a38.00172,38.00172,0,0,0-.37493-6.69658c-.08589-.8621-.12229-1.73053-.20066-2.59509a1.18424,1.18424,0,0,1,.40023-1.07025,1.146,1.146,0,0,0,.40161-.69692,5.22905,5.22905,0,0,1,.87066-1.68505,1.826,1.826,0,0,1,2.60836.338,1.92088,1.92088,0,0,1,.22128.37515c1.35967,3.35.8528,2.9333,1.09749,6.5924a27.99937,27.99937,0,0,1-.1921,5.775,29.90984,29.90984,0,0,1-1.33383,6.19752c-.40839,1.11446.04,1.20185-.46171,3.48528a3.40268,3.40268,0,0,1-.38769.97634c-.55474.95942-.45377-.42714-1.414-.7848a2.12282,2.12282,0,0,1-.84411-.78652A15.82134,15.82134,0,0,0,99.241,88.2098c-2.23458-2.108-2.86655-4.54906-4.19114-6.63068-.31736-.49871-.6141-1.01173-.92028-1.51821Z" fill="#fff"></path><path d="M29.63271,79.71755c-1.04034,0-1.36155.05994-1.63992-.25243a1.66106,1.66106,0,0,0-.9181-.49862,3.63685,3.63685,0,0,1-1.24216-.71177,1.7081,1.7081,0,0,1-.17517-1.879,2.76359,2.76359,0,0,1,.90687-.83967,12.52489,12.52489,0,0,1,3.54308-1.38484c1.63891-.34548,3.17683-1.11986,4.84523-1.39856,5.42141-.90571,5.46465.353,8.47078-.01782a2.31286,2.31286,0,0,1,1.808.61119c.209.18064.22874.319.06031.58605A3.50768,3.50768,0,0,1,43.63,75.29665c-1.54389.67128-2.64336,2.03975-5.49616,2.49811-1.79778.28885-3.57473.69594-5.33907,1.15993-.27192.07151-.37348.11771-.14389.4474A7.60774,7.60774,0,0,1,33.661,81.86086c.17389.66275.226.71789.8711.60671a12.08436,12.08436,0,0,1,3.18615-.36175,8.77468,8.77468,0,0,1,3.43459.84241.952.952,0,0,0,.61643.06937,2.02445,2.02445,0,0,1,1.6594.49036.37347.37347,0,0,1,.13939.50052.3667.3667,0,0,1-.07153.093,2.33829,2.33829,0,0,1-.95553.83441,6.63684,6.63684,0,0,0-1.25542.89547c-1.81311,1.39653-3.38137.82712-6.11544,2.02349-.53367.23351-1.19045-.0444-1.23929.61718-.33449,4.5335-1.17681,4.74423-.39342,4.71109,1.76505-.0746,3.40408-.8098,7.02712-.36369a10.45909,10.45909,0,0,1,3.11557.76573c.59347.2707,1.92571-.277,2.94719.66524.21.19374.24643.32586.00594.55883a2.63041,2.63041,0,0,1-1.19109.71461,8.669,8.669,0,0,0-1.89072.87691c-2.41642,1.30008-4.34482.80223-8.47458,2.13514a11.34328,11.34328,0,0,1-2.03908.32477.81264.81264,0,0,1-.76463-.38646c-.08557-.11411-.19682-.30766-.28673-.30184-.71183.04605-.87909-.65644-1.27632-1.0166-.60132-.54521-.15427-1.53176-.3769-2.09855-1.7182-4.37423-.52493-4.6867-1.77455-10.92252-.14541-.7256-.11357-1.49168-.21715-2.23493a.7753.7753,0,0,1,.24309-.76664C29.13256,80.80372,29.19836,80.13536,29.63271,79.71755Z" fill="#fff"></path><path d="M85.15421,90.73045a3.65772,3.65772,0,0,1-2.72139,1.46578c-2.864.08464-6.4247,1.29975-7.63473,1.44471-.4072.0488-.941.60792-1.91693.39645-1.1658-.25263-1.73777.42658-2.0093.0974-.12744-.15454-.02059-.30707.06129-.44345.13552-.22567.00064-.34442-.1688-.40246a.70946.70946,0,0,1-.496-.86134.72184.72184,0,0,1,.046-.12992,4.09451,4.09451,0,0,0-.32584-2.90576A15.73492,15.73492,0,0,1,69.19,86.55607a7.77649,7.77649,0,0,1-.08419-1.23211,39.81588,39.81588,0,0,0-.74238-6.44214c-.38645-1.92.14155-2.82849-.68073-2.67645-.60854.11252-.82809.21138-.9596-.01644-.08372-.145.00108-.25714.09859-.3469.3003-.27645.1231-.44-.134-.5393a.62484.62484,0,0,1-.463-.74416.63571.63571,0,0,1,.057-.159,6.84059,6.84059,0,0,1,1.29694-2.63465c1.0331-1.09279,1.11162-1.99029,1.86422-1.45023a2.86366,2.86366,0,0,0,2.46431.5747,43.68514,43.68514,0,0,1,7.45712-.99549,13.2246,13.2246,0,0,1,5.03974.26277c.50757.15835.91665.35843,1.01139.97324a.69244.69244,0,0,1-.10525.54277A4.27906,4.27906,0,0,1,83.412,73.189a.908.908,0,0,0-.47313.2774c-.36286.53733-.09594.11691-9.11847,2.022-.60108.12691-.6279.178-.43266.79352a6.30229,6.30229,0,0,1,.1995,1.9648c.82479-.82656.6547,1.049,2.21413.81249,3.99934-.60642,4.85221-.66062,6.18289-.14553,1.235.47806.7947,1.89443-.00992,2.99671a2.55433,2.55433,0,0,1-1.72371.95856c-.9123.187-1.74645.65348-2.66705.83167a17.07586,17.07586,0,0,1-2.12539.35248c-.545.03518-1.06225.32807-1.62721.16831-.34495-.0976-.054.81022-.87819,3.83426-.03813.13992-.02509.29768.11875.336.42723.11352.80589.39523,1.29883.2842a23.78062,23.78062,0,0,1,7.75878-.681c1.621.19241,1.42371-.40171,2.76292.01021a1.01494,1.01494,0,0,1,.64447,1.22055c-.16524.3712-.21379.825-.574,1.09406-.08653.06464-.1873.17629-.14973.29751C84.86333,90.78021,85.01647,90.57887,85.15421,90.73045Z" fill="#fff"></path><path d="M59.51466,92.61059a1.69073,1.69073,0,0,1-.87946,1.02347.877.877,0,0,0-.41377.41991,10.71932,10.71932,0,0,1-1.43434,1.74434c-.24244.30222-.64266.18574-.91345.15158a1.44484,1.44484,0,0,1-1.14764-.71046c-.90727-1.693.02308-1.27031-.66839-2.07313-4.18376-4.85767-2.675-4.85746-6.96793-10.87686A24.22,24.22,0,0,1,45.6532,79.7953c-.46863-.85857.25173-.86756.077-1.90915a3.92612,3.92612,0,0,1,.283-1.733c.095-.33428.43174-.47518.69268-.611a1.755,1.755,0,0,1,2.21568.28679,8.98736,8.98736,0,0,1,2.10481,2.56661c.942,2.15407,2.49824,3.79482,3.91226,8.55141.35931,1.20869.27109,1.21563.393,1.23505.1458.02327.16633-.13718.20574-.23733.03537-.08988,2.6312-6.65564,3.187-8.3818.59589-1.85071,1.03032-5.07731,1.90718-7.1465a8.32814,8.32814,0,0,0,.32261-2.12845,9.69552,9.69552,0,0,1,.79651-3.27766c.06154-.10891.09757-.27293.26092-.24336.13223.02393.11719.1839.17567.27724.77774,1.2419.63315,2.69034.83637,4.05972C64.17077,78.83405,63.68306,80.58127,59.51466,92.61059Z" fill="#fff"></path><path d="M108.62206,79.60527a12.20292,12.20292,0,0,1,1.91208-7.24734,8.61431,8.61431,0,0,1,2.73469-2.59c.99753-.6271,2.8745-1.813,4.58539-1.75849,2.33938.07448,4.32611-.97843,4.55047-.48122.11027.24439-.15805.33149-.30682.44848-.39019.30687.19176.34248.91261.44908a.44.44,0,0,1,.44468.43579.45808.45808,0,0,1-.01661.1332,1.801,1.801,0,0,1-.22144.79713,2.66082,2.66082,0,0,0-.49557,1.05411c-.05048.326-.394.4982-.61863.69882A25.14175,25.14175,0,0,1,119.511,73.878a.89667.89667,0,0,1-.86761.16765,5.26172,5.26172,0,0,0-2.919.05792,2.37918,2.37918,0,0,0-1.23267.96651,5.8574,5.8574,0,0,0-1.17751,3.25968,15.80975,15.80975,0,0,0-.05336,3.21821c.31066,2.68144,2.87981,3.77222,5.47693,3.99205a12.746,12.746,0,0,0,1.64447.08478c.948-.0423.70705-.86347.74271-1.916.01268-.374-.13768-.53926-.50056-.53187a5.1495,5.1495,0,0,1-2.10009-.43783,1.25173,1.25173,0,0,1-.754-1.41144,4.389,4.389,0,0,1,.89467-1.65943c.53-.72926,1.28182-.68014,1.9892-.83333,4.17829-.90469,4.21217-.84494,4.67644-1.11671a.40732.40732,0,0,1,.28578-.05595,1.60694,1.60694,0,0,0,1.33616-.11927c.18624-.10788.27273.09926.23357.28459a.69437.69437,0,0,0,.28149.75867c.32977.27114.23178.71625.23619,1.08a11.392,11.392,0,0,1-.52391,3.47482c-.1575.51585-.32682.89075-.65848.47961-.07721-.09572-.448-.48307-.67016-.3937-.21109.08494-.04845.31246-.04709.47216a6.70807,6.70807,0,0,0,.24654,2.003c.19973.62644-.44863.72072-.137,1.52373.07592.19564.01465.4431-.20019.32317-.5684-.31736-.92266.19185-1.36893.31746-.18313.05152-.3368.1922-.55209.13282a.37092.37092,0,0,0-.24423.04679,12.59185,12.59185,0,0,1-3.04074.994c-1.3303.31287-.81579.61746-2.22731.57074-4.21661-.13953-7.73861-1.98814-9.16184-6.13357A12.52528,12.52528,0,0,1,108.62206,79.60527Z" fill="#fff"></path></svg> 