<svg id="Layer_1" data-name="Layer 1" xmlns="http://www.w3.org/2000/svg" width="129.76293" height="80.23848" viewBox="0 0 129.76293 80.23848"><title>btn-explore</title><rect width="130" height="40" fill="#ecde39"/><path d="M120,12.85841a3.10894,3.10894,0,0,1-.19387,1.35114q-.19612.33831-2.6871.44161a7.398,7.398,0,0,0-1.49572-.1288q-2.16073,0-6.37173.06414-4.21156.06545-6.31538.06466a8.61331,8.61331,0,0,1-2.66-.30808,1.12989,1.12989,0,0,0,.11159-.5394,7.71763,7.71763,0,0,0-.19387-1.4A7.64825,7.64825,0,0,1,100,10.97734a.69786.69786,0,0,1,.60866-.7192,18.83723,18.83723,0,0,1,1.88458-.05153,14.386,14.386,0,0,1,1.6614.05153c.18486,0,.452-.01.80366-.03207q.52581-.03234.74729-.03207,1.16321,0,7.70063-.06467Q115.23557,10.097,118.78043,10h.16682q.66446,0,.665.286a6.3388,6.3388,0,0,0,.19387,1.29909A6.48839,6.48839,0,0,1,120,12.85841Z" fill="#0d6936"/><path d="M100.19387,19.2595a6.33863,6.33863,0,0,0,.19387-1.29908q0-.28626.665-.286h.16682q3.54541.097,5.37421.12933,6.5363.06466,7.70063.06466.22147,0,.74729.03207c.35167.02208.6188.03207.80366.03207a14.38964,14.38964,0,0,1,1.6614-.05152,18.842,18.842,0,0,1,1.88458.05152A.69788.69788,0,0,1,120,18.65176a7.64836,7.64836,0,0,1-.19387,1.42631,7.71763,7.71763,0,0,0-.19387,1.4,1.12992,1.12992,0,0,0,.11159.5394,8.61331,8.61331,0,0,1-2.66.30808q-2.105,0-6.31538-.06466-4.20987-.06388-6.37173-.06414a7.398,7.398,0,0,0-1.49572.1288q-2.4921-.1033-2.6871-.44161A3.10894,3.10894,0,0,1,100,20.53283,6.48856,6.48856,0,0,1,100.19387,19.2595Z" fill="#0d6936"/><path d="M120,28.20725a3.10885,3.10885,0,0,1-.19387,1.35113Q119.61,29.89669,117.119,30a7.398,7.398,0,0,0-1.49572-.1288q-2.16073,0-6.37173.06413Q105.04,30.00079,102.9362,30a8.61331,8.61331,0,0,1-2.66-.30808,1.13,1.13,0,0,0,.11159-.5394,7.71763,7.71763,0,0,0-.19387-1.4A7.64846,7.64846,0,0,1,100,26.32618a.69788.69788,0,0,1,.60866-.71921,18.842,18.842,0,0,1,1.88458-.05152,14.38964,14.38964,0,0,1,1.6614.05152c.18486,0,.452-.01.80366-.03207q.52581-.03233.74729-.03207,1.16321,0,7.70063-.06466,1.82935-.03234,5.37421-.12933h.16682q.66446,0,.665.286a6.33863,6.33863,0,0,0,.19387,1.29908A6.48856,6.48856,0,0,1,120,28.20725Z" fill="#0d6936"/><path d="M19.27543,10.55q.04854.57457.04879,1.14867a11.84521,11.84521,0,0,1-.24845,2.4638,3.84438,3.84438,0,0,1-1.21887.16743q-.27409,0-.821-.03553-.54744-.03651-.82054-.036a3.7688,3.7688,0,0,0-1.44292.239.8494.8494,0,0,1,.22057.55048,2.44685,2.44685,0,0,1-.11054.60987,2.45527,2.45527,0,0,0-.11.586c0,.04819.008.14359.02489.28717q.02389.3833.06174.78947a.81865.81865,0,0,0,.33409.622l3.88564.11974a1.13671,1.13671,0,0,1,.09858.47845,3.80582,3.80582,0,0,1-.07319.622,3.81034,3.81034,0,0,0-.07319.622,1.07986,1.07986,0,0,0,.14638.57434,1.1409,1.1409,0,0,0-.09759.47845,2.74816,2.74816,0,0,0,.0244.29885,2.95008,2.95008,0,0,1,.0244.32318.73984.73984,0,0,1-.44314.71744,2.31393,2.31393,0,0,1-.31965.02385,9.177,9.177,0,0,1-1.29256-.13142,9.16559,9.16559,0,0,0-1.29156-.13142,3.25158,3.25158,0,0,0-.81207.0954l-.19717,2.91889a.75124.75124,0,0,0,.68909.311,4.08286,4.08286,0,0,0,.56612-.072,9.49266,9.49266,0,0,0,1.64955.072,2.03246,2.03246,0,0,1,1.3538.38256,15.18814,15.18814,0,0,0-.0493,1.74637c0,.08031-.00846.21562-.02439.4069-.01643.19128-.0244.32708-.0244.40642a2.44527,2.44527,0,0,0,.0244.28716,2.57846,2.57846,0,0,1,.02439.28717.77956.77956,0,0,1-.36944.76562q-2.658-.14384-7.95051-.5023a4.1696,4.1696,0,0,1-.14738-1.17252,5.31064,5.31064,0,0,1,.09759-.88487,3.14807,3.14807,0,0,1-.19567-1.14867q0-.28692.04879-.87318.04929-.58553.04929-.87318,0-.86078-.41624-11.31586L10,10.26283q.171-.02335,1.02817-.16743A6.91076,6.91076,0,0,1,12.05584,10q-.14639,0,.61192.07155.68487,0,2.00705.02385,2.69166.07227,4.35615.26332Z" fill="#0a6836"/><path d="M32.00082,28.87421q0,.40812-.587.47991-.46528.02409-.93008.0477-.17178-.1913-.26936-.19129a2.53752,2.53752,0,0,0-.51384.19129.94349.94349,0,0,0-.367-.07155,2.43729,2.43729,0,0,0-.58753.10756,2.47007,2.47007,0,0,1-.58752.10757.68664.68664,0,0,1-.587-.311q-.48993-1.842-1.542-5.47857-.29352,1.48353-.56263,2.94274a11.74322,11.74322,0,0,1-.66072,2.61955.66649.66649,0,0,1-.465.15526,4.88558,4.88558,0,0,1-.52628-.05792,2.43137,2.43137,0,0,0-.62388-.02969.92185.92185,0,0,0-.48993-.17522.97056.97056,0,0,0-.41575.19129H20.86573q-.48994,0-.51384-.311.56238-1.5069,1.44392-4.68911a44.66648,44.66648,0,0,1,1.49271-4.64092,47.18929,47.18929,0,0,1-1.61519-4.54552q-1.29729-4.282-1.39513-4.61707a.71353.71353,0,0,1,.68561-.3592,3.70238,3.70238,0,0,1,.4282.036,3.68546,3.68546,0,0,0,.4282.036,1.07283,1.07283,0,0,0,.41624-.072h.53824q.26886,0,.80759-.03553.53774-.03651.8076-.036h.17128a10.22065,10.22065,0,0,1,.70951,2.60739,14.3468,14.3468,0,0,0,.63632,2.65557q.171-.47383.465-1.42221.09784-.37891.30621-1.1735.20763-.79361.62387-2.42973a1.3946,1.3946,0,0,1,.73441-.166q.29352,0,.86884.04478.57433.04527.86834.04527a1.13026,1.13026,0,0,1,.20813.02677,1.13611,1.13611,0,0,0,.20812.02677,3.60108,3.60108,0,0,0,.58752-.07155,3.54333,3.54333,0,0,1,.587-.072h.14688q-.26961.95934-.85639,2.63854-.68561,1.823-.93008,2.61371-.04929.21683-.17128.62349-.12249.28839-.31816.93549-.02464.33657-.12248.98367-.0732.16791-.19568.47942-.12249.31174-.29376.86345.26886.64758.7344,2.15814a17.59574,17.59574,0,0,0,.74636,2.14694q.3301.73155,1.35828,3.65725A14.28894,14.28894,0,0,0,32.00082,28.87421Z" fill="#0a6836"/><path d="M43.20911,12.72322q-.04929.50157-.0488,1.099,0,.78775.07319,2.34066.074,1.55215.07369,2.31632a13.41491,13.41491,0,0,1-.68262,4.65747q-.09784.23874-.26787.64491-.75657,1.2426-3.14426,1.24212.21883,0-1.63312-.07155l-.26787.11925V25.837q0,1.101-.17178,3.42119-.3428.02409-1.24774.11974-.8081.07154-1.24824.07154A3.53342,3.53342,0,0,1,32.906,29.067a3.59361,3.59361,0,0,0,.09809-.88535q0-.28693-.0493-.83717-.04929-.54975-.04879-.83717a2.547,2.547,0,0,1,.04879-.39473,2.56508,2.56508,0,0,0,.0493-.39473q0-.93306-.0244-2.46429-.07393-1.88946-.07369-2.46429l-.14688-10.26307a2.69179,2.69179,0,0,1,1.15015-.14358,3.88766,3.88766,0,0,0,.44065-.036,3.9766,3.9766,0,0,1,.44064-.03553,8.31423,8.31423,0,0,1,.89324.07155,8.33746,8.33746,0,0,0,.89323.072,3.15874,3.15874,0,0,0,.97888-.14358q.39135.04818,1.93336.0477a4.08209,4.08209,0,0,1,3.03471.90774,2.0112,2.0112,0,0,1,.367.52566ZM38.97544,15.263a1.67418,1.67418,0,0,1-.26936.02385,5.617,5.617,0,0,1-.62388-.0477,5.709,5.709,0,0,0-.59947-.0477,1.35031,1.35031,0,0,0-.53873.09589,1.84876,1.84876,0,0,0-.07319.57628,2.64052,2.64052,0,0,0,.07319.6488,12.143,12.143,0,0,0-.07319,1.4412q0,.52858.05975,1.58526.059,1.05717.05974,1.58526a.46518.46518,0,0,1,.24-.07155,3.85637,3.85637,0,0,1,.43119.036,3.82668,3.82668,0,0,0,.43168.03553,1.1989,1.1989,0,0,0,.88676-.33487,25.82282,25.82282,0,0,0,.21559-3.25326A9.67041,9.67041,0,0,0,38.97544,15.263Z" fill="#0a6836"/><path d="M54.73555,25.74165q-.12248,1.26816-.41575,3.8276a7.27442,7.27442,0,0,1-1.49321.14358q-.587,0-1.664-.09588-1.15015-.09564-1.68839-.0954-3.01056-.04818-3.916-.04819a1.13155,1.13155,0,0,1-.63632-1.14818,6.86144,6.86144,0,0,1,.06124-.76562,6.85089,6.85089,0,0,0,.06125-.76561q0,.14382-.0488-.47846-.04929-.52566-.22057-5.1914-.24422-5.78886-.34256-10.83692a9.959,9.959,0,0,1,2.007-.19177q.56238,0,1.70083.072,1.13822.07155,1.70084.07155a2.27468,2.27468,0,0,1,.34256,1.34q0,.26356-.0488.74129-.04929.47893-.04929.67022-.29352,9.66561-.29327,11.50714a4.77,4.77,0,0,1,.0488.69358,3.366,3.366,0,0,0,1.51711.28717q.31815,0,.91813-.036.599-.03578.89324-.03553A3.07,3.07,0,0,1,54.73555,25.74165Z" fill="#0a6836"/><path d="M67.38775,18.68414q0,1.412-.06124,3.1457-.06124,1.73542-.06074,1.51956v.57384q0,3.63657-2.45765,5.23911a24.15851,24.15851,0,0,1-3.88314.47893,5.7313,5.7313,0,0,1-3.809-1.19637,2.54139,2.54139,0,0,1-.56561-.52614c-.01643-.03213-.06523-.16744-.14688-.40691a13.6961,13.6961,0,0,1-.59-3.15787q-.27036-2.96634-.31965-3.20556a.3794.3794,0,0,0,.09808-.23947,1.332,1.332,0,0,0-.04879-.311,1.307,1.307,0,0,1-.04929-.311v-3.684l.31816-.38306-.465-.19128q.07393-1.07688.14688-2.15327a5.77888,5.77888,0,0,1,.51284-2.05738,2.77059,2.77059,0,0,1,1.59976-1.36332,9.5146,9.5146,0,0,1,3.04069-.383,18.95081,18.95081,0,0,1,4.42038.622,1.342,1.342,0,0,0,.586.56217,1.79613,1.79613,0,0,1,.65922.61035,13.9956,13.9956,0,0,1,.8793,1.84177q.02389.16791.07369.52663.12174.78922.122.90872v3.54092Zm-4.67431,6.24419a12.58668,12.58668,0,0,1-.07319-1.4115q0-.74176.03685-2.24916.03658-1.5069.03634-2.24866,0-1.3638-.09758-2.48814a1.1963,1.1963,0,0,1-.09809-.5023,2.86918,2.86918,0,0,1,.09809-.622,2.92173,2.92173,0,0,0,.09758-.622.71328.71328,0,0,0-.52279-.71743q-.54894.07155-1.14667.1431a2.893,2.893,0,0,0-1.071.33535q-.0254,1.10023-.0249,2.43995,0,1.3638.02789,3.22991.02763.66948.08414,2.29636.08366,1.45944.08365,2.273a1.47327,1.47327,0,0,0,1.11231.5023,4.92036,4.92036,0,0,0,.6418-.05987,4.98383,4.98383,0,0,1,.593-.05987Z" fill="#0a6836"/><path d="M79.30655,28.8523a3.349,3.349,0,0,1-.95448.35872,7.47314,7.47314,0,0,0-1.00377.31053A4.20483,4.20483,0,0,1,75.90438,30q-.4892,0-.88079-.69407-.26961-.57384-.51384-1.12433-.2935-.6695-.56313-1.31562a4.49663,4.49663,0,0,0-.7583-1.24407q0,1.31562-.17178,3.63632-.3428.02409-1.24774.11974-.8081.07154-1.24824.07154a3.5334,3.5334,0,0,1-1.73768-.38256,2.908,2.908,0,0,0,.12248-.88535,8.35874,8.35874,0,0,0-.06124-.83717,8.20014,8.20014,0,0,1-.06124-.83717,2.08952,2.08952,0,0,1,.06124-.39473,2.13242,2.13242,0,0,0,.06124-.39473q0-.93306-.02689-2.46429-.0814-1.88946-.08115-2.46429L68.636,10.52615a2.69179,2.69179,0,0,1,1.15015-.14358,3.88735,3.88735,0,0,0,.44064-.036,3.97692,3.97692,0,0,1,.44065-.03553,8.31442,8.31442,0,0,1,.89324.07155,8.33746,8.33746,0,0,0,.89323.072,3.15874,3.15874,0,0,0,.97888-.14358q.416.04818,1.93336.0477a3.89659,3.89659,0,0,1,3.1079,1.00314,1.623,1.623,0,0,1,.29377.43026l.31816.93208q-.04931.50157-.0488,1.099,0,.741.07319,2.25792.07393,1.51785.07369,2.28176a13.057,13.057,0,0,1-.68511,4.564Q77.838,24.647,76.78567,24.647A43.353,43.353,0,0,1,79.30655,28.8523ZM74.85231,15.263a1.6742,1.6742,0,0,1-.26937.02385,5.617,5.617,0,0,1-.62387-.0477,5.709,5.709,0,0,0-.59947-.0477,1.35071,1.35071,0,0,0-.53873.0954,1.81854,1.81854,0,0,0-.07319.5719,1.97562,1.97562,0,0,0,.09758.643,8.9752,8.9752,0,0,0-.09758,1.42951q0,.52492.05974,1.57309.059,1.04841.05975,1.57212a1.25423,1.25423,0,0,1,.24-.02385,3.85623,3.85623,0,0,1,.43118.036,3.827,3.827,0,0,0,.43169.03553,1.19892,1.19892,0,0,0,.88676-.33487,25.82469,25.82469,0,0,0,.21559-3.25326A9.67041,9.67041,0,0,0,74.85231,15.263Z" fill="#0a6836"/><path d="M89.95121,10.55q.04854.57457.04879,1.14867a11.84521,11.84521,0,0,1-.24845,2.4638,3.84447,3.84447,0,0,1-1.21887.16743q-.27409,0-.821-.03553-.54744-.03651-.82054-.036a3.76889,3.76889,0,0,0-1.44293.239.84936.84936,0,0,1,.22058.55048,2.44685,2.44685,0,0,1-.11054.60987,2.45541,2.45541,0,0,0-.11.586c0,.04819.008.14359.0249.28717q.02389.3833.06174.78947a.81862.81862,0,0,0,.33409.622l3.88563.11974a1.13656,1.13656,0,0,1,.09859.47845,3.80582,3.80582,0,0,1-.07319.622,3.81034,3.81034,0,0,0-.07319.622,1.07986,1.07986,0,0,0,.14638.57434,1.14074,1.14074,0,0,0-.09759.47845,2.74816,2.74816,0,0,0,.0244.29885,2.94963,2.94963,0,0,1,.02439.32318.73983.73983,0,0,1-.44313.71744,2.31415,2.31415,0,0,1-.31965.02385,9.17683,9.17683,0,0,1-1.29256-.13142,9.16559,9.16559,0,0,0-1.29156-.13142,3.25171,3.25171,0,0,0-.81208.0954l-.19717,2.91889a.75126.75126,0,0,0,.6891.311,4.08286,4.08286,0,0,0,.56612-.072,9.49258,9.49258,0,0,0,1.64955.072,2.03246,2.03246,0,0,1,1.3538.38256,15.18551,15.18551,0,0,0-.0493,1.74637c0,.08031-.00846.21562-.02439.4069-.01643.19128-.0244.32708-.0244.40642a2.44527,2.44527,0,0,0,.0244.28716,2.57846,2.57846,0,0,1,.02439.28717.77956.77956,0,0,1-.36944.76562q-2.65806-.14384-7.95051-.5023a4.1696,4.1696,0,0,1-.14738-1.17252,5.31064,5.31064,0,0,1,.09759-.88487A3.14806,3.14806,0,0,1,81.092,25.837q0-.28692.0488-.87318.04929-.58553.04929-.87318,0-.86078-.41624-11.31586l-.09809-2.512q.171-.02335,1.02817-.16743A6.91076,6.91076,0,0,1,82.73162,10q-.14639,0,.61192.07155.68487,0,2.007.02385,2.69166.07227,4.35615.26332Z" fill="#0a6836"/><rect y="40" width="130" height="40" fill="#ecde39"/><path d="M19.27543,50.55q.04854.57458.04879,1.14867a11.84521,11.84521,0,0,1-.24845,2.4638,3.84438,3.84438,0,0,1-1.21887.16743q-.27409,0-.821-.03553-.54744-.03651-.82054-.036a3.7688,3.7688,0,0,0-1.44292.239.8494.8494,0,0,1,.22057.55048,2.44685,2.44685,0,0,1-.11054.60987,2.45527,2.45527,0,0,0-.11.586c0,.04819.008.14359.02489.28717q.02389.38329.06174.78947a.81865.81865,0,0,0,.33409.622l3.88564.11974a1.13671,1.13671,0,0,1,.09858.47845,3.80582,3.80582,0,0,1-.07319.622,3.81034,3.81034,0,0,0-.07319.622,1.07986,1.07986,0,0,0,.14638.57434,1.1409,1.1409,0,0,0-.09759.47845,2.74816,2.74816,0,0,0,.0244.29885,2.95008,2.95008,0,0,1,.0244.32318.73984.73984,0,0,1-.44314.71744,2.31393,2.31393,0,0,1-.31965.02385,9.177,9.177,0,0,1-1.29256-.13142,9.16559,9.16559,0,0,0-1.29156-.13142,3.25158,3.25158,0,0,0-.81207.0954l-.19717,2.91889a.75124.75124,0,0,0,.68909.311,4.08286,4.08286,0,0,0,.56612-.072,9.49266,9.49266,0,0,0,1.64955.072,2.03246,2.03246,0,0,1,1.3538.38256,15.18814,15.18814,0,0,0-.0493,1.74637c0,.08031-.00846.21562-.02439.4069-.01643.19128-.0244.32708-.0244.40642a2.44527,2.44527,0,0,0,.0244.28716,2.57846,2.57846,0,0,1,.02439.28717.77956.77956,0,0,1-.36944.76562q-2.658-.14383-7.95051-.5023a4.1696,4.1696,0,0,1-.14738-1.17252,5.31064,5.31064,0,0,1,.09759-.88487,3.14807,3.14807,0,0,1-.19567-1.14867q0-.28692.04879-.87318.04929-.58553.04929-.87318,0-.86078-.41624-11.31586L10,50.26283q.171-.02336,1.02817-.16743A6.91076,6.91076,0,0,1,12.05584,50q-.14639,0,.61192.07155.68487,0,2.00705.02385,2.69166.07227,4.35615.26332Z" fill="#0a6836"/><path d="M32.00082,68.87421q0,.40812-.587.47991-.46528.02409-.93008.0477-.17178-.1913-.26936-.19129a2.53752,2.53752,0,0,0-.51384.19129.94349.94349,0,0,0-.367-.07155,2.43729,2.43729,0,0,0-.58753.10756,2.47007,2.47007,0,0,1-.58752.10757.68664.68664,0,0,1-.587-.311q-.48993-1.842-1.542-5.47857-.29352,1.48353-.56263,2.94274a11.74322,11.74322,0,0,1-.66072,2.61955.66649.66649,0,0,1-.465.15526,4.88558,4.88558,0,0,1-.52628-.05792,2.43137,2.43137,0,0,0-.62388-.02969.92185.92185,0,0,0-.48993-.17522.97056.97056,0,0,0-.41575.19129H20.86573q-.48994,0-.51384-.311.56238-1.5069,1.44392-4.68911a44.66648,44.66648,0,0,1,1.49271-4.64092,47.18929,47.18929,0,0,1-1.61519-4.54552q-1.29729-4.282-1.39513-4.61707a.71353.71353,0,0,1,.68561-.3592,3.70238,3.70238,0,0,1,.4282.036,3.68546,3.68546,0,0,0,.4282.036,1.07283,1.07283,0,0,0,.41624-.072h.53824q.26886,0,.80759-.03553.53774-.03651.8076-.036h.17128a10.22065,10.22065,0,0,1,.70951,2.60739,14.3468,14.3468,0,0,0,.63632,2.65557q.171-.47384.465-1.42221.09784-.37892.30621-1.1735.20763-.7936.62387-2.42973a1.3946,1.3946,0,0,1,.73441-.166q.29352,0,.86884.04478.57433.04527.86834.04527a1.13026,1.13026,0,0,1,.20813.02677,1.13611,1.13611,0,0,0,.20812.02677,3.60108,3.60108,0,0,0,.58752-.07155,3.54333,3.54333,0,0,1,.587-.072h.14688q-.26961.95934-.85639,2.63854-.68561,1.823-.93008,2.61371-.04929.21682-.17128.62349-.12249.28839-.31816.93549-.02464.33657-.12248.98367-.0732.16791-.19568.47942-.12249.31175-.29376.86345.26886.64758.7344,2.15814a17.59574,17.59574,0,0,0,.74636,2.14694q.3301.73155,1.35828,3.65725A14.28894,14.28894,0,0,0,32.00082,68.87421Z" fill="#0a6836"/><path d="M43.20911,52.72322q-.04929.50157-.0488,1.099,0,.78776.07319,2.34066.074,1.55215.07369,2.31632a13.41491,13.41491,0,0,1-.68262,4.65747q-.09784.23874-.26787.64491-.75657,1.2426-3.14426,1.24212.21883,0-1.63312-.07155l-.26787.11925V65.837q0,1.101-.17178,3.42119-.3428.02409-1.24774.11974-.8081.07153-1.24824.07154A3.53342,3.53342,0,0,1,32.906,69.067a3.59361,3.59361,0,0,0,.09809-.88535q0-.28694-.0493-.83717-.04929-.54975-.04879-.83717a2.547,2.547,0,0,1,.04879-.39473,2.56508,2.56508,0,0,0,.0493-.39473q0-.93306-.0244-2.46429-.07393-1.88946-.07369-2.46429l-.14688-10.26307a2.69179,2.69179,0,0,1,1.15015-.14358,3.88766,3.88766,0,0,0,.44065-.036,3.9766,3.9766,0,0,1,.44064-.03553,8.31423,8.31423,0,0,1,.89324.07155,8.33746,8.33746,0,0,0,.89323.072,3.15874,3.15874,0,0,0,.97888-.14358q.39135.04818,1.93336.0477a4.08209,4.08209,0,0,1,3.03471.90774,2.0112,2.0112,0,0,1,.367.52566ZM38.97544,55.263a1.67418,1.67418,0,0,1-.26936.02385,5.617,5.617,0,0,1-.62388-.0477,5.709,5.709,0,0,0-.59947-.0477,1.35031,1.35031,0,0,0-.53873.09589,1.84876,1.84876,0,0,0-.07319.57628,2.64052,2.64052,0,0,0,.07319.6488,12.143,12.143,0,0,0-.07319,1.4412q0,.52858.05975,1.58526.059,1.05717.05974,1.58526a.46518.46518,0,0,1,.24-.07155,3.85637,3.85637,0,0,1,.43119.036,3.82668,3.82668,0,0,0,.43168.03553,1.1989,1.1989,0,0,0,.88676-.33487,25.82282,25.82282,0,0,0,.21559-3.25326A9.67041,9.67041,0,0,0,38.97544,55.263Z" fill="#0a6836"/><path d="M54.73555,65.74165q-.12248,1.26816-.41575,3.8276a7.27442,7.27442,0,0,1-1.49321.14358q-.587,0-1.664-.09588-1.15015-.09564-1.68839-.0954-3.01056-.04818-3.916-.04819a1.13155,1.13155,0,0,1-.63632-1.14818,6.86144,6.86144,0,0,1,.06124-.76562,6.85089,6.85089,0,0,0,.06125-.76561q0,.14382-.0488-.47846-.04929-.52566-.22057-5.1914-.24422-5.78886-.34256-10.83692a9.959,9.959,0,0,1,2.007-.19177q.56238,0,1.70083.072,1.13822.07155,1.70084.07155a2.27468,2.27468,0,0,1,.34256,1.34q0,.26356-.0488.74129-.04929.47893-.04929.67022-.29352,9.66561-.29327,11.50714a4.77,4.77,0,0,1,.0488.69358,3.366,3.366,0,0,0,1.51711.28717q.31815,0,.91813-.036.599-.03578.89324-.03553A3.07,3.07,0,0,1,54.73555,65.74165Z" fill="#0a6836"/><path d="M67.38775,58.68414q0,1.412-.06124,3.1457-.06124,1.73542-.06074,1.51956v.57384q0,3.63657-2.45765,5.23911a24.15851,24.15851,0,0,1-3.88314.47893,5.7313,5.7313,0,0,1-3.809-1.19637,2.54139,2.54139,0,0,1-.56561-.52614c-.01643-.03213-.06523-.16744-.14688-.40691a13.6961,13.6961,0,0,1-.59-3.15787q-.27036-2.96634-.31965-3.20556a.3794.3794,0,0,0,.09808-.23947,1.332,1.332,0,0,0-.04879-.311,1.307,1.307,0,0,1-.04929-.311v-3.684l.31816-.38306-.465-.19128q.07393-1.07688.14688-2.15327a5.77888,5.77888,0,0,1,.51284-2.05738,2.77059,2.77059,0,0,1,1.59976-1.36332,9.5146,9.5146,0,0,1,3.04069-.383,18.95081,18.95081,0,0,1,4.42038.622,1.342,1.342,0,0,0,.586.56217,1.79613,1.79613,0,0,1,.65922.61035,13.9956,13.9956,0,0,1,.8793,1.84177q.02389.16791.07369.52663.12174.78923.122.90872v3.54092Zm-4.67431,6.24419a12.58668,12.58668,0,0,1-.07319-1.4115q0-.74177.03685-2.24916.03658-1.5069.03634-2.24866,0-1.3638-.09758-2.48814a1.1963,1.1963,0,0,1-.09809-.5023,2.86918,2.86918,0,0,1,.09809-.622,2.92173,2.92173,0,0,0,.09758-.622.71328.71328,0,0,0-.52279-.71743q-.54894.07155-1.14667.1431a2.893,2.893,0,0,0-1.071.33535q-.0254,1.10023-.0249,2.43995,0,1.3638.02789,3.22991.02763.66948.08414,2.29636.08366,1.45944.08365,2.273a1.47327,1.47327,0,0,0,1.11231.5023,4.92036,4.92036,0,0,0,.6418-.05987,4.98383,4.98383,0,0,1,.593-.05987Z" fill="#0a6836"/><path d="M79.30655,68.8523a3.349,3.349,0,0,1-.95448.35872,7.47314,7.47314,0,0,0-1.00377.31053A4.20483,4.20483,0,0,1,75.90438,70q-.4892,0-.88079-.69407-.26961-.57384-.51384-1.12433-.2935-.6695-.56313-1.31562a4.49663,4.49663,0,0,0-.7583-1.24407q0,1.31562-.17178,3.63632-.3428.02409-1.24774.11974-.8081.07153-1.24824.07154a3.5334,3.5334,0,0,1-1.73768-.38256,2.908,2.908,0,0,0,.12248-.88535,8.35874,8.35874,0,0,0-.06124-.83717,8.20014,8.20014,0,0,1-.06124-.83717,2.08952,2.08952,0,0,1,.06124-.39473,2.13242,2.13242,0,0,0,.06124-.39473q0-.93306-.02689-2.46429-.0814-1.88946-.08115-2.46429L68.636,50.52615a2.69179,2.69179,0,0,1,1.15015-.14358,3.88735,3.88735,0,0,0,.44064-.036,3.97692,3.97692,0,0,1,.44065-.03553,8.31442,8.31442,0,0,1,.89324.07155,8.33746,8.33746,0,0,0,.89323.072,3.15874,3.15874,0,0,0,.97888-.14358q.416.04818,1.93336.0477a3.89659,3.89659,0,0,1,3.1079,1.00314,1.623,1.623,0,0,1,.29377.43026l.31816.93208q-.04931.50157-.0488,1.099,0,.741.07319,2.25792.07393,1.51785.07369,2.28176a13.057,13.057,0,0,1-.68511,4.564Q77.838,64.647,76.78567,64.647A43.353,43.353,0,0,1,79.30655,68.8523ZM74.85231,55.263a1.6742,1.6742,0,0,1-.26937.02385,5.617,5.617,0,0,1-.62387-.0477,5.709,5.709,0,0,0-.59947-.0477,1.35071,1.35071,0,0,0-.53873.0954,1.81854,1.81854,0,0,0-.07319.5719,1.97562,1.97562,0,0,0,.09758.643,8.9752,8.9752,0,0,0-.09758,1.42951q0,.52492.05974,1.57309.059,1.04841.05975,1.57212a1.25423,1.25423,0,0,1,.24-.02385,3.85623,3.85623,0,0,1,.43118.036,3.827,3.827,0,0,0,.43169.03553,1.19892,1.19892,0,0,0,.88676-.33487,25.82469,25.82469,0,0,0,.21559-3.25326A9.67041,9.67041,0,0,0,74.85231,55.263Z" fill="#0a6836"/><path d="M89.95121,50.55q.04854.57458.04879,1.14867a11.84521,11.84521,0,0,1-.24845,2.4638,3.84447,3.84447,0,0,1-1.21887.16743q-.27409,0-.821-.03553-.54744-.03651-.82054-.036a3.76889,3.76889,0,0,0-1.44293.239.84936.84936,0,0,1,.22058.55048,2.44685,2.44685,0,0,1-.11054.60987,2.45541,2.45541,0,0,0-.11.586c0,.04819.008.14359.0249.28717q.02389.38329.06174.78947a.81862.81862,0,0,0,.33409.622l3.88563.11974a1.13656,1.13656,0,0,1,.09859.47845,3.80582,3.80582,0,0,1-.07319.622,3.81034,3.81034,0,0,0-.07319.622,1.07986,1.07986,0,0,0,.14638.57434,1.14074,1.14074,0,0,0-.09759.47845,2.74816,2.74816,0,0,0,.0244.29885,2.94963,2.94963,0,0,1,.02439.32318.73983.73983,0,0,1-.44313.71744,2.31415,2.31415,0,0,1-.31965.02385,9.17683,9.17683,0,0,1-1.29256-.13142,9.16559,9.16559,0,0,0-1.29156-.13142,3.25171,3.25171,0,0,0-.81208.0954l-.19717,2.91889a.75126.75126,0,0,0,.6891.311,4.08286,4.08286,0,0,0,.56612-.072,9.49258,9.49258,0,0,0,1.64955.072,2.03246,2.03246,0,0,1,1.3538.38256,15.18551,15.18551,0,0,0-.0493,1.74637c0,.08031-.00846.21562-.02439.4069-.01643.19128-.0244.32708-.0244.40642a2.44527,2.44527,0,0,0,.0244.28716,2.57846,2.57846,0,0,1,.02439.28717.77956.77956,0,0,1-.36944.76562q-2.65806-.14383-7.95051-.5023a4.1696,4.1696,0,0,1-.14738-1.17252,5.31064,5.31064,0,0,1,.09759-.88487A3.14806,3.14806,0,0,1,81.092,65.837q0-.28692.0488-.87318.04929-.58553.04929-.87318,0-.86078-.41624-11.31586l-.09809-2.512q.171-.02336,1.02817-.16743A6.91076,6.91076,0,0,1,82.73162,50q-.14639,0,.61192.07155.68487,0,2.007.02385,2.69166.07227,4.35615.26332Z" fill="#0a6836"/><path d="M117.91931,64.4052q-1.56915-1.57515-4.52218-4.467c.395-.38983.80444-.79381,1.24025-1.2238q1.61687-1.57363,4.77612-4.59663l.14518-.14574q.57831-.58051.361-.79966a6.05989,6.05989,0,0,1-.82065-1.16252,6.198,6.198,0,0,0-.801-1.14286,2.97315,2.97315,0,0,0-1.19774-.86351q-.42833-.08728-2.67514,2.01007a10.39617,10.39617,0,0,1-1.20375,1.40531c-.80957.81266-1.90213,1.89418-3.22139,3.1912-1.31926-1.297-2.41182-2.37854-3.22139-3.1912a10.39617,10.39617,0,0,1-1.20375-1.40531q-2.24775-2.09834-2.67514-2.01007a2.97315,2.97315,0,0,0-1.19774.86351,6.198,6.198,0,0,0-.801,1.14286,6.05989,6.05989,0,0,1-.82065,1.16252q-.218.21881.361.79966l.14518.14574q3.15982,3.02349,4.77612,4.59663c.43581.43.84526.834,1.24025,1.2238q-2.95021,2.88841-4.52218,4.467A12.07366,12.07366,0,0,0,100,66.96486a1.08991,1.08991,0,0,1,.50793.31486,7.35821,7.35821,0,0,1,.89754,1.2397,7.29115,7.29115,0,0,0,.91751,1.25975.78462.78462,0,0,0,1.07747.018q.329-.25179,1.67956-1.60717a20.28373,20.28373,0,0,0,1.40685-1.491c.16084-.16151.401-.38726.72386-.67761q.48233-.43476.67491-.6284c.32869-.33,1.03809-1.03419,2.11437-2.09887,1.07628,1.06468,1.78568,1.76887,2.11437,2.09887q.1928.19344.67491.6284c.32286.29035.563.5161.72386.67761A20.28373,20.28373,0,0,0,114.92,68.19q1.3509,1.35607,1.67956,1.60717a.78462.78462,0,0,0,1.07747-.018,7.29115,7.29115,0,0,0,.91751-1.25975,7.35821,7.35821,0,0,1,.89754-1.2397A1.08991,1.08991,0,0,1,120,66.96486,12.07366,12.07366,0,0,0,117.91931,64.4052Z" fill="#0d6936"/></svg>