<svg id="Layer_1" data-name="Layer 1" xmlns="http://www.w3.org/2000/svg" width="45" height="45" viewBox="0 0 45 45"><title>btn-linkedin</title><rect width="45" height="45" fill="#0274b3"/><path d="M23.95,20.375l.1875-.2a5.85,5.85,0,0,1,6.25-2.5,6.125,6.125,0,0,1,5.25,5.6A14.67547,14.67547,0,0,1,35.8,25.5v9.3125c0,.35-.0875.45-.4375.45H30.475c-.35,0-.45-.1-.45-.45v-8.75a6.975,6.975,0,0,0-.2375-1.95,2.8125,2.8125,0,0,0-4.575-1.4,3.43748,3.43748,0,0,0-1.25,2.85v9.275c0,.3625-.1.375-.3875.3625h-5c-.3,0-.4125,0-.4-.3875V18.3375c0-.3375.0625-.425.4125-.425h5c.3,0,.3875.0875.375.375C23.9375,19.0125,23.95,19.6375,23.95,20.375Z" fill="#fff"/><path d="M15,26.6625V34.85c0,.3375-.0625.4625-.43751.45H9.6375c-.3,0-.4125-.075-.4125-.4V18.375c0-.2875.075-.3875.375-.375h5c.3375,0,.3875.1125.3875.4125C15,21.175,15,23.9125,15,26.6625Z" fill="#fff"/><path d="M12.2125,9.6875a3,3,0,0,1,3.1125,3.75,3.2,3.2,0,0,1-3.8375,2.1375,2.96249,2.96249,0,0,1-2.325-4.0375A3.1,3.1,0,0,1,12.2125,9.6875Z" fill="#fff"/></svg>