<svg id="Layer_1" data-name="Layer 1" xmlns="http://www.w3.org/2000/svg" width="45" height="45" viewBox="0 0 45 45"><title>btn-youtube</title><rect width="45" height="45" fill="#dc4f42"/><path d="M31.16972,14.04122c-3.46547-.25078-8.66438-.25078-8.66438-.25078h-.01068s-5.19863,0-8.66438.25078A3.54338,3.54338,0,0,0,11.34881,15.09a5.35589,5.35589,0,0,0-.98409,2.45841,37.44035,37.44035,0,0,0-.24778,4.00837v1.87894a37.43886,37.43886,0,0,0,.24778,4.00809,5.35533,5.35533,0,0,0,.98409,2.45832,4.19887,4.19887,0,0,0,2.73085,1.05853c1.98131.19,8.42034.2489,8.42034.2489s5.20425-.00778,8.66972-.25828a3.54176,3.54176,0,0,0,2.48146-1.04915,5.35972,5.35972,0,0,0,.98466-2.45832,37.52235,37.52235,0,0,0,.24722-4.00809V21.55678a37.52384,37.52384,0,0,0-.24722-4.00837A5.36027,5.36027,0,0,0,33.65118,15.09,3.54264,3.54264,0,0,0,31.16972,14.04122ZM19.94334,25.71244l-.00112-6.9585,6.692,3.49134Z" fill="#fff"/></svg>