<svg id="Layer_1" data-name="Layer 1" xmlns="http://www.w3.org/2000/svg" width="48" height="96" viewBox="0 0 48 96"><title>btn-toggle-menu-reverse</title><path d="M31.92,76.41q-1.57-1.58-4.52-4.47l1.24-1.22q1.62-1.57,4.78-4.6l.15-.15q.58-.58.36-.8A6.06,6.06,0,0,1,33.1,64a6.2,6.2,0,0,0-.8-1.14A3,3,0,0,0,31.1,62q-.43-.09-2.68,2a10.4,10.4,0,0,1-1.2,1.41c-.81.81-1.9,1.89-3.22,3.19-1.32-1.3-2.41-2.38-3.22-3.19A10.4,10.4,0,0,1,19.57,64q-2.25-2.1-2.68-2a3,3,0,0,0-1.2.86A6.2,6.2,0,0,0,14.9,64a6.06,6.06,0,0,1-.82,1.16q-.22.22.36.8l.15.15q3.16,3,4.78,4.6l1.24,1.22q-3,2.89-4.52,4.47A12.07,12.07,0,0,0,14,79a1.09,1.09,0,0,1,.51.31,7.36,7.36,0,0,1,.9,1.24,7.29,7.29,0,0,0,.92,1.26.78.78,0,0,0,1.08,0q.33-.25,1.68-1.61a20.28,20.28,0,0,0,1.41-1.49c.16-.16.4-.39.72-.68l.67-.63L24,75.29l2.11,2.1.67.63c.32.29.56.52.72.68a20.28,20.28,0,0,0,1.41,1.49q1.35,1.36,1.68,1.61a.78.78,0,0,0,1.08,0,7.29,7.29,0,0,0,.92-1.26,7.36,7.36,0,0,1,.9-1.24A1.09,1.09,0,0,1,34,79,12.07,12.07,0,0,0,31.92,76.41Z" fill="#fff"/><path d="M36,16.86a2.65,2.65,0,0,1-.23,1.35q-.24.34-3.22.44a10.61,10.61,0,0,0-1.79-.13q-2.59,0-7.65.06t-7.58.06a12.29,12.29,0,0,1-3.19-.31,1,1,0,0,0,.13-.54,6.51,6.51,0,0,0-.23-1.4A6.45,6.45,0,0,1,12,15c0-.38.24-.62.73-.72q.4-.05,2.26-.05,1.66,0,2,.05l1,0,.9,0,9.24-.06L34.54,14h.2q.8,0,.8.29a5.36,5.36,0,0,0,.23,1.3A5.49,5.49,0,0,1,36,16.86Z" fill="#fff"/><path d="M12.23,23.26a5.36,5.36,0,0,0,.23-1.3q0-.29.8-.29h.2l6.45.13,9.24.06.9,0,1,0q.33-.05,2-.05,1.86,0,2.26.05c.49.1.73.34.73.72a6.45,6.45,0,0,1-.23,1.43,6.51,6.51,0,0,0-.23,1.4,1,1,0,0,0,.13.54,12.29,12.29,0,0,1-3.19.31q-2.53,0-7.58-.06t-7.65-.06a10.61,10.61,0,0,0-1.79.13q-3-.1-3.22-.44A2.65,2.65,0,0,1,12,24.53,5.49,5.49,0,0,1,12.23,23.26Z" fill="#fff"/><path d="M36,32.21a2.65,2.65,0,0,1-.23,1.35q-.24.34-3.22.44a10.61,10.61,0,0,0-1.79-.13q-2.59,0-7.65.06T15.52,34a12.29,12.29,0,0,1-3.19-.31,1,1,0,0,0,.13-.54,6.51,6.51,0,0,0-.23-1.4A6.45,6.45,0,0,1,12,30.33c0-.38.24-.62.73-.72q.4-.05,2.26-.05,1.66,0,2,.05l1,0,.9,0,9.24-.06,6.45-.13h.2q.8,0,.8.29a5.36,5.36,0,0,0,.23,1.3A5.49,5.49,0,0,1,36,32.21Z" fill="#fff"/></svg>