<svg id="Layer_1" data-name="Layer 1" xmlns="http://www.w3.org/2000/svg" width="89.70612" height="40" viewBox="0 0 89.70612 40"><title>btn-donate-reverse</title><rect width="90" height="40" fill="#0d6936"/><path d="M20.82481,25.05512q0,3.11709-1.19761,4.277a3.58606,3.58606,0,0,1-1.93967.89349,16.14691,16.14691,0,0,1-2.28706.13321,12.30525,12.30525,0,0,0-2.23931.15689,1.61583,1.61583,0,0,0-.76642-.14554H11.317q-1.07727,0-1.07776-.8708a3.618,3.618,0,0,1,.03606-.42331,3.69137,3.69137,0,0,0,.036-.448q0-.24126-.036-.77361-.03582-.5321-.03606-.77458a3.739,3.739,0,0,1,.04824-.65273q-.09648-.99167-.14374-2.70957-.04823-2.007-.096-2.73326-.04824-.726-.04775-1.524,0-.7741.05993-2.35879.05921-1.58446.05993-2.383A23.05549,23.05549,0,0,0,10,12.27541a.69608.69608,0,0,0,.11986-.411A.79476.79476,0,0,0,10,11.54967v-.2901q0-.67714.45507-.6774a14.63894,14.63894,0,0,0,1.46072.109q1.72407.10953,3.11341.109h1.67607a2.39483,2.39483,0,0,1,1.2936.483q.14325.09694,1.07727.8703a16.74618,16.74618,0,0,1,1.509,6.45078q.16737,2.05439.16761,1.90835v.70108a9.01165,9.01165,0,0,0,.08381,1.01485,9.01347,9.01347,0,0,1,.0838,1.01486q0-.04884-.16761.79679Q20.82433,23.99289,20.82481,25.05512Zm-4.311-1.27635q0,.12063-.04775-.79827-.12059-1.50007-.1676-3.77426-.07236-3.70173-.07211-3.75009l-1.89192-.12087q-.04824.558-.04775,1.2122,0,.7038.03605,2.13431.03582,1.43052.03557,2.13382v1.89157a4.01037,4.01037,0,0,1,.04824.4608q.02338.8.14373,2.40073a1.49421,1.49421,0,0,0,.47895.07253,4.0346,4.0346,0,0,0,1.00564-.16923A2.432,2.432,0,0,0,16.51379,23.77877Z" fill="#ecde39"/><path d="M33.828,19.36067q0,1.43126-.05993,3.18863-.05994,1.75911-.05945,1.5403v.58168q0,3.68619-2.405,5.31061a22.85967,22.85967,0,0,1-3.79991.48547,5.48035,5.48035,0,0,1-3.72732-1.2127,2.52773,2.52773,0,0,1-.5535-.53333c-.01607-.03256-.06382-.16972-.14373-.41245a14.32669,14.32669,0,0,1-.57737-3.201q-.26457-3.00684-.3128-3.24932a.39213.39213,0,0,0,.096-.24274,1.3947,1.3947,0,0,0-.04774-.31526,1.3687,1.3687,0,0,1-.04824-.31526V17.251l.31134-.38828-.45507-.1939q.07234-1.09158.14373-2.18266a6.02679,6.02679,0,0,1,.50185-2.08546,2.74017,2.74017,0,0,1,1.56547-1.38193,9.00976,9.00976,0,0,1,2.97552-.38828,17.94358,17.94358,0,0,1,4.32564.63053,1.337,1.337,0,0,0,.57347.56984,1.78461,1.78461,0,0,1,.64509.61868,14.4101,14.4101,0,0,1,.86045,1.8669q.02339.17022.07211.53383.11913.8.11938.92112v3.58925Zm-4.57413,6.32941a13.21,13.21,0,0,1-.07162-1.43077q0-.75189.03605-2.27985.03582-1.52746.03557-2.27936,0-1.38241-.0955-2.52209a1.25051,1.25051,0,0,1-.096-.50916,3.00576,3.00576,0,0,1,.096-.63052,3.05991,3.05991,0,0,0,.0955-.63053.721.721,0,0,0-.51159-.72722q-.53718.07252-1.1221.145a2.76161,2.76161,0,0,0-1.048.33993q-.02485,1.11527-.02436,2.47325,0,1.38242.02728,3.274.027.67863.08235,2.32771.08185,1.47936.08185,2.304a1.42035,1.42035,0,0,0,1.08847.50915,4.6534,4.6534,0,0,0,.628-.06068,4.715,4.715,0,0,1,.58029-.06069Z" fill="#ecde39"/><path d="M46.76012,12.57045v2.3282a5.02751,5.02751,0,0,1-.11986,1.188q.01974.07326.06968.25458a1.16143,1.16143,0,0,1,.05018.27924.20834.20834,0,0,1-.11986.21807v.21807q0,.48547-.07162,1.261-.07236.99462-.07211,1.261-.14325,3.05568-.14373,3.22515v1.16435a3.57254,3.57254,0,0,0-.03411.78791,1.95073,1.95073,0,0,1-.08526.7884,1.054,1.054,0,0,1,.11937.58168V27.8239a8.94315,8.94315,0,0,1-.11937,1.188,6.49179,6.49179,0,0,0-.096,1.23687,1.32071,1.32071,0,0,1-.98177.33944,5.878,5.878,0,0,1-1.14986-.16972,5.87945,5.87945,0,0,0-1.14938-.16972q-.45533-.87252-1.29311-2.69182-.19223-.46031-.55106-1.38192-.21487-.43663-.40684-.86093a2.95073,2.95073,0,0,1-.23972-.95812,2.34351,2.34351,0,0,1-.33521-.93345q-.19149-.81258-.35909-.86092-.02412.50915-.02388,1.09133,0,1.16409.0955,3.201.144,2.30379.14373,3.201a14.68552,14.68552,0,0,1-3.42426.41246q-.26384,0-.55105-.02467a16.50026,16.50026,0,0,1-.2636-3.46739v-.58217q-.02412-1.93968-.23923-6.23222-.19221-4.074-.19148-6.2564,0-1.5763.07162-3.03125a17.7817,17.7817,0,0,1,3.40088-.31526q.19147.24273.57444.703.8858,2.83736,2.05953,6.52331.52693,1.28547,1.4612,3.83149l.14374-.14554q-.02412-.53285-.192-3.6376-.14325-2.20609-.14374-3.61294a22.356,22.356,0,0,1,.21682-3.34651,5.29392,5.29392,0,0,1,1.18008-.12137q.07234,0,2.74652.21807a1.69885,1.69885,0,0,1,.02387.26691,1.89409,1.89409,0,0,1-.05993.40012,1.83673,1.83673,0,0,0-.05993.37595A1.24107,1.24107,0,0,0,46.76012,12.57045Z" fill="#ecde39"/><path d="M56.21923,29.95771q-.40709,0-.71818-.02319v-.14209a2.72212,2.72212,0,0,0-.096-.5802,2.70949,2.70949,0,0,1-.09549-.5802.57887.57887,0,0,0-.64656-.66259H53.8966a1.04618,1.04618,0,0,1-.47895-.09719.15368.15368,0,0,1-.14374.09719h-.4312q-.64678-.07252-.86239.75831-.14325.66456-.287,1.32814a4.40821,4.40821,0,0,1-.67092.04736,12.32528,12.32528,0,0,1-1.49677-.1332,12.28317,12.28317,0,0,0-1.47242-.13321l-.14373-.12137a3.97363,3.97363,0,0,1-.02436-.43663,13.71062,13.71062,0,0,1,.3357-2.66764q.40635-2.06031.47895-2.6188.095-.84883.19148-1.3094a9.61734,9.61734,0,0,0,.28747-.99463q0-.48472.07162-1.47911.07162-.26642.19148-.80024.21561-1.042.31134-1.79438a7.71433,7.71433,0,0,0,.38345-1.77021q.19149-1.47861.35909-2.95872a10.82922,10.82922,0,0,1,.57494-2.74017A.92168.92168,0,0,1,51.59735,10a.89167.89167,0,0,1,.40733.09719Q53.10534,10.00025,53.82449,10a11.25469,11.25469,0,0,1,1.82029.14554A.738.738,0,0,1,56.05162,10a1.66954,1.66954,0,0,1,.79029.31576q.288,1.9182.40732,3.15607.07162.87474.21536,2.64692.04824.26715.50282,3.35046v.12137a27.52182,27.52182,0,0,0,.3357,2.81663q.26312,1.62663.76593,4.90457.288,1.94264.28747,2.30649Q56.19559,29.958,56.21923,29.95771Zm-1.55622-6.135v-.33943a49.22735,49.22735,0,0,0-.55106-5.94114l-.23972-.21856c-.04774.06463-.11937.17811-.21535.33944a14.45976,14.45976,0,0,0-.47895,2.9829q-.35885,3.22515-.40684,3.39486h.55057A2.8385,2.8385,0,0,0,54.663,23.82268Z" fill="#ecde39"/><path d="M69.94209,12.60942a12.96755,12.96755,0,0,1-.18856,2.12247.85681.85681,0,0,1-.23631.5062,5.67064,5.67064,0,0,0-1.36814-.16972,4.54775,4.54775,0,0,0-1.34427.17021.74857.74857,0,0,1,.02387.17021,1.42759,1.42759,0,0,1-.13155.51113,1.38877,1.38877,0,0,0-.132.48646.50881.50881,0,0,0,.192.38927,29.20252,29.20252,0,0,0-.26359,4.18425v3.89218q0,1.24181-.03167,2.26258-.01681.09769-.03216.53531-.03216.34116-.03216.55947a6.22975,6.22975,0,0,0,.04824.64484,6.34211,6.34211,0,0,1,.04775.64433,1.47155,1.47155,0,0,1-.11986.60833l-3.73609.19488a1.27067,1.27067,0,0,1-.67043-1.2127,5.7148,5.7148,0,0,1,.07211-.76373,5.77819,5.77819,0,0,0,.07162-.76423,6.52653,6.52653,0,0,0-.08185-.6547,23.2714,23.2714,0,0,1-.06188-2.35188V22.24637a24.11013,24.11013,0,0,0-.2631-3.95286,4.93452,4.93452,0,0,0,.11937-1.16385q0-1.67327-.02388-1.55214l-.28746-.24224q-.23971,0-.70649.04835-.467.04884-.70648.04835a1.93306,1.93306,0,0,1-1.00565-.24224,2.66529,2.66529,0,0,0,.02388-.36411,10.58659,10.58659,0,0,0-.14374-1.41843,10.69277,10.69277,0,0,1-.14373-1.44261,3.525,3.525,0,0,1,.07162-.72772,36.78,36.78,0,0,1,6.74815-.50915,7.182,7.182,0,0,1,.84632.07252,7.12056,7.12056,0,0,0,.84681.073,1.63232,1.63232,0,0,0,.40538-.073,1.63356,1.63356,0,0,1,.3815-.07252,2.92574,2.92574,0,0,1,.69187.12137,2.88883,2.88883,0,0,0,.6675.12087h.30988a.367.367,0,0,1,.14325.28961v1.34985Z" fill="#ecde39"/><path d="M79.95225,11.1155q.0475.58242.04775,1.16435a12.42187,12.42187,0,0,1-.24313,2.49743,3.64142,3.64142,0,0,1-1.19274.16972q-.26822,0-.80344-.036-.53571-.037-.803-.03651a3.574,3.574,0,0,0-1.412.24225.87821.87821,0,0,1,.21585.558,2.56077,2.56077,0,0,1-.10817.61819,2.56934,2.56934,0,0,0-.10768.594c0,.04884.0078.14554.02437.29109q.02339.38853.06041.80024a.83805.83805,0,0,0,.32693.63052l3.80236.12137a1.18767,1.18767,0,0,1,.09647.485,3.99,3.99,0,0,1-.07163.63053,3.99689,3.99689,0,0,0-.07162.63052,1.12518,1.12518,0,0,0,.14325.58217,1.192,1.192,0,0,0-.0955.485,2.885,2.885,0,0,0,.02387.30293,3.093,3.093,0,0,1,.02388.3276.75273.75273,0,0,1-.43364.72722,2.18751,2.18751,0,0,1-.3128.02418,8.67969,8.67969,0,0,1-1.26485-.13321,8.668,8.668,0,0,0-1.26388-.13321,3.07711,3.07711,0,0,0-.79467.0967l-.19295,2.95873a.726.726,0,0,0,.67433.31526,3.86456,3.86456,0,0,0,.554-.073,8.97289,8.97289,0,0,0,1.6142.073,1.94077,1.94077,0,0,1,1.32478.38778,15.94522,15.94522,0,0,0-.04823,1.77021c0,.0814-.00829.21856-.02388.41245-.01608.1939-.02387.33155-.02387.412a2.56468,2.56468,0,0,0,.02387.29108,2.70585,2.70585,0,0,1,.02388.29109.79884.79884,0,0,1-.36153.77607q-2.60109-.1458-7.78011-.50916a4.36915,4.36915,0,0,1-.14422-1.18852,5.56814,5.56814,0,0,1,.0955-.89694A3.29394,3.29394,0,0,1,71.283,26.6112q0-.29085.04775-.8851.04823-.59352.04823-.88511,0-.87252-.40732-11.4703l-.096-2.54627q.16737-.02368,1.00614-.16972a6.53537,6.53537,0,0,1,1.00564-.0967q-.14325,0,.59881.07252.67019,0,1.964.02418,2.634.07326,4.26278.26691Z" fill="#ecde39"/></svg>