<svg id="Layer_1" data-name="Layer 1" xmlns="http://www.w3.org/2000/svg" width="45" height="45" viewBox="0 0 45 45"><title>btn-instagram</title><rect width="45" height="45" fill="#3e739d"/><path d="M32.30764,11.71875H12.69231a.97188.97188,0,0,0-.97356.97361V32.30764a.97619.97619,0,0,0,.97356.97361H32.30764a.98062.98062,0,0,0,.97361-.97361V12.69236a.97624.97624,0,0,0-.97361-.97361Zm-9.81188,7.02074a3.76051,3.76051,0,1,1-3.75627,3.75627,3.76155,3.76155,0,0,1,3.75627-3.75627Zm8.087,11.84331H14.4172V21.155h1.7687a6.45661,6.45661,0,1,0,12.77142,1.3408,6.4,6.4,0,0,0-.14491-1.3408h1.77033Zm0-12.12629h-4.0393V14.41726h4.0393Zm0,0" fill="#fff"/></svg>