<svg id="Layer_1" data-name="Layer 1" xmlns="http://www.w3.org/2000/svg" width="45" height="45" viewBox="0 0 45 45"><title>btn-share-twitter</title><path d="M22.5,0A22.5,22.5,0,1,0,45,22.5,22.4995,22.4995,0,0,0,22.5,0Z" fill="#231f20"/><path d="M12.46125,30.59719a12.92595,12.92595,0,0,0,19.88559-11.4781,9.21254,9.21254,0,0,0,2.26782-2.35284,9.0805,9.0805,0,0,1-2.61019.7155,4.55208,4.55208,0,0,0,1.99781-2.51438,9.10878,9.10878,0,0,1-2.88553,1.10354,4.54805,4.54805,0,0,0-7.74516,4.14543,12.89858,12.89858,0,0,1-9.36768-4.74928,4.55049,4.55049,0,0,0,1.40662,6.06863,4.52845,4.52845,0,0,1-2.05941-.56878,4.55013,4.55013,0,0,0,3.64557,4.51425,4.54871,4.54871,0,0,1-2.05191.07762,4.54772,4.54772,0,0,0,4.24528,3.15656A9.13426,9.13426,0,0,1,12.46125,30.59719Z" fill="#fff"/></svg>