<svg xmlns="http://www.w3.org/2000/svg" width="600" height="600" viewBox="0 0 600 600">
  <title>character-winey-pierre-full</title>
  <g id="Background">
    <path d="M457.49987,88.74645C480,17.97864,271.76573-48.67619,126.96521,49.282,40.38621,107.85291,0,169.2499,64.99,266.33669,4.87923,297.84406-1.78791,430.61235,3.01472,463.65919,20,580.53473,460,680.98745,480,504.16358c40.86832,29.1429,91.23329-11.36149,101.45037-40.50439,25.98279-74.11256-70.10061-148.70485,6.53292-255.80048C628.792,150.82837,560.792,29.5497,457.49987,88.74645Z" fill="#93bd95"/>
    <g>
      <g>
        <path d="M499.96941,408.51252c.66956,5.91719-10.87408,13.157-16.11894,16.12183-3.57716,2.02463-7.73708,4.3188-11.63663,5.328-5.61063,1.448-6.60256.02507-9.91934-4.52565-4.6621-6.39357-8.46244-13.7023-12.44878-20.81672,10.30372-8.78176,24.84176-17.51964,36.60238-21.58771.062.12537.1178.25073.17979.37609C489.89508,390.24069,499.15726,401.2602,499.96941,408.51252Z" fill="#495554"/>
        <path d="M458.23376,294.85736c-.47736.094-.96713.163-1.4693.21312-9.26219.90889-19.86349,2.20014-28.35073-1.34767-.07439-.02507-.14259-.05641-.217-.08775-3.40358-1.46676-5.69123-4.48177-7.26592-8.06092a51.52809,51.52809,0,0,1-3.292-13.06922c-.05579-.36982-.09919-.74591-.13019-1.122,7.6379,6.85115,22.95709,7.44036,31.76671,6.75086,9.318-.73338,18.99554-2.23775,27.07981-6.91384C473.31737,282.10155,468.01052,292.95809,458.23376,294.85736Z" fill="#50303a"/>
        <path d="M460.54,337.174c8.74143,15.29443,18.39419,30.21276,25.90809,45.85821-11.76062,4.06807-26.29866,12.80595-36.60238,21.58771-.651-1.16588-1.30812-2.33177-1.97767-3.48512C443.02,392.77932,437.9611,384.054,433.62139,375.291c-2.07066-4.18089-5.43084-10.34254-8.59263-15.99647C435.0039,350.14923,447.77505,340.9475,460.54,337.174Z" fill="#e7d8d2"/>
        <path d="M458.41975,333.43191q1.05084,1.88047,2.12026,3.74213c-12.765,3.77346-25.53611,12.97519-35.51125,22.1205-.22939-.40743-.45257-.80859-.682-1.20976-2.31865-4.15582-4.4699-7.92928-5.82762-10.29867,1.02914-.37609,2.81462-.85874,3.633-1.17215,3.23618-1.24738,6.491-2.33178,9.80155-3.74212,5.92681-2.53236,11.04147-5.37186,14.99681-10.81893a49.6944,49.6944,0,0,0,5.15806-9.28322C454.39622,326.12945,456.41728,329.8465,458.41975,333.43191Z" fill="#495554"/>
        <path d="M420.39766,295.15823a35.63292,35.63292,0,0,1,8.01607-1.43542c8.48724,3.54781,19.08854,2.25656,28.35073,1.34767.50217-.05015.99194-.1191,1.4693-.21312.124,8.72534-2.35584,19.31862-6.12519,27.91233a49.6944,49.6944,0,0,1-5.15806,9.28322c-3.95534,5.44707-9.07,8.28657-14.99681,10.81893-3.31058,1.41034-6.56537,2.49474-9.80155,3.74212-.81835.31341-2.60383.79606-3.633,1.17215-.92373-1.61719-1.4817-2.5825-1.4817-2.5825l-1.59329.11283c-.0558-1.10947-.14879-2.19387-.26658-3.24693,1.19032-9.302.95473-28.08785-.14879-45.09977C416.85769,296.25517,418.668,295.65342,420.39766,295.15823Z" fill="#eab492"/>
        <path d="M418.51918,347.78611c1.35772,2.36939,3.509,6.14285,5.82762,10.29867l-.48977.28207a32.8259,32.8259,0,0,1-8.636-2.06224,80.29542,80.29542,0,0,0,.22319-10.98817l1.59329-.11283S417.59545,346.16892,418.51918,347.78611Z" fill="#eab492"/>
        <path d="M416.09514,286.28245c1.6119,3.04635,3.1742,6.21806,4.30252,8.87578-1.72968.49519-3.54,1.09694-5.36884,1.81151-.22939-3.529-.496-6.98278-.79355-10.25479Q415.14661,286.4705,416.09514,286.28245Z" fill="#495554"/>
        <path d="M406.51058,301.03154a59.85879,59.85879,0,0,1,8.51824-4.0618c1.10352,17.01192,1.33911,35.79774.14879,45.09977h-1.5499l-.0062.00626a21.75157,21.75157,0,0,0-5.67263,5.44081c-3.22378-1.25991-3.91814-6.16792-2.9696-9.20173.279-1.78017,3.15559-5.30917,3.15559-5.30917s-3.36638,2.11238-4.63109,4.79518c-4.12273-1.83032-6.81335-6.52521-4.12893-10.76252h.0062c0,.01881.0062.03134.0186.01881a20.74,20.74,0,0,1,3.17419-4.41909s-3.25479,1.191-4.38311,3.28454C388.56276,316.27583,396.04567,307.09917,406.51058,301.03154Z" fill="#eab492"/>
        <path d="M415.17761,342.06951c.11779,1.05306.21078,2.13746.26658,3.24693a80.29542,80.29542,0,0,1-.22319,10.98817c-3.25478-1.448-5.73462-3.949-5.09606-8.49969.558-2.5637,3.323-5.5411,3.49657-5.72915l.0062-.00626Z" fill="#eab492"/>
        <path d="M416.09514,286.28245q-.94853.188-1.85987.4325c-.14879-1.59839-.30378-3.1529-.465-4.651C414.53285,283.3928,415.3202,284.822,416.09514,286.28245Z" fill="#cc7b29"/>
        <path d="M414.23527,286.715c.29758,3.272.56416,6.72579.79355,10.25479a59.85879,59.85879,0,0,0-8.51824,4.0618l-4.15373-7.87287A27.97265,27.97265,0,0,1,414.23527,286.715Z" fill="#495554"/>
        <path d="M413.7703,282.06394c.16119,1.49811.31618,3.05262.465,4.651a27.97265,27.97265,0,0,0-11.87842,6.44372l-4.36451-8.274c-1.07253-5.516,6.026-9.0701,11.26466-9.77214A48.87981,48.87981,0,0,1,413.7703,282.06394Z" fill="#cc7b29"/>
        <path d="M407.94888,347.51658a21.75157,21.75157,0,0,1,5.67263-5.44081c-.17359.18805-2.93861,3.16545-3.49657,5.72915A4.73457,4.73457,0,0,1,407.94888,347.51658Z" fill="#996750"/>
        <path d="M408.13487,333.00568s-2.87661,3.529-3.15559,5.30917a9.35321,9.35321,0,0,1-1.4755-.514C404.76849,335.11806,408.13487,333.00568,408.13487,333.00568Z" fill="#996750"/>
        <path d="M402.952,237.56593l-11.33285,2.95859a31.81883,31.81883,0,0,1,6.336-3.623,28.34942,28.34942,0,0,1,4.5257-1.39781C402.64823,236.21826,402.80322,236.93911,402.952,237.56593Z" fill="#50303a"/>
        <path d="M399.39965,326.99446c-.0062.01254-.0186.02508-.0248.03761C399.36865,327.007,399.37485,326.97566,399.39965,326.99446Z" fill="#9a6075"/>
        <path d="M399.39965,327.05715c-.0124.01253-.0186,0-.0186-.01881Z" fill="#9a6075"/>
        <polygon points="399.375 327.032 399.381 327.038 399.375 327.038 399.375 327.032" fill="#eab492"/>
        <path d="M399.37485,327.03207c-.42157-.36982-.81835-.73964-1.18412-1.10947,1.12832-2.09358,4.38311-3.28454,4.38311-3.28454a20.74,20.74,0,0,0-3.17419,4.41909l-.0186-.01881-.0062-.00627c.0062-.01253.0186-.02507.0248-.03761C399.37485,326.97566,399.36865,327.007,399.37485,327.03207Z" fill="#996750"/>
        <path d="M317.03188,347.761c1.97147-7.992,3.63916-15.63291,4.95347-23.37415a238.82227,238.82227,0,0,0,2.87041-23.86307c.17979-2.60131.32238-5.25276.42778-7.97316.08059-2.14373.155-4.30626.21078-6.49387.19219-7.503.19219-15.22548-.21078-22.96671-.14259-2.77055-.22319-6.0927-.44637-9.52141a65.98663,65.98663,0,0,0-1.38251-10.493,22.56548,22.56548,0,0,0-2.703-6.9389c.17978-.21939.35957-.445.53936-.6707,12.94475-1.448,29.82,2.53862,42.75238,2.595,3.106-13.21339,8.92741-26.7966,9.566-40.81858.17979-4.01165.403-15.1816-2.455-25.06657,6.96834-1.70495,17.23486-3.99284,23.55225-4.37521a132.40938,132.40938,0,0,1,29.28686,1.7551c17.30926,2.83323,35.36247,11.76543,43.72572,28.489,8.543,17.0746,14.76122,37.60926,11.92181,56.89653a134.172,134.172,0,0,1-3.28578,16.27854c-8.08427,4.67609-17.76183,6.18046-27.07981,6.91384-8.80962.6895-24.12881.10029-31.76671-6.75086-.434-4.70116.527-9.72826.76875-14.56105.22939-4.5946,2.44264-10.05421,1.85988-14.41688-.67576-5.03964-4.6435-7.10815-9.29319-7.54693a27.19254,27.19254,0,0,0-8.36325.64563,28.34942,28.34942,0,0,0-4.5257,1.39781,31.81883,31.81883,0,0,0-6.336,3.623l11.33285-2.95859c.0992.40743.19839.771.29138,1.07813,1.02294,3.27827,2.33725,6.31836,3.40978,9.38978,2.23185,6.41238,3.18039,12.41732,4.77368,18.8485a123.39385,123.39385,0,0,1,2.34345,15.1816,48.87981,48.87981,0,0,0-4.5133-6.95144c-5.23866.702-12.33719,4.25611-11.26466,9.77214l4.36451,8.274,4.15373,7.87287c-10.46491,6.06763-17.94782,15.24429-8.31985,24.89106.36577.36983.76255.73965,1.18412,1.10947v.00627c-2.68442,4.23731.0062,8.9322,4.12893,10.76252a9.35321,9.35321,0,0,0,1.4755.514c-.94854,3.03381-.25418,7.94182,2.9696,9.20173a4.73457,4.73457,0,0,0,2.17606.28834c-.63856,4.55072,1.84128,7.05173,5.09606,8.49969A152.88744,152.88744,0,0,1,408.22166,389.57a329.51144,329.51144,0,0,1-16.28632,40.875c-.0558-.10029-.30378-.28207-.33478-.257-.372-2.5637-1.5251-4.651-2.61623-7.10188-4.41411-9.93512-11.35145-19.40638-19.73329-27.79324-15.83376-15.85857-36.81938-27.881-55.65373-32.03682,1.05393-4.814,1.96527-9.56528,3.14319-14.29151C316.83969,348.56337,316.93889,348.16221,317.03188,347.761Z" fill="#9a6075"/>
        <path d="M394.192,550.0236a5.44386,5.44386,0,0,1-.85554,6.24314c-1.95287,2.09358-7.80529,3.04635-10.38432,3.32215-8.00367.87128-16.99928.20058-24.84176-.608-11.618-1.19722-37.78651-6.85115-43.69472-11.99108.0186,0-.13019,1.7739-.26038,1.58586-6.26159,4.50057-11.16546-2.827-13.44691-8.9322,14.09167,6.41238,45.412,13.99064,58.41874,14.65507,8.10287.40744,28.09035,3.55408,34.40153-3.45378A9.62957,9.62957,0,0,0,394.192,550.0236Z" fill="#372225"/>
        <path d="M394.192,550.0236a9.62957,9.62957,0,0,1-.66336.82114c-6.31118,7.00786-26.29866,3.86122-34.40153,3.45378-13.00674-.66443-44.32707-8.24269-58.41874-14.65507-.23559-.63936-.44637-1.25991-.62-1.85539-1.5375-6.73206-1.20272-13.81513-.16119-20.77911,9.54737,7.52185,18.25779,11.90333,31.55592,11.22636a86.99883,86.99883,0,0,0,26.01348-5.25276c5.30065,5.69153,11.67383,7.13322,21.2026,9.01368C385.23978,533.28122,400.311,541.65554,394.192,550.0236Z" fill="#4a2d32"/>
        <path d="M391.60056,430.188c-4.25912,6.19926-9.504,7.96689-14.24046,7.8666a213.16733,213.16733,0,0,0-6.0632-34.55664c-.61376-2.48221-1.21512-5.41573-2.04586-8.20508,8.38184,8.38686,15.31918,17.85812,19.73329,27.79324C390.07546,425.537,391.22859,427.62429,391.60056,430.188Z" fill="#50303a"/>
        <path d="M190.23785,376.98343c-1.98387,12.44239-5.98881,24.65287-10.17973,36.481a66.41216,66.41216,0,0,0-5.64163-7.69737c-10.34092-17.51337-29.58445-18.28436-45.04-29.22238A34.57249,34.57249,0,0,1,125.043,372.79c1.64909-8.77549,5.84-21.51249,8.02227-30.72049,4.5877-19.41265,18.90875-43.80225,40.29734-48.29655a52.13366,52.13366,0,0,1,13.5895-.83367,43.43463,43.43463,0,0,0-1.04773,6.39984c11.97141,3.57914,30.564,5.49722,40.21675,14.93087a28.28207,28.28207,0,0,1,.85554-6.85115,13.75345,13.75345,0,0,1,2.83322,3.30961c15.28819,17.37548,20.74383,20.729,37.8175,29.003,15.55477,7.54066,32.37426,8.09226,49.40454,8.02958-.093.40117-.19219.80233-.29138,1.2035-1.17792,4.72623-2.08926,9.47753-3.14319,14.29151,18.83435,4.15583,39.82,16.17825,55.65373,32.03682.83074,2.78935,1.4321,5.72287,2.04586,8.20508a213.16733,213.16733,0,0,1,6.0632,34.55664,106.45036,106.45036,0,0,1-1.22752,28.138c-3.25478,17.17489-4.63729,39.33928-13.34152,54.50834q-2.55734,1.24112-5.29445,2.28163a86.99883,86.99883,0,0,1-26.01348,5.25276c-13.29813.677-22.00855-3.70451-31.55592-11.22636,1.12213-7.52812,3.0688-14.91834,4.38311-21.58145,3.0502-15.46367,4.20952-25.92531-1.70489-40.68067-9.349-23.33654-23.67-45.35676-46.9309-56.91534-10.80589-5.36558-21.89076-10.75-33.19881-14.36046-4.90388-1.56706-18.11521-5.76049-27.99115-6.44372.55176-8.75042.66335-19.54428-3.45318-24.85345A91.03244,91.03244,0,0,1,190.23785,376.98343Zm79.83833,2.69533c6.54677,6.63176,10.41531,14.99982,16.14993,22.56555-3.37257-11.358-18.0966-36.41829-34.04815-33.09614C252.178,369.14817,265.06691,374.60151,270.07618,379.67876Z" fill="#054554"/>
        <path d="M371.15431,172.176c2.858,9.885,2.63483,21.05492,2.455,25.06657-.63856,14.022-6.46,27.60519-9.566,40.81858-12.93235-.05642-29.80763-4.043-42.75238-2.595a118.48549,118.48549,0,0,0,9.0452-12.98146c9.57837-5.91092,16.6645-16.57941,20.84923-26.47692,2.517-5.95479,6.46617-16.84894,5.92061-25.01015,3.0254-2.73921,5.45564-7.12695,7.05513-11.63379C367.52135,162.61069,369.7222,167.23036,371.15431,172.176Z" fill="#50303a"/>
        <path d="M357.106,170.99755c.54556,8.16121-3.40358,19.05536-5.92061,25.01015-4.18473,9.89751-11.27086,20.566-20.84923,26.47692,9.24979-15.35085,15.065-32.789,15.92055-49.90121C350.31129,174.87757,354.01864,173.79944,357.106,170.99755Z" fill="#ba886c"/>
        <path d="M231.65731,159.97177c.0062,0,.0124,0,.0124.00627a20.1314,20.1314,0,0,0-3.013,1.76763c-4.12893-2.15626-9.0514-3.07142-10.48351-7.86033a11.93835,11.93835,0,0,1,.341-6.46879c8.04707-2.81443,18.04081-2.71414,26.03828-3.56034,9.75816-1.04053,20.32846-1.0844,29.89443-1.11574,9.89455-.03135,20.998,1.38527,29.758-2.96487,10.10533-5.0083,17.82382-13.89662,23.55844-23.37415,7.47671-12.37971,16.54051-40.09773,6.863-53.55557,17.91682,5.65392,18.1834,25.87516,17.31546,43.539a134.15592,134.15592,0,0,1-2.94481,23.12969c-4.76748,1.07814-7.78668,5.55991-10.09913,10.09809-2.33725.55787-4.69929,1.02172-6.93114,1.73629-15.36879,4.908-28.9397,16.83014-45.00284,17.83306-8.52443.52653-18.00361-1.42289-26.745-1.42915-9.42338-.00627-19.49771,1.51063-28.51812,2.21267C231.68831,159.9655,231.66971,159.97177,231.65731,159.97177Z" fill="#824729"/>
        <path d="M344.65726,148.526c-1.21512-4.93308,4.64969-12.27942,10.12393-9.84735,2.89521,1.29125,3.88714,5.89838,3.93674,8.5561-1.4755-5.34051-5.38124-11.38933-10.6323-4.70742-.74395.95276-2.9262,3.89882-1.4383,6.68818a7.47291,7.47291,0,0,1,2.70922.63935c1.90947,1.29125,2.331,3.05889,1.99627,4.17463-.91134,2.96486-4.24052,4.40655-4.24052,4.40655,3.0254,5.99241,7.4519,2.27536,10.97947,1.39781-1.89087,2.7016-4.4761,4.51311-7.89828,3.82988-2.85181-.57041-4.5753-2.15-5.79661-5.33425,1.84127-1.29125,6.68315-2.41326,5.14566-5.87958a4.27583,4.27583,0,0,0-2.35585-1.83658C345.4694,149.93637,345.14083,150.45663,344.65726,148.526Z" fill="#381534"/>
        <path d="M253.59147,194.47826a20.92434,20.92434,0,0,0,4.58149-1.74883c.403-.21939.79975-.445,1.18413-.68323,1.81648-.30715,3.86854-.90889,5.9454-1.4793,5.55484-1.542,9.163-2.35058,8.05327-6.44372a6.33821,6.33821,0,0,0-2.9758-3.75466,31.88258,31.88258,0,0,0,2.47364-7.08934,66.49669,66.49669,0,0,0,12.52317-.99038c-1.60569,6.34343.63236,8.63133,8.49344,7.86034a10.248,10.248,0,0,0,5.91441-2.20015,6.61046,6.61046,0,0,0-.37818,4.394,4.83243,4.83243,0,0,0,.14879,2.78935c1.47551,3.94271,8.26406,4.99576,15.1642,2.35685s11.30186-7.97316,9.82636-11.91587c-.99814-2.67025-4.43271-4.01165-8.69183-3.77973a11.64956,11.64956,0,0,0-9.39238.03761,13.59963,13.59963,0,0,0-4.25292,2.7016,28.51763,28.51763,0,0,0,1.58089-5.259,18.15016,18.15016,0,0,1,3.50277-7.76631c1.00434-.8086,2.00867-1.64227,3.00061-2.49474,4.07933-2.15627,9.349-.75219,14.37065,4.87039.92374-5.08978-.33478-10.41776-4.5567-13.251,5.61683-4.557,11.51884-8.506,18.357-10.1545.14259-.28834.28518-.57667.434-.865,2.31245-4.53818,5.33165-9.01995,10.09913-10.09809a10.9054,10.9054,0,0,1,4.80468.03135c7.77429,1.66734,11.74823,10.681,12.39919,17.58232.29758,3.20306-.465,7.77258-2.03967,12.23555-1.59949,4.50684-4.02973,8.89458-7.05513,11.63379-3.0874,2.80189-6.79475,3.88-10.84929,1.58586-.85554,17.11221-6.67076,34.55036-15.92055,49.90121a118.48549,118.48549,0,0,1-9.0452,12.98146c-.31.03134-.61376.069-.91754.11283-.08059.00626-.155.0188-.23558.03134a49.30051,49.30051,0,0,0-7.25353-20.62868q-.82764-1.29752-1.73588-2.501c-.36578-.49519-.74395-.97784-1.12833-1.44169-3.37877-4.05553-7.40851-7.03293-11.84741-8.06092,4.5319-5.76675.48356-10.5682-4.89148-10.76251,3.55236.68323,6.73895,4.71369,4.42651,8.18.0124-.02507,0-.02507-.0124-.01254-.0062.01254,0,.01881,0,.02508l-.0062.0188a.03357.03357,0,0,0,.0186-.02507.24857.24857,0,0,1-.0124.03761,28.28368,28.28368,0,0,1-1.90328,2.22521,28.88238,28.88238,0,0,1-8.915,6.51894,48.94206,48.94206,0,0,1-15.92675,3.68571c-.92994.05641-1.83508.08148-2.703.07521-9.96894-.069-26.07548-2.338-32.57885-11.28277.155-.42.17359-.20058,0-.62682C239.68578,196.42767,247.30508,196.18948,253.59147,194.47826Zm105.12646-47.24349c-.0496-2.65772-1.04153-7.26485-3.93674-8.5561-5.47424-2.43207-11.339,4.91427-10.12393,9.84735.48357,1.93061.81214,1.41035,2.52943,2.08732a4.27583,4.27583,0,0,1,2.35585,1.83658c1.53749,3.46632-3.30439,4.58833-5.14566,5.87958,1.22131,3.18425,2.9448,4.76384,5.79661,5.33425,3.42218.68323,6.00741-1.12828,7.89828-3.82988-3.52757.87755-7.95407,4.5946-10.97947-1.39781,0,0,3.32918-1.44169,4.24052-4.40655.33477-1.11574-.0868-2.88338-1.99627-4.17463a7.47291,7.47291,0,0,0-2.70922-.63935c-1.4879-2.78936.69435-5.73542,1.4383-6.68818C353.33669,135.84544,357.24243,141.89426,358.71793,147.23477Z" fill="#eab492"/>
        <path d="M227.88176,172.95323c-2.66582.1379-4.97207-.25073-5.85241-1.97448a16.77453,16.77453,0,0,1,6.62736-9.23308,20.1314,20.1314,0,0,1,3.013-1.76763c.0124,0,.0186-.00627.031-.01254,9.02041-.702,19.09474-2.21894,28.51812-2.21267,8.74142.00626,18.2206,1.95568,26.745,1.42915,16.06314-1.00292,29.63405-12.925,45.00284-17.83306,2.23185-.71457,4.59389-1.17842,6.93114-1.73629-.14879.28834-.29138.57667-.434.865-6.83815,1.64854-12.74016,5.59751-18.357,10.1545-3.323,2.7016-6.54677,5.61005-9.81395,8.3806a9.82626,9.82626,0,0,0-3.00061,2.49474,57.08388,57.08388,0,0,1-11.28325,7.40276,43.36567,43.36567,0,0,1-10.6323,3.37856,66.49669,66.49669,0,0,1-12.52317.99038c-4.85428-.01881-9.783-.40117-14.724-.8086-5.16426-.42624-10.34092-.87128-15.468-.9465a13.39878,13.39878,0,0,1,.47737-1.799l-.1054-.03134a8.77264,8.77264,0,0,0-2.06446,1.81778c-1.03533,0-2.06446.01881-3.0998.06269a25.03626,25.03626,0,0,0-2.9882.38863A61.34462,61.34462,0,0,1,227.88176,172.95323Z" fill="#733d26"/>
        <path d="M325.28354,263.09008c.403,7.74123.403,15.46367.21078,22.96671-6.79475-2.45714-14.51944-6.57535-18.89635-11.05712a54.48994,54.48994,0,0,0,18.2392-21.431C325.06035,256.99738,325.14095,260.31953,325.28354,263.09008Z" fill="#7b4d60"/>
        <path d="M325.49432,286.05679c-.05579,2.18761-.13019,4.35014-.21078,6.49387-.1054,2.7204-.248,5.37185-.42778,7.97316-4.29631-2.63892-9.256-5.071-12.0024-6.56282a134.65613,134.65613,0,0,0-23.04388-9.42111,122.80249,122.80249,0,0,0-27.00542-4.83906c-5.97641-.49519-15.44318-1.379-22.7587-.05015.47737-.78979.93614-1.55451,1.37631-2.28162,1.10353-1.824,2.28765-3.67944,3.55237-5.52857a68.94492,68.94492,0,0,0,21.339-3.88c-3.75076-3.89882-5.25726-9.13278-5.51764-14.47956,1.22752-1.0844,2.47364-2.10612,3.726-3.04635,1.56849,1.12828,4.21572,2.19387,8.89641,2.52609.36577,3.90509.83074,8.01077,3.0254,10.76878,3.96154,4.977,8.92741,1.04679,14.15367-1.73629a70.90045,70.90045,0,0,0,9.628-6.32462c8.93981-1.39155,17.44565-5.57871,23.22987-12.59284a65.98663,65.98663,0,0,1,1.38251,10.493,54.48994,54.48994,0,0,1-18.2392,21.431C310.97488,279.48144,318.69957,283.59965,325.49432,286.05679Z" fill="#ecca83"/>
        <path d="M320.10688,150.63214c4.22192,2.83323,5.48044,8.16121,4.5567,13.251-5.02167-5.62258-10.29132-7.02666-14.37065-4.87039C313.56011,156.24219,316.7839,153.33374,320.10688,150.63214Z" fill="#4f2f22"/>
        <path d="M312.85336,293.961c2.74642,1.49184,7.70609,3.9239,12.0024,6.56282a238.82227,238.82227,0,0,1-2.87041,23.86307c-11.13446-10.73744-23.35386-19.35-38.23907-23.54966-8.34465-2.35685-16.6955-5.002-25.41833-6.26821-8.47484-1.22857-17.08607-1.028-25.7469-1.62347,2.40544-4.78891,5.11467-9.38977,7.46431-13.29487,7.31552-1.32886,16.78229-.445,22.7587.05015a122.80249,122.80249,0,0,1,27.00542,4.83906A134.65613,134.65613,0,0,1,312.85336,293.961Z" fill="#7b4d60"/>
        <path d="M317.52165,240.97583c.07439-.42.13639-.83367.186-1.25364a.00612.00612,0,0,0,.0062-.00627c.248-.2758.48976-.55787.73155-.83994q.92064-1.053,1.80408-2.13119c.16739-.20058.33478-.40116.50217-.608a22.56548,22.56548,0,0,1,2.703,6.9389c-5.78422,7.01413-14.29006,11.20129-23.22987,12.59284.94234-.70831,1.89088-1.43542,2.86421-2.18761a106.34106,106.34106,0,0,0,13.7073-12.74327C317.03808,240.81913,317.27986,240.89435,317.52165,240.97583Z" fill="#af945d"/>
        <path d="M321.291,235.46608c-.17979.22565-.35958.45131-.53936.6707-.124-.19432-.248-.3761-.37818-.55787C320.67724,235.535,320.981,235.49742,321.291,235.46608Z" fill="#eab492"/>
        <path d="M320.37346,235.57891c.13019.18177.25418.36355.37818.55787-.16739.20685-.33478.40743-.50217.608-.031-.37609-.0682-.75218-.11159-1.13454C320.21847,235.59771,320.29287,235.58517,320.37346,235.57891Z" fill="#eab492"/>
        <path d="M320.13788,235.61025c.04339.38236.08059.75845.11159,1.13454q-.88344,1.08128-1.80408,2.13119c-.19839-.10655-.403-.20685-.61376-.31341.06819-.85247.09919-1.71749.09919-2.57623C318.65,235.8359,319.38773,235.71054,320.13788,235.61025Z" fill="#381534"/>
        <path d="M318.97235,175.05308c1.5623,3.93644-1.65529,6.38731-7.00553,8.55611-5.35025,2.16253-10.81209,3.21559-12.37439-.72085q-.10228-.27266-.186-.54533a10.88033,10.88033,0,0,1,3.757-5.50976,3.62723,3.62723,0,0,0-.19839,1.2035,2.8431,2.8431,0,1,0,5.623,0,3.12115,3.12115,0,0,0-2.50464-3.24693,22.97115,22.97115,0,0,1,3.29819-1.567,21.455,21.455,0,0,1,6.47237-1.42916A6.19253,6.19253,0,0,1,318.97235,175.05308Z" fill="#fffbe4"/>
        <path d="M317.93082,235.98634c0,.85874-.031,1.72376-.09919,2.57623a58.04765,58.04765,0,0,0-8.00367-2.852c.10539-7.22725-.47737-15.1816-.1054-21.60025q.465.07523.92994.18805c.124.17551.25419.351.372.52653A39.52846,39.52846,0,0,1,317.93082,235.98634Z" fill="#fffbe4"/>
        <path d="M317.71384,239.71592a.00612.00612,0,0,1-.0062.00627c.04959-.38863.093-.771.124-1.15962.21078.10656.41537.20686.61376.31341C318.2036,239.15805,317.96182,239.44012,317.71384,239.71592Z" fill="#381534"/>
        <path d="M309.828,235.71054a58.04765,58.04765,0,0,1,8.00367,2.852c-.031.38863-.0744.771-.124,1.15962-.372.2758-.76255.58921-1.17793.9277-2.30624-.75219-4.5381-1.52318-6.77615-2.25029Q309.80936,237.07387,309.828,235.71054Z" fill="#381534"/>
        <path d="M321.98535,324.38689c-1.31431,7.74124-2.982,15.38218-4.95347,23.37415-17.03028.06268-33.84977-.48892-49.40454-8.02958-17.07367-8.274-22.52931-11.62752-37.8175-29.003a13.75345,13.75345,0,0,0-2.83322-3.30961,69.49133,69.49133,0,0,1,5.60443-14.4733c8.66083.59548,17.27206.3949,25.7469,1.62347,8.72283,1.26618,17.07368,3.91136,25.41833,6.26821C298.63149,305.03693,310.85089,313.64945,321.98535,324.38689Z" fill="#ecca83"/>
        <path d="M317.70764,239.72219c-.0496.42-.1116.83367-.186,1.25364-.24179-.08148-.48357-.1567-.72535-.23819Q317.26127,240.22992,317.70764,239.72219Z" fill="#af945d"/>
        <path d="M317.70764,239.72219q-.44637.50773-.91134,1.01545c-.0868-.02507-.17979-.05641-.26659-.08775C316.94509,240.3114,317.33566,239.998,317.70764,239.72219Z" fill="#381534"/>
        <path d="M312.88435,214.98157a49.30051,49.30051,0,0,1,7.25353,20.62868c-.75015.10029-1.48791.22565-2.20706.37609a39.52846,39.52846,0,0,0-6.90634-21.16147c-.11779-.17551-.248-.351-.372-.52653A14.59168,14.59168,0,0,1,312.88435,214.98157Z" fill="#381534"/>
        <path d="M311.14847,212.48056a6.595,6.595,0,0,1-1.32051.15043c.04339-.53906.09919-1.05932.16119-1.567l.031-.02507C310.40452,211.50272,310.78269,211.98537,311.14847,212.48056Z" fill="#381534"/>
        <path d="M310.6525,214.29834c-.279-.36983-.57036-.73965-.86794-1.09694.0124-.19431.0248-.38236.0434-.57041a6.595,6.595,0,0,0,1.32051-.15043q.91134,1.2035,1.73588,2.501A14.59168,14.59168,0,0,0,310.6525,214.29834Z" fill="#381534"/>
        <path d="M273.30617,251.76342a17.69315,17.69315,0,0,1-7.94168-1.95568c-.0248-.01254-.0558-.02507-.08059-.03761a10.47917,10.47917,0,0,1-3.25479-2.31924l-.0062-.00626c-.0248-.02508-.0434-.05015-.0682-.07522a4.04064,4.04064,0,0,1-.78734-1.38528c-.90514-2.77054,1.90947-5.76675,4.64969-9.27068a29.64434,29.64434,0,0,0,5.51144-.59548,16.07812,16.07812,0,0,0,2.69062-.88381,98.18406,98.18406,0,0,1,18.31979-.52027c.87414.069,1.76068.15044,2.64723.257.589.06268,1.18412.1379,1.77928.21939a64.92969,64.92969,0,0,1,9.88215,2.23148q1.5623.47012,3.106.97784c2.238.72711,4.46991,1.4981,6.77615,2.25029-4.4451,3.61049-11.33905,10.2924-18.00361,15.25682a57.12042,57.12042,0,0,1-5.06506,3.42244c-3.664,2.16253-10.81209,6.46879-13.93668,5.20888-3.78175-1.52944-5.20766-7.91675-5.08367-11.55231,4.11033-.03761,7.90448-2.07477,12.176-4.98322C282.153,250.07727,277.83187,251.78223,273.30617,251.76342Z" fill="#eab492"/>
        <path d="M309.78456,213.2014c.29758.35729.589.72711.86794,1.09694q-.465-.11283-.92994-.18805C309.74116,213.80315,309.75976,213.50228,309.78456,213.2014Z" fill="#381534"/>
        <path d="M309.72256,214.11029c-.372,6.41865.21079,14.373.1054,21.60025-.95474-.28207-1.94668-.53907-2.96961-.77726.48357-7.08307-.11159-13.87154.1054-20.99223A14.1862,14.1862,0,0,1,309.72256,214.11029Z" fill="#381534"/>
        <path d="M309.828,212.631c-.0186.18805-.031.3761-.0434.57041-.16119-.18805-.32238-.37609-.496-.55787C309.47458,212.64353,309.65437,212.63726,309.828,212.631Z" fill="#381534"/>
        <path d="M309.828,235.71054q-.0186,1.36333-.0744,2.68906-1.5437-.50772-3.106-.97784c.08679-.83367.16119-1.66108.21078-2.48848C307.88128,235.17147,308.87322,235.42847,309.828,235.71054Z" fill="#381534"/>
        <path d="M306.0834,174.78982a3.12115,3.12115,0,0,1,2.50464,3.24693,2.8431,2.8431,0,1,1-5.623,0,3.62723,3.62723,0,0,1,.19839-1.2035A20.52129,20.52129,0,0,1,306.0834,174.78982Z" fill="#36182d"/>
        <path d="M307.39772,210.73173a26.05409,26.05409,0,0,1,1.89087,1.9118c-.45877,0-.92374-.01254-1.36391-.01254q-.45567,0-.91134.01881c.0248-.52653.0496-1.05306.0868-1.58586Z" fill="#eab492"/>
        <path d="M307.92468,212.631c.44017,0,.90514.01254,1.36391.01254.17359.18178.33478.36982.496.55787-.0248.30088-.0434.60175-.062.90889a14.1862,14.1862,0,0,0-2.75881-.16924c.01239-.42624.031-.85874.04959-1.29125Q307.469,212.631,307.92468,212.631Z" fill="#381534"/>
        <path d="M296.15786,218.0906c3.42837-2.35684,6.99314-4.01792,10.80589-4.14955-.217,7.12069.37817,13.90916-.1054,20.99223a85.79144,85.79144,0,0,0-11.73582-1.86793C295.39531,228.25764,295.34571,222.55984,296.15786,218.0906Z" fill="#fffbe4"/>
        <path d="M306.96375,213.94105c-3.81275.13163-7.37752,1.79271-10.80589,4.14955a22.15823,22.15823,0,0,1,.527-2.25028,22.6797,22.6797,0,0,1,10.32852-3.19052C306.99474,213.08231,306.97614,213.51481,306.96375,213.94105Z" fill="#381534"/>
        <path d="M306.85835,234.93328c-.04959.8274-.124,1.65481-.21078,2.48848a64.92969,64.92969,0,0,0-9.88215-2.23148c-.59516-.08149-1.19032-.15671-1.77928-.21939.04959-.61428.093-1.25364.13639-1.90554A85.79144,85.79144,0,0,1,306.85835,234.93328Z" fill="#381534"/>
        <path d="M305.77342,174.76474a1.72294,1.72294,0,0,1,.31.02508,20.52129,20.52129,0,0,0-2.92,2.04343A2.85211,2.85211,0,0,1,305.77342,174.76474Z" fill="#36182d"/>
        <path d="M307.29232,161.50748a18.15016,18.15016,0,0,0-3.50277,7.76631,28.51763,28.51763,0,0,1-1.58089,5.259,10.32469,10.32469,0,0,0-2.424,3.41617,10.248,10.248,0,0,1-5.91441,2.20015c-7.86108.771-10.09913-1.51691-8.49344-7.86034a43.36567,43.36567,0,0,0,10.6323-3.37856A57.08388,57.08388,0,0,0,307.29232,161.50748Z" fill="#4f2f22"/>
        <path d="M316.7963,240.73764a106.34106,106.34106,0,0,1-13.7073,12.74327c-.97333.75219-1.92187,1.4793-2.86421,2.18761-.56416.094-1.12833.16924-1.69869.23819,6.66456-4.96442,13.55851-11.64633,18.00361-15.25682C316.61651,240.68123,316.7095,240.71257,316.7963,240.73764Z" fill="#996750"/>
        <path d="M302.20866,174.53282a9.32934,9.32934,0,0,1-2.424,3.41617A10.32469,10.32469,0,0,1,302.20866,174.53282Z" fill="#4f2f22"/>
        <path d="M305.77342,174.76474a2.85211,2.85211,0,0,0-2.61,2.06851,10.88033,10.88033,0,0,0-3.757,5.50976,6.61046,6.61046,0,0,1,.37818-4.394,9.32934,9.32934,0,0,0,2.424-3.41617,13.59963,13.59963,0,0,1,4.25292-2.7016,11.64956,11.64956,0,0,1,9.39238-.03761,21.455,21.455,0,0,0-6.47237,1.42916,22.97115,22.97115,0,0,0-3.29819,1.567A1.72294,1.72294,0,0,0,305.77342,174.76474Z" fill="#fffbe4"/>
        <path d="M299.59243,182.88834c1.5623,3.93644,7.02414,2.88338,12.37439.72085,5.35024-2.1688,8.56783-4.61967,7.00553-8.55611a6.19253,6.19253,0,0,0-3.11839-3.25947c4.25912-.23192,7.69369,1.10948,8.69183,3.77973,1.4755,3.94271-2.92621,9.277-9.82636,11.91587s-13.68869,1.58586-15.1642-2.35685a4.83243,4.83243,0,0,1-.14879-2.78935Q299.49014,182.61568,299.59243,182.88834Z" fill="#996750"/>
        <path d="M300.70836,539.64345l-.16739-.07522c-.16739-.58921-.31618-1.18469-.45257-1.78017C300.262,538.38354,300.47277,539.00409,300.70836,539.64345Z" fill="#4a2d32"/>
        <path d="M307.39772,210.73173a50.152,50.152,0,0,0-9.96275-6.895c.27279-.28834.51457-.57041.73776-.85875,4.4389,1.028,8.46864,4.00539,11.84741,8.06092l-.031.02507c-.062.50773-.1178,1.028-.16119,1.567-.17359.00627-.35338.01254-.53937.01254A26.05409,26.05409,0,0,0,307.39772,210.73173Z" fill="#381534"/>
        <path d="M298.17273,202.978c-.22319.28834-.465.57041-.73776.85875-.39057-.21312-.75015-.40117-1.06013-.55787-.22318-.11283-.279-.20059-.22938-.26954A3.38449,3.38449,0,0,1,298.17273,202.978Z" fill="#996750"/>
        <path d="M293.28125,192.21544c5.375.19431,9.42338,4.99576,4.89148,10.76251a3.38449,3.38449,0,0,0-2.02727.03134l-.35338-.34475a28.28368,28.28368,0,0,0,1.90328-2.22521.24857.24857,0,0,0,.0124-.03761v-.00627C300.0202,196.92913,296.83361,192.89867,293.28125,192.21544Z" fill="#996750"/>
        <path d="M296.68482,215.84032a22.15823,22.15823,0,0,0-.527,2.25028q-1.19033.818-2.35585,1.74257c.0372-.73338.062-1.46676.062-2.20015C294.78155,216.9874,295.72389,216.38565,296.68482,215.84032Z" fill="#381534"/>
        <path d="M284.9862,212.9444c2.74641-3.12156,11.67383-4.05553,15.16419-2.43833a93.77612,93.77612,0,0,0-14.16606,8.04211,12.33142,12.33142,0,0,1-1.09733-5.61Z" fill="#4f2f22"/>
        <path d="M296.15786,218.0906c-.81215,4.46924-.76255,10.167-1.03533,14.97475-.868-.08148-1.73589-.15043-2.59763-.20685.45257-4.24357,1.07873-8.58744,1.27711-13.02533Q294.96443,218.91174,296.15786,218.0906Z" fill="#381534"/>
        <path d="M295.12253,233.06535c-.0434.6519-.0868,1.29126-.13639,1.90554-.88655-.10656-1.77309-.18805-2.64723-.257.0558-.61428.11779-1.23483.186-1.85539C293.38664,232.91492,294.25458,232.98387,295.12253,233.06535Z" fill="#381534"/>
        <path d="M293.802,219.83317c-.19838,4.43789-.82454,8.78176-1.27711,13.02533a90.03317,90.03317,0,0,0-14.35825.1003C283.4177,229.46113,288.47656,224.00779,293.802,219.83317Z" fill="#fffbe4"/>
        <path d="M300.15039,210.50607c-3.49036-1.6172-12.41778-.68323-15.16419,2.43833l-.0992-.00626a12.33142,12.33142,0,0,0,1.09733,5.61A93.77612,93.77612,0,0,1,300.15039,210.50607Zm-34.24654,26.09455c-.155.04388-.31617.08149-.47736.1191-7.30932.14417-16.06314-1.62973-8.791-7.93555,2.16365-1.8742,4.87907-3.51647,7.35891-5.35932a42.39532,42.39532,0,0,0,9.1196.08149,42.23793,42.23793,0,0,0,.42777-5.5411.30093.30093,0,0,0-.13639-.351,11.26163,11.26163,0,0,1-4.5567,1.17842,11.18043,11.18043,0,0,0,1.76688-3.69824c15.1332-2.35058,17.05508-4.35014,21.63038-7.152a23.86561,23.86561,0,0,0,5.18905-4.10567,50.152,50.152,0,0,1,9.96275,6.895l-.29758.33221c-.0372.5328-.062,1.05933-.0868,1.58586a22.6797,22.6797,0,0,0-10.32852,3.19052c-.96093.54533-1.90327,1.14708-2.82081,1.7927a66.19075,66.19075,0,0,0-7.5635,6.356c-4.08553,3.89256-7.24112,7.02039-11.89082,9.45246h-.0062A38.92874,38.92874,0,0,1,265.90385,236.60062Z" fill="#eab492"/>
        <path d="M292.33891,234.71389a98.18406,98.18406,0,0,0-18.31979.52027,24.17867,24.17867,0,0,0,4.14753-2.27536,90.03317,90.03317,0,0,1,14.35825-.1003C292.4567,233.47906,292.39471,234.09961,292.33891,234.71389Z" fill="#381534"/>
        <path d="M292.24592,207.94237c-4.5753,2.80189-6.49718,4.80145-21.63038,7.152a10.9798,10.9798,0,0,0,.33478-2.22521,48.94206,48.94206,0,0,0,15.92675-3.68571,28.88238,28.88238,0,0,0,8.915-6.51894l.35338.34475c-.0496.069.0062.15671.22938.26954.31.1567.66956.34475,1.06013.55787A23.86561,23.86561,0,0,1,292.24592,207.94237Z" fill="#996750"/>
        <path d="M293.802,219.83317c-5.32545,4.17462-10.38431,9.628-15.63536,13.12563-1.32052.12536-2.579.28833-3.757.48265,4.6497-2.43207,7.80529-5.5599,11.89082-9.45246a66.19075,66.19075,0,0,1,7.5635-6.356C293.864,218.36641,293.83921,219.09979,293.802,219.83317Z" fill="#381534"/>
        <path d="M286.22611,402.24431c-5.73462-7.56573-9.60316-15.93379-16.14993-22.56555-5.00927-5.07725-17.89822-10.53059-17.89822-10.53059C268.12951,365.826,282.85354,390.88632,286.22611,402.24431Z" fill="#04323a"/>
        <path d="M274.44069,252.98572a9.32678,9.32678,0,0,1-1.02293-.02507c-.0372-.40117-.0744-.80233-.11159-1.19723,4.5257.01881,8.84681-1.68615,13.31052-3.76092C282.34517,250.911,278.551,252.94811,274.44069,252.98572Z" fill="#996750"/>
        <path d="M276.44316,263.72943c-2.19466-2.758-2.65963-6.86369-3.0254-10.76878a9.32678,9.32678,0,0,0,1.02293.02507c-.124,3.63556,1.30192,10.02287,5.08367,11.55231,3.12459,1.25991,10.27272-3.04635,13.93668-5.20888a57.12042,57.12042,0,0,0,5.06506-3.42244c.57036-.069,1.13453-.14417,1.69869-.23819a70.90045,70.90045,0,0,1-9.628,6.32462C285.37057,264.77622,280.4047,268.70639,276.44316,263.72943Z" fill="#996750"/>
        <path d="M273.54175,217.96524a42.23793,42.23793,0,0,1-.42777,5.5411,42.39532,42.39532,0,0,1-9.1196-.08149,21.94268,21.94268,0,0,0,4.85428-4.63221,11.26163,11.26163,0,0,0,4.5567-1.17842A.30093.30093,0,0,1,273.54175,217.96524Z" fill="#4f2f22"/>
        <path d="M268.79906,183.15788a27.11424,27.11424,0,0,0,1.5809-2.78936,6.33821,6.33821,0,0,1,2.9758,3.75466c1.10973,4.09314-2.49843,4.90174-8.05327,6.44372-2.07686.57041-4.12892,1.17215-5.9454,1.4793A28.006,28.006,0,0,0,268.79906,183.15788Z" fill="#eab492"/>
        <path d="M271.3285,236.118a29.64434,29.64434,0,0,1-5.51144.59548,1.37259,1.37259,0,0,0,.08679-.11283,38.92874,38.92874,0,0,0,8.49964-3.15917h.0062c1.17793-.19432,2.43644-.35729,3.757-.48265a24.17867,24.17867,0,0,1-4.14753,2.27536A16.07812,16.07812,0,0,1,271.3285,236.118Z" fill="#381534"/>
        <path d="M240.04536,279.65068c-2.34964,3.9051-5.05887,8.506-7.46431,13.29487a69.49133,69.49133,0,0,0-5.60443,14.4733c-6.0012-5.37812-17.96021-10.41776-23.68863-11.872a87.44706,87.44706,0,0,0-16.33593-2.60757c2.66583-11.23263,9.38618-22.05156,15.57958-32.3565,4.4079-7.34007,10.10533-13.14443,16.06934-18.767h.00619c4.77369-4.4943,9.70856-8.86951,14.29626-13.8214a68.311,68.311,0,0,0-16.55911,13.2698c-4.13512-1.07186-8.15246-2.37565-10.84928-3.109-8.45-2.29416-15.05881-6.3873-21.71717-12.49881-17.30306-15.89618-18.48718-43.35093-14.62483-65.05774a119.39587,119.39587,0,0,1,5.59823-20.94208c7.69369-3.66064,14.77982-5.19008,25.30053-5.06472,7.30312.08776,15.189.77726,21.66757,4.14956-.19219.50772-.38438,1.00918-.57036,1.51064-.73775,1.987-1.90948,4.557-2.63483,7.16456a11.93835,11.93835,0,0,0-.341,6.46879c1.43211,4.78891,6.35458,5.70407,10.48351,7.86033a16.77453,16.77453,0,0,0-6.62736,9.23308c.88034,1.72375,3.18659,2.11238,5.85241,1.97448a15.75361,15.75361,0,0,0,22.29373,12.78715,17.32007,17.32007,0,0,0,1.95907,1.09693,4.90464,4.90464,0,0,0,1.45691,7.641c-6.28639,1.71122-13.90569,1.94941-17.923,6.55655.17359.42624.155.20685,0,.62682,6.50337,8.94473,22.60991,11.21382,32.57885,11.28277.86794.00627,1.77308-.0188,2.703-.07521a10.9798,10.9798,0,0,1-.33478,2.22521,11.18043,11.18043,0,0,1-1.76688,3.69824,21.94268,21.94268,0,0,1-4.85428,4.63221c-2.47984,1.84285-5.19526,3.48512-7.35891,5.35932-7.27212,6.30582,1.4817,8.07972,8.791,7.93555.13019,0,.26038,0,.39057-.00627-2.74022,3.50393-5.55483,6.50014-4.64969,9.27068a41.292,41.292,0,0,0-.372,7.49678A100.36852,100.36852,0,0,0,244.974,271.84049c-1.26472,1.84913-2.44884,3.70452-3.55237,5.52857C240.9815,278.09617,240.52273,278.86089,240.04536,279.65068Z" fill="#9a6075"/>
        <path d="M272.8536,173.27918a31.88258,31.88258,0,0,1-2.47364,7.08934,11.26057,11.26057,0,0,0-7.21013-1.25991c-1.73588-2.15626-3.34157-4.7513-5.04026-6.638C263.07064,172.878,267.99932,173.26037,272.8536,173.27918Z" fill="#4f2f22"/>
        <path d="M265.36449,249.80774a17.69315,17.69315,0,0,0,7.94168,1.95568c.03719.3949.07439.79606.11159,1.19723-4.68069-.33222-7.32792-1.39781-8.89641-2.52609C264.80033,250.22144,265.08551,250.01459,265.36449,249.80774Z" fill="#996750"/>
        <path d="M270.38,180.36852a27.11424,27.11424,0,0,1-1.5809,2.78936c-2.12646-.21939-3.93674-1.93061-5.62923-4.04927A11.26057,11.26057,0,0,1,270.38,180.36852Z" fill="#4f2f22"/>
        <path d="M265.90385,236.60062a1.37259,1.37259,0,0,1-.08679.11283c-.13019.00627-.26038.00627-.39057.00627C265.58768,236.68211,265.74886,236.6445,265.90385,236.60062Z" fill="#381534"/>
        <path d="M264.52135,250.43456a8.49355,8.49355,0,0,1-2.49224-2.98367,10.47917,10.47917,0,0,0,3.25479,2.31924c.02479.01254.05579.02507.08059.03761C265.08551,250.01459,264.80033,250.22144,264.52135,250.43456Z" fill="#9a6075"/>
        <path d="M260.80779,181.033a3.30662,3.30662,0,1,1-2.80841,3.272A3.06886,3.06886,0,0,1,260.80779,181.033Z" fill="#36182d"/>
        <path d="M261.95471,247.36941c.0248.02507.0434.05014.0682.07522l.0062.00626a8.49355,8.49355,0,0,0,2.49224,2.98367c-1.25232.94023-2.49844,1.962-3.726,3.04635a41.292,41.292,0,0,1,.372-7.49678A4.04064,4.04064,0,0,0,261.95471,247.36941Z" fill="#9a6075"/>
        <path d="M260.79539,253.48091c.26038,5.34678,1.76688,10.58074,5.51764,14.47956a68.94492,68.94492,0,0,1-21.339,3.88A100.36852,100.36852,0,0,1,260.79539,253.48091Z" fill="#7b4d60"/>
        <path d="M253.54807,185.684c1.11593-2.72667,3.98014-5.1462,7.73709-6.18672a14.80755,14.80755,0,0,1,1.88467-.38863c1.69249,2.11866,3.50277,3.82988,5.62923,4.04927a28.006,28.006,0,0,1-9.442,8.88832c-3.0502.514-5.43705.21938-6.1314-2.34431a5.86548,5.86548,0,0,1-.13019-2.43207A7.07081,7.07081,0,0,1,253.54807,185.684Zm7.25972-4.651a3.30662,3.30662,0,1,0,2.80842,3.272A3.06885,3.06885,0,0,0,260.80779,181.033Z" fill="#fffbe4"/>
        <path d="M259.35709,192.0462c-.38438.23819-.78115.46384-1.18413.68323a20.92434,20.92434,0,0,1-4.58149,1.74883,4.90464,4.90464,0,0,1-1.45691-7.641c.31.15044.63236.29461.96094.43251a5.86548,5.86548,0,0,0,.13019,2.43207C253.92,192.26558,256.30689,192.56019,259.35709,192.0462Z" fill="#996750"/>
        <path d="M252.13456,186.83731a5.71173,5.71173,0,0,1,1.41351-1.15335,7.07081,7.07081,0,0,0-.45257,1.58586C252.76692,187.13192,252.44454,186.98775,252.13456,186.83731Z" fill="#eab492"/>
        <path d="M250.17549,185.74038a17.53992,17.53992,0,0,1-3.94294-3.42871c-2.9634-3.50393-4.35211-6.74459-3.571-10.78759,5.12706.07522,10.30372.52026,15.468.9465,1.69869,1.88673,3.30438,4.48177,5.04026,6.638a14.80755,14.80755,0,0,0-1.88467.38863c-3.757,1.04052-6.62116,3.46-7.73709,6.18672a5.71173,5.71173,0,0,0-1.41351,1.15335A17.32007,17.32007,0,0,1,250.17549,185.74038Z" fill="#eab492"/>
        <path d="M243.03356,169.69376l.1054.03134a13.39878,13.39878,0,0,0-.47737,1.799c-.56416-.00627-1.12833-.01254-1.69249-.01254A8.77264,8.77264,0,0,1,243.03356,169.69376Z" fill="#733d26"/>
        <path d="M240.9691,171.51154c-1.5313,1.86166-2.21945,4.19344-2.9944,6.5064a32.87039,32.87039,0,0,1-3.0936-6.05508,25.03626,25.03626,0,0,1,2.9882-.38863C238.90464,171.53035,239.93377,171.51154,240.9691,171.51154Z" fill="#4f2f22"/>
        <path d="M235.55686,72.37982c3.08119,4.8704.51456,9.15159-1.96527,12.83729-2.35585-2.07477-4.02354-4.19343-6.615-5.20261a25.28275,25.28275,0,0,0,2.21326-9.67185c.031-.9465.06819-2.09985.04339-3.30961A15.06531,15.06531,0,0,1,235.55686,72.37982Z" fill="#eab492"/>
        <path d="M226.22027,81.7884a13.73931,13.73931,0,0,1,6.62117,4.53192,16.32385,16.32385,0,0,1,2.393,3.9239c4.82948,11.20129-5.778,22.02648-14.879,29.56714a29.24579,29.24579,0,0,0-4.18472-1.67361c-6.86915-2.23775-16.85669-2.19388-24.79837.78979-2.3-8.65013-8.98941-15.37592-9.91934-24.45228-.558-5.44708-.54557-12.4424,1.64289-17.83306,1.60569,7.30873,7.79908,16.55434,14.25286,11.966a6.68769,6.68769,0,0,0,1.37011-1.32259,7.83622,7.83622,0,0,0,9.24979,2.53863,4.79086,4.79086,0,0,0-.17359,3.084c1.12212,4.04926,7.68749,4.53818,10.5889,3.272-7.48291,9.57782-1.69869,13.72111-1.82268,13.61455-.82455-7.50931,1.14072-8.788,8.08427-16.58568-3.50277,2.06224-12.98815,2.76428-15.63537-1.24111a29.588,29.588,0,0,1,3.34158-4.97069c3.63916-4.30626,7.66269-5.91092,11.37-5.66646A10.90745,10.90745,0,0,1,226.22027,81.7884Z" fill="#eab492"/>
        <path d="M232.84144,86.32032a13.73931,13.73931,0,0,0-6.62117-4.53192c.26658-.61428.52077-1.20349.75635-1.7739,2.59143,1.00918,4.25912,3.12784,6.615,5.20261C233.3374,85.59321,233.08942,85.963,232.84144,86.32032Z" fill="#996750"/>
        <path d="M229.23327,67.033c.0248,1.20976-.0124,2.36311-.04339,3.30961a25.28275,25.28275,0,0,1-2.21326,9.67185,8.861,8.861,0,0,0-2.548-.57041c1.5747-4.3564,2.91381-9.44619,1.5933-13.68977A24.21656,24.21656,0,0,1,229.23327,67.033Z" fill="#996750"/>
        <path d="M227.33,142.74047l.61376-.00627a80.74556,80.74556,0,0,0-1.5995-14.65507,128.38,128.38,0,0,1,7.6689-13.6835c11.17166-17.24385,23.52125-31.69834,41.67365-41.8591,15.94535-8.92593,37.47653-14.0784,55.65993-10.51806a30.26312,30.26312,0,0,1,3.27958.82741c9.67756,13.45784.61376,41.17586-6.863,53.55557-5.73462,9.47753-13.45311,18.36585-23.55844,23.37415-8.76,4.35014-19.86349,2.93352-29.758,2.96487-9.566.03134-20.13627.07521-29.89443,1.11574-7.99747.8462-17.99121.74591-26.03828,3.56034.72535-2.60758,1.89708-5.17754,2.63483-7.16456.186-.50146.37817-1.00292.57036-1.51064A23.59854,23.59854,0,0,1,227.33,142.74047Z" fill="#a1502a"/>
        <path d="M227.94376,142.7342l-.61376.00627a23.59854,23.59854,0,0,0-5.61063-3.99912c1.36391-3.55408,2.92-7.13949,4.62489-10.66222A80.74556,80.74556,0,0,1,227.94376,142.7342Z" fill="#a1502a"/>
        <path d="M232.90343,227.99437c-4.5877,4.95189-9.52257,9.3271-14.29626,13.8214H218.601c-.75635-.17551-1.50651-.35728-2.25666-.5516A68.311,68.311,0,0,1,232.90343,227.99437Z" fill="#50303a"/>
        <path d="M226.97662,80.0145c-.23558.57041-.48977,1.15962-.75635,1.7739a10.90745,10.90745,0,0,0-2.49843-.45758c.23558-.608.47737-1.23483.70675-1.88673A8.861,8.861,0,0,1,226.97662,80.0145Z" fill="#996750"/>
        <path d="M191.37237,118.92754c7.94168-2.98367,17.92922-3.02754,24.79837-.78979a29.24579,29.24579,0,0,1,4.18472,1.67361,10.38677,10.38677,0,0,1,5.747,7.24605c.08679.32594.16739.6707.24178,1.02172-1.70488,3.52273-3.261,7.10814-4.62489,10.66222-6.47857-3.3723-14.36445-4.0618-21.66757-4.14956-10.52071-.12536-17.60684,1.40408-25.30053,5.06472a79.82441,79.82441,0,0,1,5.92681-12.55523C182.90993,123.32155,186.80327,120.63249,191.37237,118.92754Z" fill="#50303a"/>
        <path d="M226.97662,307.41885a28.28207,28.28207,0,0,0-.85554,6.85115c-9.65276-9.43365-28.24534-11.35173-40.21675-14.93087a43.43463,43.43463,0,0,1,1.04773-6.39984,87.44706,87.44706,0,0,1,16.33593,2.60757C209.01641,297.00109,220.97542,302.04073,226.97662,307.41885Z" fill="#054554"/>
        <path d="M226.02189,65.75432c1.32051,4.24358-.0186,9.33337-1.5933,13.68977-.062-.00627-.13019-.00627-.19839-.01253-3.52136-.20685-7.28452,1.86792-10.13633,3.9615,2.90761-6.44371,2.13266-12.74953.45257-19.42517A40.75522,40.75522,0,0,1,226.02189,65.75432Z" fill="#eab492"/>
        <path d="M223.72184,81.33082c-3.70736-.24446-7.73089,1.3602-11.37,5.66646l-.248-.21938a11.59547,11.59547,0,0,0,1.19033-1.77391c.29138-.53906.558-1.07186.79974-1.61093,2.85181-2.09358,6.615-4.16835,10.13633-3.9615.0682.00626.13639.00626.19839.01253C224.19921,80.096,223.95742,80.72281,223.72184,81.33082Z" fill="#996750"/>
        <path d="M213.6165,83.75035c.155-.11909.31618-.23819.47737-.35729-.24178.53907-.50836,1.07187-.79974,1.61093a11.59547,11.59547,0,0,1-1.19033,1.77391,10.09038,10.09038,0,0,1-4.13512,3.04635,8.99814,8.99814,0,0,1,1.97147-2.93979A30.50449,30.50449,0,0,1,213.6165,83.75035Z" fill="#996750"/>
        <path d="M211.21106,84.44612c3.55857-6.33716,2.85181-13.80886.53317-20.47823.94234-.02508,1.87227-.02508,2.80221,0,1.68009,6.67564,2.455,12.98146-.45257,19.42517-.16119.1191-.32238.2382-.47737.35729a30.50449,30.50449,0,0,0-3.67635,3.13411l-.279-.25073A11.31772,11.31772,0,0,0,211.21106,84.44612Z" fill="#996750"/>
        <path d="M211.74423,63.96789c2.31864,6.66937,3.0254,14.14107-.53317,20.47823a11.31772,11.31772,0,0,1-1.54989,2.18761c-3.106,3.38483-6.68936,1.7739-9.68377-1.48557,2.44884-5.49095,1.84748-14.65507-.527-19.58815A60.162,60.162,0,0,1,211.74423,63.96789Z" fill="#eab492"/>
        <path d="M209.01021,91.968c2.64722,4.00539,12.1326,3.30335,15.63537,1.24111-6.94355,7.79765-8.90882,9.07637-8.08427,16.58568.124.10656-5.66023-4.03673,1.82268-13.61455-2.90141,1.26618-9.46678.77726-10.5889-3.272a4.79086,4.79086,0,0,1,.17359-3.084,10.09038,10.09038,0,0,0,4.13512-3.04635l.248.21938A29.588,29.588,0,0,0,209.01021,91.968Z" fill="#996750"/>
        <path d="M199.9774,85.14816c2.99441,3.25947,6.57777,4.8704,9.68377,1.48557l.279.25073a8.99814,8.99814,0,0,0-1.97147,2.93979,7.83622,7.83622,0,0,1-9.24979-2.53863A9.96011,9.96011,0,0,0,199.9774,85.14816Z" fill="#996750"/>
        <path d="M198.5267,65.79193c1.12213,5.77929,3.0192,14.01572-.67576,18.96134a8.72231,8.72231,0,0,1-1.5251,1.58585c-7.66889,6.19926-10.5021-6.95771-11.04767-13.52679a11.69758,11.69758,0,0,1,1.5995-1.68615C189.4567,68.90723,193.64142,67.05811,198.5267,65.79193Z" fill="#eab492"/>
        <path d="M198.87388,83.84438c.35957.45757.72535.89635,1.10352,1.30378a9.96011,9.96011,0,0,1-1.25851,2.13746,10.3294,10.3294,0,0,1-1.08493-1.64854,4.76693,4.76693,0,0,1,.45257-.7083A11.31741,11.31741,0,0,0,198.87388,83.84438Z" fill="#996750"/>
        <path d="M197.85094,84.75327c3.695-4.94562,1.79789-13.18205.67576-18.96134.30378-.08148.61376-.1567.92374-.23192,2.37444,4.93308,2.9758,14.0972.527,19.58815-.37817-.40743-.74395-.84621-1.10352-1.30378a11.31741,11.31741,0,0,1-.78735,1.0844Z" fill="#996750"/>
        <path d="M191.03139,352.17386c4.11653,5.30917,4.00494,16.103,3.45318,24.85345a32.32836,32.32836,0,0,0-4.24672-.04388A91.03244,91.03244,0,0,0,191.03139,352.17386Z" fill="#04323a"/>
        <path d="M185.27817,72.81233c.54557,6.56908,3.37878,19.72605,11.04767,13.52679a8.72231,8.72231,0,0,0,1.5251-1.58585l.23559.17551a4.76693,4.76693,0,0,0-.45257.7083,10.3294,10.3294,0,0,0,1.08493,1.64854,6.68769,6.68769,0,0,1-1.37011,1.32259c-6.45378,4.58833-12.64717-4.65728-14.25286-11.966A15.42315,15.42315,0,0,1,185.27817,72.81233Z" fill="#996750"/>
        <path d="M175.25344,407.25888c-.27279-.514-.55177-1.00918-.837-1.49184a66.41216,66.41216,0,0,1,5.64163,7.69737c-3.447,7.23978-9.83255,6.71325-13.16793,5.8357A53.7228,53.7228,0,0,0,175.25344,407.25888Z" fill="#04323a"/>
        <path d="M174.41649,405.767c.28518.48266.56416.97785.837,1.49184a53.7228,53.7228,0,0,1-8.36325,12.04123,14.02317,14.02317,0,0,1-2.15126-.73965l-.0062-.00627A37.76332,37.76332,0,0,0,157.814,406.607a40.969,40.969,0,0,0-4.21573-4.2373c-8.62983-7.572-19.88208-11.86572-29.96882-18.77329-6.84435-4.68235-13.02534-10.01033-17.97881-16.943-3.98634-5.57244-9.26219-16.6797-16.34212-20.68509,13.73209-2.03717,25.6601,16.82388,35.73444,26.82167a34.57249,34.57249,0,0,0,4.33351,3.75466C144.832,387.48268,164.07557,388.25367,174.41649,405.767Z" fill="#4a2d32"/>
        <path d="M166.89019,419.30011q-.69745.771-1.41351,1.52317c-.22938-.78979-.48357-1.55451-.73775-2.26282A14.02317,14.02317,0,0,0,166.89019,419.30011Z" fill="#4a2d32"/>
        <path d="M157.814,406.607a37.76332,37.76332,0,0,1,6.91874,11.94721l.0062.00627c.25418.70831.50837,1.473.73775,2.26282a67.3007,67.3007,0,0,1-7.71849,6.98279c-8.20206,6.28074-13.98008,7.18336-22.93849,4.66354A71.35778,71.35778,0,0,1,120.852,426.9724c7.6379-1.42916,14.84183-2.57624,22.16354-7.0204A56.19313,56.19313,0,0,0,157.814,406.607Z" fill="#372225"/>
        <path d="M157.814,406.607a56.19313,56.19313,0,0,1-14.79843,13.345c-7.32171,4.44416-14.52564,5.59124-22.16354,7.0204a61.69533,61.69533,0,0,1-5.50523-3.2344c8.00987-1.00918,15.01541-1.0844,22.7215-6.45,6.29258-4.37521,10.73149-9.628,15.53-14.91833A40.969,40.969,0,0,1,157.814,406.607Z" fill="#201215"/>
        <path d="M153.59826,402.36968c-4.79848,5.29036-9.23739,10.54312-15.53,14.91833-7.70609,5.36559-14.71163,5.44081-22.7215,6.45-9.23739-6.02375-16.7513-14.25391-23.32286-24.59645-5.82762-9.17666-20.936-47.80763-4.80469-52.7031a14.08,14.08,0,0,1,2.08927-.47012c7.07993,4.00539,12.35578,15.11265,16.34212,20.68509,4.95347,6.93264,11.13446,12.26062,17.97881,16.943C133.71618,390.504,144.96843,394.79768,153.59826,402.36968Z" fill="#372225"/>
      </g>
      <g>
        <path d="M452.88739,384.27393c1.7941-1.60035,4.15869-2.42334,6.05716.18359,1.61548,2.21851.248,4.12305-.89291,5.13232a21.06225,21.06225,0,0,1-1.6464-1.33374c.74338-.66821,1.45279-1.616.57028-2.71777-.66345-.82812-2.13546-.332-2.728.48706A17.95477,17.95477,0,0,1,452.88739,384.27393Z" fill="#381534"/>
        <path d="M471.59531,373.50562c-.31546.10131-.47272.15356-.78623.26-.29883.10571-.44775.15966-.74463.27-.01443-.00561-.01443-.00561-.01776-.01513C470.66241,373.80493,470.9722,373.7019,471.59531,373.50562Z" fill="#381534"/>
        <path d="M472.51245,379.81689a30.16929,30.16929,0,0,0-1.68991-4.62182,5.90487,5.90487,0,0,1,1.10162-.41309.73952.73952,0,0,1,.14277-.0459,3.13777,3.13777,0,0,1,1.01577-.10351,23.90246,23.90246,0,0,0,2.10523,5.54883c-.96213.27563-1.4386.427-2.38068.75561C472.80725,380.937,472.58655,380.06738,472.51245,379.81689Z" fill="#381534"/>
        <path d="M455.48434,390.41455c-.27676-.31714-3.13739-3.59741-4.69274-4.16162.81774-.81616,1.23727-1.21216,2.09579-1.979a17.95477,17.95477,0,0,0,1.36011,1.75146,23.49778,23.49778,0,0,0,2.15774,2.23071,21.06225,21.06225,0,0,0,1.6464,1.33374c-.7515.6648-1.11863,1.0083-1.834,1.71656C456.21768,391.3064,455.65741,390.60889,455.48434,390.41455Z" fill="#381534"/>
        <path d="M464.90671,378.63208c-.44187.22583-.47885,1.03125-.08844,1.77783s1.04687,1.17945,1.46164.96729.4591-1.00318.09576-1.76367C466.0123,378.85327,465.34854,378.406,464.90671,378.63208Zm-2.4043,3.1001a3.597,3.597,0,0,1,1.43054-5.04737,3.52673,3.52673,0,0,1,4.87332,1.824,3.75468,3.75468,0,0,1-1.552,4.81494A3.66921,3.66921,0,0,1,462.50241,381.73218Z" fill="#381534"/>
        <path d="M475.14655,372.51245c.24917.75855.37262,1.13794.61712,1.89771a6.52049,6.52049,0,0,0-2.72049.04541c-.197-.80078-.271-1.31324-.271-1.31324C473.71436,372.86816,474.18945,372.74194,475.14655,372.51245Z" fill="#381534"/>
        <path d="M468.14429,374.76465c.76153-.30689,1.14572-.45264,1.92016-.729a5.28586,5.28586,0,0,1,.75809,1.15943,6.19145,6.19145,0,0,0-2.08682,1.47461C468.49692,375.90845,468.37863,375.52734,468.14429,374.76465Z" fill="#381534"/>
        <path d="M472.39761,373.25464c.14963-.04541.22455-.06787.37458-.11231,0,0,.074.51246.271,1.31324a6.10062,6.10062,0,0,0-.97625.28051.73952.73952,0,0,0-.14277.0459,5.90487,5.90487,0,0,0-1.10162.41309,5.28586,5.28586,0,0,0-.75809-1.15943c.29688-.11035.4458-.1643.74463-.27.31351-.10645.47077-.1587.78623-.26C471.91525,373.40259,472.07574,373.3523,472.39761,373.25464Z" fill="#381534"/>
        <path d="M473.04318,374.45557a.95145.95145,0,0,0,.03952.177,3.13777,3.13777,0,0,0-1.01577.10351A6.10062,6.10062,0,0,1,473.04318,374.45557Z" fill="#381534"/>
        <path d="M452.99188,393.07617c-.30072-.2937-3.40185-3.34375-5.00754-3.7688.75553-.884,1.14469-1.31469,1.944-2.15136a25.72349,25.72349,0,0,0,5.56595,4.88354c-.7.72583-1.04062,1.09937-1.7016,1.86719C453.79266,393.90674,453.17966,393.2561,452.99188,393.07617Z" fill="#381534"/>
        <path d="M459.63141,379.14014a25.65292,25.65292,0,0,0,4.23935,6.09424c-.84506.53051-1.26041.80786-2.07508,1.38549,0,0-.4411-.78-.58065-1.00024-.22223-.35816-2.51773-4.06494-3.9574-4.88013C458.18985,380.07324,458.665,379.75317,459.63141,379.14014Z" fill="#381534"/>
      </g>
      <g>
        <path d="M436.8497,362.28613a2.13021,2.13021,0,0,0,3.02045-.85986c.7384.20825,1.10373.31909,1.82608.55395-1.957,2.24659-3.8302,4.23-6.28565,3.06348-2.36956-1.12573-2.89465-5.75464,1.33673-7.98535.28324.68164.42826,1.02026.72492,1.69312C435.97415,360.12451,436.06366,361.66919,436.8497,362.28613Z" fill="#381534"/>
        <path d="M454.19226,346.58838c.45728-.156.687-.2312,1.14844-.37647.181-.05688.2716-.085.45315-.14038.14981-.04541.22483-.06811.375-.11255,0,0,.07459.51246.26947,1.30347a9.3431,9.3431,0,0,0-.9664.27808q-.08253.02637-.16491.05322a6.78853,6.78853,0,0,0-1.10263.4148,4.30323,4.30323,0,0,0-.76081-1.15821C453.74213,346.74316,453.89188,346.69092,454.19226,346.58838Z" fill="#381534"/>
        <path d="M442.7793,355.82935a19.8511,19.8511,0,0,0-2.01526-2.29053c.0058.00806,1.54239-1.08936,2.05627-1.42432a19.79045,19.79045,0,0,0,1.78681,3.13159,10.5828,10.5828,0,0,0,2.95684,2.64209c-.89172.55518-1.32955.8462-2.187,1.45411,0,0-.70923-1.00782-1.59378-2.186C443.45679,356.72437,443.11264,356.26855,442.7793,355.82935Z" fill="#381534"/>
        <path d="M455.472,347.54053a3.14163,3.14163,0,0,1,1.00608-.10108,23.54621,23.54621,0,0,0,2.108,5.54908c-.96192.27612-1.4382.428-2.37973.75781,0,0-.22138-.86963-.29251-1.11084a29.21753,29.21753,0,0,0-1.70938-4.62695,6.78853,6.78853,0,0,1,1.10263-.4148Q455.38944,347.567,455.472,347.54053Z" fill="#381534"/>
        <path d="M441.86536,360.60986c-.25037-.33886-2.83576-3.85962-4.33261-4.5437.87515-.74121,1.32266-1.09936,2.23535-1.78857a20.23055,20.23055,0,0,0,1.68515,2.469c.312.417.67181.8606,1.0737,1.30982a20.58635,20.58635,0,0,0,1.95108,1.94067c-.79688.596-1.18775.906-1.95191,1.5481C442.52612,361.54517,442.01593,360.81006,441.86536,360.60986Z" fill="#381534"/>
        <path d="M448.51288,351.93311c.17334-.07813.89426-.46119,1.09241-.51246a3.79985,3.79985,0,0,1-.71943-.79931c-.2239.09228-.3356.13916-.5585.23437C448.399,351.2876,448.43613,351.50293,448.51288,351.93311Zm1.01919-3.50562s3.18753,5.32813,4.535,6.13184c-.91126.36963-1.36145.56714-2.24936.98681,0,0-1.15067-1.61767-1.742-2.70263-.28409.13891-.42554.20971-.70719.35351a16.56233,16.56233,0,0,0,1.053,3.05835c-.88437.46216-1.32.70581-2.17657,1.21753a44.0834,44.0834,0,0,0-2.29917-7.22754C447.3501,349.46265,448.06812,349.09814,449.53207,348.42749Z" fill="#381534"/>
        <path d="M455.3407,346.21191c-.46143.14527-.69116.22046-1.14844.37647-.30038.10254-.45013.15478-.74866.262l-.00332-.00952C454.19476,346.57446,454.575,346.44873,455.3407,346.21191Z" fill="#381534"/>
        <path d="M458.5441,345.31787c.24988.7583.37356,1.1377.61835,1.89746a6.58522,6.58522,0,0,0-2.7241.04712c-.19488-.791-.26947-1.30347-.26947-1.30347C457.11111,345.67993,457.58636,345.55176,458.5441,345.31787Z" fill="#381534"/>
        <path d="M443.78314,357.15625c-.27972.199-.94015.65918-1.25619.90015-.40189-.44922-.76169-.89283-1.0737-1.30982.52478-.376.79-.55957,1.326-.91723C443.11264,356.26855,443.45679,356.72437,443.78314,357.15625Z" fill="#381534"/>
        <path d="M456.478,347.43945a3.14163,3.14163,0,0,0-1.00608.10108,9.3431,9.3431,0,0,1,.9664-.27808A.951.951,0,0,0,456.478,347.43945Z" fill="#381534"/>
        <path d="M454.20441,348.00855a6.37262,6.37262,0,0,0-2.07682,1.47509c-.2402-.761-.35925-1.14184-.59521-1.90454.758-.30664,1.14038-.45239,1.91122-.72876A4.30323,4.30323,0,0,1,454.20441,348.00855Z" fill="#381534"/>
      </g>
      <g>
        <g>
          <path d="M453.14091,370.06669l-.0026.01085c-1.10928-.76242-2.26787-1.94741-3.90436-1.682-2.21671.36452-1.37918,3.578-1.10171,4.99224,1.7288,1.09205,3.6584,1.27445,4.46188.13627.52663-.7409.45052-2.5336.54419-3.4465l.00537.00131A.01459.01459,0,0,1,453.14091,370.06669Zm12.02588-2.82915c-.28322,2.98505-3.27213,6.37281-5.18473,7.86243-2.39366,1.87422-7.79137,4.081-11.15131,2.983a4.36394,4.36394,0,0,1-.72036-.29977,4.25468,4.25468,0,0,1-1.74654-1.95472,11.3678,11.3678,0,0,1-.37137-7.80437,11.60379,11.60379,0,0,1-3.24814-3.91263c1.69047.06645,4.35263.84154,5.65542.25044l4.61393-2.84645c1.11708-.90639,1.6484-3.647,2.35985-5.19524a10.78785,10.78785,0,0,1,1.83953,4.22234c.1546.63494.29808,1.30447.46668,2.02322l-.31287.59515a1.66381,1.66381,0,0,0-.61133.69146c-.7547,1.49173-.0022,2.97347.37616,4.27463-.00536-.00131-.00536-.00131-.00869.00074a.01445.01445,0,0,1,.00943.008c-.002-.00336-.002-.00336-.00074-.00879.88157.1957,2.54669.8186,3.41008.5448a2.32609,2.32609,0,0,0,1.40815-2.09824l1.11995-.24257c.43325-.51688.92262-1.13772,1.44734-1.77575a4.25044,4.25044,0,0,1,.56577,1.30111A4.10351,4.10351,0,0,1,465.16679,367.23754Zm-7.8999,6.704c2.73657,1.51959,1.95607-2.03875,1.14909-3.64865.11248,1.09542.70078,4.63829-1.77714,2.52463.45668,2.02939-1.34959,1.96043-2.91675.37114C455.53933,376.1999,456.79491,375.65179,457.26689,373.94158Zm-.39113-3.48886c-.14838-.24588-.768-.13633-1.37766.23977-.613.37816-.98608.881-.84306,1.12562.14636.24252.76266.135,1.381-.24183C456.64567,371.20018,457.01675,370.69392,456.87576,370.45272Z" fill="#926a69"/>
          <path d="M464.51723,364.55522c-.52472.638-1.01409,1.25887-1.44734,1.77575l-1.11995.24257a6.23589,6.23589,0,0,0-.157-2.23737c-1.04577-.589-3.16677-1.95214-4.426-1.17528l.31287-.59515c-.1686-.71875-.31208-1.38828-.46668-2.02322A9.8393,9.8393,0,0,1,464.51723,364.55522Z" fill="#926a69"/>
          <path d="M461.79291,364.33617a6.23589,6.23589,0,0,1,.157,2.23737,2.32609,2.32609,0,0,1-1.40815,2.09824c-.86339.2738-2.52851-.3491-3.41008-.5448-.37836-1.30116-1.13086-2.7829-.37616-4.27463a1.66381,1.66381,0,0,1,.61133-.69146C458.62614,362.384,460.74714,363.74719,461.79291,364.33617Zm-1.41617,2.191a.99225.99225,0,0,0,.16058-1.37018.97491.97491,0,0,0-1.27856-.48235,1.00052,1.00052,0,0,0-.16058,1.37019A.97216.97216,0,0,0,460.37674,366.52718Z" fill="#dbc68f"/>
          <path d="M460.53732,365.157a.99225.99225,0,0,1-.16058,1.37018.97216.97216,0,0,1-1.27856-.48234,1.00052,1.00052,0,0,1,.16058-1.37019A.97491.97491,0,0,1,460.53732,365.157Z" fill="#381534"/>
          <path d="M457.13171,368.127c-.0013.00543-.0013.00543.00074.00879a.01445.01445,0,0,0-.00943-.008C457.12635,368.12567,457.12635,368.12567,457.13171,368.127Z" fill="#926a69"/>
          <path d="M455.4981,370.69249c.60964-.3761,1.22928-.48565,1.37766-.23977.141.2412-.23009.74746-.83972,1.12356-.61834.37685-1.23464.48435-1.381.24183C454.512,371.57354,454.88513,371.07065,455.4981,370.69249Z" fill="#f5dae9"/>
          <path d="M456.63884,372.81756c2.47792,2.11366,1.88962-1.42921,1.77714-2.52463.807,1.6099,1.58748,5.16824-1.14909,3.64865-.472,1.71021-1.72756,2.25832-3.5448-.75288C455.28925,374.778,457.09552,374.847,456.63884,372.81756Z" fill="#381534"/>
          <path d="M453.14091,370.06669a.01459.01459,0,0,0,.00277.01216l-.00537-.00131Z" fill="#926a69"/>
          <path d="M448.8216,371.11358a.9801.9801,0,0,1,1.2819.48029.998.998,0,0,1-.16725,1.3743.97792.97792,0,0,1-1.27856-.48234A1.0007,1.0007,0,0,1,448.8216,371.11358Z" fill="#381534"/>
          <path d="M448.13224,373.38777c-.27747-1.41426-1.115-4.62772,1.10171-4.99224,1.63649-.2654,2.79508.91959,3.90436,1.682-.09367.9129-.01756,2.7056-.54419,3.4465C451.79064,374.66222,449.861,374.47982,448.13224,373.38777Zm.68936-2.27419a1.0007,1.0007,0,0,0-.16391,1.37225.97792.97792,0,0,0,1.27856.48234.998.998,0,0,0,.16725-1.3743A.9801.9801,0,0,0,448.8216,371.11358Z" fill="#dbc68f"/>
        </g>
        <g>
          <path d="M441.62563,377.24931a13.08015,13.08015,0,0,1,4.73822-1.42088,21.52206,21.52206,0,0,0,2.34166-.4832" fill="none" stroke="#381534" stroke-linecap="round" stroke-linejoin="round" stroke-width="0.62948"/>
          <path d="M449.86009,377.25839a8.806,8.806,0,0,0-1.02934.82453,42.22916,42.22916,0,0,0-4.15178,4.98339" fill="none" stroke="#381534" stroke-linecap="round" stroke-linejoin="round" stroke-width="0.62948"/>
          <path d="M463.06989,366.331c.43325-.51688.92262-1.13772,1.44734-1.77575a16.00724,16.00724,0,0,1,3.48991-3.42875" fill="none" stroke="#381534" stroke-linecap="round" stroke-linejoin="round" stroke-width="0.62948"/>
          <path d="M463.26289,367.90827a8.93247,8.93247,0,0,1,1.9039-.67073c1.70893-.42566,3.66614-.58385,5.08694-.87335" fill="none" stroke="#381534" stroke-linecap="round" stroke-linejoin="round" stroke-width="0.62948"/>
        </g>
      </g>
    </g>
  </g>
</svg>
