<svg xmlns="http://www.w3.org/2000/svg" width="600" height="600" viewBox="0 0 600 600">
  <title>character-bertha-full</title>
  <g id="Background">
    <path d="M598.3764,349.58319c-5.49316-44.27188-42.85376-78.18949-44.6571-122.56208-.62091-15.278,39.98938-102.05523-7.94727-145.64992C523.60657,61.21337,506.95007,82.47968,480,90,460,50,340-35.441,220,14.99084,143.76465,47.02989,96.39984,7.95157,60,65.42264,10.78522,143.127,40.30469,323.2471,40.30469,323.2471S-62.41418,505.266,65.45563,562.09462c76.51916,34.00724,124.50482,7.648,124.54437,7.646C350.78144,600,427.11542,611.20628,492.49139,585.31886c46.49884-18.41229,94.89685-72.72448,67.46882-117.85429C585.79248,432.46224,603.46173,390.5706,598.3764,349.58319Z" fill="#99b5cd"/>
    <g>
      <g>
        <path d="M225.98069,164.61787s-31.43432-2.37242-66.94291,16.81538c-24.55784,13.27033-53.71812,41.8838-66.45261,74.30551-25.442,64.77476.46113,117.4123,15.75672,134.4107,31.34826,34.83817,83.01781,13.21435,75.96162-15.9209,0,0-5.43177,10.31468-18.66477,8.47762-18.43716-2.55953-32.09431-56.05-24.81049-91.55862S172.46731,239.478,172.46731,239.478l56.42986-58.04476Z" fill="#805124"/>
        <ellipse cx="189.98276" cy="182.88395" rx="11.77822" ry="6.70715" transform="translate(-63.19514 109.12121) rotate(-27.66596)" fill="#fff8dc"/>
        <ellipse cx="154.03281" cy="202.25868" rx="11.77822" ry="6.54722" transform="translate(-97.90332 168.15784) rotate(-45)" fill="#fff8dc"/>
        <ellipse cx="123.92062" cy="232.33597" rx="11.77822" ry="6.52219" transform="matrix(0.57827, -0.81585, 0.81585, 0.57827, -137.28923, 199.08329)" fill="#fff8dc"/>
        <ellipse cx="156.55193" cy="226.21017" rx="11.72803" ry="6.36253" transform="translate(-107.70585 149.74204) rotate(-39.17545)" fill="#fff8dc"/>
        <ellipse cx="129.06096" cy="265.51746" rx="11.77822" ry="6.52219" transform="translate(-159.15939 329.43367) rotate(-76.5805)" fill="#fff8dc"/>
        <ellipse cx="102.00221" cy="273.76907" rx="11.77822" ry="6.4396" transform="translate(-187.9647 309.45029) rotate(-76.5805)" fill="#fff8dc"/>
        <ellipse cx="99.17816" cy="315.47381" rx="6.4396" ry="11.1574" transform="translate(-43.29845 17.04384) rotate(-8.06875)" fill="#fff8dc"/>
        <ellipse cx="122.46576" cy="321.97598" rx="6.4396" ry="11.84408" transform="translate(-13.16493 5.32047) rotate(-2.36189)" fill="#fff8dc"/>
        <ellipse cx="113.35288" cy="360.65648" rx="6.39079" ry="11.47493" transform="translate(-154.49888 93.86554) rotate(-27.66596)" fill="#fff8dc"/>
      </g>
      <g>
        <path d="M374.01931,164.61787s31.43432-2.37242,66.94291,16.81538c24.55784,13.27033,53.71812,41.8838,66.45261,74.30551,25.442,64.77476-.46113,117.4123-15.75672,134.4107-31.34826,34.83817-83.01781,13.21435-75.96162-15.9209,0,0,5.43177,10.31468,18.66477,8.47762,18.43716-2.55953,32.09431-56.05,24.81049-91.55862S427.53269,239.478,427.53269,239.478L374.577,179.43629Z" fill="#805124"/>
        <ellipse cx="410.01724" cy="182.88395" rx="6.70715" ry="11.77822" transform="translate(57.66494 461.10783) rotate(-62.33404)" fill="#fff8dc"/>
        <ellipse cx="445.96719" cy="202.25868" rx="6.54722" ry="11.77822" transform="translate(-12.39772 374.58662) rotate(-45)" fill="#fff8dc"/>
        <ellipse cx="476.07938" cy="232.33597" rx="6.52219" ry="11.77822" transform="translate(-46.6808 318.08781) rotate(-35.32892)" fill="#fff8dc"/>
        <ellipse cx="440.37833" cy="226.90151" rx="6.36253" ry="11.72803" transform="translate(-13.70495 424.95641) rotate(-50.82455)" fill="#fff8dc"/>
        <ellipse cx="470.93904" cy="265.51746" rx="6.52219" ry="11.77822" transform="translate(-48.76293 116.54444) rotate(-13.4195)" fill="#fff8dc"/>
        <ellipse cx="497.99779" cy="273.76907" rx="6.4396" ry="11.77822" transform="translate(-49.93917 123.0495) rotate(-13.4195)" fill="#fff8dc"/>
        <ellipse cx="500.82184" cy="315.47381" rx="11.1574" ry="6.4396" transform="matrix(0.14036, -0.9901, 0.9901, 0.14036, 118.17517, 767.05742)" fill="#fff8dc"/>
        <ellipse cx="477.53424" cy="321.97598" rx="11.84408" ry="6.4396" transform="translate(136.15211 785.83557) rotate(-87.63811)" fill="#fff8dc"/>
        <ellipse cx="486.64712" cy="360.65648" rx="11.47493" ry="6.39079" transform="translate(-58.73339 624.2065) rotate(-62.33404)" fill="#fff8dc"/>
      </g>
      <g>
        <path d="M349.50472,532.25344l-6.00013-72.80157H369.6278l9.07756,54.00117c24.01474-6.47,43.14674-3.90411,52.80114,16.20035-6.60015-6.20014-15.60034-5.00011-20.20044,2.60005-15.59079-4.17888-20.40044,5.00011-22.20047,15.60034C375.09029,545.389,361.98146,539.882,349.50472,532.25344Z" fill="#bc965d"/>
        <path d="M431.5065,529.65339c4.8709,4.22672,7.65371,13.17453,8.31587,25.96827l-18.243-13.40243-10.27326-9.96579C414.80332,524.97314,423.13761,522.39129,431.5065,529.65339Z" fill="#2e332a"/>
        <path d="M389.10559,547.85378c18.192,1.72161,27.46991-3.4907,38.52,12.14622.62546-9.06941-3.88463-22.753-16.31953-27.74656C398.44441,528.30544,390.82671,534.147,389.10559,547.85378Z" fill="#171914"/>
      </g>
      <g>
        <path d="M252.44006,532.25344l6.00013-72.80157H232.317L223.23943,513.453c-24.01474-6.47-43.14674-3.90411-52.80114,16.20035,6.60014-6.20014,15.60034-5.00011,20.20044,2.60005,15.59078-4.17888,20.40044,5.00011,22.20047,15.60034C226.8545,545.389,239.96333,539.882,252.44006,532.25344Z" fill="#bc965d"/>
        <path d="M170.43829,529.65339c-4.8709,4.22672-7.65371,13.17453-8.31588,25.96827l18.24305-13.40243,10.27327-9.96579C187.14147,524.97314,178.80717,522.39129,170.43829,529.65339Z" fill="#2e3329"/>
        <path d="M212.8392,547.85378c-18.192,1.72161-27.46992-3.4907-38.52,12.14622-.62547-9.06941,3.88462-22.753,16.31953-27.74656C203.50037,528.30544,211.11807,534.147,212.8392,547.85378Z" fill="#181914"/>
      </g>
      <path d="M228.18706,179.43629H374.577s44.019,16.94527,62.83391,68.45491c8.27734,22.661,18.774,60.41269-29.3019,120.2919-32.60586,40.611-40.44729,82.97058-34.27847,110.11337-4.3512-2.80993-9.86955-9.07292-14.1854-16.75629l-1.812,11.82124a34.06952,34.06952,0,0,1-7.711-8.01946,83.06316,83.06316,0,0,1-6.32844,19.386s-6.63178-49.63213-41.69147-50.47019c-41.57038-.99369-44.75428,50.59517-44.75428,50.59517-3.22093-3.49411-7.06184-10.29534-7.99164-19.514l-8.00022,8.98-2.36831-11.12678c-2.06812,6.4042-7.767,11.24778-12.94522,14.543,0,0,15.13126-36.327-30.44926-102.76638-36.396-53.05182-47.19144-77.72708-33.02777-129.2452C175.71333,197.90048,228.18706,179.43629,228.18706,179.43629Z" fill="#fff8dc"/>
      <path d="M220.50194,195.84618c12.375-8.96378,41.83488,15.528,27.20058,24.00051C236.30228,226.44684,210.70172,202.9449,220.50194,195.84618Z" fill="#9b6631"/>
      <path d="M294.10376,230.5034c-3.68063,7.40016-34.24379.2-37.0574-12.60027-2.30481-10.48554,20.04392-13.90173,35.0143-.8C296.17539,220.70422,296.49617,225.69332,294.10376,230.5034Z" fill="#9b6631"/>
      <path d="M211.30174,235.247c-10.17323,2.17028-18.31266-22.74441-10.60023-29.20063C208.58586,199.44625,226.30206,232.047,211.30174,235.247Z" fill="#9b6631"/>
      <path d="M223.302,229.4469c9.00019-9.17328,38.57448,10.6827,31.3717,19.60042-3.89127,4.81777-12.3702,3.13615-19.67471-1.47825C226.53508,242.22226,219.648,233.1712,223.302,229.4469Z" fill="#9b6631"/>
      <path d="M262.30284,244.04722c-.53039-8.35362,10.59967-8.52892,20.80045-4.535,7.48062,2.92887,14.63464,7.63811,13.2766,15.53526C293.90352,269.44777,263.10286,256.64749,262.30284,244.04722Z" fill="#9b6631"/>
      <path d="M214.70181,250.64736c7.59744-7.40016,26.00249,11.38916,16.7638,17.00037C219.28147,275.04789,207.98632,257.18846,214.70181,250.64736Z" fill="#9b6631"/>
      <path d="M251.68848,269.41218c2.98522-7.99693,37.41494-4.96452,33.41485,6.03571s-13.23275,9.36938-17.40037,8.60019C262.28459,283.04806,248.42119,278.16469,251.68848,269.41218Z" fill="#9b6631"/>
      <path d="M333.90439,205.1667c-8.60019-3.12039-38.18581,12.05462-25.9541,22.41784C322.02849,239.51219,356.64369,213.41717,333.90439,205.1667Z" fill="#9b6631"/>
      <path d="M336.51784,238.04012c8.00017,8.97914-11.98583,29.562-24.46022,18.72494C297.717,244.30674,326.39312,226.67644,336.51784,238.04012Z" fill="#9b6631"/>
      <path d="M346.10465,262.24769c-6.51191-5.40514-30.43766,3.00006-25.40055,16.80036C326.69227,295.454,356.90488,271.2123,346.10465,262.24769Z" fill="#9b6631"/>
      <path d="M371.90521,222.64675c-3.06234-4.6502-11.29281-1.423-17.32221,4.22987-4.60284,4.3154-7.994,9.73648-6.40279,15.97057C351.415,255.52038,381.56335,237.31282,371.90521,222.64675Z" fill="#9b6631"/>
      <path d="M351.1036,214.64658c4.00124,8.80019,37.11568-8.12916,30.40181-20.74287C373.80488,179.43629,343.807,198.59874,351.1036,214.64658Z" fill="#9b6631"/>
      <path d="M384.30547,247.11247c-3.40007-9.06538-26.31915,5.91075-19.20041,15.13514C370.63417,269.41218,388.57231,258.48884,384.30547,247.11247Z" fill="#9b6631"/>
      <path d="M382.40083,228.44688c5.70473,6.93366,29.89845-11.8289,21.90508-20.99365C394.7057,196.44619,373.76356,217.949,382.40083,228.44688Z" fill="#9b6631"/>
      <path d="M236.94231,84.45958c9.79188-8.25982,33.42649-12.15208,58.21574-12.84338,26.94954-.75156,54.59192,1.75783,64.43341,9.19437,18.8941,14.277,40.58732,67.08507,22.19742,91.19915-13.39963,17.5705-46.97851,29.77288-81.64165,30.86805-26.96023.8518-52.57764-6.35153-73.86409-23.99066C194.131,152.24408,210.72041,106.57873,236.94231,84.45958Z" fill="#9b6631"/>
      <ellipse cx="256.38655" cy="87.11536" rx="5.83042" ry="7.8488" transform="translate(-11.58127 126.05631) rotate(-27.03512)" fill="#fff8dc"/>
      <ellipse cx="273.12082" cy="90.95685" rx="5.83042" ry="8.06946" transform="translate(-14.54853 101.65634) rotate(-20.54926)" fill="#fff8dc"/>
      <ellipse cx="314.03948" cy="81.49429" rx="7.95416" ry="5.42987" transform="translate(133.87827 351.31656) rotate(-70.81639)" fill="#fff8dc"/>
      <ellipse cx="299.68171" cy="90.15361" rx="7.72643" ry="5.62647" transform="translate(153.46193 366.84219) rotate(-78.88811)" fill="#fff8dc"/>
      <ellipse cx="286.0636" cy="83.08377" rx="5.44474" ry="7.87714" transform="translate(-3.43707 12.90787) rotate(-2.56945)" fill="#fff8dc"/>
      <path d="M299.76567,150.93017c-38.72719,0-66.85885,8.48384-68.30006,31.97585,20.20582,14.71159,43.87378,20.75555,68.68161,19.97174,26.40053-.83411,52.16991-8.11223,68.87621-19.297v0C365.19774,155.99008,338.90526,150.93017,299.76567,150.93017Z" fill="#fff8dc"/>
      <path d="M300.14722,202.87776c26.40053-.83411,52.16991-8.11223,68.87621-19.297v0c-.09712-.68467-.29849-1.98631-.41745-2.487-39.33,21.36475-103.876,23.86723-136.97254,0-.05533.49022-.13692,1.30832-.16783,1.81229C251.67143,197.61761,275.33939,203.66157,300.14722,202.87776Z" fill="#e3e0ce"/>
      <g id="Layer_5" data-name="Layer 5">
        <ellipse cx="343.22215" cy="134.40683" rx="35.05698" ry="34.64275" fill="#20211e"/>
        <circle cx="340.80762" cy="129.76658" r="29.82655" fill="#fedd00"/>
        <ellipse cx="326.3739" cy="134.16124" rx="10.70691" ry="10.73917" fill="#241f1d"/>
      </g>
      <g id="Layer_4_copy" data-name="Layer 4 copy">
        <ellipse cx="254.6737" cy="135.40717" rx="35.39223" ry="34.36305" fill="#20211e"/>
        <circle cx="256.68917" cy="131.53697" r="30.70848" fill="#fedd00"/>
        <circle cx="271.05843" cy="134.76041" r="10.52659" fill="#241f1d"/>
      </g>
      <path d="M204.273,124.21679s6.8599-44.92023,79.04564-18.45561c33.21453,12.17706,29.25037-31.76743,66.16155-35.59783C373.38143,67.683,386.04313,94.27,386.04313,94.27S356.935,62.96829,316.74761,115.85952c-14.57879,19.18737-54.32881-2.17417-68.97789-4.86482C222.99251,106.44379,215.08334,110.09782,204.273,124.21679Z" fill="#fff8dc"/>
      <path d="M295.29774,204.30248c-10.77567-4.19332-25.64606-25.34212-16.96676-40.82729l15.92343,5.0918,2.12548,36.37509Z" fill="#a08f65"/>
      <path d="M301.63348,141.28867c-5.13891-1.07971-25.38414,13.50931-24.89155,27.14708.45768,12.67155,18.7891,14.65325,20.23441,42.88h1.44533c14.65337-14.7955,23.59906-29.17861,23.60682-41.0291C322.03625,158.40984,309.72768,142.98929,301.63348,141.28867Z" fill="#c6b788"/>
      <g id="Layer_8" data-name="Layer 8">
        <path d="M294.55669,203.93988l1.71112.7521c-.83173-4.63608-2.76764-12.8748-8.397-18.98356-4.17636-4.532-11.108-10.991-10.40355-22.42441,0,0-4.7,8.887,4.3144,18.5274C287.65014,188.08744,294.13872,197.52061,294.55669,203.93988Z" fill="#615134"/>
      </g>
      <ellipse cx="290.80509" cy="157.11556" rx="6.85088" ry="4.30285" transform="translate(26.99036 356.25041) rotate(-65.42791)" fill="#241f1d"/>
      <ellipse cx="307.95029" cy="156.71815" rx="4.30285" ry="6.85088" transform="translate(-37.48369 165.04434) rotate(-28.35264)" fill="#241f1d"/>
    </g>
  </g>
</svg>
