<svg xmlns="http://www.w3.org/2000/svg" width="600" height="600" viewBox="0 0 600 600">
  <title>character-winey-pierre-full</title>
  <g id="Background">
    <path d="M457.49987,88.74645C480,17.97864,271.76573-48.67619,126.96521,49.282,40.38621,107.85291,0,169.2499,64.99,266.33669,4.87923,297.84406-1.78791,430.61235,3.01472,463.65919,20,580.53473,460,680.98745,480,504.16358c40.86832,29.1429,91.23329-11.36149,101.45037-40.50439,25.98279-74.11256-70.10061-148.70485,6.53292-255.80048C628.792,150.82837,560.792,29.5497,457.49987,88.74645Z" fill="#93bd95"/>
    <g>
      <g>
        <path d="M499.96941,408.51276c.66956,5.91719-10.87408,13.157-16.11894,16.12183-3.57716,2.02463-7.73708,4.3188-11.63663,5.328-5.61063,1.44795-6.60256.02507-9.91934-4.52565-4.6621-6.39357-8.46244-13.7023-12.44878-20.81672,10.30372-8.78176,24.84176-17.51964,36.60238-21.58771.062.12536.1178.25073.17979.37609C489.89508,390.24093,499.15726,401.26044,499.96941,408.51276Z" fill="#495554"/>
        <path d="M458.23376,294.85759c-.47736.094-.96713.163-1.4693.21312-9.26219.90889-19.86349,2.20014-28.35073-1.34766-.07439-.02507-.14259-.05642-.217-.08776-3.40358-1.46676-5.69123-4.48177-7.26592-8.06091a51.5283,51.5283,0,0,1-3.292-13.06922c-.05579-.36982-.09919-.74592-.13019-1.122,7.6379,6.85115,22.95709,7.44037,31.76671,6.75086,9.318-.73338,18.99554-2.23775,27.07981-6.90756C473.31737,282.10179,468.00432,292.95833,458.23376,294.85759Z" fill="#50303a"/>
        <path d="M460.53381,337.17427c8.74763,15.28816,18.40039,30.21277,25.91429,45.85822-11.76062,4.06807-26.29866,12.80595-36.60238,21.58771-.651-1.16589-1.30812-2.33177-1.97767-3.48513-4.84808-8.35552-9.90695-17.08086-14.24666-25.84382-2.07066-4.1809-5.43084-10.34254-8.59263-15.99647C435.0039,350.14946,447.76886,340.94773,460.53381,337.17427Z" fill="#e7d8d2"/>
        <path d="M458.41975,333.43215c.70056,1.24737,1.40111,2.49475,2.11406,3.74212-12.76495,3.77346-25.52991,12.97519-35.50505,22.12051-.22939-.40743-.45257-.8086-.682-1.20976-2.31865-4.15583-4.4699-7.92929-5.82761-10.29867,1.02913-.37609,2.81461-.85875,3.633-1.17216,3.23618-1.24737,6.491-2.33177,9.80155-3.74212,5.92681-2.53235,11.04147-5.37185,14.99681-10.81892a49.695,49.695,0,0,0,5.15806-9.28322C454.39622,326.12969,456.41728,329.84674,458.41975,333.43215Z" fill="#495554"/>
        <path d="M416.09514,286.28268c1.6119,3.04635,3.1742,6.21807,4.30252,8.87579a62.22821,62.22821,0,0,0-13.88708,5.87331l-4.15373-7.87287A28.26742,28.26742,0,0,1,416.09514,286.28268Z" fill="#495554"/>
        <path d="M413.7641,282.05164c.76255,1.33513,1.5499,2.76428,2.331,4.231a28.26742,28.26742,0,0,0-13.73829,6.87623l-4.36451-8.274c-1.07253-5.516,6.026-9.07009,11.26466-9.77213A49.04048,49.04048,0,0,1,413.7641,282.05164Z" fill="#cc7b29"/>
        <path d="M413.62151,342.076c-.17359.188-2.93861,3.16545-3.49657,5.72914a4.73471,4.73471,0,0,1-2.17606-.28833A21.75137,21.75137,0,0,1,413.62151,342.076Z" fill="#996750"/>
        <path d="M408.13487,333.00591s-2.87661,3.529-3.15559,5.30918a9.35426,9.35426,0,0,1-1.4755-.514C404.76849,335.1183,408.13487,333.00591,408.13487,333.00591Z" fill="#996750"/>
        <path d="M402.952,237.56617l-11.33285,2.95859a31.81935,31.81935,0,0,1,6.336-3.623,28.35147,28.35147,0,0,1,4.5257-1.39781C402.64823,236.2185,402.80322,236.93934,402.952,237.56617Z" fill="#50303a"/>
        <path d="M399.39965,326.9947c-.0062.01254-.0186.02507-.0186.03761C399.36865,327.00724,399.37485,326.9759,399.39965,326.9947Z" fill="#9a6075"/>
        <path d="M413.62151,342.076a21.75137,21.75137,0,0,0-5.67263,5.44081c-3.22378-1.25991-3.91814-6.16792-2.9696-9.20173.279-1.78018,3.15559-5.30918,3.15559-5.30918s-3.36638,2.11239-4.63109,4.79518c-4.12273-1.83031-6.81335-6.5252-4.12893-10.76251h.0062v.00627c0,.01253.0124.02507.0186.01253a20.73972,20.73972,0,0,1,3.17419-4.41908s-3.25479,1.191-4.38311,3.28454c-9.628-9.64678-2.14506-18.82343,8.31985-24.89106a62.22821,62.22821,0,0,1,13.88708-5.87331,35.63235,35.63235,0,0,1,8.01607-1.43542c8.48724,3.5478,19.08854,2.25655,28.35073,1.34766.50217-.05014.99194-.11909,1.4693-.21312.124,8.72535-2.35584,19.31862-6.12519,27.91234a49.695,49.695,0,0,1-5.15806,9.28322c-3.95534,5.44707-9.07,8.28657-14.99681,10.81892-3.31058,1.41035-6.56537,2.49475-9.80155,3.74212-.81835.31341-2.60383.79607-3.633,1.17216,1.35771,2.36938,3.509,6.14284,5.82761,10.29867l-.48977.28207a32.76963,32.76963,0,0,1-8.636-2.06224c-.22318-.094-.44017-.20059-.651-.30715-2.92621-1.49183-5.04647-3.949-4.44511-8.19255C410.6829,345.24146,413.44792,342.26406,413.62151,342.076Z" fill="#eab492"/>
        <path d="M399.39965,327.05738c-.0062.01254-.0186,0-.0186-.01253C399.38725,327.04485,399.39345,327.05111,399.39965,327.05738Z" fill="#9a6075"/>
        <path d="M399.38105,327.03231c-.0062.00627,0,.00627,0,.00627h-.0062Z" fill="#eab492"/>
        <path d="M399.39965,326.9947c-.0248-.0188-.031.01254-.0186.03761l-.0062.00627c-.42157-.37609-.81835-.74592-1.18412-1.11574,1.12832-2.09358,4.38311-3.28454,4.38311-3.28454a20.73972,20.73972,0,0,0-3.17419,4.41908c-.0062-.00627-.0124-.01253-.0186-.01253v-.00627s-.0062,0,0-.00627C399.38105,327.01977,399.39345,327.00724,399.39965,326.9947Z" fill="#996750"/>
        <path d="M325.49432,286.05076c.19219-7.50305.19219-15.21921-.21078-22.96045-.14259-2.77055-.22319-6.0927-.44637-9.52141a65.89086,65.89086,0,0,0-1.38251-10.493,22.69775,22.69775,0,0,0-2.703-6.94517c.17978-.21939.35957-.43878.53936-.66443,12.94475-1.448,29.82,2.53862,42.75238,2.595,3.106-13.21338,8.92741-26.79659,9.566-40.81857.17979-4.01166.403-15.1816-2.455-25.06657,6.96834-1.70495,17.23486-3.99285,23.55225-4.37521a132.03093,132.03093,0,0,1,29.28686,1.7551c17.30926,2.827,35.36247,11.76543,43.72572,28.489,8.543,17.0746,14.76123,37.60925,11.92181,56.89653a134.48778,134.48778,0,0,1-3.28578,16.28481c-8.08427,4.66981-17.76183,6.17418-27.07981,6.90756-8.80962.68951-24.12881.10029-31.76671-6.75086-.434-4.70115.527-9.72826.76875-14.56105.22939-4.59459,2.44264-10.0542,1.85988-14.41688-.67576-5.03964-4.6435-7.10815-9.29319-7.54692a27.19254,27.19254,0,0,0-8.36325.64562,28.35147,28.35147,0,0,0-4.5257,1.39781,31.81935,31.81935,0,0,0-6.336,3.623l11.33285-2.95859c.0992.40743.19839.771.29138,1.07813,1.02294,3.27827,2.33725,6.31835,3.40978,9.38977,2.23185,6.41238,3.18039,12.41733,4.77368,18.84851a122.12956,122.12956,0,0,1,2.33725,15.16906,49.04048,49.04048,0,0,0-4.5071-6.9389c-5.23866.702-12.33719,4.25611-11.26466,9.77213l4.36451,8.274,4.15373,7.87287c-10.46491,6.06763-17.94782,15.24428-8.31985,24.89106.36577.36982.76255.73965,1.18412,1.11574-2.68442,4.23731.0062,8.9322,4.12893,10.76251a9.35426,9.35426,0,0,0,1.4755.514c-.94854,3.03381-.25418,7.94182,2.9696,9.20173a4.73471,4.73471,0,0,0,2.17606.28833c-.60136,4.24358,1.5189,6.70072,4.44511,8.19255.21078.10656.42777.21312.651.30715a148.42651,148.42651,0,0,1-5.55483,28.59556c-.47117,1.6172-.95474,3.178-1.44451,4.66982A329.034,329.034,0,0,1,391.93534,430.439c-.0558-.094-.30378-.2758-.33478-.25073-.372-2.56369-1.5251-4.651-2.61623-7.10188-4.41411-9.93511-11.35145-19.40637-19.73329-27.79324-15.83376-15.85856-36.81938-27.881-55.65373-32.03681,1.05393-4.814,1.96527-9.56529,3.14319-14.29152.09919-.40116.19839-.80233.29138-1.20349,1.97147-7.992,3.63916-15.63292,4.95347-23.37415a238.694,238.694,0,0,0,2.87041-23.85681q.26969-3.902.42778-7.97943C325.36413,290.40717,325.43853,288.23837,325.49432,286.05076Z" fill="#9a6075"/>
        <path d="M394.192,550.02384a5.44386,5.44386,0,0,1-.85554,6.24314c-1.95287,2.09358-7.80529,3.04008-10.38432,3.32215-8.00367.87128-16.99928.20058-24.84176-.608-11.618-1.19723-37.78651-6.85115-43.69472-11.99108.0186,0-.13019,1.7739-.26038,1.58585-6.26159,4.50058-11.16546-2.827-13.44691-8.93219,14.09167,6.41237,45.412,13.99064,58.41874,14.65507,8.10287.40743,28.09035,3.55407,34.40153-3.45379A9.62947,9.62947,0,0,0,394.192,550.02384Z" fill="#372225"/>
        <path d="M394.192,550.02384a9.62947,9.62947,0,0,1-.66336.82113c-6.31118,7.00786-26.29866,3.86122-34.40153,3.45379-13.00674-.66443-44.32707-8.2427-58.41874-14.65507-.23559-.63936-.44637-1.25991-.62-1.85539-1.5375-6.73206-1.20272-13.81514-.16119-20.77912,9.54737,7.52185,18.25779,11.90333,31.55592,11.22637a86.99946,86.99946,0,0,0,26.01348-5.25276c5.30065,5.69153,11.67383,7.13322,21.2026,9.01368C385.23978,533.28145,400.311,541.65578,394.192,550.02384Z" fill="#4a2d32"/>
        <path d="M391.60056,430.18822c-4.25912,6.19926-9.504,7.9669-14.24046,7.8666a213.16721,213.16721,0,0,0-6.0632-34.55663c-.61376-2.48221-1.21512-5.41573-2.04586-8.20509,8.38184,8.38687,15.31918,17.85813,19.73329,27.79324C390.07546,425.53721,391.22859,427.62453,391.60056,430.18822Z" fill="#50303a"/>
        <path d="M377.3601,438.05482a106.45036,106.45036,0,0,1-1.22752,28.138c-3.25478,17.1749-4.63729,39.333-13.34152,54.50835q-2.55734,1.25051-5.29445,2.28163a86.99946,86.99946,0,0,1-26.01348,5.25276c-13.29813.677-22.00855-3.70452-31.55592-11.22637,1.12213-7.52812,3.0688-14.91833,4.38311-21.58144,3.0502-15.46367,4.20952-25.92531-1.70489-40.68067-9.349-23.34281-23.67-45.35676-46.9309-56.91534-10.80589-5.37186-21.89076-10.75-33.19881-14.36047-4.90388-1.567-18.11521-5.76048-27.99115-6.44372.55176-8.75042.66335-19.54427-3.45318-24.85344a91.03246,91.03246,0,0,1-.79354,24.80957c-1.98387,12.44239-5.98881,24.65286-10.17973,36.481a66.41122,66.41122,0,0,0-5.64163-7.69736c-10.34092-17.51337-29.58445-18.28436-45.04-29.22239a34.57249,34.57249,0,0,1-4.33351-3.75466c1.64909-8.78176,5.84-21.51249,8.02227-30.72049,4.5877-19.41891,18.90875-43.80224,40.29734-48.29655a52.13409,52.13409,0,0,1,13.5895-.83367A87.44787,87.44787,0,0,1,203.288,295.5471c5.72842,1.45422,17.68743,6.49386,23.68863,11.86572v.00626a13.75348,13.75348,0,0,1,2.83322,3.30962c15.28819,17.37547,20.74383,20.7227,37.8175,29.003,15.54857,7.53439,32.37426,8.09226,49.40454,8.02958-.093.40116-.19219.80233-.29138,1.20349-1.17792,4.72623-2.08926,9.47753-3.14319,14.29152,18.83435,4.15582,39.82,16.17825,55.65373,32.03681.83074,2.78936,1.4321,5.72288,2.04586,8.20509A213.16721,213.16721,0,0,1,377.3601,438.05482ZM270.07618,379.679c6.54677,6.63176,10.41531,14.99982,16.14993,22.56555-3.37257-11.358-18.0966-36.4183-34.04815-33.09614C252.178,369.14841,265.06691,374.60175,270.07618,379.679Z" fill="#054554"/>
        <path d="M371.15431,172.17621c2.858,9.885,2.63483,21.05491,2.455,25.06657-.63856,14.022-6.46,27.60519-9.566,40.81857-12.93235-.05641-29.80763-4.043-42.75238-2.595a119.08886,119.08886,0,0,0,9.0452-12.98147c9.57837-5.91092,16.6645-16.57941,20.84923-26.47691,2.517-5.9548,6.46617-16.84894,5.92061-25.01015,3.0254-2.73921,5.45564-7.127,7.05513-11.6338C367.52135,162.61092,369.7222,167.23059,371.15431,172.17621Z" fill="#50303a"/>
        <path d="M357.106,170.99779c.54556,8.16121-3.40358,19.05535-5.92061,25.01015-4.18473,9.8975-11.27086,20.566-20.84923,26.47691,9.24359-15.35084,15.05881-32.789,15.92055-49.90121C350.31129,174.87781,354.01864,173.79968,357.106,170.99779Z" fill="#ba886c"/>
        <path d="M231.70071,159.96574c-.0124,0-.031.00627-.0434.00627.0062,0,.0124,0,.0124.00627a20.12969,20.12969,0,0,0-3.013,1.76763c-4.12893-2.15626-9.0514-3.07142-10.48351-7.86033a11.93835,11.93835,0,0,1,.341-6.46879c8.04707-2.8207,18.04081-2.71414,26.03828-3.56035,9.75816-1.04052,20.32846-1.0844,29.89443-1.11574,9.89455-.03134,20.998,1.38528,29.758-2.96486,10.10533-5.0083,17.82382-13.89662,23.55844-23.37415,7.47671-12.37971,16.54051-40.09773,6.863-53.55558,17.91682,5.65393,18.1834,25.87517,17.31546,43.539a134.23417,134.23417,0,0,1-2.94481,23.12969c-4.76748,1.07813-7.78668,5.5599-10.09913,10.09809-2.33725.55787-4.69929,1.02171-6.93114,1.73629-15.36879,4.908-28.93969,16.83014-45.00284,17.833-8.52443.52653-18.00361-1.42288-26.745-1.42915C250.79545,157.74679,240.72112,159.2637,231.70071,159.96574Z" fill="#824729"/>
        <path d="M344.65726,148.52626c-1.21512-4.93308,4.64969-12.27942,10.12393-9.84736,2.89521,1.29125,3.88714,5.89839,3.93674,8.55611-1.4755-5.34052-5.38124-11.38934-10.6323-4.70743-.74395.95277-2.9262,3.89883-1.4383,6.68818a7.473,7.473,0,0,1,2.70922.63936c1.90947,1.29125,2.331,3.05888,1.99627,4.17463-.91134,2.96486-4.24052,4.40655-4.24052,4.40655,3.0254,5.9924,7.4519,2.27536,10.97947,1.39781-1.89087,2.7016-4.4761,4.51311-7.89828,3.82987-2.85181-.5704-4.5753-2.15-5.79661-5.33424,1.84127-1.29125,6.68315-2.41326,5.14566-5.87958a4.27589,4.27589,0,0,0-2.35585-1.83659C345.4694,149.93661,345.14083,150.45687,344.65726,148.52626Z" fill="#381534"/>
        <path d="M286.87707,209.18372a48.94179,48.94179,0,0,1-15.92675,3.6857c-.92994.05642-1.83508.08149-2.703.07522-9.96894-.069-26.07548-2.338-32.57885-11.28278.155-.42.17359-.20058,0-.62682,4.01733-4.60713,11.63663-4.84532,17.923-6.55654a20.92535,20.92535,0,0,0,4.58149-1.74883c.40918-.22566.80595-.45131,1.19653-.68324,1.81648-.31341,3.86234-.90889,5.933-1.47929,5.55484-1.542,9.163-2.35058,8.05327-6.44372a6.33821,6.33821,0,0,0-2.9758-3.75466,31.77158,31.77158,0,0,0,2.47364-7.08934,66.49752,66.49752,0,0,0,12.52317-.99038c-1.60569,6.34343.63236,8.63132,8.49344,7.86033a10.24791,10.24791,0,0,0,5.91441-2.20014,6.61045,6.61045,0,0,0-.37818,4.394,4.83243,4.83243,0,0,0,.14879,2.78935c1.47551,3.9427,8.26406,4.99576,15.1642,2.35684,6.90015-2.64518,11.30186-7.97943,9.82636-11.91586-.99814-2.67026-4.43271-4.01165-8.69183-3.77973a11.64952,11.64952,0,0,0-9.39238.03761,13.59963,13.59963,0,0,0-4.25292,2.7016,28.37046,28.37046,0,0,0,1.58089-5.259,18.1501,18.1501,0,0,1,3.50277-7.76631c1.00434-.8086,2.00867-1.64227,3.00061-2.49475,4.07933-2.15626,9.349-.75218,14.37065,4.8704.92374-5.08979-.33478-10.41776-4.5567-13.251,5.61683-4.557,11.51884-8.506,18.357-10.1545.14259-.28834.28518-.57668.434-.865,2.31245-4.53819,5.33165-9.02,10.09913-10.09809a10.90543,10.90543,0,0,1,4.80469.03134c7.77428,1.66735,11.74822,10.681,12.39918,17.58233.29758,3.20305-.465,7.77258-2.03967,12.23554-1.59949,4.50684-4.02973,8.89459-7.05513,11.6338-3.0874,2.80189-6.79475,3.88-10.84929,1.58585-.86174,17.11221-6.677,34.55037-15.92055,49.90121a119.08886,119.08886,0,0,1-9.0452,12.98147c-.31.03134-.61376.069-.91754.11282-.08059.00627-.155.01881-.23558.03134a49.30047,49.30047,0,0,0-7.25353-20.62867c-.55176-.865-1.12832-1.70495-1.73588-2.501-.36578-.49519-.74395-.97784-1.12833-1.44168-3.37877-4.05554-7.40851-7.03294-11.84741-8.06092,4.5319-5.76675.48356-10.5682-4.89148-10.76252,3.55236.68324,6.73895,4.7137,4.42651,8.18.0124-.02508,0-.02508-.0124-.01254q-.0093,0-.0186.0188a.01341.01341,0,0,0-.0124.01254c.0062-.00627.0062-.01254.0124-.01254.0062-.00626.0124-.01253.0186-.01253v.0188l-.0124.03134a.13112.13112,0,0,0,.0248-.03761.08972.08972,0,0,1-.0124.03761,28.282,28.282,0,0,1-1.90328,2.22522A28.88238,28.88238,0,0,1,286.87707,209.18372ZM358.71793,147.235c-.0496-2.65772-1.04153-7.26486-3.93674-8.55611-5.47424-2.43206-11.339,4.91428-10.12393,9.84736.48357,1.93061.81214,1.41035,2.52943,2.08731a4.27589,4.27589,0,0,1,2.35585,1.83659c1.53749,3.46632-3.30439,4.58833-5.14566,5.87958,1.22131,3.18425,2.9448,4.76384,5.79661,5.33424,3.42218.68324,6.00741-1.12827,7.89828-3.82987-3.52757.87755-7.95407,4.59459-10.97947-1.39781,0,0,3.32918-1.44169,4.24052-4.40655.33477-1.11575-.0868-2.88338-1.99627-4.17463a7.473,7.473,0,0,0-2.70922-.63936c-1.4879-2.78935.69435-5.73541,1.4383-6.68818C353.33669,135.84567,357.24243,141.89449,358.71793,147.235Z" fill="#eab492"/>
        <path d="M334.62632,62.84611c9.67756,13.45785.61376,41.17587-6.863,53.55558-5.73462,9.47753-13.45311,18.36585-23.55844,23.37415-8.76,4.35014-19.86349,2.93352-29.758,2.96486-9.566.03134-20.13627.07522-29.89443,1.11574-7.99747.84621-17.99121.73965-26.03828,3.56035.72535-2.60758,1.89708-5.17754,2.63483-7.16457.19218-.514.38437-1.03425.589-1.54824,1.36391-3.54781,2.90761-7.12069,4.61249-10.63089a128.24655,128.24655,0,0,1,7.6627-13.67723c11.16546-17.24384,23.52125-31.69833,41.67365-41.8591,15.94535-8.92593,37.47653-14.07839,55.65993-10.51805A30.26313,30.26313,0,0,1,334.62632,62.84611Z" fill="#a1502a"/>
        <path d="M338.89784,139.61287c-.14879.28833-.29138.57667-.434.865-6.83815,1.64854-12.74016,5.59751-18.357,10.1545-3.323,2.70159-6.54677,5.61-9.81395,8.38059a9.82644,9.82644,0,0,0-3.00061,2.49475,56.80594,56.80594,0,0,1-11.28325,7.40275,43.3657,43.3657,0,0,1-10.6323,3.37857,66.49752,66.49752,0,0,1-12.52317.99038c-4.85428-.01881-9.78916-.40744-14.73023-.81487-5.15806-.42-10.33472-.865-15.46178-.94023a13.398,13.398,0,0,1,.47737-1.799l-.1054-.03134a8.77241,8.77241,0,0,0-2.06446,1.81778c-1.03533,0-2.06446.0188-3.0998.06268a25.03833,25.03833,0,0,0-2.9882.38863,61.3446,61.3446,0,0,1-6.99934.99038c-2.66582.1379-4.97207-.25073-5.85241-1.97449a16.77454,16.77454,0,0,1,6.62736-9.23307,20.12969,20.12969,0,0,1,3.013-1.76763c.0124,0,.0186-.00627.031-.01254,9.02041-.702,19.09474-2.219,28.51812-2.21268,8.74142.00627,18.2206,1.95568,26.745,1.42915,16.06315-1.00291,29.63405-12.925,45.00284-17.833C334.19855,140.63458,336.56059,140.17074,338.89784,139.61287Z" fill="#733d26"/>
        <path d="M325.28354,263.09031c.403,7.74124.403,15.4574.21078,22.96045-6.79475-2.45087-14.51944-6.57535-18.89635-11.05085a54.4899,54.4899,0,0,0,18.2392-21.431C325.06035,256.99761,325.14095,260.31976,325.28354,263.09031Z" fill="#7b4d60"/>
        <path d="M325.49432,286.05076c-.05579,2.18761-.13019,4.35641-.21078,6.50013q-.1581,4.08062-.42778,7.97943c-4.29631-2.64518-9.256-5.07725-12.0024-6.56908a134.65618,134.65618,0,0,0-23.04388-9.42112,122.80366,122.80366,0,0,0-27.00542-4.83906c-5.97641-.49518-15.44318-1.379-22.7587-.05014.47737-.7898.93614-1.55452,1.37631-2.28163,1.10353-1.824,2.28765-3.67944,3.54617-5.52856a69.01789,69.01789,0,0,0,21.34519-3.88c-3.75076-3.89883-5.25726-9.13278-5.51764-14.47956,1.22752-1.07813,2.47364-2.09985,3.726-3.04008,1.56849,1.122,4.21572,2.1876,8.89641,2.51982.36577,3.90509.83074,8.01077,3.0254,10.76878,3.96154,4.977,8.92741,1.04679,14.15367-1.7363a71.56209,71.56209,0,0,0,9.63416-6.32462c8.93981-1.39154,17.43945-5.5787,23.22367-12.59283a65.89086,65.89086,0,0,1,1.38251,10.493,54.4899,54.4899,0,0,1-18.2392,21.431C310.97488,279.47541,318.69957,283.59989,325.49432,286.05076Z" fill="#ecca83"/>
        <path d="M320.10688,150.63238c4.22192,2.83323,5.48044,8.1612,4.5567,13.251-5.02167-5.62258-10.29132-7.02666-14.37065-4.8704C313.56011,156.24242,316.7839,153.334,320.10688,150.63238Z" fill="#4f2f22"/>
        <path d="M312.85336,293.96124c2.74642,1.49183,7.70609,3.9239,12.0024,6.56908a238.694,238.694,0,0,1-2.87041,23.85681c-11.13446-10.73745-23.35385-19.35-38.23907-23.54966-8.34465-2.35685-16.6955-5.002-25.41833-6.26821-8.46864-1.22857-17.08607-1.028-25.7407-1.62347,2.39924-4.79518,5.10847-9.38978,7.45811-13.29487,7.31552-1.32886,16.78229-.445,22.7587.05014a122.80366,122.80366,0,0,1,27.00542,4.83906A134.65618,134.65618,0,0,1,312.85336,293.96124Z" fill="#7b4d60"/>
        <path d="M320.24947,236.745c.16739-.20058.33478-.40743.50217-.61428a22.69775,22.69775,0,0,1,2.703,6.94517c-5.78422,7.01413-14.28386,11.20129-23.22367,12.59283.94234-.70831,1.88468-1.43542,2.858-2.1876a106.305,106.305,0,0,0,13.7073-12.74327c.24178.07522.48356.1567.72535.23192.07439-.4137.13639-.83367.186-1.24737.0062-.00627,0-.00627,0-.00627h.0062c.24178-.2758.48976-.55787.73155-.83994Q319.35673,237.82316,320.24947,236.745Z" fill="#af945d"/>
        <path d="M321.291,235.46632c-.17979.22565-.35958.445-.53936.66443-.1302-.18805-.25419-.3761-.37818-.55161C320.67724,235.53527,320.981,235.49766,321.291,235.46632Z" fill="#eab492"/>
        <path d="M320.37346,235.57914c.124.17551.248.36356.37818.55161-.16739.20685-.33478.4137-.50217.61428-.031-.37609-.0682-.75219-.11159-1.13455C320.21847,235.598,320.29287,235.58541,320.37346,235.57914Z" fill="#eab492"/>
        <path d="M320.13788,235.61048c.04339.38236.08059.75846.11159,1.13455q-.89274,1.08126-1.80408,2.13119c-.19839-.10656-.403-.20685-.61376-.30714.06819-.85875.09919-1.71749.09919-2.5825C318.65,235.83614,319.38773,235.71078,320.13788,235.61048Z" fill="#381534"/>
        <path d="M318.97235,175.05332c1.5623,3.93643-1.65529,6.3873-7.00553,8.54984-5.35025,2.1688-10.81209,3.22185-12.37439-.71458q-.10228-.27267-.186-.54533a10.88029,10.88029,0,0,1,3.757-5.50976,3.62718,3.62718,0,0,0-.19839,1.2035,2.8431,2.8431,0,1,0,5.623,0,3.12117,3.12117,0,0,0-2.50464-3.24694,22.97115,22.97115,0,0,1,3.29819-1.567,21.45493,21.45493,0,0,1,6.47237-1.42915A6.19253,6.19253,0,0,1,318.97235,175.05332Z" fill="#fffbe4"/>
        <path d="M317.93082,235.98658c0,.865-.031,1.72375-.09919,2.5825a57.23593,57.23593,0,0,0-8.00367-2.8583c.10539-7.22725-.47737-15.18161-.1054-21.60025q.465.07521.92994.188c.124.17551.25419.351.372.52653A39.52847,39.52847,0,0,1,317.93082,235.98658Z" fill="#fffbe4"/>
        <path d="M317.70764,239.71616c.04959-.38236.093-.76472.124-1.14708.21078.10029.41537.20058.61376.30714-.24179.28207-.48977.56414-.73155.83994Z" fill="#381534"/>
        <path d="M317.83163,238.56908c-.031.38236-.0744.76472-.124,1.14708,0,0,.0062,0,0,.00627s-.0062.00627-.0124.00627c-.36578.2758-.75635.58294-1.16553.92142-2.30624-.75218-4.5381-1.52317-6.77615-2.25028q.0558-1.32573.0744-2.68906A57.23593,57.23593,0,0,1,317.83163,238.56908Z" fill="#381534"/>
        <path d="M317.69524,239.7287c.0062,0,.0062,0,.0124-.00627-.0496.4137-.1116.83367-.186,1.24737-.24179-.07522-.48357-.1567-.72535-.23192C317.10008,240.40566,317.39766,240.06718,317.69524,239.7287Z" fill="#af945d"/>
        <path d="M321.98535,324.38713c-1.31431,7.74123-2.982,15.38218-4.95347,23.37415-17.03028.06268-33.856-.49519-49.40454-8.02958-17.07367-8.2803-22.52931-11.62753-37.8175-29.003a13.75348,13.75348,0,0,0-2.83322-3.30962v-.00626a69.34255,69.34255,0,0,1,5.61063-14.467c8.65463.59548,17.27206.3949,25.7407,1.62347,8.72283,1.26617,17.07368,3.91136,25.41833,6.26821C298.6315,305.03717,310.85089,313.64968,321.98535,324.38713Z" fill="#ecca83"/>
        <path d="M317.69524,239.7287c-.29758.33848-.59516.677-.89894,1.00918-.0868-.03134-.17979-.05642-.26659-.08776C316.93889,240.31164,317.32946,240.0045,317.69524,239.7287Z" fill="#381534"/>
        <path d="M312.88435,214.98181a49.30047,49.30047,0,0,1,7.25353,20.62867c-.75015.1003-1.48791.22566-2.20706.3761a39.52847,39.52847,0,0,0-6.90634-21.16148c-.11779-.17551-.248-.351-.372-.52653A14.59175,14.59175,0,0,1,312.88435,214.98181Z" fill="#381534"/>
        <path d="M311.14847,212.48079a6.595,6.595,0,0,1-1.32051.15044c.04339-.53907.09919-1.05933.16119-1.567l.031-.02507C310.40452,211.503,310.78269,211.9856,311.14847,212.48079Z" fill="#381534"/>
        <path d="M309.828,212.63123a6.595,6.595,0,0,0,1.32051-.15044c.60756.79607,1.18412,1.636,1.73588,2.501a14.59175,14.59175,0,0,0-2.23185-.68324c-.279-.36982-.57036-.73964-.86794-1.1032C309.797,213.00732,309.80936,212.81928,309.828,212.63123Z" fill="#381534"/>
        <path d="M273.30617,251.76366a17.69341,17.69341,0,0,1-7.94168-1.95568c-.0248-.01254-.0558-.02508-.08059-.03761a10.47929,10.47929,0,0,1-3.25479-2.31924l-.0062-.00627c-.0248-.02507-.0434-.05014-.0682-.07522a4.0406,4.0406,0,0,1-.78734-1.38527c-.90514-2.77055,1.90947-5.76675,4.64969-9.27068a29.6452,29.6452,0,0,0,5.51144-.59548,16.07816,16.07816,0,0,0,2.69062-.88382,98.18406,98.18406,0,0,1,18.31979-.52026c.87414.069,1.76068.15044,2.64723.257.589.06268,1.18412.1379,1.77928.21938a64.93089,64.93089,0,0,1,9.88215,2.23149q1.5623.47011,3.106.97784c2.238.72711,4.46991,1.4981,6.77615,2.25028-4.4389,3.60422-11.32665,10.27987-17.985,15.25056a57.42535,57.42535,0,0,1-5.08366,3.42871c-3.664,2.16253-10.81209,6.46879-13.93668,5.20888-3.78175-1.52945-5.20766-7.91675-5.08367-11.55231,4.11033-.03761,7.90448-2.07478,12.176-4.98323C282.153,250.07751,277.83187,251.78246,273.30617,251.76366Z" fill="#eab492"/>
        <path d="M309.78456,213.19537c.29758.36356.589.73338.86794,1.1032q-.465-.11281-.92994-.188C309.74116,213.80339,309.75976,213.49624,309.78456,213.19537Z" fill="#381534"/>
        <path d="M309.72256,214.11053c-.372,6.41864.21079,14.373.1054,21.60025-.95474-.28207-1.94668-.53907-2.96961-.77726.48357-7.08308-.11159-13.87155.1054-20.99223A14.18542,14.18542,0,0,1,309.72256,214.11053Z" fill="#381534"/>
        <path d="M309.828,212.63123c-.0186.18805-.031.37609-.0434.56414-.16119-.18178-.32238-.36983-.48977-.5516C309.47458,212.64377,309.65437,212.6375,309.828,212.63123Z" fill="#381534"/>
        <path d="M309.828,235.71078q-.0186,1.36334-.0744,2.68906-1.5437-.50773-3.106-.97784c.08679-.83368.16119-1.66108.21078-2.48848C307.88128,235.17171,308.87322,235.42871,309.828,235.71078Z" fill="#381534"/>
        <path d="M306.0834,174.79005A3.12117,3.12117,0,0,1,308.588,178.037a2.8431,2.8431,0,1,1-5.623,0,3.62718,3.62718,0,0,1,.19839-1.2035A20.52133,20.52133,0,0,1,306.0834,174.79005Z" fill="#36182d"/>
        <path d="M307.39772,210.732c.66335.608,1.30191,1.24738,1.89707,1.91181-.45877,0-.92374-.01254-1.37011-.01254q-.45567,0-.91134.0188c.0248-.52652.0496-1.053.0868-1.58585Z" fill="#eab492"/>
        <path d="M309.72256,214.11053a14.18542,14.18542,0,0,0-2.75881-.16924c.01239-.42624.031-.85875.04959-1.29126q.45567-.01879.91134-.0188c.44637,0,.91134.01254,1.37011.01254.16739.18177.32858.36982.48977.5516C309.75976,213.49624,309.74116,213.80339,309.72256,214.11053Z" fill="#381534"/>
        <path d="M296.15786,218.09084c3.42837-2.35685,6.99314-4.01792,10.80589-4.14955-.217,7.12068.37817,13.90915-.1054,20.99223a85.78836,85.78836,0,0,0-11.73582-1.86793C295.39531,228.25787,295.34571,222.56007,296.15786,218.09084Z" fill="#fffbe4"/>
        <path d="M306.96375,213.94129c-3.81275.13163-7.37752,1.7927-10.80589,4.14955a21.76961,21.76961,0,0,1,.527-2.25029A22.67982,22.67982,0,0,1,307.01334,212.65C306.99474,213.08254,306.97614,213.51505,306.96375,213.94129Z" fill="#381534"/>
        <path d="M306.85835,234.93352c-.04959.8274-.124,1.6548-.21078,2.48848a64.93089,64.93089,0,0,0-9.88215-2.23149c-.59516-.08148-1.19032-.1567-1.77928-.21938.04959-.61429.093-1.25365.13639-1.90554A85.78836,85.78836,0,0,1,306.85835,234.93352Z" fill="#381534"/>
        <path d="M305.77342,174.765a1.72384,1.72384,0,0,1,.31.02507,20.52133,20.52133,0,0,0-2.92,2.04344A2.85211,2.85211,0,0,1,305.77342,174.765Z" fill="#36182d"/>
        <path d="M307.29232,161.50772a18.1501,18.1501,0,0,0-3.50277,7.76631,28.37046,28.37046,0,0,1-1.58089,5.259,10.32459,10.32459,0,0,0-2.424,3.41617,10.24791,10.24791,0,0,1-5.91441,2.20014c-7.86108.771-10.09913-1.5169-8.49344-7.86033a43.3657,43.3657,0,0,0,10.6323-3.37857A56.80594,56.80594,0,0,0,307.29232,161.50772Z" fill="#4f2f22"/>
        <path d="M316.7963,240.73788a106.305,106.305,0,0,1-13.7073,12.74327c-.97333.75218-1.91567,1.47929-2.858,2.1876-.558.08776-1.12213.163-1.68629.23193,6.65836-4.97069,13.54611-11.64634,17.985-15.25056C316.61651,240.68146,316.7095,240.70654,316.7963,240.73788Z" fill="#996750"/>
        <path d="M302.20866,174.53306a9.32943,9.32943,0,0,1-2.424,3.41617A10.32459,10.32459,0,0,1,302.20866,174.53306Z" fill="#4f2f22"/>
        <path d="M306.46158,171.83146a11.64952,11.64952,0,0,1,9.39238-.03761,21.45493,21.45493,0,0,0-6.47237,1.42915,22.97115,22.97115,0,0,0-3.29819,1.567,1.72384,1.72384,0,0,0-.31-.02507,2.85211,2.85211,0,0,0-2.61,2.06851,10.88029,10.88029,0,0,0-3.757,5.50976,6.61045,6.61045,0,0,1,.37818-4.394,9.32943,9.32943,0,0,0,2.424-3.41617A13.59963,13.59963,0,0,1,306.46158,171.83146Z" fill="#fffbe4"/>
        <path d="M299.59243,182.88858c1.5623,3.93643,7.02414,2.88338,12.37439.71458,5.35024-2.16254,8.56783-4.61341,7.00553-8.54984a6.19253,6.19253,0,0,0-3.11839-3.25947c4.25912-.23192,7.69369,1.10947,8.69183,3.77973,1.4755,3.93643-2.92621,9.27068-9.82636,11.91586-6.90014,2.63892-13.68869,1.58586-15.1642-2.35684a4.83243,4.83243,0,0,1-.14879-2.78935Q299.49014,182.61591,299.59243,182.88858Z" fill="#996750"/>
        <path d="M300.70836,539.64369l-.16739-.07522c-.16739-.58921-.31618-1.18469-.45257-1.78017C300.262,538.38378,300.47277,539.00433,300.70836,539.64369Z" fill="#4a2d32"/>
        <path d="M307.39772,210.732a50.40347,50.40347,0,0,0-9.95655-6.895c.26659-.28833.50837-.5704.73156-.85874,4.4389,1.028,8.46864,4.00538,11.84741,8.06092l-.031.02507c-.062.50772-.1178,1.028-.16119,1.567-.17359.00627-.35338.01254-.53317.01254C308.69963,211.97934,308.06107,211.34,307.39772,210.732Z" fill="#381534"/>
        <path d="M297.69536,200.38315v.00627c-.0062,0-.0124.00627-.0186.01253Q297.68606,200.38316,297.69536,200.38315Z" fill="#996750"/>
        <path d="M297.67676,200.402c-.0062,0-.0062.00627-.0124.01254A.01341.01341,0,0,1,297.67676,200.402Z" fill="#eab492"/>
        <path d="M298.17273,202.97819c-.22319.28834-.465.57041-.73156.85874-.39677-.21312-.75015-.40116-1.06633-.55787-.22318-.11282-.279-.20058-.22938-.26953A3.38449,3.38449,0,0,1,298.17273,202.97819Z" fill="#996750"/>
        <path d="M297.70776,200.39569c2.31244-3.46632-.87415-7.49678-4.42651-8.18,5.375.19432,9.42338,4.99577,4.89148,10.76252a3.38449,3.38449,0,0,0-2.02727.03134l-.35338-.34475a28.282,28.282,0,0,0,1.90328-2.22522.08972.08972,0,0,0,.0124-.03761Z" fill="#996750"/>
        <path d="M296.68482,215.84055a21.76961,21.76961,0,0,0-.527,2.25029q-1.19033.818-2.35585,1.74256c.0372-.73338.062-1.46676.062-2.20014C294.78155,216.98764,295.72389,216.38589,296.68482,215.84055Z" fill="#381534"/>
        <path d="M284.9862,212.94464c2.74641-3.12157,11.67383-4.05553,15.16419-2.43833a93.77526,93.77526,0,0,0-14.16606,8.04211,12.33146,12.33146,0,0,1-1.09733-5.61005Z" fill="#4f2f22"/>
        <path d="M296.15786,218.09084c-.81215,4.46923-.76255,10.167-1.03533,14.97475-.868-.08149-1.73589-.15044-2.59763-.20685.45257-4.24358,1.07873-8.58745,1.27711-13.02534Q294.96443,218.912,296.15786,218.09084Z" fill="#381534"/>
        <path d="M295.12253,233.06559c-.0434.65189-.0868,1.29125-.13639,1.90554-.88655-.10656-1.77309-.188-2.64723-.257.0558-.61428.11779-1.23484.186-1.85539C293.38664,232.91515,294.25458,232.9841,295.12253,233.06559Z" fill="#381534"/>
        <path d="M293.802,219.8334c-.19838,4.43789-.82454,8.78176-1.27711,13.02534a90.0344,90.0344,0,0,0-14.35825.10029C283.4177,229.46137,288.47657,224.008,293.802,219.8334Z" fill="#fffbe4"/>
        <path d="M300.15039,210.50631c-3.49036-1.6172-12.41778-.68324-15.16419,2.43833l-.0992-.00627a12.33146,12.33146,0,0,0,1.09733,5.61005A93.77526,93.77526,0,0,1,300.15039,210.50631Zm-34.24034,26.08828c-.16738.05015-.341.08776-.51456.12537-7.30312.1379-16.02594-1.636-8.76-7.93556,2.16365-1.87419,4.87907-3.51646,7.35891-5.35931a42.39535,42.39535,0,0,0,9.1196.08148,42.23778,42.23778,0,0,0,.42777-5.54109.30093.30093,0,0,0-.13639-.351,11.26179,11.26179,0,0,1-4.5567,1.17842,11.18052,11.18052,0,0,0,1.76688-3.69824c15.13321-2.35058,17.05508-4.35014,21.63038-7.152a24.07249,24.07249,0,0,0,5.19525-4.10568,50.40347,50.40347,0,0,1,9.95655,6.895l-.29758.33222c-.0372.5328-.062,1.05933-.0868,1.58585a22.67982,22.67982,0,0,0-10.32852,3.19052c-.96093.54534-1.90327,1.14709-2.82081,1.79271a66.19066,66.19066,0,0,0-7.5635,6.356c-4.08553,3.89256-7.24112,7.0204-11.89082,9.45246h-.0062A38.75928,38.75928,0,0,1,265.91005,236.59459Z" fill="#eab492"/>
        <path d="M278.16665,232.959a90.0344,90.0344,0,0,1,14.35825-.10029c-.0682.62055-.13019,1.24111-.186,1.85539a98.18406,98.18406,0,0,0-18.31979.52026A24.1773,24.1773,0,0,0,278.16665,232.959Z" fill="#381534"/>
        <path d="M292.24592,207.94261c-4.5753,2.80189-6.49717,4.80145-21.63038,7.152a10.9798,10.9798,0,0,0,.33478-2.22522,48.94179,48.94179,0,0,0,15.92675-3.6857,28.88238,28.88238,0,0,0,8.915-6.51894l.35338.34475c-.0496.069.0062.15671.22938.26953.31618.15671.66956.34475,1.06633.55787A24.07249,24.07249,0,0,1,292.24592,207.94261Z" fill="#996750"/>
        <path d="M274.40969,233.44168c4.6497-2.43206,7.80529-5.5599,11.89082-9.45246a66.19066,66.19066,0,0,1,7.5635-6.356c0,.73338-.0248,1.46676-.062,2.20014-5.32544,4.17463-10.38431,9.628-15.63536,13.12563C276.84613,233.0844,275.58762,233.24737,274.40969,233.44168Z" fill="#381534"/>
        <path d="M286.22611,402.24455c-5.73462-7.56573-9.60316-15.93379-16.14993-22.56555-5.00927-5.07725-17.89822-10.53059-17.89822-10.53059C268.12951,365.82625,282.85354,390.88655,286.22611,402.24455Z" fill="#04323a"/>
        <path d="M273.41776,252.96089c-.0372-.40117-.0744-.80233-.11159-1.19723,4.5257.0188,8.84681-1.68615,13.31052-3.76093-4.27152,2.90845-8.06567,4.94562-12.176,4.98323A9.32678,9.32678,0,0,1,273.41776,252.96089Z" fill="#996750"/>
        <path d="M279.52436,264.53827c3.12459,1.25991,10.27272-3.04635,13.93668-5.20888a57.42535,57.42535,0,0,0,5.08366-3.42871c.56416-.069,1.12833-.14417,1.68629-.23193a71.56209,71.56209,0,0,1-9.63416,6.32462c-5.22626,2.78309-10.19213,6.71326-14.15367,1.7363-2.19466-2.758-2.65963-6.86369-3.0254-10.76878a9.32678,9.32678,0,0,0,1.02293.02507C274.3167,256.62152,275.74261,263.00882,279.52436,264.53827Z" fill="#996750"/>
        <path d="M273.54175,217.96548a42.23778,42.23778,0,0,1-.42777,5.54109,42.39535,42.39535,0,0,1-9.1196-.08148,21.9429,21.9429,0,0,0,4.85428-4.63221,11.26179,11.26179,0,0,0,4.5567-1.17842A.30093.30093,0,0,1,273.54175,217.96548Z" fill="#4f2f22"/>
        <path d="M268.79906,183.15811a27.11409,27.11409,0,0,0,1.5809-2.78935,6.33821,6.33821,0,0,1,2.9758,3.75466c1.10973,4.09314-2.49843,4.90174-8.05327,6.44372-2.07066.5704-4.11652,1.16588-5.933,1.47929A28.14432,28.14432,0,0,0,268.79906,183.15811Z" fill="#eab492"/>
        <path d="M271.3285,236.11821a29.6452,29.6452,0,0,1-5.51144.59548c.031-.03761.062-.07522.093-.1191a38.75928,38.75928,0,0,0,8.49344-3.15291h.0062c1.17793-.19431,2.43644-.35728,3.757-.48265a24.1773,24.1773,0,0,1-4.14753,2.27536A16.07816,16.07816,0,0,1,271.3285,236.11821Z" fill="#381534"/>
        <path d="M265.39549,236.72c.13639.00627.279,0,.42157-.00627-2.74022,3.50393-5.55483,6.50013-4.64969,9.27068a41.29193,41.29193,0,0,0-.372,7.49678,100.16055,100.16055,0,0,0-15.82755,18.35958c-1.25852,1.84912-2.44264,3.70451-3.54617,5.52856-.44017.72711-.89894,1.49183-1.37631,2.28163-2.34964,3.90509-5.05887,8.49969-7.45811,13.29487a69.34255,69.34255,0,0,0-5.61063,14.467c-6.0012-5.37186-17.96021-10.4115-23.68863-11.86572a87.44787,87.44787,0,0,0-16.33593-2.60758c2.66583-11.23263,9.39238-22.05156,15.57958-32.35649,4.4141-7.34634,10.11153-13.1507,16.07553-18.767,4.77369-4.49431,9.70856-8.86951,14.29626-13.8214a68.18089,68.18089,0,0,0-16.55911,13.2698c-4.12892-1.07187-8.15246-2.37565-10.84928-3.109-8.45-2.29417-15.05881-6.38731-21.71717-12.49881-17.30306-15.89618-18.48718-43.35093-14.62483-65.05774a119.39621,119.39621,0,0,1,5.59823-20.94209c7.69369-3.66063,14.77982-5.19007,25.30053-5.06471,7.19152.08776,14.941.75845,21.36379,3.98658l.32238.12537c-.20459.514-.39678,1.03425-.589,1.54824-.73775,1.987-1.90948,4.557-2.63483,7.16457a11.93835,11.93835,0,0,0-.341,6.46879c1.43211,4.78891,6.35458,5.70407,10.48351,7.86033a16.77454,16.77454,0,0,0-6.62736,9.23307c.88034,1.72376,3.18659,2.11239,5.85241,1.97449a15.75361,15.75361,0,0,0,22.29373,12.78714,17.32012,17.32012,0,0,0,1.95907,1.09694,4.90464,4.90464,0,0,0,1.45691,7.641c-6.28639,1.71122-13.90569,1.94941-17.923,6.55654.17359.42624.155.20685,0,.62682,6.50337,8.94474,22.60991,11.21383,32.57885,11.28278.86794.00627,1.77308-.0188,2.703-.07522a10.9798,10.9798,0,0,1-.33478,2.22522,11.18052,11.18052,0,0,1-1.76688,3.69824,21.9429,21.9429,0,0,1-4.85428,4.63221c-2.47984,1.84285-5.19526,3.48512-7.35891,5.35931C249.36955,235.084,258.09237,236.85786,265.39549,236.72Z" fill="#9a6075"/>
        <path d="M272.8536,173.27942a31.77158,31.77158,0,0,1-2.47364,7.08934,11.18777,11.18777,0,0,0-7.21013-1.25364c-1.73588-2.16253-3.34777-4.75757-5.04646-6.65057C263.06444,172.872,267.99932,173.26061,272.8536,173.27942Z" fill="#4f2f22"/>
        <path d="M265.36449,249.808a17.69341,17.69341,0,0,0,7.94168,1.95568c.03719.3949.07439.79606.11159,1.19723-4.68069-.33222-7.32792-1.39781-8.89641-2.51982C264.80033,250.22168,265.08551,250.01483,265.36449,249.808Z" fill="#996750"/>
        <path d="M270.38,180.36876a27.11409,27.11409,0,0,1-1.5809,2.78935c-2.12646-.21938-3.93674-1.92434-5.62923-4.043A11.18777,11.18777,0,0,1,270.38,180.36876Z" fill="#4f2f22"/>
        <path d="M265.91005,236.59459c-.031.04388-.062.08149-.093.1191-.14259.00627-.28518.01254-.42157.00627C265.56908,236.68235,265.74267,236.64474,265.91005,236.59459Z" fill="#381534"/>
        <path d="M264.52135,250.44107a8.54974,8.54974,0,0,1-2.49224-2.98994,10.47929,10.47929,0,0,0,3.25479,2.31924c.02479.01253.05579.02507.08059.03761C265.08551,250.01483,264.80033,250.22168,264.52135,250.44107Z" fill="#9a6075"/>
        <path d="M260.80779,181.03319a3.30662,3.30662,0,1,1-2.80841,3.272A3.06885,3.06885,0,0,1,260.80779,181.03319Z" fill="#36182d"/>
        <path d="M261.95471,247.36964c.0248.02508.0434.05015.0682.07522l.0062.00627a8.54974,8.54974,0,0,0,2.49224,2.98994c-1.25232.94023-2.49844,1.962-3.726,3.04008a41.29193,41.29193,0,0,1,.372-7.49678A4.0406,4.0406,0,0,0,261.95471,247.36964Z" fill="#9a6075"/>
        <path d="M260.79539,253.48115c.26038,5.34678,1.76688,10.58073,5.51764,14.47956a69.01789,69.01789,0,0,1-21.34519,3.88A100.16055,100.16055,0,0,1,260.79539,253.48115Z" fill="#7b4d60"/>
        <path d="M260.80779,181.03319a3.30662,3.30662,0,1,0,2.80842,3.272A3.06885,3.06885,0,0,0,260.80779,181.03319Zm-7.25972,4.651c1.11593-2.72667,3.98014-5.1462,7.73709-6.18672a13.57446,13.57446,0,0,1,1.88467-.38236c1.69249,2.11865,3.50277,3.82361,5.62923,4.043a28.14432,28.14432,0,0,1-9.42957,8.88832c-3.0564.514-5.44944.22566-6.1438-2.34431a5.86543,5.86543,0,0,1-.13019-2.43206A7.07066,7.07066,0,0,1,253.54807,185.6842Z" fill="#fffbe4"/>
        <path d="M259.36949,192.04643c-.39058.23193-.78735.45758-1.19653.68324a20.92535,20.92535,0,0,1-4.58149,1.74883,4.90464,4.90464,0,0,1-1.45691-7.641c.31.15044.63236.29461.96094.43251a5.86543,5.86543,0,0,0,.13019,2.43206C253.92005,192.27209,256.31309,192.56043,259.36949,192.04643Z" fill="#996750"/>
        <path d="M252.13456,186.83755a5.71151,5.71151,0,0,1,1.41351-1.15335,7.07066,7.07066,0,0,0-.45257,1.58586C252.76692,187.13216,252.44454,186.988,252.13456,186.83755Z" fill="#eab492"/>
        <path d="M253.54807,185.6842a5.71151,5.71151,0,0,0-1.41351,1.15335,17.32012,17.32012,0,0,1-1.95907-1.09694,17.53992,17.53992,0,0,1-3.94294-3.42871c-2.9634-3.50392-4.35211-6.74459-3.571-10.78758,5.12706.07522,10.30372.52026,15.46178.94023,1.69869,1.893,3.31058,4.488,5.04646,6.65057a13.57446,13.57446,0,0,0-1.88467.38236C257.52821,180.538,254.664,182.95753,253.54807,185.6842Z" fill="#eab492"/>
        <path d="M243.03356,169.694l.1054.03134a13.398,13.398,0,0,0-.47737,1.799c-.56416-.00627-1.12833-.01254-1.69249-.01254A8.77241,8.77241,0,0,1,243.03356,169.694Z" fill="#733d26"/>
        <path d="M240.9691,171.51178c-1.5313,1.86166-2.21945,4.19343-2.9944,6.5064a32.87083,32.87083,0,0,1-3.0936-6.05509,25.03833,25.03833,0,0,1,2.9882-.38863C238.90464,171.53058,239.93377,171.51178,240.9691,171.51178Z" fill="#4f2f22"/>
        <path d="M226.97662,80.01474c2.59143,1.00918,4.25912,3.12783,6.615,5.20261-.25419.37609-.50217.74592-.75015,1.1032a13.73929,13.73929,0,0,0-6.62117-4.53191C226.48686,81.17435,226.741,80.58514,226.97662,80.01474Z" fill="#996750"/>
        <path d="M233.59159,85.21735c-2.35585-2.07478-4.02354-4.19343-6.615-5.20261a25.25533,25.25533,0,0,0,2.21326-9.67185c.031-.9465.06819-2.09985.04339-3.30961a15.06531,15.06531,0,0,1,6.32359,5.34678C238.63805,77.25046,236.07142,81.53164,233.59159,85.21735Z" fill="#eab492"/>
        <path d="M232.90343,227.99461c-4.5877,4.95189-9.52257,9.32709-14.29626,13.8214l-.33477-.07522c-.64476-.15043-1.28332-.31341-1.92808-.47638A68.18089,68.18089,0,0,1,232.90343,227.99461Z" fill="#50303a"/>
        <path d="M226.97662,80.01474c-.23558.5704-.48976,1.15961-.75635,1.7739a10.90691,10.90691,0,0,0-2.49843-.45758c.23558-.608.47737-1.23484.70675-1.88673A8.861,8.861,0,0,1,226.97662,80.01474Z" fill="#996750"/>
        <path d="M191.37237,118.92778c7.94168-2.98367,17.92922-3.02755,24.79837-.7898a27.85249,27.85249,0,0,1,4.18472,1.67361,10.38677,10.38677,0,0,1,5.747,7.24605c.08679.32595.16739.66443.248,1.01545-1.70488,3.5102-3.24858,7.08308-4.61249,10.63089l-.32238-.12537c-6.42278-3.22813-14.17227-3.89882-21.36379-3.98658-10.52071-.12536-17.60684,1.40408-25.30053,5.06471a79.82472,79.82472,0,0,1,5.92681-12.55522C182.90993,123.32179,186.80327,120.63273,191.37237,118.92778Z" fill="#50303a"/>
        <path d="M218.384,96.18045c-7.48291,9.57782-1.69869,13.72111-1.82268,13.61455-.82455-7.50932,1.14072-8.788,8.08427-16.58568-3.50277,2.06224-12.98815,2.76428-15.63537-1.24111a29.588,29.588,0,0,1,3.34158-4.97069c3.63916-4.30626,7.66269-5.91092,11.37-5.66646a10.90691,10.90691,0,0,1,2.49843.45758,13.73929,13.73929,0,0,1,6.62117,4.53191,16.32424,16.32424,0,0,1,2.393,3.9239c4.82948,11.20129-5.778,22.02649-14.879,29.56714a27.85249,27.85249,0,0,0-4.18472-1.67361c-6.86915-2.23775-16.85669-2.19387-24.79837.7898-2.3-8.65013-8.98941-15.37592-9.91934-24.45229-.558-5.44707-.54557-12.44239,1.64289-17.833,1.60569,7.30873,7.79908,16.55434,14.25286,11.966a6.68821,6.68821,0,0,0,1.37011-1.32259,7.83405,7.83405,0,0,0,9.24359,2.53862,4.8325,4.8325,0,0,0-.16739,3.084C208.91721,96.9577,215.48258,97.44662,218.384,96.18045Z" fill="#eab492"/>
        <path d="M224.42859,79.44433c1.5747-4.35641,2.91381-9.45246,1.5933-13.68977a24.21656,24.21656,0,0,1,3.21138,1.27872c.0248,1.20976-.0124,2.36311-.04339,3.30961a25.25533,25.25533,0,0,1-2.21326,9.67185A8.861,8.861,0,0,0,224.42859,79.44433Z" fill="#996750"/>
        <path d="M214.09387,83.3933c2.85181-2.09358,6.615-4.16836,10.13633-3.96151.0682.00627.13639.00627.19839.01254-.22938.65189-.47117,1.27871-.70675,1.88673-3.70736-.24446-7.73089,1.3602-11.37,5.66646l-.248-.21939a11.59488,11.59488,0,0,0,1.19033-1.7739C213.58551,84.46516,213.85209,83.93237,214.09387,83.3933Z" fill="#996750"/>
        <path d="M224.2302,79.43179c-3.52136-.20685-7.28452,1.86793-10.13633,3.96151,2.90761-6.44372,2.13266-12.74954.45257-19.42518a40.75486,40.75486,0,0,1,11.47545,1.78644c1.32051,4.23731-.0186,9.33336-1.5933,13.68977C224.36659,79.43806,224.2984,79.43806,224.2302,79.43179Z" fill="#eab492"/>
        <path d="M213.6165,83.75059c.155-.1191.31618-.23819.47737-.35729-.24178.53907-.50836,1.07186-.79974,1.61093a11.59488,11.59488,0,0,1-1.19033,1.7739,10.013,10.013,0,0,1-4.14132,3.04635,9.01854,9.01854,0,0,1,1.97767-2.93979A29.94543,29.94543,0,0,1,213.6165,83.75059Z" fill="#996750"/>
        <path d="M211.74423,63.96812c2.31864,6.66938,3.0254,14.14108-.53317,20.47824a11.31731,11.31731,0,0,1-1.54989,2.1876c-3.0998,3.38484-6.68936,1.77391-9.68377-1.48556,2.44884-5.49095,1.84748-14.65507-.527-19.58815A60.16277,60.16277,0,0,1,211.74423,63.96812Z" fill="#eab492"/>
        <path d="M214.09387,83.3933c-.16119.1191-.32238.23819-.47737.35729a29.94543,29.94543,0,0,0-3.67635,3.1341l-.279-.25073a11.31731,11.31731,0,0,0,1.54989-2.1876c3.55857-6.33716,2.85181-13.80886.53317-20.47824.94234-.02507,1.87227-.02507,2.80221,0C216.22653,70.64376,217.00148,76.94958,214.09387,83.3933Z" fill="#996750"/>
        <path d="M218.384,96.18045c-2.90141,1.26617-9.46678.77725-10.5889-3.272a4.8325,4.8325,0,0,1,.16739-3.084,10.013,10.013,0,0,0,4.14132-3.04635l.248.21939a29.588,29.588,0,0,0-3.34158,4.97069c2.64722,4.00539,12.1326,3.30335,15.63537,1.24111-6.94355,7.79765-8.90882,9.07636-8.08427,16.58568C216.6853,109.90156,210.90108,105.75827,218.384,96.18045Z" fill="#996750"/>
        <path d="M209.94015,86.88469a9.01854,9.01854,0,0,0-1.97767,2.93979,7.83405,7.83405,0,0,1-9.24359-2.53862,9.96036,9.96036,0,0,0,1.25851-2.13746c2.99441,3.25947,6.584,4.8704,9.68377,1.48556Z" fill="#996750"/>
        <path d="M198.5267,65.79217c1.12213,5.77929,3.0192,14.01572-.67576,18.96133a8.72263,8.72263,0,0,1-1.52509,1.58586c-7.6689,6.19926-10.50211-6.95771-11.04768-13.5268a11.698,11.698,0,0,1,1.5995-1.68614C189.4567,68.90747,193.64142,67.05835,198.5267,65.79217Z" fill="#eab492"/>
        <path d="M198.87388,83.84461c.35957.45758.72535.89009,1.10352,1.30379a9.96036,9.96036,0,0,1-1.25851,2.13746,10.32985,10.32985,0,0,1-1.08493-1.64854,5.11752,5.11752,0,0,1,.45257-.70831A12.16291,12.16291,0,0,0,198.87388,83.84461Z" fill="#996750"/>
        <path d="M197.85094,84.7535c3.695-4.94561,1.79789-13.182.67576-18.96133.30378-.08149.61376-.15671.92374-.23192,2.37444,4.93308,2.9758,14.0972.527,19.58815-.37817-.4137-.74395-.84621-1.10352-1.30379a12.16291,12.16291,0,0,1-.78735,1.0844Z" fill="#996750"/>
        <path d="M191.03139,352.1741c4.11653,5.30917,4.00494,16.103,3.45318,24.85344a32.32828,32.32828,0,0,0-4.24672-.04387A91.03246,91.03246,0,0,0,191.03139,352.1741Z" fill="#04323a"/>
        <path d="M185.27817,72.81256c.54557,6.56909,3.37878,19.72606,11.04768,13.5268a8.72263,8.72263,0,0,0,1.52509-1.58586l.23559.17551a5.11752,5.11752,0,0,0-.45257.70831,10.32985,10.32985,0,0,0,1.08493,1.64854,6.68821,6.68821,0,0,1-1.37011,1.32259c-6.45378,4.58833-12.64717-4.65728-14.25286-11.966A15.42321,15.42321,0,0,1,185.27817,72.81256Z" fill="#996750"/>
        <path d="M174.41649,405.76728a66.41122,66.41122,0,0,1,5.64163,7.69736c-3.447,7.23978-9.83255,6.71325-13.16793,5.8357a53.72257,53.72257,0,0,0,8.36325-12.04123C174.98065,406.74512,174.70167,406.24993,174.41649,405.76728Z" fill="#04323a"/>
        <path d="M153.60446,402.36991c-8.62983-7.56573-19.88208-11.85945-29.975-18.77328-6.84435-4.68236-13.03154-10.01033-17.97881-16.943-3.98634-5.57244-9.26219-16.67971-16.34212-20.68509,13.73209-2.03717,25.6601,16.82387,35.73444,26.82166a34.57249,34.57249,0,0,0,4.33351,3.75466c15.45558,10.938,34.69911,11.709,45.04,29.22239.28518.48265.56416.97784.837,1.49183a53.72257,53.72257,0,0,1-8.36325,12.04123,14.02378,14.02378,0,0,1-2.15126-.73964l-.0062-.00627a37.76321,37.76321,0,0,0-6.91874-11.94721A42.19362,42.19362,0,0,0,153.60446,402.36991Z" fill="#4a2d32"/>
        <path d="M166.89019,419.30034c-.465.514-.92994,1.02172-1.41351,1.51691-.22938-.78353-.48357-1.54825-.73775-2.25655A14.02378,14.02378,0,0,0,166.89019,419.30034Z" fill="#4a2d32"/>
        <path d="M164.73273,418.55443l.0062.00627c.25418.7083.50837,1.473.73775,2.25655a67.43771,67.43771,0,0,1-7.71849,6.98905c-8.20206,6.28075-13.98008,7.18337-22.93849,4.66355a71.35717,71.35717,0,0,1-13.96768-5.49722c7.6379-1.42915,14.84183-2.57623,22.16354-7.02039a56.0853,56.0853,0,0,0,14.79843-13.345A37.76321,37.76321,0,0,1,164.73273,418.55443Z" fill="#372225"/>
        <path d="M157.814,406.60722a56.0853,56.0853,0,0,1-14.79843,13.345c-7.32171,4.44416-14.52564,5.59124-22.16354,7.02039a61.69765,61.69765,0,0,1-5.50523-3.23439c8.00987-1.00919,15.01541-1.0844,22.7215-6.45,6.29258-4.37521,10.73769-9.63424,15.53617-14.91834A42.19362,42.19362,0,0,1,157.814,406.60722Z" fill="#201215"/>
        <path d="M153.60446,402.36991c-4.79848,5.2841-9.24359,10.54313-15.53617,14.91834-7.70609,5.36559-14.71163,5.4408-22.7215,6.45-9.23739-6.02375-16.7513-14.25391-23.32286-24.59646-5.82762-9.17665-20.936-47.80762-4.80469-52.7031a14.08118,14.08118,0,0,1,2.08927-.47011c7.07993,4.00538,12.35578,15.11265,16.34212,20.68509,4.94727,6.93264,11.13446,12.26061,17.97881,16.943C133.72238,390.51046,144.97463,394.80418,153.60446,402.36991Z" fill="#372225"/>
      </g>
      <g>
        <path d="M452.88739,384.27393c1.7941-1.60035,4.15868-2.42334,6.05716.18359,1.61548,2.21851.248,4.12305-.89293,5.13232a21.06022,21.06022,0,0,1-1.64639-1.33374c.74339-.66821,1.45279-1.616.57029-2.71777-.66343-.82812-2.13546-.332-2.728.48706A17.95617,17.95617,0,0,1,452.88739,384.27393Z" fill="#381534"/>
        <path d="M471.59531,373.50562c-.31546.10131-.47272.15356-.78623.26-.29883.10571-.44775.15966-.74464.27-.01444-.00561-.01444-.00561-.01775-.01513C470.6624,373.80493,470.9722,373.7019,471.59531,373.50562Z" fill="#381534"/>
        <path d="M472.80727,380.937s-.22071-.86963-.29482-1.12012a30.16817,30.16817,0,0,0-1.68991-4.62182,5.9053,5.9053,0,0,1,1.10161-.41309.73966.73966,0,0,1,.14276-.0459,3.13785,3.13785,0,0,1,1.01578-.10351,23.903,23.903,0,0,0,2.10524,5.54883C474.2258,380.457,473.74933,380.6084,472.80727,380.937Z" fill="#381534"/>
        <path d="M456.40523,388.2561a21.06022,21.06022,0,0,0,1.64639,1.33374c-.75148.6648-1.11859,1.0083-1.83392,1.71656,0,0-.56028-.69751-.73337-.89185-.27676-.31714-3.13736-3.59741-4.69275-4.16162.81776-.81616,1.23729-1.21216,2.09581-1.979a17.95617,17.95617,0,0,0,1.36009,1.75146A23.503,23.503,0,0,0,456.40523,388.2561Z" fill="#381534"/>
        <path d="M466.27991,381.3772c.41476-.21216.4591-1.00318.09575-1.76367-.36336-.76026-1.0271-1.20752-1.469-.98145-.44183.22583-.47883,1.03125-.08844,1.77783S465.86516,381.58936,466.27991,381.3772Zm2.52638-2.86841a3.75471,3.75471,0,0,1-1.552,4.81494,3.66922,3.66922,0,0,1-4.75191-1.59155,3.597,3.597,0,0,1,1.43054-5.04737A3.52675,3.52675,0,0,1,468.80629,378.50879Z" fill="#381534"/>
        <path d="M475.14656,372.51245c.24918.75855.3726,1.13794.6171,1.89771a6.52044,6.52044,0,0,0-2.72048.04541c-.197-.80078-.271-1.31324-.271-1.31324C473.71436,372.86816,474.18947,372.74194,475.14656,372.51245Z" fill="#381534"/>
        <path d="M470.06444,374.03564a5.2855,5.2855,0,0,1,.7581,1.15943,6.19166,6.19166,0,0,0-2.08682,1.47461c-.2388-.76123-.35709-1.14234-.59145-1.905C468.90584,374.45776,469.29,374.312,470.06444,374.03564Z" fill="#381534"/>
        <path d="M472.39763,373.25464c.14961-.04541.22452-.06787.37454-.11231,0,0,.074.51246.271,1.31324a6.10177,6.10177,0,0,0-.97627.28051.73966.73966,0,0,0-.14276.0459,5.9053,5.9053,0,0,0-1.10161.41309,5.2855,5.2855,0,0,0-.7581-1.15943c.29689-.11035.44581-.1643.74464-.27.31351-.10645.47077-.1587.78623-.26C471.91525,373.40259,472.07573,373.3523,472.39763,373.25464Z" fill="#381534"/>
        <path d="M473.04318,374.45557a.95223.95223,0,0,0,.03951.177,3.13785,3.13785,0,0,0-1.01578.10351A6.10177,6.10177,0,0,1,473.04318,374.45557Z" fill="#381534"/>
        <path d="M449.9283,387.156a25.7231,25.7231,0,0,0,5.566,4.88354c-.7.72583-1.0406,1.09937-1.70158,1.86719,0,0-.613-.65064-.8008-.83057-.30072-.2937-3.40184-3.34375-5.00754-3.7688C448.73987,388.42334,449.129,387.99268,449.9283,387.156Z" fill="#381534"/>
        <path d="M461.215,385.61963c-.22222-.35816-2.51773-4.06494-3.9574-4.88013.9322-.66626,1.40735-.98633,2.37376-1.59936a25.65388,25.65388,0,0,0,4.23938,6.09424c-.84506.53051-1.2604.80786-2.07509,1.38549C461.79568,386.61987,461.3546,385.83984,461.215,385.61963Z" fill="#381534"/>
      </g>
      <g>
        <path d="M435.41058,365.0437c-2.36956-1.12573-2.89467-5.75464,1.33673-7.98535.28325.68164.42826,1.02026.7249,1.69312-1.49807,1.373-1.40854,2.91772-.62249,3.53466a2.13019,2.13019,0,0,0,3.02043-.85986c.73839.20825,1.10371.31909,1.82608.55395C439.73921,364.22681,437.86606,366.21021,435.41058,365.0437Z" fill="#381534"/>
        <path d="M454.20439,348.00855a4.30157,4.30157,0,0,0-.7608-1.15821c.29855-.10718.44829-.15942.74867-.262.45729-.156.687-.2312,1.14844-.37647.18095-.05688.27159-.085.45317-.14038.14979-.04541.22479-.06811.375-.11255,0,0,.07459.51246.26949,1.30347a9.34351,9.34351,0,0,0-.96642.27808q-.08253.02637-.16491.05322A6.78907,6.78907,0,0,0,454.20439,348.00855Z" fill="#381534"/>
        <path d="M442.82033,352.1145a19.78894,19.78894,0,0,0,1.78679,3.13159,10.58293,10.58293,0,0,0,2.95683,2.64209c-.89171.55518-1.32953.8462-2.187,1.45411,0,0-.70924-1.00782-1.59378-2.186-.32635-.43188-.6705-.8877-1.00386-1.3269a19.84856,19.84856,0,0,0-2.01523-2.29053C440.76984,353.54688,442.30643,352.44946,442.82033,352.1145Z" fill="#381534"/>
        <path d="M455.91379,352.6355a29.21408,29.21408,0,0,0-1.7094-4.62695,6.78907,6.78907,0,0,1,1.10265-.4148q.08237-.02673.16491-.05322a3.14163,3.14163,0,0,1,1.00608-.10108,23.54489,23.54489,0,0,0,2.108,5.54908c-.96192.27612-1.43819.428-2.37973.75781C456.2063,353.74634,455.98491,352.87671,455.91379,352.6355Z" fill="#381534"/>
        <path d="M441.45325,356.74658c.312.417.67183.8606,1.07371,1.30982a20.58715,20.58715,0,0,0,1.95105,1.94067c-.79686.596-1.18774.906-1.95189,1.5481,0,0-.51019-.73511-.66076-.93531-.25039-.33886-2.83576-3.85962-4.3326-4.5437.87514-.74121,1.32265-1.09936,2.23534-1.78857A20.23055,20.23055,0,0,0,441.45325,356.74658Z" fill="#381534"/>
        <path d="M449.53206,348.42749s3.18754,5.32813,4.53505,6.13184c-.91124.36963-1.36145.56714-2.24936.98681,0,0-1.15067-1.61767-1.742-2.70263-.2841.13891-.42555.20971-.70721.35351a16.56358,16.56358,0,0,0,1.05307,3.05835c-.88439.46216-1.32007.70581-2.17658,1.21753a44.08486,44.08486,0,0,0-2.29916-7.22754C447.3501,349.46265,448.06811,349.09814,449.53206,348.42749Zm-1.2047,2.42822c.07166.43189.10877.64722.1855,1.0774.17336-.07813.89427-.46119,1.09244-.51246a3.80017,3.80017,0,0,1-.71944-.79931C448.662,350.71362,448.55026,350.7605,448.32736,350.85571Z" fill="#381534"/>
        <path d="M455.3407,346.21191c-.46143.14527-.69115.22046-1.14844.37647-.30038.10254-.45012.15478-.74867.262l-.00331-.00952C454.19476,346.57446,454.575,346.44873,455.3407,346.21191Z" fill="#381534"/>
        <path d="M458.5441,345.31787c.24989.7583.37355,1.1377.61834,1.89746a6.58508,6.58508,0,0,0-2.72407.04712c-.1949-.791-.26949-1.30347-.26949-1.30347C457.11111,345.67993,457.58638,345.55176,458.5441,345.31787Z" fill="#381534"/>
        <path d="M441.45325,356.74658c.52476-.376.79-.55957,1.326-.91723.33336.4392.67751.895,1.00386,1.3269-.27972.199-.94014.65918-1.25618.90015C442.12508,357.60718,441.76526,357.16357,441.45325,356.74658Z" fill="#381534"/>
        <path d="M456.43837,347.26245a.95091.95091,0,0,0,.03966.177,3.14163,3.14163,0,0,0-1.00608.10108A9.34351,9.34351,0,0,1,456.43837,347.26245Z" fill="#381534"/>
        <path d="M454.20439,348.00855a6.3724,6.3724,0,0,0-2.07678,1.47509c-.24024-.761-.35928-1.14184-.59522-1.90454.758-.30664,1.14035-.45239,1.9112-.72876A4.30157,4.30157,0,0,1,454.20439,348.00855Z" fill="#381534"/>
      </g>
      <g>
        <g>
          <path d="M453.14543,370.07449l-.0048-.01553c-.00129.00543.00074.00879-.00056.01422-1.11262-.76037-2.2712-1.94536-3.90566-1.67658-2.21338.36245-1.37918,3.578-1.10172,4.99224,1.73214,1.09,3.65841,1.27444,4.46189.13626.5246-.74426.45515-2.54107.54549-3.45192Zm-6.78316,5.75164a11.365,11.365,0,0,1-.366-7.80306,11.4973,11.4973,0,0,1-3.24814-3.91263c1.68714.0685,4.34726.84023,5.65208.2525l4.61394-2.84645c1.11708-.9064,1.6484-3.647,2.36318-5.1973a10.72738,10.72738,0,0,1,1.8362,4.22439c.1546.63494.29807,1.30448.46668,2.02323l-.31287.59515a1.66365,1.66365,0,0,0-.61133.69145c-.75673,1.48837-.0009,2.96805.37413,4.27127l-.01609-.00394.01682.01273c-.002-.00337-.002-.00337-.00073-.00879.8836.19907,2.54872.822,3.41007.5448a2.32692,2.32692,0,0,0,1.41018-2.09488l1.12-.24257c.43325-.51688.92262-1.13772,1.44734-1.77574a4.25034,4.25034,0,0,1,.56577,1.30111,4.20738,4.20738,0,0,1,.08046,1.38326c-.27989,2.983-3.2675,6.36533-5.17807,7.85832-2.397,1.87628-7.79137,4.081-11.15464,2.985a4.36221,4.36221,0,0,1-.72036-.29977A4.2673,4.2673,0,0,1,446.36227,375.82613Zm10.903-1.88685c2.73657,1.51959,1.9581-2.03539,1.15112-3.64529.11248,1.09542.70411,4.63624-1.77381,2.52258.45335,2.03145-1.34959,1.96043-2.92008.37319C455.54312,376.19891,456.7987,375.6508,457.26532,373.93928Zm-.39113-3.48886c-.14635-.24252-.76266-.135-1.3723.24108-.6163.38021-.98941.88311-.84639,1.12768.14636.24251.766.133,1.379-.2452C456.6441,371.19788,457.01721,370.695,456.87419,370.45042Z" fill="#926a69"/>
          <path d="M464.51769,364.55629c-.52472.638-1.01409,1.25886-1.44734,1.77574l-1.12.24257a6.23561,6.23561,0,0,0-.157-2.23736c-1.04577-.589-3.16677-1.95215-4.426-1.17528l.31287-.59515c-.16861-.71875-.31208-1.38829-.46668-2.02323A9.83933,9.83933,0,0,1,464.51769,364.55629Z" fill="#926a69"/>
          <path d="M461.79337,364.33724a6.23561,6.23561,0,0,1,.157,2.23736,2.32692,2.32692,0,0,1-1.41018,2.09488c-.86135.27716-2.52647-.34573-3.41007-.5448-.375-1.30322-1.13086-2.7829-.37413-4.27127a1.66365,1.66365,0,0,1,.61133-.69145C458.6266,362.38509,460.7476,363.74826,461.79337,364.33724Zm-1.41617,2.191a.99229.99229,0,0,0,.16058-1.37019.96945.96945,0,0,0-1.27856-.48234.99794.99794,0,0,0-.16059,1.37019A.97768.97768,0,0,0,460.3772,366.52825Z" fill="#dbc68f"/>
          <path d="M460.53778,365.15806a.99229.99229,0,0,1-.16058,1.37019.97768.97768,0,0,1-1.27857-.48234.99794.99794,0,0,1,.16059-1.37019A.96945.96945,0,0,1,460.53778,365.15806Z" fill="#381534"/>
          <path d="M457.11405,368.12074l.01609.00394c-.0013.00542-.0013.00542.00073.00879Z" fill="#926a69"/>
          <path d="M456.03446,371.574c-.613.37816-1.2326.48771-1.379.2452-.143-.24457.23009-.74747.84639-1.12768.60964-.3761,1.226-.4836,1.3723-.24108C457.01721,370.695,456.6441,371.19788,456.03446,371.574Z" fill="#f5dae9"/>
          <path d="M456.64263,372.81657c2.47792,2.11366,1.88629-1.42716,1.77381-2.52258.807,1.6099,1.58545,5.16488-1.15112,3.64529-.46662,1.71152-1.7222,2.25963-3.54277-.74952C455.293,374.777,457.096,374.848,456.64263,372.81657Z" fill="#381534"/>
          <path d="M453.14063,370.059l.0048.01553-.00536-.00131C453.14137,370.06775,453.13934,370.06439,453.14063,370.059Z" fill="#926a69"/>
          <path d="M448.82206,371.11465a.97483.97483,0,0,1,1.2819.48029,1.00061,1.00061,0,0,1-.16725,1.37429.98325.98325,0,0,1-1.27856-.48234A1.00356,1.00356,0,0,1,448.82206,371.11465Z" fill="#381534"/>
          <path d="M448.82206,371.11465a1.00356,1.00356,0,0,0-.16391,1.37224.98325.98325,0,0,0,1.27856.48234,1.00061,1.00061,0,0,0,.16725-1.37429A.97483.97483,0,0,0,448.82206,371.11465Zm-.68937,2.27419c-.27746-1.41426-1.11166-4.62979,1.10172-4.99224,1.63446-.26878,2.793.91621,3.90566,1.67658-.09034.91085-.02089,2.70766-.54549,3.45192C451.7911,374.66328,449.86483,374.47883,448.13269,373.38884Z" fill="#dbc68f"/>
        </g>
        <g>
          <path d="M441.62609,377.25038a12.99863,12.99863,0,0,1,4.73618-1.42425,22.13275,22.13275,0,0,0,2.3437-.47984" fill="none" stroke="#381534" stroke-linecap="round" stroke-linejoin="round" stroke-width="0.62948"/>
          <path d="M449.85851,377.25608a8.282,8.282,0,0,0-1.0273.8279,42.54347,42.54347,0,0,0-4.15178,4.9834" fill="none" stroke="#381534" stroke-linecap="round" stroke-linejoin="round" stroke-width="0.62948"/>
          <path d="M463.07035,366.332c.43325-.51688.92262-1.13772,1.44734-1.77574a15.88613,15.88613,0,0,1,3.48991-3.42875" fill="none" stroke="#381534" stroke-linecap="round" stroke-linejoin="round" stroke-width="0.62948"/>
          <path d="M463.26465,367.90391a8.62387,8.62387,0,0,1,1.89927-.66325c1.7069-.429,3.66947-.58591,5.0936-.87746" fill="none" stroke="#381534" stroke-linecap="round" stroke-linejoin="round" stroke-width="0.62948"/>
        </g>
      </g>
    </g>
  </g>
</svg>
