<svg id="Background" xmlns="http://www.w3.org/2000/svg" xmlns:xlink="http://www.w3.org/1999/xlink" width="560" height="560" viewBox="0 0 560 560"><defs><symbol id="Cleopatra" data-name="Cleopatra" viewBox="0 0 357.815 536.277"><path d="M67.42279,403.52866q.94327-.13724,1.89441-.30041Q68.36606,403.39148,67.42279,403.52866Z" fill="#d7a42b"/><path d="M71.3515,402.8505q-.948.18942-1.88849.35236Q70.40363,403.03953,71.3515,402.8505Z" fill="#d7a42b"/><path d="M65.39624,403.79581q.95288-.11225,1.91412-.25085Q66.34916,403.68338,65.39624,403.79581Z" fill="#d7a42b"/><path d="M73.41089,402.40952q-.95234.21771-1.89722.408Q72.45877,402.62641,73.41089,402.40952Z" fill="#d7a42b"/><path d="M79.71948,400.68613q-1.01943.32464-2.03155.61621Q78.70022,401.00956,79.71948,400.68613Z" fill="#d7a42b"/><path d="M77.59583,401.32956q-.985.28363-1.9629.53663Q76.611,401.61194,77.59583,401.32956Z" fill="#d7a42b"/><path d="M75.49237,401.90336q-.96414.24865-1.9209.46862Q74.52856,402.151,75.49237,401.90336Z" fill="#d7a42b"/><path d="M33.31708,400.73905c.06769.02069.1344.042.20221.06262C33.45111,400.78092,33.38489,400.75986,33.31708,400.73905Z" fill="#d7a42b"/><path d="M65.33344,403.80314c-.65595.07672-1.30121.123-1.95087.18176l.0047.02063Q64.35562,403.91783,65.33344,403.80314Z" fill="#d7a42b"/><path d="M45.79968,403.52866c-.18207-.02368-.36383-.046-.546-.07135C45.43365,403.48423,45.619,403.5029,45.79968,403.52866Z" fill="#d7a42b"/><path d="M.11133,382.43882l.06366.05774Z" fill="#d7a42b"/><path d="M0,382.33671l.04047.03741Z" fill="#d7a42b"/><path d="M19.31067,354.64939c-.05383-.02887-.10791-.05817-.1615-.08618C19.20264,354.59086,19.2569,354.62089,19.31067,354.64939Z" fill="#d7a42b"/><path d="M92.5,374.01908a53.32336,53.32336,0,0,1-15.5097,6.36169l.00079-.00012c-1.39295,7.39453-.845,14.914,2.72919,20.30524,2.02984-.64636,4.07891-1.3819,6.14788-2.22736C111.60242,387.94266,147.76,355.26908,183.75,382.33671l5.50427-15.81763S156.83789,332.00046,92.5,374.01908Z" fill="#d7a42b"/><path d="M76.99109,380.38065a53.08591,53.08591,0,0,1-12.98187.74658c-1.67121,6.02863-2.62934,14.99146-.62195,22.8783a76.40573,76.40573,0,0,0,16.333-3.31964C76.14606,395.29465,75.59814,387.77518,76.99109,380.38065Z" fill="#323333"/><path d="M64.00964,381.12723c-2.36816-.26306-6.83191-1.37841-6.83191-1.37841-6.51106,5.43693-9.01106,15.43693-8.144,24.112a75.41607,75.41607,0,0,0,14.34889.124c-2.00055-7.88184-1.04309-16.83423.62665-22.85767Z" fill="#e6dfc4"/><path d="M57.17773,379.74882A47.72242,47.72242,0,0,1,44.2,373.73289a47.12864,47.12864,0,0,0-12.05963,26.64178,73.45819,73.45819,0,0,0,16.89337,3.48584C48.16669,395.18552,50.66675,385.18564,57.17773,379.74882Z" fill="#323333"/><path d="M44.2,373.73289a91.55585,91.55585,0,0,1-8.5628-6.18281c.04181.0351.08282.0702.12469.10529-9.753,8.16065-14.49475,15.03894-20.02631,25.58795a93.50261,93.50261,0,0,0,16.40674,7.117A47.12733,47.12733,0,0,1,44.2,373.73289Z" fill="#e6dfc4"/><path d="M18,354.01908C6.71851,360.88688.47943,370.20969,0,382.33671a84.67451,84.67451,0,0,0,15.72839,10.92C21.26294,382.7,26.00458,375.81956,35.76184,367.65537,28.81185,361.83126,22.67712,355.95377,18,354.01908Z" fill="#323333"/><path d="M174.08331,280.18574c21.83966,18.64117,22.22565,46.09793,19.5,74.83334,0,0-18.95227,34.73059-14.61889,54.73059,19.28558,23.60275,18.38857,61.07409,18.6357,103.93856l15.48319-.66915,10.33338-62c-4-18-3.0445-33.96945,4.30047-45h8.00116c5.05365,12.197,5.889,29.324,3.365,47,6,23.83334,11.5,59,11.5,59l15.50827.54144s-4.17489-75.04144,15.65842-102.2081c7.47076-21.04266-15-55-15-55-1.85066-28.37226-.68927-54.94363,13.851-68.72528l-59.51764-28.60806Z" fill="#d7a42b"/><path d="M190.34509,165.35325s-32.59021,27.41583-42.09021,50.16583c-9.20239,22.03732-11.42505,46.70746-10.25488,49,4.08331,8,21.7525,16.39535,36.08331,15.66666,29.5-1.5,33.12-11.8917,50.92346-10.6417s55.90992,39.6417,91.49323-2.775c8.8302-43.87633-32.65271-97.41667-47.1-101.41583Z" fill="#d7a42b"/><path d="M262.46521,284.0651c-15.51-4.64044-28.855-13.917-37.45844-14.52106-12.45477-.87445-17.97784,3.94654-30.26635,7.437l-.001.00043S205.75653,297.649,208.75,320.26908c4.14593,31.32882-10.25933,48.85432.08022,73.93033,1.57342,3.81593,5.72612,6.24538,16.38944,6.24568,16.82073.00047,22.28388-1.98657,22.28388-1.98657,8.76978-4.91425,12.32212-37.27525,6.99646-58.18944C249.31778,319.91816,258.872,292.261,262.46521,284.0651Z" fill="#e6dfc4"/><path d="M276.24346,216.1906a.16088.16088,0,0,0-.29613-.11753c-1.44949,2.49976-5.21109,9.42581-4.64552,13.071.69819,4.5,5.53966,14.87814,6.29643,28.22119.11733,2.06873,1.77381,3.64623,1.52676.65381-1.56659-18.97561-5.80176-26.23807-5.75-28.75C273.45592,225.34194,275.53308,219.104,276.24346,216.1906Z" fill="#936928"/><path d="M207.67151,272.3982c26.45759-8.22237,48.77335-14.51239,69.98474-20.09787l-.04474-1.91452C251.926,256.96949,227.7724,263.07585,207.67151,272.3982Z" fill="#936928"/><path d="M258.36469,229.17447c7.052,3.17792,15.56506,22.15491,15.56506,22.15491l2.92358-.75122c-.00561-.035-.01019-.07135-.01581-.10638l-1.06323-5.37287c-1.14471-4.919-2.54437-9.05053-3.49066-12.14648l-4.53363-.93335s-5.64105-19.87933-12.5-23.66669c-22.5-12.424-42.66669-3.16668-49.16669,0s-12.5,17.66669-12.5,17.66669a85.10894,85.10894,0,0,1,25.66669,6.5C241.75,226.28824,256.18781,227.86747,258.36469,229.17447Z" fill="#e6dfc4"/><path d="M166.12269,223.54829c23.11361.56431,41.35271,3.22427,52.845,8.83175a.0884.0884,0,0,1-.03457.1662l-5.49818.47128a.08458.08458,0,0,1-.03558-.00465c-14.71833-5.26582-28.48964-6.65974-47.29243-9.28729A.08943.08943,0,0,1,166.12269,223.54829Z" fill="#936928"/><path d="M181.21756,241.21659s.06117.28885.19913,1.05249c11.167-3.9744,24.75-6.83333,37.83331-9.75l-3-.33334C202.25,233.51908,191.79654,237.85266,181.21756,241.21659Z" fill="#936928"/><path d="M188.7057,212.472c-.94817,4.10937-3.40034,8.23954-6.62239,12.38039l2.66669.33334c2.69769-4.53008,4.28108-8.7893,4.32729-12.6749A.1879.1879,0,0,0,188.7057,212.472Z" fill="#936928"/><path d="M169.58333,208.18575c-1.33357,3.44424-6.04357,4.89545-9.16466,3.687s-4.57017-4.9802-3.2366-8.42445,5.73081-5.63123,8.8519-4.42278S170.9169,204.7415,169.58333,208.18575Z" fill="#323333"/><path d="M304.63672,216.12075a8.13576,8.13576,0,0,1-8.33169,8.53693c-4.85568,0-8.56714-3.62695-7.87723-8.53693.75743-5.39048,3.24912-8.73651,8.10446-8.795C301.72647,207.26326,304.63672,211.16046,304.63672,216.12075Z" fill="#323333"/><path d="M300.44361,232.64583c2.36-3.31763,7.03386-3.52751,10.279-1.21907s4.44946,7.73788,1.65235,10.69386a7.78516,7.78516,0,0,1-10.5,1.14846C298.37381,240.84152,298.08364,235.96346,300.44361,232.64583Z" fill="#323333"/><path d="M294.375,253.01908c-3.05287,5.21943,2.388,12.6768,8.5,8.37293,5.5-3.87293,2.625-8.75233.5-10.06263S296.25,249.81343,294.375,253.01908Z" fill="#323333"/><path d="M152.05115,231.70646a32.62164,32.62164,0,0,1,6.10125-5.318c.5608-3.017-.7807-6.33838-3.113-7.24139-2.66034-1.03-6.5401,1.17432-7.811,4.45654S146.25,231.7071,152.05115,231.70646Z" fill="#323333"/><path d="M147.73328,238.6229c-4.75783-.40341-6.585,5.38556-5.85574,7.99551.79167,2.83333,3.53913,4.52567,6.28881,2.419A13.65708,13.65708,0,0,1,147.73328,238.6229Z" fill="#323333"/><path d="M163.706,223.85241c4.25056-.12068,15.90029,7.08333,17.71074,18.41667-9.817,5.45685-24.40231,18.77957-32.19423,8.58334C140.17032,237.43574,159.45539,223.97308,163.706,223.85241Z" fill="#e6dfc4"/><path d="M162.17907,236.62941l.65424.52376c-5.69415,5.02329-9.75366,10.64438-9.23352,16.97135a3.4088,3.4088,0,0,1-1.09094-.43485C152.00885,245.93967,155.75255,242.06029,162.17907,236.62941Z" fill="#936928"/><path d="M153.5882,233.91694l.4381.45135c-3.81275,4.32877-6.20823,9.217-5.85995,14.66917a5.665,5.665,0,0,1-.40115-.85325C147.65491,240.56075,149.28473,238.58951,153.5882,233.91694Z" fill="#936928"/><path d="M277.49323,376.04014c-6.24323-.68773-8.90695,2.0599-8.74323,6.56225.33333,9.16669,11.36652,6.0025,12.27081,3.56922A94.25284,94.25284,0,0,0,277.49323,376.04014Z" fill="#323333"/><path d="M270.55062,398.45852c4.94938-5.27277,11.61605,3.074,8.19938,6.14389C273.22445,409.56717,267.85726,401.32788,270.55062,398.45852Z" fill="#323333"/><path d="M264.5,413.43575c-3.2963,3.55381,2.4752,9.82119,6.83333,6.25C275.25509,416.47214,269.83335,407.68575,264.5,413.43575Z" fill="#323333"/><path d="M193.04645,383.35239c.29389-4.157-3.28925-7.5719-8.74652-7.5166a123.17214,123.17214,0,0,0-3.71137,11.773C183.26636,390.30045,192.5,391.08158,193.04645,383.35239Z" fill="#323333"/><path d="M191.24585,399.20852c-5.38779-6.40689-12.62085,2.18556-8.19938,6.14389C188.581,410.30719,194.1875,402.70658,191.24585,399.20852Z" fill="#323333"/><path d="M197.625,412.83158c3.2963,3.55382-2.5,11-7.16186,6.66667C186.74947,416.04628,192.29165,407.08158,197.625,412.83158Z" fill="#323333"/><path d="M215.5,522.93575c2.58333-4.08334-2.41669-9.91667-2.41669-9.91667-24.83333,1.25-42.59534,1.21166-44.58331,2.08331-10.83333,4.75-16.42816,17.31731-9.403,19.08336C191.58333,542.35241,215.5,522.93575,215.5,522.93575Z" fill="#e6dfc4"/><path d="M174.83331,522.68882c-5.23537,2.635-10.01742,6.19986-10.47074,12.5994a3.21882,3.21882,0,0,0,1.35238.21243C167.58333,527.35241,171.42307,526.22875,174.83331,522.68882Z" fill="#936928"/><path d="M163.93751,522.68881c-3.92007,1.85908-6.07274,4.99873-6.72278,10.53559a2.49849,2.49849,0,0,0,1.47153.80874C159.03426,529.09375,160.87829,526.01994,163.93751,522.68881Z" fill="#936928"/><path d="M247.97255,523.25411c-2.58333-4.31737,2.61076-11.235,2.61076-11.235-.69848-.02057,40.98029,1.25909,43.38922,2.2027,11.11835,4.35516,16.47568,18.49871,9.403,20.17711C270.57777,542.182,247.97255,523.25411,247.97255,523.25411Z" fill="#e6dfc4"/><path d="M287.63924,522.243c5.23537,2.786,10.00851,6.4322,10.46184,13.19851a3.39429,3.39429,0,0,1-1.3752.2033C294.8575,527.0296,291.04948,525.98584,287.63924,522.243Z" fill="#936928"/><path d="M298.535,522.243c3.92007,1.96563,6.19284,5.39089,6.64472,11.26346a2.30829,2.30829,0,0,1-1.26381.73106C303.85335,529.02028,301.59426,525.76507,298.535,522.243Z" fill="#936928"/><g id="Head"><path d="M148.44371,45.88678c1.48536-16.23511-.84178-29.77889-4.54131-40.11874-26.3255-3.49786-44.09857,7.88947-46.97454,45.2041L139.614,59.35325C147.85768,58.25324,148.4894,50.24393,148.44371,45.88678Z" fill="#f3d28d"/><path d="M317.08331.01908c-4.69659,10.57037-8.33142,23.83642-8.63672,41.29455a34.43778,34.43778,0,0,1,4.63672,4.03876A47.76847,47.76847,0,0,1,319.9411,54.886L357.75,53.68571C358.973,13.62351,342.97229-.59683,317.08331.01908Z" fill="#f3d28d"/><path d="M346.44092,10.31815c-3.43323,2.21076-16.11151,10.90058-25.52967,24.33417-3.82794,5.46-.11462,12.95978,6.87952,13.43146,10.18775.68707,24.33808-2.13709,29.91889-3.37494C357.06281,28.58,353.09222,17.438,346.44092,10.31815Z" fill="#d3ac56"/><path d="M112.91,12.0796c3.2703,2.45517,15.29237,12.01339,23.49949,25.63862,3.33573,5.53785-1.22693,12.13057-8.405,11.781C117.54874,48.99009,103.418,44.75,97.85778,42.96173,100.18948,27.95409,105.392,17.98492,112.91,12.0796Z" fill="#d3ac56"/></g><path d="M313.08331,45.35239a34.431,34.431,0,0,0-4.62841-4.03271c.28295-16.17322,3.41638-28.756,7.61254-38.92176A11.59182,11.59182,0,0,1,317.08331.01908h-4c-9.03711,7.30359-13.04315,19.2973-13.90435,36.04449C276,24.76908,245.61926,27.27866,228.75,27.35239c-18.01941-.07873-49.96759-.967-70.19958,10.54114.25-13.94684-2.77308-24.43231-10.57081-31.67316l-4.07721-.45215a10.45029,10.45029,0,0,1,.78882,2.339c3.26722,10.116,5.1698,22.42511,3.67084,37.8711-17.22473,19.283-28.60437,67.25421,2.24616,93.677,10.37854,8.88892,22.29089,13.85242,41.09539,26.61334-.90136-6.03149-3.00366-21.61938,1.8797-29.24963,4.66669-7.29169,18.91669-14.375,18.91669-14.375.356-3.866,6.58331-13.45837,15.05621-18.62714,0,0,17.36048,13.08545,18.19379,18.62714,0,0,10.10132,4.60126,15.66669,6.70831,11.78717,4.46265,10.98065,21.7428,7.98559,35.99939,17.65967-11.56445,29.11115-17.23584,38.9895-25.69641C339.72034,112.82316,330.75,64.01908,313.08331,45.35239Z" fill="#d7a42b"/><g id="Layer_11" data-name="Layer 11"><path d="M206.78064,65.5787c-30.53064-3.55962-25.303,19.5523-47.58691,17.252,2.64831,4.29244,6.865,7.766,12.50775,10.495q-3.40357,2.23732-9.34485,1.2939a20.40131,20.40131,0,0,0,17.39581,6.61328L208.79336,67.879Z" fill="#202020"/></g><path d="M227.55619,104.017s17.36048,13.08546,18.19381,18.62713c0,0,10.10131,4.60128,15.66667,6.70833,20.25,7.66667,3.33333,53.16667,2,56.16667s-1.86709,9.59235-13.51218,10.16667c-7.65449.3775-28.32116.44086-37.40449-.75-5.85482-.76759-8.85685-4.87227-10.5-7.25-2.61385-3.78242-9.41667-15.5-10.08333-20s-3.66667-22.33334,1.66666-30.66667c4.66667-7.29167,18.91667-14.375,18.91667-14.375C212.856,118.77805,219.08333,109.18575,227.55619,104.017Z" fill="#e6dfc4"/><path d="M282.44983,157.09556c.58984-2.95929,1.738-9.49,1.30017-13.57648-1.56927-14.64777-13.301-12.53406-31.09149-24.62885a39.32542,39.32542,0,0,1-9.05695-1.24615h-.83587c1.63086,1.91,2.78466,3.67236,2.98431,5,0,0,10.10132,4.60126,15.66669,6.70831,11.78857,4.4632,10.97925,21.74378,7.98327,36.00086C274.17444,162.22666,278.492,159.53153,282.44983,157.09556Z" fill="#323333"/><path d="M177.25476,103.35239H176.704a23.12445,23.12445,0,0,0,1.13092,4.57526,19.58924,19.58924,0,0,0-7.04761,11.586c2.70081-3.45343,5.69446-6.19953,9.60944-6.71979a18.984,18.984,0,0,0,1.63092,1.96381,30.89649,30.89649,0,0,0-2.57367,10.82666,12.10436,12.10436,0,0,1,8.02-6.71869c.69049.382,1.413.73333,2.15155,1.06939a13.73568,13.73568,0,0,0-1.92157,9.01282c1.89087-5.34973,3.52252-7.5357,8.70007-8.31964v-.67609A28.8956,28.8956,0,0,1,177.25476,103.35239Z" fill="#202020"/><path d="M273.05487,90.81779c-1.61963-12.60938-13.57135-21.46479-26.695-19.77912a24.63629,24.63629,0,0,0-18.79406,13.65241,27.04722,27.04722,0,0,0-25.43763-17.8595c-14.21154,0-27.55889,12.11454-27.03839,27.03839.49347,14.14911,12.97553,26.78839,27.03839,26.78839,13.85279,0,22.419-6.137,25.6128-16.54651a23.90372,23.90372,0,0,0,24.484,12.58942C266.39343,114.88138,274.82446,104.59488,273.05487,90.81779Z" fill="#fff"/><path d="M291,80.89408c-5.28394,1.86194-12.85547-1.63587-21.04968-7.75226-7.66577-5.722-27.73493-11.69092-43.2395,9.47443.08374.18268.1593.36938.23907.5542l1.06622.6549a24.62925,24.62925,0,0,1,18.34381-12.78668c13.1236-1.68567,25.07532,7.16974,26.695,19.77912,1.76959,13.77709-6.66144,24.06359-20.82983,25.88348A24.59784,24.59784,0,0,1,240.76776,115.47c.62293.641,1.22394,1.27893,1.76624,1.90136,9.54559,2.63678,17.893,1.77393,23.924-2.00824a45.79985,45.79985,0,0,1,6.167,5.781c-.28656-3.38208-1.237-6.1695-3.22778-8.02533q.66631-.61413,1.27722-1.28919c2.15881.147,4.752,1.96546,7.45056,4.18952-1.01636-3.66058-2.29761-6.8595-4.37653-8.668.24958-.48981.47541-1.00085.69288-1.51916,2.2373-1.06312,4.78308-.62977,7.43365.31213a16.06031,16.06031,0,0,0-5.83093-5.93707,31.31312,31.31312,0,0,0,.40143-3.73816,16.63644,16.63644,0,0,0,9.9295-6.32477,10.77282,10.77282,0,0,1-6.375-1.5A24.0155,24.0155,0,0,0,291,80.89408Z" fill="#202020"/><path d="M206.97705,120.383c-12.0567,7.48718-23.38132,11.45667-26.852,18.51111-4.08869,8.31047-.4342,19.62073-.4342,19.62073,3.67688,2.26117,7.66418,4.80371,12.01306,7.75518-.90131-6.03051-3.00428-21.62005,1.87945-29.25091,4.66669-7.29169,18.91669-14.375,18.91669-14.375a11.8815,11.8815,0,0,1,1.34155-3.83557A30.89386,30.89386,0,0,1,206.97705,120.383Z" fill="#323333"/><circle cx="219.04167" cy="96.97528" r="8.70833" fill="#202020"/><circle cx="239.29167" cy="96.97528" r="8.70833" fill="#202020"/><g id="Layer_10" data-name="Layer 10"><path d="M212.5,122.64408c11.7854,1.40214,22.9668,1.59791,33.25,0,2.375,5.75,1.24609,12.5,1.24609,12.5-12.69531,10.14572-25.17163,8.18045-36.62109-.375C210.375,134.76908,210.06742,127.64408,212.5,122.64408Z" fill="#333"/><path d="M213.89849,125.22272l-.64849,4.29636c6.625,2.75,13.93564,2.65822,19.393,1.75v-3.77327A51.12287,51.12287,0,0,1,213.89849,125.22272Z" fill="#cccec8"/></g><g id="Layer_13" data-name="Layer 13"><path d="M224.01272,55.65472c.32394-2.03154,1.423-.68517,1.54737.17451,1.0046,6.943,1.88377,22.24069-.6434,22.35651-4.99612.229-19.35021-13.73474-32.93613-19.56361-.25643-.11-.13963-.54121.1303-.4705,11.64543,3.05061,20.56456,6.44876,30.18253,15.15075a.46136.46136,0,0,0,.77386-.2916C223.55379,67.00766,223.321,59.99254,224.01272,55.65472Z" fill="#2b2e33"/></g><g id="Spots"><path d="M308.11914,93.88822a14.78094,14.78094,0,0,0,14.56543,14.81543,14.09859,14.09859,0,0,0,4.66528-.80414,75.06805,75.06805,0,0,0,.975-27.44275,14.57022,14.57022,0,0,0-20.20569,13.43146Z" fill="#323333"/><circle cx="212.5625" cy="43.58158" r="7.5625" fill="#323333"/><circle cx="232.8125" cy="33.33158" r="4.3125" fill="#323333"/><circle cx="249" cy="43.14408" r="5.5" fill="#323333"/><ellipse cx="154.06494" cy="68.70658" rx="6.06006" ry="6.6875" fill="#323333"/><circle cx="157.75488" cy="118.37015" r="9.5" fill="#323333"/><circle cx="304.63672" cy="118.37015" r="6" fill="#323333"/><circle cx="305.2019" cy="68.47098" r="9.6731" fill="#323333"/><path d="M154.75,94.77445c0-8.53375-6.52118-15.45166-14.56543-15.45166a13.8755,13.8755,0,0,0-7.7254,2.36932,73.88752,73.88752,0,0,0,.02069,26.178,13.8736,13.8736,0,0,0,7.70471,2.356C148.22882,110.22611,154.75,103.30814,154.75,94.77445Z" fill="#323333"/></g><path d="M238.455,66.37675c2.26046-3.45637,9.88706-13.36411,15.58191-16.316,3.2965-1.70872,10.25568-3.10624,15.46206.9056a.4219.4219,0,0,1-.33456.74757,20.05963,20.05963,0,0,0-11.4207,1.26349c-5.74471,2.41882-15.38577,10.63418-18.9056,13.72646A.25413.25413,0,0,1,238.455,66.37675Z" fill="#2b2e33"/><polygon points="229.843 153.603 228.417 153.936 228.417 141.102 230.222 141.102 229.843 153.603" fill="#323333"/><path d="M207.8544,173.44958a.16361.16361,0,0,1-.07364-.31681c2.85087-1.04049,8.82024-3.36024,10.71924-4.78036,9.58333-7.16666,10.81919-11.02083,14.96824-12.65807,2.36255-.93227,19.14046,9.1443,19.44845,9.74141-2.22919,1.20833-15.60419-8.10417-19.16669-6.66667-3,1.25-11.8125,10.5-14.5625,11.75A65.76628,65.76628,0,0,1,207.8544,173.44958Z" fill="#381234"/><path d="M118.654,143.51815a.17864.17864,0,0,1-.0882-.34175C132.14816,137.94774,157,142.82589,157,142.82589c1.59569.36006,2.438,1.49455,1.43927,1.49455A207.05238,207.05238,0,0,0,118.654,143.51815Z" fill="#5d5e5e"/><path d="M112.27526,161.93737a.148.148,0,0,1-.09334-.279c14.92439-6.07057,46.75878-13.98138,84.40139-11.306,2.62272.34415,2.743,1.82815,1.66669,2C158.72566,151.08587,139.992,156.83193,112.27526,161.93737Z" fill="#5d5e5e"/><path d="M169.25,159.68575c1.03807-.28573.66248-1.30565-1.33331-1a86.9,86.9,0,0,0-37.16056,19.32157.161.161,0,0,0,.1901.25728C144.11492,170.95284,154.97491,164.33437,169.25,159.68575Z" fill="#5d5e5e"/><path d="M337.10856,144.92126a.17864.17864,0,0,0,.0882-.34175c-13.58232-5.22866-38.43416-.35052-38.43416-.35052-1.59569.36006-2.438,1.49456-1.43927,1.49456A207.05238,207.05238,0,0,1,337.10856,144.92126Z" fill="#5d5e5e"/><path d="M343.70609,163.18737a.148.148,0,0,0,.09334-.279c-14.92439-6.07057-46.75878-13.98138-84.40139-11.306-2.62272.34415-2.743,1.82815-1.66669,2C297.25569,152.33587,315.98934,158.08193,343.70609,163.18737Z" fill="#5d5e5e"/><path d="M286.73135,160.93575c-1.03807-.28573-.66247-1.30565,1.33331-1a86.9,86.9,0,0,1,37.16056,19.32157.161.161,0,0,1-.1901.25728C311.86643,172.20284,301.00644,165.58437,286.73135,160.93575Z" fill="#5d5e5e"/></symbol></defs><title>character-cleopatra-square</title><use width="357.81547" height="536.27668" transform="translate(162.18453 23.72332)" xlink:href="#Cleopatra"/></svg>