<svg id="Background" xmlns="http://www.w3.org/2000/svg" xmlns:xlink="http://www.w3.org/1999/xlink" width="560" height="560" viewBox="0 0 560 560"><defs><symbol id="Picasso-2" data-name="Picasso" viewBox="0 0 329.294 517.829"><path d="M45.71625,411.65562c-.24213.18677-.50159.37134-.73731.55878C20.12689,431.97624,0,426.4644,0,426.4644s15.0694,47.27826,67.62848,36.52453C44.65851,449.5709,42.10535,427.55033,45.71625,411.65562Z" fill="#fff"/><path d="M144.21631,396.485c-20.846-8.65552-45.30573-7.01715-65.90466-.78254-6.88923,23.52295.67291,38.48963,19.11492,49.1634,12.58881-14.75147,22.47156-33.77289,40.41309-35.89716A113.654,113.654,0,0,0,144.21631,396.485Z" fill="#5f6061"/><path d="M78.311,395.70451c-13.05359,3.9538-24.55732,9.74982-32.59479,15.951-3.6109,15.89484-1.05774,37.91565,21.91278,51.33368,2.48932-.50653,5.05231-1.12732,7.7146-1.90918,8.91064-2.61682,15.83081-8.88812,22.08294-16.21423C78.98511,434.19236,71.42285,419.22612,78.311,395.70451Z" fill="#ab8d68"/><path d="M178.47894,507.54771a16.22577,16.22577,0,0,0-1.6996-10.44037s-45.36022-4.64492-47.96706-3.89294c-8.66667,2.5-15,16.66666-8.33334,19.5C153.40612,526.70845,178.47894,507.54771,178.47894,507.54771Z" fill="#fff"/><path d="M241.18672,508.04771a16.22577,16.22577,0,0,1,1.6996-10.44037s35.75929-6.89294,47.96707-3.89294c8.75942,2.15258,13.641,16.53712,8.46058,18.671C268.97894,524.88106,241.18672,508.04771,241.18672,508.04771Z" fill="#fff"/><path d="M148.1006,275.4644l17.934,42.15612s-32.76033,12.6492-43.96262,28.25494c-14.59991,20.33894-11.2131,31.68369-18.61349,30.5538.8154,4.89812-1.06685,8.27321-6.53327,6.81975-4.47431-1.18966-14.65619-5.95492-9.77884-37.68712C94.34628,298.71937,148.1006,275.4644,148.1006,275.4644Z" fill="#fff"/><path d="M272.7783,273.04315l-15.70759,43.91716s27.80667,21.43873,32.47649,39.90576-.00481,23.89865,6.18556,24.54541c-.8403,5.15172.34868,8.3146,6.0687,7.15128,5.76859-1.1732,18.93524-13.28014,17.04472-44.64484C316.50481,305.07349,272.7783,273.04315,272.7783,273.04315Z" fill="#fff"/><path d="M308.98962,333.83818c4.24585,5.18139,7.75318,6.5495,9.56653,6.89624a70.54854,70.54854,0,0,0-7.84375-24.17621C307.20056,319.64915,303.41626,327.03685,308.98962,333.83818Z" fill="#939393"/><path d="M303.0623,339.87137c3.99461-1.042-2.64612-13.0189-6.87991-10.58447S297.4977,341.32285,303.0623,339.87137Z" fill="#8e8e8e"/><path d="M314.81107,359.02927c3.262-2.87966-1.93448-20.32219-7.90007-14.50073S311.16962,362.24387,314.81107,359.02927Z" fill="#939393"/><path d="M100.12933,327.45616c6.28571-5.15662,4.82257-12.36554,2.32343-16.3642A80.1776,80.1776,0,0,0,90.592,332.2664C92.646,331.99974,95.895,330.92985,100.12933,327.45616Z" fill="#939393"/><path d="M104.75919,334.53408c-3.71291-1.80468,5.14645-12.24777,8.821-9.03075S109.93139,337.048,104.75919,334.53408Z" fill="#8e8e8e"/><path d="M89.48343,351.01769c-2.63436-3.46315,5.88-19.54888,10.58893-12.6711S92.42419,354.88365,89.48343,351.01769Z" fill="#939393"/><path d="M281.00034,502.03469c5.68112,2.84887,10.20028,6.51729,10.6979,12.91683-.37439.1159-.88064.23962-1.42419.3656C289.44586,510.47068,286.01815,506.20662,281.00034,502.03469Z" fill="#4f4f4f"/><path d="M292.29408,501.64925c4.35435,1.644,6.35136,5.19933,7.01989,10.73619l-1.62479.64237C297.64509,508.22681,296.16319,504.76953,292.29408,501.64925Z" fill="#4f4f4f"/><path d="M137.43381,502.53468c-5.17543,2.84888-9.28176,6.377-9.73508,12.77651a6.28842,6.28842,0,0,0,1.30847.37112C129.76167,510.83588,132.86265,506.70662,137.43381,502.53468Z" fill="#4f4f4f"/><path d="M127.14536,502.14925c-3.67281,1.85908-5.78,5.14547-6.38906,10.68233a5.83286,5.83286,0,0,0,1.48062.60169C122.563,508.49388,124.2791,505.48038,127.14536,502.14925Z" fill="#4f4f4f"/><path d="M261.47894,309.2144H160.77319s-21.12805,89-12.98669,115.5c5.31811,17.31042,19.73389,27.08355,36.87384,31.307,6.16925-1.43463,14.602-2.27533,25.73236-2.64618,11.24469-.37469,19.33923.11554,25.2049,1.29047,12.29333-3.39673,22.74609-8.814,28.741-15.45129C287.37067,413.7144,261.47894,309.2144,261.47894,309.2144Z" fill="#ab8d68"/><path d="M132.45434,284.151s16.40264-49.34162,80.52537-46.80736S282.331,281.0523,282.331,281.0523s-5.69367-4.95531-7.35208-4.0879c0,0,4.28,30.1922-10.64036,41.75-27.10964,21-30.67866,25.91163-35.35964,39.5-5.74214-1.49424-7.15266-9.29259-7.15266-9.29259-7.6659,6.75-4.59734,17.29259-4.59734,17.29259a21.18112,21.18112,0,0,1-12.68828-19.25l-9.85356,10.75c-10.33067-33.5-49.45816-29-51.31753-78.64933A20.13413,20.13413,0,0,0,132.45434,284.151Z" fill="#212121"/><path d="M184.66028,456.0214c-17.14-4.22345-31.55567-13.99658-36.87378-31.307-2.39685-7.80182-2.25537-21.02265-.86438-35.793l-.00037.00079c-7.19281,25.04218-29.16681,39.98548-20.97735,64.54218,8.34875,25.0343,21.158,37.297,32.23333,42.32544l18.60163,1.8175c1.93768-3.44867-5.55042-15.14294-6.05042-29.14294C170.51007,462.3372,174.52948,458.37736,184.66028,456.0214Z" fill="#212121"/><path d="M273.63623,388.57c.99817,21.4602-.882,41.327-9.29767,50.64441-5.99487,6.63727-16.44763,12.05456-28.741,15.45129h-.00007c8.394,1.68134,12.21814,4.76648,14.13129,8.73987,3.98187,8.27008-8.78015,29.55249-6.84253,34.20178l18.20429-2.91394s35.98736-33.483,34.88836-50.729C294.90088,427.0471,278.88245,397.75785,273.63623,388.57Z" fill="#212121"/><path d="M155.58887,333.314c-3.08185,15.43872-6.72907,35.93737-8.53626,54.26367,4.98737-1.80951,24.932-10.20758,28.42633-29.86322C178.73553,339.39622,161.944,334.50108,155.58887,333.314Z" fill="#5f6061"/><path d="M266.50232,332.75676c-3.264.87127-28.09021,8.19616-20.77338,27.70764a43.54659,43.54659,0,0,0,27.82025,26.30731C272.52887,367.76152,269.3446,347.71141,266.50232,332.75676Z" fill="#5f6061"/><path d="M248.44911,403.9644c.6154,6.154,15.52983,18.5,19.52983,6.75S247.44911,393.9644,248.44911,403.9644Z" fill="#5f6061"/><path d="M251.21408,391.2144c7.54959-3.14879-4.48514-25-20.48514-18.5C219.15274,377.41723,236.22894,397.4644,251.21408,391.2144Z" fill="#5f6061"/><path id="Head" d="M293.52075.39451c-12.68231,1.13867-53.32342,27.91388-60.29181,48.81989-4.26629,12.79925-3.94494,51.94793-3.99347,60.89563-8.66769-2.843-24.64527-2.59723-32.51153,0-.04852-8.9477.27283-48.09638-3.99347-60.89563C185.76208,28.30839,145.121,1.53318,132.43866.39451c-12.45819,26.81989-4.20819,128.31989-4.20819,128.31989l19.70886,15.22436c-20.4461,34.48859-15.95886,82.27564-15.95886,82.27564s23.20213,45.00716,68.55388,67.62159c12.71924,6.34238,26.77049,6.42226,36.291.11934,21.4913-15.6318,51.22507-56.78652,57.15356-67.74093,0,0,4.48725-47.78705-15.95886-82.27564l19.70886-15.22436S305.97894,27.2144,293.52075.39451Z" fill="#ab8d68"/><g id="Facemassk"><path d="M278.97894,177.7144c0-14.50861-15.37707-30.16394-23-33.83338-12.16668,18.83338-35.80175,15.63831-35.80175,15.63831.897-20.5921,2.58508-40.965-6.20167-43.97162-8.7868,3.00659-6.75842,23.37952-5.86145,43.97162,0,0-23.63513,3.19507-35.80181-15.63831-7.62293,3.66944-23,19.32477-23,33.83338,0,10.16662,10.15789,21.20746,17,26.5-18.52546,10.965-24.84864,22.59045-26.66712,34.45978,10.223,15.005,30.62134,40.06884,60.88922,55.1618,12.71924,6.34241,26.2,10.19859,40.02361-2.62692,14.504-13.45681,30.55623-28.16307,47.51558-55.58036-2.42047-10.81128-9.15656-21.38891-26.09461-31.4143C268.821,198.92186,278.97894,187.881,278.97894,177.7144Z" fill="#5f6061"/></g><g id="Ears"><path d="M315.95612,17.47325C311.05347,6.49577,302.71161-1.83565,293.69672.35008S253.32056,30.6624,245.68219,52.79423c-3.90155,11.30438-1.49182,37.3313-3.36993,60.75348l.06268.05707a52.55089,52.55089,0,0,1,1.43964-5.39893l.01049-.02923q.41328-1.26014.88288-2.44831l.00012-.00036a30.68254,30.68254,0,0,1,6.26507-10.08936l.02527-.024q.76887-.79851,1.5979-1.52032c.11951-.1037.25067-.19257.37207-.29382.45014-.37543.90277-.74762,1.37946-1.08924l.00873-.00567q.90334-.64683,1.87036-1.21241c.2066-.12066.42969-.22046.64075-.33551.45117-.246.89831-.49707,1.36981-.7171.157-.0733.32672-.13031.486-.20068.5426-.23975,1.08679-.47754,1.65582-.6836.38568-.13964.79419-.25012,1.19208-.3742.3617-.11273.71167-.24036,1.08356-.34015.34241-.09186.70587-.157,1.05694-.23786a32.98031,32.98031,0,0,1,3.90162-.67327l-10.37153,20.743c6.18268-3.847,13.03132-6.941,24.70868-4.57569L263.648,121.18064c7.39227-1.9262,13.98254.51661,19.82794,7.01606a38.99018,38.99018,0,0,0-15.98627,1.79156q1.48014,1.5369,2.85358,3.15289c.05371.06287.10669.12623.16016.18928q1.22387,1.44625,2.36432,2.95019c.19445.2547.38513.51141.57611.76825q.86379,1.16492,1.68029,2.3598c.39606.576.78052,1.15778,1.16083,1.7428q.44155.682.86988,1.37134c.25592.41113.53.81244.7785,1.22741,8.094-.70013,35.54718-5.19348,46.79565-34.03582C334.47894,84.7144,327.22894,42.7144,315.95612,17.47325Z" fill="#212121"/><path d="M132.2627.35008c-9.0149-2.18573-17.35676,6.14569-22.2594,17.12317C98.73047,42.7144,91.48047,84.7144,101.23047,109.7144c11.24847,28.84234,38.7016,33.33569,46.79565,34.03582.24854-.415.52259-.81628.77851-1.22741q.42763-.68994.86987-1.37134c.38031-.585.76477-1.16681,1.16083-1.7428q.81793-1.19385,1.68029-2.3598c.191-.25684.38166-.51355.57612-.76825q1.14321-1.50147,2.36431-2.95019c.05347-.06305.10645-.12641.16016-.18928q1.37539-1.61379,2.85358-3.15289a38.99016,38.99016,0,0,0-15.98627-1.79156c5.8454-6.49945,12.43567-8.94226,19.82794-7.01606l-18.30273-17.08258c11.67737-2.36535,18.526.72864,24.70868,4.57569l-10.37152-20.743a32.98014,32.98014,0,0,1,3.90161.67327c.35107.08088.71454.146,1.05694.23786.37189.09979.72187.22742,1.08356.34015.39789.12408.8064.23456,1.19208.3742.569.20606,1.11322.44385,1.65582.6836.1593.07037.329.12738.486.20068.4715.22.91864.47113,1.36982.7171.21106.115.43414.21485.64074.33551q.96744.56506,1.87036,1.21241l.00873.00567c.47669.34162.92932.71381,1.37946,1.08924.1214.10125.25256.19012.37207.29382q.8301.72042,1.5979,1.52032l.02527.024a30.68254,30.68254,0,0,1,6.26507,10.08936l.00012.00036q.4704,1.18709.88288,2.44831l.0105.02923a52.55347,52.55347,0,0,1,1.43963,5.39893l.06269-.05707c-1.87812-23.42218.53161-49.4491-3.36994-60.75348C172.63885,30.6624,141.27765,2.53581,132.2627.35008Z" fill="#212121"/></g><g id="Nose"><rect x="214.18647" y="250.76128" width="2.36714" height="19.53645" fill="#323333"/><path d="M192.64561,224.7144c15.52192,3.65478,30.6083,3.89666,45.16668,0,2.97244,4.88037,3.65432,10.47894,2.74569,16.57611-15.32241,13.664-32.0032,11.91134-49.579,0C188.8429,235.68211,189.76373,230.168,192.64561,224.7144Z" fill="#231f20"/><path d="M195.20612,228.52705c5.73611,2.19907,17.33064,3.02465,25.43948,2.63464v5.21936c-9.41226,1.8523-21.36946.15525-25.8368-2.16665A14.29743,14.29743,0,0,1,195.20612,228.52705Z" fill="#cccec8"/><path d="M159.2624,238.478a.54259.54259,0,0,1-.6687-.8468c3.49372-3.42675,11.54966-10.40926,16.21858-7.08345,7.84641,5.58922,15.245,28.27214,17.83333,31.66667,5.08333,6.66666,30.01461,8.11229,36.66667,6.41666,8.5-2.16666,19.91666-17.36285,21.16666-16.75,1.77382.86968-10.08333,17.41667-19.33333,20.08334-8.06031,2.32369-34.67577,1.16666-41.33789-6.16667s-11.41211-32.11646-17.49544-32.9498C167.78577,232.22786,162.42878,236.51679,159.2624,238.478Z" fill="#381234"/><g id="Layer_10" data-name="Layer 10"><path d="M160.75758,226.96234h0a1.22963,1.22963,0,0,0-1.176-1.42643c-22.77111-.34408-36.619,4.442-49.47875,11.35951-.35886.193-.02883.53078.24334.43063a140.14708,140.14708,0,0,1,49.21733-9.33425A1.23,1.23,0,0,0,160.75758,226.96234Z" fill="#4a4a4b"/><path d="M143.19678,237.509c-7.97751,3.79035-15.45666,9.75561-23.48981,18.23761a.22.22,0,0,1-.3438-.27156,52.635,52.635,0,0,1,22.971-19.97969A1.09556,1.09556,0,0,1,143.19678,237.509Z" fill="#4a4a4b"/><path d="M259.09321,227.95663h0a1.23721,1.23721,0,0,1,1.17635-1.42192c21.48014-.75388,35.72941,3.85833,47.36707,10.87253.36246.21846.03256.78453-.36376.63609a132.1261,132.1261,0,0,0-46.98454-9.05085A1.231,1.231,0,0,1,259.09321,227.95663Z" fill="#4a4a4b"/><path d="M276.81377,236.7538h0a.81832.81832,0,0,0,.20059,1.19613,72.61415,72.61415,0,0,1,19.16724,18.17973c.245.35084.79815-.01521.59975-.39437a44.91109,44.91109,0,0,0-18.92842-19.20748A.83756.83756,0,0,0,276.81377,236.7538Z" fill="#4a4a4b"/></g></g><g id="Eyes"><path d="M168.14561,197.11247c12.69765,13.457,39.58936,3.76859,39.58936-18.36652,0-12.59307-10.2691-21.98757-22.878-22.80177C165.81228,154.7144,151.88148,179.87564,168.14561,197.11247Z" fill="#323333"/><path d="M166.73012,176.49662c0,11.38582,8.30951,20.61585,19.69533,20.61585,12.05125,0,21.53637-7.79851,21.53637-20.61585A20.61585,20.61585,0,0,0,187.346,155.88077C173.29925,155.88077,166.73012,165.1108,166.73012,176.49662Z" fill="#fff"/><circle cx="197.20518" cy="178.58136" r="7.33523" fill="#212121"/><path d="M262.64561,198.2144c-12.92259,13.457-40.26912,2.66667-40.26912-19.46844,0-12.59308,10.451-21.98758,23.28328-22.80178C265.04181,154.7144,279.19785,180.97757,262.64561,198.2144Z" fill="#323333"/><path d="M264.33858,176.49662c0,11.38582-8.4567,20.61585-20.04422,20.61585-12.26473,0-21.91787-7.79851-21.91787-20.61585a20.80085,20.80085,0,0,1,20.981-20.61585C256.81228,155.88077,264.33858,165.1108,264.33858,176.49662Z" fill="#fff"/><ellipse cx="233.0928" cy="178.58137" rx="7.46517" ry="7.33523" fill="#212121"/></g><path d="M299.5059,367.44929c-.4279,6.11323-.55707,10.506-3.77314,13.96219a4.32066,4.32066,0,0,0-.21326,1.88788C299.68175,380.61805,300.81745,374.82534,299.5059,367.44929Z" fill="#5f6061"/><path d="M300.11288,388.88581a2.484,2.484,0,0,0,1.7464-.34915c4.53647-4.96515,6.84559-10.17749,6.57263-17.02343A37.839,37.839,0,0,1,300.11288,388.88581Z" fill="#5f6061"/><path d="M99.72062,362.31162c.24264,6.12382.52183,10.66143,3.7379,14.11764a4.07565,4.07565,0,0,1,.1792,1.83474C99.47547,375.58269,98.21346,369.58962,99.72062,362.31162Z" fill="#5f6061"/><path d="M99.108,383.63952a2.35093,2.35093,0,0,1-1.71085-.309c-4.17757-4.96515-6.39361-10.18214-5.95-17.06354C93.023,374.87961,95.56688,378.71011,99.108,383.63952Z" fill="#5f6061"/></symbol></defs><title>character-picasso-square</title><use width="329.29409" height="517.82871" transform="translate(190.70591 42.17129)" xlink:href="#Picasso-2"/></svg>