<svg xmlns="http://www.w3.org/2000/svg" xmlns:xlink="http://www.w3.org/1999/xlink" width="600" height="599.47198" viewBox="0 0 600 599.47198">
  <defs>
    <symbol id="Jed_and_Amanda_2" data-name="Jed and Amanda 2" viewBox="0 0 349.73 269">
      <g>
        <polygon points="10.816 131.213 11.579 127.334 30.521 160.382 25.33 161.641 10.816 131.213" fill="#bba26b"/>
        <path d="M316.35557,162.87419s-4.34439,15.96221-33.83644,29.333c-19.23556,8.72082-48.738,15.47735-96.19567,18.9541C125.08532,215.64762,47.60815,238.464,47.60815,238.464L15.02106,192.41948l7.20991-7.4367-11.88049-1.48245L0,167.78512l30.52053-7.40277-18.9411-33.04786h4.04629L36.599,157.877c88.954-17.61464,157.2107-4.84879,269.94441-8.80731Z" fill="#927b52"/>
        <path d="M54.25913,173.57045s-24.60337,2.52391-46.18077,6.48012l2.27213,3.44977c15.51542,0,45.14988-6.36133,45.14988-6.36133Z" fill="#745e37"/>
        <path d="M188.63616,165.53525v5.0818l6.62843,7.73316c13.82882-5.51183,30.27057-6.92655,47.9456-6.40747v-9.05886C227.24358,160.38494,208.60785,161.94445,188.63616,165.53525Z" fill="#745e37"/>
        <path d="M282.51916,192.20719a101.13382,101.13382,0,0,0,14.78479-8.15406H282.75982L280.934,192.909C281.46874,192.67624,281.9995,192.44278,282.51916,192.20719Z" fill="#745e37"/>
      </g>
      <path d="M56.24,167.17108S2.7721,185.50924,9.17941,238.97714c4.207,35.10641,46.81714,35.57278,51.92131,20.98946,6.18636-17.67533-7.512-22.53605-11.04709-41.3063-4.4747-23.75943,14.04379-31.74745,14.04379-31.74745l5.7355-11.9479Z" fill="#ad4e34"/>
      <path d="M55.7341,193.484a25.811,25.811,0,0,1,8.36334-6.57116L69.83291,174.965,56.24,167.17108a81.94841,81.94841,0,0,0-18.57117,9.9931C51.06123,177.28871,55.3548,185.87585,55.7341,193.484Z" fill="#861b21"/>
      <path d="M13.58865,205.76635c7.08732,11.30876,22.55318,13.73074,35.86511,8.24481a29.63265,29.63265,0,0,1,1.946-13.40869c-6.83392-6.24957-19.60454-10.43305-27.40888-11.18121A62.859,62.859,0,0,0,13.58865,205.76635Z" fill="#861b21"/>
      <path d="M61.10073,259.96661c5.57788-15.93683-5.00714-21.46-9.735-36.15009-3.56914,21.72894-34.98329,23.16013-42.64514,3.25617a71.63242,71.63242,0,0,0,.45886,11.90448C13.38638,274.08355,55.99655,274.54992,61.10073,259.96661Z" fill="#861b21"/>
      <path d="M90.27958,127.58526c-7.56322,17.96265-31.65667,41.49836-25.33442,63.54872l44.9988-7.01365Z" fill="#ad4e34"/>
      <path d="M57.13893,163.41718V154.83s-12.79559-22.57881-8.43711-38.65031c3.23865-11.94224,43.82658-22.96992,83.94082-35.59422C173.45473,67.74159,213.77648,53.403,213.77648,53.403c6.46307-.93379,7.05631,4.725,4.95414,6.69678,8.709-1.90979,11.89071,1.91938,9.33026,7.29013,2.26384,1.55044,1.57172,5.10991-1.0734,6.69,0,0,3.89353,4.73623-5.60168,7.00616-4.943,7.35884-43.1796,15.17533-60.20552,27.22692-9.71648,7.34918-20.69376,40.35349-18.541,57.37965s14.77992,32.09779,12.75462,39.3363c-1.45349,5.19486-8.02459,12.12382-15.31906,28.96405,0,0,12.01776-5.08828,17.07625-3.327s3.94626,10.99462,1.22754,11.93789c-5.86787,2.03587-22.47873,1.937-31.674-3.30334-1.41778-5.47969-.59324-32.72736-13.53859-32.92723-9.51071-.14684-6.10081,10.889-7.91711,12.06477-3.50039,2.266-18.68722,12.95252-17.89623,17.303,0,0,14.46806-2.81432,17.13079-1.053s.53962,10.06873-.51626,11.43845c-6.62823,8.59838-34.80738,2.46818-41.76185-8.41523,2.28163-8.3624,11.70043-20.06421,2.73984-46.57731.84431-16.43409,26.22421-23.28866,26.22421-23.28866l-2.32091-38.55349-13.33533,5.87109s10.0214,22.55044,6.10734,32.53129S57.51,176.06463,52.02877,172.9336C47.5929,170.51468,50.68632,162.32623,57.13893,163.41718Z" fill="#060907"/>
      <path d="M215.80083,64.45234c-3.5422-2.37616-11.97862,1.9723-9.107,10.86944,2.47185,7.65866,9.61974,5.49619,11.07391,3.30819C220.72231,74.18436,219.63248,67.02267,215.80083,64.45234Z" fill="#6c585a"/>
      <path d="M215.59247,56.02442c-2.76848-1.96135-6.56884,4.24182-3.65835,4.90707C215.39472,61.72249,217.80214,57.58988,215.59247,56.02442Z" fill="#6c585a"/>
      <path d="M219.64945,65.8683c-.3955-2.81457,5.9164-5.41266,6.42682-2.27884C226.86726,68.44593,219.9842,68.25061,219.64945,65.8683Z" fill="#6c585a"/>
      <path d="M226.80915,69.74c-2.60293-1.78395-7.03939,2.14251-4.16739,3.017C226.0566,73.79675,228.88669,71.16391,226.80915,69.74Z" fill="#6c585a"/>
      <path d="M225.80332,76.09155c-.6828-1.71258-5.45543.49345-4.50962,2.17964C222.19162,79.872,226.52643,77.90523,225.80332,76.09155Z" fill="#6c585a"/>
      <path d="M84.52908,109.25213v-5.94495a8.94,8.94,0,0,1,4.3194,4.62384,14.92781,14.92781,0,0,0,2.72644-6.46679l2.64221,4.54022a49.83377,49.83377,0,0,1,12.1817-7.32111L97.0469,91.71C84.15823,95.8598,72.61184,99.9085,64.016,103.96179,73.49624,104.29809,80.17947,106.145,84.52908,109.25213Z" fill="#ad4e34"/>
      <path d="M66.49455,168.28248h1.63676c-.9328,2.75747-3.02717,5.77015-6.0413,6.96325l-1.057-.08136C64.23554,173.46892,66.348,170.54305,66.49455,168.28248Z" fill="#6c585a"/>
      <path d="M73.79447,168.28248h1.682c-.84339,2.75747-2.70278,5.58868-5.428,6.78178H68.516C71.41151,173.36881,73.662,170.54305,73.79447,168.28248Z" fill="#6c585a"/>
      <path d="M94.07781,250.11742l1.2705-.186c.73265-2.81727.63407-6.7351-1.23166-9.386l-.87657.311C94.98775,244.03068,95.19531,248.14692,94.07781,250.11742Z" fill="#6c585a"/>
      <path d="M100.06547,248.88378l1.24589-.458c.73265-2.81727.63407-6.4851-1.23165-9.136l-.87657.061C100.9508,242.52512,101.183,246.91328,100.06547,248.88378Z" fill="#6c585a"/>
      <path d="M149.77365,243.84907l1.39341-.09455a11.17581,11.17581,0,0,0-1.1633-8.36756l-.943.275C150.54795,238.46814,150.72457,242.10707,149.77365,243.84907Z" fill="#6c585a"/>
      <path d="M154.67872,243.38617l1.089-.13514a10.11681,10.11681,0,0,0-1.06433-7.952h-.979A11.0647,11.0647,0,0,1,154.67872,243.38617Z" fill="#6c585a"/>
      <polygon points="84.261 95.929 100.824 101.464 102.853 100.442 88.667 94.463 84.261 95.929" fill="#861f20"/>
      <path d="M80.69384,35.18468S78.78094,2.92032,88.05476.40438c12.0488-3.2688,36.62053,14.35377,36.62053,14.35377Z" fill="#ffe3bd"/>
      <path d="M149.33434,17.7663s28.03113-6.09352,32.572-3.00815c8.34942,5.67313-5.70048,38.64479-5.70048,38.64479Z" fill="#ffe3bd"/>
      <path d="M112.1903,15.19131S100.90868,5.91552,94.06253,7.01579C83.45043,8.72131,86.1161,32.01648,86.1161,32.01648Z" fill="#31130f"/>
      <path d="M156.74114,23.29354s19.18542-8.12071,23.455-3.165-4.88385,29.35106-4.88385,29.35106Z" fill="#31130f"/>
      <path d="M184.66672,74.9336s-12.20261-50.56535-39.933-60.35947c-23.23649-8.20693-45.537,4.79613-62.01567,18.03423-19.13837,10.85735-24.291,22.81883-24.291,22.81883l6.62482.368-7.913,12.8816,8.64907.368-5.70471,8.097s37.19877,28.8627,71.50254,28.86258c23.35773-.00007,50.50457-19.10938,50.50457-19.10938l-2.20828-5.15264,3.86448-.184-2.39229-6.07275Z" fill="#ad4e34"/>
      <path d="M111.88763,16.0888s-7.313-4.51863-9.75072-3.03224.05946,4.22135.05946,4.22135-4.34026-.218-5.64829,1.80348.35674,6.34194.35674,6.34194Z" fill="#ad4e34"/>
      <path d="M157.09035,23.78594s12.35127-.99115,12.885,2.13479a3.73554,3.73554,0,0,1-2.13479,4.19334s2.91613-.30862,2.9693,1.90241-4.49415,3.66328-4.49415,3.66328Z" fill="#ad4e34"/>
      <path d="M131.96559,101.40245c20.31857,1.44871,29.93092-22.97835,25.18547-30.68633S137.31794,62.188,130.40345,65.053C120.62589,69.10422,110.00735,99.83683,131.96559,101.40245Z" fill="#ffe3bd"/>
      <path d="M145.128,73.61413c-.31871,3.597-1.26546,7.70741-3.68145,10.88019-.97875,1.28535-15.94546-5.90024-15.94546-5.90024l-.29289-5.9357h-1.157v6.94175s16.81694,8.32884,18.06826,6.77033a23.55959,23.55959,0,0,0,4.345-12.37809Z" fill="#861f20"/>
      <path d="M123.1162,43.86388s-6.60967-8.26209-7.88077-8.07143-.44488,5.33858.31778,5.91057,5.275,3.30484,5.275,3.30484Z" fill="#861f20"/>
      <path d="M119.1199,46.08829s-11.70168-5.97413-11.76523-3.94038.06355,4.1946,1.716,4.95725,8.707.44488,8.707.44488Z" fill="#861f20"/>
      <path d="M116.76074,49.0118s-10.55.25422-10.35939,2.73285,1.33465,2.7964,3.05062,2.7964,6.991-4.51238,6.991-4.51238Z" fill="#861f20"/>
      <path d="M165.34834,53.58621s9.73235-.384,9.00606,2.32415c-.69573,2.5942-2.27573,2.85676-3.63148,2.37256a49.84042,49.84042,0,0,1-5.37458-3.05044Z" fill="#861f20"/>
      <path d="M159.24745,49.08318s7.79558-5.6651,9.15133-5.56826,1.9852,3.53463.24209,4.16409-9.05448,2.85676-9.05448,2.85676Z" fill="#861f20"/>
      <path d="M161.21789,51.35357s9.05835-3.59446,10.02288-2.56624c.78741.8394.62945,2.9536-.29052,3.34095s-9.15132.33894-9.15132.33894Z" fill="#861f20"/>
      <path d="M115.57991,58.93083c-6.17511,5.54242-12.40007,6.60221-18.69562,1.312-2.87311,10.5672.8061,24.08219,8.77265,41.08733l5.0892,1.60916c-4.35511-10.02238-6.66462-20.186-2.38209-30.06875,2.132-4.9199,10.75115-4.59144,18.53162-6.23186Z" fill="#ffe3bd"/>
      <path d="M158.711,70.90257s3.8508,2.74147,2.50689,8.709c-2.80688,12.46374-12.01869,23.44724-12.01869,23.44724l4.18152-1.38993c9.46673-8.38023,17.44346-17.78461,22.82518-28.14237-5.09745.66649-9.456-.33067-11.919-5.59561Z" fill="#ffe3bd"/>
      <ellipse cx="127.42228" cy="55.49735" rx="13.26224" ry="12.43356" fill="#31130f"/>
      <ellipse cx="128.29808" cy="54.78007" rx="12.38644" ry="11.71628" fill="#fdf2f1"/>
      <ellipse cx="125.54275" cy="54.23623" rx="6.42284" ry="6.16045" fill="#060907"/>
      <circle cx="129.13285" cy="52.2021" r="2.45297" fill="#fdf2f1"/>
      <circle cx="157.55279" cy="60.82645" r="11.60939" fill="#31130f"/>
      <ellipse cx="157.15106" cy="60.09973" rx="10.32152" ry="10.84861" transform="translate(-4.8862 14.79675) rotate(-5.30837)" fill="#fdf2f1"/>
      <ellipse cx="155.39387" cy="58.12796" rx="4.89988" ry="4.92577" fill="#060907"/>
      <ellipse cx="158.1327" cy="56.50151" rx="1.87134" ry="1.96135" fill="#fdf2f1"/>
      <path d="M139.3983,47.36889c7.3963-7.36913-14.102-14.2498-17.93986-11.60745S134.75714,51.993,139.3983,47.36889Z" fill="#ffe3bd"/>
      <path d="M166.72684,42.00314c2.52925,4.956-14.47564,13.1805-17.10792,6.7528C146.68953,41.60273,164.87749,38.37939,166.72684,42.00314Z" fill="#ffe3bd"/>
      <path d="M88.84846,63.79787c12.41714,1.06486,24.70613,2.84542,36.4548,7.14171.90092.32945,1.28934-1.10831.39564-1.43512-11.871-4.341-24.30712-6.11919-36.85044-7.19487-.95416-.08183-.9487,1.40692,0,1.48828Z" fill="#fff"/>
      <path d="M100.98444,76.23465c6.93957-.31289,13.833-.22658,20.63224,1.33.93235.21346,1.33038-1.22112.39565-1.43511-6.92877-1.58628-13.95277-1.70222-21.02789-1.38321-.95384.043-.95914,1.53153,0,1.48828Z" fill="#fff"/>
      <path d="M178.2062,73.33572a146.79886,146.79886,0,0,0-21.29806,2.51042c-.93709.195-.54051,1.63.39565,1.43511A144.05055,144.05055,0,0,1,178.2062,74.824c.95185-.0564.95832-1.54506,0-1.48828Z" fill="#fff"/>
      <path d="M173.69144,81.78185c-5.603-1.42068-11.74484-1.25865-17.43007-.62668-.94142.10465-.95207,1.59411,0,1.48828,5.54822-.61674,11.56238-.814,17.03443.57352a.74478.74478,0,0,0,.39564-1.43512Z" fill="#fff"/>
      <path d="M145.30953,74.549c2.59129.3887,8.60569-3.55966,8.033-5.18256-.84217-2.38644-9.78209-5.053-12.658-2.38644C137.94811,69.5172,145.30953,74.549,145.30953,74.549Z" fill="#060907"/>
      <path d="M227.97423,177.16731s-23.24975-13.59216-47.00393.86516c-23.29968,14.18069-22.56647,40.05329-15.77039,54.93423,7.07142,15.48384,32.90733,13.777,38.80919-.8912s-5.62789-26.00537,2.325-35.41417c5.44952-6.44716,16.27482-3.17733,16.27482-3.17733Z" fill="#ad4e34"/>
      <path d="M205.22341,171.38873c6.72266,5.13568,8.09931,12.76025,6.75678,21.81622a22.05871,22.05871,0,0,1,10.62872.27905l5.3653-16.31671A50.75371,50.75371,0,0,0,205.22341,171.38873Z" fill="#861b21"/>
      <path d="M186.17367,175.30621a46.8581,46.8581,0,0,0-5.20337,2.72625c-10.20459,6.2107-15.79858,14.66425-18.29291,23.45478,12.63544-12.01337,30.16846-10.07166,41.10492.2044a11.69031,11.69031,0,0,1,2.297-4.70239C201.78628,187.48815,195.45358,179.96685,186.17367,175.30621Z" fill="#861b21"/>
      <path d="M203.776,208.92657c-14.49146-7.5669-33.4776-1.67652-41.986,12.88049a46.35519,46.35519,0,0,0,3.41,11.15967c7.07141,15.48383,32.90734,13.777,38.8092-.89124C207.55764,223.25616,204.80715,215.64239,203.776,208.92657Z" fill="#861b21"/>
      <path d="M271.44943,242.12736l-12.87979-.02778a256.21532,256.21532,0,0,1,1.73236-28.2294l-19.14348-.459.99428-27.84622h29.29663Z" fill="#ad4e34"/>
      <path d="M219.278,134.66786a166.70813,166.70813,0,0,1,26.49789,1.53721l6.37547,11.71221L235.451,232.0755c-8.48712-1.89749-17.6416-10.98044-17.073-33.15079,12.035-25.6714,11.2021-37.74338,11.2021-37.74338S220.62119,144.46841,219.278,134.66786Z" fill="#ad4e34"/>
      <path d="M291.94549,170.5864c-4.7619,6.70231-6.63622,27.98284-5.38605,32.84522s5.20029,9.36052,5.20029,15.4853c0,4.48-7.37794,16.23109-7.37794,16.23109s10.67217,1.55546,8.29625,6.3073c-4.17913,8.35826-32.37,3.48021-34.1084.64427-1.24736-2.03483,5.91748-15.20889,5.91748-15.20889a42.44807,42.44807,0,0,1,.91659-19.00591c-1.84825-8.92047-8.93567-9.02919-13.88357-19.73978-2.045,8.83077,11.1865,12.53552,8.83313,20.17895l-2.47905.07823c-2.40617-6.91773-8.09833-7.01928-14.42375-4.31794l-.11108,1.53976c5.083-2.332,11.11523-3.1225,13.75176,4.8569,4.60543.80487,6.21945,6.72172,3.03787,9.52482,2.35445,1.18212,2.92347,8.84458-3.8468,9.88958-8.1607,1.25963-21.37166,6.82258-27.48336-2.58113-5.6829-8.74394,1.48194-16.371,1.48194-16.371s-13.60376-4.18594-11.90288-12.01844c2.09787-9.66062,13.86743-16.29423,21.40073-35.4606,0,0-41.16474-6.85755-43.79706-7.39286s-6.55276-2.5763-3.58442-7.00082c-3.13636-1.06411-3.41639-6.66477.8401-7.67288-1.21792-3.03459-.305-4.83746,2.36379-5.83814,2.80853-1.05308,7.785-.89155,13.82209-.99466-.25652-7.82644,7.95292-5.71266,12.76947,5.20861l51.79114,3.5574,58.79131-16.49386c3.72806.67342,4.80875,3.73956,3.15706,8.02055,5.547-1.95679,12.0447-1.99393,10.71951,4.55288,4.234.72246,3.23082,4.10757,2.07076,5.58607,1.4693,4.47767.60166,7.2187-3.91976,8.7436C329.84851,165.7291,319.16963,160.11444,291.94549,170.5864Z" fill="#060907"/>
      <path d="M212.03957,132.00157c2.89261-1.41866,5.991,4.27246,3.70568,5.27968C212.1412,138.86965,209.59148,133.20222,212.03957,132.00157Z" fill="#6c585a"/>
      <path d="M195.37213,139.15336c.18172-3.21665,5.815-2.30491,6.01046-.49266C201.68653,141.4792,195.21834,141.87567,195.37213,139.15336Z" fill="#6c585a"/>
      <path d="M192.36036,145.53629c.00285-3.22177,6.208-2.55137,6.19764-.30679C198.54489,148.06432,192.35752,148.74382,192.36036,145.53629Z" fill="#6c585a"/>
      <path d="M193.99686,151.60571c.20335-3.21535,6.35478-2.16009,6.20473.0795C200.01207,154.51371,193.79442,154.80684,193.99686,151.60571Z" fill="#6c585a"/>
      <path d="M201.64534,146.649c-.4718-4.06817,1.87211-6.773,5.64466-7.32181,3.362-.489,7.02524.8314,7.72287,5.05557,1.29685,7.85253-.31187,10.2906-6.24037,10.313C203.15617,154.717,202.00663,149.76416,201.64534,146.649Z" fill="#6c585a"/>
      <path d="M333.02328,128.73063c-3.17073-.57126-4.59011,5.75128-2.11619,6.09333C334.80852,135.3634,335.70673,129.21409,333.02328,128.73063Z" fill="#6c585a"/>
      <path d="M343.98609,137.24757c-.57724-3.16964-6.055-1.56976-6.02531.25275C338.00694,140.33479,344.47462,139.9301,343.98609,137.24757Z" fill="#6c585a"/>
      <path d="M347.078,142.47114c-.886-3.09754-6.66966-.75158-6.04428,1.40415C341.82354,146.59788,347.96011,145.555,347.078,142.47114Z" fill="#6c585a"/>
      <path d="M347.16822,148.75667c-1.07709-3.0364-6.7035-.33507-5.94518,1.77757C342.18077,153.20241,348.24055,151.77963,347.16822,148.75667Z" fill="#6c585a"/>
      <path d="M338.57192,146.501c-1.46133-8.0325-13.86863-2.434-13.44338,1.60214.7905,7.503,2.97023,9.28114,8.67739,7.67617C339.21257,154.25883,339.10361,149.42352,338.57192,146.501Z" fill="#6c585a"/>
      <path d="M251.88363,208.81959c-.9034-4.32885-5.98938-1.96679-5.87245.50943C246.193,213.18015,252.64819,212.48319,251.88363,208.81959Z" fill="#6c585a"/>
      <path d="M258.35165,215.10672c-1.27353-4.18435-7.00329-1.51144-6.10524,1.40088C253.38061,220.18575,259.61954,219.27256,258.35165,215.10672Z" fill="#6c585a"/>
      <path d="M259.13075,223.68933c-1.2859-3.70991-7.13433-.62409-6.22873,1.95706C254.04575,228.90628,260.411,227.38283,259.13075,223.68933Z" fill="#6c585a"/>
      <path d="M250.67921,220.15234c.2627-9.56953-16.88288-8.16671-18.68342-1.06079-1.70284,6.72035,2.76594,11.24717,10.315,10.674C249.46241,229.22266,250.58363,223.63412,250.67921,220.15234Z" fill="#6c585a"/>
      <path d="M300.812,83.23337s35.51786-.67191,38.37719,7.01429-12.537,29.681-12.537,29.681l-13.72469-10.67656Z" fill="#ffe3bd"/>
      <path d="M241.0922,94.202s5.53258-33.35445,13.65848-35.943c10.92043-3.47883,31.87082,20.60282,31.87082,20.60282Z" fill="#ffe3bd"/>
      <path d="M247.0308,90.24766s3.91366-25.29691,10.99742-27.19393c6.201-1.66062,20.23525,15.808,20.23525,15.808Z" fill="#31130f"/>
      <path d="M310.68277,87.56141s21.148-.20743,23.28384,5.40163c2.17414,5.70956-12.89877,22.87154-12.89877,22.87154L310.68277,87.56141" fill="#31130f"/>
      <path d="M329.40774,128.45648c2.40216-.61,6.353-3.6883,6.353-3.6883a39.031,39.031,0,0,0-14.12659-11.05554s-.82678-4.16669-2.00659-8.97693c1.07147-.85473,2.48791-2.29986,2.4046-3.91894-.07776-1.51062-2.15881-1.73352-3.87927-1.65937q-.22586-.78405-.45764-1.53582c2.04553-.67743,4.8753-2.02485,4.24829-4.19513-.7157-2.4773-5.36463-3.02649-7.69165-3.14582-4.79987-4.59381-24.05475-14.83886-39.14325-13.11364-.45221.05169-.92108.12493-1.3974.20806-.80017-1.31481-2.98682-4.32977-6.21039-4.27191-3.24988.05835-1.37292,4.2967-.43646,6.08393-1.08539-1.16321-3.27429-3.15247-5.1792-2.64783-1.92157.50909-1.15582,3.407-.58795,4.96826-15.9516,7.0351-34.4054,19.9212-34.4054,19.9212l5.99072,10.28779-7.3681,1.99615s17.74375,34.91214,43.91284,39.61578c36.39319,6.54134,47.54441-9.56418,60.49854-14.43365l-2.91742-3.22455C332.53659,133.82617,332.36386,130.45184,329.40774,128.45648Z" fill="#ad4e34"/>
      <path d="M267.18691,96.99554c2.67606-1.61972,9.636,5.23631,9.88519,8.06065s-2.22113,5.8001-5.27487,5.0672C266.60543,108.87736,264.03029,98.90612,267.18691,96.99554Z" fill="#ffe3bd"/>
      <path d="M303.34269,109.29441c.02353,3.17589-12.68809,8.57354-14.55653,2.32454C285.87948,101.89754,303.30878,104.71686,303.34269,109.29441Z" fill="#ffe3bd"/>
      <path d="M306.83554,135.44067l-9.08316,5.23263c1.67135,6.17659-4.231,11.06941-10.56879,14.02254,11.12643-2.09987,20.62405-5.63576,28.44443-14.14162C310.66882,141.328,306.82247,140.74206,306.83554,135.44067Z" fill="#f9e2b9"/>
      <path d="M239.95468,121.19555c1.13752,2.96054,4.14627,4.6873,7.8331,3.9691.34456,7.89754,2.19991,16.452,7.8555,22.75263C245.64749,141.51685,239.51245,133.32821,239.95468,121.19555Z" fill="#ffe3bd"/>
      <path d="M282.195,154.79308c3.4477-1.91925,9.469-6.37838,9.469-10.54824,0-7.32151-28.31334-14.8917-36.02066-10.1152-4.8108,2.98142-.11188,13.71581-.11188,13.71581a40.57363,40.57363,0,0,0,13.89593,5.483A95.26308,95.26308,0,0,0,282.195,154.79308Z" fill="#ffe3bd"/>
      <path d="M273.78625,139.31144h1.38434c-.97719,1.87294-.77359,6.92172-.77359,6.92172s4.11229,1.05861,6.881-.73289l.93646,1.14c-3.13873,2.09569-8.50015,1.50771-15.63492-1.22148l.48859-1.34363a15.81481,15.81481,0,0,0,5.88156,1.97808S272.64636,140.74784,273.78625,139.31144Z" fill="#861f20"/>
      <path d="M270.48171,134.17c1.03465-4.031,13.22992.26734,12.55578,4.01008C282.28792,142.3416,268.88064,140.40786,270.48171,134.17Z" fill="#060907"/>
      <ellipse cx="260.30199" cy="122.69502" rx="13.68176" ry="13.51005" fill="#31130f"/>
      <ellipse cx="261.05805" cy="121.65731" rx="12.92571" ry="12.47233" fill="#fdf2f1"/>
      <ellipse cx="260.8096" cy="121.96346" rx="9.28947" ry="8.91718" fill="#060907"/>
      <circle cx="266.63045" cy="118.42196" r="2.7736" fill="#fdf2f1"/>
      <ellipse cx="295.373" cy="129.66823" rx="12.78311" ry="13.04245" fill="#31130f"/>
      <ellipse cx="294.80132" cy="129.00253" rx="12.21143" ry="12.02642" fill="#fdf2f1"/>
      <circle cx="294.74435" cy="129.29773" r="8.59837" fill="#060907"/>
      <ellipse cx="300.06578" cy="125.88285" rx="2.62033" ry="2.67443" fill="#fdf2f1"/>
      <path d="M313.03028,143.72427a200.198,200.198,0,0,0-24.92937-1.53066.74459.74459,0,0,0,0,1.48828,200.19825,200.19825,0,0,1,24.92937,1.53066c.95043.10591.9429-1.38321,0-1.48828Z" fill="#fff"/>
      <path d="M313.04908,152.348a144.75581,144.75581,0,0,0-24.27642-4.71236c-.95343-.08726-.94749,1.40156,0,1.48828a142.4406,142.4406,0,0,1,23.88078,4.6592.74478.74478,0,0,0,.39564-1.43512Z" fill="#fff"/>
      <path d="M229.38221,129.88625c9.652,1.45421,19.16218,3.43445,28.20587,7.18677.88373.36667,1.26911-1.07271.39565-1.43512-9.0437-3.75232-18.55389-5.73256-28.20588-7.18677-.93695-.14116-1.341,1.29268-.39564,1.43512Z" fill="#fff"/>
      <path d="M232.9079,137.4488c7.16935.84876,14.34324,1.68523,21.52926,2.38288.95266.09249.94628-1.39641,0-1.48828-7.186-.69766-14.35991-1.53412-21.52926-2.38288-.94922-.11238-.94113,1.37686,0,1.48828Z" fill="#fff"/>
    </symbol>
  </defs>
  <title>character-jed-and-amanda-full</title>
  <g id="Background">
    <path d="M21.16346,331.81841c.33677,77.16151-76.7394,190.75305,61.21917,253.43164,89.021,40.4448,140.003-15.48087,193.86072-10.23139,105.811,10.31335,112.23514-70.86674,255.07988-10.18657,56.73559,24.10117,91.4748-140.95144,51.35085-312.49351-16.087-68.77689-.65805-121.84834-20.74127-145.90233-23.64038-28.31447-132.47671-61.33767-153.04793,0C317.05613,27.70043,164.0082-22.9859,86.35252,10.53913,27.35128,36.01078,61.97624,139.21036,61.97624,139.21036S-18.64032,215.0191,21.16346,331.81841Z" fill="#d7c9b7"/>
    <use width="349.73028" height="269.00044" transform="translate(20 110.16743) scale(1.62983 1.64953)" xlink:href="#Jed_and_Amanda_2"/>
  </g>
</svg>
