<svg xmlns="http://www.w3.org/2000/svg" width="600" height="600" viewBox="0 0 600 600">
  <title>character-nigel-dungsworth-full</title>
  <g id="Background">
    <path d="M544.64489,526.1051c122.37638-121.40887,0-202.34812,24.71454-320.31366,14.67132-70.028-2.74943-180.57223-94.43213-170.42933-88.91993-85.18644-308.07914,7.638-336.92181,28.41648C35.79157.54625-13.65568,197.3423,47.45862,319.53928-41.27795,366.56766-6.0488,616.23742,157.1197,546.33991,213.78369,560.5984,534.4079,671.02,544.64489,526.1051Z" fill="#56786a"/>
    <g>
      <g>
        <path d="M319.91386,462.77573c-.55008-4.76392-.97228-9.54482-1.76986-14.27661-.51087-3.03081-1.13925-6.0417-1.6867-9.06663a56.5635,56.5635,0,0,1-.41318-12.58187c.21384-4.96351.38339-9.929.60615-14.89215a136.1005,136.1005,0,0,0-.22292-16.33524,108.65294,108.65294,0,0,0-2.74326-16.1744c-.948-4.12209-1.8879-8.24608-2.85853-12.36284-.08856-.37559.01516-.876-.46935-1.09944a2.6972,2.6972,0,0,0-.26352-1.86368c-1.21892-3.92032-2.73056-7.74377-3.77274-11.72569-.592-2.2619-.65761-4.60326-1.25975-6.85392-.2465-.92133-.50731-1.84384-.6691-2.7817a64.58892,64.58892,0,0,1-.73812-6.427c-.21577-3.04472-.15571-6.08675-.07293-9.12356.07781-2.85457.41827-5.702.64318-8.55261.50625-.04014,1.01587-.05576,1.51813-.1248,1.75718-.24149,3.51182-.50142,5.26744-.75432.05949.385.13194.76854.17466,1.15537.03927.35577.25212.38455.53669.33876.74349-.11959,1.49233-.21073,2.23119-.35356,1.6223-.31367,1.61975-.32382,1.48012-1.98152-.00938-.1113-.00068-.2241-.0004-.33621.22215-.02939.44654-.04728.6661-.09a50.17015,50.17015,0,0,0,6.82913-2.11143,14.98685,14.98685,0,0,0,.997,6.61651,3.608,3.608,0,0,0,1.11149,1.872,18.90315,18.90315,0,0,0,3.644,4.88706,4.79861,4.79861,0,0,0,1.511,1.879q.61375.75645,1.22748,1.513a3.17473,3.17473,0,0,0,.37188,1.89678,24.10664,24.10664,0,0,0,10.32358,12.73547,11.90043,11.90043,0,0,0,3.78358,1.838c.07105,3.92262-.01393,7.84221-.18325,11.76168-.20595,4.76785-.13892,9.5408-.221,14.31088-.118,6.85591-.42744,13.7058-.81094,20.5522-.35346,6.31-.72337,12.61934-1.03015,18.93164a76.07683,76.07683,0,0,0,1.597,17.83328c1.035,5.48441,2.2974,10.927,3.07361,16.45895a64.43715,64.43715,0,0,1,.73322,11.22037c-.21017.07767-.42751.14018-.62941.23528-2.06867.97424-4.12709,1.97046-6.2036,2.92768a25.30824,25.30824,0,0,1-8.61741,2.27579,36.018,36.018,0,0,1-8.942-.18494A48.43168,48.43168,0,0,1,319.91386,462.77573Z" fill="#878248"/>
        <path d="M350.9297,176.67709c.68619,2.37824,1.33486,4.768,2.06631,7.13235a115.98087,115.98087,0,0,0,5.51476,14.8058c.82256,1.76479,1.81846,3.43517,2.66144,5.18621-.356.14492-.77977.13039-1.03308.50837a10.25217,10.25217,0,0,1-2.27227,2.13371,40.13466,40.13466,0,0,1-10.9062,6.22012c-3.23914,1.23541-6.513,2.444-10.09187,1.50886a19.83319,19.83319,0,0,1-1.23432-3.49147,67.19785,67.19785,0,0,1-2.45316-12.10025,32.22069,32.22069,0,0,0-.39067,3.59877,49.71937,49.71937,0,0,0,.35387,9.10023,5.301,5.301,0,0,0,.62836,2.71443,48.6729,48.6729,0,0,0-2.70761,6.56194,106.63783,106.63783,0,0,0-4.459,18.7805,115.03087,115.03087,0,0,0-1.134,13.44485c-.05529,1.77329.03534,3.54995.11171,5.327a58.07423,58.07423,0,0,0,1.41236,10.519,24.636,24.636,0,0,0,2.45105,7.17852q3.23985,5.47041,6.05394,11.15886a1.92817,1.92817,0,0,1,.3407,1.0305c-.04953.30332-.29851.46813-.48255.673A43.86778,43.86778,0,0,1,323.2482,297.934a5.51227,5.51227,0,0,1-.49012-1.604c-.10032-.41668-.24185-.49025-.63805-.323-.986.41618-1.98137.81493-2.99169,1.16725-.48028.16748-.466.39059-.36368.82.15122.63477.62541,1.22727.3339,1.93905-.28747.10744-.57452.216-.86251.32206a21.6839,21.6839,0,0,1-5.18942,1.61911,4.11549,4.11549,0,0,1-.172-.72869c-.03718-.66657-.25133-.93275-.99758-.7324a15.82626,15.82626,0,0,1-2.57888.40707c-.78486.07583-1.18627.31434-.86429,1.18607a5.91706,5.91706,0,0,1,.1885,1.16025,59.79547,59.79547,0,0,1-11.53815,1.19977,3.35487,3.35487,0,0,0,.11959-.49133c.393-4.26731.71638-8.54167.83511-12.82423a142.58659,142.58659,0,0,0-.419-16.07015,87.80577,87.80577,0,0,0-2.50559-14.38522c-1.61654-6.30346-3.61669-12.50965-4.772-18.93052a50.97126,50.97126,0,0,1-.358-15.83736,58.75329,58.75329,0,0,1,4.03168-14.81129,35.74968,35.74968,0,0,1,2.88709-6.00175c.29775.0196.45739-.19628.628-.37962.711-.76409,1.44525-1.50905,2.11794-2.30564,2.38321-2.82212,4.79328-5.61431,7.4022-8.23928a35.57579,35.57579,0,0,1,9.57163-6.59968,69.41672,69.41672,0,0,1,12.99247-4.83469c.52484-.14128.62836-.2964.31595-.71557a17.46681,17.46681,0,0,1-1.66019-3.04394,8.06989,8.06989,0,0,1-.90785-2.77983,2.16879,2.16879,0,0,1,1.00386.54136c3.04711,2.09058,6.08319,4.19717,9.131,6.28673.17173.11772.35816.40323.5769.26507.27111-.17124.07085-.45093.00056-.68446-.79523-2.64182-1.5213-5.30531-2.50819-7.88691a1.8126,1.8126,0,0,1-.23316-.97417,1.13093,1.13093,0,0,1,.87048.22049,54.24016,54.24016,0,0,1,4.67621,3.35583,56.30335,56.30335,0,0,0,5.57747,3.98882c.54271.325.903.43292,1.20893-.29941a18.32076,18.32076,0,0,1,1.18892-2.24338A3.81207,3.81207,0,0,1,350.9297,176.67709Zm-23.92951,34.6164a22.1592,22.1592,0,0,1,.91763-2.16357c.334-.61171.16187-.834-.44212-.99729a45.998,45.998,0,0,0-5.872-1.132,27.46367,27.46367,0,0,0-10.56715.404,2.55819,2.55819,0,0,0-2.24447,2.66831,11.52087,11.52087,0,0,0-1.49726,4.07563,106.23776,106.23776,0,0,0-2.10334,10.81951,63.1437,63.1437,0,0,0-.83849,9.135c.00006.65382.24525.87566.87892.93638,1.5194.14554,3.041.164,4.56354.19456,1.92591.17939,3.858.222,5.7903.2608,1.613.0137,3.22638.00952,4.83864.05068.5734.01463.70984-.27639.78657-.75629.22621-1.4147.44658-2.83233.74018-4.234A181.38006,181.38006,0,0,1,327.00019,211.29349Zm-22.38066,85.11764a2.90758,2.90758,0,0,0,2.81584-2.79737,2.967,2.967,0,0,0-2.84938-2.79056,2.918,2.918,0,0,0-2.75034,2.7759A2.84455,2.84455,0,0,0,304.61953,296.41113Zm-.75047-37.41025a2.834,2.834,0,0,0-2.82088-2.77294,2.78215,2.78215,0,0,0-.06548,5.56344A2.77824,2.77824,0,0,0,303.86906,259.00088Zm1.41119-53.81262A2.72151,2.72151,0,1,0,305.303,199.75a2.71968,2.71968,0,1,0-.02277,5.43825ZM297.609,220.26834a2.65349,2.65349,0,0,0-2.8744,2.75322,2.78129,2.78129,0,0,0,2.71291,2.68356,2.7056,2.7056,0,0,0,2.857-2.686A2.67455,2.67455,0,0,0,297.609,220.26834Z" fill="#e7d0ae"/>
        <path d="M309.61623,368.47837c-.952,2.68228-2.02824,5.32818-2.82976,8.05449-1.60691,5.46587-2.90922,11.01358-4.16909,16.57015-1.34069,5.913-2.75732,11.80888-4.08728,17.72428a116.88859,116.88859,0,0,0-2.84662,17.43993,32.84186,32.84186,0,0,0,.41259,6.66938,46.2445,46.2445,0,0,1-.41069,13.4028,98.44484,98.44484,0,0,1-4.34633,16.83437,4.239,4.239,0,0,0-2.92282-.33468,26.824,26.824,0,0,1-4.5291.44261,37.61245,37.61245,0,0,1-8.48973-.65475c-4.63-.86386-9.03695-2.23919-12.45259-5.73956.09379-2.30995.21936-4.61919.27406-6.93.08617-3.64018.08525-7.28264.19225-10.922a74.27,74.27,0,0,1,2.96621-17.55859c1.82709-6.63062,4.11843-13.1226,5.91155-19.76383a231.423,231.423,0,0,0,5.09075-23.97794q1.78357-11.20679,2.65125-22.51813c.30928-3.93862.40379-7.89125.413-11.8437.01377-5.93106-.00291-11.86241.05538-17.793.03439-3.49805.221-6.99342.47717-10.48356.15943.40849.30666.78462.8618.83509,1.6203.14732,3.21114.55418,4.849.55977.05916,1.3149.05916,1.31509,1.3583,1.32041.78514.00323,1.57345-.03668,2.35449.0213.69026.05128,1.00565-.167.89538-.876l4.40555.06411a3.10554,3.10554,0,0,0,.079.4133,26.61834,26.61834,0,0,1,1.337,6.83775c.07551,1.26533.014,2.53591.15408,3.79184a50.65131,50.65131,0,0,1-.28613,10.007,16.99208,16.99208,0,0,0-.11522,5.12216.70029.70029,0,0,0,.62.62958,28.37749,28.37749,0,0,1,5.35689,2.31168,1.79057,1.79057,0,0,1,.98132,1.25946c.541,2.15294,1.10765,4.30133,1.74156,6.42862q1.43425,4.81308,2.98646,9.59076A11.00068,11.00068,0,0,0,309.61623,368.47837Z" fill="#878248"/>
        <path d="M319.91386,462.77573a48.43168,48.43168,0,0,0,4.7484,1.18558,36.018,36.018,0,0,0,8.942.18494,25.30824,25.30824,0,0,0,8.61741-2.27579c2.07651-.95722,4.13493-1.95344,6.2036-2.92768.2019-.0951.41924-.15761.62941-.23528.03074,3.67235-.24439,7.33009-.56846,10.98307-.79531,8.965-2.16962,17.86822-2.92724,26.83665-.45129,5.34195-.66021,10.69914-.757,16.06a63.76024,63.76024,0,0,0,2.331,21.2733,35.72314,35.72314,0,0,1,1.06509,6.23984c-1.42238,1.36643-2.68378,2.88417-4.05009,4.30185a68.76828,68.76828,0,0,1-5.837,5.5201,26.82222,26.82222,0,0,1-8.70516,5.0909,43.81323,43.81323,0,0,1-12.30663,1.8186c-4.598.12859-9.20856.21388-13.81355-.09563a17.7759,17.7759,0,0,1-7.2344-1.72276c-1.37926-1.58684-1.61958-3.5826-1.82259-5.52573a22.5563,22.5563,0,0,1,3.4543-15.03324c3.088-4.76885,7.54831-6.62491,13.11581-6.30679,3.44868.19694,6.85776.77323,10.30705.9496.64883.0332.81185-.16589.86517-.75452.7717-8.51767,1.79441-17.01985,1.39265-25.60251q-.39013-8.33448-1.26041-16.63092-.81687-7.83278-1.60952-15.66812Q320.30123,466.60878,319.91386,462.77573Z" fill="#743016"/>
        <path d="M271.25087,217.73736A108.72418,108.72418,0,0,0,260.69715,235.165a147.87693,147.87693,0,0,1-9.34089,16.49116,42.56711,42.56711,0,0,1-14.14176,13.51351,20.04341,20.04341,0,0,1-6.01694,2.43576c-4.56433.8721-6.88632-1.13318-7.87952-5.31269a26.37971,26.37971,0,0,1-.0491-9.79629c.75817-5.5205,2.44569-10.80811,4.04366-16.11651,2.16717-7.19924,4.59527-14.32392,6.2528-21.66811.61309-2.71647.91319-5.489,1.28545-8.24549.45131-3.34194.84971-6.69015,1.33024-10.02931A97.728,97.728,0,0,1,238.78,183.6308,32.36492,32.36492,0,0,1,244.0647,172.271,13.607,13.607,0,0,1,255.1,166.63253c5.0031-.07574,9.17487,1.81507,12.98622,4.80544a1.50086,1.50086,0,0,0,.63723.40021c.03385.10318.03726.23708.10606.30537a54.47872,54.47872,0,0,1,3.92991,4.16992,48.04825,48.04825,0,0,1,3.44247,5.70679c1.27571,2.731,2.71422,5.37411,4.23325,7.97824a11.71673,11.71673,0,0,1,1.68551,3.47431,65.17261,65.17261,0,0,1-6.89821-8.32332,11.60251,11.60251,0,0,0-2.41593-2.89213c-.03677-.06948-.07292-.13944-.10908-.2094-.01966.01858-.05946.04644-.05583.05426.03216.06938.072.13521.10959.20209a16.14571,16.14571,0,0,0,1.92953,3.83036,100.76873,100.76873,0,0,0,7.27073,10.05835,1.51932,1.51932,0,0,0-.63758.74732,4.42343,4.42343,0,0,0-.24281,3.00576c-.80643-.8629-1.68022-1.673-2.40769-2.59778a108.19636,108.19636,0,0,0-9.046-9.60944c-.09789-.09729-.17633-.29164-.44657-.17742a35.183,35.183,0,0,0,4.40657,6.29322q2.25572,2.68492,4.52543,5.35814a4.07959,4.07959,0,0,0-.57682.47714c-1.43689,1.70547-1.01673,3.33839,1.02781,4.04645.94762.3282,1.66983-.20456,2.42452-.61909a15.84842,15.84842,0,0,1,1.65541,2.91179,9.11711,9.11711,0,0,1-4.55625,1.69394,6.08411,6.08411,0,0,0-.87864-1.91241,74.36143,74.36143,0,0,0-6.28631-8.49425,53.89562,53.89562,0,0,0-6.20714-7.04625,7.28718,7.28718,0,0,0-2.30545-1.53342.23446.23446,0,0,0-.02919-.05728c-.00768-.0086-.02831-.00566-.04311-.0079l.07968.0575a.80355.80355,0,0,0,.183.62669,38.36067,38.36067,0,0,0,2.275,3.45176c2.31539,3.11967,4.93523,5.98785,7.408,8.97736a.49374.49374,0,0,0-.39583.26593,2.5561,2.5561,0,0,0-.00265,2.47215,3.09276,3.09276,0,0,0,2.97224.80765,17.13847,17.13847,0,0,1,1.47072,2.39423l-1.51521-.0141a1.65776,1.65776,0,0,0-.37518-.15055,24.93952,24.93952,0,0,1-8.608-3.27735c-2.18971-1.21159-4.22379-2.66458-6.31867-4.02338a9.70419,9.70419,0,0,0-2.18416-1.68753,64.678,64.678,0,0,1-6.31431-6.35829c-.10492-.12818-.2427-.27381-.43165-.16982-.19289.10615-.21512.31117-.23306.51549-.22138,2.52222-.45358,5.04351-.66951,7.56619-.18963,2.21543-.32129,4.43655-.55192,6.64754-.35006,3.35574-.76625,6.70463-1.14953,10.057-.42173,3.6887-1.02157,7.35006-1.63833,11.01022-.13474.79965-.61208,1.58355-.2582,2.44015a4.02614,4.02614,0,0,0-.4925,1.2392,112.14018,112.14018,0,0,1-5.77639,19.63505,7.16163,7.16163,0,0,0-.84683,2.362l-.08775.06439c.01666-.00246.04048.001.04843-.00867a.25837.25837,0,0,0,.02982-.06578,10.6965,10.6965,0,0,0,2.17114-2.67231c2.78313-4.43917,4.25894-9.41607,5.81126-14.352a38.7062,38.7062,0,0,0,1.18267-6.965,17.227,17.227,0,0,0,.5236-3.1471l-.00717.009c.16154-.03877.14963-.09776.02-.17046a4.19876,4.19876,0,0,1,.64263-.98654,93.799,93.799,0,0,0,7.742-15.49448c.14548.172.301.33653.43494.5171a16.82064,16.82064,0,0,0,8.8088,6.53938C267.90641,217.26581,269.59444,217.40914,271.25087,217.73736Z" fill="#f6cba4"/>
        <path d="M262.94482,458.88739c3.41563,3.50037,7.82256,4.8757,12.45258,5.73956a37.61245,37.61245,0,0,0,8.48973.65475,26.824,26.824,0,0,0,4.5291-.44261,4.239,4.239,0,0,1,2.92282.33468c-1.50731,4.51324-3.04817,9.01583-4.51492,13.54232a207.722,207.722,0,0,0-6.58177,27.072c-1.09073,6.01839-2.08577,12.05231-2.94839,18.10743a62.8797,62.8797,0,0,0-.37364,13.92445,37.76444,37.76444,0,0,1,.1744,6.84061c-2.46252.81365-4.86073,1.80461-7.35338,2.54179a76.43549,76.43549,0,0,1-18.87061,3.03213,95.805,95.805,0,0,1-12.02677-.26343,78.34853,78.34853,0,0,1-9.52724-1.2433c-2.89512-.61857-5.67692-1.51273-7.7632-3.827-.49291-.54678-.66635-1.28686-1.235-1.76131-1.01823-4.3158.59177-8.15971,2.196-11.9929a17.17848,17.17848,0,0,1,2.00763-3.4259c2.93837-4.04649,6.64-5.37979,11.51132-4.13653a75.98646,75.98646,0,0,1,7.7496,2.70714,16.50592,16.50592,0,0,0,7.32027,1.0666,1.66,1.66,0,0,0,1.42086-.85708,41.37911,41.37911,0,0,0,4.7654-12.41693,128.21673,128.21673,0,0,0,2.75232-18.65607q1.11443-13.11713,2.15533-26.24041C262.47334,465.75619,262.69718,462.32086,262.94482,458.88739Z" fill="#743016"/>
        <path d="M323.9233,321.01723a14.9873,14.9873,0,0,1-.997-6.61651q.20621-.75891.41235-1.51776a14.98851,14.98851,0,0,1,3.1498-4.01451q1.12482-.94043,2.24955-1.881.14762-.11064.2954-.22106c2.48444-1.718,5.05569-3.319,7.41062-5.21229a11.63458,11.63458,0,0,0,3.51779-4.46411c.41294-.15948.53322-.56166.7217-.89564.98393-1.7434,1.89771-3.52257,2.78852-5.31614,2.32262-4.67632,4.3544-9.485,6.55658-14.216a134.142,134.142,0,0,1,10.21415-18.80185c.39-.57625.7699-1.069.11853-1.745a2.31653,2.31653,0,0,1-.37106-1.10489,64.82775,64.82775,0,0,0-3.42718-10.95488c-2.2079-5.53446-4.89932-10.84735-7.49583-16.20408-.88473-1.82525-1.85046-3.61541-2.56558-5.52.47087-.07607.94949-.12054,1.41142-.23317a21.90494,21.90494,0,0,0,10.31728-5.61964c1.16625-1.13744,2.27812-2.33038,3.41475-3.498a78.5097,78.5097,0,0,0,3.20014,10.23709c2.90278,7.76914,6.34495,15.3176,9.4992,22.98407,1.59854,3.88527,3.30207,7.72515,4.74159,11.67727a8.3437,8.3437,0,0,1-.78975,7.53c-4.90858,8.21416-9.87836,16.39242-15.26085,24.3075a51.36844,51.36844,0,0,0-6.90276,13.98238,18.64066,18.64066,0,0,0-.96277,5.89184c.04859,2.0332.056,4.06918.01066,6.10238a13.84969,13.84969,0,0,1-2.52267,8.35317,37.61848,37.61848,0,0,0-4.00122,5.52244,10.1394,10.1394,0,0,0-1.45679,3.9243l6.98049-9.61116a1.63385,1.63385,0,0,1,1.76474,2.24635,25.63516,25.63516,0,0,1-4.58145,8.79511,13.75273,13.75273,0,0,1-2.96274,3.11459,3.42061,3.42061,0,0,1-3.23155.78137,27.981,27.981,0,0,1-8.19838-3.55107,22.691,22.691,0,0,1,.28745-4.63986,6.59954,6.59954,0,0,0-2.12508,3.39538c-.19176.05655-.2991-.06487-.44021-.16953-1.136-.8425-2.218-1.74951-3.2759-2.68617q-.61374-.75648-1.2274-1.513a20.1735,20.1735,0,0,1,.82343-4.5057,12.30652,12.30652,0,0,0-2.33447,2.62672,18.89127,18.89127,0,0,1-3.64356-4.88715q1.17189-2.37867,2.343-4.75719l-.25213-.17059c-.48113.50983-.93,1.05582-1.452,1.51988C325.09434,319.99669,324.68954,320.71474,323.9233,321.01723Z" fill="#f6cba4"/>
        <path d="M275.72444,104.98763c-.50482-.5316-1.01888-1.05481-1.51282-1.59628-1.88079-2.06175-1.02782-5.66254.23235-7.12534.16571-.19235.3287-.38763.504-.571.40652-.42538.33279-.78988-.02371-1.24057a33.5838,33.5838,0,0,1-3.01119-4.387,7.62107,7.62107,0,0,1-.16282-7.95821c1.54868-2.71154,3.22515-5.35056,4.56706-8.177a.31716.31716,0,0,0,.1875-.34986l-.00569.00364c.52787-.00828.84951-.41517,1.24766-.66206a6.12345,6.12345,0,0,1,5.50743-.68255,5.80592,5.80592,0,0,1,2.86031,2.57114c.74958-1.5721,1.44028-3.04394,2.15466-4.50425.2054-.41987-.07779-.50367-.34807-.57695a20.375,20.375,0,0,0-4.24209-.708,16.34942,16.34942,0,0,0-6.07391.88239q.07075-1.65063.14136-3.30116a44.13306,44.13306,0,0,0,5.22027.25017,27.93434,27.93434,0,0,0,6.476-1.15455c3.08371-.923,5.8493-2.5509,8.731-3.92322a25.82026,25.82026,0,0,1,8.34845-2.64715,11.59033,11.59033,0,0,1,10.131,3.34583c1.1668,1.18714,2.2151,2.47833,3.39263,3.65207-.681.75152-1.34775,1.51666-2.04967,2.24821-.304.31684-.36815.51077-.0527.90458a13.02372,13.02372,0,0,1,2.25419,4.51347,36.85056,36.85056,0,0,1,1.24929,7.13686,14.18631,14.18631,0,0,1-1.82515,8.77458c-.98727,1.67792-2.02138,3.32837-3.01244,5.00412a27.71476,27.71476,0,0,0-2.36444,4.66476q-.415.92706-.83,1.85424a18.681,18.681,0,0,0-1.51945,3.91924l-.54448,1.84507a1.54635,1.54635,0,0,0-.33474.8384c-.29681,1.16388-.57789,2.33174-.8648,3.49813-3.59771-2.62992-9.4873-2.52953-11.98575.21743a1.37062,1.37062,0,0,0,.88659-.0943,42.21319,42.21319,0,0,1,4.5404-1.04016c.48861-.06439.74481-.00446.62155.59885a29.03017,29.03017,0,0,1-1.80221,6.15685,10.1635,10.1635,0,0,1-6.94455,5.96382,27.66113,27.66113,0,0,1-6.36916.8804c-6.01506.18414-11.63419-1.05725-16.5654-4.69405a.89375.89375,0,0,0-.76582-.26951c-.22553-.45182-.10039-.67837.4047-.82666a16.30978,16.30978,0,0,0,6.7291-3.59976l.16005-.17526-.01421.01065a2.62342,2.62342,0,0,0,.59072-.02232,41.40442,41.40442,0,0,1,8.37861-1.03964,15.85342,15.85342,0,0,0,3.93534-.49909c1.71642-.54493,2.20776-1.87774,1.29924-3.32593-1.06011-1.68982-4.78421-2.30719-6.26067-1.46742.70337.08539,1.36381.13058,2.01.25145a5.51093,5.51093,0,0,1,3.41052,1.52129,1.35454,1.35454,0,0,1-.5881,2.3518,6.66229,6.66229,0,0,1-2.49828.37566,29.30991,29.30991,0,0,0-6.82379.52978,8.23045,8.23045,0,0,0-2.98579.80188,20.424,20.424,0,0,0-4.87984,1.32857,2.98779,2.98779,0,0,1-3.33458-1.16457,2.41882,2.41882,0,0,1,.09513-2.916,7.39172,7.39172,0,0,1,1.01088-1.646c.06917.11857.1357.17438.19247-.00795l-.01.01005a13.04685,13.04685,0,0,0,4.53294-6.17479c.90907-2.95771,1.74556-5.93763,2.61358-8.90791q1.24014-3.25349,2.48138-6.50657c.3526-.92077.34712-.934-.68109-.95944a18.49776,18.49776,0,0,1-3.392-.63605l-3.65232-1.56308a.90727.90727,0,0,0-1.03256-.38865c-.34947.11172-.15626.59534-.15841.91a16.79465,16.79465,0,0,0,.36378,3.43256c.58828,2.91295,1.70732,5.54594,4.27787,7.31006.33007.22651.24114.4362.14066.71642a14.43569,14.43569,0,0,0-.56485,2.28874C277.14357,101.10239,276.90294,103.18714,275.72444,104.98763Zm31.963-17.14483a9.324,9.324,0,0,0-2.31025.48874l-4.03291.50507a35.12088,35.12088,0,0,1-7.34632-.33929c.89068-3.52749,2.45818-6.53225,6.204-7.89948-1.37412-.17019-3.61256,1.03983-4.539,1.93353a10.797,10.797,0,0,0-1.25739,13.8534,7.5774,7.5774,0,0,0,9.47794,2.80819c4.54374-2.053,5.91727-7.28031,5.07741-11.38688a.3381.3381,0,0,0-.49641-.28728C308.1991,87.6078,307.946,87.73327,307.68745,87.8428Zm8.50533-15.19893c-.31874-.05157-.51875.17223-.74166.32608a14.97926,14.97926,0,0,1-2.30719,1.25494,1.74585,1.74585,0,0,1-2.49254-.6861c-.5798-.86772-1.09867-1.776-1.68014-2.64255a7.59969,7.59969,0,0,0-7.19192-3.76936,28.31732,28.31732,0,0,0-6.16322,1.43133c-.43587.12912-.43685.42158-.33609.80184.26652,1.0057.497,2.02084.74908,3.03042.44747,1.792.43977,1.77353,2.04571.88535,1.95424-1.08081,3.97028-1.73718,6.20839-.83037a8.94066,8.94066,0,0,1,3.48457,3.00425,4.26354,4.26354,0,0,0,4.37713,1.73749C314.12175,76.60064,316.08315,74.40374,316.19278,72.64387Zm-38.47287,6.092c2.7268,1.50822,5.24894,3.14387,5.31267,6.8377.795-1.62867,1.10034-3.029-.21584-4.47246A8.5025,8.5025,0,0,0,277.71991,78.73589Z" fill="#f6cba4"/>
        <path d="M281.07089,199.94626a4.42491,4.42491,0,0,1,.243-3.00592,1.51931,1.51931,0,0,1,.63756-.74731c.79952.7922,1.3301,1.81721,2.20917,2.54056a.24678.24678,0,0,0,.026.06331c.00743.00974.02977.00815.04539.01167l-.08007-.06608a13.957,13.957,0,0,0-2.03123-5.26968,11.71673,11.71673,0,0,0-1.68551-3.47431c-1.519-2.60413-2.95754-5.24727-4.23325-7.97824a48.02372,48.02372,0,0,0-3.4424-5.70643,1.63377,1.63377,0,0,1,.84219-.53069c1.44525-.62053,2.88259-1.26332,4.34977-1.8283,2.67122-1.02864,5.32171-2.11917,8.08578-2.88987-.14344.24231-.27519.492-.43179.72508a29.6354,29.6354,0,0,0-3.64773,7.68929c-.06391.20307-.27214.43049-.10277.6336.19037.2283.43706.00722.6142-.06772a27.377,27.377,0,0,1,6.81878-1.9052,6.45147,6.45147,0,0,1,3.2286.16084c-1.96741,1.71857-3.00165,3.89582-4.17517,5.98144-.23627.41989-.2799.65728.27058.8493a4.72965,4.72965,0,0,1,1.66893,1.1333,24.1098,24.1098,0,0,1,6.2862,10.94223,18.44749,18.44749,0,0,0,1.08325,3.10331,2.11113,2.11113,0,0,1-.5074.96263,38.26328,38.26328,0,0,0-2.94667,4.94644,100.652,100.652,0,0,0-5.51992,14.274,39.5725,39.5725,0,0,0-1.418,15.82126,84.74088,84.74088,0,0,0,2.90059,13.37185c2.59967,9.082,5.06674,18.18769,5.95266,27.64157a92.22022,92.22022,0,0,1,.23544,11.845c-.17734,5.0719-.632,10.13319-.63259,15.21339l-3.89391-.05347c.03233-.53442.048-1.07049.10177-1.60276.05227-.51738-.07311-.7792-.67518-.7345a9.3491,9.3491,0,0,1-1.693-.06293c-2.16829-.23623-2.16739-.24443-2.178,1.90684a2.61009,2.61009,0,0,1-.42255.00462c-1.84413-.27264-3.68568-.56346-5.53222-.81843-.385-.05313-.43407-.304-.48078-.56905-.23832-1.35224-.46187-2.70712-.69059-4.06106-.48418-3.10825-.86482-6.22881-1.214-9.35546-.46794-4.19011-.82513-8.3887-1.19106-12.5879q-.4686-5.37765-.84408-10.76132c-.25039-3.64619-.546-7.28946-.8458-10.932q-.48759-5.92389-1.0256-11.84356c-.19148-2.07114-.418-4.13844-.462-6.21995a7.98407,7.98407,0,0,0,3.02364-.5012q2.13462-.68286,4.26909-1.36611a.66438.66438,0,0,0,.51309-.671q.23976-3.36216.645-6.70964c.34421-2.845.80067-5.67,1.34348-8.4827.74076-3.83849,1.74434-7.61412,2.7273-11.39475.20477-.78736.38525-1.58208.62268-2.3595.16352-.53547.01006-.705-.538-.71627-1.10166-.0226-2.18235.29-3.28635.17577a7.67456,7.67456,0,0,0,.68695-3.84212c-.02292-.63463-.21859-.8258-.82137-.50924a2.59273,2.59273,0,0,1-1.7224.2524c-.41838-.08069-.55117-.66487-1.05067-.6327Z" fill="#e7d0ae"/>
        <path d="M332.585,93.93722a5.58,5.58,0,0,1,4.59108,3.99593c1.24633,3.38385.66354,6.7146-.46883,9.99471a14.47391,14.47391,0,0,1-3.57985,5.77237c-1.79326,1.74246-3.82272,2.7789-6.40984,2.29333a1.59423,1.59423,0,0,0-.339.00841,9.35751,9.35751,0,0,1-3.29894-1.65922c-.43991-.3878-.5617-.34765-.72191.23775-1.03235,3.77231-2.08383,7.54089-2.80045,11.38776a53.65487,53.65487,0,0,0-1.238,9.78169,28.77757,28.77757,0,0,0,.64131,9.87322,29.19682,29.19682,0,0,0,5.5827,10.89485,80.49442,80.49442,0,0,0,6.7017,7.37876c.43718.43987,1.03223.69952,1.36657,1.24495-.44246.6626-1.23656.93405-1.72513,1.54507a3.05469,3.05469,0,0,0-.44565.24371c-4.04515,3.15735-8.06156,6.35694-11.78222,9.89017-2.98949,2.83886-5.91155,5.75081-8.62509,8.869a106.90811,106.90811,0,0,0-9.66384,12.91721c-.13608.21448-.21959.47225-.54392.45352l-.03751-1.50718c.26541-.216.187-.51937.179-.78989-.03506-1.18121-.01795-2.358-.13886-3.544a48.77139,48.77139,0,0,0-2.01426-9.637,83.26189,83.26189,0,0,0-3.09872-7.77275,49.02943,49.02943,0,0,1-3.44556-10.48995l-.14879-1.85729a51.74668,51.74668,0,0,0,8.97283-7.46489,12.388,12.388,0,0,0,5.66206,1.6181c-1.35045-1.05593-2.84718-1.85349-4.17806-2.89635-.09342-.07321-.26682-.04478-.403-.06362a.75633.75633,0,0,0-.28543-.50244c-2.12844-1.85413-2.28858-4.18611-1.65423-6.72009a45.50378,45.50378,0,0,1,2.40668-6.11863c.14863-.36242.3092-.71995.46439-1.07977a2.51366,2.51366,0,0,0,.83345-.11821c2.07025-.57374,4.0979-1.27065,6.10942-2.02265a7.78926,7.78926,0,0,0,5.06614-5.37745,80.57281,80.57281,0,0,0,2.31266-11.06635c.25253-1.70871.33243-1.8751,2.00138-1.51028.80023.17493,1.02731-.128,1.04112-.81064.02228-1.10149-.0095-2.20545.0514-3.3045.13556-2.446.31435-4.88961.47557-7.33429q.08214-.67172.16421-1.34324l.904-4.3936.50194-1.54494c.43183-.879.84011-1.77035,1.29956-2.63468A8.98054,8.98054,0,0,1,332.585,93.93722Zm-.17,17.12589c-.5425.1557-1.07862.34-1.62859.4622-2.468.54846-4.2232-.35835-4.94073-2.52243-.15327-.46224-.20691-.78052.46028-.8561a4.18975,4.18975,0,0,0,1.73828-.64278,2.26729,2.26729,0,0,0,1.37556-2.15322,2.39233,2.39233,0,0,0-1.5804-2.21614c-.77309-.27463-.87544-.7537-.758-1.43965.35476-2.07186,1.79911-3.02871,3.65069-3.55564a2.61756,2.61756,0,0,1,3.24841,1.29916,5.12448,5.12448,0,0,1,.65538,1.73122c.138.73035.243,1.4669.388,2.3583a8.191,8.191,0,0,0-.07784-4.01873,3.0217,3.0217,0,0,0-2.39242-2.1638c-2.70774-.54659-6.00218,2.01684-6.17866,4.76248a1.344,1.344,0,0,0,.78594,1.52372,3.23214,3.23214,0,0,1,1.108.90961,1.55557,1.55557,0,0,1-.44133,2.50765,6.30086,6.30086,0,0,1-1.85243.58734c-1.39678.30039-1.42062.32544-.989,1.69863.04223.13437.08986.26743.14236.39816a4.43732,4.43732,0,0,0,7.27625,1.32284l.0383-.01082Z" fill="#f6cba4"/>
        <path d="M320.0458,66.12773c-1.17753-1.17374-2.22583-2.46493-3.39263-3.65207a11.59033,11.59033,0,0,0-10.131-3.34583,25.82026,25.82026,0,0,0-8.34845,2.64715c-2.88165,1.37232-5.64724,3.00018-8.731,3.92322a27.93434,27.93434,0,0,1-6.476,1.15455,44.13306,44.13306,0,0,1-5.22027-.25017,31.72486,31.72486,0,0,1-8.49072-3.07393,30.54,30.54,0,0,1-3.92859-2.49888c1.12225-.2974,2.17718-.52472,3.19747-.85772a15.81671,15.81671,0,0,0,6.64478-3.77412c1.20527-1.232,1.19956-1.24407-.29554-1.97109a21.86552,21.86552,0,0,1-5.46921-3.36495,5.79846,5.79846,0,0,1-1.54875-2.19111c-.19684-.51444-.19057-.75515.501-.66281a37.836,37.836,0,0,0,7.87216.17313,24.15083,24.15083,0,0,0,8.44013-2.355,104.73658,104.73658,0,0,1,10.21933-4.54738c7.19362-2.45758,14.21778-1.68469,21.12368,1.05744a42.09989,42.09989,0,0,1,12.1686,7.92428,86.99728,86.99728,0,0,1,6.76976,6.7783c.15008.16489.34182.30413.37775.54848a7.5248,7.5248,0,0,1-2.01847.44469,28.00624,28.00624,0,0,0-11.31961,6.32048A7.87088,7.87088,0,0,1,320.0458,66.12773Z" fill="#dda84e"/>
        <path d="M320.0458,66.12773a7.87088,7.87088,0,0,0,1.9444-1.57332,28.00624,28.00624,0,0,1,11.31961-6.32048,7.5248,7.5248,0,0,0,2.01847-.44469,21.21529,21.21529,0,0,1,7.817.53566c.1582.04266.31244.1.60211.19369a8.93785,8.93785,0,0,1-3.1349,1.17379,14.37343,14.37343,0,0,0-4.22129,1.46656,2.24886,2.24886,0,0,0-.83577.68954,23.13149,23.13149,0,0,1,4.177.64542,21.11165,21.11165,0,0,1,7.45727,4.07826c.44259.34278.25529.56065.03164.88594a58.72677,58.72677,0,0,1-6.38649,7.67527c-.90388.928-1.824,1.84028-2.73136,2.84074,1.74025-.659,3.46024-.14605,5.45928-.06626-5.95836,3.97264-9.78387,9.12291-10.97774,16.02939a8.98051,8.98051,0,0,0-9.71791,4.83668c-.45945.86433-.86773,1.75573-1.29958,2.63464a15.69534,15.69534,0,0,0-7.32262-2.0342,27.71334,27.71334,0,0,1,2.36444-4.66481c.99106-1.67575,2.02517-3.3262,3.01244-5.00412a14.18631,14.18631,0,0,0,1.82515-8.77458,36.85056,36.85056,0,0,0-1.24929-7.13686,13.02372,13.02372,0,0,0-2.25419-4.51347c-.31545-.39381-.25129-.58774.0527-.90458C318.69805,67.64439,319.3648,66.87925,320.0458,66.12773Z" fill="#c38b37"/>
        <path d="M286.54231,140.06967a17.89028,17.89028,0,0,1-11.04334-4.11955,14.54984,14.54984,0,0,1-3.16317-3.92592,4.41193,4.41193,0,0,1-.26331-3.8344c.74773-2.07244,1.88972-3.965,2.76322-5.98047.77143.4113,1.52348.86487,2.31769,1.22616a24.023,24.023,0,0,0,9.06223,1.95126,25.82744,25.82744,0,0,0,9.96889-1.11582c3.80365-1.37,6.556-3.79379,7.71749-7.80648a52.08472,52.08472,0,0,0,1.30146-5.16253c.146-.80484.471-.84329,1.13275-.64451a37.04075,37.04075,0,0,1,3.65309,1.34751,7.18319,7.18319,0,0,1-.03337.92846,24.1421,24.1421,0,0,0-.12413,6.90606c.07057.56265.232.7882.85858.5427a9.97694,9.97694,0,0,1,4.00708-.5142c.35306.01093.57848.02625.50926.51455a76.51785,76.51785,0,0,1-1.9996,10.435,8.93052,8.93052,0,0,1-2.15192,4.25,12.98124,12.98124,0,0,1-5.44675,2.79362,24.13572,24.13572,0,0,0-3.0045.83606c-1.74151.29821-3.487.57484-5.22362.89933a42.7645,42.7645,0,0,1-9.49154.62392,71.3417,71.3417,0,0,1-.33165-7.31359,2.4986,2.4986,0,0,0-.67449,1.359A24.01785,24.01785,0,0,0,286.54231,140.06967Z" fill="#f6cba4"/>
        <path d="M220.3185,543.13946c.56868.47445.74212,1.21453,1.235,1.76131,2.08628,2.31429,4.86808,3.20845,7.7632,3.827a78.34853,78.34853,0,0,0,9.52724,1.2433,95.805,95.805,0,0,0,12.02677.26343,76.43549,76.43549,0,0,0,18.87061-3.03213c2.49265-.73718,4.89086-1.72814,7.35338-2.54179a40.85489,40.85489,0,0,1,.43712,6.91936,3.24509,3.24509,0,0,1-1.81415,3.1967,3.30676,3.30676,0,0,1-3.695-.70257c-.10387-.08947-.2118-.17421-.366-.30065-.70381,2.55135-2.67752,3.20109-4.91389,3.22738a8.65913,8.65913,0,0,1-6.66883-2.48275,8.44271,8.44271,0,0,1-4.31687,2.69083c-3.06122.656-5.54945-.46311-7.67264-2.58795-1.122-1.12287-1.10576-1.14212-2.49419-.37919-.42075.23118-.84563.45818-1.248.71876a8.95426,8.95426,0,0,1-5.84805,1.289c-.563-.04922-1.13123-.03759-1.697-.05485a4.988,4.988,0,0,1-4.55917-2.86616,8.83927,8.83927,0,0,1-.54713-1.14282c-.13717-.39409-.272-.396-.587-.16391a10.04086,10.04086,0,0,1-6.24464,1.79795c-2.10271-.0176-3.36933-1.44749-4.491-2.95787-.27455-.3697-.14736-1.03907-.1976-1.57139A20.13021,20.13021,0,0,1,220.3185,543.13946Z" fill="#914827"/>
        <path d="M296.25129,555.01343a17.7759,17.7759,0,0,0,7.2344,1.72276c4.605.30951,9.21558.22422,13.81355.09563a43.81323,43.81323,0,0,0,12.30663-1.8186,26.82222,26.82222,0,0,0,8.70516-5.0909,68.76828,68.76828,0,0,0,5.837-5.5201c1.36631-1.41768,2.62771-2.93542,4.05009-4.30185.19976,1.41636.91608,2.719.82014,4.21069a19.44024,19.44024,0,0,1-1.15761,5.86492,2.93262,2.93262,0,0,1-.14076.30781c-.38322.72472-.72419,1.56788-1.6726,1.62671-.90841.05635-1.35232-.70227-1.81128-1.3511-.11179-.158-.224-.31581-.42481-.59894-.18365,1.01853-.3292,1.91514-.50994,2.80463a13.02366,13.02366,0,0,1-.94513,2.97227,3.59144,3.59144,0,0,1-3.13112,2.13221,7.16653,7.16653,0,0,1-5.19065-1.33185,23.14731,23.14731,0,0,1-1.42621,2.64785c-1.25971,1.80229-2.83756,3.09655-5.16463,3.0554a7.77725,7.77725,0,0,1-4.39356-1.61669c-.64313-.46-.88513-.43243-1.213.32119a4.36763,4.36763,0,0,1-3.96577,2.7208c-1.21413.092-2.42611.1442-3.64295.1603a4.70784,4.70784,0,0,1-3.84436-1.81413,15.01069,15.01069,0,0,0-1.903-1.80639c-.27983-.23581-.49091-.28566-.77474.01925a9.89475,9.89475,0,0,1-1.02253.88809,5.74284,5.74284,0,0,1-8.05316-.17935,6.75932,6.75932,0,0,1-2.57788-5.04677A2.53,2.53,0,0,1,296.25129,555.01343Z" fill="#914827"/>
        <path d="M361.64505,212.98075c-1.13663,1.16766-2.2485,2.3606-3.41475,3.498a21.90494,21.90494,0,0,1-10.31728,5.61964c-.46193.11263-.94055.1571-1.41125.23307-1.77642.06262-3.551.18079-5.33154.11406-.78747-.02954-1.389-.18562-1.62926-1.08546a23.56316,23.56316,0,0,0-.86707-2.1991,40.58151,40.58151,0,0,1-1.80511-4.98849c3.57885.93513,6.85273-.27345,10.09187-1.50886a40.13466,40.13466,0,0,0,10.9062-6.22012,10.25217,10.25217,0,0,0,2.27227-2.13371c.25331-.378.67713-.36345,1.03308-.50837,1.17835,1.53981,2.40206,3.04575,3.476,4.66352a.85113.85113,0,0,1-.07466,1.25067C363.55974,210.76791,362.61677,211.88811,361.64505,212.98075Z" fill="#caad83"/>
        <path d="M309.61623,368.47837a11.00068,11.00068,0,0,1-1.06031-3.065q-1.55574-4.77524-2.98646-9.59076c-.63391-2.12729-1.20058-4.27568-1.74156-6.42862a1.79057,1.79057,0,0,0-.98132-1.25946,28.37749,28.37749,0,0,0-5.35689-2.31168.70029.70029,0,0,1-.62-.62958,16.99208,16.99208,0,0,1,.11522-5.12216,50.65131,50.65131,0,0,0,.28613-10.007c-.14007-1.25593-.07857-2.52651-.15408-3.79184a26.61834,26.61834,0,0,0-1.337-6.83775,3.09312,3.09312,0,0,1-.079-.41378c.4517-.11319.89738.10011,1.32781.06494,2.39544-.19583,4.806-.13033,7.19451-.4273-.22491,2.85059-.56537,5.698-.64318,8.55261-.08278,3.03681-.14284,6.07884.07293,9.12356a64.58892,64.58892,0,0,0,.73812,6.427c.16179.93786.4226,1.86037.6691,2.7817.60214,2.25066.66774,4.592,1.25975,6.85392,1.04218,3.98192,2.55382,7.80537,3.77274,11.72569a2.6972,2.6972,0,0,1,.26352,1.86368A15.34919,15.34919,0,0,1,309.61623,368.47837Z" fill="#6e683c"/>
        <path d="M257.31653,198.5719a9.70612,9.70612,0,0,1,2.1843,1.68761,6.7004,6.7004,0,0,0,2.09148,3.29718c3.65743,3.58965,8.46452,4.58935,13.2164,5.68746-.0827,1.65252-.37364,3.29064-.34168,4.95129a1.61433,1.61433,0,0,0,.17978.979c-.33943.15743-.34809.45814-.34825.77223-.00032.607-.01277,1.21405-.0202,1.82108l-3.02755-.03043c-1.65637-.3282-3.3444-.47153-4.97621-.95324a16.82064,16.82064,0,0,1-8.8088-6.53938c-.13389-.18057-.28946-.3451-.43519-.517-.273-.5249-.55466-1.04549-.817-1.57563a6.80638,6.80638,0,0,1-.01094-6.937A10.6394,10.6394,0,0,0,257.31653,198.5719Z" fill="#af9674"/>
        <path d="M302.604,138.6971a24.13572,24.13572,0,0,1,3.0045-.83606,12.98124,12.98124,0,0,0,5.44675-2.79362,8.93052,8.93052,0,0,0,2.15192-4.25,76.51785,76.51785,0,0,0,1.9996-10.43495c.06922-.4883-.1562-.50362-.50926-.51455a9.97694,9.97694,0,0,0-4.00708.5142c-.6266.2455-.788.01995-.85858-.5427a24.1421,24.1421,0,0,1,.12413-6.90606,7.17482,7.17482,0,0,0,.03332-.92852c.26064-.1758.18055-.433.16214-.67547.28691-1.16639.568-2.33425.8648-3.49813a1.546,1.546,0,0,1,.33474-.83835,37.11974,37.11974,0,0,1,4.81288.7667,21.4524,21.4524,0,0,0,3.83352.93086c-.16117,2.44459-.34,4.8882-.47552,7.3342-.0609,1.09905-.02912,2.203-.0514,3.3045-.01381.68263-.24089.98557-1.04112.81064-1.66895-.36482-1.74885-.19843-2.00138,1.51028a80.57281,80.57281,0,0,1-2.31266,11.06635,7.78926,7.78926,0,0,1-5.06614,5.37745c-2.01152.752-4.03917,1.44891-6.10942,2.02265a2.51366,2.51366,0,0,1-.83345.11821Q302.35495,139.46594,302.604,138.6971Z" fill="#c38b37"/>
        <path d="M280.25,298.39581c.22872,1.35394.45227,2.70882.69059,4.06106.04671.265.09583.51592.48078.56905,1.84654.255,3.68809.54579,5.53222.81843a2.61023,2.61023,0,0,0,.42256-.00462c-.01506,1.45757-.02464,2.91063-.128,4.37074-.17216,2.43294-.08158,4.884-.24033,7.31841a9.421,9.421,0,0,1-.32082,2.96283c-1.63769-.00592-3.22853-.41278-4.84883-.5601-.55514-.05047-.70237-.4266-.8618-.83509.075-.58123-.44284-.63122-.7494-.65585a16.49418,16.49418,0,0,0-2.37824-.37764c-.50021.03108-.4729-.33886-.46359-.70461.03945-1.55006.10409-3.10144.07669-4.65088q-.10092-5.70873-.30082-11.41524c-.01412-.39024.1796-.45419.36112-.454C278.45917,298.83911,279.31863,298.39782,280.25,298.39581Z" fill="#743016"/>
        <path d="M330.88646,166.6868c.48857-.611,1.28267-.88247,1.72513-1.54507a2.5872,2.5872,0,0,1,.5298.23535,144.62719,144.62719,0,0,0,16.52354,10.11686c.49458.27413,1.266.34519,1.26483,1.18318a3.81183,3.81183,0,0,0-2.07348,2.00931,18.32076,18.32076,0,0,0-1.18892,2.24338c-.30595.73233-.66622.62437-1.20893.29941a56.30335,56.30335,0,0,1-5.57747-3.98882,54.24016,54.24016,0,0,0-4.67621-3.35583,1.13209,1.13209,0,0,0-.87064-.22069c-.5184-.43974-.59988-1.10838-.87631-1.67379A15.79,15.79,0,0,0,330.88646,166.6868Z" fill="#af9674"/>
        <path d="M336.97094,335.26839a27.981,27.981,0,0,0,8.19838,3.55107,59.91527,59.91527,0,0,1,.72681,8.819,11.90006,11.90006,0,0,1-3.78347-1.838A24.10664,24.10664,0,0,1,331.78908,333.065a3.17481,3.17481,0,0,1-.37189-1.89678c1.058.93664,2.13989,1.84365,3.27591,2.68615.14111.10466.24845.22608.44027.16961A6.05691,6.05691,0,0,0,336.97094,335.26839Z" fill="#6e683c"/>
        <path d="M291.121,163.46244q.0744.92865.149,1.85737c-.34866.02987-.51474.31914-.74084.52192a41.53453,41.53453,0,0,0-4.49181,5.2229c-2.76423.771-5.41472,1.86157-8.08594,2.89021-1.46718.565-2.90452,1.20777-4.34977,1.8283a1.63377,1.63377,0,0,0-.84219.53069,54.43162,54.43162,0,0,0-3.93-4.17028c-.0688-.06829-.07221-.20219-.10606-.30537a99.45039,99.45039,0,0,0,12.68127-3.6211A63.056,63.056,0,0,0,291.121,163.46244Z" fill="#af9674"/>
        <path d="M318.31931,135.75a53.65487,53.65487,0,0,1,1.238-9.78169c.71662-3.84687,1.7681-7.61545,2.80045-11.38776.16021-.5854.282-.62555.72191-.23775a9.35732,9.35732,0,0,0,3.29894,1.65921,32.9688,32.9688,0,0,0-1.48439,13.34,1.03492,1.03492,0,0,1-.61176,1.19858A13.49426,13.49426,0,0,0,318.31931,135.75Z" fill="#c38b37"/>
        <path d="M274.27836,217.76777c.00743-.607.01988-1.21405.0202-1.82108.00016-.31409.00882-.6148.34818-.77208a4.92182,4.92182,0,0,1,1.35587,2.08278c.301.66613.54738.62194.96191.11109.73764-.909,1.50992-1.79007,2.2677-2.68283a.33672.33672,0,0,1,.108.4464c-1.20639,3.35015-1.30928,6.874-1.424,10.35562-.1128,3.42422-.33425,6.85282-.21791,10.28437.00476.14049-.00451.28148-.00724.42224a7.98187,7.98187,0,0,1-3.0236.5013c-.24944-2.95082-.30329-5.9097-.40875-8.8675C274.13907,224.47228,274.24217,221.121,274.27836,217.76777Z" fill="#9a8265"/>
        <path d="M310.15141,111.32939c.0184.24246.09849.49967-.16215.67547a37.05,37.05,0,0,0-3.653-1.34745c-.6618-.19878-.98675-.16033-1.13275.64451a52.08472,52.08472,0,0,1-1.30146,5.16253c-1.16146,4.01269-3.91384,6.43646-7.71749,7.80648a25.82744,25.82744,0,0,1-9.96889,1.11582,24.023,24.023,0,0,1-9.06223-1.95126c-.79421-.36129-1.54626-.81486-2.31769-1.22616a12.36159,12.36159,0,0,1-3.06871-3.16053.89351.89351,0,0,1,.76587.26943c4.93121,3.6368,10.55034,4.87819,16.5654,4.69405a27.66113,27.66113,0,0,0,6.36916-.8804,10.1635,10.1635,0,0,0,6.94455-5.96382,29.03017,29.03017,0,0,0,1.80221-6.15685c.12326-.60331-.13294-.66324-.62155-.59885a42.21319,42.21319,0,0,0-4.5404,1.04016,1.37062,1.37062,0,0,1-.88659.0943C300.6641,108.79986,306.55369,108.69947,310.15141,111.32939Z" fill="#3f1a38"/>
        <path d="M277.6051,69.90574a16.34942,16.34942,0,0,1,6.07391-.88239,20.375,20.375,0,0,1,4.24209.708c.27028.07328.55347.15708.34807.57695-.71438,1.46031-1.40508,2.93215-2.15466,4.50425a5.80592,5.80592,0,0,0-2.86031-2.57114,6.12345,6.12345,0,0,0-5.50743.68255c-.39815.24689-.71979.65378-1.24766.66206Z" fill="#dda84e"/>
        <path d="M279.73516,94.45654c-.868,2.97028-1.70451,5.9502-2.61358,8.90791a13.04685,13.04685,0,0,1-4.53294,6.17479c.03788-.67423.59463-1.03105.95045-1.501a16.24273,16.24273,0,0,0,2.18516-3.05057c1.17869-1.80051,1.41932-3.88526,1.79335-5.92709a14.43569,14.43569,0,0,1,.56485-2.28874c.10048-.28022.18941-.48991-.14066-.71642-2.57055-1.76412-3.68959-4.39711-4.27787-7.31006a16.79465,16.79465,0,0,1-.36378-3.43256c.00215-.31469-.19106-.79831.15841-.91a.90719.90719,0,0,1,1.03254.38871,44.35042,44.35042,0,0,0,.86541,4.46561C276.04762,91.5877,277.1994,93.6277,279.73516,94.45654Z" fill="#b1805f"/>
        <path d="M279.51454,113.93516a8.23016,8.23016,0,0,1,2.98578-.80189,29.30991,29.30991,0,0,1,6.82379-.52978,6.66229,6.66229,0,0,0,2.49828-.37566,1.35454,1.35454,0,0,0,.5881-2.3518A5.51093,5.51093,0,0,0,289,108.35474c-.64623-.12087-1.30667-.16606-2.01-.25145,1.47646-.83977,5.20056-.2224,6.26067,1.46742.90852,1.44819.41718,2.781-1.29924,3.32593a15.85342,15.85342,0,0,1-3.93534.49909,41.40442,41.40442,0,0,0-8.37861,1.03964,2.62342,2.62342,0,0,1-.59072.02232Z" fill="#b1805f"/>
        <path d="M354.18032,323.882l-6.98049,9.61116a10.1394,10.1394,0,0,1,1.45679-3.9243,37.61848,37.61848,0,0,1,4.00122-5.52244C353.17594,324.08919,353.655,323.77217,354.18032,323.882Z" fill="#b1805f"/>
        <path d="M286.54231,140.06967a24.01785,24.01785,0,0,1,.34035-5.80387,2.4986,2.4986,0,0,1,.67449-1.359,71.3417,71.3417,0,0,0,.33165,7.31359A2.50453,2.50453,0,0,1,286.54231,140.06967Z" fill="#b1805f"/>
        <path d="M301.17484,154.65568c.13621.01884.30961-.00959.403.06362,1.33088,1.04286,2.82761,1.84042,4.17806,2.89635a12.388,12.388,0,0,1-5.66206-1.6181Q300.63431,155.32655,301.17484,154.65568Z" fill="#b1805f"/>
        <path d="M276.5048,73.58233a.31716.31716,0,0,1-.1875.34986C276.34275,73.79584,276.32336,73.63549,276.5048,73.58233Z" fill="#dda84e"/>
        <path d="M279.0609,114.447l-.16005.17526Z" fill="#b1805f"/>
        <path d="M272.59859,109.52919c-.05677.18233-.1233.12652-.19247.00795Z" fill="#b1805f"/>
        <path d="M304.22323,318.65839c-2.38849.297-4.79907.23147-7.19451.4273-.43043.03517-.87611-.17813-1.32781-.06494q-2.20282-.03134-4.40558-.06353c.01016-2.4667.2386-4.92621.29855-7.38757.05878-2.413.26893-4.82128.22664-7.23657l3.89391.05347a1.38731,1.38731,0,0,0,1.3698-.02,59.797,59.797,0,0,0,11.53811-1.19979c.06043.27254.13405.543.17912.818q.48027,2.93069.94992,5.86316.63308,3.965,1.2574,7.93131c-1.7556.25292-3.51024.51285-5.26742.75434C305.2391,318.60263,304.72948,318.61825,304.22323,318.65839Zm-4.71079-8.49824c.59881-.00971,1.33665-.76451,1.28455-1.23774a1.0342,1.0342,0,0,0-1.07293-.97668,1.22028,1.22028,0,0,0-1.11614,1.23229A.95583.95583,0,0,0,299.51244,310.16015Zm-.56949,4.08594c-.01746.57271.22369.901.62516.93766a1.18155,1.18155,0,0,0,1.04954-1.1368c-.04193-.49823-.23443-1.01853-.83061-.98986C299.02174,313.09387,299.08956,313.812,298.943,314.24609Z" fill="#743016"/>
        <path d="M323.33875,312.883q-.20627.75887-.41249,1.51774a50.16844,50.16844,0,0,1-6.8291,2.11143c-.21956.04268-.44395.06057-.66612.0899a4.388,4.388,0,0,1-.16775-.56042c-.45449-2.78642-.924-5.57067-1.34472-8.36222-.29159-1.93478-.76175-3.8432-.87194-5.80492a21.6839,21.6839,0,0,0,5.18942-1.61911c.288-.106.575-.21462.86259-.322.31667.03454.36483.2613.44049.52437.89206,3.10151,1.76741,6.20855,2.72337,9.29062A9.4699,9.4699,0,0,0,323.33875,312.883Z" fill="#743016"/>
        <path d="M313.04663,301.87449c.11019,1.96172.58035,3.87014.87194,5.80492.42071,2.79155.89023,5.5758,1.34472,8.36222a4.38645,4.38645,0,0,0,.16776.56042c-.00027.11217-.009.225.00041.33627.13963,1.6577.14218,1.66785-1.48012,1.98152-.73886.14283-1.4877.234-2.23119.35356-.28457.04579-.49742.017-.53669-.33876-.04272-.38683-.11517-.77036-.17466-1.15537q-.62834-3.96576-1.25742-7.93133-.46824-2.93264-.94992-5.86316c-.04507-.275-.11869-.54545-.17912-.818a5.91706,5.91706,0,0,0-.1885-1.16025c-.322-.87173.07943-1.11024.86429-1.18607a15.82626,15.82626,0,0,0,2.57888-.40707c.74625-.20035.9604.06583.99758.7324A4.11549,4.11549,0,0,0,313.04663,301.87449Z" fill="#914827"/>
        <path d="M323.9233,321.01723c.76624-.30249,1.171-1.02054,1.75078-1.536.522-.46406.97086-1.01,1.452-1.51988l.25213.17059q-1.1713,2.37857-2.343,4.75719A3.60532,3.60532,0,0,1,323.9233,321.01723Z" fill="#b1805f"/>
        <path d="M328.67876,327.77626a12.30652,12.30652,0,0,1,2.33447-2.62672,20.1735,20.1735,0,0,0-.82343,4.5057A4.7979,4.7979,0,0,1,328.67876,327.77626Z" fill="#b1805f"/>
        <path d="M330.88646,166.6868a15.79,15.79,0,0,1,3.57134,5.30329c.27643.56541.35791,1.234.87631,1.67379a1.81443,1.81443,0,0,0,.23332.97437c.98689,2.5816,1.713,5.24509,2.50819,7.88691.07029.23353.27055.51322-.00056.68446-.21874.13816-.40517-.14735-.5769-.26507-3.04782-2.08956-6.0839-4.19615-9.131-6.28673a2.16879,2.16879,0,0,0-1.00386-.54136,8.06989,8.06989,0,0,0,.90785,2.77983,17.46681,17.46681,0,0,0,1.66019,3.04394c.31241.41917.20889.57429-.31595.71557a69.41672,69.41672,0,0,0-12.99247,4.83469,35.57579,35.57579,0,0,0-9.57163,6.59968c-2.60892,2.625-5.019,5.41716-7.4022,8.23928-.67269.79659-1.407,1.54155-2.11794,2.30564-.17062.18334-.33026.39922-.628.37958a29.20427,29.20427,0,0,1,2.37766-4.49352,2.73376,2.73376,0,0,0,.54494-1.4607c.32433.01873.40784-.239.54392-.45352a106.90811,106.90811,0,0,1,9.66384-12.91721c2.71354-3.11823,5.6356-6.03018,8.62509-8.869,3.72066-3.53323,7.73707-6.73282,11.78222-9.89017A3.05469,3.05469,0,0,1,330.88646,166.6868Z" fill="#caad83"/>
        <path d="M299.82574,199.06045a2.73376,2.73376,0,0,1-.54494,1.4607,29.20427,29.20427,0,0,0-2.37766,4.49352,35.75083,35.75083,0,0,0-2.8871,6.00179,58.75329,58.75329,0,0,0-4.03168,14.81129,50.97126,50.97126,0,0,0,.358,15.83736c1.15528,6.42087,3.15543,12.62706,4.772,18.93052a87.80577,87.80577,0,0,1,2.50559,14.38522,142.58659,142.58659,0,0,1,.419,16.07015c-.11873,4.28256-.44207,8.55692-.83511,12.82423a3.35487,3.35487,0,0,1-.11959.49133,1.38718,1.38718,0,0,1-1.36976.02c.0006-5.0802.45525-10.14149.63259-15.21339a92.22022,92.22022,0,0,0-.23544-11.845c-.88592-9.45388-3.353-18.55953-5.95266-27.64157a84.74088,84.74088,0,0,1-2.90059-13.37185,39.5725,39.5725,0,0,1,1.418-15.82126,100.652,100.652,0,0,1,5.51992-14.274,38.26328,38.26328,0,0,1,2.94667-4.94644,2.10493,2.10493,0,0,0,.50688-.96286c.29212-.10566.37743-.39974.55079-.61168a25.89274,25.89274,0,0,1,1.58764-2.14526Z" fill="#87755c"/>
        <path d="M335.842,287.99538c.36486.18982.41815.5814.569.90191,1.26814,2.69414,2.48172,5.41216,3.55065,8.19258a11.63273,11.63273,0,0,1-3.51768,4.46424c-2.35493,1.89327-4.92618,3.49433-7.41062,5.21229l-.04662-.04567c.09619-.434.17732-.87206.29244-1.301a.89093.89093,0,0,0-.52135-1.09744c-.36311-.20868-.78143-.38482-1.05747.00194a1.89431,1.89431,0,0,0-.11355,1.81595c.19542.56113.48126.8641,1.09372.78l.05753.0674q-1.12483.94046-2.24965,1.8807c-.71707-2.29791-1.46257-4.58734-2.1403-6.89656a24.145,24.145,0,0,1-1.09991-4.03769,43.86778,43.86778,0,0,0,12.11125-9.26567C335.54349,288.46351,335.79247,288.2987,335.842,287.99538Zm-2.39459,13.42356c-.03712.63527-.04873,1.1564.6058,1.23881a1.6247,1.6247,0,0,0,1.43372-1.22674,1.33708,1.33708,0,0,0-1.23076-1.28213C333.313,300.19984,333.591,301.0151,333.44741,301.41894Zm-.1728-5.77608c.03385-.41291-.07025-.70341-.5561-.76522a1.45289,1.45289,0,0,0-1.62636,1.21005c-.09064.61883.35087.85958.83295.96724C332.40016,297.161,333.18712,296.29724,333.27461,295.64286Zm-5.77361,2.80249c-.76029.01031-1.56809.63959-1.50272,1.13294a1.08816,1.08816,0,0,0,.98089,1.0145c.45232.0544,1.19918-.82917,1.19608-1.367A.68861.68861,0,0,0,327.501,298.44535Z" fill="#743016"/>
        <path d="M315.58576,235.4949c-1.93228-.03881-3.86439-.08143-5.79-.26117.00823-.70514.04065-1.41066.01981-2.1146a39.827,39.827,0,0,1,.69921-8.03321c.33177-1.90153.67361-3.80577,1.08024-5.68982a9.82442,9.82442,0,0,1,1.29433-4.05061q.68892,1.25241,1.37734,2.505c.1892.346.40052.4571.69031.09721.1408-.17486.2965-.33779.44527-.50625a18.7,18.7,0,0,1,5.63021-4.46964c.203.14511.14584.32164.09632.52616-.5207,2.15074-1.02944,4.30435-1.54274,6.45687C318.34511,225.15853,316.52245,230.21319,315.58576,235.4949Z" fill="#9a8265"/>
        <path d="M312.88941,215.34536a9.82453,9.82453,0,0,0-1.29441,4.05074c-.40663,1.88405-.74847,3.78829-1.08024,5.68982a39.827,39.827,0,0,0-.69921,8.03321c.02084.70394-.01158,1.40946-.01981,2.1146-1.52281-.03018-3.04442-.04867-4.56382-.19421-.63367-.06072-.87886-.28256-.87892-.93638a63.1437,63.1437,0,0,1,.83849-9.135,106.23776,106.23776,0,0,1,2.10334-10.81951,11.51583,11.51583,0,0,1,1.49737-4.07537,12.87432,12.87432,0,0,0,2.29764,2.56218A7.63646,7.63646,0,0,1,312.88941,215.34536Z" fill="#af9674"/>
        <path d="M315.58576,235.4949c.93669-5.28171,2.75935-10.33637,4.00028-15.54008.5133-2.15252,1.022-4.30613,1.54274-6.45687.04952-.20452.10668-.38105-.09627-.52606a14.557,14.557,0,0,1,4.9308-1.8311,1.01824,1.01824,0,0,1,1.03687.1527,181.38241,181.38241,0,0,0-5.049,19.26179c-.2936,1.40166-.514,2.81929-.74018,4.234-.07673.4799-.21317.77092-.78657.75629C318.81214,235.5044,317.19872,235.50858,315.58576,235.4949Z" fill="#af9674"/>
        <path d="M327.00019,211.29349a1.01826,1.01826,0,0,0-1.03688-.1527,14.557,14.557,0,0,0-4.9308,1.8311,18.69776,18.69776,0,0,0-5.63026,4.46954c-.14877.16846-.30447.33139-.44527.50625-.28979.35989-.50111.24882-.69031-.09721q-.68577-1.254-1.37734-2.505a7.63454,7.63454,0,0,0-1.79949-2.71008,12.87432,12.87432,0,0,1-2.29764-2.56218,2.5581,2.5581,0,0,1,2.24436-2.66857,27.46367,27.46367,0,0,1,10.56715-.404,45.998,45.998,0,0,1,5.872,1.132c.604.1633.77609.38558.44212.99729A22.1592,22.1592,0,0,0,327.00019,211.29349Z" fill="#caad83"/>
        <path d="M323.2482,297.934a24.145,24.145,0,0,0,1.09991,4.03769c.67773,2.30922,1.42323,4.59865,2.1403,6.89656a14.992,14.992,0,0,0-3.1498,4.01468,9.47255,9.47255,0,0,1-1.07611-3.13458c-.956-3.08207-1.83131-6.18911-2.72337-9.29062-.07566-.26307-.12382-.48983-.44049-.52437.29143-.71185-.18276-1.30435-.334-1.93912-.10229-.42943-.1166-.65254.36368-.82,1.01032-.35232,2.00568-.75107,2.99169-1.16725.3962-.16724.53773-.09367.63805.323A5.51227,5.51227,0,0,0,323.2482,297.934Z" fill="#914827"/>
        <path d="M304.61953,296.41113a2.84455,2.84455,0,0,1-2.78388-2.812,2.918,2.918,0,0,1,2.75034-2.7759,2.967,2.967,0,0,1,2.84938,2.79056A2.90758,2.90758,0,0,1,304.61953,296.41113Z" fill="#caad83"/>
        <path d="M303.86906,259.00088a2.77824,2.77824,0,0,1-2.88636,2.7905,2.78215,2.78215,0,0,1,.06548-5.56344A2.834,2.834,0,0,1,303.86906,259.00088Z" fill="#caad83"/>
        <path d="M305.28025,205.18826a2.72151,2.72151,0,1,1,2.84611-2.70149A2.75244,2.75244,0,0,1,305.28025,205.18826Z" fill="#caad83"/>
        <path d="M297.609,220.26834a2.67455,2.67455,0,0,1,2.69553,2.75074,2.7056,2.7056,0,0,1-2.857,2.686,2.78129,2.78129,0,0,1-2.71291-2.68356A2.65349,2.65349,0,0,1,297.609,220.26834Z" fill="#caad83"/>
        <path d="M335.63447,210.681a23.74056,23.74056,0,0,0-1.86156,3.31309,5.30012,5.30012,0,0,1-.6284-2.71434,49.71937,49.71937,0,0,1-.35387-9.10023,32.22069,32.22069,0,0,1,.39067-3.59877A67.19785,67.19785,0,0,0,335.63447,210.681Z" fill="#87755c"/>
        <path d="M291.82052,304.33308c.04229,2.41529-.16786,4.8236-.22664,7.23657-.06,2.46136-.28839,4.92087-.29855,7.38757.11027.70892-.20512.92715-.89538.87587-.781-.058-1.56935-.01807-2.35449-.0213-1.29914-.00532-1.29914-.00551-1.3583-1.32041a9.42156,9.42156,0,0,0,.32069-2.9625c.15875-2.43443.06817-4.88547.24033-7.31841.10332-1.46011.1129-2.91317.128-4.37074.01062-2.15127.00972-2.14307,2.178-1.90684a9.3491,9.3491,0,0,0,1.693.06293c.60207-.0447.72745.21712.67518.7345C291.86853,303.26259,291.85285,303.79866,291.82052,304.33308Z" fill="#914827"/>
        <path d="M279.23222,214.68565c-.75778.89276-1.53006,1.7738-2.2677,2.68283-.41453.51085-.66086.555-.96191-.11109a4.92182,4.92182,0,0,0-1.35587-2.08278,1.61546,1.61546,0,0,1-.17971-.97917c-.032-1.66065.259-3.29877.34169-4.95121l-.0062-1.53352,1.51534.0141q.87993-.00087,1.75959-.00176a9.11684,9.11684,0,0,0,4.55621-1.69394,3.22852,3.22852,0,0,0,1.18723-1.359l.08327.00317.08328-.00306c1.104.11424,2.18468-.19835,3.28634-.17575.54807.01128.70153.1808.538.71627-.23743.77742-.41791,1.57214-.62242,2.35938-.35815-.06658-.56143.17187-.79756.378-.59.515-1.21108.9949-1.79528,1.51611A58.88842,58.88842,0,0,0,279.23222,214.68565Z" fill="#caad83"/>
        <path d="M246.07,230.28034c.88775-1.2817,1.59423-2.6817,2.56345-3.9102a17.227,17.227,0,0,1-.5236,3.1471,38.7062,38.7062,0,0,1-1.18267,6.965c-1.55232,4.93594-3.02813,9.91284-5.81126,14.352a10.6965,10.6965,0,0,1-2.17114,2.67231l.00954.0101a7.16054,7.16054,0,0,1,.84679-2.362,112.14018,112.14018,0,0,0,5.77639-19.63505A4.02614,4.02614,0,0,1,246.07,230.28034Z" fill="#b1805f"/>
        <path d="M283.82089,204.67009a3.22852,3.22852,0,0,1-1.18723,1.359,15.82324,15.82324,0,0,0-1.65565-2.9116,21.16278,21.16278,0,0,0-2.87523-3.90469q-2.26324-2.67861-4.52543-5.35814a35.183,35.183,0,0,1-4.40657-6.29322c.27024-.11422.34868.08013.44657.17742a108.19636,108.19636,0,0,1,9.046,9.60944c.72747.92474,1.60126,1.73488,2.40769,2.59778l.009-.00761A20.79536,20.79536,0,0,1,283.82089,204.67009Z" fill="#b1805f"/>
        <path d="M274.80252,207.71071l.0062,1.53352c-4.75189-1.09819-9.559-2.09789-13.21641-5.68754a6.7004,6.7004,0,0,1-2.09148-3.29718c2.09474,1.35872,4.12882,2.81171,6.31853,4.0233a24.93952,24.93952,0,0,0,8.608,3.27735A1.65776,1.65776,0,0,1,274.80252,207.71071Z" fill="#e7d0ae"/>
        <path d="M282.12066,193.47281a13.957,13.957,0,0,1,2.03123,5.26968l.00874-.00893c-.87909-.72332-1.40967-1.74833-2.20919-2.54053a100.773,100.773,0,0,1-7.27071-10.05836,16.14571,16.14571,0,0,1-1.92953-3.83036l.05592-.04742a11.6236,11.6236,0,0,1,2.41533,2.8926A65.17261,65.17261,0,0,0,282.12066,193.47281Z" fill="#b1805f"/>
        <path d="M278.10279,199.21282a21.16318,21.16318,0,0,1,2.87522,3.90469c-.75441.41434-1.47662.9471-2.42424.6189-2.04454-.70806-2.4647-2.341-1.02781-4.04645A4.07911,4.07911,0,0,1,278.10279,199.21282Z" fill="#e7d0ae"/>
        <path d="M272.27325,201.78485a23.64624,23.64624,0,0,1,2.57361,3.54583,3.09287,3.09287,0,0,1-2.97209-.80775,2.5561,2.5561,0,0,1,.00265-2.47215A.49374.49374,0,0,1,272.27325,201.78485Z" fill="#e7d0ae"/>
        <path d="M272.7512,182.30431c-.03758-.06688-.07743-.13271-.10959-.20209-.00363-.00782.03617-.03568.05583-.05426.03616.07.07231.13992.10908.2094Z" fill="#b1805f"/>
        <path d="M262.40729,188.729l-.07968-.0575c.0148.00224.03543-.0007.04311.0079a.23446.23446,0,0,1,.02919.05728Z" fill="#b1805f"/>
        <path d="M238.9448,253.50652a.25837.25837,0,0,1-.02982.06578c-.008.00965-.03177.00621-.04843.00867l.08775-.06439Z" fill="#b1805f"/>
        <path d="M248.6263,226.3791l.01989-.17038C248.77593,226.28134,248.78784,226.34033,248.6263,226.3791Z" fill="#b1805f"/>
        <path d="M336.97094,335.26839a6.05691,6.05691,0,0,1-1.83757-1.2444,6.599,6.599,0,0,1,2.125-3.39546A22.691,22.691,0,0,0,336.97094,335.26839Z" fill="#b1805f"/>
        <path d="M329.03336,306.7664q-.14775.11048-.2954.22106l-.05738-.0672.30617-.19953Z" fill="#743016"/>
        <path d="M316.19278,72.64387c-.10963,1.75987-2.071,3.95677-4.04788,4.54332a4.26354,4.26354,0,0,1-4.37713-1.73749,8.94066,8.94066,0,0,0-3.48457-3.00425c-2.23811-.90681-4.25415-.25044-6.20839.83037-1.60594.88818-1.59824.90666-2.04571-.88535-.2521-1.00958-.48256-2.02472-.74908-3.03042-.10076-.38026-.09978-.67272.33609-.80184a28.31732,28.31732,0,0,1,6.16322-1.43133,7.59969,7.59969,0,0,1,7.19192,3.76936c.58147.86653,1.10034,1.77483,1.68014,2.64255a1.74585,1.74585,0,0,0,2.49254.6861A14.97926,14.97926,0,0,0,315.45112,72.97C315.674,72.8161,315.874,72.5923,316.19278,72.64387Z" fill="#dda84e"/>
        <path d="M305.3772,88.33154a9.322,9.322,0,0,1,2.31032-.4887c.0715.58755.182,1.17336.2077,1.76285.12488,2.8644-.52071,5.50657-3.15021,7.02784-4.66877,2.70108-9.74948.57592-10.894-5.48564a4.86661,4.86661,0,0,1,.147-2.65057,35.13315,35.13315,0,0,0,7.34621.33948,10.71928,10.71928,0,0,0,.464,3.49565c.22927.68827.52084,1.38723,1.37124,1.40145a1.71611,1.71611,0,0,0,1.64418-1.35071A8.57252,8.57252,0,0,0,305.3772,88.33154Z" fill="#fff"/>
        <path d="M293.998,88.49732a4.86661,4.86661,0,0,0-.147,2.65057c1.14453,6.06156,6.22524,8.18672,10.894,5.48564,2.6295-1.52127,3.27509-4.16344,3.15021-7.02784-.02571-.58949-.1362-1.1753-.2077-1.76285.25843-.10957.51158-.235.777-.324a.3381.3381,0,0,1,.49641.28728c.83986,4.10657-.53367,9.33386-5.07741,11.38688a7.5774,7.5774,0,0,1-9.47794-2.80819,10.797,10.797,0,0,1,1.25739-13.8534c.92645-.8937,3.16489-2.10372,4.539-1.93353C296.45615,81.96507,294.88865,84.96983,293.998,88.49732Z" fill="#b1805f"/>
        <path d="M321.06558,102.95354q-.452,2.19679-.90394,4.39356c-.36075-.159-.71346-.34031-1.08366-.47322-2.33054-.83666-4.63492-1.78727-7.18256-1.72609a18.6813,18.6813,0,0,1,1.51941-3.91918,17.0223,17.0223,0,0,1,3.51945.288A23.78048,23.78048,0,0,1,321.06558,102.95354Z" fill="#c38b37"/>
        <path d="M279.73516,94.45654c-2.53576-.82884-3.68754-2.86884-4.37866-5.19947a44.35042,44.35042,0,0,1-.86541-4.46561q1.82619.78144,3.65193,1.56327a5.53244,5.53244,0,0,0,.47873,3.61232c.2182.37766.39093.89657.92946.88019.54115-.01646.80081-.48656,1.022-.912a9.4283,9.4283,0,0,0,.96227-2.94468c1.02821.02546,1.03369.03867.68109.95944Q280.97136,91.20155,279.73516,94.45654Z" fill="#fff"/>
        <path d="M305.3772,88.33154a8.57252,8.57252,0,0,1-.55365,4.05165,1.71611,1.71611,0,0,1-1.64418,1.35071c-.8504-.01422-1.142-.71318-1.37124-1.40145a10.71928,10.71928,0,0,1-.464-3.49565Q303.36081,88.584,305.3772,88.33154Z" fill="#3f1a38"/>
        <path d="M311.89542,105.14779c2.54764-.06118,4.852.88943,7.18256,1.72609.3702.13291.72291.31424,1.08366.47322q-.08215.67164-.16425,1.34328a21.444,21.444,0,0,1-3.83357-.93077,37.11974,37.11974,0,0,0-4.81288-.7667Z" fill="#914827"/>
        <path d="M321.06558,102.95354a23.78048,23.78048,0,0,0-4.1313-1.4369,17.0223,17.0223,0,0,0-3.51945-.288l.83005-1.8543a15.69605,15.69605,0,0,1,7.32263,2.03425Q321.31656,102.18109,321.06558,102.95354Z" fill="#914827"/>
        <path d="M281.53545,86.99053a9.4283,9.4283,0,0,1-.96227,2.94468c-.22116.42547-.48082.89557-1.022.912-.53853.01638-.71126-.50253-.92946-.88019a5.53244,5.53244,0,0,1-.47873-3.61232A18.52913,18.52913,0,0,0,281.53545,86.99053Z" fill="#3f1a38"/>
        <path d="M277.71991,78.73589a8.5025,8.5025,0,0,1,5.09683,2.36524c1.31618,1.44344,1.01087,2.84379.21584,4.47246C282.96885,81.87976,280.44671,80.24411,277.71991,78.73589Z" fill="#b1805f"/>
        <path d="M299.78823,197.55327a25.89274,25.89274,0,0,0-1.58764,2.14526c-.17336.21194-.25867.506-.55079.61168a18.4822,18.4822,0,0,1-1.08273-3.10308,24.1098,24.1098,0,0,0-6.2862-10.94223,4.72965,4.72965,0,0,0-1.66893-1.1333c-.55048-.192-.50685-.42941-.27058-.8493,1.17352-2.08562,2.20776-4.26287,4.17517-5.98144a6.45147,6.45147,0,0,0-3.2286-.16084,27.377,27.377,0,0,0-6.81878,1.9052c-.17714.07494-.42383.296-.6142.06772-.16937-.20311.03886-.43053.10277-.6336a29.6354,29.6354,0,0,1,3.64773-7.68929c.1566-.23308.28835-.48277.43179-.72508a41.528,41.528,0,0,1,4.492-5.22324c.2261-.20278.39218-.49205.74084-.52192a49.01737,49.01737,0,0,0,3.44534,10.48987,83.26189,83.26189,0,0,1,3.09872,7.77275,48.77139,48.77139,0,0,1,2.01426,9.637c.12091,1.186.1038,2.36276.13886,3.544C299.97526,197.0339,300.05364,197.33725,299.78823,197.55327Z" fill="#caad83"/>
        <path d="M279.23222,214.68565a58.88842,58.88842,0,0,1,5.36431-5.22146c.5842-.52121,1.2053-1.00108,1.79528-1.51611.23613-.20611.43941-.44456.79757-.378-.98323,3.78075-1.98681,7.55638-2.72757,11.39487-.54281,2.81271-.99927,5.63766-1.34348,8.4827q-.40508,3.34823-.645,6.70964a.66438.66438,0,0,1-.51309.671q-2.13432.68373-4.26909,1.36611c.00269-.14086.012-.28185.0072-.42234-.11634-3.43155.10511-6.86015.21791-10.28437.11471-3.48158.2176-7.00547,1.424-10.35562A.33672.33672,0,0,0,279.23222,214.68565Z" fill="#af9674"/>
        <path d="M284.15189,198.74249l.08007.06608c-.01562-.00352-.038-.00193-.04539-.01167a.24678.24678,0,0,1-.026-.06331Z" fill="#b1805f"/>
        <path d="M332.404,111.05566a4.43657,4.43657,0,0,1-7.27556-1.32257c-.0525-.13073-.10013-.26379-.14236-.39816-.43159-1.37319-.40775-1.39824.989-1.69863a6.30086,6.30086,0,0,0,1.85243-.58734,1.55557,1.55557,0,0,0,.44133-2.50765,3.23214,3.23214,0,0,0-1.108-.90961,1.344,1.344,0,0,1-.78594-1.52372c.17648-2.74564,3.47092-5.30907,6.17866-4.76248a3.0217,3.0217,0,0,1,2.39242,2.1638,8.191,8.191,0,0,1,.07784,4.01873c-.14493-.8914-.25-1.62795-.388-2.3583a5.12448,5.12448,0,0,0-.65538-1.73122,2.61756,2.61756,0,0,0-3.24841-1.29916c-1.85158.52693-3.29593,1.48378-3.65069,3.55564-.11746.68595-.01511,1.165.758,1.43965a2.39233,2.39233,0,0,1,1.5804,2.21614,2.26729,2.26729,0,0,1-1.37556,2.15322,4.18975,4.18975,0,0,1-1.73828.64278c-.66719.07558-.61355.39386-.46028.8561.71753,2.16408,2.47275,3.07089,4.94073,2.52243.55-.12222,1.08609-.3065,1.62859-.4622Z" fill="#3f1a38"/>
        <polygon points="332.415 111.063 332.443 111.045 332.404 111.056 332.415 111.063" fill="#3f1a38"/>
        <path d="M299.51244,310.16015a.95583.95583,0,0,1-.90452-.98213,1.22028,1.22028,0,0,1,1.11614-1.23229,1.0342,1.0342,0,0,1,1.07293.97668C300.84909,309.39564,300.11125,310.15044,299.51244,310.16015Z" fill="#3f1a38"/>
        <path d="M298.943,314.24609c.14661-.43409.07879-1.15222.84409-1.189.59618-.02867.78868.49163.83061.98986a1.18155,1.18155,0,0,1-1.04954,1.1368C299.16664,315.14713,298.92549,314.8188,298.943,314.24609Z" fill="#3f1a38"/>
        <path d="M328.98674,306.72073l-.30616.19953c-.61251.084-.89835-.219-1.09377-.78011a1.89431,1.89431,0,0,1,.11355-1.81595c.276-.38676.69436-.21062,1.05747-.00194a.89093.89093,0,0,1,.52135,1.09744C329.16406,305.84867,329.08293,306.28671,328.98674,306.72073Z" fill="#3f1a38"/>
        <path d="M333.44741,301.41894c.14361-.40384-.13441-1.2191.80876-1.27006a1.33708,1.33708,0,0,1,1.23076,1.28213,1.6247,1.6247,0,0,1-1.43372,1.22674C333.39868,302.57534,333.41029,302.05421,333.44741,301.41894Z" fill="#3f1a38"/>
        <path d="M333.2741,295.64323c-.087.654-.87394,1.51781-1.349,1.4117-.48208-.10766-.92359-.34841-.83295-.96724a1.45289,1.45289,0,0,1,1.62636-1.21005C333.20436,294.93945,333.30846,295.22995,333.2741,295.64323Z" fill="#3f1a38"/>
        <path d="M327.501,298.44535a.68861.68861,0,0,1,.67425.78048c.0031.53779-.74376,1.42136-1.19608,1.367a1.08816,1.08816,0,0,1-.98089-1.0145C325.93291,299.08494,326.74071,298.45566,327.501,298.44535Z" fill="#3f1a38"/>
      </g>
      <path d="M280.457,199.31462l3.36393,5.376a5.3713,5.3713,0,0,0,.74493-4.36974c-.62282-2.63764-3.39663-4.73375-3.39663-4.73375l-1.50362.424Z" fill="#f6cba4"/>
      <path d="M281.16919,203.6146a21.526,21.526,0,0,0-1.50362-2.51126c-.62321-.79948-2.00011-2.29477-2.00011-2.29477l-1.81555,1.50164,1.81555,3.52824,2.00011,1.37377Z" fill="#f6cba4"/>
      <polygon points="275.28 205.585 272.309 201.153 270.667 202.326 271.316 205.29 275.738 206.524 275.28 205.585" fill="#f6cba4"/>
      <path d="M278.07745,207.72305q-.87972.0009-1.75959.00176a17.13152,17.13152,0,0,0-1.471-2.39413,23.64624,23.64624,0,0,0-2.57361-3.54583c-2.47278-2.98951-5.09262-5.85769-7.408-8.97736a38.36067,38.36067,0,0,1-2.275-3.45176.80351.80351,0,0,1-.183-.62669l-.0074.0077a7.28672,7.28672,0,0,1,2.30546,1.5334,53.89562,53.89562,0,0,1,6.20714,7.04625,74.36143,74.36143,0,0,1,6.28631,8.49425A6.08411,6.08411,0,0,1,278.07745,207.72305Z" fill="#b1805f"/>
    </g>
  </g>
</svg>
