<svg xmlns="http://www.w3.org/2000/svg" width="600" height="600" viewBox="0 0 600 600">
  <title>character-wendel-and-sally-full</title>
  <g id="Background">
    <path d="M440,120C418.66905-40.84958,123.95625-16.86628,49.94858,65.385-3.47514,124.75944,43.95531,280,85.1448,320-59.01841,480-18.56769,640,194.74183,560c43.21082,40,257.5083,67.69922,353.56027-4.27686,55.8782-41.87207-7.68622-146.62248-7.68622-146.62248C600,318.51579,540,100,440,120Z" fill="#89b9da"/>
    <g>
      <path d="M509.25459,368.93893c-12.49767,8.56166-22.38372,15.99212-36.32731,22.77935-13.68579,6.66523-27.74146,12.69832-42.17823,18.554-4.31534,1.75226-8.67551,3.38252-13.06931,4.92407a417.90314,417.90314,0,0,1-52.61351,14.23986c-7.1063,1.49718-14.235,2.86128-21.36373,4.14775a285.39394,285.39394,0,0,0,31.4067-19.57427c7.30805-5.21241,23.60546-20.94946,31.98955-36.01,4.03512-2.61729,8.47376-5.5562,13.428-8.89437,12.85635-8.66147,26.65422-22.35791,38.66992-32.73837a19.4228,19.4228,0,0,0,5.3017.73195,18.68949,18.68949,0,0,0,17.28377-11.00151,17.7395,17.7395,0,0,0,3.14964-7.8408,78.5569,78.5569,0,0,1,20.91538-6.8094c14.94116-2.79474,30.6333-.80959,45.39513,1.109,16.82421,2.18478,33.02074,4.2032,45.2382,1.5859.23538.13309.482.25508.71735.38816,0,0-7.31926,12.52088-12.9236,15.69269a35.385,35.385,0,0,1-6.8597-.64324c-.04484-.03327-.07847-.04436-.10088-.02218-6.4562-1.1312-13.93238-3.38252-20.467-4.0923-16.813-1.841-26.34038-4.74662-57.16423,1.19775-11.063,2.14042-34.52271,18.07708-27.181,30.18762,3.3626,5.54512,7.947,5.81129,14.87391,3.13854,8.26079-3.20508,16.67851-10.13648,24.603-11.85546a164.24124,164.24124,0,0,1,21.06109-3.16072v-.01109c11.26472-.88722,23.70634-.39925,32.42669,4.11448-8.39529,8.12914-18.98749,14.25095-24.31161,14.98291C530.80887,365.47878,520.04854,368.07389,509.25459,368.93893Z" fill="#cfd8dd"/>
      <path d="M577.41453,329.57968a35.385,35.385,0,0,0,6.8597.64324,4.53323,4.53323,0,0,1-2.39865.732c-1.5468-.05545-3.0936-.18853-4.62918-.366.07846-.3327.1345-.66541.17933-.99812Z" fill="#cfd8dd"/>
      <path d="M481.24412,299.381c1.18812,3.04981,9.48253-3.00546,2.096-5.279A10.00655,10.00655,0,0,0,481.24412,299.381Zm15.86027-7.375.02242-.02218c1.58042,2.15151,7.99178-.84286,6.35531-4.69117-1.56921-3.69305-6.64674-1.09793-8.17112,1.41955A9.17386,9.17386,0,0,0,497.10439,292.006Zm-4.20325-19.51881a3.04666,3.04666,0,0,0,1.02-5.73366A7.1955,7.1955,0,0,0,492.90114,272.48715ZM473.342,287.4146l.60527-.16635c2.88063,1.04248,6.85971-2.56184,4.31534-5.50076C474.95605,277.95463,471.06664,283.156,473.342,287.4146ZM322.75349,344.363l.15692-.13309c1.45713,2.1626,7.1063-1.66353,5.27929-5.48966C325.70137,333.52781,318.15794,338.48514,322.75349,344.363Zm12.25108.488c10.39044,1.475,3.08239-14.36186-2.61162-2.78365a7.07736,7.07736,0,0,0,2.08481,2.42876c-.02241.07763-.04483.16635-.06725.25508C334.61227,344.7844,334.814,344.81767,335.00457,344.85094Zm-.44835,20.06223a3.70621,3.70621,0,0,0,4.405-4.547c-.96394-4.21429-4.80852-3.92595-6.94937-.28835A14.45035,14.45035,0,0,0,334.55622,364.91317Zm101.22552-40.61244c2.578-1.0203,6.18719-6.34362,4.38259-9.40452-1.54679-2.60621-1.9391-1.87425-4.24808-.97594C431.86992,315.52835,435.16527,322.2934,435.78174,324.30073ZM223.33257,407.95438c1.40108-.41034,3.116-3.30489,2.73492-5.4453-.62769-3.44907-3.20568-5.01279-5.58192-1.963A22.65519,22.65519,0,0,0,223.33257,407.95438ZM208.369,393.12674c1.46834,1.98515,4.38259-.44361,4.37138-3.37144-.02241-6.29925-5.83971-2.92782-3.923,3.32708Zm.11209,17.62238.47076-.122c.04484.18853.16813.366.538.53233C218.3335,407.289,202.97762,390.38745,208.48108,410.74912Zm-73.65219-2.11823c-.95273,2.828-2.11844,6.45451,1.13208,7.77425,1.04241.41034,3.42985.89831,4.38259-.14417,2.26415-2.45094-2.48832-7.47482-4.89819-7.54136a.32506.32506,0,0,0,.02242.1109Zm147.607-24.97522c1.62526,2.07388,5.38016,2.42877,6.54586-.53233,1.345-3.4047-3.04876-6.01091-5.83972-5.35658A11.36959,11.36959,0,0,0,282.4359,383.65567Zm-31.17132-9.8814.07846-.15526c4.15842-.31053,8.10387-5.534,2.86942-8.15132C249.58328,363.14983,245.29036,371.09044,251.26458,373.77427ZM304.842,371.0239c9.11265,3.33816,4.32655-17.323-2.88062-5.778a12.48929,12.48929,0,0,0,2.75733,5.64493c0,.03327-.01121.05545-.01121.08872A.63721.63721,0,0,0,304.842,371.0239Zm-3.03755,14.53929a3.67041,3.67041,0,0,0,4.41622-4.55808c-1.15449-5.06824-11.53372-6.55433-4.37138,4.3141Zm-18.12442-26.97145.02242-.01109c1.47954,2.95,6.96058.43252,6.40015-3.72632-.30263-2.30677-2.10723-4.58027-4.62918-4.40282C280.87789,350.77312,282.24535,355.33121,283.68006,358.59174ZM151.41773,417.93559c3.99029.93158,8.72035-3.23834,4.57314-6.99793C151.74278,407.06716,145.34263,415.163,151.41773,417.93559Zm29.3443,3.90377c2.46591-.19963,6.15356-2.56185,5.6828-5.46749-.67252-4.08121-5.41379-3.71523-7.96937-1.82989A27.76221,27.76221,0,0,0,180.762,421.83936ZM442.69749,276.36873l.10088-.02218c.45956,2.79474,6.389-.08872,6.34411-3.02764C449.05281,267.85143,441.16191,269.16007,442.69749,276.36873ZM353.89118,309.5729l.40352-.25508a2.95387,2.95387,0,0,0,.38109.49906c6.75883-3.70414-.22417-11.36749-3.18326-5.09042A19.38333,19.38333,0,0,0,353.89118,309.5729ZM526.034,297.24055c1.47955-.19962,3.0936-1.45282,3.47469-3.9703.5156-3.49343-1.75976-7.45264-5.67159-4.22538a14.61739,14.61739,0,0,0,2.18569,8.107ZM376.35336,374.107a35.76647,35.76647,0,0,0,7.8797-4.86861s-4.16963,1.73007-8.87727,3.49342a63.64674,63.64674,0,0,1-10.73791-33.43706s-5.33532,12.23253,5.907,35.17823a52.00611,52.00611,0,0,1-6.31048,1.841c-4.77489.88722-8.26079,1.841-11.72427,2.584-4.80852-7.863-5.67159-16.72407-6.927-29.622a46.02731,46.02731,0,0,0,2.26415,30.48706,55.26942,55.26942,0,0,1-7.44256.55451,18.7429,18.7429,0,0,0-6.51223,1.28647c-2.77976-3.682-6.81488-11.86655-7.92454-29.001.2578,4.83535-1.70371,11.37858-1.10965,17.201.49318,4.83534,2.76854,9.63741,4.887,13.84061-9.58342,5.78911-17.5752,18.04382-21.50945,28.03612-11.79152,2.329-25.2083,4.72444-40.54176,6.92031-18.57277,2.66166-43.938,4.303-62.21934,7.7188-16.74576,3.12745-33.80536,4.6579-50.00189,9.89249-8.24958,2.67275-16.44312,5.04606-24.41249,8.57276-6.25444,2.77256-15.53522,5.6782-21.27406,10.325-1.56921.54342-3.12722,1.1312-4.6628,1.74116-30.57726,12.24363-33.032,48.24253-83.37011,63.14781,1.0312-12.532,8.86606-43.18538,31.84384-69.802-14.15655-12.64287-25.7127-28.57954-34.321-42.10963C11.97064,396.63125,3.56413,382.77955.05582,369.804a118.10809,118.10809,0,0,1,48.881,19.55209c16.39829,11.13459,38.26641,27.01581,61.80462,24.24325.86307.122,3.31776-.28834,6.7252-1.04248-.02242,7.18647.02242,18.03272,5.08874,22.46882a50.39762,50.39762,0,0,1,2.10723-24.18781c2.24173-.5656,4.62918-1.18665,7.08388-1.841,11.81394-3.16071,25.0738-7.05339,29.99441-8.69474.57164-.18854,1.14328-.38816,1.72613-.57669.213,8.01824,1.15449,16.16956,5.02149,23.101-1.69251-7.91843-1.614-17.456,1.49075-25.27465a.53763.53763,0,0,1,.03363-.07763c9.023-3.14963,18.59518-6.73177,27.85355-10.41373-2.1969,11.48948-.76219,19.56317,1.4235,28.59063a80.71723,80.71723,0,0,1,5.07753-31.20793c3.4971-1.44173,6.91575-2.87237,10.2111-4.303,1.46833-.63214,2.91425-1.26429,4.32654-1.89643q4.80852-2.12932,9.6843-4.547c-.47077,10.48028.482,23.43367,3.76611,31.10811a142.75988,142.75988,0,0,1,4.21446-35.156c10.53615-5.534,21.03868-11.7002,30.84627-17.81092-1.35625,14.72783-1.65889,34.43518,6.43378,44.92654a100.8818,100.8818,0,0,1,.5268-34.85661c1.02-5.47858,1.64768-11.07915,3.37381-16.38028.03363-.09981.06726-.19962.10088-.31052,9.22474-5.96655,18.21409-12.06618,27.28191-18.11036.1345,11.93309,2.05119,25.58517,7.81244,34.87879-1.14328-14.58366-.96394-27.68123,2.17449-41.47748q3.12722-2.04615,6.31048-4.07012c7.44256-4.73553,14.66094-9.79268,21.92416-14.79437.22418,14.37294,1.62526,26.10641,8.67551,39.33706a169.91709,169.91709,0,0,1-3.69886-24.01036c-.36988-4.60245-.93032-9.48215-.40351-14.11787a34.22482,34.22482,0,0,1,1.17691-5.14587c6.34411-4.303,12.77789-8.49512,19.447-12.33234,3.69886-2.12933,7.27443-3.94812,10.79395-5.55621-7.196,25.62954-2.16328,50.21659,10.51373,73.72789-4.58434-27.09344-9.23594-54.71922,5.33533-79.60571,5.907-1.77444,11.98207-3.194,18.52794-4.59136-4.86457,10.569,7.02783,2.828,3.654-.76523l1.076-.23289q3.1104-.64878,6.64674-1.17557c-6.232,10.71317-7.44256,24.97521-8.08145,36.64214-.57165,10.77971.6501,28.82353,7.05025,38.03951-4.62918-11.09023-2.578-27.45942-1.13208-39.15962,1.52438-12.3878,5.40258-27.00473,13.89876-36.9194,9.65067-.9094,20.23165-1.40846,30.16254-1.66353,2.29777,1.87425,4.84214,3.5156,6.90454,5.86673,2.43228,2.77256,5.12236,5.35659,7.42014,8.20678a76.65594,76.65594,0,0,1,12.8003,23.78855c-1.51317-6.54324-2.0736-13.21956-4.10237-19.7628A40.61291,40.61291,0,0,0,484.9654,271.245c-1.70372-2.48421-4.9094-4.669-6.37774-7.33065,3.53073-.03327,6.87092-.04436,9.93089-.03327,3.17205.01109,6.19839-.09981,9.12386-.2218,10.11022,9.12726,13.484,23.81073,17.76574,36.09872-2.27536-12.11054-2.94788-25.60736-8.33925-36.52015,8.15991-.25508,15.69214.07763,23.66151,3.2938,2.44349,10.85734,7.77881,21.18235,8.18233,32.36131,2.64524-7.69663,1.44591-17.93291,1.49075-27.24871a79.73272,79.73272,0,0,1,13.9548,10.72426c-2.66767,2.16259-6.85971,11.62256-.28022,8.85,2.578-1.09793,3.3626-5.86673,1.4235-7.66335l.06725-.07763c2.24174,2.085,4.80852,4.547,8.0142,7.56354a175.292,175.292,0,0,0,32.89746,23.101c-12.21746,2.6173-28.414.59888-45.2382-1.5859-14.76183-1.91861-30.454-3.90376-45.39513-1.109a78.5569,78.5569,0,0,0-20.91538,6.8094,17.11111,17.11111,0,0,0,.17934-2.52857,18.24856,18.24856,0,0,0-34.36579-8.32877,17.21119,17.21119,0,0,0-4.92061,11.98854,17.85138,17.85138,0,0,0,13.372,16.97916c-12.0157,10.38046-25.81357,24.0769-38.66992,32.73837-4.95423,3.33817-9.39287,6.27708-13.428,8.89437-31.03681,20.151-37.71718,20.72766-61.41231,25.74044-9.59463,2.02952-20.97143,4.63572-34.62359,7.375,6.4674-10.64663,14.11172-21.504,25.52214-26.794,0,0,6.01906-.65433,12.52009-1.75226a79.32775,79.32775,0,0,0,12.58734-2.91673c3.06-1.12011,6.38894-2.19587,9.6955-3.44906C373.058,375.5598,374.72811,374.87221,376.35336,374.107Zm-2.18569-28.09157c1.771-.6765,3.03755-4.77989,1.558-8.29549-6.85971-1.98516-6.09752,5.23459-1.58043,8.22895Zm20.355-11.068v.01109c2.3202,6.36579,7.59948-5.55621.30263-3.60433A8.47261,8.47261,0,0,0,394.52262,334.94736ZM366.08622,321.506l.056-.06654c2.43228,2.11823,7.83486-3.70414,4.80852-7.77426C366.63544,307.865,360.53793,316.65956,366.08622,321.506ZM434.829,300.10183l.5268-.17744a1.1099,1.1099,0,0,0,.39231.49906c3.19447-.59887,7.55464-5.57839,4.136-8.83892-1.5468-1.475-2.95909-1.17556-4.53952.01109C432.77782,293.52532,433.7866,297.22946,434.829,300.10183Zm86.02656-30.29852c-15.56885,4.90188,19.73847,11.60039,0,0Zm-66.56831,27.903c12.55371,0,16.34225-15.99212,9.3032-22.64626-.01121-.15526-.03363-.32162-.04484-.47688a.32515.32515,0,0,0-.02241-.2329c.01121.07764.01121.15527.02241.2329a1.65125,1.65125,0,0,0-.04483.38816.6727.6727,0,0,1,.08967.08872C464.43111,284.27607,463.85947,292.56047,454.28726,297.70634ZM406.6504,326.14171c.269,5.31222,7.53223,4.15884,6.75883-1.26429C412.65825,319.68719,402.60407,318.41181,406.6504,326.14171Zm-2.83579-35.12278c3.20568-.99812,6.66916-2.98327,5.78367-6.62087-1.24416-5.1126-6.35531-3.20508-4.96544,2.16259l-.22417.05546C403.31022,288.12438,402.7722,289.311,403.81461,291.01893Zm-2.20811,15.5596c-3.78853,10.80189,12.12778-.87613,2.5892-3.10526-1.72613,1.94079-2.5892-.16636-2.5892,2.55075Zm-10.099,12.6096c.07846,4.97952,5.91818.25508,5.07753-3.1829C395.36327,310.90372,387.34907,313.643,391.50749,319.18813Zm.10088-19.8737c12.58733-1.40846-5.425-13.54118-.08967.05545Zm-26.43,3.937c-.807,4.97952,7.07267,2.1626,5.73884-2.77256-1.289-4.7688-5.481-3.28271-7.16234.43252C364.90931,302.19789,363.50822,302.60823,365.17832,303.25146Zm7.06146-13.7408a8.79948,8.79948,0,0,0-4.30413-1.91861,6.18323,6.18323,0,0,0-.61648,3.02763c-.7734.95376-1.72613,1.20884-.34747,2.41767A10.13731,10.13731,0,0,0,372.23978,289.51066Zm-16.006,43.76207c4.16962-2.87237,1.89426-11.88873-3.2281-6.96467a13.15361,13.15361,0,0,0,2.06239,4.8908A4.06438,4.06438,0,0,0,356.2338,333.27273Zm-22.88811-10.66881c10.50252-3.00545,1.21053-16.73516-3.00393-5.48966a11.32872,11.32872,0,0,0,2.55558,4.61353A4.63206,4.63206,0,0,0,333.34569,322.60392ZM321.4645,331.587c3.19447-2.01842,7.521-6.87594,2.81337-10.05884-5.425-3.67087-5.54829,3.438-4.0127,7.72989A2.251,2.251,0,0,0,321.4645,331.587Zm-22.41735,17.13442c1.25537,2.59512,9.3032-1.41955,3.94545-7.76317C296.63729,333.43908,292.75909,348.13365,299.04715,348.72143ZM262.05853,389.7553c1.502,3.36035,5.87335-1.67462,2.93667-5.12368-.73977-.87613-2.27536-2.37332-3.50831-2.12933C256.10673,383.58913,261.35239,388.30248,262.05853,389.7553ZM245.806,397.51847c.54922,5.93328,6.35531,1.16447,6.176-2.76147-.14572-3.1829-2.73492-6.60978-5.82851-3.67087C246.1198,393.90305,244.50575,394.93444,245.806,397.51847ZM237.4555,382.591c5.92938,1.963,5.4362-6.68741,3.76611-9.92576-3.88941-.37707-3.68765,4.61354-2.89184,7.56354l-.36988.09981C237.74692,381.07165,237.63484,381.848,237.4555,382.591Zm-50.49507,19.91807c.1345,5.84455,7.66673,2.53966,7.30805-1.66354a3.585,3.585,0,0,0-6.52344-1.8188C187.89075,400.91208,185.77231,400.95644,186.96043,402.50908ZM133.1588,429.12564c-2.49953,5.01279,8.485,4.87971,7.30806-1.109-1.0312-5.279-7.63311-3.316-6.8485,1.04248Z" fill="#677a89"/>
      <path d="M577.41453,329.57968l.0112.01109c-.04483.33271-.10087.66542-.17933.99812-.05605-.59887-.05605-.987.06725-1.03139A.3302.3302,0,0,0,577.41453,329.57968Z" fill="#381534"/>
      <path d="M577.41453,329.57968a.3302.3302,0,0,1-.10088-.02218C577.33606,329.53532,577.36969,329.54641,577.41453,329.57968Z" fill="#cfd8dd"/>
      <path d="M577.2464,330.58889V330.6a26.70745,26.70745,0,0,1-4.02392,9.26035c-15.56884-2.7282-28.64936-4.03685-40.66506-4.04794q-.31945-5.38984-.94153-10.76861c7.37531.13308,14.504.70977,20.74725,1.33082C561.0947,327.23964,569.12011,329.63513,577.2464,330.58889Z" fill="#381534"/>
      <path d="M577.31365,329.5575c-.1233.04436-.1233.43252-.06725,1.03139-8.12629-.95376-16.1517-3.34925-24.88326-4.21429-6.24323-.621-13.37194-1.19774-20.74725-1.33082-16.53279-.29944-34.30975,1.64135-46.31423,10.36937-6.35532,4.62462-11.72427,18.82013-7.11751,22.20265,2.56679,1.88534,2.02877-3.44906,5.95181-8.55057a24.83627,24.83627,0,0,1,14.01084-9.46,155.99283,155.99283,0,0,1,34.41062-3.79287c.14571,2.41768.24659,4.84644.31384,7.26411l.16813,1.88534v.01109a164.24124,164.24124,0,0,0-21.06109,3.16072c-7.92453,1.719-16.34225,8.65038-24.603,11.85546-6.927,2.67275-11.51131,2.40658-14.87391-3.13854-7.34168-12.11054,16.11807-28.0472,27.181-30.18762,30.82385-5.94437,40.35122-3.03873,57.16423-1.19775C563.38127,326.175,570.85745,328.4263,577.31365,329.5575Z" fill="#cfd8dd"/>
      <path d="M573.22248,339.86033a53.95638,53.95638,0,0,1-7.7564,9.216c-8.72035-4.51373-21.162-5.0017-32.42669-4.11448l-.16813-1.88534c-.06725-2.41767-.16813-4.84643-.31384-7.26411C544.57312,335.82348,557.65364,337.13213,573.22248,339.86033Z" fill="#cfd8dd"/>
      <path d="M555.50157,283.5552c1.9391,1.79662,1.15449,6.56542-1.4235,7.66335-6.57949,2.77256-2.38745-6.68741.28022-8.85.3923.35488.79581.73195,1.21053,1.109Z" fill="#cfd8dd"/>
      <path d="M540.40349,271.64429c-.04484,9.3158,1.15449,19.55208-1.49075,27.24871-.40352-11.179-5.73884-21.504-8.18233-32.36131a47.05732,47.05732,0,0,1,5.94059,2.89455C538.02725,270.20256,539.26021,270.93451,540.40349,271.64429Z" fill="#cfd8dd"/>
      <path d="M532.55742,335.81239a155.99283,155.99283,0,0,0-34.41062,3.79287,24.83627,24.83627,0,0,0-14.01084,9.46c-3.923,5.10151-3.385,10.43591-5.95181,8.55057-4.60676-3.38252.76219-17.578,7.11751-22.20265,12.00448-8.728,29.78144-10.66881,46.31423-10.36937Q532.238,330.417,532.55742,335.81239Z" fill="#381534"/>
      <path d="M523.83707,289.04487c3.91183-3.22726,6.18719.73195,5.67159,4.22538-.38109,2.51748-1.99514,3.77068-3.47469,3.9703l-.01121-.08872A14.61739,14.61739,0,0,1,523.83707,289.04487Z" fill="#cfd8dd"/>
      <path d="M520.85557,269.80331c19.73847,11.60039-15.56885,4.90188,0,0Z" fill="#cfd8dd"/>
      <path d="M507.0689,263.23789c5.39137,10.91279,6.06389,24.40961,8.33925,36.52015-4.28171-12.288-7.65552-26.97146-17.76574-36.09872C500.90413,263.51514,504.03135,263.3377,507.0689,263.23789Z" fill="#cfd8dd"/>
      <path d="M497.12681,291.98378l-.02242.02218a9.17386,9.17386,0,0,1-1.79339-3.2938c1.52438-2.51748,6.60191-5.1126,8.17112-1.41955C505.11859,291.14092,498.70723,294.13529,497.12681,291.98378Z" fill="#cfd8dd"/>
      <path d="M493.92113,266.75349a3.04666,3.04666,0,0,1-1.02,5.73366A7.1955,7.1955,0,0,1,493.92113,266.75349Z" fill="#cfd8dd"/>
      <path d="M490.02051,282.21328c2.02877,6.54324,2.5892,13.21956,4.10237,19.7628a76.65594,76.65594,0,0,0-12.8003-23.78855c-2.29778-2.85019-4.98786-5.43422-7.42014-8.20678-2.0624-2.35113-4.60677-3.99248-6.90454-5.86673,4.00149-.09982,7.90211-.16636,11.58976-.19963,1.46834,2.66166,4.674,4.84644,6.37774,7.33065A40.61291,40.61291,0,0,1,490.02051,282.21328Z" fill="#cfd8dd"/>
      <path d="M485.11111,315.728a17.11111,17.11111,0,0,1-.17934,2.52857c-.59406.28835-1.18812.58778-1.771.89831-.12329-9.68178-8.42892-17.4893-18.66244-17.4893a19.0637,19.0637,0,0,0-13.753,5.73365,18.24856,18.24856,0,0,1,34.36579,8.32877Z" fill="#f4f4f4"/>
      <path d="M483.1608,319.15486c.58285-.31053,1.17691-.61,1.771-.89831a17.7395,17.7395,0,0,1-3.14964,7.8408,16.844,16.844,0,0,0,1.38988-6.7096A1.62048,1.62048,0,0,0,483.1608,319.15486Z" fill="#f4f4f4"/>
      <path d="M483.34014,294.102c7.38651,2.27349-.9079,8.32876-2.096,5.279A10.00655,10.00655,0,0,1,483.34014,294.102Z" fill="#cfd8dd"/>
      <path d="M483.1608,319.15486a1.62048,1.62048,0,0,1,.01121.23289,16.844,16.844,0,0,1-1.38988,6.7096,18.32619,18.32619,0,0,1-18.95386,7.19756C469.90094,327.43927,476.28988,322.77028,483.1608,319.15486Z" fill="#f4f4f4"/>
      <path d="M483.1608,319.15486c-6.87092,3.61542-13.25986,8.28441-20.33253,14.14005A18.08325,18.08325,0,0,1,448.68292,315.728a17.70805,17.70805,0,0,1,2.0624-8.32877,19.0637,19.0637,0,0,1,13.753-5.73365C474.73188,301.66556,483.03751,309.47308,483.1608,319.15486Zm-23.796-4.64681a2.25862,2.25862,0,1,0-2.26415,2.24023A2.25094,2.25094,0,0,0,459.36479,314.50805Z" fill="#f4f4f4"/>
      <path d="M466.897,333.74961a18.22356,18.22356,0,0,0,14.88511-7.65226,18.68949,18.68949,0,0,1-17.28377,11.00151,19.4228,19.4228,0,0,1-5.3017-.73195c.98636-.85395,1.97273-1.68572,2.93667-2.49531.23538-.19962.47077-.38816.69494-.57669A18.22259,18.22259,0,0,0,466.897,333.74961Z" fill="#31414a"/>
      <path d="M473.94727,287.24825l-.60527.16635c-2.27536-4.25865,1.61405-9.46,4.92061-5.66711C480.807,284.68641,476.8279,288.29073,473.94727,287.24825Z" fill="#cfd8dd"/>
      <path d="M463.59046,275.06008c7.039,6.65414,3.25051,22.64626-9.3032,22.64626C463.85947,292.56047,464.43111,284.27607,463.59046,275.06008Z" fill="#010101"/>
      <path d="M462.82827,333.29491c-.22417.18853-.45956.37707-.69494.57669-.96394.80959-1.95031,1.64136-2.93667,2.49531a17.85138,17.85138,0,0,1-13.372-16.97916,17.21119,17.21119,0,0,1,4.92061-11.98854,17.70805,17.70805,0,0,0-2.0624,8.32877A18.08325,18.08325,0,0,0,462.82827,333.29491Z" fill="#31414a"/>
      <path d="M457.10064,312.27891a2.23476,2.23476,0,1,1-2.25295,2.22914A2.25094,2.25094,0,0,1,457.10064,312.27891Z" fill="#010101"/>
      <path d="M442.79837,276.34655l-.10088.02218c-1.53558-7.20866,6.35532-8.5173,6.445-3.04982C449.18732,276.25783,443.25793,279.14129,442.79837,276.34655Z" fill="#cfd8dd"/>
      <path d="M440.16433,314.89621c1.8046,3.0609-1.80459,8.38422-4.38259,9.40452-.61647-2.00733-3.91182-8.77238.13451-10.38046C438.22523,313.022,438.61754,312.29,440.16433,314.89621Z" fill="#cfd8dd"/>
      <path d="M435.35581,299.92439l-.5268.17744c-1.04241-2.87237-2.05119-6.57651.51559-8.50621,1.58043-1.18665,2.99272-1.48609,4.53952-.01109,3.41864,3.26053-.94153,8.24005-4.136,8.83892A1.1099,1.1099,0,0,1,435.35581,299.92439Z" fill="#cfd8dd"/>
      <path d="M436.83536,265.77755c-8.49618,9.91467-12.37438,24.5316-13.89876,36.9194-1.44591,11.7002-3.4971,28.06939,1.13208,39.15962-6.40015-9.216-7.6219-27.2598-7.05025-38.03951.63889-11.66693,1.84943-25.929,8.08145-36.64214C428.75391,266.62041,432.71057,266.16571,436.83536,265.77755Z" fill="#cfd8dd"/>
      <path d="M417.3771,268.58338c3.37381,3.59324-8.51859,11.33422-3.654.76523C414.9224,269.09353,416.13294,268.83846,417.3771,268.58338Z" fill="#cfd8dd"/>
      <path d="M406.6504,326.14171c-4.04633-7.7299,6.00785-6.45452,6.75883-1.26429C414.18263,330.30055,406.91941,331.45393,406.6504,326.14171Z" fill="#cfd8dd"/>
      <path d="M404.63284,286.56065c-1.38987-5.36767,3.72128-7.27519,4.96544-2.16259.88549,3.6376-2.578,5.62275-5.78367,6.62087-1.04241-1.7079-.50439-2.89455.59406-4.40282Z" fill="#cfd8dd"/>
      <path d="M404.1957,303.47327c9.53858,2.22913-6.37773,13.90715-2.5892,3.10526V306.024C401.6065,303.30691,402.46957,305.41406,404.1957,303.47327Z" fill="#cfd8dd"/>
      <path d="M391.50749,319.18813c-4.15842-5.54512,3.85578-8.28441,5.07753-3.1829C397.42567,319.44321,391.586,324.16765,391.50749,319.18813Z" fill="#cfd8dd"/>
      <path d="M394.82525,331.35412c7.29685-1.95188,2.01757,9.97012-.30263,3.60433v-.01109A8.47261,8.47261,0,0,1,394.82525,331.35412Z" fill="#cfd8dd"/>
      <path d="M417.67974,415.19631a176.714,176.714,0,0,1-24.49095,17.7c-10.65945,6.37689-28.44761,17.62239-40.83319,18.2878.10087-.41034.33626-.488.22417-.97594a92.31266,92.31266,0,0,1,12.48646-20.76092v-.01109A417.90314,417.90314,0,0,0,417.67974,415.19631Z" fill="#435561"/>
      <path d="M343.7025,433.58392q-6.50664,3.49343-13.25986,6.64305c-13.34953,6.2438-33.2225,16.43573-48.14125,13.72971a.365.365,0,0,1,.213-.46579c.01121,0,.01121.01109.01121.02218l-.01121.01109c.01121.01109.01121-.01109.01121-.01109a90.925,90.925,0,0,0,8.03662-9.582c5.57071-7.56354,10.4801-16.03648,15.07566-23.71093,1.74855-2.92782,3.53073-5.99981,5.425-9.10508,13.65216-2.73929,25.029-5.34549,34.62359-7.375,23.69513-5.01278,30.3755-5.58948,61.41231-25.74044-8.38409,15.06054-24.6815,30.79759-31.98955,36.01A285.39394,285.39394,0,0,1,343.7025,433.58392Z" fill="#677a89"/>
      <path d="M379.34608,279.81779A127.789,127.789,0,0,1,395.19514,273.94c-14.57127,24.88649-9.91967,52.51227-5.33533,79.60571C377.1828,330.03438,372.15011,305.44733,379.34608,279.81779Z" fill="#cfd8dd"/>
      <path d="M391.60837,299.31443l-.08967.05545C386.18337,285.77325,404.1957,297.906,391.60837,299.31443Z" fill="#cfd8dd"/>
      <path d="M384.23306,369.23837a35.76647,35.76647,0,0,1-7.8797,4.86861c-.33626-.44361-.67252-.89831-.99757-1.37519C380.06343,370.96844,384.23306,369.23837,384.23306,369.23837Z" fill="#435561"/>
      <path d="M375.72568,337.71992c1.47954,3.5156.213,7.619-1.558,8.29549l-.02242-.06654C369.62816,342.95451,368.866,335.73476,375.72568,337.71992Z" fill="#cfd8dd"/>
      <path d="M375.35579,372.73179c.325.47688.66131.93158.99757,1.37519-1.62525.76523-3.29535,1.45282-4.96544,2.09606-.30263-.58779-.59406-1.16448-.86307-1.73008C372.10528,373.92954,373.76416,373.33066,375.35579,372.73179Z" fill="#435561"/>
      <path d="M375.35579,372.73179c-1.59163.59887-3.25051,1.19775-4.83094,1.74117-11.24229-22.9457-5.907-35.17823-5.907-35.17823A63.64674,63.64674,0,0,0,375.35579,372.73179Z" fill="#31414a"/>
      <path d="M366.14226,321.43945l-.056.06654c-5.54829-4.84643.54922-13.641,4.86456-7.8408C373.97712,317.73531,368.57454,323.55768,366.14226,321.43945Z" fill="#cfd8dd"/>
      <path d="M370.91716,300.4789c1.33383,4.93516-6.54587,7.75208-5.73884,2.77256-1.6701-.64323-.269-1.05357-1.4235-2.34C365.43612,297.19619,369.62816,295.7101,370.91716,300.4789Z" fill="#cfd8dd"/>
      <path d="M352.4901,378.898c3.46348-.743,6.94938-1.6968,11.72427-2.584a52.00611,52.00611,0,0,0,6.31048-1.841c.269.5656.56044,1.14229.86307,1.73008-3.30656,1.25319-6.63553,2.329-9.6955,3.44906a79.32775,79.32775,0,0,1-12.58734,2.91673l-.01121-.08872c-.45955-.9094-.88548-1.8188-1.26658-2.71711C349.44134,379.53011,350.96572,379.24176,352.4901,378.898Z" fill="#435561"/>
      <path d="M367.31917,290.61968a6.18323,6.18323,0,0,1,.61648-3.02763,8.79948,8.79948,0,0,1,4.30413,1.91861,10.13731,10.13731,0,0,1-5.26808,3.52669C365.593,291.82852,366.54577,291.57344,367.31917,290.61968Z" fill="#cfd8dd"/>
      <path d="M355.06809,331.19886a13.15361,13.15361,0,0,1-2.06239-4.8908c5.12236-4.92406,7.39772,4.0923,3.2281,6.96467A4.06438,4.06438,0,0,1,355.06809,331.19886Z" fill="#cfd8dd"/>
      <path d="M354.2947,309.31782l-.40352.25508a19.38333,19.38333,0,0,1-2.39865-4.84644c2.95909-6.27707,9.94209,1.38628,3.18326,5.09042A2.95387,2.95387,0,0,1,354.2947,309.31782Z" fill="#cfd8dd"/>
      <path d="M352.4901,378.898c-1.52438.3438-3.04876.63215-4.66281.865a46.02731,46.02731,0,0,1-2.26415-30.48706C346.81851,362.17389,347.68158,371.035,352.4901,378.898Z" fill="#31414a"/>
      <path d="M349.09387,382.48011l.01121.08872c-6.501,1.09793-12.52009,1.75226-12.52009,1.75226a10.05848,10.05848,0,0,1-2.71249-2.71711,18.7429,18.7429,0,0,1,6.51223-1.28647,55.26942,55.26942,0,0,0,7.44256-.55451C348.20839,380.66131,348.63432,381.57071,349.09387,382.48011Z" fill="#435561"/>
      <path d="M348.33168,316.97008a169.91709,169.91709,0,0,0,3.69886,24.01036c-7.05025-13.23065-8.45133-24.96412-8.67551-39.33706q2.85822-1.97961,5.75-3.937a34.22482,34.22482,0,0,0-1.17691,5.14587C347.40136,307.48793,347.9618,312.36763,348.33168,316.97008Z" fill="#cfd8dd"/>
      <path d="M338.96123,360.36618a3.70621,3.70621,0,0,1-4.405,4.547,14.45035,14.45035,0,0,1-2.54436-4.83534C334.15271,356.44023,337.99729,356.15189,338.96123,360.36618Z" fill="#cfd8dd"/>
      <path d="M334.47776,344.49605a7.07736,7.07736,0,0,1-2.08481-2.42876c5.694-11.57821,13.00206,4.25865,2.61162,2.78365C334.82523,344.74,334.64589,344.618,334.47776,344.49605Z" fill="#cfd8dd"/>
      <path d="M332.89734,321.72779a11.32872,11.32872,0,0,1-2.55558-4.61353c4.21446-11.2455,13.50645,2.48421,3.00393,5.48966A4.63206,4.63206,0,0,1,332.89734,321.72779Z" fill="#cfd8dd"/>
      <path d="M329.72529,383.64458a25.17115,25.17115,0,0,1,4.14721-2.0406,10.05848,10.05848,0,0,0,2.71249,2.71711c-11.41042,5.29-19.05474,16.14738-25.52214,26.794-.94153.18853-1.88306.37707-2.847.5656C312.15009,401.6884,320.14187,389.43369,329.72529,383.64458Z" fill="#435561"/>
      <path d="M325.948,352.603c1.10966,17.13442,5.14478,25.319,7.92454,29.001a25.17115,25.17115,0,0,0-4.14721,2.0406c-2.11844-4.2032-4.3938-9.00527-4.887-13.84061C324.24425,363.98159,326.20576,357.43836,325.948,352.603Z" fill="#31414a"/>
      <path d="M322.91041,344.22988l-.15692.13309c-4.59555-5.87783,2.94788-10.83516,5.43621-5.62275C330.01671,342.56635,324.36754,346.39248,322.91041,344.22988Z" fill="#cfd8dd"/>
      <path d="M320.26517,329.25806c-1.53559-4.29192-1.4123-11.40076,4.0127-7.72989,4.70764,3.1829.3811,8.04042-2.81337,10.05884A2.251,2.251,0,0,1,320.26517,329.25806Z" fill="#cfd8dd"/>
      <path d="M315.12039,320.50787c-3.13843,13.79625-3.31777,26.89382-2.17449,41.47748-5.76125-9.29362-7.67794-22.9457-7.81244-34.87879Q310.0933,323.79612,315.12039,320.50787Z" fill="#cfd8dd"/>
      <path d="M308.21584,411.6807c.964-.18853,1.90548-.37707,2.847-.5656-1.89427,3.10527-3.67645,6.17726-5.425,9.10508-4.59556,7.67445-9.505,16.14739-15.07566,23.71093L288.993,441.58c-1.41229.13308-2.82458.26616-4.22567.39925-23.471,2.12932-45.68655,2.79474-69.6619,3.90376-2.71249.122-5.4362.22181-8.20474.28835a106.583,106.583,0,0,1,12.86755-8.14024.41831.41831,0,0,0,.19055-.47688s-17.86662,0-29.63573,2.66166q-1.95031,3.0609-3.67644,6.22162c-13.01327.08872-26.25071.22181-39.16311,1.33083a174.8623,174.8623,0,0,0-28.12255,4.48046c-3.25052.83176-6.4562,1.77443-9.59463,2.86128,5.73884-4.64681,15.01962-7.55245,21.27406-10.325,7.96937-3.5267,16.16291-5.9,24.41249-8.57276,16.19653-5.23459,33.25613-6.765,50.00189-9.89249,18.28134-3.41579,43.64657-5.05714,62.21934-7.7188C283.00754,416.40514,296.42432,414.00965,308.21584,411.6807Z" fill="#cfd8dd"/>
      <path d="M304.71874,370.89081a12.48929,12.48929,0,0,1-2.75733-5.64493c7.20717-11.54493,11.99327,9.11618,2.88062,5.778A1.33541,1.33541,0,0,1,304.71874,370.89081Z" fill="#cfd8dd"/>
      <path d="M306.2207,381.00511a3.67041,3.67041,0,0,1-4.41622,4.55808l.04484-.244C294.687,374.45078,305.06621,375.93687,306.2207,381.00511Z" fill="#cfd8dd"/>
      <path d="M302.9926,340.95826c5.35775,6.34362-2.69008,10.35829-3.94545,7.76317C292.75909,348.13365,296.63729,333.43908,302.9926,340.95826Z" fill="#cfd8dd"/>
      <path d="M283.70248,358.58065l-.02242.01109c-1.43471-3.26053-2.80217-7.81862,1.79339-8.14023,2.522-.17745,4.32655,2.096,4.62918,4.40282C290.66306,359.01317,285.182,361.53065,283.70248,358.58065Z" fill="#cfd8dd"/>
      <path d="M283.142,377.76676c2.791-.65433,7.18476,1.95188,5.83972,5.35658-1.1657,2.9611-4.9206,2.60621-6.54586.53233A11.36959,11.36959,0,0,1,283.142,377.76676Z" fill="#cfd8dd"/>
      <path d="M277.85155,345.21692c-.03362.1109-.06725.21071-.10088.31052-1.72613,5.30113-2.35382,10.9017-3.37381,16.38028a100.8818,100.8818,0,0,0-.5268,34.85661c-8.09267-10.49136-7.79-30.19871-6.43378-44.92654.17934-.09982.35868-.21072.52681-.32162q2.15206-1.33083,4.23687-2.66166C274.08544,347.64568,275.96849,346.43684,277.85155,345.21692Z" fill="#cfd8dd"/>
      <path d="M228.58944,373.69664q-4.87578,2.41214-9.6843,4.547c-1.41229.63214-2.85821,1.26429-4.32654,1.89643-7.82366-9.10508-9.72913-11.77783-15.84907-17.52257-5.98543-5.63384-13.74183-9.959-19.122-15.55961,4.192-3.99248,18.2253-3.61541,24.1659-3.32707a124.59629,124.59629,0,0,1,23.97535,4.00358c6.41136,1.64135,18.75211,5.20132,39.70111,3.815-.01121.09981-.02241.18853-.03362.28835-9.80759,6.11072-20.31012,12.27689-30.84627,17.81092Q232.56852,371.74477,228.58944,373.69664Z" fill="#435561"/>
      <path d="M264.9952,384.63162c2.93668,3.44906-1.43471,8.484-2.93667,5.12368-.70614-1.45282-5.9518-6.16617-.57164-7.253C262.71984,382.2583,264.25543,383.75549,264.9952,384.63162Z" fill="#cfd8dd"/>
      <path d="M251.343,373.619l-.07846.15526c-5.97422-2.68383-1.6813-10.62444,2.94788-8.30658C259.44691,368.085,255.50146,373.30848,251.343,373.619Z" fill="#cfd8dd"/>
      <path d="M251.98194,394.757c.17933,3.92594-5.62676,8.69475-6.176,2.76147-1.30021-2.584.31384-3.61542.34747-6.43234C249.247,388.14722,251.83622,391.5741,251.98194,394.757Z" fill="#cfd8dd"/>
      <path d="M238.32977,380.22879c-.79581-2.95-.99757-7.94061,2.89184-7.56354,1.67009,3.23835,2.16327,11.88873-3.76611,9.92576.17934-.743.29142-1.51936.50439-2.26241Z" fill="#cfd8dd"/>
      <path d="M236.57,369.64871a142.75988,142.75988,0,0,0-4.21446,35.156c-3.28414-7.67444-4.23688-20.62783-3.76611-31.10811Q232.57412,371.7503,236.57,369.64871Z" fill="#cfd8dd"/>
      <path d="M226.06749,402.50908c.38109,2.14041-1.33384,5.035-2.73492,5.4453a22.65519,22.65519,0,0,1-2.847-7.40828C222.86181,397.49629,225.4398,399.06,226.06749,402.50908Z" fill="#cfd8dd"/>
      <path d="M186.64659,446.4375q1.73174-3.16071,3.67644-6.22162c11.76911-2.66166,29.63573-2.66166,29.63573-2.66166a.41831.41831,0,0,1-.19055.47688,106.583,106.583,0,0,0-12.86755,8.14024h-.01121c-9.33683,6.77613-17.90025,14.51712-30.07287,22.10284A176.23076,176.23076,0,0,1,186.64659,446.4375Z" fill="#677a89"/>
      <path d="M212.74037,389.7553c.01121,2.92783-2.903,5.35659-4.37138,3.37144l.44835-.04436C206.90066,386.82748,212.718,383.45605,212.74037,389.7553Z" fill="#cfd8dd"/>
      <path d="M208.95184,410.62713l-.47076.122c-5.50346-20.36167,9.85242-3.46015,1.00878.41034C209.12,410.99311,208.99668,410.81566,208.95184,410.62713Z" fill="#cfd8dd"/>
      <path d="M204.3675,384.44308A80.71723,80.71723,0,0,0,199.29,415.651c-2.18569-9.02746-3.6204-17.10115-1.4235-28.59063C200.05216,386.19534,202.22664,385.31921,204.3675,384.44308Z" fill="#cfd8dd"/>
      <path d="M194.26848,400.84554c.35868,4.2032-7.17355,7.50809-7.30805,1.66354-1.18812-1.55264.93032-1.597.78461-3.48234A3.585,3.585,0,0,1,194.26848,400.84554Z" fill="#cfd8dd"/>
      <path d="M186.44483,416.37187c.47076,2.90564-3.21689,5.26786-5.6828,5.46749a27.76221,27.76221,0,0,1-2.28657-7.29738C181.031,412.65664,185.77231,412.29066,186.44483,416.37187Z" fill="#cfd8dd"/>
      <path d="M169.90083,397.51847c.02242.01109.056.02218.07846.03327-3.1048,7.81862-3.18326,17.35622-1.49075,25.27465-3.867-6.9314-4.80852-15.08272-5.02149-23.101Q166.62789,398.66076,169.90083,397.51847Z" fill="#cfd8dd"/>
      <path d="M163.46705,399.72543c-.58285.18853-1.15449.38815-1.72613.57669-4.92061,1.64135-18.18047,5.534-29.99441,8.69474v-.01109c-3.40744-6.75395-9.617-13.8517-15.17654-18.67595,7.82365-4.41392,36.02467-1.51937,53.33086,7.20865Q166.62229,398.66632,163.46705,399.72543Z" fill="#435561"/>
      <path d="M155.99087,410.93766c4.14721,3.75959-.58285,7.92951-4.57314,6.99793C145.34263,415.163,151.74278,407.06716,155.99087,410.93766Z" fill="#cfd8dd"/>
      <path d="M147.48348,447.76833l.01121.15526c-12.41921,7.31956-16.92509,20.772-23.314,23.68875-2.634-6.16617-5.27929-12.66505-4.81973-19.36355A174.8623,174.8623,0,0,1,147.48348,447.76833Z" fill="#435561"/>
      <path d="M135.46779,408.83051a.32506.32506,0,0,1-.02242-.1109c2.40987.06654,7.16234,5.09042,4.89819,7.54136-.95274,1.04248-3.34018.55451-4.38259.14417-3.25052-1.31974-2.08481-4.94624-1.13208-7.77425Z" fill="#cfd8dd"/>
      <path d="M133.61836,429.0591c-.78461-4.35846,5.8173-6.32143,6.8485-1.04248,1.17691,5.98873-9.80759,6.12181-7.30806,1.109Z" fill="#cfd8dd"/>
      <path d="M124.66263,410.83784a50.39762,50.39762,0,0,0-2.10723,24.18781c-5.06632-4.4361-5.11116-15.28235-5.08874-22.46882C119.55147,412.10213,122.00617,411.51435,124.66263,410.83784Z" fill="#cfd8dd"/>
    </g>
    <g>
      <path d="M146.8729,174.52651c8.6204-1.08769,17.235-2.20746,25.508-5.21387a9.42527,9.42527,0,0,1,3.29755-1.48379c9.498-3.6699,18.48084-8.53048,27.49138-13.33077a4.86548,4.86548,0,0,1,2.38721-.94092c6.27364-3.44165,12.51245-6.95247,19.17672-9.51677,13.23076-5.091,26.61612-5.02718,40.18183-1.72136,15.76143,3.8409,29.55953,11.85776,42.37173,22.04681,3.2625,2.59456,6.47815,5.25561,9.71533,7.88611.77811.46751.69755,1.19894.474,1.92272a15.13147,15.13147,0,0,0-.32685,5.632c.224,3.09345,1.96994,5.25024,4.23484,7,.36846.28465.83285.42254,1.12936.81782.02232.41452.259.52581.62068.59944.59725.1216,1.27308.169,1.50837.95907q.01488.13061.01868.26211c-1.32625.608-2.71832.22853-4.03616.12056-5.78869-.47429-9.44275,2.53612-11.83393,7.797-.299.658-.62769,1.30151-.90173,1.97155a1.7253,1.7253,0,0,1-1.54549,1.2465c-6.57621-.03943-12.74147-1.94051-18.70486-4.7147-1.4644-.68124-2.8746-1.49348-4.29266-2.28084-.65349-.36283-1.356-.68391-1.63943-1.50882.45511-1.19235,1.25188-.49713,1.86757-.3065a5.10281,5.10281,0,0,0,3.35765.32525c2.1993-.24349,4.3998-.15769,6.48266-1.39245,3.764-2.23141,6.03255-7.70318,5.68471-12.28662a14.31224,14.31224,0,0,0-4.69561-9.81058,3.1361,3.1361,0,0,1-.87053-1.1128c-.71432-2.17853-.7186-4.491-1.02527-7.1366a3.5136,3.5136,0,0,0-.43888,2.81026c.07355,1.185.65334,2.34264.17248,3.56023a10.17106,10.17106,0,0,1-4.546-.85048c-1.12363-1.28526-1.20121-2.96822-1.51593-4.55975a4.52907,4.52907,0,0,0-.85292-2.40121c-.43515,2.66379,1.08811,4.73453.79764,7.02766a4.00259,4.00259,0,0,1-2.48534,1.30582,22.62489,22.62489,0,0,1-3.32481-4.60408c-.26155-.42547-.37747-1.501-1.0939-.9808-.56214.40821.14012,1.07444.40769,1.57.83,1.53753,2.24839,2.61419,2.96882,4.243a6.84092,6.84092,0,0,1-2.75479,2.86691,8.6661,8.6661,0,0,0-3.57038,5.17468c-1.33707,4.83272-.66368,9.24949,2.66193,13.046.40914.46707,1.18788.90166.58587,1.78772-.70615.18737-1.20538-.25681-1.70949-.653a52.0524,52.0524,0,0,1-8.88248-9.10468c-1.16482-1.49881-.39646-2.70791.14761-4.02481a9.21734,9.21734,0,0,0,.4632-2.21076c-.02839.2274-.13885.79761-.20529,1.37984-1.23987,3.74166-3.90641,5.263-7.72774,5.43743.938-.001,1.63637-.34937,2.25971.17037a.6639.6639,0,0,1-.09109.68066c-3.46539,4.69336-5.18741,10.15149-6.19771,15.92379a11.93948,11.93948,0,0,1-.29082,1.24364c-.76259,1.67127-.90776,1.70973-1.95584.30614-1.23338-1.6517-2.54887-3.23-3.78969-4.87391a2.22635,2.22635,0,0,0-1.16623-.99024c-2.50655-.858-5.01227-.24788-7.4951.07492a43.84137,43.84137,0,0,0-20.18779,7.73549,27.90274,27.90274,0,0,0-5.48338,5.22925,100.97529,100.97529,0,0,1,12.27949,4.87421c.63473.2898,1.50705.34118,1.59549,1.3758a159.95326,159.95326,0,0,1-18.18868-.85937c-7.76377-.66483-15.49572-1.67222-23.2151-2.78146-7.60365-1.0926-15.186-2.3697-22.82837-3.13347a64.53075,64.53075,0,0,0-12.3525-.513c.03854-1.218,1.10793-1.60549,1.72219-2.34311.72182-.86674.52536-1.21017-.44635-1.40192-1.96123-.387-3.8933.11987-5.8147.314-3.64954.36878-7.276.99632-10.89442,1.66276-1.49056.27453-2.44617.83917-2.65828,2.53365-.06735.53806-.044,1.28235-.82985,1.40554-.464-1.23388-1.32721-.36654-1.8622-.25042a166.65056,166.65056,0,0,0-21.89133,6.358,149.08971,149.08971,0,0,0-28.45771,13.80751c-.33631.2119-.69264.38791-1.24014.692a26.507,26.507,0,0,1,2.37707-8.49055,37.69448,37.69448,0,0,1,15.69794-17.67473c1.248-.71873,1.23235-1.08353.307-2.15737C94.13862,192.70373,88.00525,185.1069,83.26,176.38167A27.81774,27.81774,0,0,1,80,167.83441a35.51263,35.51263,0,0,0,8.86162,3.0942,218.624,218.624,0,0,0,24.31539,3.92583,92.49631,92.49631,0,0,0,11.33915.73175c.577-.00639,1.2813.34767,1.72442-.40217a1.177,1.177,0,0,1,.65889-.16812c5.8333.526,11.62627-.1006,17.41861-.701A23.17444,23.17444,0,0,1,146.8729,174.52651Z" fill="#958d85"/>
      <path d="M306.25445,200.14534c.81243.09029,1.00281-.51928,1.29-1.15694,1.31079-2.91048,2.603-5.82422,5.211-7.79a8.97963,8.97963,0,0,1,5.73933-2.0778c2.05769.05338,4.13241-.2347,6.16682.32452a2.60485,2.60485,0,0,0,1.64539.50135c.35464.41284.85926.00632,1.24561.25452a12.60846,12.60846,0,0,0,4.57683,1.73348c.31557.17634.18067.62806.45136.83241,1.33545.40975,2.64157,1.11539,4.08289.45687a1.90087,1.90087,0,0,1,.59977.36342,34.84581,34.84581,0,0,0,7.25331,2.22086,2.64472,2.64472,0,0,1,.78072.636l1.39.46311c.51876.23643,1.02026-.0105,1.52858-.06313a47.19052,47.19052,0,0,1,5.17681,1.25734c1.89553.45839,1.89541.4714,2.14376-1.491a1.69175,1.69175,0,0,1,.50451-1.2986c.61156-.10247.34616.51881.55089.75237.01224.1814.03738.363.03477.54416-.0435,3.01533-.04428,3.01532,2.826,3.6086.49876.22381,1.00275-.18784,1.5026.00978,2.1606.63123,4.32682,1.24236,6.46432,1.96237a3.09413,3.09413,0,0,1,.634.4926c.88006.42855,1.741,1.02252,2.7475.35926a1.67647,1.67647,0,0,1,.67282.21687c1.68793.82934,3.49455,1.30272,5.23765,1.962.38876.18909.8327.20638,1.21392.424.30912.9389,1.11254.85246,1.81029.98521.30575.09135.62692.0681.936.138,2.15078.58527,4.08866,1.80949,6.25492,2.34912.36328.16337.62291.49511.977.67464a51.27044,51.27044,0,0,1,4.67453,2.80753,1.88434,1.88434,0,0,1,.6409.71361c.14231.57739.63534.84566.97992,1.24188,1.88555,2.168,1.62183,4.16157-.76421,5.72145a9.72787,9.72787,0,0,1-4.57956,1.42115,5.25,5.25,0,0,0-1.831.40566c-.56541-.05971-1.084.326-1.65792.19981-2.538-.08458-4.99231-1.06569-7.56369-.78214-.67768-.05919-.92721-1.16957-1.77624-.81126-2.88206-.59274-5.80625-.94151-8.6559-1.71341a10.05409,10.05409,0,0,1-1.07679-.21289q-4.67428-1.29036-9.35934-2.53509a8.46033,8.46033,0,0,0-2.17214-.60793,73.71344,73.71344,0,0,0-9.04335-2.52326,8.85283,8.85283,0,0,0-1.6368-.64c-2.84681-.90832-5.68408-1.84738-8.56126-2.64047a6.8338,6.8338,0,0,1-1.298-.26367,70.52712,70.52712,0,0,0-7.48054-2.52195c-.41771-.14443-.83944-.27662-1.252-.43864a100.84326,100.84326,0,0,0-9.8568-3.21076c-.44214-.13494-.78124-.50629-1.24239-.5991-2.76349-1.08292-5.63976-.57562-8.4712-.71645-.74515-.037-1.77409.369-2.04785-.93633,1.97386-.92039,3.92494-.09637,5.70105-.14851-.41342-.25268-1.12216-.08483-1.79334-.16194C307.21662,200.77337,306.4626,201.11486,306.25445,200.14534Z" fill="#817a73"/>
      <path d="M231.08291,212.92627A83.86025,83.86025,0,0,0,218.013,207.4556c-.48988-.16019-.98645-.29713-1.64156-.49326a29.81462,29.81462,0,0,1,8.99179-7.83071,45.744,45.744,0,0,1,18.76394-6.04626c1.65949-.17027,3.30728-.22621,4.96278-.31354a1.70174,1.70174,0,0,1,1.63322.75749,1.35089,1.35089,0,0,1,.47088.52493c2.876,7.03164,7.45632,13.00254,10.85761,19.71047a92.04377,92.04377,0,0,1,6.89893,16.71843c.17326.61774.54909,1.24968.08518,1.90975-3.73974-2.07142-7.46432-4.17442-11.2223-6.20781q-12.38748-6.70263-25.12058-12.63321C232.17011,213.30952,231.62018,213.13328,231.08291,212.92627Z" fill="#817a73"/>
      <path d="M205.557,153.55716c-3.98566,2.55153-8.23752,4.556-12.397,6.74422a161.71988,161.71988,0,0,1-18.62628,8.45264,4.783,4.783,0,0,1-2.15283.55863c-3.99464-6.67532-9.00706-12.47484-13.95937-18.32707-2.44657-2.89116-4.87314-5.80141-7.54911-8.98936a90.77879,90.77879,0,0,1,10.95728-.08607,109.4669,109.4669,0,0,1,29.47587,5.05768,82.01541,82.01541,0,0,1,12.46435,5.238A3.52374,3.52374,0,0,1,205.557,153.55716Z" fill="#817a73"/>
      <path d="M256.92243,199.36839c.81763-5.84116,2.37632-11.39511,5.55729-16.33148a5.30045,5.30045,0,0,1,1.40789-1.5599c1.50807-1.0186,1.88693-.87768,2.19671,1.02584a49.65745,49.65745,0,0,0,4.9142,15.90064c4.24,7.82485,10.02383,13.67053,18.71239,15.28358,7.90341,1.4673,15.24336-.45677,22.061-4.82992.49007-.31436.94187-.69488,1.45908-.96675,2.71194-.94085,5.57246-.3934,8.32524-.93644a2.88708,2.88708,0,0,1,.85638-.02694c.81767.08826,1.98231-.73915,2.37888.216.44765,1.07814-.88971,1.52574-1.51987,2.08542a22.839,22.839,0,0,0-3.64734,3.83116,2.62257,2.62257,0,0,1-1.37413,1.04455,95.40426,95.40426,0,0,1-22.31189,2.61781,2.7652,2.7652,0,0,1-.569-.08634,10.87854,10.87854,0,0,0-3.2147-.3927,9.896,9.896,0,0,0-2.87414-.37087,158.66284,158.66284,0,0,1-22.26451-2.1043c-.59969-.09527-1.25192-.32637-1.77228.27216-.52357.15527-.717-.2795-.90361-.62728a122.20551,122.20551,0,0,0-6.93671-10.99818A3.20473,3.20473,0,0,1,256.92243,199.36839Z" fill="#e7e2de"/>
      <path d="M146.8729,174.52651c-1.39868.59125-2.90816.41109-4.353.59225a81.249,81.249,0,0,1-8.88084.49653c-2.1508.03248-4.29569.57086-6.44-.06507-.32617-.09673-.63938-.24289-.95851-.3662-4.83511-3.75221-8.46465-8.593-11.60793-14.24515a26.0691,26.0691,0,0,1,9.039,1.25187,43.89451,43.89451,0,0,1,15.334,7.12039C141.537,171.18821,144.24474,172.7968,146.8729,174.52651Z" fill="#827b73"/>
      <path d="M322.52644,188.00456c-5.07092-2.68435-7.18534-7.98582-5.52375-13.88571.17877-.63476.51971-1.24337-.00007-1.86688,1.117-.24545,1.10321-1.47695,1.68867-2.1859.54275-.80835.95273-1.78629,2.08451-1.84221a2.93788,2.93788,0,0,0,2.37631-1.4668,4.29632,4.29632,0,0,1,1.66266.68911l2.845.77877a1.803,1.803,0,0,1,1.42358,1.11687c4.23631,4.87089,4.638,10.64245,1.10807,15.90622A6.34458,6.34458,0,0,1,322.52644,188.00456Z" fill="#f3f3f3"/>
      <path d="M135.57685,207.80992c.01232-3.85946,2.47913-4.37968,5.37322-4.826,4.32436-.6669,8.66555-1.156,12.99459-1.76107a11.71638,11.71638,0,0,1,3.20972.41928c.8102.1071.66508.64775.189,1.12881q-1.421,1.43574-2.84509,2.86805c-5.23061,4.63366-11.31441,7.62213-17.57732,10.25361-1.43089.60123-2.91125,1.06956-4.82316,1.76409A78.37038,78.37038,0,0,0,135.57685,207.80992Z" fill="#827b73"/>
      <path d="M256.92243,199.36839a4.07578,4.07578,0,0,0,.77336,2.7113c2.72689,3.83517,5.202,7.8523,7.5478,11.96031a60.97989,60.97989,0,0,1,6.34854,16.04241c.29077,1.3743-.01418,2.787.75974,4.37807a9.84673,9.84673,0,0,1-3.31613-2.06761c-2.30619-8.8311-6.303-16.8155-10.80494-24.56238-2.58282-4.44451-5.61533-8.623-7.32954-13.598-.07822-.227-.11929-.46854-.17789-.70326.63224-.36987.74475.28874.98959.601,1.42045,1.81183,2.88176,3.59382,4.199,5.48812C256.63476,200.6578,256.62167,199.57887,256.92243,199.36839Z" fill="#b9b3ae"/>
      <path d="M295.26863,216.21111q.15764.03252.31691.05443c4.46036,1.62544,8.56669,4.092,12.8553,6.12565,6.17478,2.92809,12.27975,6.0187,18.47451,9.45736a27.03353,27.03353,0,0,0-1.105-5.49791,33.26083,33.26083,0,0,0-3.61554-9.83879,2.50353,2.50353,0,0,1-.48969-1.71319c.26562-.4522.58381-.73869,1.10093-.39335,3.9886,6.50266,5.18117,13.96374,6.61018,21.664-12.13454-6.94094-24.38984-13.09328-36.52187-19.50905C293.5664,215.52741,294.46161,216.20777,295.26863,216.21111Z" fill="#827b73"/>
      <path d="M322.806,214.40531l-1.04146.42644c-.90885,1.26413-2.29741,1.4687-3.61159,1.79258-.5469.13478-1.24459.158-1.51441-.49524-.21845-.52885.225-1.01431.502-1.47228.29385-.48588.81948-.64318,1.20426-.99776,2.10368-2.131,3.903-4.60713,6.35119-6.50924l-11.49627,1.032a3.44053,3.44053,0,0,1-1.427.48008,24.20206,24.20206,0,0,1-2.66656.00665,1.50724,1.50724,0,0,1-1.49544-.91261c.09128-.84326.7298-.75022,1.26465-.83542a2.12936,2.12936,0,0,0,1.7719.06791c3.99652-.71289,8.05237-.69613,12.069-1.15191a6.07617,6.07617,0,0,1,2.84369.48345c.38846.0587.831-.0508,1.09428.39728.08829.87569-.65191,1.06336-1.11243,1.43751a36.22342,36.22342,0,0,0-6.038,6.09182,94.99059,94.99059,0,0,1,12.50883-4.91955,2.64239,2.64239,0,0,1,2.16874-.07744l1.51818.07276c.31572.7856-.25542,1.24952-.58865,1.78881-1.51128,2.44591-3.36812,4.64037-4.75232,7.37106a66.35978,66.35978,0,0,0,12.05058-5.57588c.56-.35726,1.0926-.92161,1.86283-.68582.53195.06089,1.23787-.25195,1.35059.70965a.60489.60489,0,0,1-.04056.68039c-2.048,2.35525-3.20931,5.28685-4.65461,8.03439a2.84176,2.84176,0,0,1-1.17251,1.29134c-.282-.02793-.51384-.09771-.35382-.48758a49.798,49.798,0,0,1,4.17876-7.99881c.14443-.45087-.00882-.58348-.41851-.44193A67.5682,67.5682,0,0,1,328.209,220.7456c1.48239-4.082,3.74642-7.30546,6.26334-10.82087-3.67233,1.22257-7.10422,1.92085-10.28769,3.46973C323.68583,213.63716,323.07194,213.77415,322.806,214.40531Z" fill="#6a6a73"/>
      <path d="M322.52644,188.00456c4.44366.224,7.02083-1.4134,8.66361-5.50446,1.71109-4.26118.88213-9.59666-1.94613-12.53473-.18994-.19731-.53578-.25855-.50841-.64863.139-.26981.28918-.51759.64143-.37014.02346.492.35791.69345.70032.94228a10.65474,10.65474,0,0,1,3.99051,12.13016c-1.35383,4.62779-4.57043,7.0728-9.42477,7.164C324.1,188.46077,322.84705,189.1778,322.52644,188.00456Z" fill="#6e645d"/>
      <path d="M366.21079,218.39145l1.22368.08447c.08593,1.33677-.91757,2.171-1.35434,3.26812-.64058,1.609-1.51262,3.10978-2.23922,5.02911,3.248-1.72008,6.27783-3.22609,9.12537-5.11695a4.753,4.753,0,0,1,3.346-1.17955c.27177.0531.46886.164.35684.51574-4.64463,2.61127-9.09659,5.64713-14.43251,7.47328a30.50845,30.50845,0,0,1,3.7585-9.0483c-4.15286,1.96531-7.57891,4.613-11.67521,5.66134-.36282.19807-.456-.03639-.49959-.3506a1.67665,1.67665,0,0,1,.90875-.797,99.7449,99.7449,0,0,0,9.68935-5.145A2.20212,2.20212,0,0,1,366.21079,218.39145Z" fill="#6d6d76"/>
      <path d="M393.21928,213.31193a.69356.69356,0,0,1-.67206-.33294c.72938-2.2968,2.89334-3.13213,4.28451-4.90543A44.25305,44.25305,0,0,0,390.112,209.582a4.78936,4.78936,0,0,1-2.32417.46118.7441.7441,0,0,1-.78068-.79584,3.66606,3.66606,0,0,1,.89173-2.65217,40.29619,40.29619,0,0,0,1.95811-4.44638,31.48351,31.48351,0,0,0-6.44837,3.36331,7.4553,7.4553,0,0,1-2.87123,1.55624.76605.76605,0,0,1-.80151-.43934c3.70136-2.51972,7.40949-5.02444,12.043-6.22656a87.88219,87.88219,0,0,1-4.12372,8.90612A40.81521,40.81521,0,0,1,400,206.62972C397.69091,209.2291,395.00177,210.7641,393.21928,213.31193Z" fill="#717179"/>
      <path d="M353.90643,224.76089l.41335.31777a4.50831,4.50831,0,0,1-2.55034.63813,53.96738,53.96738,0,0,1,3.42931-9.08288c-6.00154,2.50222-11.352,5.2984-17.16334,8.14135.608-1.0359.98685-1.68123,1.36563-2.32656l.29408.39366c4.64994-2.553,9.43408-4.81562,14.0929-7.34958a.93679.93679,0,0,1,1.12507.00474,1.20339,1.20339,0,0,1,1.75076.37444c.25441.71661-.30106,1.11649-.59344,1.587a27.06762,27.06762,0,0,0-2.49641,5.747C353.35732,223.84958,353.29756,224.3611,353.90643,224.76089Z" fill="#6f6f77"/>
      <path d="M324.81477,167.44617c-.51188-.345-1.56236.777-1.66266-.68911.45353-1.62906.99919-3.2376,1.32614-4.89485.19727-.99989.599-1.12937,1.40648-.95866,1.062.22451.66168.93536.48471,1.5323C325.87218,164.113,325.33574,165.777,324.81477,167.44617Z" fill="#0a0a0a"/>
      <path d="M345.29746,196.44412a.70239.70239,0,0,1-.71024-.35857c-.91835-1.41757.45067-2.75956.12453-4.25309-1.98645.31459-3.80607,1.20463-5.72828,1.67422-.64148.15674-1.28329.59588-1.94019.04086l-.37958-.32375,10.20656-3.36477A30.82128,30.82128,0,0,0,345.29746,196.44412Z" fill="#75757d"/>
      <path d="M320.7758,168.22386a8.29333,8.29333,0,0,1-2.08451,1.84221,34.04653,34.04653,0,0,0,.35972-5.23977c-.04532-.79047.28008-1.04065,1.00718-1.02446.68424.01524,1.10654.15992,1.024,1.00155C320.97043,165.94248,320.87705,167.08361,320.7758,168.22386Z" fill="#0a0a0a"/>
      <path d="M329.37694,168.9466q-.32073.185-.64143.37009-.53787-.54582-1.07575-1.09174a27.93078,27.93078,0,0,0,.656-3.19451c.08324-.88021.295-1.06161,1.138-.947.94789.12882.9819.62434.80885,1.35135C329.98305,166.60956,329.67372,167.7764,329.37694,168.9466Z" fill="#0d0d0d"/>
      <path d="M385.64391,222.10717c.45959-.17492.91815-.6692,1.38051-.00508-3.59462,2.24084-6.93688,4.98384-11.02,6.2528-.37063.15225-.435-.089-.44993-.39446.61247-1.00444,1.75259-1.06787,2.6104-1.64008,1.83937-1.227,3.7876-2.26208,5.59863-3.54257A2.2876,2.2876,0,0,1,385.64391,222.10717Z" fill="#707078"/>
      <path d="M377.92561,205.6438c-.34062.20539-.68829.48009-.9482-.10879-.4302-1.11928.303-1.97867.60272-2.92438.38406-1.21189.90765-2.37067,1.31157-3.59437-.29684-.45945-.761.04509-1.07687-.22038a.28382.28382,0,0,1-.155-.25932q.0096-.16515.05209-.16515c.7759-.4619,1.71752-1.5367,2.35077-1.05346.65315.49843.05431,1.789-.22942,2.68174C379.23152,201.89331,378.56535,203.76381,377.92561,205.6438Z" fill="#717179"/>
      <path d="M348.099,197.16358c-.48033-.02464-.99687.17563-1.41157-.25639.939.03819,1.56272-.66443,2.301-1.10108,2.723-1.6107,5.44887-3.21608,8.51349-5.024-.32632,1.46238-.55856,2.50324-.79082,3.54409a.82213.82213,0,0,1-.57333-.45734c-.10507-.55-.1403-1.08255-.92317-.58927-1.61991,1.02065-3.28934,1.95184-4.947,2.90359A8.39084,8.39084,0,0,1,348.099,197.16358Z" fill="#7a7a81"/>
      <path d="M368.05372,202.68169l-.76613-.04443c-.32419-1.70824.41635-3.26552.6118-4.9.071-.594.57973-1.27145-.24829-1.72377a.912.912,0,0,1-.33666-.31374c.72791-.435,1.45581-.87,2.55047-1.52414C369.2038,197.28048,368.62877,199.98109,368.05372,202.68169Z" fill="#76767e"/>
      <path d="M367.31444,195.69977l.44684.04417a.66451.66451,0,0,1-.1824.6675c-2.17873,1.5553-4.297,3.22921-6.85179,4.07053-.434-.03813-.90735.13716-1.27428-.265C362.09562,198.755,364.53918,196.90153,367.31444,195.69977Z" fill="#75757d"/>
      <path d="M375.64813,228.02023l.35625.33466c-.634.50616-1.35862.40978-2.29166.50543.75949-2.37724,1.962-4.28947,2.80465-6.37124.1708-.42187.98327-.91248.15174-1.49669l-.43477-.41782.00743-.24789c.83113-.18913.99965.67854,1.48056,1.048.0535,1.81141-1.20991,3.06429-1.74049,4.62829C375.76005,226.65673,375.15948,227.23522,375.64813,228.02023Z" fill="#7c7c84"/>
      <path d="M377.7119,198.37141q.002.152.00281.30387c.04209.12013.0869.28646.0176.34631-2.01486,1.74-3.83736,3.80482-6.52873,4.41528l-.40232-.39593A40.19413,40.19413,0,0,1,377.7119,198.37141Z" fill="#72737b"/>
      <path d="M332.58077,192.76693c-.33744-.11276-.4036-.40317-.42093-.72558-.07859-1.29112,1.12894-1.65539,1.62039-2.55153a2.5466,2.5466,0,0,1-1.26221-.16865.888.888,0,0,1-.42664-.61217,10.97278,10.97278,0,0,1,4.07133-.42385C334.91168,189.9711,333.35528,191.03529,332.58077,192.76693Z" fill="#71727a"/>
      <path d="M332.09138,188.709l.42045.36228a5.80574,5.80574,0,0,1-5.09987,1.19786c-.40223.02367-.95494.629-1.10493-.32264A25.59361,25.59361,0,0,1,332.09138,188.709Z" fill="#6f6f77"/>
      <path d="M295.26863,216.21111c-.77948.20838-1.654-.31314-2.37433.34916l-.73976-.3173A3.07837,3.07837,0,0,1,295.26863,216.21111Z" fill="#b9b3ae"/>
      <path d="M356.37244,193.90035l.33856.42583q-.05942.869-.11894,1.738l-.30347-.75A.97524.97524,0,0,1,356.37244,193.90035Z" fill="#686770"/>
      <path d="M343.16127,214.008c.289-.309.64658-.79738,1.00862-.43956.18983.18761-.25922.66542-.59013.88148Z" fill="#dddee0"/>
      <path d="M279.78917,170.12835l2.71127-2.61313c.163-.50025.46395-.69586.94892-.48485l2.54708-1.07106a1.48393,1.48393,0,0,1,1.67613-.291,13.91246,13.91246,0,0,1,4.53935,1.01405c.83519-.38314,1.18276.36523,1.66186.80845a15.07422,15.07422,0,0,1,5.6869,10.78148c.58036,7.06051-4.18175,14.86888-11.75905,14.18409a7.99786,7.99786,0,0,0-.85724.01133c-3.21649.03777-5.56637-1.74775-7.37438-4.299a15.29511,15.29511,0,0,1-1.68721-15.54333A4.77846,4.77846,0,0,1,279.78917,170.12835Z" fill="#f3f3f3"/>
      <path d="M311.825,208.19417l1.37476-.01236a25.99045,25.99045,0,0,1-12.76543,5.84707c-16.88113,3.25419-27.56442-7.40424-32.4235-21.43765a59.68639,59.68639,0,0,1-2.53607-11.35758l-1.587.24335h-2.39336c3.21514-1.03271,6.32619-2.076,7.56931-5.89424.82978.12041.41918.66388.3315,1.09722-1.37255,2.09127-.31986,3.50636,1.01881,5.09351a51.126,51.126,0,0,0,8.93226,8.51434A3.84685,3.84685,0,0,1,281.811,192.04a48.1414,48.1414,0,0,0,24.44364,8.10522c.60521.503,1.31132.21148,1.971.27494a3.28874,3.28874,0,0,1,2.13508.87318h-6.52648a2.27267,2.27267,0,0,1-1.98049.33543c-11.73565-1.72544-22.03474-6.61125-30.39927-15.701-1.28449-1.39584-2.31941-3.02235-3.68121-4.82873.73583,5.54719,1.32924,10.77721,4.37289,15.234,5.07016,9.71726,12.24294,16.11387,23.219,16.07961a30.75274,30.75274,0,0,0,11.44441-2.34148A44.46058,44.46058,0,0,1,311.825,208.19417Z" fill="#381534"/>
      <path d="M281.811,192.04a7.38391,7.38391,0,0,1-2.46474-1.75242c.35889-.97513-.55893-1.18337-.95188-1.61594-4.47632-4.9279-4.27859-13.66612.47185-18.25154.23206-.224.43035-.8762.92294-.29177a14.97784,14.97784,0,0,0-1.3297,15.3313,11.5741,11.5741,0,0,0,8.48494,7.00807c-1.05747.7424-2.07055.11991-3.10678-.09055C283.16755,192.241,282.59008,191.42572,281.811,192.04Z" fill="#6f655e"/>
      <path d="M287.67257,165.6683l-1.67613.291c-.44077-1.94675-.89788-3.88958-1.31361-5.84236-.14877-.69887-.36617-1.47072.67806-1.69517,1.08464-.23314.87381.6277.971,1.22753A41.00631,41.00631,0,0,0,287.67257,165.6683Z" fill="#070606"/>
      <path d="M283.44936,167.03038l-.9489.48484a24.54821,24.54821,0,0,1-3.7561-4.90609c-.32525-.56973-.72993-1.13519.10215-1.67121.81748-.52663,1.11938.019,1.36568.67042C280.97659,163.63011,282.78056,164.94739,283.44936,167.03038Z" fill="#060606"/>
      <path d="M293.87378,167.4908l-1.66184-.80843a28.76018,28.76018,0,0,1-.7478-5.40645c.00478-.63012-.15884-1.39167.84936-1.43918.99226-.04677.96074.6275.92315,1.31569A27.74124,27.74124,0,0,0,293.87378,167.4908Z" fill="#070707"/>
      <path d="M269.39512,176.68c-.06987-.37968.07819-.8337-.33154-1.0973q.203-.93921.40585-1.87857C269.70831,174.74092,269.98917,175.74471,269.39512,176.68Z" fill="#52354b"/>
      <path d="M271.77852,196.48014c-2.633-3.74087-3.57239-8.1128-4.08832-12.619a13.4168,13.4168,0,0,1-.31988-4.01513c9.088,13.26827,21.47788,19.87874,36.46382,21.44726a13.60021,13.60021,0,0,0,5.09363.20952,17.52712,17.52712,0,0,1,5.862.85452c.66806.63121.05128,1.00443-.31735,1.23866-1.80109,1.14442-3.41279,2.63915-5.441,3.36765-.43477.22659-.776.72065-1.35495.53491-1.03936-1.49645-2.14163-.995-3.50274-.3967-2.69688,1.18558-4.94085.50446-6.76531-1.7556-.40065-.49632-.75962-.70252-1.32062-.39247-.30586.169-.61224.33756-.92313.49609-3.11855,1.59042-5.77425.85559-7.51882-2.29418a2.3801,2.3801,0,0,0-2.74449-1.52045c-2.53965.36166-4.72511-.1879-5.65628-3.17627-.32456-1.04166-1.0632-.63781-1.726-.51479C275.40971,198.3357,273.392,198.29544,271.77852,196.48014Z" fill="#f3f3f3"/>
      <path d="M354.91309,215.49752c-4.56506,2.318-9.12517,4.64708-13.7028,6.93665-.45723.2287-.87056.87795-1.51483.40819,2.12764-3.20124,3.20432-7.11222,5.927-9.91209.10351-.051.21495-.15915.30931-.14434A28.19723,28.19723,0,0,1,354.91309,215.49752Z" fill="#bfbec0"/>
      <path d="M344.27193,212.22051c-4.47253,3.13859-9.46615,5.04185-14.72418,7.06338,1.60353-3.84735,4.337-6.59164,6.15134-9.96178C338.53679,210.35579,341.52015,210.90147,344.27193,212.22051Z" fill="#bfbec0"/>
      <path d="M353.90643,224.76089c-.385.04264-.799.46923-1.12854.15965-.37924-.3563.05028-.78484.16831-1.15172a24.68685,24.68685,0,0,1,3.71763-7.89682,55.4074,55.4074,0,0,1,9.54772,2.51974c-3.67453,1.81162-7.098,4.16009-10.88515,5.7297C354.84766,224.31985,354.3795,224.547,353.90643,224.76089Z" fill="#bfbec0"/>
      <path d="M376.24177,220.32668a.42724.42724,0,0,1-.0069.2483,8.53035,8.53035,0,0,0-3.24879,1.57673,102.69672,102.69672,0,0,1-9.89578,5.50712,47.38133,47.38133,0,0,1,4.34373-9.18311Q371.83835,219.4014,376.24177,220.32668Z" fill="#bfbec0"/>
      <path d="M334.18131,209.24958a86.69613,86.69613,0,0,0-15.86415,6.0411,34.84712,34.84712,0,0,1,8.337-8.57343A23.22042,23.22042,0,0,1,334.18131,209.24958Z" fill="#bfbec0"/>
      <path d="M380.53743,207.06837a32.77369,32.77369,0,0,1,9.72247-5.5238c-.49581,2.98566-2.10825,5.235-3.2526,7.703-.39986.37737-.79039.28848-1.25468.07891C384.02507,208.54665,382.27749,207.8169,380.53743,207.06837Z" fill="#bfbec0"/>
      <path d="M375.64813,228.02023c-.55846.156-1.25811.50391-.70078-.676.93681-1.98349,1.85105-3.979,2.77489-5.96948.20255-.2006.4448-.60554.60152-.5711,2.42527.53283,4.94407.475,7.3201,1.3036A76.25428,76.25428,0,0,1,375.64813,228.02023Z" fill="#bfbec0"/>
      <path d="M325.55994,206.32c-5.17424.15084-10.32073.712-15.47339,1.18164-.21032.10337-.45541.20388-.61222-.02872-.27465-.4074.03146-.71175.3011-.86629,1.97426-1.1315,3.67486-2.76923,5.831-3.56162A41.28261,41.28261,0,0,1,325.55994,206.32Z" fill="#bfbec0"/>
      <path d="M356.37244,193.90035q-.04176.70708-.08368,1.414a2.01594,2.01594,0,0,0-.31683,1.3836c-.12874,2.53905-.13,2.5489-2.38387,1.95564-1.8332-.4825-3.66008-.99217-5.48942-1.48989,2.6077-1.95137,5.528-3.29369,8.39751-5.06631Z" fill="#bebdbf"/>
      <path d="M371.20358,203.43687a49.80463,49.80463,0,0,0,6.51108-4.76183c.57552-.20566,1.151-.41157,1.9929-.71279-.96109,2.6666-1.84539,5.12011-2.72992,7.57319A14.941,14.941,0,0,1,371.20358,203.43687Z" fill="#bfbec0"/>
      <path d="M360.72709,200.482c2.216-1.79454,4.91177-2.78525,7.0336-4.73828.5909-.13724,1.15913-.2966.90981.7588-.48176,2.03952-.92363,4.08967-1.38249,6.13508Q364.00713,201.55946,360.72709,200.482Z" fill="#bfbec0"/>
      <path d="M387.78787,210.04322c3.179-1.56315,6.59857-2.00173,10.33846-2.6386-2.03935,2.0375-3.80925,3.80578-5.57915,5.57422Q390.16757,211.51118,387.78787,210.04322Z" fill="#bebdbf"/>
      <path d="M337.04328,193.54755l8.47536-2.52043c-.20575,1.80155-.91735,3.364-.9314,5.05841-2.59648-.095-4.9719-1.20272-7.44865-1.84512C336.695,194.12533,336.90542,193.80668,337.04328,193.54755Z" fill="#bfbec0"/>
      <path d="M327.412,190.26914q2.55-.59877,5.09987-1.19768a5.46591,5.46591,0,0,0,2.43464-.34927c-1.08491,1.29233-1.93569,2.30577-2.78655,3.31919A5.20526,5.20526,0,0,1,327.412,190.26914Z" fill="#bdbcbf"/>
      <path d="M315.60642,203.045c-1.80946,1.2174-3.62405,2.4264-5.42261,3.66177-.25574.17567-1.19916.38122-.09718.79463-.69411.57949-.96791.22774-1.05515-.53754,1.36581-1.3824,3.09874-2.17957,4.6261-3.30151.44045-.32352,1.3125-.33712,1.13271-1.305Q315.19784,202.70118,315.60642,203.045Z" fill="#7c7d84"/>
      <path d="M318.34479,213.65905c-.40141.84933-1.24768,1.40738-1.45175,2.49229,1.86443.41732,3.27775-.84722,4.87186-1.32,3.4058,5.36918,4.61195,11.53762,5.9569,17.96957-2.00656-1.08264-3.716-2.05692-5.4661-2.94044q-12.59278-6.35749-25.20075-12.681c-.51089-.25741-.98048-.60727-1.46935-.914A118.43408,118.43408,0,0,0,318.34479,213.65905Z" fill="#b9b3ae"/>
      <path d="M320.53722,177.06449c1.22282.161,2.10764,1.737,1.89322,3.37195-.22195,1.69226-1.17658,2.69343-2.37267,2.48834-1.23926-.21252-2.16057-1.81223-1.94583-3.37873C318.33256,177.93688,319.33938,176.90671,320.53722,177.06449Z" fill="#040404"/>
      <path d="M271.77852,196.48014c2.1718,1.20237,4.40412,1.7299,6.75213.60407.50649-.24285.73258-.12018.85642.42555.90672,3.99541,3.21417,4.16612,6.55494,3.5029.88724-.17614,1.14658.10211,1.50936.89518,1.84712,4.03808,4.42964,4.88632,8.12271,2.72032.98-.57475,1.72977-1.25743,2.25167.60667.36975,1.32062,1.65436,1.75186,2.92858,1.87227a5.68814,5.68814,0,0,0,3.84142-.70521c1.59568-1.097,2.49775-.6798,3.08061,1.09643,1.21012,1.39563,2.78322.3458,4.14853.69575a34.67424,34.67424,0,0,1-12.80888,4.39228,21.56685,21.56685,0,0,1-12.005-1.07779C280.08823,208.65362,275.05958,203.54536,271.77852,196.48014Z" fill="#6c404f"/>
      <path d="M295.88632,179.884c-.04561,1.93737-1.61046,3.79929-3.1299,3.72408-1.38049-.06833-2.619-1.64986-2.6172-3.3421.00206-1.96438,1.47166-3.78206,3.06087-3.78582C294.69372,176.47665,295.92968,178.04279,295.88632,179.884Z" fill="#020202"/>
    </g>
  </g>
</svg>
