<svg id="Background" xmlns="http://www.w3.org/2000/svg" xmlns:xlink="http://www.w3.org/1999/xlink" width="560" height="560" viewBox="0 0 560 560"><defs><symbol id="Olivia" data-name="Olivia" viewBox="0 0 451.187 364.811"><path d="M209.876,176.29754s-36.89832,18.86778-39.64155,37.96656c-2.793,19.44549,8.9333,60.36,18.14578,55.89337S193.126,246.089,196.476,239.389s27.35825-10.32913,27.35825-10.32913Z" fill="#9e5e70"/><path d="M137.52435,99.3237S146.70834-4.52666,244.99323.15357c87.13693,4.14938,106.694,41.7606,115.76763,71.3693,15.76764,51.45228,13.278,72.6141,28.63071,119.917C407.92288,248.53634,413.8729,317.581,413.8729,317.581s-72.64877,13.92425-99.58507,15.35269c-54.77178,2.90457-91.28631-12.86308-91.28631-12.86308-4.54131-43.27609,1.26758-87.2066-13.31893-116.971-7.06394-14.41429-17.772-29.23728-33.66361-39.94894C145.29319,142.44,74.03887,156.17017,41.67373,155.34029S13.043,136.25316,13.043,136.25316s-6.63981.35739-9.95851-3.73444c-5.53115-6.81973-7.10584-29.72243,26.14108-26.971C60.73868,108.15574,136.84968,110.683,137.52435,99.3237Z" fill="#eaa8b4"/><path d="M389.39157,191.43984c-15.35272-47.30286-12.8631-68.46473-28.63068-119.917C351.68722,41.91414,332.13016,4.30293,244.99325.15358,214.1738-1.314,192.11844,7.89192,176.35708,21.21913c0,0,61.16727-16.08631,96.85193,4.66059,62.43937,36.30194,43.275,71.69766,47.71784,98.75518,5.28506,32.18654,30.29043,110.78833,36.09957,123.23651,4.19391,8.98694,10.02952,59.25788,11.797,77.75232,23.78467-3.9674,45.0495-8.04278,45.0495-8.04278S407.92288,248.53633,389.39157,191.43984Z" fill="#cb8e9c"/><path d="M364.78767,209.94457a5.11543,5.11543,0,0,1-2.56952,6.81851c-56.09886,24.58151-46.99277,45.68078-55.19249,49.9842-16.28178,8.54508-48.29569-22.05411-70.90812-17.30829-10.62727,2.23042-18.42495,24.5666-32.03931,17.86662-6.05306-2.97887-4.68965-48.10024,13.43793-58.42938,25.65226-14.61672,91.74283,5.667,100.9553,2.59621,6.17706-2.059,14.11124-9.64041,18.6691-14.41287a11.84355,11.84355,0,0,1,12.018-3.24056C356.5055,196.09675,361.39421,202.506,364.78767,209.94457Z" fill="#b7798e"/><g id="Eye"><path d="M151.98616,99.84394c-11.59228,0-20.98962-7.84912-20.98962-17.53155,0-5.84583,3.43884-11.00916,8.70471-14.1944-7.7041-2.61585-14.63794-8.42706-21.14612-16.00385,4.18164,10.67383,9.29529,18.29444,16.21082,20.01038-.03235.0329-.063.06677-.09534.09979-8.09436,2.66754-17.52991-.04291-27.5321-5.02685,6.71655,7.06134,13.38171,12.44378,22.885,11.28564-3.60474,6.7157-3.80982,14.22437.18579,19.72577,6.11926,8.42554,19.76513,8.94788,30.479,1.16669a30.51886,30.51886,0,0,0,3.04736-2.53455A23.89129,23.89129,0,0,1,151.98616,99.84394Z" fill="#123f6d"/><ellipse id="Eye-2" data-name="Eye" cx="151.98611" cy="82.31239" rx="20.98958" ry="17.53158" fill="#fff"/><ellipse id="Pupil" cx="161.80306" cy="82.55995" rx="8.48926" ry="7.9458" fill="#123f6d"/><path id="Brow" d="M133.48611,57.45888c1.23568-2.84473,16.55073,2.935,35.53784,5.94686,2.36451.37508,2.36451,6.60921-.76745,6.60453C159.6789,69.99745,130.95543,63.28494,133.48611,57.45888Z" fill="#9e5e70"/></g><g id="Eye-3" data-name="Eye"><path id="Lashes" d="M207.80512,95.94749s16.33334,26.83333,46.66667,16.33333c22.87352-7.91776,14.83332-34.33334,14.83332-34.33334,14.70124,2.49135,29.33335-4.16666,40.16669-16.66666-14.57263,7.91793-30.55313,11.35411-48.66669,8,18.05637-4.98965,29.16668-15.5,34.33335-30.5-12,12.16667-26.45472,19.854-43,24Z" fill="#123f6d"/><path id="Eye-4" data-name="Eye" d="M266.30512,77.61415c6.33334,18.66667-14.88027,31.44846-35,30.16667-10.25708-.65346-32.94544-10.64993-24.30768-32.31982C212.953,60.52016,255.644,46.19175,266.30512,77.61415Z" fill="#fff"/><circle id="Pupil-2" data-name="Pupil" cx="253.50206" cy="83.7248" r="10.66699" fill="#123f6d"/><path id="Brow-2" data-name="Brow" d="M266.13846,50.28082c-8.28784,10.81-48.08679,15.40286-59.66283,16.5069-1.66437.15873-.31778-6.40723,1.315-6.755C219.91853,57.44956,268.44654,47.27034,266.13846,50.28082Z" fill="#9e5e70"/></g><g id="Mouth"><path d="M289.13846,79.36415s-14.14484,43.94954-30.75,47.25c-6.63723,1.31922-21.37247,3.98758-47.41172,5.57212-38.23,2.32636-100.82592,3.472-197.93372,4.06689a12.62546,12.62546,0,0,0,.15993,4.44319c165-2.5,211.93551-2.0822,246.68551-10.3322C285.37641,124.31306,289.13846,79.36415,289.13846,79.36415Z" fill="#7c3053"/><path d="M336.473,120.13331c0,10.47922-15.73386,11.50555-24.78192,12.17855-17.13493,1.2745-27.89736-6.23088-24.64031-14.58593S336.473,99.45811,336.473,120.13331Z" fill="#f3859b" opacity="0.5" style="mix-blend-mode:multiply"/></g><g id="Water"><path d="M420.52987,305.075a2.149,2.149,0,0,0-3.08469,2.59782c1.40376,3.85227,3.85994,8.27467.32532,12.77521-13.81891,17.59526-75.96538,17.99946-77.46538,23.16612s13.33334,3.16667,10.5,7.5-68.33333,7-69.5,8,36.33334,9.66667,69.00827,3.5c35.99917-6.794,5.20078-13.8,8.6584-14.83333,14.5-4.33333,38.83333,1.16667,60.66667-13.66667C440.63036,319.85247,428.61758,309.67611,420.52987,305.075Z" fill="#fff"/><path d="M428.80512,303.28082c-.51935-2.1813,18.66667.5,21.66667,8.83333,2.94424,8.17845-4,14.16667-6.33333,15.5s-9.5-.16666-7-2.83333,7.853-6.22471,5.33333-11.83333C438.80512,304.7858,429.63846,306.78082,428.80512,303.28082Z" fill="#fff"/><path d="M209.68,310.99324c1.12478.624.43426,2.5784-.10043,3.74828-1.105,2.41776-1.99731,5.75741,9.18386,11.88221,9.13882,5.00606,57.11379,15.88792,54.70833,17.61542-3.33489,2.395-49.86439-6.13818-63.16667-14.33333-18.66666-11.5-6.83333-16.83333-4.83333-18.33333C206.37179,310.89749,208.77666,310.49205,209.68,310.99324Z" fill="#fff"/><path d="M194.43012,311.44749c-2.56612,1.50956-8.95733,7.18757-6.57449,10.90848,4.49213,7.01463,14.57449,9.61142,14.07449,10.9348s-20.50234-1.81214-21.83333-9.51c-1.36364-7.88661,6.9751-13.02587,10.41957-13.5536C195.27047,309.49884,195.3135,310.92782,194.43012,311.44749Z" fill="#fff"/><path d="M218.92286,342.82481c-1.05236.94706,1.66591,5.71965,11.49482,7.9964,4.12035.95443,12.05014,1.55486,12.43885-.833.19018-1.16825-3.10971-3.06312-10.51589-4.31745C226.30738,344.649,219.80512,342.03082,218.92286,342.82481Z" fill="#fff"/></g></symbol></defs><title>character-olivia-square</title><use id="Olivia-3" data-name="Olivia" width="451.18726" height="364.81147" transform="translate(78.81274 195.18853)" xlink:href="#Olivia"/></svg>