<svg xmlns="http://www.w3.org/2000/svg" width="600" height="600" viewBox="0 0 600 600">
  <title>character-antonio-full</title>
  <g id="Background">
    <path d="M586.3247,379.27145c-43.64647-124.02483-.7358-181.65459-25.89048-256.77279-9.89145-29.53835-59.34867-59.0767-98.91446-29.53835C441.73687,14.19137,287.39175-11.19882,204.34219,4.34526,72.99833,28.9284,102.72465,96.64994,82.94176,165.57275c-9.3015,32.406-76.42848,113.5429-18.23357,145.4778C-46.3228,399.82022,2.3641,483.98716,84.894,545.133c126.86779,93.99541,353.08684,55.02218,480.38365-25.3975C613.04754,489.55691,602.63341,425.61391,586.3247,379.27145Z" fill="#c3e0ae"/>
    <g>
      <path d="M418.49251,237.27327c-4.93847,16.3216-26.39918,38.71243-26.39918,38.71243l-46.91612-4.85188s-36.07656-43.682-33.54217-65.25266,31.92438-47.99465,31.92438-47.99465l-2.42037-7.81935,18.32871-6.47119.80889,13.48165,5.86915-8.42584,1.55324,8.86255,7.13779-8.86255,10.75795,2.76355-2.39933,8.02757,7.54972-4.0912,7.75617,10.7983-2.27211,41.898Z" fill="#5b3c28"/>
      <path d="M286.14206,424.76572c-2.1953,16.99969-8.19519,34.75563-18.88874,53.4446,13.36779-6.20153,21.301-23.18839,21.301-23.18839,2.1091,9.96446-.9437,18.20021,0,32.35593-8.4,11.03477-12.08039,24.96034-7.93319,43.68051a16.65586,16.65586,0,0,0-13.04763,2.26264c-8.41378,5.49877,1.06,23.51882-12.184,26.5881,20.76172,1.61779,10.99149-18.90307,25.29176-18.48858l-1.126,12.287,6.58685.53927,5.10859-12.94238,0-17.25285c11.34809,15.48381,24.12218,24.75619,37.71454,30.46485l6.35408-4.15037s-22.09324-15.80245-27.75552-33.32859S306.142,411.70786,306.142,411.70786Z" fill="#80603e"/>
      <polygon points="374.6 539.269 383.486 537.236 383.486 514.276 376.168 515.55 377.246 533.094 374.6 539.269" fill="#4f2c1e"/>
      <path d="M448.911,480.72692V500.5l6.00941,13.6614-6.00941,6.8307-7.54972-11.50434,2.00162,17.97553s-35.07659,8.26874-43.34533,9.70678a54.83637,54.83637,0,0,1-16.53748,0V515.59943L370.33,518.10421l-.17974,22.54272L346.81,546.15782l-6.83069-15.45895-7.22513,17.616L299.42825,540.453l-21.25631.11636v7.34751l-7.93768.398L266.74248,535.671,254.4158,548.31488l-37.38909-24.26329-17.616,5.92826-2.51657-10.78531-3.95462,9.34727-7.54972-.719V515.95894l-7.19021,8.09265-25.16573-12.13713V372.15475L448.911,373.64114Z" fill="#5b3c28"/>
      <path d="M247.20137,462.91413c-3.54621,7.594-8.7872,21.723,1.41756,26.87243,8.10768,4.09121,14.3965-2.37173,15.46388-10.23562.82247-6.05955-2.93254-10.22056-9.04373-8.03908-5.26617,1.87984-8.46905,10.69285-1.10377,12.04862,1.56051.28725,2.22963-2.10283.65941-2.39187-4.915-.90473-2.12769-5.54478.06787-6.77452a7.305,7.305,0,0,1,3.87553-1.02573c5.50641.47227,2.95872,9.40414.92349,12.17883a7.791,7.791,0,0,1-11.52382.80606c-6.09946-5.7666-1.41187-16.15414,1.40539-22.18718.67132-1.43761-1.46624-2.69864-2.14181-1.25194Z" fill="#4f2c1e"/>
      <path d="M262.54794,421.424,253.376,459.456l-17.32366,26.62,6.2429,19.81946,15.38608,1.30035,13.7335,4.71858v5.01014s-4.24-2.32122-6.9132-2.35646c-5.271-.06948-9.11217,4.70869-9.11217,4.70869l-6.47119-8.44091-11.729-.8089-5.36086,9.2498c-1.8898,12.0512.31912,26.881,5.6305,31.46475l-13.61647,6.95506-6.33637-10.46028c-3.09612.25572-12.40311,9.16752-12.40311,9.16752l-6.286-2.62765a23.46,23.46,0,0,0,15.65653-21.56213l-23.38233,16.10079-2.62878-6.69184,8.34266-5.48855,16.39112-19.60193,2.25479-19.58274,15.13233-31.2774,3.50494-13.82626,7.01473-41.53836Z" fill="#80603e"/>
      <polygon points="456.498 482.997 428.224 477.132 378.072 499.781 302.859 496.815 302.859 431.564 435.235 431.564 456.498 482.997" fill="#4f2c1e"/>
      <path d="M206.49779,382.988c-4.64048,10.257-4.81343,21.54514,3.48894,34.78921,0,0,62.64576,10.32607,83.69662,9.484,9.55291-.38214,7.8763-8.52257,7.8763-8.52257l-7.05991-25.93583Z" fill="#4f2c1e"/>
      <path d="M219.08435,452.45811c-1.917.641-2.24547,1.13606-3.84728-.16992-2.55092-2.07979.85117-3.20665,2.88314-3.35092,2.84412-.20193,3.58912,1.12,4.49647,3.64019q2.67264,3.503-1.7025,5.4l-1.43828.85661c-4.26769,2.41412-11.39437,4.06724-13.34432-2.413-.857-2.84791-.05224-6.5965.97458-9.31814,2.18828-5.80014,7.4248-10.85458,13.72161-11.62875,10.99257-1.35151,10.9592,10.52683,9.70611,17.97619-.26266,1.56144,2.12722,2.23263,2.39186.65941,1.04467-6.2103,2.01676-13.89908-3.23813-18.61651-4.2467-3.81237-10.55289-3.0766-15.23783-.52037a21.73813,21.73813,0,0,0-10.80747,15.64577c-.77254,5.17042.19876,11.508,6.17333,12.65579,5.2146,1.00184,13.26172-1.85976,15.93337-6.69376,2.56726-4.64514-1.18473-9.05485-5.85251-9.92957-3.78662-.7096-8.11221.79424-8.37552,5.16853-.31164,5.1773,4.88191,4.14746,8.22278,3.03041,1.50632-.50365.86052-2.90007-.65941-2.39186Z" fill="#4f2c1e"/>
      <polygon points="252.047 408.314 252.047 409.947 265.926 410.763 266.742 408.314 252.047 408.314" fill="#5b3c28"/>
      <polygon points="263.477 414.029 263.477 414.845 268.874 415.662 269.192 414.029 263.477 414.029" fill="#5b3c28"/>
      <path d="M280.62111,395.252c-2.449,18.049,2.44917,29.39,10.61307,31.83921,3.98723,1.19617,8.80587-.01926,10.43865-5.734l-3.90753-13.043c-.81639,4.08195-12.24585,9.79668-11.42946-10.61307Z" fill="#5b3c28"/>
      <ellipse cx="291.64238" cy="404.8583" rx="2.04098" ry="5.08868" fill="#5b3c28"/>
      <polygon points="358.995 529.956 360.627 529.956 361.444 538.937 359.811 538.937 358.995 529.956" fill="#4f2c1e"/>
      <rect x="362.26011" y="525.87436" width="1.63278" height="8.1639" fill="#4f2c1e"/>
      <path d="M381.57765,183.50164v19.95283a38.97526,38.97526,0,0,0-12.13348,8.62825c-5.123,5.66229-26.96328,50.15171-26.96328,50.15171l14.56018,8.089c16.20414-23.65443,21.301-51.76951,21.301-51.76951l11.32458-9.51442,7.7443-22.78243Z" fill="#80603e"/>
      <path d="M171.87713,305.81035l-37.59679-40.21222-6.8655-2.61543-11.76943-14.53505,6.27582-5.08066c4.55069,9.94772,21.07888,17.859,26.09012,18.96186l-16.66748-26.27294c-6.58907-3.491-12.21536-9.77548-17.33312-17.53549l10.1348-9.48094,7.19833,19.61572,12.562,14.3564,17.43264.1286,46.17384,58.42008Z" fill="#4f2c1e"/>
      <polygon points="223.842 268.915 193.464 228.351 190.588 182.889 180.881 169.543 180.881 148.652 160.029 150.337 161.827 164.07 155.715 154.509 155.715 168.239 151.401 156.808 141.335 162.052 145.649 175.595 136.661 167.367 128.752 185.801 138.459 198.571 140.256 223.402 165.242 248.483 157.219 256.846 185.555 305.81 223.842 268.915" fill="#80603e"/>
      <path d="M258.57858,102.68671c-33.388,0-39.85917,15.02451-59.391,32.43479-.93262,14.25979-.144,31.04113,2.80686,50.98658,9.43622,13.7494,15.03574,32.26129,9.0264,65.68634L223.84243,268.915l51.20085-94.29588C267.27966,150.63575,257.88629,126.64811,258.57858,102.68671Z" fill="#4f2c1e"/>
      <path d="M253.79636,209.3432c-4.94-7.22874-11.52891-15.97408-21.07075-16.52535-5.94066-.34321-16.20015,1.05432-18.26466,7.84119-1.34457,4.42018.51463,11.201,1.80412,15.47945a45.12129,45.12129,0,0,0,6.73588,13.63983c3.79812,5.18507,9.30932,10.666,15.80175,12.17332,1.55322.3606,2.2162-2.03043.65941-2.39186-13.8676-3.21957-21.59836-21.21616-22.61839-33.80327-.38041-4.69416.97475-7.26963,5.46843-8.96889a25.49043,25.49043,0,0,1,9.51455-1.52076c9.02838.23746,15.18858,8.53959,19.82785,15.32828.89528,1.31009,3.04567.0707,2.14181-1.25194Z" fill="#80603e"/>
      <path d="M247.54779,221.4396c-.70174-4.49112-3.21607-8.86258-7.7321-10.26958-3.10757-.96819-7.58122-1.36971-10.21863.94126-3.16091,2.76968-1.33219,7.93486.34128,11.01974a22.3556,22.3556,0,0,0,11.37016,10.32945c1.49927.55454,2.1462-1.84194.6594-2.39186a19.22654,19.22654,0,0,1-8.79933-7.40319c-1.52109-2.25586-4.53962-7.609-1.69061-9.85891,1.852-1.46255,5.29568-.93984,7.37442-.33746,3.84855,1.11524,5.71742,4.87875,6.30355,8.63.2457,1.57248,2.63627.90477,2.39186-.65941Z" fill="#80603e"/>
      <path d="M237.61109,221.84355a16.46066,16.46066,0,0,0,5.26624,4.13608c1.425.70856,2.68292-1.43025,1.25194-2.14182a14.70519,14.70519,0,0,1-4.76422-3.74822c-1.02956-1.22255-2.77647.53977-1.754,1.754Z" fill="#80603e"/>
      <path d="M109.69785,294.86l10.42581-7.90923c10.5629,12.51971,19.46094,20.18861,32.86625,26.50883l-10.21709,8.00417-15.20458-21.21111C120.718,300.09606,114.5925,298.60838,109.69785,294.86Z" fill="#80603e"/>
      <path d="M259.98235,96.94949l4.8705-2.73965,11.87182,23.89585c1.67633-8.97722,4.40758-16.78306,7.21634-24.50467l11.048,2.43525c-8.06674,8.37116-12.01753,28.64236-11.048,49.466l-12.52616.761C273.30731,125.79181,270.18,109.58233,259.98235,96.94949Z" fill="#80603e"/>
      <path d="M383.97392,80c-10.62822,7.49427-21.309,15.69082-25.49071,28.572l28.29188-7.28307,13.16554,18.64319,9.73364,1.80541-12.2547,3.64153-17.08721-14.00589s-20.44858,3.36141-39.1933,15.12636v17.36731l-12.32482,20.20335-14.58966-8.71851,15.96672-26.6112-1.37706-15.96672C344.72995,94.47708,363.68047,85.23506,383.97392,80Z" fill="#80603e"/>
      <path d="M207.33573,138.96891l.70194-.93592c3.26239,14.10475,5.44384,29.06969,10.55144,39.05841l-1.1206,1.46878C212.82392,169.617,209.81655,153.93445,207.33573,138.96891Z" fill="#80603e"/>
      <polygon points="237.745 114.745 240.02 113.127 242.476 163.277 241.038 162.664 237.745 114.745" fill="#80603e"/>
      <polygon points="243.673 142.647 245.265 141.713 246.982 170.675 245.976 170.321 243.673 142.647" fill="#80603e"/>
      <polygon points="152.99 217.389 160.209 217.389 162.366 232.265 156.794 232.265 152.99 217.389" fill="#5b3c28"/>
      <polygon points="167.391 211.694 168.798 211.694 168.798 205.342 167.02 203.365 167.391 211.694" fill="#5b3c28"/>
      <polygon points="169.75 219.003 170.183 208.218 170.828 208.218 170.828 219.003 169.75 219.003" fill="#5b3c28"/>
      <polygon points="178.544 189.522 180.881 189.522 182.967 235.48 181.446 235.48 178.544 189.522" fill="#5b3c28"/>
      <polygon points="184.041 220.433 184.848 220.433 184.848 197.904 183.504 197.904 184.041 220.433" fill="#5b3c28"/>
      <polygon points="191.431 242.064 199.761 250.797 197.599 257.425 196.417 251.541 191.091 242.828 191.431 242.064" fill="#5b3c28"/>
      <polygon points="183.504 246.094 196.805 267.457 196.805 281.832 191.834 268.915 182.967 247.975 183.504 246.094" fill="#5b3c28"/>
      <polygon points="205.078 265.71 205.807 262.62 210.912 273.099 210.106 274.272 205.078 265.71" fill="#5b3c28"/>
      <polygon points="208.969 263.963 210.912 263.963 213.196 269.472 212.39 270.412 208.969 263.963" fill="#5b3c28"/>
      <polygon points="117.866 219.606 118.606 219.003 123.824 225.621 124.759 227.833 117.866 219.606" fill="#80603e"/>
      <path d="M119.54206,250.97651l1.52672-1.23215,5.08784,6.354a.24847.24847,0,0,1-.3574.34246Z" fill="#80603e"/>
      <polygon points="160.762 288.381 160.762 285.543 166.839 292.486 165.994 292.993 160.762 288.381" fill="#80603e"/>
      <polygon points="123.558 223.834 123.996 223.418 127.117 227.415 126.734 227.647 123.558 223.834" fill="#80603e"/>
      <polygon points="270.416 483.014 271.233 483.014 272.049 490.361 270.416 490.361 270.416 483.014" fill="#4f2c1e"/>
      <polygon points="273.682 485.463 274.498 485.463 276.131 495.26 274.498 495.26 273.682 485.463" fill="#4f2c1e"/>
      <polygon points="429.612 512.812 430.429 512.812 431.653 519.751 429.204 520.568 429.612 512.812" fill="#4f2c1e"/>
      <polygon points="432.47 516.078 433.286 516.078 436.143 525.466 434.102 525.874 432.47 516.078" fill="#4f2c1e"/>
      <polygon points="321.441 490.361 322.782 490.361 324.123 508.73 321.441 508.73 321.441 490.361" fill="#4f2c1e"/>
      <polygon points="316.935 494.676 318.401 494.856 317.751 524.39 314.818 524.03 316.935 494.676" fill="#4f2c1e"/>
      <polygon points="382.67 501.383 383.486 501.383 383.486 508.322 381.853 507.914 382.67 501.383" fill="#4f2c1e"/>
      <polygon points="385.119 503.015 385.935 503.015 387.976 506.893 385.935 507.097 385.119 503.015" fill="#4f2c1e"/>
      <polygon points="172.041 262.18 173.674 260.548 181.022 271.161 180.205 271.977 172.041 262.18" fill="#5b3c28"/>
      <polygon points="350.865 146.641 352.406 146.089 353.888 158.582 352.542 158.582 350.865 146.641" fill="#80603e"/>
      <polygon points="383.486 150.874 382.379 150.589 378.172 163.338 379.012 163.579 383.486 150.874" fill="#80603e"/>
      <path d="M192.565,300.25267c-72.4005,3.95461-87.471,64.66831-86.82645,110.05513C106.8171,486.25439,70.71072,508.95293,20,503.01659c21.75038,17.616,70.64381,3.77485,70.64381,3.77485S80.937,519.55405,64.75905,522.43012c36.67006,8.089,57.70142-16.71721,57.70142-16.71721s-7.81079,13.44542-16.178,16.71721c37.71945-8.14045,44.24379-16.01312,60.39776-38.28787l.53927,15.09948C183.13805,478.88565,186.32807,445.46,186.32807,445.46l4.97226,13.99607c4.51849-5.59793,8.04-14.31871,10.53915-26.24192-7.41528-27.45765-2.77682-38.37756-2.77682-38.37756L223.84243,380.064Z" fill="#2c2020"/>
      <path d="M197.24417,430.93174h.47009s.72151,7.26335,2.08424,17.38557l-.72859-.48186C197.81741,439.39207,197.24417,430.93174,197.24417,430.93174Z" fill="#84736a"/>
      <path d="M192.63243,422.19283h.635a196.41022,196.41022,0,0,0,4.082,35.92116h-.81639C191.6346,437.70424,192.63243,422.19283,192.63243,422.19283Z" fill="#84736a"/>
      <path d="M186.91958,406.68142h.50876s.9407,23.67531,7.47182,58.78008h-.81639C185.91987,431.98951,186.91958,406.68142,186.91958,406.68142Z" fill="#84736a"/>
      <path d="M164.07247,360.96358h.91348c2.97334,46.53423,11.13724,83.27178,8.68807,140.41908h-1.06573C173.674,434.43868,164.69373,404.23225,164.07247,360.96358Z" fill="#84736a"/>
      <path d="M219.26226,386.98462c-2.3035,5.22431-2.67931,12.584-1.20919,21.98831-9.61336,2.38913-12.52507,9.351-11.28571,19.14535,7.42388,1.38892,14.19657-3.35254,15.14982-13.13,0,0,17.41073,8.97458,15.597,22.88561-1.12795,8.651-8.48508,11.49016-13.67171,17.0479-7.1005,7.60855-7.60314,22.36986,4.89,23.89933,7.62941.934,13.10116-8.583,13.10116-8.583l-2.0153-4.83673s-8.95082,11.99941-12.5289,2.53313c-3.447-9.11951,20.792-17.24483,20.79164-30.3443-.00045-17.13028-15.3163-23.67238-16.324-31.64025-1.61224-9.61813,4.43367-18.13772,4.43367-18.13772Z" fill="#6d753b"/>
      <path d="M190.63571,197.35691s12.98043,29.93869-4.60594,43.96591-20.93614,25.75147-20.93614,25.75147c9.84,1.88425,14.86466,12.143,15.07765,21.14552-9.68227,3.71781-14.96494-2.8876-19.167-14.0648a19.83224,19.83224,0,0,0-1.77273,18.04266s-11.83574,2.941-12.98042-10.46808c-1.46553-17.16764,15.2834-33.70719,15.2834-33.70719-7.67628-3.95646-12.995-9.30752-10.8868-19.0519,7.45157-3.03259,15.5289,1.46553,18.21445,9.84C177.48211,235.46071,189.79828,226.21771,190.63571,197.35691Z" fill="#6d753b"/>
      <path d="M213.75829,91.54428c10.047,2.527,16.14731,7.38621,15.87233,25.28585-3.47838,18.6294,0,22.47544,9.54437,41.2563,5.29764-5.53839,12.08914-4.00671,19.40359,0-4.63166,5.49895-9.78935,8.89276-16.01687,8.00495,13.85472,39.10111-20.01239,41.87205-29.55677,74.66433,0,0-16.058-19.95636-2.46305-27.86615,16.93356-9.85225,25.51048-21.39329,23.55789-38.57656-1.14322-10.06065-20.78694-25.66122-12.47411-56.86711C212.38919,110.36458,210.99149,100.51533,213.75829,91.54428Z" fill="#6d753b"/>
      <path d="M397.1418,274.27162c-18.452-9.00777-27.53652-24.86422-36.56445-44.25453-12.54457,8.01461-20.75346,6.4012-26.13454,3.7631-.47885-11.46045,7.65251-16.80089,22.99839-17.01324-7.8883-22.70624-22.78757-51.03422-37.93673-79.5626-10.25465.0668-11.74894-9.48845-7.9334-21.68788,5.04677.33006,10.74752,1.75659,13.82687,13.79547a474.48752,474.48752,0,0,1,24.296,43.01348c10.76531,22.06461,30.54652,73.09095,30.54652,73.09095-.15506-15.50584,11.9395-22.01451,18.76207-22.94865,2.91217,11.36434-4.157,20.05939-16.12608,27.60041l14.26538,12.24961Z" fill="#6d753b"/>
      <polygon points="323.073 137.273 324.706 136.456 337.768 156.866 334.503 156.866 323.073 137.273" fill="#515a28"/>
      <path d="M349.19787,188.70529l3.26556-.81639c10.74357,26.19994,19.59336,53.88174,31.02282,68.57676l-2.44917,1.63278C367.32017,239.26785,358.69473,211.96588,349.19787,188.70529Z" fill="#515a28"/>
      <path d="M356.54538,221.36089l1.63278,2.44917a79.906,79.906,0,0,0-17.96058,8.1639l-.81639-2.44917C345.29984,226.25432,351.21054,222.94783,356.54538,221.36089Z" fill="#515a28"/>
      <polygon points="376.139 213.197 373.69 213.197 371.24 217.279 372.873 218.095 376.139 213.197" fill="#5b3c28"/>
      <rect x="381.03708" y="206.66587" width="1.63278" height="4.08195" fill="#5b3c28"/>
      <polygon points="360.627 245.036 363.893 243.403 363.077 240.954 360.627 243.403 360.627 245.036" fill="#5b3c28"/>
      <polygon points="357.362 241.771 358.178 243.403 353.28 250.751 351.647 249.118 357.362 241.771" fill="#5b3c28"/>
      <polygon points="293.914 467.077 295.847 467.077 295.847 440.153 294.881 440.153 293.914 467.077" fill="#5b3c28"/>
      <polygon points="298.212 470.75 296.79 470.75 297.504 457.688 299.335 457.688 298.212 470.75" fill="#5b3c28"/>
      <polygon points="291.567 514.848 293.362 514.848 294.881 494.966 293.224 494.966 291.567 514.848" fill="#5b3c28"/>
      <polygon points="295.847 515.953 299.437 515.953 297.504 503.389 295.847 503.389 295.847 515.953" fill="#5b3c28"/>
      <polygon points="286.459 532.245 288.668 532.245 288.668 521.89 285.768 521.89 286.459 532.245" fill="#5b3c28"/>
      <polygon points="277.466 461.628 278.423 461.759 281.783 455.53 281.052 453.618 277.466 461.628" fill="#5b3c28"/>
      <polygon points="312.277 541.357 313.796 539.424 319.871 544.947 318.49 545.499 312.277 541.357" fill="#5b3c28"/>
      <polygon points="323.185 544.809 322.356 542.462 323.737 542.462 324.289 544.809 323.185 544.809" fill="#5b3c28"/>
      <polygon points="225.228 507.392 226.383 507.392 227.05 487.278 225.63 488.379 225.228 507.392" fill="#5b3c28"/>
      <polygon points="227.844 502.187 228.84 502.466 228.069 511.28 227.578 511.405 227.844 502.187" fill="#5b3c28"/>
      <path d="M228.14788,541.83654s.36436,5.36117,1.4148,7.67214a8.13644,8.13644,0,0,0,3.47872,3.48927l.7113-.36332s-2.72454-2.07693-3.45985-3.86268a47.15451,47.15451,0,0,1-1.48839-6.99145Z" fill="#5b3c28"/>
      <polygon points="215.562 523.637 214.955 522.81 205.687 530.57 206.738 530.57 215.562 523.637" fill="#5b3c28"/>
      <path d="M381.85347,244.50518l1.10978,1.7556A67.00029,67.00029,0,0,0,396.59453,229.143l-1.76782-1.585Z" fill="#515a28"/>
      <polygon points="212.346 523.755 211.778 523.435 207.712 526.88 208.049 527.093 212.346 523.755" fill="#5b3c28"/>
      <polygon points="264.698 402.588 264.698 401.187 280.621 401.887 280.621 403.375 264.698 402.588" fill="#5b3c28"/>
      <polygon points="268.892 405.081 268.892 404.171 280.834 404.626 280.834 405.593 268.892 405.081" fill="#5b3c28"/>
      <polygon points="144.24 197.904 145.439 196.643 135.285 181.255 134.339 182.705 144.24 197.904" fill="#5b3c28"/>
      <polygon points="137.997 181.255 139.637 179.678 148.213 191.976 147.078 194.498 137.997 181.255" fill="#5b3c28"/>
      <polygon points="165.658 149.882 167.6 149.725 168.483 166.379 167.49 166.379 165.658 149.882" fill="#5b3c28"/>
      <polygon points="169.971 156.975 171.799 157.543 171.252 167.318 170.286 166.939 169.971 156.975" fill="#5b3c28"/>
      <path d="M163.95938,245.72443l1.22612-1.07286s-7.27565-10.86635-8.58287-10.49869C154.15038,234.84257,163.95938,245.72443,163.95938,245.72443Z" fill="#515a28"/>
      <path d="M423.68245,182.88871s11.29408,8.82251,3.55724,14.80567c-9.63234,7.449-22.09018-4.752-22.09018-4.752Z" fill="#3a2c2d"/>
      <path d="M296.71055,158.07821l-15.44732-38.55L279.076,138.93994l-10.93615-13.9436s-1.367,17.36115-1.367,17.08774-13.39679-12.85-13.39679-12.85l17.908,45.385Z" fill="#eecf54"/>
      <path d="M270.11641,170.19231l-11.53783,19.32937,2.469,19.36443,40.91063,17.3316,14.71171-12.6964s-.40306-16.52548,11.28569-21.76527c16.69833-7.48545,61.06367,6.04591,78.99986,1.00765s16.727-9.875,16.727-9.875c-44.33666-27.40811-108.57424-33.62553-143.64473-24.366,0,0-5.29141-2.37554-8.71213-.82529C267.39312,159.47961,270.11641,170.19231,270.11641,170.19231Z" fill="#997d6d"/>
      <path d="M307.562,257.28205c22.87349,0,21.22614-21.22614,21.22614-21.22614l-11.42946-25.30809c-21.935,13.84268-41.057,2.53315-58.78008-21.22614-12.32513,18.85022-20.78625,49.28675-22.52621,55.86506C253.68024,244.21981,283.07028,257.28205,307.562,257.28205Z" fill="#4a3c3b"/>
      <path d="M453.2876,269.1197c-7.233,18.56862-5.31253,38.32153-16.736,52.65716L280.62111,351.98329l24.4917,20.40975-18.97076,25.46672c-36.32936-11.02127-104.71232,2.69873-115.3254-50.36662-5.87181-29.35906,20.364-55.85609,43.921-80.90581,15.04425-15.99751,26.87569-29.11,37.718-28.49045,28.57365,1.63278,33.472,18.777,55.10632,19.18517,20.98559.39595,21.22614-21.22614,21.22614-21.22614s12.654,34.69657,46.94243,36.32935c38.33557,1.82551,46.11227-20.84627,46.11227-20.84627Z" fill="#997d6d"/>
      <path d="M436.5516,236.05591s-7.06918,8.65238-11.16452,11.20645c-6.18745,3.85882-4.34689,13.28525-4.34689,13.28525L431.28,257.47092l-.62919,8.53837,7.81939-3.05584-.35952,4.58375,5.93194-2.51656-.9599,5.32365c9.38849,2.85736,12.654-2.041,19.59336-14.695-3.1954-1.56083-5.48761-4.12438-5.71473-8.98029-4.78622-1.74056-4.17368-5.92511-2.44917-10.61307C446.28953,243.98927,440.28834,243.46117,436.5516,236.05591Z" fill="#473d3e"/>
      <path d="M260.5125,186.10809c3.685,7.81935,11.14091,16.0183,17.59817,20.3842,13.31973,9.00578,30.32264,8.16552,39.20766.66026l.04033,3.59527c-20.37978,14.01111-45.72428,2.17879-58.78008-21.22614Z" fill="#fffffd"/>
      <path d="M283.93362,165.426c-.25137,1.63392-9.63724,3.96425-11.07257,3.07571-1.80156-1.11525-2.32387-8.06521.82019-8.95374S284.207,163.64891,283.93362,165.426Z" fill="#e28380"/>
      <path d="M302.95693,167.367,316.341,178.33756s-7.11561,4.11682-12.59263-1.69516C300.57416,173.27407,302.95693,167.367,302.95693,167.367Z" fill="#3a2c2d"/>
      <ellipse cx="312.49187" cy="169.54314" rx="9.53494" ry="9.36707" fill="#fffdf6"/>
      <ellipse cx="315.55985" cy="172.32542" rx="3.9446" ry="4.08652" fill="#2d272b"/>
      <path d="M297.74417,148.65178c10.94273,9.41449,21.57682,11.24621,27.65379,6.38464,0,0-.52089,8.24731-11.21544,6.85736C302.34186,160.35488,297.74417,148.65178,297.74417,148.65178Z" fill="#3a2c2d"/>
      <path d="M300.91379,179.46947c-2.6071-1.35055-4.19886-4.29106-4.45217-7.7569C294.47786,176.01091,297.40326,179.66767,300.91379,179.46947Z" fill="#3a2c2d"/>
      <path d="M423.63606,297.50161c-5.24914-1.34058-17.43918-10.37548-22.0234-22.86609-3.58287-9.7612-1.94052-19.58459,4.8808-29.19711l.05421-.07852c15.30831-22.96222,15.3402-38.3938,14.14691-45.26625a16.41836,16.41836,0,0,1-7.11307-1.52241c.0169.04515.02357.09168.04261.13643.01515.03667,1.54827,3.73953.81639,10.79126-.68724,6.61244-3.55337,17.56554-13.30062,32.19917-8.00445,11.2999-9.96092,23.46683-5.65892,35.18808,5.2587,14.32749,19.0297,25.02547,26.53825,26.94326a3.26556,3.26556,0,1,0,1.61684-6.32782Z" fill="#e28380"/>
      <path d="M317.50924,393.6411c-6.70153,0-12.45518,2.99539-12.32757,10.42019-3.68952-.04961-6.71658.72916-8.80184,3.00451-6.88269-2.04068-12.22127-8.29251-14.682-17.50849l8.9005.83771-2.19895-9.94762h10.05233l.31414-6.178,6.38742-.62826C312.16882,380.12667,316.53091,386.77808,317.50924,393.6411Z" fill="#473d3e"/>
      <path d="M510.46215,415.38589l-23.45806,1.88742c-4.05683-55.0116-14.73169-102.99332-67.67785-97.87671C407.0769,306.19439,389.8199,294.66,370.52272,283.80506l-8.35864,13.212-9.16751-13.212-3.77486,12.40311-16.44761-4.85339,7.01047,13.212s-12.94239-1.07855-22.91881-9.70679c-23.85465,14.89852-41.97346,31.10513-36.24465,57.12328l24.53216,21.65785-.14474,70.97392c7.81937,28.85069,74.14244,39.79686,104.88059-.9177,11.3765,1.15737,17.6785,9.90426,19.14391,25.88471,33.97374,13.48166,46.64649,25.61514,47.18574,42.33239h53.92658c-1.37282-3.34341-2.08338-6.29772.53925-9.43717-1.75073-1.60293-1.13141-3.53015,0-5.52747-16.98683-4.8534-32.08875,2.24806-36.67-2.02224-7.25767-6.765-15.63873-52.30876-15.63873-52.30876,10.95495-9.16286,22.60714-15.7758,36.40041-14.56018l0-8.89789-3.50523-.53927Z" fill="#473d3e"/>
      <path d="M309.73615,379.22264s-11.21764-13.21758-22.91648-18.98794c-16.15066-7.96619-24.98988-20.84309-24.226-30.00967,0,0,2.74948,14.007,26.32071,27.42949C306.17038,367.48086,309.73615,379.22264,309.73615,379.22264Z" fill="#171110"/>
      <path d="M328.96514,360.55711s26.79835-5.69756,56.62964-25.909c23.19472-15.715,56.62965-12.83112,56.62965-12.83112s-27.883-10.8571-59.4673,9.12984C359.4394,345.70259,328.96514,360.55711,328.96514,360.55711Z" fill="#171110"/>
      <path d="M468.38017,380.05053s-13.24062,1.78876-33.80506,32.0778c-29.00014,42.71383-41.86747,47.3277-41.86747,47.3277s25.11553-28.47993,38.28956-49.59065C454.06854,372.89472,468.38017,380.05053,468.38017,380.05053Z" fill="#171110"/>
      <path d="M459.00978,384.45608s15.02777,4.18447,15.93171,17.74347c1.02073,15.31092,2.15159,30.38516,3.80279,44.94559-8.521-23.20909-2.68571-45.30668-10.33247-53.20153a29.23259,29.23259,0,0,0-12.513-7.21135Z" fill="#171110"/>
      <path d="M311.374,379.13264l6.20633,12.78879a20.79063,20.79063,0,0,1,13.54105,2.91511A31.5046,31.5046,0,0,0,311.374,379.13264Z" fill="#fffffd"/>
      <path d="M306.74559,403.41586s.74292-7.084,8.91016-7.084c1.85349,8.98777-1.80089,27.95194-1.80089,27.95194S312.46032,409.947,306.74559,403.41586Z" fill="#fffffd"/>
      <path d="M299.43705,414.58317l1.08347,2.79239c-6.60622,7.86526-12.2999,5.02038-16.73456-6.03834l.41836-1.79844C288.93387,418.70748,294.55958,422.57776,299.43705,414.58317Z" fill="#4f2c1e"/>
      <path d="M306.74559,403.41586c-6.78161-.64852-11.566,2.0787-10.46179,7.47617a53.763,53.763,0,0,1,5.30277,34.69274C311.635,434.79945,313.199,419.23434,306.74559,403.41586Z" fill="#fffffd"/>
      <path d="M530.6846,496.94982a15.85282,15.85282,0,0,1,13.07719,7.54971c-4.06664-2.30806-9.88164-2.92324-13.07719-2.02224C528.829,500.70863,528.7242,498.32505,530.6846,496.94982Z" fill="#fffffd"/>
      <path d="M530.14535,511.91446c-2.43608-4.71858-1.30825-7.78979.53925-9.43717,6.49838.66457,12.34533,3.38727,16.40508,9.43717C539.35684,508.13608,534.04052,509.34433,530.14535,511.91446Z" fill="#fffffd"/>
      <path d="M475.87675,226.21772s-30.04153-4.12744-39.32515,9.83819c2.22123,7.327,10.12689,8.27564,17.96058,0C458.16806,229.15267,475.87675,226.21772,475.87675,226.21772Z" fill="#fffffd"/>
      <path d="M454.51218,236.05591c-2.66866,5.08649-1.91552,9.46022,2.44917,10.61307,12.54365-5.27045,23.83476-8.2526,37.889-8.55655C494.85034,238.11243,482.51751,232.42035,454.51218,236.05591Z" fill="#fffffd"/>
      <path d="M456.96135,246.669c-.18008,4.26756,2.04506,7.93511,5.71473,8.98029,8.44753-6.52918,17.62785-11.84476,33.33377-13.737A80.03425,80.03425,0,0,0,456.96135,246.669Z" fill="#fffffd"/>
      <path d="M181.466,232.133c-19.54352,21.81116-32.765,32.22832-29.51183,54.47373.36846,2.51949,2.49434,2.43967,2.24609-.10975-2.03128-20.8606,5.244-26.411,28.016-53.375Z" fill="#515a28"/>
      <polygon points="181.304 236.056 182.525 237.277 173.762 248.555 171.822 248.196 181.304 236.056" fill="#515a28"/>
      <polygon points="188.462 226.782 189.587 227.905 191.309 220.492 190.16 220.433 188.462 226.782" fill="#515a28"/>
      <path d="M227.73236,413.57488l.783-.783c-4.05-5.63727-5.02722-13.705-4.04331-19.67183l-1.90834-.44048S220.033,406.95988,227.73236,413.57488Z" fill="#515a28"/>
      <path d="M234.50463,419.40806l1.87587-.21975a58.21905,58.21905,0,0,1-5.2945-8.05348l-1.44381.34656A57.80862,57.80862,0,0,0,234.50463,419.40806Z" fill="#515a28"/>
      <polygon points="240.275 432.277 242.705 432.277 241.918 428.433 239.501 428.103 240.275 432.277" fill="#515a28"/>
      <path d="M210.33715,423.20684l2.34324.646c2.414-6.8967,5.92939-9.10631,5.92939-9.10631l-.646-2.34323S211.94081,417.58639,210.33715,423.20684Z" fill="#515a28"/>
      <path d="M171.22485,391.9864h.81639s8.98029,54.69813,6.53112,102.86514H177.756C178.57236,453.21565,171.22485,391.9864,171.22485,391.9864Z" fill="#84736a"/>
      <path d="M177.756,404.23225h1.36064c1.90492,19.59336,5.98687,40.8195,5.17048,77.55705h-1.22458C181.83792,443.419,180.192,429.46923,177.756,404.23225Z" fill="#84736a"/>
      <path d="M162.24456,437.70424h.81639c1.63278,27.75726-4.08195,51.43257-13.06224,72.65871h-.81639A196.4772,196.4772,0,0,0,162.24456,437.70424Z" fill="#84736a"/>
      <path d="M154.89705,399.33391h.81639c6.53112,40.00311,4.84577,83.34169-10.61307,111.84543H144.284C158.979,481.7893,160.61178,440.15341,154.89705,399.33391Z" fill="#84736a"/>
      <g>
        <path d="M140.202,407.49781h.81639c8.98029,52.249-4.54027,89.88382-22.85892,117.56016h-1.63278C136.93647,492.40237,146.73315,454.84843,140.202,407.49781Z" fill="#84736a"/>
        <path d="M146.42638,424.8652l.81608.02233c5.479,38.53464-4.39122,70.93235-20.61148,96.62273l-.81608-.02233C142.71774,491.25821,149.99873,458.93038,146.42638,424.8652Z" fill="#84736a"/>
      </g>
      <path d="M150.8929,431.39632l.68188.01976c4.578,34.08994-3.6691,62.75081-17.222,85.478l-.68188-.01976C147.79414,490.13137,153.87779,461.53233,150.8929,431.39632Z" fill="#84736a"/>
      <path d="M124.69062,424.642h.81639c-1.63278,44.08506-23.67531,80.00622-48.9834,93.88485h-.81639S119.79228,492.40237,124.69062,424.642Z" fill="#84736a"/>
      <g>
        <path d="M128.52248,429.20989l.7905.204c-2.92708,47.292-24.39069,76.36271-48.285,95.64859l-1.581-.40791C106.4737,501.598,124.31351,471.66675,128.52248,429.20989Z" fill="#84736a"/>
        <path d="M130.68614,445.73886l.78524.22313c-3.26661,34.593-20.03067,60.06017-41.45136,78.158l-.78524-.22313C112.32618,502.05577,126.56753,476.002,130.68614,445.73886Z" fill="#84736a"/>
      </g>
      <path d="M112.55574,433.62229c-8.27487,41.63589-36.5077,69.39315-65.56484,79.18983H45.50079C74.88235,498.3062,96.117,481.7893,111.81068,433.62229Z" fill="#84736a"/>
      <path d="M122.24145,416.4781c-1.49011,43.26867-34.05852,87.79138-63.11567,100.416H57.63567c29.38156-18.6932,58.64534-51.43257,63.86072-100.416Z" fill="#84736a"/>
      <path d="M510.73212,415.31082c5.6129.22876,12.24208,1.76946,17.25516,7.54971-5.36586-2.30806-13.03868-2.92324-17.25516-2.02224C508.28366,419.06963,508.1454,416.68605,510.73212,415.31082Z" fill="#fffffd"/>
      <path d="M514.925,427.90756c-2.43609-3.63312-2.41574-6.07909-.56824-7.34751,6.49838.51169,11.9977,2.44917,16.07965,6.53112A45.45954,45.45954,0,0,0,514.925,427.90756Z" fill="#fffffd"/>
      <polygon points="198.166 484.238 199.799 484.238 201.431 496.484 198.166 496.484 198.166 484.238" fill="#4f2c1e"/>
      <polygon points="196.533 485.055 194.9 485.055 193.267 493.219 194.9 493.219 196.533 485.055" fill="#4f2c1e"/>
      <path d="M418.61967,503.09393c-.3822,2.48582-1.86444,4.62016-4.81733,4.8991-.68278.0645-2.90768-.21092-3.26228-.72321-.67218-.9711.17856-4.03837.87169-4.83728a6.74512,6.74512,0,0,1,1.57765-.99082,30.48989,30.48989,0,0,1,9.27646-3.45347c3.15041-.62911,10.34657-.71209,7.49428,4.52679-1.87585,3.44541-6.404,5.9924-9.67679,7.888a32.2468,32.2468,0,0,1-13.65613,4.50106c-3.72045.30571-11.09985.34553-9.6385-5.03441,2.72887-10.04636,14.08344-15.50716,23.50615-17.08715,1.57081-.26339.9046-2.65411-.65941-2.39186a36.92955,36.92955,0,0,0-17.42393,7.60811c-3.65727,3.00082-8.5221,8.58468-8.34872,13.73293.32619,9.68641,19.18268,4.8822,23.75479,2.7647,4.2695-1.97735,21.43678-11.40751,13.40637-17.95244-5.30523-4.32386-17.1774.50319-21.61042,4.31894-3.40951,2.93476-3.71163,7.20314.85153,8.97185a7.76068,7.76068,0,0,0,10.74646-6.08141c.2401-1.56162-2.14966-2.2347-2.39187-.65941Z" fill="#4f2c1e"/>
      <path d="M222.65742,111.14824l.81639-.81639a62.58182,62.58182,0,0,1-6.53112-13.87863l-1.63278.81639A56.43925,56.43925,0,0,0,222.65742,111.14824Z" fill="#515a28"/>
      <path d="M234.16426,164.15175l1.5554-.75455A58.88307,58.88307,0,0,1,225.10659,127.476l-1.63278-.81639s-1.2481,14.09219,4.082,26.12448A114.38554,114.38554,0,0,0,234.16426,164.15175Z" fill="#515a28"/>
      <path d="M237.75514,180.54139h1.65719c5.28762,17.14419-15.74327,26.94087-26.515,47.35062h-2.48578C218.6975,209.115,242.25078,196.86919,237.75514,180.54139Z" fill="#515a28"/>
      <polygon points="240.618 161.764 241.371 162.9 252.047 160.132 252.047 158.499 240.618 161.764" fill="#515a28"/>
      <path d="M214.68324,151.21476l.70194-.93593c5.37614,16.80149,6.80819,21.957,8.91867,32.52731l-1.12061,1.46877C220.40946,170.37047,218.06049,165.1314,214.68324,151.21476Z" fill="#80603e"/>
      <path d="M241.43439,440.15341l1.63278.81639c-2.60111,5.72245-10.78117,10.788-15.51141,17.14419a16.78876,16.78876,0,0,0-3.26556,12.24585l-1.63278.81639c-1.36821-5.47286.17337-10.22915,3.67552-14.56909C231.18949,450.58881,239.06271,445.37111,241.43439,440.15341Z" fill="#515a28"/>
      <polygon points="287.696 99.719 288.785 99.719 285.792 108.699 284.703 108.699 287.696 99.719" fill="#4f2c1e"/>
      <polygon points="355.729 95.637 355.729 97.27 341.034 107.883 339.401 106.25 355.729 95.637" fill="#4f2c1e"/>
      <polygon points="354.913 102.984 354.913 104.617 345.932 108.699 345.116 107.066 354.913 102.984" fill="#4f2c1e"/>
      <polygon points="335.319 125.843 337.768 125.843 337.768 139.722 335.319 138.905 335.319 125.843" fill="#4f2c1e"/>
      <path d="M320.62422,134.82355l1.16784-.86471c-2.54035-3.72812-4.52936-8.29109-6.97853-13.18943l-1.53682.94654A52.38644,52.38644,0,0,0,320.62422,134.82355Z" fill="#515a28"/>
      <polygon points="349.379 196.634 349.915 197.852 338.399 210.966 337.583 210.15 349.379 196.634" fill="#80603e"/>
      <polygon points="350.646 199.527 351.118 200.623 345.116 207.482 344.3 206.666 350.646 199.527" fill="#80603e"/>
      <polygon points="395.937 162.58 396.453 163.298 391.864 167.747 391.213 167.514 395.937 162.58" fill="#80603e"/>
      <polygon points="277.423 449.587 275.491 449.775 274.906 453.039 276.113 452.921 277.423 449.587" fill="#4f2c1e"/>
    </g>
  </g>
</svg>
