<svg xmlns="http://www.w3.org/2000/svg" width="600" height="600" viewBox="0 0 600 600">
  <title>character-wendel-and-sally-full</title>
  <g id="Background">
    <path d="M440,120C418.66905-40.84958,123.95625-16.86628,49.94858,65.385-3.47514,124.75944,43.95531,280,85.1448,320-59.01841,480-18.56769,640,194.74183,560c43.21082,40,257.5083,67.69922,353.56027-4.27686,55.8782-41.87207-7.68622-146.62248-7.68622-146.62248C600,318.51579,540,100,440,120Z" fill="#89b9da"/>
  </g>
  <g id="Olivia">
    <g>
      <path d="M509.65253,260.04751c6.16208-.15414,12.29954-.00785,18.30858,1.57822a26.341,26.341,0,0,1,5.43934,1.87767,3.06274,3.06274,0,0,1,.65355,1.31039c1.41714,5.84486,3.57715,11.46454,5.26445,17.22723a60.90841,60.90841,0,0,1,2.454,11.6898,2.81185,2.81185,0,0,1-.07513,1.43132,68.54991,68.54991,0,0,0,1.04187-6.8825c.62509-5.86271.07217-11.72112.00324-17.58152-.00819-.69316-.1846-1.45269.42511-2.0309a79.78369,79.78369,0,0,1,13.71093,10.487c.41666.62409-.12867.9978-.41078,1.39707a16.6398,16.6398,0,0,0-2.69518,5.52672,1.966,1.966,0,0,0,.32759,2.13471c.71647.65805,1.53209.37453,2.2813.05842a4.36528,4.36528,0,0,0,2.61556-3.92449c.09533-.85366-.18044-1.68944-.09468-2.54133.093-.19916.2145-.34962.46862-.272A173.65222,173.65222,0,0,0,599.331,311.48066c-.13258.86353-.89215.7568-1.45412.88512a41.44648,41.44648,0,0,1-6.29227.78649,97.3692,97.3692,0,0,1-13.34425-.07572c-9.79766-.64369-19.51366-2.00251-29.24358-3.26222-5.12694-.66378-10.27533-1.18226-15.44419-1.509a110.43168,110.43168,0,0,0-18.46808.09583,78.6962,78.6962,0,0,0-24.8403,6.527,7.54945,7.54945,0,0,1-2.64993.94421c-.6102-.2521-.505-.79635-.46571-1.2641a17.98531,17.98531,0,0,0-15.43035-19.12419,17.7985,17.7985,0,0,0-18.17409,9.0339,2.92625,2.92625,0,0,1-.74749,1.10139,15.33545,15.33545,0,0,0-4.17082,8.27787c-1.80508,8.78828,4.25569,17.40825,12.4295,19.78427.37708.10962.82563.09433,1.02006.5455-3.25666,2.60027-6.24193,5.5049-9.349,8.27359q-3.67175,3.27189-7.30467,6.58576A209.55225,209.55225,0,0,1,421.3201,368.587c-3.548,2.38385-7.117,4.73673-10.68429,7.092a4.87026,4.87026,0,0,0-1.64079,1.56629,117.84193,117.84193,0,0,1-13.83657,18.71346,116.45333,116.45333,0,0,1-18.29791,17.266A243.51079,243.51079,0,0,1,356.22047,426.77c-3.14211,1.8399-6.23174,3.76878-9.52589,5.33936-.24811.11827-.5153.1511-.757.2686-5.03127,2.49548-10.03639,5.04507-15.09965,7.47444-8.83194,4.23757-17.65348,8.51435-27.09067,11.31449a52.36586,52.36586,0,0,1-15.52971,2.48823,19.14451,19.14451,0,0,1-4.70605-.5664,96.8667,96.8667,0,0,0,8.14687-9.86029,11.57575,11.57575,0,0,1,1.58141-2.48989c6.30217-9.183,11.81648-18.84585,17.45495-28.43306.52285-.88907,1.07436-1.76128,1.57193-2.66563a114.755,114.755,0,0,1,11.52339-16.22546,47.48815,47.48815,0,0,1,12.976-10.39021c2.04788-1.10453,4.369-.96347,6.57382-1.30383,6.62568-1.02278,13.29-1.9034,19.65808-4.07268a148.67824,148.67824,0,0,0,14.92238-5.526,40.78318,40.78318,0,0,0,6.28643-3.61092c-1.863.77125-3.74329,1.55674-5.66873,2.2269a1.965,1.965,0,0,1-1.5722.09791,15.30869,15.30869,0,0,1-2.96827-4.4526,64.87034,64.87034,0,0,1-7.595-24.22688,13.3223,13.3223,0,0,1-.17671-3.459,37.7,37.7,0,0,0,.0237,15.37914,74.40231,74.40231,0,0,0,5.70839,17.189,2.56558,2.56558,0,0,1,.39725,1.403c-.26323.63106-.89238.69678-1.424.89959-3.37731,1.2886-6.95117,1.80035-10.4526,2.59435-1.5338.34781-3.04793.7771-4.59071,1.08193a2.69021,2.69021,0,0,1-1.84515.04333,24.82941,24.82941,0,0,1-3.76014-8.12987,72.92215,72.92215,0,0,1-2.5115-13.3283c-.31641-2.56217-.6005-5.12853-.69587-7.284-.02961,1.631-.614,3.61282-.81192,5.65589a48.54089,48.54089,0,0,0,1.965,19.50678c.42682,1.3538,1.17435,2.62421,1.17266,4.10279-.42507.82628-1.228.7478-1.97858.858-2.57869.37859-5.19563.13082-7.77669.52341a40.35919,40.35919,0,0,1-4.07763.82658c-1.05327-.50939-1.43246-1.56542-1.96145-2.47856a35.02212,35.02212,0,0,1-3.2625-7.79354,61.712,61.712,0,0,1-2.74625-16.24,15.21585,15.21585,0,0,0-.16017-2.413,14.66247,14.66247,0,0,1,.15786,2.41111,50.66079,50.66079,0,0,1-.79344,8.54624,28.236,28.236,0,0,0,2.82042,15.6428c.58161,1.25989,1.18693,2.50883,1.65284,3.81708.0751.6944-.39765,1.05741-.88145,1.3969-6.92416,4.85863-11.95777,11.34064-16.11941,18.57974a66.35074,66.35074,0,0,0-4.02346,8.21926,2.13468,2.13468,0,0,1-.56676.90529,15.29267,15.29267,0,0,1-4.17739,1.02138c-12.91557,2.47135-25.87571,4.69066-38.90157,6.49967-7.53288,1.04615-15.106,1.7794-22.66818,2.59356-14.05408,1.51308-28.10589,3.02-42.01183,5.66405-9.24388,1.75761-18.5912,2.93438-27.83813,4.6986a212.967,212.967,0,0,0-25.90534,7.09036,300.93,300.93,0,0,0-31.82316,12.73c-1.88789.862-3.51956,2.17666-5.41417,3.02532a29.42988,29.42988,0,0,1-4.37753,1.749c-9.25776,3.49826-16.59548,9.60021-23.11382,16.82943-5.90006,6.5435-11.27128,13.53587-17.24387,20.02088a95.00487,95.00487,0,0,1-42.97991,27.02737c-.42729.13-.85554.25683-1.46088.43839a23.21687,23.21687,0,0,1,.61711-5.5988,140.50063,140.50063,0,0,1,30.38-63.97811c.67638-.81795.73693-1.21673-.1046-1.99067-11.0867-10.19663-20.37218-21.90211-28.71812-34.37A272.68925,272.68925,0,0,1,6.49081,384.827a93.4389,93.4389,0,0,1-6.2397-15.44292c-.44038-1.49268-.43137-1.48217,1.104-1.22376,18.31,3.08178,34.79349,10.42611,49.90939,21.05049,8.16808,5.741,16.472,11.2822,25.46451,15.71233,7.764,3.82493,15.82953,6.697,24.50783,7.46449a50.873,50.873,0,0,0,15.96527-1.02028c.989-.20059.89382.58829.89021,1.0948-.0153,2.15311.28785,4.28525.3455,6.43634a30.51827,30.51827,0,0,0,2.17791,11.01564,10.50021,10.50021,0,0,0,1.96394,3.15122,51.33463,51.33463,0,0,1,1.8515-22.22165,2.25684,2.25684,0,0,1,.66955-1.28837q2.94384-.806,5.88725-1.61355c.41481-.1143.89931-.10376,1.12776-.58089,4.02167-1.31605,8.14826-2.26665,12.20071-3.47555,6.03793-1.80113,12.11616-3.46982,18.08978-5.48291.61175-.20618,1.23631-.6262,1.928-.19315a8.70573,8.70573,0,0,1,.31316,2.92,48.90258,48.90258,0,0,0,3.53678,17.54691c.227.53686.31814,1.11233.54867,1.64514a15.72153,15.72153,0,0,1-.7164-4.24819c-.38716-5.82941-.29181-11.63535,1.40828-17.29667.32626-1.08648.44679-2.32882,1.62208-2.97481,8.82253-3.02088,17.5168-6.38192,26.18974-9.79959.458-.18046.92311-.34286,1.38492-.51365.42355.46978.25346,1.01368.18164,1.538a71.46724,71.46724,0,0,0-.85459,8.82316,58.43671,58.43671,0,0,0,1.42553,13.20322,23.022,23.022,0,0,1,.63956,4.167c-.60247-6.0743.30256-12.18984,1.44367-18.28257a87.06531,87.06531,0,0,1,2.85686-10.50674,3.647,3.647,0,0,1,1.12035-1.80448l9.91741-4.088c.56586-.85117,1.5579-1.01538,2.39019-1.3819,3.43678-1.51347,6.82561-3.12664,10.22441-4.72014.51615-.242,1.05412-.80124,1.69661-.19808a1.58031,1.58031,0,0,1,.2046.90695,111.89982,111.89982,0,0,0,.23774,11.56376,69.99565,69.99565,0,0,0,2.70191,16.023c.2.63634.582,1.2737.30023,1.98021a6.43314,6.43314,0,0,0-.027-2.05459c.14139-5.606.55683-11.18845,1.20763-16.75993.61568-5.27073,1.74395-10.44211,2.81854-15.62459-.00773-.48048.31918-.69828.694-.89431,10.01009-5.2344,19.7144-10.99318,29.31353-16.93423.48731-.30158,1.05951-.99159,1.73075-.19655.01,2.82576-.2556,5.6407-.41986,8.45406a85.65629,85.65629,0,0,0,1.67119,24.07351A33.00877,33.00877,0,0,0,274.5293,393.843c-.43419-3.15719-.74736-6.456-.87875-9.77641a126.36852,126.36852,0,0,1,2.59407-29.56046c.61687-3.12494,1.13045-6.26786,1.92458-9.35714a5.33088,5.33088,0,0,1,1.03389-2.16245c9.09385-5.89874,18.05628-11.99253,27.02663-18.07454.94876.16776.8253.92413.83441,1.56937a96.25984,96.25984,0,0,0,.91624,11.92449c.945,6.78553,2.52689,13.39885,5.75661,19.52093.18529.35125.23226.75058.31363.89291a45.88222,45.88222,0,0,1-.59462-8.67125,143.70983,143.70983,0,0,1,.2526-15.72958,109.89881,109.89881,0,0,1,2.1267-14.76752,5.01127,5.01127,0,0,1,.65952-1.45968c4.57424-3.02343,9.16961-6.01571,13.717-9.07871,4.921-3.31465,9.79711-6.69529,14.69277-10.04715.60581.785.38355,1.71462.44046,2.58953.26438,4.06518.36958,8.14012.89056,12.18857a73.3694,73.3694,0,0,0,6.61891,22.58667,182.37066,182.37066,0,0,1-3.24864-22.827,111.62356,111.62356,0,0,1-.49552-11.40608,26.71092,26.71092,0,0,1,.97589-5.95847,2.03388,2.03388,0,0,1,.50916-.9348,15.64564,15.64564,0,0,1,3.55547-2.62012c8.21223-5.50439,16.52009-10.85344,25.48741-15.09343.48149-.22767.99451-.38933,1.49283-.58174.37787.52793.077,1.042-.05648,1.5435a87.47986,87.47986,0,0,0-2.72954,27.48005,93.91294,93.91294,0,0,0,4.41529,23.49205,127.50445,127.50445,0,0,0,7.83268,19.03759c.28069.55083.47136,1.13876.67972,1.54932a67.37218,67.37218,0,0,1-1.26972-7.10113c-.94433-5.71087-1.7559-11.44213-2.37352-17.19686-.27729-2.58371-.464-5.18265-.578-7.77856-.58158-13.247.35487-26.28759,5.55878-38.71213.84976-2.02893,1.73741-4.04367,2.783-5.98285a7.0594,7.0594,0,0,1,1.79211-2.49465c5.87037-1.657,11.78328-3.144,17.75149-4.41007.87019-.18853.73676.3941.63436.87118-.15947.74328-.4599,1.45024-.62449,2.19505-.14125.63918-.21457,1.29.41679,1.69821a1.42209,1.42209,0,0,0,1.63188-.26479c1.79653-1.23164,3.16561-2.69568,2.50335-5.13177a.55551.55551,0,0,1,.084-.38551l7.475-1.33466c.25375.57778-.06863,1.05534-.3099,1.51945-3.68342,7.08515-5.27271,14.7482-6.28663,22.56887a130.93,130.93,0,0,0-1.17577,17.6922c.06351,9.58013.84319,19.08843,4.29187,28.176.50988,1.34366,1.24816,2.58741,1.69063,3.95493.08414.38181.53005.65486.45508.87935.00294-.25115-.36192-.6054-.48327-1.03343a34.86311,34.86311,0,0,1-2.03193-9.84231,77.825,77.825,0,0,1,.0198-13.96861c1.00191-11.48679,2.04824-22.97237,5.91965-33.96328a57.18013,57.18013,0,0,1,8.17843-15.851,4.64549,4.64549,0,0,1,1.66611-1.529l.01083-.00476c.437-.258.95965.03332,1.39786-.21651,7.33241-.5495,14.66976-1.01635,22.01781-1.30208,1.38918-.054,2.77919-.08671,4.16883-.12924a5.96608,5.96608,0,0,1,4.96624,1.31572c3.46463,2.63974,6.23438,5.94094,9.19285,9.05839a61.334,61.334,0,0,1,9.35047,12.78517c2.29987,4.20236,4.64441,8.40376,5.88815,13.08532a6.0554,6.0554,0,0,1,.2596.86507,12.18851,12.18851,0,0,0-.357-1.26147c-1.31874-4.67857-1.64234-9.55448-2.88044-14.24739a48.042,48.042,0,0,0-4.9051-12.64276,16.50443,16.50443,0,0,0-2.989-3.802,43.11579,43.11579,0,0,1-3.55009-3.87787c-.32275-.37583-.66889-.82859-.4429-1.33589.23457-.52652.80136-.27875,1.217-.28038,4.32669-.017,8.65348-.00709,12.98024-.01562a3.02621,3.02621,0,0,0,1.33211-.10041l3.4598-.02014a12.55809,12.55809,0,0,1,3.52031,3.26965c4.14612,4.89716,6.76875,10.63362,9.02066,16.55086,1.814,4.76672,3.3917,9.617,4.77247,14.52734a6.67209,6.67209,0,0,0,.33479,1.448c-.26785-.66395-.26943-1.55378-.5794-2.37185-1.0531-5.13469-1.56926-10.35306-2.5125-15.5052a78.57832,78.57832,0,0,0-4.47735-16.28125C509.90606,261.5211,509.37637,260.87409,509.65253,260.04751Z" fill="#667987"/>
      <path d="M487.45357,315.76094a82.04854,82.04854,0,0,1,34.47235-8.17292,175.70379,175.70379,0,0,1,25.13252,1.61808c7.8878.97441,15.75666,2.10166,23.67358,2.86236,4.78785.46,9.58058.80575,14.379.88853a63.61486,63.61486,0,0,0,13.282-1.05829c.32311-.063.74248-.0239.938-.418.85148.29122.78268.79287.38669,1.4465a83.326,83.326,0,0,1-6.85808,9.74472,30.939,30.939,0,0,1-4.73675,4.7285,6.72307,6.72307,0,0,1-5.337,1.24056c-.79866-.10747-1.59943-.17352-2.39775-.27033-.2419-.55948-.4644-.03488-.69983.01595a37.11705,37.11705,0,0,1-7.8643-1.12484,161.23836,161.23836,0,0,0-21.74088-3.35944c-4.35686-.27614-8.70831-.59684-13.07085-.80755-2.74589-.13264-5.492-.30188-8.22993-.18773-9.8689.41144-19.69706,1.15422-29.11319,4.49871A44.4019,44.4019,0,0,0,489.49471,332.35c-6.4767,4.38937-9.35486,10.80214-10.3219,18.26576a5.47217,5.47217,0,0,0,.94393,3.97768c.25689.35816.54692.82386,1.05053.72416.55913-.11073.485-.68912.53873-1.11149.22662-1.78059.18717-3.58114.43383-5.36393a18.91656,18.91656,0,0,1,6.5581-11.73392c3.62083-3.24019,8.05893-4.876,12.6061-6.23664a100.71359,100.71359,0,0,1,21.8001-3.66774,145.55118,145.55118,0,0,1,15.93743-.16835,169.55508,169.55508,0,0,1,29.04512,3.66179c2.95088.63112,5.9042,1.25365,8.82788,2.00132.51629.132,1.21486.06911,1.36875.8336a26.97988,26.97988,0,0,1-4.823,7.86239,73.15713,73.15713,0,0,1-22.50758,18.29582c-3.58673,1.92449-7.49729,2.61063-11.45453,3.2314-5.04038.79068-10.05574,1.73842-15.09064,2.56523a96.8938,96.8938,0,0,1-11.04658,1.44468,6.29846,6.29846,0,0,0-3.38266,1.47062c-7.90141,5.53823-15.7626,11.13805-24.07235,16.06586a201.53868,201.53868,0,0,1-19.67016,10.02689c-4.99248,2.26389-9.96007,4.586-14.99425,6.75425-9.774,4.20963-19.53673,8.45217-29.57494,12.01864-.8015.28477-1.60758.55676-2.41155.83465a6.67676,6.67676,0,0,1-1.77521.94489q-12.38559,4.22611-25.03246,7.596c-7.91081,2.09427-15.87652,3.96379-23.88082,5.66855-.63948.13623-1.29359.44592-1.96278.07995-4.86443.9843-9.72533,1.98649-14.595,2.94431-2.014.39614-4.04679.69733-6.0711,1.04165,4.34043-2.54189,8.72674-5.0097,13.01118-7.64206a195.85052,195.85052,0,0,0,21.02428-14.36715,130.22726,130.22726,0,0,0,16.24773-16.10879,110.64556,110.64556,0,0,0,12.61362-17.42262,3.6172,3.6172,0,0,1,1.26045-1.172c7.31329-4.90773,14.79027-9.58074,21.62828-15.16549,5.56993-4.5491,10.9289-9.33437,16.24838-14.16681q6.13437-5.5727,12.29557-11.116c.48839-.43946.96579-.96924,1.73844-.88662.50592-.40014,1.03831-.11431,1.55324-.04392,7.65607,1.04667,13.88269-1.3975,18.5926-7.54571a6.82663,6.82663,0,0,0,1.15342-2.11545c.48819-1.46268,1.77514-2.44526,2.28773-3.93124a25.5093,25.5093,0,0,0,1.27837-4.09373C486.925,316.27606,486.79729,315.7158,487.45357,315.76094Z" fill="#ced7dc"/>
      <path d="M309.75446,410.31611a8.574,8.574,0,0,1-.9005.26527c-7.77481,1.42207-15.54157,2.89058-23.32952,4.23783-6.72672,1.16364-13.48013,2.16971-20.24853,3.074-5.56867.74409-11.15254,1.34431-16.73965,1.92774q-9.58575,1.00093-19.16049,2.10709c-6.87149.80068-13.74614,1.60622-20.55182,2.863-8.70309,1.60718-17.45309,2.92839-26.18211,4.37738a204.26842,204.26842,0,0,0-25.23477,5.63913,325.47249,325.47249,0,0,0-37.74811,14.095,32.365,32.365,0,0,0-8.71431,5.03247,3.12466,3.12466,0,0,0,1.55514-.33255c1.8847-.55349,3.77043-1.1063,5.63924-1.70994.16024-.05172.30528-.09023.44241-.12085.10494-.03241.19545-.07831.30376-.10784a6.0705,6.0705,0,0,1,2.23537-.18,8.232,8.232,0,0,1,.88365-.2428,185.11107,185.11107,0,0,1,25.99546-4.02531,12.333,12.333,0,0,1,2.0785-.49128c4.77284-.3033,9.547-.59439,14.32417-.81555,3.58089-.16579,7.16514-.016,10.7549-.22779,4.02908-.23766,8.08284-.059,12.12588-.06145.84651-.15785,1.03185-.93962,1.36767-1.52778.68957-1.20783,1.35831-2.426,2.11-3.59814a2.63586,2.63586,0,0,1,1.828-1.248,154.81088,154.81088,0,0,1,15.519-1.91979c2.73513-.22417,5.4814-.07413,8.209-.43867a12.60129,12.60129,0,0,1,3.86368.07735,114.53861,114.53861,0,0,0-10.90119,6.88053c-.52913.38139-1.22929.63351-1.26609,1.44953,3.4124.07262,6.80416-.33878,10.20624-.44182,4.35121-.13168,8.69622-.34844,13.04392-.53705,6.04966-.26246,12.101-.46463,18.14686-.82918,4.433-.26732,8.88018-.31466,13.30971-.6222,1.47626-.10249,2.95541-.1362,4.42961-.25007,4.37389-.33782,8.74786-.67633,13.11949-1.0419,2.71938-.22738,5.44007-.45751,8.14968-.77532,1.8402-.216,2.80776.44284,3.23978,2.43142a2.73384,2.73384,0,0,0,.88283-.99121c5.36105-7.42566,9.9361-15.34206,14.57931-23.21441,1.79351-3.04082,3.71073-6.01258,5.28245-9.18062A2.52467,2.52467,0,0,0,309.75446,410.31611Z" fill="#ced7dc"/>
      <path d="M229.45689,372.08574c-4.65376,2.25466-9.328,4.465-14.105,6.45226a6.601,6.601,0,0,0-1.60342-2.1211c-4.61011-5.51551-9.16984-11.075-14.47348-15.97076-4.24086-3.91474-9.0593-7.09291-13.56106-10.674-1.58489-1.26076-3.08012-2.61857-4.57292-3.98561-.87777-.80382-.5766-1.17894.23284-1.64935A19.39011,19.39011,0,0,1,189.09,341.912c13.0169-1.48809,25.78439.07836,38.36581,3.37826A121.57733,121.57733,0,0,0,254.29,349.684a136.59082,136.59082,0,0,0,14.31113-.21058c.2117.169.17086.33232-.01119.49242-5.69135,3.40751-11.353,6.86561-17.08378,10.20588-4.25721,2.48134-8.60225,4.81321-12.91393,7.2013-.42379.23473-.88808.39689-1.33356.59275a.72331.72331,0,0,1-.29065.43391A43.87842,43.87842,0,0,1,229.45689,372.08574Z" fill="#435561"/>
      <path d="M366.60383,428.39209c6.74066-1.56409,13.49924-3.05587,20.21788-4.70881q16.04436-3.94725,31.65975-9.36029c.253-.08739.51556-.1475.77364-.22034-.36853.87626-1.2105,1.29025-1.87725,1.86161-10.28077,8.81-21.77511,15.84563-33.45153,22.604a113.74894,113.74894,0,0,1-20.61938,9.85814,43.2845,43.2845,0,0,1-7.99116,1.86421c-1.378.18685-1.28636-.40277-.94074-1.24607a71.9876,71.9876,0,0,1,3.31245-6.90021,100.86679,100.86679,0,0,1,8.43287-12.9553A8.69649,8.69649,0,0,0,366.60383,428.39209Z" fill="#435561"/>
      <path d="M397.18543,270.84525a71.83634,71.83634,0,0,0-8.01327,20.88166,88.44153,88.44153,0,0,0-1.84632,15.7139c-.33317,11.6002,1.01587,23.05483,2.92117,34.46562.5077,3.04067.96038,6.09048,1.20446,9.23606-1.17079-2.38213-2.39254-4.741-3.50318-7.15062a110.35844,110.35844,0,0,1-8.59638-26.52948,89.97381,89.97381,0,0,1,1.77921-40.45349,92.57465,92.57465,0,0,1,13.77543-5.41311C395.66556,271.34376,396.42576,271.09534,397.18543,270.84525Z" fill="#ced7dc"/>
      <path d="M164.25477,398.2019c-10.06005,3.30018-20.244,6.18378-30.45238,8.98491a2.41057,2.41057,0,0,1-1.68667.17409,67.87383,67.87383,0,0,0-14.13786-17.71107c-1.09072-1.00682-1.09567-1.05519.30162-1.54758a32.16855,32.16855,0,0,1,11.72582-1.46342c14.00506.39117,27.4878,3.12057,40.21019,9.13989a.53435.53435,0,0,1-.27787.68174A15.03809,15.03809,0,0,1,164.25477,398.2019Z" fill="#435561"/>
      <path d="M578.28331,333.53222a124.74423,124.74423,0,0,0-12.98892-2.99255,165.09525,165.09525,0,0,0-39.48557-3.11438c-10.74619.49694-21.38093,1.87311-31.27248,6.40986-7.64309,3.5055-12.06991,9.4274-12.30012,18.068-.0274,1.0291-.09345,2.06071-.21279,3.08292-.13521,1.15815-.68949,1.36133-1.60708.59737a5.09925,5.09925,0,0,1-1.6405-4.11753c-.05195-3.48695,1.10837-6.67672,2.46388-9.83285,2.9826-6.94444,8.7132-10.72722,15.384-13.47668a76.08913,76.08913,0,0,1,23.09124-5.10027c12.39229-1.00343,24.74035-.22439,37.06174,1.117,5.63912.61391,11.15182,1.9842,16.72037,3.0204a46.76133,46.76133,0,0,0,6.3977.95528c.24336-.05106.37982.00107.27677.28449C579.64955,330.17241,579.36428,331.99852,578.28331,333.53222Z" fill="#381534"/>
      <path d="M187.28311,445.61955c1.09988-1.84729,2.22313-3.68134,3.2875-5.54869a2.25037,2.25037,0,0,1,1.69831-1.14526A123.233,123.233,0,0,1,208.5895,436.987q5.4567-.2663,10.91544-.48882a2.4846,2.4846,0,0,1,1.61035.271c-4.56551,2.75937-9.08458,5.27558-13.10213,8.52555-3.59893,2.38585-6.90112,5.16073-10.2865,7.82409-6.00352,4.72311-12.04732,9.38843-18.48419,13.52141a3.10152,3.10152,0,0,1-1.62118.7542c.952-2.38706,1.853-4.65475,2.76034-6.91989C182.41453,455.39958,184.85233,450.51113,187.28311,445.61955Z" fill="#667a87"/>
      <path d="M425.25041,338.37089c-2.92982-5.10458-4.21925-10.71847-5.18117-16.44163a83.42706,83.42706,0,0,1-1.19063-15.64758c.25157-11.42358.96305-22.82248,4.54767-33.81855a59.89,59.89,0,0,1,3.63155-8.38025c3.97107-.52444,7.92828-1.16672,11.93408-1.3968-7.41477,9.122-11.01275,19.84445-12.96071,31.19577a157.40436,157.40436,0,0,0-2.66487,31.00611,48.52343,48.52343,0,0,0,2.167,13.21359C425.61844,338.37835,425.50148,338.44453,425.25041,338.37089Z" fill="#ced7dc"/>
      <path d="M119.86826,455.5985a25.63248,25.63248,0,0,0-.03753-2.80988c-.12978-1.11081.28763-1.54677,1.37281-1.78822,3.89184-.866,7.79009-1.69632,11.72648-2.32754q6.63765-1.06441,13.33823-1.65255c.55956-.04837,1.22243-.42314,1.73138.19527-4.99416,2.88912-8.80827,7.03193-12.31465,11.502-2.37928,3.03322-4.48466,6.27454-7.04625,9.17006a15.50115,15.50115,0,0,1-3.12337,2.74173c-.52987.34659-.89645.452-1.2091-.3119C122.35508,465.5504,120.43513,460.77835,119.86826,455.5985Z" fill="#435561"/>
      <path d="M268.59,349.96584l.01119-.49244c1.23994-.10625,2.075-1.01624,3.04767-1.60724,2.56119-1.55615,5.04163-3.24414,7.55423-4.87962-4.31131,17.09984-6.89977,34.33579-4.06264,52.22094a19.05256,19.05256,0,0,1-3.01-4.94874,50.449,50.449,0,0,1-3.77238-15.60457,98.26847,98.26847,0,0,1-.40547-14.50563C268.12565,356.75232,268.37481,353.35993,268.59,349.96584Z" fill="#ced7dc"/>
      <path d="M493.85614,284.77258c-1.7345-7.80219-4.09255-15.32733-10.417-20.90549a6.13139,6.13139,0,0,1-2.22374-3.04417l.12847.00027c-.05055-.03233-.0978-.0694-.14759-.10269-.32171.01781-.64329.01966-.96507.04165-3.42856.23437-6.88539.04679-10.32921.07721a8.87861,8.87861,0,0,0-3.31488.19416c1.21671.27541,2.44622-.17292,3.69436.7584A83.87329,83.87329,0,0,1,495.8312,297.4168c.24717.08618.35562.02151.27372-.25C495.36541,293.03318,494.76668,288.86846,493.85614,284.77258Z" fill="#ced7dc"/>
      <path d="M316.49481,318.19169c-.70563,3.95946-1.48518,7.9021-1.93739,11.90818a140.39274,140.39274,0,0,0-.77393,16.88586c.03037,3.85093.18971,7.695.52909,11.53152.02582.292.00337.58816.00337,1.21653a43.92748,43.92748,0,0,1-4.5712-10.86645,88.83468,88.83468,0,0,1-3.0438-20.7893c-.04064-1.03744.47043-2.23556-.47123-3.166Q311.36229,321.55185,316.49481,318.19169Z" fill="#ced7dc"/>
      <path d="M543.16755,268.66722c.06582,5.33219.20216,10.66477.17185,15.99642a38.43672,38.43672,0,0,1-1.23908,9.96537,2.12811,2.12811,0,0,1-.544,1.23793c-.38833-7.19593-2.61113-13.905-4.80171-20.62812a91.36864,91.36864,0,0,1-3.35414-11.73541A47.12787,47.12787,0,0,1,543.16755,268.66722Z" fill="#ced7dc"/>
      <path d="M509.65253,260.04751c3.467,7.38619,4.9949,15.28283,6.17674,23.27123q.80513,5.442,1.62735,10.88153c.03579.30321.39864.71177-.25715.79218-2.07841-6.29766-3.9579-12.66346-6.604-18.76446a46.32652,46.32652,0,0,0-10.48639-15.66882Z" fill="#ced7dc"/>
      <path d="M350.59537,295.30421a39.4077,39.4077,0,0,0-1.0501,13.0696,198.43568,198.43568,0,0,0,3.85979,28.86895c.05371.242.2357.48147-.06008.83242a50.64992,50.64992,0,0,1-3.53483-7.84327,72.98588,72.98588,0,0,1-4.3807-21.107c-.20407-3.35127-.35173-6.70594-.5249-10.05908A35.58022,35.58022,0,0,1,350.59537,295.30421Z" fill="#ced7dc"/>
      <path d="M125.10071,409.55534c-.66518,2.91806-1.55588,5.77863-2.01455,8.75134a52.47,52.47,0,0,0-.02722,15.625,8.56752,8.56752,0,0,1-2.85254-4.0184,35.23421,35.23421,0,0,1-2.22161-13.02006c-.02736-1.56437-.12111-3.12751-.16351-4.69178-.0121-.44634-.0704-.8072-.6192-.83407Q121.15142,410.46132,125.10071,409.55534Z" fill="#ced7dc"/>
      <path d="M205.43449,382.626a82.38868,82.38868,0,0,0-5.29852,31.19275,75.00072,75.00072,0,0,1-2.074-10.02427c-.913-6.13929-.38127-12.22689.5594-18.30593Q202.028,384.05718,205.43449,382.626Z" fill="#ced7dc"/>
      <path d="M164.25477,398.2019c1.59741-.55,3.19859-1.08942,4.78977-1.65675.44244-.15775.97777-.21428,1.17095-.76643l.8313.02294a24.70345,24.70345,0,0,0-2.44719,8.85815,58.48821,58.48821,0,0,0,.30106,16.49893c-.28432-.58877-.58285-1.17122-.84913-1.768-.2916-.65351-.57727-1.31147-.82444-1.9825a51.87407,51.87407,0,0,1-2.974-17.095C164.23968,399.61383,163.91661,398.90222,164.25477,398.2019Z" fill="#ced7dc"/>
      <path d="M559.067,281.833c.98041,3.36134-.41633,6.34158-3.28363,7.00619-1.84747.42823-2.776-.43882-2.45433-2.29811a14.74631,14.74631,0,0,1,3.00964-6.37544c.23232-.30761.657-.51733.53985-1.01138.59987.49247.96279,1.22918,1.67146,1.60957A2.83625,2.83625,0,0,1,559.067,281.833Z" fill="#ced7dc"/>
      <path d="M419.58283,265.41755a4.85647,4.85647,0,0,1-3.56356,6.29318c-.98444.17923-1.68261-.488-1.51231-1.62084a18.622,18.622,0,0,1,.76852-2.82341c.1323-.41652.3405-.77914-.33859-.83128Q417.25987,265.92636,419.58283,265.41755Z" fill="#ced7dc"/>
      <path d="M580.17152,328.43327l-.27677-.28449c.08662-.3102-.17871-.71849.34054-.98187.37157.36108.14049.807.153,1.20394A.47825.47825,0,0,1,580.17152,328.43327Z" fill="#a09aa9"/>
      <path d="M559.067,281.833a1.48639,1.48639,0,0,1-.51708-1.06923,1.768,1.768,0,0,1,.821.76965Z" fill="#a1acb4"/>
      <path d="M487.45357,315.76094a19.17935,19.17935,0,0,1-3.81688,8.74916c-1.91313,3.23058-4.92372,5.06937-8.33926,6.25421a18.61842,18.61842,0,0,1-24.72-17.94426,13.51531,13.51531,0,0,1,1.6288-6.85783,1.16645,1.16645,0,0,1,.36655-.38678,17.91014,17.91014,0,0,1,12.20618-10.06316,18.36123,18.36123,0,0,1,22.70069,16.10515C487.59644,313.01556,487.38392,314.38065,487.45357,315.76094Z" fill="#f3f3f3"/>
      <path d="M312.403,409.84222l-2.64857.47391a55.7993,55.7993,0,0,1,5.64283-11.38224A58.596,58.596,0,0,1,326.153,385.8002c1.25311-1.13669,2.6553-2.11265,4.0124-3.13157a2.61885,2.61885,0,0,0,.96334-.90111c1.40566-.713,2.67775-1.7289,4.32531-1.89359a18.70452,18.70452,0,0,1,7.03709-1.30549c1.8818.04373,3.72468-.35208,5.59866-.31461a1.45,1.45,0,0,0,1.18009-.53014c1.63818-.01971,3.19245-.78982,4.86084-.53965,5.63222-1.339,11.38263-2.18814,16.8907-4.03934a2.35034,2.35034,0,0,0,1.20023-.53445,26.481,26.481,0,0,1,4.86232-1.88267c2.45331-.46,4.6328-1.67024,6.94509-2.51654.4028-.14743.75215-.49012,1.39143-.361a13.04982,13.04982,0,0,1-2.82207,2.1471c-5.06072,3.20421-10.80445,4.79314-16.32709,6.92357-6.49905,2.50709-13.325,3.54577-20.10873,4.79-2.32923.42722-4.70833.58125-7.06238.87814-1.76167.22218-3.15191,1.26812-4.60078,2.1525-6.16462,3.763-10.88143,9.00081-15.13946,14.72385C316.86869,402.81382,314.85934,406.47513,312.403,409.84222Z" fill="#435561"/>
      <path d="M452.57274,305.57544c-2.35141,5.56669-2.35421,11.09576.62641,16.4082,6.24586,11.13227,20.911,12.72409,29.69454,3.297.24315-.26095.49516-.51373.743-.77042A12.57183,12.57183,0,0,1,479.1,330.51049a19.12871,19.12871,0,0,1-17.09434,3.82,18.89572,18.89572,0,0,1-8.16978-4.3723,17.38423,17.38423,0,0,1-5.58651-9.83884,17.17653,17.17653,0,0,1,3.74112-14.30274C452.134,305.63385,452.21468,305.26067,452.57274,305.57544Z" fill="#31414a"/>
      <path d="M229.45689,372.08574q3.90092-2.05995,7.80178-4.12c.51526.3591.20826.79853.11115,1.20969a142.31772,142.31772,0,0,0-3.71075,26.801c-.09907,2.35523-.11419,4.71322-.27967,7.08628a29.19907,29.19907,0,0,1-2.30529-7.6068,101.099,101.099,0,0,1-1.54-22.44056A7.68075,7.68075,0,0,0,229.45689,372.08574Z" fill="#ced7dc"/>
      <path d="M377.084,370.72758a11.93,11.93,0,0,1-4.86239,1.88269,68.74809,68.74809,0,0,1-6.95258-22.46189c-.43458-3.89072-.41177-9.24251,1.11351-12.89049A64.80648,64.80648,0,0,0,377.084,370.72758Z" fill="#31414a"/>
      <path d="M354.13077,377.184c-1.61125.26263-3.1465,1.20483-4.86117.53969a49.07267,49.07267,0,0,1-2.3998-29.44423,8.92055,8.92055,0,0,1,.35879-.94772c.58429,4.79153.95863,9.35216,1.68387,13.87505.87088,5.43139,2.20583,10.6875,5.04163,15.47251A2.65506,2.65506,0,0,1,354.13077,377.184Z" fill="#31414a"/>
      <path d="M335.45409,379.87393c-1.45534.60068-2.70379,1.6703-4.32544,1.89362-2.11944-4.30031-4.14143-8.63219-4.74969-13.46457a34.69669,34.69669,0,0,1,.26042-8.28335c.24616-2.17.66226-4.32107.7058-6.51295a.2935.2935,0,0,1,.49559.00684C328.64157,362.79816,330.177,371.87228,335.45409,379.87393Z" fill="#31414a"/>
      <path d="M465.80951,272.09291c3.74937,3.42651,4.68562,9.85658,2.39855,15.09567-2.16451,4.95833-6.748,8.0919-11.527,7.7406a23.866,23.866,0,0,0,4.75035-3.64046c3.13257-3.291,4.3701-7.33526,4.61015-11.7457A42.33162,42.33162,0,0,0,465.80951,272.09291Z" fill="#010101"/>
      <path d="M297.28,342.041a6.29733,6.29733,0,0,1,1.21848-4.08164,2.82113,2.82113,0,0,1,4.22311-.7686c2.12707,1.52006,3.66856,3.45137,3.52047,6.25694-.11444,2.16856-2.66675,4.399-4.5672,4.05318C298.82892,346.98292,297.27323,345.08152,297.28,342.041Z" fill="#ced7dc"/>
      <path d="M365.60391,313.9296a6.27139,6.27139,0,0,1,.65137-2.37781c.76944-1.34468,1.79848-2.46273,3.46633-2.345a4.29558,4.29558,0,0,1,3.68817,3.12541c.93064,2.40672-.64882,5.84369-3.02994,6.891a2.47418,2.47418,0,0,1-3.05215-.59222A6.32755,6.32755,0,0,1,365.60391,313.9296Z" fill="#ced7dc"/>
      <path d="M287.03112,348.36826c2.43489.00981,4.35666,2.08835,4.553,4.92445a4.75929,4.75929,0,0,1-4.03336,4.67186,2.48038,2.48038,0,0,1-2.63678-1.48391,13.91378,13.91378,0,0,1-1.33845-4.62117C283.36305,349.72273,284.74685,348.35905,287.03112,348.36826Z" fill="#ced7dc"/>
      <path d="M311.36824,365.03249c.019,3.54584-1.92517,5.26889-4.56156,4.39149a1.80422,1.80422,0,0,1-.97645-.65925,14.24188,14.24188,0,0,1-1.75567-3.00585,4.45961,4.45961,0,0,1,3.08038-5.9558,2.59283,2.59283,0,0,1,2.80573,1.159A7.22181,7.22181,0,0,1,311.36824,365.03249Z" fill="#ced7dc"/>
      <path d="M320.83966,322.06494c.24771-1.29886-.05348-3.11137,1.6639-3.80772,1.69377-.68678,3.00874.47009,4.17306,1.54175,1.452,1.33646,1.65795,3.11178.66308,5.04173a11.5007,11.5007,0,0,1-3.675,4.05383c-1.07515.768-1.54951-.11448-1.73071-.86077A30.37669,30.37669,0,0,1,320.83966,322.06494Z" fill="#ced7dc"/>
      <path d="M153.31366,416.82265a3.733,3.733,0,0,1-3.83859-3.63959,5.14682,5.14682,0,0,1,4.71563-4.69406,4.7564,4.7564,0,0,1,4.11953,4.1264C158.35364,414.90869,156.09955,416.80667,153.31366,416.82265Z" fill="#ced7dc"/>
      <path d="M253.71968,363.15526a4.70534,4.70534,0,0,1,3.98751,2.568,3.83181,3.83181,0,0,1-1.08258,4.164,6.36852,6.36852,0,0,1-2.33,1.55851c-1.88863.75736-2.86423.51618-4.04168-1.13263a4.2489,4.2489,0,0,1-.24507-4.701A3.98338,3.98338,0,0,1,253.71968,363.15526Z" fill="#ced7dc"/>
      <path d="M339.79584,314.64136a5.66891,5.66891,0,0,1-4.286,5.43993c-.31476.06967-.598.1692-.82131-.18929-.66067-1.06049-1.41209-2.07187-1.99321-3.173a4.67525,4.67525,0,0,1,2.15057-6.16873c2.06184-.9987,4.43458.57088,4.88788,3.24428A6.7217,6.7217,0,0,1,339.79584,314.64136Z" fill="#ced7dc"/>
      <path d="M435.77357,292.44692a4.46765,4.46765,0,0,1,1.85322-3.78536c1.60692-1.08946,2.65619-1.19091,3.95545-.29527a3.892,3.892,0,0,1,1.659,4.09881A7.39729,7.39729,0,0,1,438.792,297.518a1.49,1.49,0,0,1-2.19392-.98292A15.60037,15.60037,0,0,1,435.77357,292.44692Z" fill="#ced7dc"/>
      <path d="M415.49869,323.479a3.84962,3.84962,0,0,1-3.28058,3.838c-1.80472.19392-2.99739-.85311-3.576-3.05336-.238-.90526-.65588-1.76429-.88432-2.67126-.56055-2.22537.86455-3.72918,3.12647-3.3544A5.22514,5.22514,0,0,1,415.49869,323.479Z" fill="#ced7dc"/>
      <path d="M253.19725,393.81073a6.29,6.29,0,0,1-2.93919,4.6364c-1.35271.88014-2.47857.38343-3.1022-1.04745-1.16062-2.6631-.51843-5.26938.20556-7.83466.42752-1.51482,3.10342-1.58671,4.37264-.215A6.92419,6.92419,0,0,1,253.19725,393.81073Z" fill="#ced7dc"/>
      <path d="M436.036,315.05335c-.0954-3.01211,1.50719-3.79566,4.22208-4.41263.93816-.21319,2.10244,1.14724,2.47157,2.6264.63383,2.5399-1.82308,7.3937-4.244,8.42936-.42792.18306-.61017.1073-.81635-.3126A22.84678,22.84678,0,0,1,436.036,315.05335Z" fill="#ced7dc"/>
      <path d="M187.27619,415.55762c.26482,2.67518-3.508,4.96067-5.30127,5.03516-.45256.01879-.63384-.24912-.77828-.601A28.65337,28.65337,0,0,1,179.333,413.84a.83851.83851,0,0,1,.45091-.99307,6.43264,6.43264,0,0,1,5.059-.75288A3.34571,3.34571,0,0,1,187.27619,415.55762Z" fill="#ced7dc"/>
      <path d="M136.536,431.6389c-2.8552.00669-3.75577-1.30742-2.649-3.82651a5.09936,5.09936,0,0,0,.17283-1.04626,3.697,3.697,0,0,1,4.055-3.12631,3.85322,3.85322,0,0,1,3.03386,4.15371C140.944,430.23936,139.2729,431.63249,136.536,431.6389Z" fill="#ced7dc"/>
      <path d="M195.11952,399.70648c-.01677,2.70105-3.09874,5.19427-5.50253,4.47084a2.32837,2.32837,0,0,1-1.48658-1.249c-1.09009-2.133-.361-4.03249.84324-5.78625a3.43218,3.43218,0,0,1,3.928-.93044A3.51476,3.51476,0,0,1,195.11952,399.70648Z" fill="#ced7dc"/>
      <path d="M326.6783,334.33149a3.73058,3.73058,0,0,1,3.45707,4.11645,4.50131,4.50131,0,0,1-1.05218,2.42476c-1.3436,1.57633-3.02479,2.24274-4.19558,1.66347-1.50838-.74627-2.41667-3.16932-1.9292-5.14653A3.698,3.698,0,0,1,326.6783,334.33149Z" fill="#ced7dc"/>
      <path d="M503.21508,282.60763a3.05582,3.05582,0,0,1,2.68719,4.59109,5.08249,5.08249,0,0,1-3.9682,2.70257c-1.85387.26542-4.20108-1.97279-4.15216-3.90326a1.132,1.132,0,0,1,.18126-.49064A7.26828,7.26828,0,0,1,503.21508,282.60763Z" fill="#ced7dc"/>
      <path d="M372.94024,298.89643a4.687,4.687,0,0,1-4.00018,4.41883,1.53614,1.53614,0,0,1-1.78828-.90524c-.38091-1.39995-1.10764-2.64339-1.57312-3.99676a.8924.8924,0,0,1,.18482-.75217,7.24711,7.24711,0,0,1,.5836-.90374c1.16834-1.56845,2.83181-2.32906,4.14655-1.90746C371.78071,295.26263,372.91443,297.13774,372.94024,298.89643Z" fill="#ced7dc"/>
      <path d="M300.796,377.67019c.00129-1.68122,1.08024-2.656,2.683-2.27741a5.24833,5.24833,0,0,1,4.21829,3.89595,3.70234,3.70234,0,0,1-3.37989,4.77129,1.17349,1.17349,0,0,1-1.0839-.36443A12.36042,12.36042,0,0,1,300.796,377.67019Z" fill="#ced7dc"/>
      <path d="M141.54764,413.3305a2.0717,2.0717,0,0,1-1.79846,2.295c-3.41534.747-5.90795-1.61783-5.28433-5.03489.14381-.788.41109-1.55433.54362-2.34362.15764-.93894.77394-.97959,1.4938-.84956C138.63086,407.78194,141.50677,411.17365,141.54764,413.3305Z" fill="#ced7dc"/>
      <path d="M283.54969,380.18119a15.37032,15.37032,0,0,1,.644-3.49631c.1191-.394.305-.7332.79578-.79484,1.98823-.24976,5.80273,1.44183,5.59975,4.49972a3.377,3.377,0,0,1-3.51992,3.26841A3.19078,3.19078,0,0,1,283.54969,380.18119Z" fill="#ced7dc"/>
      <path d="M526.90985,273.23666a12.2529,12.2529,0,0,1-6.371-1.8486c-1.62484-1.05639-1.62623-2.28525-.058-3.35728,2.1845-1.49324,2.83257-1.502,5.03358-.03993a17.99766,17.99766,0,0,1,3.161,2.49178c.52414.55038,1.17953,1.12942.87715,1.9703-.32251.89705-1.21479.75654-1.96908.78253C527.35919,273.2432,527.13446,273.23666,526.90985,273.23666Z" fill="#ced7dc"/>
      <path d="M338.08549,342.90931a4.84488,4.84488,0,0,1-3.91808-2.58667.953.953,0,0,1-.05282-.643c.78433-1.6935,1.74117-3.27036,3.60874-3.95892a3.07582,3.07582,0,0,1,3.78981,1.95037,3.47321,3.47321,0,0,1-1.0051,4.54479A5.81134,5.81134,0,0,1,338.08549,342.90931Z" fill="#ced7dc"/>
      <path d="M411.72394,282.61079c.10174,1.82232-.951,2.97686-2.25588,3.92956a11.40943,11.40943,0,0,1-2.24881,1.20753c-1.545.661-2.42647.15241-1.92557-1.38057a60.54515,60.54515,0,0,0,1.39886-6.22556,2.10407,2.10407,0,0,1,2.0827-1.64757,2.40209,2.40209,0,0,1,2.25231,1.45234A4.98739,4.98739,0,0,1,411.72394,282.61079Z" fill="#ced7dc"/>
      <path d="M526.32161,286.8621c-.17549-.77961.6375-1.19792,1.49669-1.55547a2.68532,2.68532,0,0,1,3.12135.43772c2.1814,2.07849,1.60075,6.90131-.99051,8.40638-.80058.465-1.34994.4359-1.82536-.48379A17.60329,17.60329,0,0,1,526.32161,286.8621Z" fill="#ced7dc"/>
      <path d="M337.04883,355.31935a3.14538,3.14538,0,0,1,3.43726,2.577c.60115,1.98927.15676,3.5366-1.29877,4.522-1.783,1.20713-2.96725.97354-4.08661-.82761a6.81242,6.81242,0,0,1-.74693-1.42076c-.27286-.8332-1.17283-1.57847-.45528-2.586C334.78464,356.33965,335.83209,355.34661,337.04883,355.31935Z" fill="#ced7dc"/>
      <path d="M267.29817,385.70382a4.1782,4.1782,0,0,1-1.6536,3.27861A1.32724,1.32724,0,0,1,263.62,388.758c-.98154-1.33329-1.95205-2.68378-2.79979-4.10261-.5763-.96459-1.02449-2.06821.02954-3.06822a2.891,2.891,0,0,1,3.70263-.2211A5.58784,5.58784,0,0,1,267.29817,385.70382Z" fill="#ced7dc"/>
      <path d="M243.48842,376.15747a7.31489,7.31489,0,0,1-.56752,3.192,2.77068,2.77068,0,0,1-1.77171,1.71508,2.355,2.355,0,0,1-2.31446-.12652c-.58647-.50567-.12772-1.31448.10853-1.87164a3.46777,3.46777,0,0,0,.11023-2.16282,8.51557,8.51557,0,0,1,.11867-3.84662,3.10538,3.10538,0,0,1,1.15543-1.75806c1.26292-.94464,2.15411-.67507,2.56608.82446A13.01772,13.01772,0,0,1,243.48842,376.15747Z" fill="#ced7dc"/>
      <path d="M446.48038,274.55469a1.31813,1.31813,0,0,1-1.534-1.07293,5.38953,5.38953,0,0,1,.93374-5.4091,3.133,3.133,0,0,1,4.11938-.71956,3.50617,3.50617,0,0,1,1.1356,4.0744A5.89413,5.89413,0,0,1,446.48038,274.55469Z" fill="#ced7dc"/>
      <path d="M213.25569,405.61506a4.27972,4.27972,0,0,1-2.12985,3.93115,1.11986,1.11986,0,0,1-1.77165-.52783c-.73874-2.61134-1.51728-5.24482-1.08773-8.02355.09841-.63659.23844-1.26707.95541-1.4849a1.73706,1.73706,0,0,1,1.78741.67379A7.5124,7.5124,0,0,1,213.25569,405.61506Z" fill="#ced7dc"/>
      <path d="M392.18939,314.2324c.03023-1.72783.59389-2.72012,1.85978-3.23956a3.28145,3.28145,0,0,1,3.58573.76324,3.56668,3.56668,0,0,1,.74046,3.86255,5.08335,5.08335,0,0,1-3.2657,3.322c-.503.14491-1.14276.04129-1.27932-.47021C393.40612,316.8817,392.3955,315.503,392.18939,314.2324Z" fill="#ced7dc"/>
      <path d="M378.19932,338.95413a6.7084,6.7084,0,0,1-1.2689,4.28085.96059.96059,0,0,1-1.58827.21076,7.07342,7.07342,0,0,1-2.87858-5.78,2.33223,2.33223,0,0,1,1.5711-2.2801,3.453,3.453,0,0,1,3.35688.16551C378.34073,336.339,378.19727,337.74477,378.19932,338.95413Z" fill="#ced7dc"/>
      <path d="M474.98717,281.8272a4.09518,4.09518,0,0,1,.38932-2.0932,3.091,3.091,0,0,1,2.62665-2.20006,3.2265,3.2265,0,0,1,3.03961,1.84918,2.96,2.96,0,0,1-.20176,3.39954,4.63428,4.63428,0,0,1-4.87882,1.7473.84215.84215,0,0,1-.61836-.61808A4.378,4.378,0,0,1,474.98717,281.8272Z" fill="#ced7dc"/>
      <path d="M224.27483,397.402a2.69524,2.69524,0,0,1,2.09069,1.49215,5.84591,5.84591,0,0,1-1.1456,7.214c-.59366.51187-.92621.49476-1.32471-.22545a22.68867,22.68867,0,0,1-2.15493-5.4771A2.41083,2.41083,0,0,1,224.27483,397.402Z" fill="#ced7dc"/>
      <path d="M402.92369,306.67958c.052-1.43633.77994-2.7615.68774-4.224a.61178.61178,0,0,1,.14393-.3654c.648-.8398,3.34109-1.20407,4.26885-.58516a2.61224,2.61224,0,0,1,.82078,3.763,6.71849,6.71849,0,0,1-3.43627,3.09518C403.88169,308.95619,402.83453,308.21356,402.92369,306.67958Z" fill="#ced7dc"/>
      <path d="M359.27354,302.63483a4.532,4.532,0,0,1-2.27584,4.27577,1.25509,1.25509,0,0,1-1.811-.449,15.43212,15.43212,0,0,1-1.81456-3.72836c-.39441-1.221.46149-1.93463,1.2721-2.56071a2.429,2.429,0,0,1,3.11926.02595A3.36062,3.36062,0,0,1,359.27354,302.63483Z" fill="#ced7dc"/>
      <path d="M357.41191,322.48443a2.23273,2.23273,0,0,1,2.08257,1.22,6.21831,6.21831,0,0,1-.8822,6.83816c-.54352.52845-.93912.49655-1.21839-.14358a50.05356,50.05356,0,0,1-2.301-4.817C354.53165,323.80314,355.47571,322.53137,357.41191,322.48443Z" fill="#ced7dc"/>
      <path d="M392.31433,292.606c.02373-2.07212,1.28078-2.88641,3.07282-2.12773a4.63147,4.63147,0,0,1,1.04346.59974c.97854.76587,1.857,1.66791,1.67618,3.01039-.1907,1.4151-1.40037,1.86947-2.58314,2.21639-2.155.63206-2.18811.61006-2.79953-1.62688C392.52547,293.95107,392.42851,293.19666,392.31433,292.606Z" fill="#ced7dc"/>
      <path d="M213.763,388.21352a4.40612,4.40612,0,0,1-2.08952,3.819c-1.18057.69837-1.90361.29192-2.10146-1.02734a7.53347,7.53347,0,0,1,.27692-4.46387c.45213-.971,1.02316-1.91427,2.2537-1.76384,1.31106.16033,1.34569,1.38353,1.6,2.35441A5.9413,5.9413,0,0,1,213.763,388.21352Z" fill="#ced7dc"/>
      <path d="M483.64811,295.96069A10.53209,10.53209,0,0,1,485.3437,291.81c.14432-.21137.28231-.52912.61347-.4128a4.08286,4.08286,0,0,1,2.6686,1.90647,2.33,2.33,0,0,1-.5652,2.6067,4.3914,4.3914,0,0,1-2.83835,1.663C484.114,297.69215,483.58863,297.21009,483.64811,295.96069Z" fill="#ced7dc"/>
      <path d="M398.06361,328.77845a2.28813,2.28813,0,0,1,2.47741,2.70529,5.50806,5.50806,0,0,1-.485,1.52595c-.38817.81069-.81414,1.70288-1.92125,1.59441-1.07027-.10485-1.40975-1.03333-1.68641-1.879a5.64424,5.64424,0,0,1,.13947-3.17293C396.796,328.72617,397.57981,328.95412,398.06361,328.77845Z" fill="#ced7dc"/>
      <path d="M368.96571,290.22548c-.68332-.158-1.25853-.73024-.78962-1.28342.85815-1.01239.82134-2.22029,1.16188-3.34121.21087-.694.576-.97436,1.27988-.73171,1.2275.42315,2.96983.73828,3.1844,1.90185.17271.93638-1.39883,1.77262-2.447,2.39534A10.0964,10.0964,0,0,1,368.96571,290.22548Z" fill="#ced7dc"/>
      <path d="M495.0316,267.928a9.481,9.481,0,0,1,.86758-3.56105c.2803-.54423.57676-.78213,1.10856-.28426a2.88808,2.88808,0,0,1,1.07711,2.60011,3.05539,3.05539,0,0,1-2.01824,2.637C494.71061,269.73834,495.38894,268.35819,495.0316,267.928Z" fill="#cdd6db"/>
      <path d="M327.84077,353.51352q-.248-.00362-.49575-.007.00024-1.31811.00016-2.63662A4.892,4.892,0,0,1,327.84077,353.51352Z" fill="#50626e"/>
      <path d="M517.19947,294.99245c.31466-.19029.18361-.52405.257-.7921a7.81665,7.81665,0,0,1,.4432,2.4399A2.56768,2.56768,0,0,1,517.19947,294.99245Z" fill="#a5b3bb"/>
      <path d="M425.25041,338.37088q.14127-.13459.28273-.26926a2.26411,2.26411,0,0,1,.53051,1.30462A1.52189,1.52189,0,0,1,425.25041,338.37088Z" fill="#a6b3bc"/>
      <path d="M495.83118,297.41678q.13671-.125.27356-.25a1.12477,1.12477,0,0,1,.08051,1.31959Z" fill="#9eacb5"/>
      <path d="M459.30864,309.71527a2.32312,2.32312,0,0,1,2.37188,2.24731,2.27786,2.27786,0,0,1-2.26756,2.3283,2.19927,2.19927,0,0,1-2.32867-2.22833A2.23108,2.23108,0,0,1,459.30864,309.71527Z" fill="#020202"/>
    </g>
    <g>
      <path d="M146.8729,174.52651c8.6204-1.08769,17.235-2.20746,25.508-5.21387a9.42527,9.42527,0,0,1,3.29755-1.48379c9.498-3.6699,18.48084-8.53048,27.49138-13.33077a4.86548,4.86548,0,0,1,2.38721-.94092c6.27364-3.44165,12.51245-6.95247,19.17672-9.51677,13.23076-5.091,26.61612-5.02718,40.18183-1.72136,15.76143,3.8409,29.55953,11.85776,42.37173,22.04681,3.2625,2.59456,6.47815,5.25561,9.71533,7.88611.77811.46751.69755,1.19894.474,1.92272a15.13147,15.13147,0,0,0-.32685,5.632c.224,3.09345,1.96994,5.25024,4.23484,7,.36846.28465.83285.42254,1.12936.81782.02232.41452.259.52581.62068.59944.59725.1216,1.27308.169,1.50837.95907q.01488.13061.01868.26211c-1.32625.608-2.71832.22853-4.03616.12056-5.78869-.47429-9.44275,2.53612-11.83393,7.797-.299.658-.62769,1.30151-.90173,1.97155a1.7253,1.7253,0,0,1-1.54549,1.2465c-6.57621-.03943-12.74147-1.94051-18.70486-4.7147-1.4644-.68124-2.8746-1.49348-4.29266-2.28084-.65349-.36283-1.356-.68391-1.63943-1.50882.45511-1.19235,1.25188-.49713,1.86757-.3065a5.10281,5.10281,0,0,0,3.35765.32525c2.1993-.24349,4.3998-.15769,6.48266-1.39245,3.764-2.23141,6.03255-7.70318,5.68471-12.28662a14.31224,14.31224,0,0,0-4.69561-9.81058,3.1361,3.1361,0,0,1-.87053-1.1128c-.71432-2.17853-.7186-4.491-1.02527-7.1366a3.5136,3.5136,0,0,0-.43888,2.81026c.07355,1.185.65334,2.34264.17248,3.56023a10.17106,10.17106,0,0,1-4.546-.85048c-1.12363-1.28526-1.20121-2.96822-1.51593-4.55975a4.52907,4.52907,0,0,0-.85292-2.40121c-.43515,2.66379,1.08811,4.73453.79764,7.02766a4.00259,4.00259,0,0,1-2.48534,1.30582,22.62489,22.62489,0,0,1-3.32481-4.60408c-.26155-.42547-.37747-1.501-1.0939-.9808-.56214.40821.14012,1.07444.40769,1.57.83,1.53753,2.24839,2.61419,2.96882,4.243a6.84092,6.84092,0,0,1-2.75479,2.86691,8.6661,8.6661,0,0,0-3.57038,5.17468c-1.33707,4.83272-.66368,9.24949,2.66193,13.046.40914.46707,1.18788.90166.58587,1.78772-.70615.18737-1.20538-.25681-1.70949-.653a52.0524,52.0524,0,0,1-8.88248-9.10468c-1.16482-1.49881-.39646-2.70791.14761-4.02481a9.21734,9.21734,0,0,0,.4632-2.21076c-.02839.2274-.13885.79761-.20529,1.37984-1.23987,3.74166-3.90641,5.263-7.72774,5.43743.938-.001,1.63637-.34937,2.25971.17037a.6639.6639,0,0,1-.09109.68066c-3.46539,4.69336-5.18741,10.15149-6.19771,15.92379a11.93948,11.93948,0,0,1-.29082,1.24364c-.76259,1.67127-.90776,1.70973-1.95584.30614-1.23338-1.6517-2.54887-3.23-3.78969-4.87391a2.22635,2.22635,0,0,0-1.16623-.99024c-2.50655-.858-5.01227-.24788-7.4951.07492a43.84137,43.84137,0,0,0-20.18779,7.73549,27.90274,27.90274,0,0,0-5.48338,5.22925,100.97529,100.97529,0,0,1,12.27949,4.87421c.63473.2898,1.50705.34118,1.59549,1.3758a159.95326,159.95326,0,0,1-18.18868-.85937c-7.76377-.66483-15.49572-1.67222-23.2151-2.78146-7.60365-1.0926-15.186-2.3697-22.82837-3.13347a64.53075,64.53075,0,0,0-12.3525-.513c.03854-1.218,1.10793-1.60549,1.72219-2.34311.72182-.86674.52536-1.21017-.44635-1.40192-1.96123-.387-3.8933.11987-5.8147.314-3.64954.36878-7.276.99632-10.89442,1.66276-1.49056.27453-2.44617.83917-2.65828,2.53365-.06735.53806-.044,1.28235-.82985,1.40554-.464-1.23388-1.32721-.36654-1.8622-.25042a166.65056,166.65056,0,0,0-21.89133,6.358,149.08971,149.08971,0,0,0-28.45771,13.80751c-.33631.2119-.69264.38791-1.24014.692a26.507,26.507,0,0,1,2.37707-8.49055,37.69448,37.69448,0,0,1,15.69794-17.67473c1.248-.71873,1.23235-1.08353.307-2.15737C94.13862,192.70373,88.00525,185.1069,83.26,176.38167A27.81774,27.81774,0,0,1,80,167.83441a35.51263,35.51263,0,0,0,8.86162,3.0942,218.624,218.624,0,0,0,24.31539,3.92583,92.49631,92.49631,0,0,0,11.33915.73175c.577-.00639,1.2813.34767,1.72442-.40217a1.177,1.177,0,0,1,.65889-.16812c5.8333.526,11.62627-.1006,17.41861-.701A23.17444,23.17444,0,0,1,146.8729,174.52651Z" fill="#958d85"/>
      <path d="M306.25445,200.14534c.81243.09029,1.00281-.51928,1.29-1.15694,1.31079-2.91048,2.603-5.82422,5.211-7.79a8.97963,8.97963,0,0,1,5.73933-2.0778c2.05769.05338,4.13241-.2347,6.16682.32452a2.60485,2.60485,0,0,0,1.64539.50135c.35464.41284.85926.00632,1.24561.25452a12.60846,12.60846,0,0,0,4.57683,1.73348c.31557.17634.18067.62806.45136.83241,1.33545.40975,2.64157,1.11539,4.08289.45687a1.90087,1.90087,0,0,1,.59977.36342,34.84581,34.84581,0,0,0,7.25331,2.22086,2.64472,2.64472,0,0,1,.78072.636l1.39.46311c.51876.23643,1.02026-.0105,1.52858-.06313a47.19052,47.19052,0,0,1,5.17681,1.25734c1.89553.45839,1.89541.4714,2.14376-1.491a1.69175,1.69175,0,0,1,.50451-1.2986c.61156-.10247.34616.51881.55089.75237.01224.1814.03738.363.03477.54416-.0435,3.01533-.04428,3.01532,2.826,3.6086.49876.22381,1.00275-.18784,1.5026.00978,2.1606.63123,4.32682,1.24236,6.46432,1.96237a3.09413,3.09413,0,0,1,.634.4926c.88006.42855,1.741,1.02252,2.7475.35926a1.67647,1.67647,0,0,1,.67282.21687c1.68793.82934,3.49455,1.30272,5.23765,1.962.38876.18909.8327.20638,1.21392.424.30912.9389,1.11254.85246,1.81029.98521.30575.09135.62692.0681.936.138,2.15078.58527,4.08866,1.80949,6.25492,2.34912.36328.16337.62291.49511.977.67464a51.27044,51.27044,0,0,1,4.67453,2.80753,1.88434,1.88434,0,0,1,.6409.71361c.14231.57739.63534.84566.97992,1.24188,1.88555,2.168,1.62183,4.16157-.76421,5.72145a9.72787,9.72787,0,0,1-4.57956,1.42115,5.25,5.25,0,0,0-1.831.40566c-.56541-.05971-1.084.326-1.65792.19981-2.538-.08458-4.99231-1.06569-7.56369-.78214-.67768-.05919-.92721-1.16957-1.77624-.81126-2.88206-.59274-5.80625-.94151-8.6559-1.71341a10.05409,10.05409,0,0,1-1.07679-.21289q-4.67428-1.29036-9.35934-2.53509a8.46033,8.46033,0,0,0-2.17214-.60793,73.71344,73.71344,0,0,0-9.04335-2.52326,8.85283,8.85283,0,0,0-1.6368-.64c-2.84681-.90832-5.68408-1.84738-8.56126-2.64047a6.8338,6.8338,0,0,1-1.298-.26367,70.52712,70.52712,0,0,0-7.48054-2.52195c-.41771-.14443-.83944-.27662-1.252-.43864a100.84326,100.84326,0,0,0-9.8568-3.21076c-.44214-.13494-.78124-.50629-1.24239-.5991-2.76349-1.08292-5.63976-.57562-8.4712-.71645-.74515-.037-1.77409.369-2.04785-.93633,1.97386-.92039,3.92494-.09637,5.70105-.14851-.41342-.25268-1.12216-.08483-1.79334-.16194C307.21662,200.77337,306.4626,201.11486,306.25445,200.14534Z" fill="#817a73"/>
      <path d="M231.08291,212.92627A83.86025,83.86025,0,0,0,218.013,207.4556c-.48988-.16019-.98645-.29713-1.64156-.49326a29.81462,29.81462,0,0,1,8.99179-7.83071,45.744,45.744,0,0,1,18.76394-6.04626c1.65949-.17027,3.30728-.22621,4.96278-.31354a1.70174,1.70174,0,0,1,1.63322.75749,1.35089,1.35089,0,0,1,.47088.52493c2.876,7.03164,7.45632,13.00254,10.85761,19.71047a92.04377,92.04377,0,0,1,6.89893,16.71843c.17326.61774.54909,1.24968.08518,1.90975-3.73974-2.07142-7.46432-4.17442-11.2223-6.20781q-12.38748-6.70263-25.12058-12.63321C232.17011,213.30952,231.62018,213.13328,231.08291,212.92627Z" fill="#817a73"/>
      <path d="M205.557,153.55716c-3.98566,2.55153-8.23752,4.556-12.397,6.74422a161.71988,161.71988,0,0,1-18.62628,8.45264,4.783,4.783,0,0,1-2.15283.55863c-3.99464-6.67532-9.00706-12.47484-13.95937-18.32707-2.44657-2.89116-4.87314-5.80141-7.54911-8.98936a90.77879,90.77879,0,0,1,10.95728-.08607,109.4669,109.4669,0,0,1,29.47587,5.05768,82.01541,82.01541,0,0,1,12.46435,5.238A3.52374,3.52374,0,0,1,205.557,153.55716Z" fill="#817a73"/>
      <path d="M256.92243,199.36839c.81763-5.84116,2.37632-11.39511,5.55729-16.33148a5.30045,5.30045,0,0,1,1.40789-1.5599c1.50807-1.0186,1.88693-.87768,2.19671,1.02584a49.65745,49.65745,0,0,0,4.9142,15.90064c4.24,7.82485,10.02383,13.67053,18.71239,15.28358,7.90341,1.4673,15.24336-.45677,22.061-4.82992.49007-.31436.94187-.69488,1.45908-.96675,2.71194-.94085,5.57246-.3934,8.32524-.93644a2.88708,2.88708,0,0,1,.85638-.02694c.81767.08826,1.98231-.73915,2.37888.216.44765,1.07814-.88971,1.52574-1.51987,2.08542a22.839,22.839,0,0,0-3.64734,3.83116,2.62257,2.62257,0,0,1-1.37413,1.04455,95.40426,95.40426,0,0,1-22.31189,2.61781,2.7652,2.7652,0,0,1-.569-.08634,10.87854,10.87854,0,0,0-3.2147-.3927,9.896,9.896,0,0,0-2.87414-.37087,158.66284,158.66284,0,0,1-22.26451-2.1043c-.59969-.09527-1.25192-.32637-1.77228.27216-.52357.15527-.717-.2795-.90361-.62728a122.20551,122.20551,0,0,0-6.93671-10.99818A3.20473,3.20473,0,0,1,256.92243,199.36839Z" fill="#e7e2de"/>
      <path d="M146.8729,174.52651c-1.39868.59125-2.90816.41109-4.353.59225a81.249,81.249,0,0,1-8.88084.49653c-2.1508.03248-4.29569.57086-6.44-.06507-.32617-.09673-.63938-.24289-.95851-.3662-4.83511-3.75221-8.46465-8.593-11.60793-14.24515a26.0691,26.0691,0,0,1,9.039,1.25187,43.89451,43.89451,0,0,1,15.334,7.12039C141.537,171.18821,144.24474,172.7968,146.8729,174.52651Z" fill="#827b73"/>
      <path d="M322.52644,188.00456c-5.07092-2.68435-7.18534-7.98582-5.52375-13.88571.17877-.63476.51971-1.24337-.00007-1.86688,1.117-.24545,1.10321-1.47695,1.68867-2.1859.54275-.80835.95273-1.78629,2.08451-1.84221a2.93788,2.93788,0,0,0,2.37631-1.4668,4.29632,4.29632,0,0,1,1.66266.68911l2.845.77877a1.803,1.803,0,0,1,1.42358,1.11687c4.23631,4.87089,4.638,10.64245,1.10807,15.90622A6.34458,6.34458,0,0,1,322.52644,188.00456Z" fill="#f3f3f3"/>
      <path d="M135.57685,207.80992c.01232-3.85946,2.47913-4.37968,5.37322-4.826,4.32436-.6669,8.66555-1.156,12.99459-1.76107a11.71638,11.71638,0,0,1,3.20972.41928c.8102.1071.66508.64775.189,1.12881q-1.421,1.43574-2.84509,2.86805c-5.23061,4.63366-11.31441,7.62213-17.57732,10.25361-1.43089.60123-2.91125,1.06956-4.82316,1.76409A78.37038,78.37038,0,0,0,135.57685,207.80992Z" fill="#827b73"/>
      <path d="M256.92243,199.36839a4.07578,4.07578,0,0,0,.77336,2.7113c2.72689,3.83517,5.202,7.8523,7.5478,11.96031a60.97989,60.97989,0,0,1,6.34854,16.04241c.29077,1.3743-.01418,2.787.75974,4.37807a9.84673,9.84673,0,0,1-3.31613-2.06761c-2.30619-8.8311-6.303-16.8155-10.80494-24.56238-2.58282-4.44451-5.61533-8.623-7.32954-13.598-.07822-.227-.11929-.46854-.17789-.70326.63224-.36987.74475.28874.98959.601,1.42045,1.81183,2.88176,3.59382,4.199,5.48812C256.63476,200.6578,256.62167,199.57887,256.92243,199.36839Z" fill="#b9b3ae"/>
      <path d="M295.26863,216.21111q.15764.03252.31691.05443c4.46036,1.62544,8.56669,4.092,12.8553,6.12565,6.17478,2.92809,12.27975,6.0187,18.47451,9.45736a27.03353,27.03353,0,0,0-1.105-5.49791,33.26083,33.26083,0,0,0-3.61554-9.83879,2.50353,2.50353,0,0,1-.48969-1.71319c.26562-.4522.58381-.73869,1.10093-.39335,3.9886,6.50266,5.18117,13.96374,6.61018,21.664-12.13454-6.94094-24.38984-13.09328-36.52187-19.50905C293.5664,215.52741,294.46161,216.20777,295.26863,216.21111Z" fill="#827b73"/>
      <path d="M322.806,214.40531l-1.04146.42644c-.90885,1.26413-2.29741,1.4687-3.61159,1.79258-.5469.13478-1.24459.158-1.51441-.49524-.21845-.52885.225-1.01431.502-1.47228.29385-.48588.81948-.64318,1.20426-.99776,2.10368-2.131,3.903-4.60713,6.35119-6.50924l-11.49627,1.032a3.44053,3.44053,0,0,1-1.427.48008,24.20206,24.20206,0,0,1-2.66656.00665,1.50724,1.50724,0,0,1-1.49544-.91261c.09128-.84326.7298-.75022,1.26465-.83542a2.12936,2.12936,0,0,0,1.7719.06791c3.99652-.71289,8.05237-.69613,12.069-1.15191a6.07617,6.07617,0,0,1,2.84369.48345c.38846.0587.831-.0508,1.09428.39728.08829.87569-.65191,1.06336-1.11243,1.43751a36.22342,36.22342,0,0,0-6.038,6.09182,94.99059,94.99059,0,0,1,12.50883-4.91955,2.64239,2.64239,0,0,1,2.16874-.07744l1.51818.07276c.31572.7856-.25542,1.24952-.58865,1.78881-1.51128,2.44591-3.36812,4.64037-4.75232,7.37106a66.35978,66.35978,0,0,0,12.05058-5.57588c.56-.35726,1.0926-.92161,1.86283-.68582.53195.06089,1.23787-.25195,1.35059.70965a.60489.60489,0,0,1-.04056.68039c-2.048,2.35525-3.20931,5.28685-4.65461,8.03439a2.84176,2.84176,0,0,1-1.17251,1.29134c-.282-.02793-.51384-.09771-.35382-.48758a49.798,49.798,0,0,1,4.17876-7.99881c.14443-.45087-.00882-.58348-.41851-.44193A67.5682,67.5682,0,0,1,328.209,220.7456c1.48239-4.082,3.74642-7.30546,6.26334-10.82087-3.67233,1.22257-7.10422,1.92085-10.28769,3.46973C323.68583,213.63716,323.07194,213.77415,322.806,214.40531Z" fill="#6a6a73"/>
      <path d="M322.52644,188.00456c4.44366.224,7.02083-1.4134,8.66361-5.50446,1.71109-4.26118.88213-9.59666-1.94613-12.53473-.18994-.19731-.53578-.25855-.50841-.64863.139-.26981.28918-.51759.64143-.37014.02346.492.35791.69345.70032.94228a10.65474,10.65474,0,0,1,3.99051,12.13016c-1.35383,4.62779-4.57043,7.0728-9.42477,7.164C324.1,188.46077,322.84705,189.1778,322.52644,188.00456Z" fill="#6e645d"/>
      <path d="M366.21079,218.39145l1.22368.08447c.08593,1.33677-.91757,2.171-1.35434,3.26812-.64058,1.609-1.51262,3.10978-2.23922,5.02911,3.248-1.72008,6.27783-3.22609,9.12537-5.11695a4.753,4.753,0,0,1,3.346-1.17955c.27177.0531.46886.164.35684.51574-4.64463,2.61127-9.09659,5.64713-14.43251,7.47328a30.50845,30.50845,0,0,1,3.7585-9.0483c-4.15286,1.96531-7.57891,4.613-11.67521,5.66134-.36282.19807-.456-.03639-.49959-.3506a1.67665,1.67665,0,0,1,.90875-.797,99.7449,99.7449,0,0,0,9.68935-5.145A2.20212,2.20212,0,0,1,366.21079,218.39145Z" fill="#6d6d76"/>
      <path d="M393.21928,213.31193a.69356.69356,0,0,1-.67206-.33294c.72938-2.2968,2.89334-3.13213,4.28451-4.90543A44.25305,44.25305,0,0,0,390.112,209.582a4.78936,4.78936,0,0,1-2.32417.46118.7441.7441,0,0,1-.78068-.79584,3.66606,3.66606,0,0,1,.89173-2.65217,40.29619,40.29619,0,0,0,1.95811-4.44638,31.48351,31.48351,0,0,0-6.44837,3.36331,7.4553,7.4553,0,0,1-2.87123,1.55624.76605.76605,0,0,1-.80151-.43934c3.70136-2.51972,7.40949-5.02444,12.043-6.22656a87.88219,87.88219,0,0,1-4.12372,8.90612A40.81521,40.81521,0,0,1,400,206.62972C397.69091,209.2291,395.00177,210.7641,393.21928,213.31193Z" fill="#717179"/>
      <path d="M353.90643,224.76089l.41335.31777a4.50831,4.50831,0,0,1-2.55034.63813,53.96738,53.96738,0,0,1,3.42931-9.08288c-6.00154,2.50222-11.352,5.2984-17.16334,8.14135.608-1.0359.98685-1.68123,1.36563-2.32656l.29408.39366c4.64994-2.553,9.43408-4.81562,14.0929-7.34958a.93679.93679,0,0,1,1.12507.00474,1.20339,1.20339,0,0,1,1.75076.37444c.25441.71661-.30106,1.11649-.59344,1.587a27.06762,27.06762,0,0,0-2.49641,5.747C353.35732,223.84958,353.29756,224.3611,353.90643,224.76089Z" fill="#6f6f77"/>
      <path d="M324.81477,167.44617c-.51188-.345-1.56236.777-1.66266-.68911.45353-1.62906.99919-3.2376,1.32614-4.89485.19727-.99989.599-1.12937,1.40648-.95866,1.062.22451.66168.93536.48471,1.5323C325.87218,164.113,325.33574,165.777,324.81477,167.44617Z" fill="#0a0a0a"/>
      <path d="M345.29746,196.44412a.70239.70239,0,0,1-.71024-.35857c-.91835-1.41757.45067-2.75956.12453-4.25309-1.98645.31459-3.80607,1.20463-5.72828,1.67422-.64148.15674-1.28329.59588-1.94019.04086l-.37958-.32375,10.20656-3.36477A30.82128,30.82128,0,0,0,345.29746,196.44412Z" fill="#75757d"/>
      <path d="M320.7758,168.22386a8.29333,8.29333,0,0,1-2.08451,1.84221,34.04653,34.04653,0,0,0,.35972-5.23977c-.04532-.79047.28008-1.04065,1.00718-1.02446.68424.01524,1.10654.15992,1.024,1.00155C320.97043,165.94248,320.87705,167.08361,320.7758,168.22386Z" fill="#0a0a0a"/>
      <path d="M329.37694,168.9466q-.32073.185-.64143.37009-.53787-.54582-1.07575-1.09174a27.93078,27.93078,0,0,0,.656-3.19451c.08324-.88021.295-1.06161,1.138-.947.94789.12882.9819.62434.80885,1.35135C329.98305,166.60956,329.67372,167.7764,329.37694,168.9466Z" fill="#0d0d0d"/>
      <path d="M385.64391,222.10717c.45959-.17492.91815-.6692,1.38051-.00508-3.59462,2.24084-6.93688,4.98384-11.02,6.2528-.37063.15225-.435-.089-.44993-.39446.61247-1.00444,1.75259-1.06787,2.6104-1.64008,1.83937-1.227,3.7876-2.26208,5.59863-3.54257A2.2876,2.2876,0,0,1,385.64391,222.10717Z" fill="#707078"/>
      <path d="M377.92561,205.6438c-.34062.20539-.68829.48009-.9482-.10879-.4302-1.11928.303-1.97867.60272-2.92438.38406-1.21189.90765-2.37067,1.31157-3.59437-.29684-.45945-.761.04509-1.07687-.22038a.28382.28382,0,0,1-.155-.25932q.0096-.16515.05209-.16515c.7759-.4619,1.71752-1.5367,2.35077-1.05346.65315.49843.05431,1.789-.22942,2.68174C379.23152,201.89331,378.56535,203.76381,377.92561,205.6438Z" fill="#717179"/>
      <path d="M348.099,197.16358c-.48033-.02464-.99687.17563-1.41157-.25639.939.03819,1.56272-.66443,2.301-1.10108,2.723-1.6107,5.44887-3.21608,8.51349-5.024-.32632,1.46238-.55856,2.50324-.79082,3.54409a.82213.82213,0,0,1-.57333-.45734c-.10507-.55-.1403-1.08255-.92317-.58927-1.61991,1.02065-3.28934,1.95184-4.947,2.90359A8.39084,8.39084,0,0,1,348.099,197.16358Z" fill="#7a7a81"/>
      <path d="M368.05372,202.68169l-.76613-.04443c-.32419-1.70824.41635-3.26552.6118-4.9.071-.594.57973-1.27145-.24829-1.72377a.912.912,0,0,1-.33666-.31374c.72791-.435,1.45581-.87,2.55047-1.52414C369.2038,197.28048,368.62877,199.98109,368.05372,202.68169Z" fill="#76767e"/>
      <path d="M367.31444,195.69977l.44684.04417a.66451.66451,0,0,1-.1824.6675c-2.17873,1.5553-4.297,3.22921-6.85179,4.07053-.434-.03813-.90735.13716-1.27428-.265C362.09562,198.755,364.53918,196.90153,367.31444,195.69977Z" fill="#75757d"/>
      <path d="M375.64813,228.02023l.35625.33466c-.634.50616-1.35862.40978-2.29166.50543.75949-2.37724,1.962-4.28947,2.80465-6.37124.1708-.42187.98327-.91248.15174-1.49669l-.43477-.41782.00743-.24789c.83113-.18913.99965.67854,1.48056,1.048.0535,1.81141-1.20991,3.06429-1.74049,4.62829C375.76005,226.65673,375.15948,227.23522,375.64813,228.02023Z" fill="#7c7c84"/>
      <path d="M377.7119,198.37141q.002.152.00281.30387c.04209.12013.0869.28646.0176.34631-2.01486,1.74-3.83736,3.80482-6.52873,4.41528l-.40232-.39593A40.19413,40.19413,0,0,1,377.7119,198.37141Z" fill="#72737b"/>
      <path d="M332.58077,192.76693c-.33744-.11276-.4036-.40317-.42093-.72558-.07859-1.29112,1.12894-1.65539,1.62039-2.55153a2.5466,2.5466,0,0,1-1.26221-.16865.888.888,0,0,1-.42664-.61217,10.97278,10.97278,0,0,1,4.07133-.42385C334.91168,189.9711,333.35528,191.03529,332.58077,192.76693Z" fill="#71727a"/>
      <path d="M332.09138,188.709l.42045.36228a5.80574,5.80574,0,0,1-5.09987,1.19786c-.40223.02367-.95494.629-1.10493-.32264A25.59361,25.59361,0,0,1,332.09138,188.709Z" fill="#6f6f77"/>
      <path d="M295.26863,216.21111c-.77948.20838-1.654-.31314-2.37433.34916l-.73976-.3173A3.07837,3.07837,0,0,1,295.26863,216.21111Z" fill="#b9b3ae"/>
      <path d="M356.37244,193.90035l.33856.42583q-.05942.869-.11894,1.738l-.30347-.75A.97524.97524,0,0,1,356.37244,193.90035Z" fill="#686770"/>
      <path d="M343.16127,214.008c.289-.309.64658-.79738,1.00862-.43956.18983.18761-.25922.66542-.59013.88148Z" fill="#dddee0"/>
      <path d="M279.78917,170.12835l2.71127-2.61313c.163-.50025.46395-.69586.94892-.48485l2.54708-1.07106a1.48393,1.48393,0,0,1,1.67613-.291,13.91246,13.91246,0,0,1,4.53935,1.01405c.83519-.38314,1.18276.36523,1.66186.80845a15.07422,15.07422,0,0,1,5.6869,10.78148c.58036,7.06051-4.18175,14.86888-11.75905,14.18409a7.99786,7.99786,0,0,0-.85724.01133c-3.21649.03777-5.56637-1.74775-7.37438-4.299a15.29511,15.29511,0,0,1-1.68721-15.54333A4.77846,4.77846,0,0,1,279.78917,170.12835Z" fill="#f3f3f3"/>
      <path d="M311.825,208.19417l1.37476-.01236a25.99045,25.99045,0,0,1-12.76543,5.84707c-16.88113,3.25419-27.56442-7.40424-32.4235-21.43765a59.68639,59.68639,0,0,1-2.53607-11.35758l-1.587.24335h-2.39336c3.21514-1.03271,6.32619-2.076,7.56931-5.89424.82978.12041.41918.66388.3315,1.09722-1.37255,2.09127-.31986,3.50636,1.01881,5.09351a51.126,51.126,0,0,0,8.93226,8.51434A3.84685,3.84685,0,0,1,281.811,192.04a48.1414,48.1414,0,0,0,24.44364,8.10522c.60521.503,1.31132.21148,1.971.27494a3.28874,3.28874,0,0,1,2.13508.87318h-6.52648a2.27267,2.27267,0,0,1-1.98049.33543c-11.73565-1.72544-22.03474-6.61125-30.39927-15.701-1.28449-1.39584-2.31941-3.02235-3.68121-4.82873.73583,5.54719,1.32924,10.77721,4.37289,15.234,5.07016,9.71726,12.24294,16.11387,23.219,16.07961a30.75274,30.75274,0,0,0,11.44441-2.34148A44.46058,44.46058,0,0,1,311.825,208.19417Z" fill="#381534"/>
      <path d="M281.811,192.04a7.38391,7.38391,0,0,1-2.46474-1.75242c.35889-.97513-.55893-1.18337-.95188-1.61594-4.47632-4.9279-4.27859-13.66612.47185-18.25154.23206-.224.43035-.8762.92294-.29177a14.97784,14.97784,0,0,0-1.3297,15.3313,11.5741,11.5741,0,0,0,8.48494,7.00807c-1.05747.7424-2.07055.11991-3.10678-.09055C283.16755,192.241,282.59008,191.42572,281.811,192.04Z" fill="#6f655e"/>
      <path d="M287.67257,165.6683l-1.67613.291c-.44077-1.94675-.89788-3.88958-1.31361-5.84236-.14877-.69887-.36617-1.47072.67806-1.69517,1.08464-.23314.87381.6277.971,1.22753A41.00631,41.00631,0,0,0,287.67257,165.6683Z" fill="#070606"/>
      <path d="M283.44936,167.03038l-.9489.48484a24.54821,24.54821,0,0,1-3.7561-4.90609c-.32525-.56973-.72993-1.13519.10215-1.67121.81748-.52663,1.11938.019,1.36568.67042C280.97659,163.63011,282.78056,164.94739,283.44936,167.03038Z" fill="#060606"/>
      <path d="M293.87378,167.4908l-1.66184-.80843a28.76018,28.76018,0,0,1-.7478-5.40645c.00478-.63012-.15884-1.39167.84936-1.43918.99226-.04677.96074.6275.92315,1.31569A27.74124,27.74124,0,0,0,293.87378,167.4908Z" fill="#070707"/>
      <path d="M269.39512,176.68c-.06987-.37968.07819-.8337-.33154-1.0973q.203-.93921.40585-1.87857C269.70831,174.74092,269.98917,175.74471,269.39512,176.68Z" fill="#52354b"/>
      <path d="M271.77852,196.48014c-2.633-3.74087-3.57239-8.1128-4.08832-12.619a13.4168,13.4168,0,0,1-.31988-4.01513c9.088,13.26827,21.47788,19.87874,36.46382,21.44726a13.60021,13.60021,0,0,0,5.09363.20952,17.52712,17.52712,0,0,1,5.862.85452c.66806.63121.05128,1.00443-.31735,1.23866-1.80109,1.14442-3.41279,2.63915-5.441,3.36765-.43477.22659-.776.72065-1.35495.53491-1.03936-1.49645-2.14163-.995-3.50274-.3967-2.69688,1.18558-4.94085.50446-6.76531-1.7556-.40065-.49632-.75962-.70252-1.32062-.39247-.30586.169-.61224.33756-.92313.49609-3.11855,1.59042-5.77425.85559-7.51882-2.29418a2.3801,2.3801,0,0,0-2.74449-1.52045c-2.53965.36166-4.72511-.1879-5.65628-3.17627-.32456-1.04166-1.0632-.63781-1.726-.51479C275.40971,198.3357,273.392,198.29544,271.77852,196.48014Z" fill="#f3f3f3"/>
      <path d="M354.91309,215.49752c-4.56506,2.318-9.12517,4.64708-13.7028,6.93665-.45723.2287-.87056.87795-1.51483.40819,2.12764-3.20124,3.20432-7.11222,5.927-9.91209.10351-.051.21495-.15915.30931-.14434A28.19723,28.19723,0,0,1,354.91309,215.49752Z" fill="#bfbec0"/>
      <path d="M344.27193,212.22051c-4.47253,3.13859-9.46615,5.04185-14.72418,7.06338,1.60353-3.84735,4.337-6.59164,6.15134-9.96178C338.53679,210.35579,341.52015,210.90147,344.27193,212.22051Z" fill="#bfbec0"/>
      <path d="M353.90643,224.76089c-.385.04264-.799.46923-1.12854.15965-.37924-.3563.05028-.78484.16831-1.15172a24.68685,24.68685,0,0,1,3.71763-7.89682,55.4074,55.4074,0,0,1,9.54772,2.51974c-3.67453,1.81162-7.098,4.16009-10.88515,5.7297C354.84766,224.31985,354.3795,224.547,353.90643,224.76089Z" fill="#bfbec0"/>
      <path d="M376.24177,220.32668a.42724.42724,0,0,1-.0069.2483,8.53035,8.53035,0,0,0-3.24879,1.57673,102.69672,102.69672,0,0,1-9.89578,5.50712,47.38133,47.38133,0,0,1,4.34373-9.18311Q371.83835,219.4014,376.24177,220.32668Z" fill="#bfbec0"/>
      <path d="M334.18131,209.24958a86.69613,86.69613,0,0,0-15.86415,6.0411,34.84712,34.84712,0,0,1,8.337-8.57343A23.22042,23.22042,0,0,1,334.18131,209.24958Z" fill="#bfbec0"/>
      <path d="M380.53743,207.06837a32.77369,32.77369,0,0,1,9.72247-5.5238c-.49581,2.98566-2.10825,5.235-3.2526,7.703-.39986.37737-.79039.28848-1.25468.07891C384.02507,208.54665,382.27749,207.8169,380.53743,207.06837Z" fill="#bfbec0"/>
      <path d="M375.64813,228.02023c-.55846.156-1.25811.50391-.70078-.676.93681-1.98349,1.85105-3.979,2.77489-5.96948.20255-.2006.4448-.60554.60152-.5711,2.42527.53283,4.94407.475,7.3201,1.3036A76.25428,76.25428,0,0,1,375.64813,228.02023Z" fill="#bfbec0"/>
      <path d="M325.55994,206.32c-5.17424.15084-10.32073.712-15.47339,1.18164-.21032.10337-.45541.20388-.61222-.02872-.27465-.4074.03146-.71175.3011-.86629,1.97426-1.1315,3.67486-2.76923,5.831-3.56162A41.28261,41.28261,0,0,1,325.55994,206.32Z" fill="#bfbec0"/>
      <path d="M356.37244,193.90035q-.04176.70708-.08368,1.414a2.01594,2.01594,0,0,0-.31683,1.3836c-.12874,2.53905-.13,2.5489-2.38387,1.95564-1.8332-.4825-3.66008-.99217-5.48942-1.48989,2.6077-1.95137,5.528-3.29369,8.39751-5.06631Z" fill="#bebdbf"/>
      <path d="M371.20358,203.43687a49.80463,49.80463,0,0,0,6.51108-4.76183c.57552-.20566,1.151-.41157,1.9929-.71279-.96109,2.6666-1.84539,5.12011-2.72992,7.57319A14.941,14.941,0,0,1,371.20358,203.43687Z" fill="#bfbec0"/>
      <path d="M360.72709,200.482c2.216-1.79454,4.91177-2.78525,7.0336-4.73828.5909-.13724,1.15913-.2966.90981.7588-.48176,2.03952-.92363,4.08967-1.38249,6.13508Q364.00713,201.55946,360.72709,200.482Z" fill="#bfbec0"/>
      <path d="M387.78787,210.04322c3.179-1.56315,6.59857-2.00173,10.33846-2.6386-2.03935,2.0375-3.80925,3.80578-5.57915,5.57422Q390.16757,211.51118,387.78787,210.04322Z" fill="#bebdbf"/>
      <path d="M337.04328,193.54755l8.47536-2.52043c-.20575,1.80155-.91735,3.364-.9314,5.05841-2.59648-.095-4.9719-1.20272-7.44865-1.84512C336.695,194.12533,336.90542,193.80668,337.04328,193.54755Z" fill="#bfbec0"/>
      <path d="M327.412,190.26914q2.55-.59877,5.09987-1.19768a5.46591,5.46591,0,0,0,2.43464-.34927c-1.08491,1.29233-1.93569,2.30577-2.78655,3.31919A5.20526,5.20526,0,0,1,327.412,190.26914Z" fill="#bdbcbf"/>
      <path d="M315.60642,203.045c-1.80946,1.2174-3.62405,2.4264-5.42261,3.66177-.25574.17567-1.19916.38122-.09718.79463-.69411.57949-.96791.22774-1.05515-.53754,1.36581-1.3824,3.09874-2.17957,4.6261-3.30151.44045-.32352,1.3125-.33712,1.13271-1.305Q315.19784,202.70118,315.60642,203.045Z" fill="#7c7d84"/>
      <path d="M318.34479,213.65905c-.40141.84933-1.24768,1.40738-1.45175,2.49229,1.86443.41732,3.27775-.84722,4.87186-1.32,3.4058,5.36918,4.61195,11.53762,5.9569,17.96957-2.00656-1.08264-3.716-2.05692-5.4661-2.94044q-12.59278-6.35749-25.20075-12.681c-.51089-.25741-.98048-.60727-1.46935-.914A118.43408,118.43408,0,0,0,318.34479,213.65905Z" fill="#b9b3ae"/>
      <path d="M320.53722,177.06449c1.22282.161,2.10764,1.737,1.89322,3.37195-.22195,1.69226-1.17658,2.69343-2.37267,2.48834-1.23926-.21252-2.16057-1.81223-1.94583-3.37873C318.33256,177.93688,319.33938,176.90671,320.53722,177.06449Z" fill="#040404"/>
      <path d="M271.77852,196.48014c2.1718,1.20237,4.40412,1.7299,6.75213.60407.50649-.24285.73258-.12018.85642.42555.90672,3.99541,3.21417,4.16612,6.55494,3.5029.88724-.17614,1.14658.10211,1.50936.89518,1.84712,4.03808,4.42964,4.88632,8.12271,2.72032.98-.57475,1.72977-1.25743,2.25167.60667.36975,1.32062,1.65436,1.75186,2.92858,1.87227a5.68814,5.68814,0,0,0,3.84142-.70521c1.59568-1.097,2.49775-.6798,3.08061,1.09643,1.21012,1.39563,2.78322.3458,4.14853.69575a34.67424,34.67424,0,0,1-12.80888,4.39228,21.56685,21.56685,0,0,1-12.005-1.07779C280.08823,208.65362,275.05958,203.54536,271.77852,196.48014Z" fill="#6c404f"/>
      <path d="M295.88632,179.884c-.04561,1.93737-1.61046,3.79929-3.1299,3.72408-1.38049-.06833-2.619-1.64986-2.6172-3.3421.00206-1.96438,1.47166-3.78206,3.06087-3.78582C294.69372,176.47665,295.92968,178.04279,295.88632,179.884Z" fill="#020202"/>
    </g>
  </g>
</svg>
