<svg xmlns="http://www.w3.org/2000/svg" xmlns:xlink="http://www.w3.org/1999/xlink" width="600" height="600" viewBox="0 0 600 600">
  <defs>
    <symbol id="Bertha" data-name="Bertha" viewBox="0 0 960.52 1078.874">
      <g>
        <path d="M317.28546,208.328s-69.21155-5.22354-147.39376,37.02383c-54.071,29.2184-118.27564,92.219-146.31422,163.6046-56.01777,142.62,1.0153,258.51638,34.69287,295.94317,69.02207,76.70609,182.7872,29.09513,167.251-35.05437,0,0-11.95958,22.71069-41.09578,18.66588-40.5946-5.63551-70.66468-123.41-54.62731-201.59219s69.66235-113.76513,69.66235-113.76513l124.24629-127.802Z" fill="#805124"/>
        <ellipse cx="238.02583" cy="248.54595" rx="25.93309" ry="14.76768" transform="translate(-88.19027 138.93554) rotate(-27.66596)" fill="#fff8dc"/>
        <ellipse cx="158.87184" cy="291.2049" rx="25.93309" ry="14.41555" transform="translate(-159.38047 197.63129) rotate(-45)" fill="#fff8dc"/>
        <ellipse cx="92.57134" cy="357.42857" rx="25.93309" ry="14.36044" transform="translate(-252.56644 226.26248) rotate(-54.67108)" fill="#fff8dc"/>
        <ellipse cx="164.41841" cy="343.94087" rx="25.82257" ry="14.00892" transform="translate(-180.30775 181.17535) rotate(-39.17545)" fill="#fff8dc"/>
        <ellipse cx="103.88925" cy="430.48699" rx="25.93309" ry="14.36044" transform="translate(-338.95464 431.63281) rotate(-76.5805)" fill="#fff8dc"/>
        <ellipse cx="44.31176" cy="448.65525" rx="25.93309" ry="14.1786" transform="translate(-402.37767 387.63375) rotate(-76.5805)" fill="#fff8dc"/>
        <ellipse cx="38.09381" cy="540.48002" rx="14.1786" ry="24.56617" transform="translate(-75.48529 10.69744) rotate(-8.06875)" fill="#fff8dc"/>
        <ellipse cx="89.36806" cy="554.79639" rx="14.1786" ry="26.0781" transform="translate(-22.78782 4.15427) rotate(-2.36189)" fill="#fff8dc"/>
        <ellipse cx="69.30347" cy="639.96246" rx="14.07112" ry="25.26531" transform="translate(-289.22128 105.34585) rotate(-27.66596)" fill="#fff8dc"/>
      </g>
      <g>
        <path d="M643.23434,208.328s69.21155-5.22354,147.39376,37.02383c54.071,29.2184,118.27564,92.219,146.31422,163.6046,56.01777,142.62-1.0153,258.51638-34.69287,295.94317-69.02207,76.70609-182.78721,29.09513-167.251-35.05437,0,0,11.95958,22.71069,41.09578,18.66588,40.5946-5.63551,70.66468-123.41,54.62731-201.59219s-69.66235-113.76513-69.66235-113.76513L644.46222,240.955Z" fill="#805124"/>
        <ellipse cx="722.49397" cy="248.54595" rx="14.76768" ry="25.93309" transform="translate(166.8989 773.03307) rotate(-62.33404)" fill="#fff8dc"/>
        <ellipse cx="801.64796" cy="291.2049" rx="14.41555" ry="25.93309" transform="translate(28.88429 652.14265) rotate(-45)" fill="#fff8dc"/>
        <ellipse cx="867.94846" cy="357.42857" rx="14.36044" ry="25.93309" transform="translate(-46.8537 567.73006) rotate(-35.32892)" fill="#fff8dc"/>
        <ellipse cx="789.34251" cy="345.46305" rx="14.00892" ry="25.82257" transform="translate(22.90881 739.14528) rotate(-50.82455)" fill="#fff8dc"/>
        <ellipse cx="856.63055" cy="430.48699" rx="14.36044" ry="25.93309" transform="translate(-76.51833 210.55947) rotate(-13.4195)" fill="#fff8dc"/>
        <ellipse cx="916.20804" cy="448.65525" rx="14.1786" ry="25.93309" transform="translate(-79.10816 224.8822) rotate(-13.4195)" fill="#fff8dc"/>
        <ellipse cx="922.42598" cy="540.48002" rx="24.56617" ry="14.1786" transform="translate(257.82372 1377.91192) rotate(-81.93125)" fill="#fff8dc"/>
        <ellipse cx="871.15174" cy="554.79639" rx="26.0781" ry="14.1786" transform="translate(280.9256 1402.34431) rotate(-87.63811)" fill="#fff8dc"/>
        <ellipse cx="891.21633" cy="639.96246" rx="25.26531" ry="14.07112" transform="translate(-89.38494 1132.14092) rotate(-62.33404)" fill="#fff8dc"/>
      </g>
      <g>
        <path d="M589.25854,1017.78171l-13.211-160.29326H633.5652L653.552,976.38729c52.87525-14.24542,94.99976-8.596,116.25665,35.66966-14.53209-13.65135-34.34856-11.00915-44.477,5.72476-34.32751-9.201-44.91733,11.00915-48.88061,34.34855C645.59241,1046.70343,616.72961,1034.57809,589.25854,1017.78171Z" fill="#bc965d"/>
        <path d="M769.80865,1012.057c10.72466,9.30632,16.85181,29.00746,18.30976,57.17651l-40.16724-29.50926-22.61951-21.94249C733.03187,1001.75206,751.38219,996.06738,769.80865,1012.057Z" fill="#191a14"/>
        <path d="M676.45105,1052.13026c40.05486,3.79061,60.48279-7.68575,84.81268,26.74334,1.37714-19.96887-8.5531-50.09712-35.93207-61.09189C697.01312,1009.08906,680.2406,1021.95083,676.45105,1052.13026Z" fill="#2f3329"/>
      </g>
      <g>
        <path d="M375.54325,1017.78171l13.211-160.29326H331.23659l-19.9868,118.89884c-52.87524-14.24542-94.99975-8.596-116.25665,35.66966,14.53209-13.65135,34.34856-11.00915,44.477,5.72476,34.32751-9.201,44.91734,11.00915,48.88061,34.34855C319.20939,1046.70343,348.07218,1034.57809,375.54325,1017.78171Z" fill="#bc965d"/>
        <path d="M194.99314,1012.057c-10.72466,9.30632-16.85181,29.00746-18.30975,57.17651l40.16723-29.50926,22.61951-21.94249C231.76992,1001.75206,213.4196,996.06738,194.99314,1012.057Z" fill="#191a14"/>
        <path d="M288.35074,1052.13026c-40.05485,3.79061-60.48279-7.68575-84.81268,26.74334-1.37714-19.96887,8.5531-50.09712,35.93207-61.09189C267.78867,1009.08906,284.56119,1021.95083,288.35074,1052.13026Z" fill="#2f3329"/>
      </g>
      <path d="M322.1434,240.955H644.46222s96.92029,37.30981,138.34662,150.72284c18.22491,49.89453,41.33636,133.01562-64.51642,264.85666-71.791,89.41662-89.05615,182.68319-75.47376,242.44573-9.58038-6.18686-21.73059-19.97662-31.23315-36.89372l-3.98956,26.0278a75.01321,75.01321,0,0,1-16.978-17.65711c-2.7207,15.08851-7.82764,29.10967-13.93384,42.68383,0,0-14.60174-109.27917-91.79556-111.1244-91.529-2.18788-98.53922,111.39958-98.53922,111.39958-7.09179-7.69327-15.54865-22.6681-17.59585-42.96567l-17.61475,19.772-5.21451-24.49874c-4.55355,14.10065-17.10121,24.76518-28.50255,32.02058,0,0,33.31574-79.98413-67.04266-226.26926-80.13612-116.80859-103.90531-171.13816-72.72-284.56987C206.60763,281.60908,322.1434,240.955,322.1434,240.955Z" fill="#fff8dc"/>
      <path d="M305.22242,277.086c27.24709-19.73627,92.11133,34.18936,59.88979,52.84393C340.01134,344.462,283.64449,292.71581,305.22242,277.086Z" fill="#9b6631"/>
      <path d="M467.27767,353.39363c-8.104,16.29355-75.3974.44037-81.59236-27.74306-5.07469-23.08689,44.13236-30.60858,77.0939-1.76146C471.839,331.818,472.54522,342.80288,467.27767,353.39363Z" fill="#9b6631"/>
      <path d="M284.96558,363.83807c-22.39923,4.7785-40.32049-50.07825-23.3394-64.29345C278.98581,285.01254,317.993,356.79221,284.96558,363.83807Z" fill="#9b6631"/>
      <path d="M311.38755,351.06746c19.81647-20.19758,84.93263,23.521,69.07369,43.15587-8.56774,10.60768-27.2365,6.90512-43.31946-3.25479C318.50609,379.196,303.34218,359.26754,311.38755,351.06746Z" fill="#9b6631"/>
      <path d="M397.25894,383.21418c-1.16781-18.39286,23.33817-18.77883,45.79807-9.98515,16.4707,6.44874,32.22231,16.81747,29.23219,34.20528C466.83678,439.14067,399.0204,410.95724,397.25894,383.21418Z" fill="#9b6631"/>
      <path d="M292.45181,397.74626c16.72792-16.29355,57.25184,25.07645,36.91025,37.43112C302.53522,451.47092,277.66576,412.14835,292.45181,397.74626Z" fill="#9b6631"/>
      <path d="M373.88841,439.06233c6.57283-17.6075,82.37958-10.93081,73.57226,13.28932S418.325,472.981,409.14882,471.2874C397.21876,469.08557,366.69457,458.33344,373.88841,439.06233Z" fill="#9b6631"/>
      <path d="M554.91,297.60773c-18.93574-6.87043-84.07685,26.54164-57.14528,49.35921C528.76185,373.229,604.977,315.77347,554.91,297.60773Z" fill="#9b6631"/>
      <path d="M560.66426,369.98785c17.61464,19.77013-26.39019,65.08906-53.85609,41.22825C475.23323,383.78559,538.37181,344.9675,560.66426,369.98785Z" fill="#9b6631"/>
      <path d="M581.77233,423.28766c-14.33781-11.90093-67.01713,6.60549-55.9265,36.99075C539.03049,496.40073,605.55209,443.02579,581.77233,423.28766Z" fill="#9b6631"/>
      <path d="M638.57955,336.095c-6.74259-10.23875-24.86431-3.13313-38.13974,9.31325-10.13446,9.50156-17.60106,21.43761-14.09755,35.16372C593.46449,408.47559,659.84468,368.38651,638.57955,336.095Z" fill="#9b6631"/>
      <path d="M592.77893,318.48036c8.80987,19.37611,81.72067-17.89865,66.93819-45.6713C642.76222,240.955,576.71344,283.1465,592.77893,318.48036Z" fill="#9b6631"/>
      <path d="M665.88225,389.9632c-7.48623-19.96-57.94906,13.01418-42.27515,33.32429C635.781,439.06233,675.27689,415.01149,665.88225,389.9632Z" fill="#9b6631"/>
      <path d="M661.68863,348.86562c12.56057,15.26642,65.82991-26.04467,48.23023-46.22345C688.78128,278.40705,642.67125,325.75146,661.68863,348.86562Z" fill="#9b6631"/>
      <path d="M341.42055,31.83685C362.98016,13.65051,415.01843,5.08062,469.599,3.55851c59.337-1.65475,120.19955,3.87036,141.86839,20.244,41.60069,31.43478,89.36444,147.70678,48.87387,200.80074-29.50307,38.68642-103.43646,65.55341-179.75718,67.96474-59.36056,1.87547-115.76454-13.98469-162.63267-52.82223C247.15944,181.08362,283.68562,80.53843,341.42055,31.83685Z" fill="#9b6631"/>
      <ellipse cx="384.23254" cy="37.68431" rx="12.83732" ry="17.28135" transform="translate(24.85693 178.76556) rotate(-27.03512)" fill="#fff8dc"/>
      <ellipse cx="421.07777" cy="46.14244" rx="12.83732" ry="17.7672" transform="translate(10.59628 150.73958) rotate(-20.54926)" fill="#fff8dc"/>
      <ellipse cx="511.17178" cy="25.30794" rx="17.51333" ry="11.95539" transform="matrix(0.3286, -0.94447, 0.94447, 0.3286, 319.29995, 499.77847)" fill="#fff8dc"/>
      <ellipse cx="479.5591" cy="44.37386" rx="17.01191" ry="12.38828" transform="translate(343.59384 506.39055) rotate(-78.88811)" fill="#fff8dc"/>
      <ellipse cx="449.57498" cy="28.80762" rx="11.98814" ry="17.34376" transform="translate(-0.83946 20.18357) rotate(-2.56945)" fill="#fff8dc"/>
      <path d="M479.744,178.19067c-85.26886,0-147.20868,18.67956-150.3819,70.40387,44.48883,32.39172,96.60053,45.69921,151.222,43.97345,58.12823-1.83655,114.86682-17.86139,151.65045-42.48774v-.00006C623.81116,189.33147,565.92084,178.19067,479.744,178.19067Z" fill="#fff8dc"/>
      <path d="M480.58405,292.568c58.12823-1.83655,114.86682-17.86139,151.65045-42.48774v-.00006c-.21384-1.5075-.6572-4.37343-.91913-5.47591-86.59606,47.04053-228.71244,52.55044-301.58379,0-.12183,1.07935-.30147,2.88064-.36952,3.99026C373.85089,280.98626,425.96259,294.29375,480.58405,292.568Z" fill="#e3e0ce"/>
      <g id="Layer_5" data-name="Layer 5">
        <ellipse cx="575.42569" cy="141.80985" rx="77.18785" ry="76.2758" fill="#20211e"/>
        <circle cx="570.10942" cy="131.59302" r="65.67159" fill="#fedd00"/>
        <ellipse cx="538.3295" cy="141.26911" rx="23.57429" ry="23.64532" fill="#241f1d"/>
      </g>
      <g id="Layer_4_copy" data-name="Layer 4 copy">
        <ellipse cx="380.46124" cy="144.0124" rx="77.92602" ry="75.65997" fill="#20211e"/>
        <circle cx="384.89886" cy="135.49105" r="67.6134" fill="#fedd00"/>
        <circle cx="416.53684" cy="142.58837" r="23.17728" fill="#241f1d"/>
      </g>
      <path d="M269.48978,119.37359s15.104-98.90458,174.04133-40.63523c73.13119,26.81124,64.403-69.945,145.67338-78.37871,52.62539-5.46112,80.5037,53.07754,80.5037,53.07754s-64.08976-68.9195-152.57369,47.53552c-32.09933,42.24642-119.62025-4.78706-151.87433-10.71128C310.70613,80.2413,293.29186,88.28669,269.48978,119.37359Z" fill="#fff8dc"/>
      <path d="M469.90654,295.70489c-23.72569-9.23277-56.46706-55.79783-37.35711-89.89281l35.05993,11.211,4.67984,80.09Z" fill="#a08f65"/>
      <path d="M483.85647,156.96217c-11.31476-2.37728-55.89037,29.74457-54.8058,59.772,1.00773,27.9,41.36953,32.26327,44.55179,94.41253h3.18229c32.26355-32.57648,51.96-64.245,51.97709-90.33717C528.77894,194.65927,501.67814,160.70658,483.85647,156.96217Z" fill="#c6b788"/>
      <g id="Layer_8" data-name="Layer 8">
        <path d="M468.27491,294.90654l3.76751,1.656c-1.83129-10.20764-6.09373-28.3475-18.4884-41.79767-9.19544-9.97849-24.45734-24.19979-22.90637-49.37368,0,0-10.34831,19.56728,9.49938,40.7933C453.06818,260.0029,467.35464,280.7727,468.27491,294.90654Z" fill="#615134"/>
      </g>
      <ellipse cx="460.01471" cy="191.80954" rx="15.08415" ry="9.47394" transform="translate(94.28417 530.40312) rotate(-65.42791)" fill="#241f1d"/>
      <ellipse cx="497.76471" cy="190.93454" rx="9.47394" ry="15.08415" transform="translate(-30.96308 259.29118) rotate(-28.35264)" fill="#241f1d"/>
    </symbol>
  </defs>
  <title>character-bertha-full</title>
  <g id="Background">
    <path d="M598.3764,349.58319c-5.49316-44.27188-42.85376-78.18949-44.6571-122.56208-.62091-15.278,39.98938-102.05523-7.94727-145.64992C523.60657,61.21337,506.95007,82.47968,480,90,460,50,340-35.441,220,14.99084,143.76465,47.02989,96.39984,7.95157,60,65.42264,10.78522,143.127,40.30469,323.2471,40.30469,323.2471S-62.41418,505.266,65.45563,562.09462c76.51916,34.00724,124.50482,7.648,124.54437,7.646C350.78144,600,427.11542,611.20628,492.49139,585.31886c46.49884-18.41229,94.89685-72.72448,67.46882-117.85429C585.79248,432.46224,603.46173,390.5706,598.3764,349.58319Z" fill="#99b5cd"/>
    <use width="960.5198" height="1078.8736" transform="translate(81.87681 70) scale(0.45418)" xlink:href="#Bertha"/>
  </g>
</svg>
