<svg xmlns="http://www.w3.org/2000/svg" width="600" height="600" viewBox="0 0 600 600">
  <title>character-wendel-and-sally-full</title>
  <g id="Background">
    <path d="M440,119.00754C418.66905-42.0739,123.95625-18.056,49.94858,64.31377c-53.42372,59.46007-5.99327,214.9244,35.19622,254.98206-144.16321,160.23064-103.71249,320.46127,109.597,240.346,43.21082,40.05766,257.5083,67.79681,353.56027-4.283,55.8782-41.93242-7.68622-146.83383-7.68622-146.83383C600,317.80948,540,98.97871,440,119.00754Z" fill="#89b9da"/>
    <g>
      <path d="M581.8724,330.26349c-1.5468-.05554-3.0936-.18881-4.62919-.36651.07847-.33319.13451-.66637.17934-.99956l-.01121-.01111a35.33527,35.33527,0,0,0,6.85971.64417A4.52862,4.52862,0,0,1,581.8724,330.26349Z" fill="#cfd8dd"/>
      <path d="M577.41134,328.88631l.01121.01111c-.04483.33319-.10087.66637-.17934.99956-.056-.59974-.056-.98845.06726-1.03288A.32968.32968,0,0,0,577.41134,328.88631Z" fill="#381534"/>
      <path d="M577.41134,328.88631a.32968.32968,0,0,1-.10087-.02221C577.33288,328.84189,577.36651,328.853,577.41134,328.88631Z" fill="#cfd8dd"/>
      <path d="M577.24321,329.90809a27.03528,27.03528,0,0,1-4.0127,9.27369c-15.56885-2.73213-28.66058-4.04266-40.67627-4.05377q-.31946-5.39761-.94153-10.78414c7.37531.13327,14.504.7108,20.74725,1.33275,8.73156.86628,16.757,3.26523,24.88325,4.22036Z" fill="#381534"/>
      <path d="M573.23051,339.18178a54.09258,54.09258,0,0,1-7.76761,9.22927c-8.72035-4.52023-21.162-5.0089-32.42669-4.1204l-.16813-1.88806c-.06725-2.42116-.16813-4.85342-.31384-7.27458C544.56993,335.13912,557.66166,336.44965,573.23051,339.18178Z" fill="#cfd8dd"/>
      <path d="M555.49839,282.79549c1.9391,1.79921,1.15449,6.57488-1.4235,7.6744-6.57949,2.77656-2.38745-6.69705.28022-8.86277.3923.3554.79581.733,1.21053,1.11063Z" fill="#cfd8dd"/>
      <path d="M540.40031,270.86741c-.04484,9.32922,1.15449,19.58027-1.49075,27.288-.40352-11.19508-5.73884-21.535-8.18234-32.408a47.02852,47.02852,0,0,1,5.9406,2.89872C538.02407,269.4236,539.257,270.15661,540.40031,270.86741Z" fill="#cfd8dd"/>
      <path d="M478.181,356.96285c-4.60677-3.3874.76219-17.60337,7.11751-22.23466,12.00448-8.7406,29.78144-10.68419,46.31423-10.38432q.62208,5.381.94153,10.78414a155.77872,155.77872,0,0,0-34.41063,3.79833A24.83336,24.83336,0,0,0,484.13277,348.4C480.20974,353.50881,480.74776,358.8509,478.181,356.96285Z" fill="#381534"/>
      <path d="M529.50548,292.52454c-.36989,2.52111-1.99514,3.77612-3.47469,3.976l-.01121-.08885a15.06844,15.06844,0,0,1-1.58042-3.54289,14.2389,14.2389,0,0,1-.60527-4.57576C527.74572,285.06116,530.02108,289.02608,529.50548,292.52454Z" fill="#cfd8dd"/>
      <path d="M524.43916,292.86883a15.06844,15.06844,0,0,0,1.58042,3.54289l.01121.08885c-1.771.25544-3.31777-1.01067-2.25294-3.42072Z" fill="#677a89"/>
      <path d="M520.85238,269.02377c19.73848,11.61711-15.56884,4.909,0,0Z" fill="#cfd8dd"/>
      <path d="M515.405,299.02168c-4.28171-12.30569-7.65552-27.01033-17.76575-36.15075,3.27294-.14438,6.41136-.32208,9.44891-.422C512.45709,273.38852,513.14082,286.89369,515.405,299.02168Z" fill="#cfd8dd"/>
      <path d="M503.47894,286.53829c1.63647,3.85386-4.77489,6.85254-6.35531,4.69793l-.02242.02221a9.19094,9.19094,0,0,1-1.79339-3.29855C496.8322,285.43877,501.90973,282.83992,503.47894,286.53829Z" fill="#cfd8dd"/>
      <path d="M492.898,271.71148a7.21444,7.21444,0,0,1,1.02-5.74192A3.05205,3.05205,0,0,1,492.898,271.71148Z" fill="#cfd8dd"/>
      <path d="M483.337,293.35751c7.38651,2.27677-.9079,8.34077-2.096,5.28656A10.029,10.029,0,0,1,483.337,293.35751Z" fill="#cfd8dd"/>
      <path d="M483.15762,318.44647c.58285-.311,1.17691-.61085,1.771-.89961a17.87243,17.87243,0,0,1-3.16085,7.88542,16.82587,16.82587,0,0,0,1.40109-6.75258A1.62512,1.62512,0,0,0,483.15762,318.44647Z" fill="#f4f4f4"/>
      <path d="M462.82509,332.6069c7.07267-5.86409,13.46161-10.53981,20.33253-14.16043a1.62512,1.62512,0,0,1,.01121.23323,16.82587,16.82587,0,0,1-1.40109,6.75258,18.32928,18.32928,0,0,1-18.94265,7.17462Z" fill="#f4f4f4"/>
      <path d="M473.89926,269.20147c-2.0624-2.35452-4.60677-3.99824-6.90455-5.87519,4.0015-.09995,7.89091-.16659,11.57856-.19991,1.47955,2.66549,4.68523,4.85342,6.389,7.34121a40.699,40.699,0,0,1,5.05511,10.98406c2.02877,6.55267,2.5892,13.23861,4.10237,19.79129a76.8017,76.8017,0,0,0-12.8003-23.82285C479.02162,274.56578,476.33154,271.978,473.89926,269.20147Z" fill="#cfd8dd"/>
      <path d="M556.84343,324.76591c6.54587.71079,14.01084,2.96536,20.467,4.09819-.1233.04443-.1233.43314-.06726,1.03288-8.12628-.95513-16.15169-3.35408-24.88325-4.22036-6.24323-.622-13.37194-1.19948-20.74725-1.33275-16.53279-.29987-34.30975,1.64372-46.31423,10.38432-6.35532,4.63129-11.72428,18.84726-7.11751,22.23466,2.56679,1.88805,2.02877-3.454,5.9518-8.5629a24.83336,24.83336,0,0,1,14.01084-9.47361,155.77872,155.77872,0,0,1,34.41063-3.79833c.14571,2.42116.24659,4.85342.31384,7.27458l.16813,1.88806v.0111a161.77263,161.77263,0,0,0-21.06109,3.16527c-7.92454,1.72147-16.34225,8.66286-24.603,11.87256-6.927,2.6766-11.51131,2.41005-14.87391-3.14306-7.34168-12.128,16.11807-28.08764,27.181-30.23114C530.50305,320.01244,540.03042,322.92227,556.84343,324.76591Z" fill="#cfd8dd"/>
      <path d="M473.33882,286.66046c-2.27536-4.26479,1.61405-9.47361,4.92061-5.67528,2.54437,2.94315-1.43471,6.55267-4.31534,5.50868Z" fill="#cfd8dd"/>
      <path d="M481.76774,325.43228a18.72663,18.72663,0,0,1-17.27256,10.98405,19.25545,19.25545,0,0,1-5.29049-.733q1.47954-1.29942,2.92546-2.4989c.23538-.19991.47076-.38872.69494-.57752a18.32928,18.32928,0,0,0,18.94265-7.17462Z" fill="#31414a"/>
      <path d="M454.28408,296.967c9.57221-5.15329,10.14385-13.44964,9.3032-22.67891C470.62632,280.95186,466.83779,296.967,454.28408,296.967Z" fill="#010101"/>
      <path d="M551.23909,311.83826c16.82422,2.18793,33.02075,4.20926,45.23821,1.58819.23538.13328.482.25545.71735.38872,0,0-7.31926,12.55-12.9236,15.71531a35.33527,35.33527,0,0,1-6.85971-.64417c-.04483-.03331-.07846-.04442-.10087-.02221-6.4562-1.13283-13.92117-3.3874-20.467-4.09819-16.813-1.84364-26.34038-4.75347-57.16423,1.19947-11.063,2.1435-34.52271,18.10314-27.181,30.23114,3.3626,5.55311,7.94695,5.81966,14.87391,3.14306,8.26079-3.2097,16.6785-10.15109,24.603-11.87256a161.77263,161.77263,0,0,1,21.06109-3.16527v-.0111c11.26472-.8885,23.70634-.39983,32.42669,4.1204-8.3953,8.14086-18.98749,14.2715-24.31161,15.00451-10.3344,1.41049-21.08351,4.00935-31.87746,4.88674-12.50888,8.5629-22.40614,16.01517-36.34973,22.81218-13.68579,6.67484-27.74146,12.71662-42.17823,18.58071-4.31534,1.75478-8.66431,3.3874-13.06931,4.93116l-.01121.01111a420.52664,420.52664,0,0,1-52.6023,14.26039q-10.67626,2.23234-21.38615,4.15373A283.00552,283.00552,0,0,0,375.106,413.438c7.308-5.21993,23.62788-20.99076,32.012-36.073,4.02391-2.62107,8.46254-5.56422,13.40557-8.89609,12.86756-8.68506,26.66543-22.40125,38.68113-32.78557a19.25545,19.25545,0,0,0,5.29049.733,18.72663,18.72663,0,0,0,17.27256-10.98405,17.87243,17.87243,0,0,0,3.16085-7.88542,78.61107,78.61107,0,0,1,20.91538-6.81922C520.78513,307.92887,536.47727,309.91689,551.23909,311.83826Z" fill="#cfd8dd"/>
      <path d="M464.49518,300.93195a19.08531,19.08531,0,0,0-13.76425,5.753,18.24706,18.24706,0,0,1,34.377,8.32966,17.26845,17.26845,0,0,1-.17934,2.53222c-.59406.28876-1.18812.58863-1.771.89961C483.03432,308.75073,474.7287,300.93195,464.49518,300.93195Z" fill="#f4f4f4"/>
      <path d="M457.09746,311.56061a2.238,2.238,0,1,1-2.25295,2.23235A2.25252,2.25252,0,0,1,457.09746,311.56061Z" fill="#010101"/>
      <path d="M462.82509,332.6069a18.09166,18.09166,0,0,1-14.14535-17.59226,17.86856,17.86856,0,0,1,2.05119-8.32966,19.08531,19.08531,0,0,1,13.76425-5.753c10.23352,0,18.53914,7.81878,18.66244,17.51452C476.2867,322.06709,469.89776,326.74281,462.82509,332.6069ZM459.36161,313.793a2.2586,2.2586,0,1,0-2.26415,2.24345A2.25252,2.25252,0,0,0,459.36161,313.793Z" fill="#f4f4f4"/>
      <path d="M448.67974,315.01464a18.09166,18.09166,0,0,0,14.14535,17.59226c-.22418.1888-.45956.37761-.69494.57752q-1.44593,1.19947-2.92546,2.4989a17.87247,17.87247,0,0,1-13.38316-17.00362,17.232,17.232,0,0,1,4.9094-11.99472A17.86856,17.86856,0,0,0,448.67974,315.01464Z" fill="#31414a"/>
      <path d="M442.70552,275.59866c-1.5468-7.219,6.34411-8.52958,6.43378-3.05421.04483,2.94315-5.88455,5.83076-6.34411,3.032Z" fill="#cfd8dd"/>
      <path d="M440.16115,314.18168c1.8046,3.06531-1.80459,8.3963-4.38259,9.41807-.61647-2.01022-3.91182-8.785.13451-10.39542C438.22205,312.30472,438.61436,311.57171,440.16115,314.18168Z" fill="#cfd8dd"/>
      <path d="M434.82583,299.366c-1.04241-2.87651-2.05119-6.586.51559-8.51847,1.58043-1.18836,2.99272-1.48823,4.53952-.0111,3.41864,3.26523-.94153,8.25192-4.136,8.85166a1.11139,1.11139,0,0,1-.39231-.49978Z" fill="#cfd8dd"/>
      <path d="M436.83218,264.99222c-8.49618,9.929-12.37438,24.567-13.89876,36.97261-1.44591,11.71707-3.4971,28.10985,1.13208,39.21607-6.40015-9.22927-7.6219-27.29909-7.05026-38.09434.6389-11.68375,1.84944-25.96635,8.08146-36.695C428.75072,265.83629,432.70739,265.38093,436.83218,264.99222Z" fill="#cfd8dd"/>
      <path d="M417.37392,267.80209c3.37381,3.59842-8.51859,11.35056-3.654.76633C414.91922,268.313,416.12976,268.05753,417.37392,267.80209Z" fill="#cfd8dd"/>
      <path d="M413.40605,324.17728c.7734,5.43094-6.48982,6.586-6.75883,1.26611C402.60089,317.70235,412.65507,318.97956,413.40605,324.17728Z" fill="#cfd8dd"/>
      <path d="M409.5951,283.63956c.88549,3.64284-2.578,5.63086-5.78367,6.63042-1.04241-1.71036-.50439-2.89873.59406-4.40917l.23538-.05553C403.23979,280.42987,408.35094,278.51959,409.5951,283.63956Z" fill="#cfd8dd"/>
      <path d="M404.19252,302.74227c9.53858,2.23235-6.37773,13.9272-2.5892,3.10974v-.55531C401.60332,302.57567,402.46639,304.68586,404.19252,302.74227Z" fill="#cfd8dd"/>
      <path d="M394.82207,330.66331c7.29685-1.9547,2.01756,9.98449-.29142,3.60952l-.01121-.0111A8.51146,8.51146,0,0,1,394.82207,330.66331Z" fill="#cfd8dd"/>
      <path d="M396.58184,315.2923c.84065,3.44293-4.99907,8.17418-5.07753,3.18748C387.34589,312.92667,395.36009,310.18344,396.58184,315.2923Z" fill="#cfd8dd"/>
      <path d="M391.51552,298.633c-5.33533-13.61623,12.677-1.466.08967-.05553Z" fill="#cfd8dd"/>
      <path d="M395.18075,273.1775c-14.56006,24.92237-9.90846,52.588-5.32412,79.70936-12.6658-23.54519-17.7097-48.15658-10.51373-73.812A123.114,123.114,0,0,1,395.18075,273.1775Z" fill="#cfd8dd"/>
      <path d="M384.22988,368.60217a36.02053,36.02053,0,0,1-7.8797,4.87563c-.33626-.44425-.67252-.91071-1.00878-1.37717C380.049,370.33474,384.22988,368.60217,384.22988,368.60217Z" fill="#435561"/>
      <path d="M375.7225,337.03828c1.47954,3.52067.213,7.63-1.558,8.30746l-.02242-.06664C369.625,342.28042,368.86279,335.05027,375.7225,337.03828Z" fill="#cfd8dd"/>
      <path d="M370.52167,373.8443c1.56922-.5442,3.2281-1.14394,4.81973-1.74367.33626.46646.67252.93292,1.00878,1.37717-1.62526.76633-3.29535,1.45491-4.96544,2.09907C371.08211,374.98824,370.79068,374.41072,370.52167,373.8443Z" fill="#435561"/>
      <path d="M366.13908,320.73435l-.056.06663c-5.54829-4.85341.54922-13.66065,4.86456-7.8521C373.97394,317.02487,368.57136,322.85564,366.13908,320.73435Z" fill="#cfd8dd"/>
      <path d="M370.914,299.74359c1.33383,4.94227-6.54587,7.76325-5.73884,2.77655-1.6701-.64416-.269-1.05509-1.42351-2.34341C365.43294,296.45614,369.625,294.96791,370.914,299.74359Z" fill="#cfd8dd"/>
      <path d="M367.93247,286.83816a8.79351,8.79351,0,0,1,4.30413,1.92137,10.13662,10.13662,0,0,1-5.26808,3.53178c-1.37866-1.21058-.42593-1.466.34747-2.42116A6.19973,6.19973,0,0,1,367.93247,286.83816Z" fill="#cfd8dd"/>
      <path d="M370.52167,373.8443c-11.2423-22.97877-5.907-35.22893-5.907-35.22893a63.88889,63.88889,0,0,0,10.7267,33.48526C373.74977,372.70036,372.09089,373.3001,370.52167,373.8443Z" fill="#31414a"/>
      <path d="M364.21119,375.68794a51.94987,51.94987,0,0,0,6.31048-1.84364c.269.56642.56044,1.14394.86307,1.73257-3.30656,1.255-6.64674,2.33231-9.6955,3.454a56.07547,56.07547,0,0,1-7.734,2.02133l-.16814-.79965c-.45955-.65526-.89669-1.31053-1.3002-1.9658C355.9504,377.53157,359.4363,376.57643,364.21119,375.68794Z" fill="#435561"/>
      <path d="M353.00252,325.61c5.12236-4.93116,7.39772,4.09819,3.2281,6.97471a4.11669,4.11669,0,0,1-1.16571-2.07687A13.00023,13.00023,0,0,1,353.00252,325.61Z" fill="#cfd8dd"/>
      <path d="M354.29152,308.59525l-.40352.25544a19.42261,19.42261,0,0,1-2.39865-4.85342c2.95909-6.28612,9.94209,1.38828,3.18326,5.09776A2.9581,2.9581,0,0,1,354.29152,308.59525Z" fill="#cfd8dd"/>
      <path d="M352.57659,449.6887A92.47161,92.47161,0,0,1,365.063,428.89785a420.52664,420.52664,0,0,0,52.6023-14.26039,176.54132,176.54132,0,0,1-24.47974,17.71442c-10.65945,6.38608-28.44761,17.64779-40.8332,18.31417C352.45329,450.25512,352.68868,450.17737,352.57659,449.6887Z" fill="#435561"/>
      <path d="M347.82411,379.142c1.614-.23323,3.13843-.522,4.66281-.85518.40351.65527.84065,1.31054,1.3002,1.9658l.16814.79965c-1.59164.33319-3.23931.63306-4.85336.89961l-.01121-.08885C348.63114,380.95229,348.20521,380.04158,347.82411,379.142Z" fill="#435561"/>
      <path d="M352.02736,340.30351c-7.05025-13.24972-8.45134-25.00011-8.67551-39.39377q2.85822-1.98246,5.75-3.94271a34.31584,34.31584,0,0,0-1.17691,5.15329c-.52681,4.6424.03363,9.52914.40351,14.13822A170.38966,170.38966,0,0,0,352.02736,340.30351Z" fill="#cfd8dd"/>
      <path d="M347.82411,379.142A46.15594,46.15594,0,0,1,345.56,348.611c1.26658,12.92764,2.11844,21.80151,6.927,29.67582C350.96254,378.62,349.43816,378.90874,347.82411,379.142Z" fill="#31414a"/>
      <path d="M340.38155,379.69728a55.19233,55.19233,0,0,0,7.44256-.55531c.3811.89961.807,1.81032,1.26658,2.721l.01121.08885c-6.501,1.09951-12.52009,1.75478-12.52009,1.75478a10.259,10.259,0,0,1-2.7125-2.721A18.97724,18.97724,0,0,1,340.38155,379.69728Z" fill="#435561"/>
      <path d="M332.38977,341.39192c5.694-11.5949,13.00206,4.26479,2.61162,2.78766-.17934-.11106-.35868-.23323-.52681-.3554A7.08474,7.08474,0,0,1,332.38977,341.39192Z" fill="#cfd8dd"/>
      <path d="M338.95805,359.71719a3.70885,3.70885,0,0,1-4.405,4.55355,14.4785,14.4785,0,0,1-2.54437-4.84231C334.14953,355.78559,337.99411,355.49682,338.95805,359.71719Z" fill="#cfd8dd"/>
      <path d="M330.33858,316.40292c4.21446-11.26171,13.50645,2.48779,3.00393,5.49758a4.64153,4.64153,0,0,1-.44835-.87739A11.34961,11.34961,0,0,1,330.33858,316.40292Z" fill="#cfd8dd"/>
      <path d="M329.72211,383.02915a25.1558,25.1558,0,0,1,4.1472-2.04355,10.259,10.259,0,0,0,2.7125,2.721,37.147,37.147,0,0,0-5.23445,2.97647l-.7734-1.97691C330.29375,384.162,330.01353,383.60667,329.72211,383.02915Z" fill="#435561"/>
      <path d="M325.94478,351.94283c1.10966,17.15912,5.14478,25.35551,7.92453,29.04277a25.1558,25.1558,0,0,0-4.1472,2.04355c-2.11844-4.20926-4.3938-9.01825-4.887-13.86057C324.24106,363.33782,326.20258,356.78515,325.94478,351.94283Z" fill="#31414a"/>
      <path d="M328.18652,338.06005c1.827,3.83165-3.82216,7.6633-5.27929,5.49758l-.15692.13328C318.15476,337.80461,325.69819,332.84013,328.18652,338.06005Z" fill="#cfd8dd"/>
      <path d="M320.262,328.57534c-1.53559-4.29811-1.4123-11.4283,4.0127-7.75214,4.70764,3.18748.3811,8.052-2.81338,10.07334A2.2566,2.2566,0,0,1,320.262,328.57534Z" fill="#cfd8dd"/>
      <path d="M311.05967,410.53926q-1.39548.28321-2.82459.56642c3.923-10.00671,11.90361-22.27908,21.487-28.07653.29142.57752.57164,1.13283.85185,1.677l.7734,1.97691C322.7391,392.50276,316.47346,401.59875,311.05967,410.53926Z" fill="#435561"/>
      <path d="M304.71556,370.257a12.51471,12.51471,0,0,1-2.75734-5.65306c7.20718-11.56158,11.99328,9.12931,2.88063,5.78634A1.33549,1.33549,0,0,1,304.71556,370.257Z" fill="#cfd8dd"/>
      <path d="M315.12841,319.79032c-3.14963,13.82725-3.329,26.94369-2.18569,41.54838-5.76125-9.307-7.67794-22.96767-7.81244-34.92907Q310.09012,323.07776,315.12841,319.79032Z" fill="#cfd8dd"/>
      <path d="M306.21752,380.38587a3.673,3.673,0,0,1-4.41622,4.56466l.04484-.24434C294.6838,373.82209,305.063,375.31032,306.21752,380.38587Z" fill="#cfd8dd"/>
      <path d="M302.98942,340.2813c5.35775,6.35276-2.69008,10.37321-3.94545,7.77435C292.7559,347.467,296.63411,332.75128,302.98942,340.2813Z" fill="#cfd8dd"/>
      <path d="M290.09945,354.1974c.57164,4.287-5.23445,6.83032-6.51224,3.47624l-.02242.01111c-1.38987-3.243-2.56678-7.58555,1.90548-7.89652C287.99222,349.61053,289.79682,351.8873,290.09945,354.1974Z" fill="#cfd8dd"/>
      <path d="M288.97858,382.50716c-1.15449,2.95425-4.89819,2.61-6.52345.55531-.0112,0-.0112,0,0-.01111a11.20358,11.20358,0,0,1,.68373-5.90851C285.92982,376.48758,290.32362,379.09755,288.97858,382.50716Z" fill="#cfd8dd"/>
      <path d="M305.63467,419.65747c1.74855-2.932,3.53073-6.01957,5.425-9.11821,13.65216-2.74323,25.029-5.3532,34.62358-7.38563,23.70635-5.02,30.37551-5.59754,61.43474-25.78865-8.38409,15.08225-24.70392,30.85308-32.012,36.073a283.00552,283.00552,0,0,1-31.42912,19.61359q-6.48981,3.49845-13.23744,6.64152c-13.34953,6.2528-33.2225,16.45942-48.14125,13.7495a.36567.36567,0,0,1,.213-.46646c.01121,0,.01121.01111.01121.02221l-.01121.01111c.01121.0111.01121-.01111.01121-.01111a89.91009,89.91009,0,0,0,8.03661-9.59577C296.12971,435.82813,301.03911,427.343,305.63467,419.65747Z" fill="#677a89"/>
      <path d="M273.84687,396.16781c-8.09266-10.50649-7.79-30.24224-6.43377-44.99131.17934-.09995.35867-.211.5268-.32208q2.15206-1.33275,4.23688-2.66549c1.90548-1.21058,3.78853-2.42116,5.67159-3.64284-.03363.11106-.06725.211-.10088.311-1.72613,5.30878-2.35382,10.91742-3.37381,16.40389A101.17084,101.17084,0,0,0,273.84687,396.16781Z" fill="#cfd8dd"/>
      <path d="M264.992,384.0176c2.93668,3.454-1.43471,8.49626-2.93667,5.13108-.70614-1.45492-5.9518-6.17506-.57164-7.26347C262.71666,381.64087,264.25225,383.14021,264.992,384.0176Z" fill="#cfd8dd"/>
      <path d="M267.4131,351.1765c-9.79638,6.11953-20.31012,12.29459-30.84627,17.8366-2.66766,1.39938-5.32412,2.76545-7.98057,4.06487q-4.87578,2.399-9.6843,4.54245c-1.41229.633-2.85821,1.26611-4.32654,1.89916-7.82366-9.11821-9.72913-11.79481-15.84907-17.54783-5.98543-5.642-13.74183-9.97339-19.122-15.582,4.192-3.99824,18.2253-3.62063,24.1659-3.33187a124.43247,124.43247,0,0,1,23.97535,4.00935c6.41136,1.64372,18.7521,5.20882,39.70111,3.82054C267.43551,350.9877,267.42431,351.07655,267.4131,351.1765Z" fill="#435561"/>
      <path d="M251.2614,373.14461c-5.97422-2.6877-1.6813-10.63976,2.94788-8.31856,5.23445,2.62107,1.289,7.8521-2.86942,8.16307Z" fill="#cfd8dd"/>
      <path d="M251.97876,394.15758c.17933,3.93161-5.62676,8.70728-6.176,2.76545-1.30021-2.58775.31384-3.62062.34747-6.4416C249.24384,387.53828,251.833,390.9701,251.97876,394.15758Z" fill="#cfd8dd"/>
      <path d="M241.21843,372.034c1.67009,3.243,2.16327,11.90587-3.76611,9.94007.17933-.74412.29142-1.52155.50439-2.26567l.36988-.1C237.53078,376.65418,237.329,371.65638,241.21843,372.034Z" fill="#cfd8dd"/>
      <path d="M236.56683,369.0131a143.16094,143.16094,0,0,0-4.21446,35.20672c-3.28414-7.6855-4.23688-20.64647-3.76611-31.14185C231.24271,371.77855,233.89917,370.41248,236.56683,369.0131Z" fill="#cfd8dd"/>
      <path d="M226.0643,401.92083c.3811,2.14351-1.33383,5.04223-2.73491,5.45316a22.70759,22.70759,0,0,1-2.847-7.419C222.85862,396.90082,225.43662,398.4668,226.0643,401.92083Z" fill="#cfd8dd"/>
      <path d="M208.81416,392.48055c-1.91668-6.26391,3.90062-9.64021,3.923-3.33187.01121,2.932-2.903,5.3643-4.37138,3.37629Z" fill="#cfd8dd"/>
      <path d="M208.4779,410.16165c-5.49225-20.37992,9.85242-3.454,1.00878.422a.88516.88516,0,0,1-.538-.54421Z" fill="#cfd8dd"/>
      <path d="M204.36432,383.81769a80.99449,80.99449,0,0,0-5.07753,31.264c-2.18569-9.04047-3.6204-17.1258-1.4235-28.63184C200.049,385.58358,202.22346,384.70619,204.36432,383.81769Z" fill="#cfd8dd"/>
      <path d="M194.2653,400.2549c.35868,4.20926-7.17355,7.51891-7.30805,1.66593-1.18812-1.55487.93032-1.59929.7846-3.48735A3.584,3.584,0,0,1,194.2653,400.2549Z" fill="#cfd8dd"/>
      <path d="M176.8134,467.78073a175.05015,175.05015,0,0,1,9.84121-21.86815c1.1545-2.11018,2.365-4.187,3.66524-6.23059,11.76911-2.66549,29.63573-2.66549,29.63573-2.66549a.41918.41918,0,0,1-.19055.47757,106.7104,106.7104,0,0,0-12.87876,8.152C197.54944,452.43193,188.986,460.18408,176.8134,467.78073Z" fill="#677a89"/>
      <path d="M186.44165,415.80361c.47076,2.90983-3.21689,5.27546-5.6828,5.47537a26.88178,26.88178,0,0,1-1.32262-3.36519H179.425a27.69979,27.69979,0,0,1-.95274-3.9427C181.02786,412.083,185.76913,411.71652,186.44165,415.80361Z" fill="#cfd8dd"/>
      <path d="M179.43623,417.91379a26.88178,26.88178,0,0,0,1.32262,3.36519c-1.71493.12217-2.847-.77744-1.64767-3.25412l.31384-.11107Z" fill="#677a89"/>
      <path d="M169.97611,396.95635c-3.1048,7.82989-3.18326,17.38124-1.49075,25.31108-3.867-6.95249-4.80852-15.11556-5.01028-23.13426,2.096-.7108,4.24809-1.44381,6.42257-2.21014C169.92007,396.93414,169.95369,396.94525,169.97611,396.95635Z" fill="#cfd8dd"/>
      <path d="M169.89765,396.923c-2.17448.76633-4.32655,1.49934-6.42257,2.21014-.03363-1.11062-.04484-2.22124-.056-3.32076l.57164-1.49934C166.06428,395.11272,168.037,395.99011,169.89765,396.923Z" fill="#435561"/>
      <path d="M151.41455,417.36959c-6.0751-2.77656.32505-10.8841,4.57314-7.008C160.13489,414.12657,155.40484,418.30251,151.41455,417.36959Z" fill="#cfd8dd"/>
      <path d="M135.44219,408.14032c2.40986.06664,7.16234,5.09776,4.89819,7.55223-.95274,1.044-3.34018.55531-4.38259.14438-3.25052-1.32164-2.08481-4.95337-1.13208-7.78546l.6389.19991C135.4534,408.21806,135.4534,408.18474,135.44219,408.14032Z" fill="#cfd8dd"/>
      <path d="M140.46368,427.46515c1.17691,5.99736-9.80759,6.13063-7.30806,1.11062l.45956-.06664C132.83057,424.14439,139.43248,422.17858,140.46368,427.46515Z" fill="#cfd8dd"/>
      <path d="M119.35775,451.73224a174.62956,174.62956,0,0,1,28.12255-4.48691l.01121.15549c-12.41921,7.3301-16.92509,20.80195-23.314,23.72289C121.54344,464.94865,118.89819,458.4404,119.35775,451.73224Z" fill="#435561"/>
      <path d="M163.47508,399.13317c-.58285.18881-1.1657.38872-1.73734.57753-4.93182,1.64372-18.18047,5.542-29.99441,8.70727v-.0111a47.85947,47.85947,0,0,0-3.02634-5.09776,73.56685,73.56685,0,0,0-12.1502-13.60512c6.983-3.95382,30.21858-2.05465,47.42389,4.60908l-.57164,1.49934C163.43024,396.91193,163.44145,398.02255,163.47508,399.13317Z" fill="#435561"/>
      <path d="M109.78554,454.58654c5.73884-4.65351,15.00841-7.55223,21.25164-10.32879,7.96937-3.53177,16.16291-5.90851,24.41249-8.58511,16.19653-5.24213,33.25613-6.77479,50.00189-9.90675,18.28134-3.42071,43.64657-5.06443,62.21934-7.72993,15.34467-2.21013,28.77266-4.60908,40.56418-6.93028q1.42911-.28321,2.82459-.56642c-1.89427,3.09864-3.67645,6.18617-5.425,9.11821-4.59556,7.68551-9.505,16.17066-15.07567,23.74511l-1.56921-2.35452c-1.41229.13327-2.82458.26655-4.22567.39982-23.471,2.1324-45.68655,2.79877-69.6619,3.90939q-4.06875.18325-8.21595.28876a106.7104,106.7104,0,0,1,12.87876-8.152.41918.41918,0,0,0,.19055-.47757s-17.86662,0-29.63573,2.66549c-1.30021,2.04355-2.51074,4.12041-3.66524,6.23059-13.01327.08885-26.26192.22213-39.17431,1.33275a174.62956,174.62956,0,0,0-28.12255,4.48691C116.11844,452.56521,112.924,453.50924,109.78554,454.58654Z" fill="#cfd8dd"/>
      <path d="M186.95725,401.92083c.1345,5.853,7.66673,2.54333,7.30805-1.66593a3.584,3.584,0,0,0-6.52345-1.82142C187.88757,400.32154,185.76913,400.366,186.95725,401.92083Zm-7.84607,16.104c-1.19933,2.47668-.06726,3.37629,1.64767,3.25412,2.46591-.19991,6.15356-2.56554,5.6828-5.47537-.67252-4.08709-5.41379-3.72058-7.96937-1.83252a27.69979,27.69979,0,0,0,.95274,3.9427Zm142.35013-87.12832c3.19448-2.02133,7.521-6.88586,2.81338-10.07334-5.425-3.67616-5.54829,3.454-4.0127,7.75214A2.2566,2.2566,0,0,0,321.46131,330.89654Zm1.44592,12.66109c1.45713,2.16572,7.1063-1.66593,5.27929-5.49758-2.48833-5.21992-10.03176-.25544-5.43621,5.63086Zm10.43528-21.65713c10.50252-3.00979,1.21053-16.75929-3.00393-5.49758a11.34961,11.34961,0,0,0,2.55558,4.62019A4.64153,4.64153,0,0,0,333.34251,321.9005Zm1.65888,22.27908c10.39044,1.47713,3.08239-14.38256-2.61162-2.78766a7.08474,7.08474,0,0,0,2.08481,2.43226c-.02241.07775-.04483.1666-.06725.25545C334.60909,344.113,334.81084,344.14626,335.00139,344.17958Zm-.44835,20.09116a3.70885,3.70885,0,0,0,4.405-4.55355c-.96394-4.22037-4.80852-3.9316-6.94938-.28876A14.4785,14.4785,0,0,0,334.553,364.27074Zm37.68356-75.51121a8.79351,8.79351,0,0,0-4.30413-1.92137,6.19973,6.19973,0,0,0-.61648,3.032c-.7734.95514-1.72613,1.21058-.34747,2.42116A10.13662,10.13662,0,0,0,372.2366,288.75953Zm1.92789,56.58621c1.771-.67748,3.03755-4.78679,1.558-8.30746-6.85971-1.988-6.09752,5.24214-1.58043,8.24082Zm-161.4273,43.80294c-.02241-6.30834-5.83971-2.932-3.923,3.33187l-.44835.04442C209.83415,394.513,212.7484,392.08072,212.73719,389.14868ZM520.85238,269.02377c-15.56884,4.909,19.73848,11.61711,0,0ZM493.918,265.96956a7.21444,7.21444,0,0,0-1.02,5.74192A3.05205,3.05205,0,0,0,493.918,265.96956Zm32.11284,30.531c1.47955-.19991,3.1048-1.45492,3.47469-3.976.5156-3.49846-1.75976-7.46338-5.67159-4.23147a14.2389,14.2389,0,0,0,.60527,4.57576l-.66131.211C522.713,295.4899,524.25982,296.756,526.03079,296.50057Zm-28.90716-5.26435c1.58042,2.15461,7.99178-.84407,6.35531-4.69793-1.56921-3.69837-6.64674-1.09952-8.17112,1.42159a9.19094,9.19094,0,0,0,1.79339,3.29855Zm-23.17954-4.74236c2.88063,1.044,6.85971-2.56553,4.31534-5.50868-3.30656-3.79833-7.196,1.41049-4.92061,5.67528Zm7.29685,12.15021c1.18812,3.05421,9.48253-3.00979,2.096-5.28656A10.029,10.029,0,0,0,481.24094,298.64407Zm-26.95686-1.677c12.55371,0,16.34224-16.01517,9.3032-22.67891-.01121-.15548-.02242-.29986-.04484-.45535a.32479.32479,0,0,0-.02241-.25544c.0112.08885.0112.16659.02241.25544a1.09166,1.09166,0,0,0-.04483.3665.67438.67438,0,0,1,.08967.08885C464.42793,283.51739,463.85629,291.81374,454.28408,296.967Zm-11.48889-21.39058c.45956,2.79876,6.38894-.08885,6.34411-3.032-.08967-5.47537-7.98058-4.16484-6.43378,3.05421Zm-7.45377,15.27105c-2.56678,1.93248-1.558,5.642-.51559,8.51847l.5268-.17769a1.11139,1.11139,0,0,0,.39231.49978c3.19447-.59974,7.55464-5.58643,4.136-8.85166C438.33414,289.35927,436.92185,289.65914,435.34142,290.8475Zm.43714,32.75225c2.578-1.02177,6.18719-6.35276,4.38259-9.41807-1.54679-2.61-1.9391-1.877-4.24808-.97735C431.86674,314.81473,435.16209,321.58953,435.77856,323.59975Zm-41.24791,10.67308c2.309,6.375,7.58827-5.56422.29142-3.60952a8.51146,8.51146,0,0,0-.30263,3.59842ZM403.81143,290.27c3.20568-.99956,6.66916-2.98758,5.78367-6.63042-1.24416-5.12-6.35531-3.20969-4.95423,2.16572l-.23538.05553C403.307,287.37125,402.769,288.55962,403.81143,290.27Zm2.83579,35.17341c.269,5.31988,7.53223,4.16483,6.75883-1.26611C412.65507,318.97956,402.60089,317.70235,406.64722,325.44339Zm-15.042-26.866c12.58733-1.41049-5.425-13.5607-.08967.05553Zm9.99813,7.27458c-3.78853,10.81746,12.12778-.87739,2.5892-3.10974-1.72613,1.94359-2.5892-.1666-2.5892,2.55443Zm-10.099,12.62777c.07846,4.9867,5.91818.25545,5.07753-3.18748C395.36009,310.18344,387.34589,312.92667,391.50431,318.47978Zm-107.9171,39.19386c1.27779,3.35408,7.08388.81076,6.51224-3.47624-.30263-2.3101-2.10723-4.58687-4.62918-4.40917-4.47226.311-3.29535,4.6535-1.90548,7.89652Zm-1.13208,25.38883c1.62526,2.05465,5.369,2.39894,6.52345-.55531,1.345-3.40961-3.04876-6.01958-5.83972-5.36431a11.20358,11.20358,0,0,0-.68373,5.90851C282.44393,383.06247,282.44393,383.06247,282.45513,383.06247Zm22.38372-12.6722c9.11265,3.343,4.32655-17.34792-2.88063-5.78634a12.51471,12.51471,0,0,0,2.75734,5.65306c0,.03332-.01121.05553-.01121.08885A.63575.63575,0,0,0,304.83885,370.39027ZM299.044,348.05565c1.25537,2.59886,9.3032-1.42159,3.94545-7.77435C296.63411,332.75128,292.7559,347.467,299.044,348.05565Zm2.75733,36.89488a3.673,3.673,0,0,0,4.41622-4.56466c-1.15449-5.07555-11.53372-6.56378-4.37138,4.32032Zm-145.81361,25.411c-4.24809-3.87607-10.64824,4.23147-4.57314,7.008C155.40484,418.30251,160.13489,414.12657,155.98769,410.36156ZM354.67261,309.095c6.75883-3.70948-.22417-11.38388-3.18326-5.09776a19.42261,19.42261,0,0,0,2.39865,4.85342l.40352-.25544A2.9581,2.9581,0,0,0,354.67261,309.095Zm1.558,23.48966c4.16962-2.87652,1.89426-11.90587-3.2281-6.97471a13.00023,13.00023,0,0,0,2.06239,4.89784A4.11669,4.11669,0,0,0,356.23062,332.58469ZM366.083,320.801l.056-.06663c2.43228,2.12129,7.83486-3.70948,4.80852-7.78547C366.63226,307.14033,360.53475,315.94757,366.083,320.801Zm-.9079-18.28084c-.807,4.9867,7.07267,2.16572,5.73884-2.77655-1.289-4.77568-5.481-3.28745-7.16235.43314C364.90613,301.46505,363.505,301.876,365.17514,302.52014ZM135.95779,415.83693c1.04241.41093,3.42985.89961,4.38259-.14438,2.26415-2.45447-2.48833-7.48559-4.89819-7.55223.01121.04442.01121.07774.02242.11106l-.6389-.19991C133.873,410.88356,132.70727,414.51529,135.95779,415.83693Zm-2.80217,12.73884c-2.49953,5.02,8.485,4.88674,7.30806-1.11062-1.0312-5.28657-7.63311-3.32076-6.8485,1.044Zm76.33106-17.99208c8.84364-3.87607-6.501-20.802-1.00878-.422l.47076-.12217A.88516.88516,0,0,0,209.48668,410.58369Zm36.3161-13.66066c.54922,5.94183,6.35531,1.16616,6.176-2.76545-.14572-3.18748-2.73492-6.6193-5.82851-3.67615C246.11662,393.30241,244.50257,394.33528,245.80278,396.923Zm16.25257-7.77435c1.502,3.36518,5.87335-1.677,2.93667-5.13108-.73977-.87739-2.27536-2.37673-3.50831-2.13239C256.10355,382.97362,261.34921,387.69376,262.05535,389.14868Zm-7.84607-24.32263c-4.62918-2.3212-8.9221,5.63086-2.94788,8.31856l.07846-.15549C255.49828,372.67815,259.44373,367.44712,254.20928,364.82605ZM241.21843,372.034c-3.88941-.37761-3.68765,4.62019-2.89184,7.57444l-.36988.1c-.213.74412-.32506,1.52155-.50439,2.26567C243.3817,383.93986,242.88852,375.277,241.21843,372.034Zm-20.736,27.921a22.70759,22.70759,0,0,0,2.847,7.419c1.40108-.41093,3.116-3.30965,2.73491-5.45316C225.43662,398.4668,222.85862,396.90082,220.48239,399.955Zm8.10387-26.87706c-.47077,10.49538.482,23.45635,3.76611,31.14185a143.16094,143.16094,0,0,1,4.21446-35.20672c10.53615-5.542,21.04989-11.71707,30.84627-17.8366-1.35625,14.74907-1.65889,34.48482,6.43377,44.99131a101.17084,101.17084,0,0,1,.52681-34.90686c1.02-5.48647,1.64768-11.09511,3.37381-16.40389.03363-.09995.06725-.19991.10088-.311,9.22474-5.97515,18.20288-12.08357,27.28191-18.13646.1345,11.9614,2.05119,25.62205,7.81244,34.92907-1.14328-14.60469-.96394-27.72113,2.18569-41.54838,2.08482-1.355,4.19205-2.721,6.29928-4.06488,7.44256-4.75346,14.66094-9.80679,21.92416-14.8157.22417,14.39366,1.62526,26.144,8.67551,39.39377a170.38966,170.38966,0,0,1-3.69886-24.045c-.36988-4.60908-.93032-9.49582-.40351-14.13822a34.31584,34.31584,0,0,1,1.17691-5.15329c6.34411-4.30921,12.77789-8.50737,19.447-12.35012,3.69886-2.12129,7.26322-3.95381,10.79395-5.542-7.196,25.65537-2.15207,50.26676,10.51373,73.812-4.58434-27.12139-9.23594-54.787,5.32412-79.70936,5.91818-1.777,11.98207-3.2097,18.53915-4.60908-4.86457,10.58423,7.02783,2.83209,3.654-.76633l1.076-.23323q3.11041-.64971,6.64675-1.17726c-6.232,10.72861-7.44256,25.01121-8.08146,36.695-.57164,10.79525.65011,28.86507,7.05026,38.09434-4.62918-11.10622-2.578-27.499-1.13208-39.21607,1.52438-12.40565,5.40258-27.04365,13.89876-36.97261,9.65066-.91071,20.23165-1.41049,30.16253-1.66594,2.29778,1.877,4.84215,3.52067,6.90455,5.87519,2.43228,2.77656,5.12236,5.36431,7.42014,8.21861a76.8017,76.8017,0,0,1,12.8003,23.82285c-1.51317-6.55268-2.0736-13.23862-4.10237-19.79129a40.699,40.699,0,0,0-5.05511-10.98406c-1.70372-2.48779-4.9094-4.67572-6.389-7.34121,3.54194-.03332,6.88213-.04442,9.9421-.03332,3.172.01111,6.19839-.09995,9.12385-.22212,10.11023,9.14042,13.484,23.84506,17.76575,36.15075-2.26415-12.128-2.94788-25.63316-8.31684-36.57279,8.14871-.25544,15.68094.08885,23.63909,3.29855,2.4435,10.873,7.77882,21.21288,8.18234,32.408,2.64524-7.70772,1.44591-17.95877,1.49075-27.288a79.74681,79.74681,0,0,1,13.9548,10.73971c-2.66767,2.16572-6.85971,11.63933-.28022,8.86277,2.578-1.09952,3.3626-5.87519,1.4235-7.6744l.06725-.07774c2.24174,2.088,4.80852,4.55355,8.0142,7.57444a175.29607,175.29607,0,0,0,32.89746,23.13426c-12.21746,2.62107-28.414.59974-45.23821-1.58819-14.76182-1.92137-30.454-3.90939-45.39512-1.11062a78.61107,78.61107,0,0,0-20.91538,6.81922,17.26845,17.26845,0,0,0,.17934-2.53222,18.24706,18.24706,0,0,0-34.377-8.32966,17.232,17.232,0,0,0-4.9094,11.99472,17.87247,17.87247,0,0,0,13.38316,17.00362c-12.0157,10.38432-25.81357,24.10051-38.68113,32.78557-4.943,3.33187-9.38166,6.275-13.40557,8.89609-31.05923,20.19111-37.72839,20.76863-61.43474,25.78865-9.59462,2.03243-20.97142,4.6424-34.62358,7.38563,5.41379-8.94051,11.67943-18.0365,20.28769-23.85616a37.147,37.147,0,0,1,5.23445-2.97647s6.01906-.65527,12.52009-1.75478c1.61405-.26655,3.26172-.56642,4.85336-.89961a56.07547,56.07547,0,0,0,7.734-2.02133c3.04876-1.12173,6.38894-2.199,9.6955-3.454,1.67009-.64416,3.34018-1.33274,4.96544-2.09907a36.02053,36.02053,0,0,0,7.8797-4.87563s-4.18084,1.73257-8.88848,3.49846a63.88889,63.88889,0,0,1-10.7267-33.48526s-5.33533,12.25016,5.907,35.22893a51.94987,51.94987,0,0,1-6.31048,1.84364c-4.77489.88849-8.26079,1.84363-11.72427,2.59885-4.80852-7.87431-5.66038-16.74818-6.927-29.67582a46.15594,46.15594,0,0,0,2.26415,30.531,55.19233,55.19233,0,0,1-7.44256.55531,18.97724,18.97724,0,0,0-6.51224,1.28832c-2.77975-3.68726-6.81487-11.88365-7.92453-29.04277.2578,4.84232-1.70372,11.395-1.10966,17.22575.49319,4.84232,2.76855,9.65131,4.887,13.86057-9.58342,5.79745-17.564,18.06982-21.487,28.07653-11.79152,2.3212-25.21951,4.72015-40.56418,6.93028-18.57277,2.6655-43.938,4.30922-62.21934,7.72993-16.74576,3.132-33.80536,4.66462-50.00189,9.90675-8.24958,2.6766-16.44312,5.05334-24.41249,8.58511-6.24323,2.77656-15.5128,5.67528-21.25164,10.32879a.03487.03487,0,0,1-.02242.01111c-1.56921.5442-3.12722,1.12173-4.66281,1.74368-30.57725,12.26126-33.03195,48.31206-83.3701,63.23883,1.0312-12.55,8.86606-43.24763,31.84384-69.90257-14.15655-12.66109-25.7127-28.62073-34.321-42.17033C11.96746,396.03454,3.561,382.16286.05264,369.16858a118.01143,118.01143,0,0,1,48.881,19.58027c16.39829,11.15065,38.2664,27.05476,61.80462,24.27821.86306.12217,3.31776-.28876,6.7252-1.044-.02242,7.19683.02242,18.05872,5.08874,22.50121a50.53921,50.53921,0,0,1,2.10723-24.22267c2.24173-.56642,4.62918-1.18837,7.08388-1.84364,11.81394-3.16527,25.06259-7.06355,29.99441-8.70727.57164-.18881,1.15449-.38872,1.73734-.57753.20176,8.0187,1.14328,16.18177,5.01028,23.13426-1.69251-7.92984-1.614-17.48119,1.49075-25.31108l.03363-.06663c9.023-3.16528,18.59518-6.74148,27.85355-10.43985-2.1969,11.506-.76219,19.59137,1.4235,28.63184a80.99449,80.99449,0,0,1,5.07753-31.264c3.4971-1.4327,6.91575-2.8654,10.2111-4.29811,1.46833-.63305,2.91425-1.26611,4.32654-1.89916Q223.71048,375.488,228.58626,373.078Z" fill="#677a89"/>
      <path d="M124.65945,410.26161a50.53921,50.53921,0,0,0-2.10723,24.22267c-5.06632-4.44249-5.11116-15.30438-5.08874-22.50121C119.54829,411.52772,122.003,410.93909,124.65945,410.26161Z" fill="#cfd8dd"/>
    </g>
    <g>
      <path d="M146.8729,173.61265c8.6204-1.08926,17.235-2.21065,25.508-5.22139a9.41871,9.41871,0,0,1,3.29755-1.48593c9.498-3.67519,18.48084-8.54278,27.49138-13.35a4.86159,4.86159,0,0,1,2.38721-.94227c6.27364-3.44662,12.51245-6.96249,19.17672-9.53049,13.23076-5.09832,26.61612-5.03443,40.18183-1.72384,15.76143,3.84643,29.55953,11.87485,42.37173,22.07859,3.2625,2.5983,6.47815,5.26318,9.71533,7.89748.77811.46818.69755,1.20066.474,1.92548a15.17455,15.17455,0,0,0-.32685,5.64011c.224,3.09792,1.96994,5.25781,4.23484,7.01012.36846.28507.83285.42316,1.12936.819.02232.41511.259.52656.62068.6003.59725.12177,1.27308.16924,1.50837.96045q.01488.1308.01868.26249c-1.32625.60892-2.71832.22886-4.03616.12073-5.78869-.475-9.44275,2.53978-11.83393,7.8082-.299.6589-.62769,1.30338-.90173,1.97438a1.72584,1.72584,0,0,1-1.54549,1.24831c-6.57621-.03949-12.74147-1.94332-18.70486-4.7215-1.4644-.68223-2.8746-1.49564-4.29266-2.28414-.65349-.36335-1.356-.68489-1.63943-1.511.45511-1.19407,1.25188-.49784,1.86757-.30694a5.096,5.096,0,0,0,3.35765.32571c2.1993-.24384,4.3998-.15791,6.48266-1.39445,3.764-2.23463,6.03255-7.71428,5.68471-12.30433a14.341,14.341,0,0,0-4.69561-9.82472,3.14,3.14,0,0,1-.87053-1.1144c-.71432-2.18168-.7186-4.49747-1.02527-7.14689a3.523,3.523,0,0,0-.43888,2.8143c.07355,1.18676.65334,2.346.17248,3.56538a10.15826,10.15826,0,0,1-4.546-.85171c-1.12363-1.28712-1.20121-2.97251-1.51593-4.56632a4.53984,4.53984,0,0,0-.85292-2.40468c-.43515,2.66763,1.08811,4.74136.79764,7.03779a4.00075,4.00075,0,0,1-2.48534,1.3077,22.65675,22.65675,0,0,1-3.32481-4.61071c-.26155-.42609-.37747-1.50322-1.0939-.98221-.56214.40879.14012,1.076.40769,1.57228.83,1.53975,2.24839,2.618,2.96882,4.24915a6.84637,6.84637,0,0,1-2.75479,2.871,8.6787,8.6787,0,0,0-3.57038,5.18214c-1.33707,4.83969-.66368,9.26283,2.66193,13.06484.40914.46775,1.18788.903.58587,1.7903-.70615.18764-1.20538-.25718-1.70949-.65389a52.09277,52.09277,0,0,1-8.88248-9.11781c-1.16482-1.501-.39646-2.71181.14761-4.03061a9.24225,9.24225,0,0,0,.4632-2.21395c-.02839.22773-.13885.79876-.20529,1.38183-1.23987,3.747-3.90641,5.27059-7.72774,5.44527.938-.001,1.63637-.34988,2.25971.17062a.66563.66563,0,0,1-.09109.68164c-3.46539,4.70012-5.18741,10.16612-6.19771,15.94674a11.97172,11.97172,0,0,1-.29082,1.24544c-.76259,1.67367-.90776,1.71218-1.95584.30657-1.23338-1.65408-2.54887-3.23465-3.78969-4.88093a2.22722,2.22722,0,0,0-1.16623-.99167c-2.50655-.85928-5.01227-.24823-7.4951.075a43.804,43.804,0,0,0-20.18779,7.74664,27.91976,27.91976,0,0,0-5.48338,5.23679A100.88783,100.88783,0,0,1,229.48742,210.69c.63473.29022,1.50705.34167,1.59549,1.37778a159.72165,159.72165,0,0,1-18.18868-.86061c-7.76377-.66578-15.49572-1.67462-23.2151-2.78546-7.60365-1.09418-15.186-2.37312-22.82837-3.138a64.43875,64.43875,0,0,0-12.3525-.51371c.03854-1.21977,1.10793-1.60781,1.72219-2.34649.72182-.868.52536-1.21192-.44635-1.40394-1.96123-.38758-3.8933.12-5.8147.31446-3.64954.36931-7.276.99775-10.89442,1.66516-1.49056.27492-2.44617.84037-2.65828,2.5373-.06735.53883-.044,1.2842-.82985,1.40756-.464-1.23565-1.32721-.36707-1.8622-.25078a166.468,166.468,0,0,0-21.89133,6.36721,148.99873,148.99873,0,0,0-28.45771,13.82742c-.33631.2122-.69264.38846-1.24014.693a26.57452,26.57452,0,0,1,2.37707-8.50279,37.73082,37.73082,0,0,1,15.69794-17.70021c1.248-.71977,1.23235-1.08509.307-2.16048-6.36884-7.40133-12.50221-15.00911-17.24742-23.74692A27.88232,27.88232,0,0,1,80,166.9109a35.47839,35.47839,0,0,0,8.86162,3.09866,218.334,218.334,0,0,0,24.31539,3.93149,92.36518,92.36518,0,0,0,11.33915.7328c.577-.00639,1.2813.34817,1.72442-.40275a1.17564,1.17564,0,0,1,.65889-.16836c5.8333.52676,11.62627-.10074,17.41861-.702A23.14051,23.14051,0,0,1,146.8729,173.61265Z" fill="#958d85"/>
      <path d="M306.25445,199.26841c.81243.09041,1.00281-.52,1.29-1.15862,1.31079-2.91467,2.603-5.83261,5.211-7.80117a8.97184,8.97184,0,0,1,5.73933-2.0808c2.05769.05346,4.13241-.235,6.16682.325a2.60231,2.60231,0,0,0,1.64539.50208c.35464.41342.85926.00632,1.24561.25488a12.59748,12.59748,0,0,0,4.57683,1.736c.31557.17659.18067.629.45136.83361,1.33545.41034,2.64157,1.117,4.08289.45752a1.90039,1.90039,0,0,1,.59977.36395,34.80871,34.80871,0,0,0,7.25331,2.22406,2.64551,2.64551,0,0,1,.78072.637l1.39.46378c.51876.23677,1.02026-.01052,1.52858-.06323a47.13477,47.13477,0,0,1,5.17681,1.25916c1.89553.459,1.89541.47207,2.14376-1.49317a1.69552,1.69552,0,0,1,.50451-1.30048c.61156-.10261.34616.51957.55089.75346.01224.18166.03738.36353.03477.54494-.0435,3.01968-.04428,3.01967,2.826,3.61381.49876.22413,1.00275-.18811,1.5026.00979,2.1606.63214,4.32682,1.24415,6.46432,1.9652a3.09447,3.09447,0,0,1,.634.49331c.88006.42917,1.741,1.024,2.7475.35978a1.67477,1.67477,0,0,1,.67282.21718c1.68793.83054,3.49455,1.30459,5.23765,1.96483.38876.18936.8327.20668,1.21392.42458.30912.94025,1.11254.85369,1.81029.98663.30575.09148.62692.06819.936.13822,2.15078.58611,4.08866,1.81209,6.25492,2.3525.36328.16361.62291.49583.977.67562a51.25683,51.25683,0,0,1,4.67453,2.81157,1.8862,1.8862,0,0,1,.6409.71464c.14231.57823.63534.84688.97992,1.24367,1.88555,2.17118,1.62183,4.16757-.76421,5.72969a9.71774,9.71774,0,0,1-4.57956,1.4232,5.24423,5.24423,0,0,0-1.831.40625c-.56541-.05979-1.084.32651-1.65792.2001-2.538-.0847-4.99231-1.06723-7.56369-.78327-.67768-.05927-.92721-1.17125-1.77624-.81243-2.88206-.59359-5.80625-.94287-8.6559-1.71588a10.04043,10.04043,0,0,1-1.07679-.21319q-4.67428-1.29222-9.35934-2.53875a8.45052,8.45052,0,0,0-2.17214-.6088,73.63209,73.63209,0,0,0-9.04335-2.5269,8.84435,8.84435,0,0,0-1.6368-.64091c-2.84681-.90963-5.68408-1.85005-8.56126-2.64428a6.82531,6.82531,0,0,1-1.298-.264,70.45616,70.45616,0,0,0-7.48054-2.52558c-.41771-.14464-.83944-.277-1.252-.43928a100.74063,100.74063,0,0,0-9.8568-3.21538c-.44214-.13514-.78124-.507-1.24239-.6-2.76349-1.08448-5.63976-.57645-8.4712-.71748-.74515-.0371-1.77409.36954-2.04785-.93768,1.97386-.92172,3.92494-.09651,5.70105-.14873-.41342-.253-1.12216-.085-1.79334-.16217C307.21662,199.89734,306.4626,200.23932,306.25445,199.26841Z" fill="#817a73"/>
      <path d="M231.08291,212.06775a83.793,83.793,0,0,0-13.06992-5.47854c-.48988-.16043-.98645-.29757-1.64156-.494a29.8274,29.8274,0,0,1,8.99179-7.842,45.69794,45.69794,0,0,1,18.76394-6.055c1.65949-.17052,3.30728-.22654,4.96278-.314a1.70084,1.70084,0,0,1,1.63322.75857,1.35219,1.35219,0,0,1,.47088.52569c2.876,7.04178,7.45632,13.02129,10.85761,19.73888a92.251,92.251,0,0,1,6.89893,16.74253c.17326.61863.54909,1.25149.08518,1.91251-3.73974-2.07441-7.46432-4.18044-11.2223-6.21676q-12.38748-6.7123-25.12058-12.65142C232.17011,212.45156,231.62018,212.27506,231.08291,212.06775Z" fill="#817a73"/>
      <path d="M205.557,152.61307c-3.98566,2.5552-8.23752,4.56261-12.397,6.75394a161.60731,161.60731,0,0,1-18.62628,8.46482,4.77774,4.77774,0,0,1-2.15283.55944c-3.99464-6.68494-9.00706-12.49282-13.95937-18.35349-2.44657-2.89533-4.87314-5.80978-7.54911-9.00232a90.64838,90.64838,0,0,1,10.95728-.08619,109.3243,109.3243,0,0,1,29.47587,5.065,81.9534,81.9534,0,0,1,12.46435,5.24553A3.52433,3.52433,0,0,1,205.557,152.61307Z" fill="#817a73"/>
      <path d="M256.92243,198.49033c.81763-5.84957,2.37632-11.41154,5.55729-16.355a5.30525,5.30525,0,0,1,1.40789-1.56214c1.50807-1.02007,1.88693-.879,2.19671,1.02731a49.78115,49.78115,0,0,0,4.9142,15.92357c4.24,7.83612,10.02383,13.69023,18.71239,15.3056,7.90341,1.46941,15.24336-.45743,22.061-4.83688.49007-.31481.94187-.69589,1.45908-.96815,2.71194-.94219,5.57246-.394,8.32524-.93778a2.88241,2.88241,0,0,1,.85638-.027c.81767.08838,1.98231-.74022,2.37888.21635.44765,1.07969-.88971,1.52794-1.51987,2.08842a22.85776,22.85776,0,0,0-3.64734,3.83669,2.62294,2.62294,0,0,1-1.37413,1.046,95.2728,95.2728,0,0,1-22.31189,2.62158,2.76,2.76,0,0,1-.569-.08646,10.8635,10.8635,0,0,0-3.2147-.39326,9.88249,9.88249,0,0,0-2.87414-.37141,158.4413,158.4413,0,0,1-22.26451-2.10733c-.59969-.09541-1.25192-.32684-1.77228.27255-.52357.1555-.717-.2799-.90361-.62818a122.40732,122.40732,0,0,0-6.93671-11.014A3.21309,3.21309,0,0,1,256.92243,198.49033Z" fill="#e7e2de"/>
      <path d="M146.8729,173.61265c-1.39868.59209-2.90816.41168-4.353.5931a81.13243,81.13243,0,0,1-8.88084.49724c-2.1508.03253-4.29569.57169-6.44-.06516-.32617-.09687-.63938-.24324-.95851-.36673-4.83511-3.75762-8.46465-8.60533-11.60793-14.26568a26.03438,26.03438,0,0,1,9.039,1.25367,43.866,43.866,0,0,1,15.334,7.13065C141.537,170.26953,144.24474,171.88044,146.8729,173.61265Z" fill="#827b73"/>
      <path d="M322.52644,187.11012c-5.07092-2.68822-7.18534-7.99732-5.52375-13.90572.17877-.63568.51971-1.24517-.00007-1.86958,1.117-.2458,1.10321-1.47908,1.68867-2.18905.54275-.80951.95273-1.78886,2.08451-1.84486a2.93734,2.93734,0,0,0,2.37631-1.46892,4.293,4.293,0,0,1,1.66266.69011l2.845.77989a1.80345,1.80345,0,0,1,1.42358,1.11848c4.23631,4.87791,4.638,10.65779,1.10807,15.92915A6.34013,6.34013,0,0,1,322.52644,187.11012Z" fill="#f3f3f3"/>
      <path d="M135.57685,206.944c.01232-3.865,2.47913-4.386,5.37322-4.833,4.32436-.66786,8.66555-1.15769,12.99459-1.7636a11.70042,11.70042,0,0,1,3.20972.41988c.8102.10725.66508.64868.189,1.13043q-1.421,1.43783-2.84509,2.87219c-5.23061,4.64034-11.31441,7.63312-17.57732,10.2684-1.43089.60209-2.91125,1.07109-4.82316,1.76663A78.55927,78.55927,0,0,0,135.57685,206.944Z" fill="#827b73"/>
      <path d="M256.92243,198.49033a4.086,4.086,0,0,0,.77336,2.71522c2.72689,3.84069,5.202,7.86361,7.5478,11.97754a61.1195,61.1195,0,0,1,6.34854,16.06554c.29077,1.37628-.01418,2.79105.75974,4.38438a9.84467,9.84467,0,0,1-3.31613-2.0706c-2.30619-8.84382-6.303-16.83974-10.80494-24.59778-2.58282-4.45091-5.61533-8.63542-7.32954-13.61756-.07822-.22737-.11929-.46922-.17789-.70427.63224-.37041.74475.28915.98959.60189,1.42045,1.81444,2.88176,3.599,4.199,5.496C256.63476,199.78161,256.62167,198.70112,256.92243,198.49033Z" fill="#b9b3ae"/>
      <path d="M295.26863,215.35733q.15764.03258.31691.05451c4.46036,1.62778,8.56669,4.09788,12.8553,6.13448,6.17478,2.93231,12.27975,6.02738,18.47451,9.471a27.10667,27.10667,0,0,0-1.105-5.50583,33.33915,33.33915,0,0,0-3.61554-9.853,2.50973,2.50973,0,0,1-.48969-1.71566c.26562-.45286.58381-.73976,1.10093-.39392,3.9886,6.512,5.18117,13.98387,6.61018,21.69522-12.13454-6.95095-24.38984-13.11215-36.52187-19.53718C293.5664,214.67264,294.46161,215.354,295.26863,215.35733Z" fill="#827b73"/>
      <path d="M322.806,213.54893l-1.04146.42706c-.90885,1.26594-2.29741,1.47081-3.61159,1.79515-.5469.135-1.24459.15828-1.51441-.49594-.21845-.52962.225-1.01578.502-1.47441.29385-.48658.81948-.64411,1.20426-.9992,2.10368-2.13408,3.903-4.61377,6.35119-6.51862l-11.49627,1.03349a3.43742,3.43742,0,0,1-1.427.48077,24.16759,24.16759,0,0,1-2.66656.00666,1.507,1.507,0,0,1-1.49544-.91392c.09128-.84448.7298-.75131,1.26465-.83663a2.12656,2.12656,0,0,0,1.7719.068c3.99652-.71392,8.05237-.69712,12.069-1.15357a6.06849,6.06849,0,0,1,2.84369.48415c.38846.05878.831-.05087,1.09428.39786.08829.87695-.65191,1.06489-1.11243,1.43958a36.25,36.25,0,0,0-6.038,6.1006,94.908,94.908,0,0,1,12.50883-4.92664,2.63891,2.63891,0,0,1,2.16874-.07755l1.51818.07286c.31572.78673-.25542,1.25132-.58865,1.79139-1.51128,2.44943-3.36812,4.64706-4.75232,7.38169a66.3154,66.3154,0,0,0,12.05058-5.58392c.56-.35777,1.0926-.92294,1.86283-.68681.53195.061,1.23787-.25232,1.35059.71067a.60649.60649,0,0,1-.04056.68138c-2.048,2.35864-3.20931,5.29446-4.65461,8.046a2.84431,2.84431,0,0,1-1.17251,1.2932c-.282-.028-.51384-.09784-.35382-.48828a49.89574,49.89574,0,0,1,4.17876-8.01034c.14443-.45152-.00882-.58431-.41851-.44257a67.52014,67.52014,0,0,1-14.95225,6.74736c1.48239-4.08786,3.74642-7.316,6.26334-10.83647-3.67233,1.22433-7.10422,1.92362-10.28769,3.47473C323.68583,212.77967,323.07194,212.91686,322.806,213.54893Z" fill="#6a6a73"/>
      <path d="M322.52644,187.11012c4.44366.22432,7.02083-1.41544,8.66361-5.51239,1.71109-4.26732.88213-9.61049-1.94613-12.5528-.18994-.1976-.53578-.25893-.50841-.64957.139-.2702.28918-.51833.64143-.37066.02346.49271.35791.69444.70032.94363a10.67846,10.67846,0,0,1,3.99051,12.14764c-1.35383,4.63447-4.57043,7.083-9.42477,7.1743C324.1,187.567,322.84705,188.28505,322.52644,187.11012Z" fill="#6e645d"/>
      <path d="M366.21079,217.54081l1.22368.08459c.08593,1.3387-.91757,2.17416-1.35434,3.27284-.64058,1.61131-1.51262,3.11425-2.23922,5.03636,3.248-1.72256,6.27783-3.23075,9.12537-5.12433a4.74888,4.74888,0,0,1,3.346-1.18125c.27177.05318.46886.16425.35684.51648-4.64463,2.615-9.09659,5.65527-14.43251,7.48406a30.57662,30.57662,0,0,1,3.7585-9.06134c-4.15286,1.96813-7.57891,4.61963-11.67521,5.6695-.36282.19835-.456-.03645-.49959-.35111a1.67736,1.67736,0,0,1,.90875-.79813,99.69756,99.69756,0,0,0,9.68935-5.15242A2.19969,2.19969,0,0,1,366.21079,217.54081Z" fill="#6d6d76"/>
      <path d="M393.21928,212.454a.69322.69322,0,0,1-.67206-.33342c.72938-2.30011,2.89334-3.13664,4.28451-4.9125a44.19759,44.19759,0,0,0-6.71969,1.51065,4.78349,4.78349,0,0,1-2.32417.46184.74465.74465,0,0,1-.78068-.797,3.67468,3.67468,0,0,1,.89173-2.656,40.38424,40.38424,0,0,0,1.95811-4.45279,31.46742,31.46742,0,0,0-6.44837,3.36816,7.45215,7.45215,0,0,1-2.87123,1.55848.76582.76582,0,0,1-.80151-.44c3.70136-2.52335,7.40949-5.03169,12.043-6.23554a88.0702,88.0702,0,0,1-4.12372,8.919A40.765,40.765,0,0,1,400,205.76213C397.69091,208.36526,395.00177,209.90247,393.21928,212.454Z" fill="#717179"/>
      <path d="M353.90643,223.91943l.41335.31823a4.5033,4.5033,0,0,1-2.55034.639,54.09419,54.09419,0,0,1,3.42931-9.096c-6.00154,2.50583-11.352,5.306-17.16334,8.15309.608-1.0374.98685-1.68365,1.36563-2.32992l.29408.39423c4.64994-2.55667,9.43408-4.82256,14.0929-7.36017a.93569.93569,0,0,1,1.12507.00474,1.2024,1.2024,0,0,1,1.75076.375c.25441.71765-.30106,1.1181-.59344,1.5893a27.12667,27.12667,0,0,0-2.49641,5.75533C353.35732,223.00681,353.29756,223.51907,353.90643,223.91943Z" fill="#6f6f77"/>
      <path d="M324.81477,166.5221c-.51188-.34551-1.56236.77812-1.66266-.6901.45353-1.63141.99919-3.24227,1.32614-4.90191.19727-1.00133.599-1.131,1.40648-.96,1.062.22483.66168.93671.48471,1.5345C325.87218,163.1841,325.33574,164.85051,324.81477,166.5221Z" fill="#0a0a0a"/>
      <path d="M345.29746,195.56185a.70208.70208,0,0,1-.71024-.35909c-.91835-1.41961.45067-2.76354.12453-4.25922-1.98645.315-3.80607,1.20637-5.72828,1.67664-.64148.157-1.28329.59674-1.94019.04091l-.37958-.32422c3.32125-1.09647,6.64252-2.193,10.20656-3.36961A30.90284,30.90284,0,0,0,345.29746,195.56185Z" fill="#75757d"/>
      <path d="M320.7758,167.30091a8.297,8.297,0,0,1-2.08451,1.84486,34.14386,34.14386,0,0,0,.35972-5.24732c-.04532-.79161.28008-1.04215,1.00718-1.02593.68424.01526,1.10654.16014,1.024,1.003C320.97043,165.01624,320.87705,166.159,320.7758,167.30091Z" fill="#0a0a0a"/>
      <path d="M329.37694,168.0247q-.32073.18528-.64143.37062-.53787-.54662-1.07575-1.09332a28.00675,28.00675,0,0,0,.656-3.19911c.08324-.88148.295-1.06314,1.138-.94841.94789.129.9819.62523.80885,1.35329C329.98305,165.68428,329.67372,166.8528,329.37694,168.0247Z" fill="#0d0d0d"/>
      <path d="M385.64391,221.26189c.45959-.17517.91815-.67016,1.38051-.00509-3.59462,2.24408-6.93688,4.991-11.02,6.26181-.37063.15247-.435-.0891-.44993-.395.61247-1.00588,1.75259-1.0694,2.6104-1.64244,1.83937-1.22878,3.7876-2.26534,5.59863-3.54768A2.2857,2.2857,0,0,1,385.64391,221.26189Z" fill="#707078"/>
      <path d="M377.92561,204.77479c-.34062.20569-.68829.48078-.9482-.10894-.4302-1.1209.303-1.98153.60272-2.9286.38406-1.21364.90765-2.37409,1.31157-3.59955-.29684-.46012-.761.04515-1.07687-.22071a.28428.28428,0,0,1-.155-.25969q.0096-.16537.05209-.16538c.7759-.46257,1.71752-1.53892,2.35077-1.055.65315.49915.05431,1.79156-.22942,2.68561C379.23152,201.0189,378.56535,202.89209,377.92561,204.77479Z" fill="#717179"/>
      <path d="M348.099,196.28234c-.48033-.02467-.99687.17589-1.41157-.25675.939.03824,1.56272-.66539,2.301-1.10267,2.723-1.613,5.44887-3.22072,8.51349-5.03121-.32632,1.46448-.55856,2.50684-.79082,3.54919a.82233.82233,0,0,1-.57333-.458c-.10507-.55075-.1403-1.0841-.92317-.59012-1.61991,1.02212-3.28934,1.95466-4.947,2.90778A8.38424,8.38424,0,0,1,348.099,196.28234Z" fill="#7a7a81"/>
      <path d="M368.05372,201.80841l-.76613-.0445c-.32419-1.71069.41635-3.27022.6118-4.907.071-.59482.57973-1.27329-.24829-1.72626a.91254.91254,0,0,1-.33666-.31419c.72791-.43561,1.45581-.87122,2.55047-1.52634C369.2038,196.39941,368.62877,199.10392,368.05372,201.80841Z" fill="#76767e"/>
      <path d="M367.31444,194.81643l.44684.04422a.6661.6661,0,0,1-.1824.66847c-2.17873,1.55755-4.297,3.23386-6.85179,4.0764-.434-.03819-.90735.13736-1.27428-.26542C362.09562,197.876,364.53918,196.01992,367.31444,194.81643Z" fill="#75757d"/>
      <path d="M375.64813,227.18347l.35625.33514c-.634.5069-1.35862.41037-2.29166.50617.75949-2.38067,1.962-4.29566,2.80465-6.38043.1708-.42248.98327-.9138.15174-1.49885l-.43477-.41842.00743-.24825c.83113-.1894.99965.67952,1.48056,1.04949.0535,1.814-1.20991,3.06871-1.74049,4.635C375.76005,225.818,375.15948,226.39733,375.64813,227.18347Z" fill="#7c7c84"/>
      <path d="M377.7119,197.49192q.002.15216.00281.30431c.04209.12029.0869.28687.0176.3468-2.01486,1.74252-3.83736,3.81031-6.52873,4.42165l-.40232-.3965A40.19006,40.19006,0,0,1,377.7119,197.49192Z" fill="#72737b"/>
      <path d="M332.58077,191.87936c-.33744-.11292-.4036-.40376-.42093-.72663-.07859-1.293,1.12894-1.65778,1.62039-2.55521a2.54311,2.54311,0,0,1-1.26221-.16889.88928.88928,0,0,1-.42664-.613,10.95766,10.95766,0,0,1,4.07133-.42446C334.91168,189.0795,333.35528,190.14522,332.58077,191.87936Z" fill="#71727a"/>
      <path d="M332.09138,187.81558l.42045.3628A5.79949,5.79949,0,0,1,327.412,189.378c-.40223.02371-.95494.62994-1.10493-.3231A25.56225,25.56225,0,0,1,332.09138,187.81558Z" fill="#6f6f77"/>
      <path d="M295.26863,215.35733c-.77948.20868-1.654-.31359-2.37433.34967l-.73976-.31776A3.07456,3.07456,0,0,1,295.26863,215.35733Z" fill="#b9b3ae"/>
      <path d="M356.37244,193.01441l.33856.42645q-.05942.87026-.11894,1.74046l-.30347-.75108A.97761.97761,0,0,1,356.37244,193.01441Z" fill="#686770"/>
      <path d="M343.16127,213.151c.289-.30944.64658-.79854,1.00862-.44019.18983.18788-.25922.66637-.59013.88274Z" fill="#dddee0"/>
      <path d="M279.78917,169.20814l2.71127-2.6169c.163-.501.46395-.69686.94892-.48554l2.54708-1.0726a1.48233,1.48233,0,0,1,1.67613-.29143,13.89524,13.89524,0,0,1,4.53935,1.01551c.83519-.3837,1.18276.36575,1.66186.80961a15.10239,15.10239,0,0,1,5.6869,10.797c.58036,7.07068-4.18175,14.89031-11.75905,14.20453a7.98748,7.98748,0,0,0-.85724.01135c-3.21649.03782-5.56637-1.75028-7.37438-4.30524a15.33542,15.33542,0,0,1-1.68721-15.56573A4.7845,4.7845,0,0,1,279.78917,169.20814Z" fill="#f3f3f3"/>
      <path d="M311.825,207.32883l1.37476-.01237a25.97334,25.97334,0,0,1-12.76543,5.85549c-16.88113,3.25889-27.56442-7.41491-32.4235-21.46855a59.84574,59.84574,0,0,1-2.53607-11.37395l-1.587.2437-2.39336,0c3.21514-1.03421,6.32619-2.079,7.56931-5.90274.82978.12058.41918.66484.3315,1.0988-1.37255,2.09428-.31986,3.51142,1.01881,5.10085a51.15728,51.15728,0,0,0,8.93226,8.52661,3.847,3.847,0,0,1,2.46479,1.75469,48.09471,48.09471,0,0,0,24.44364,8.1169c.60521.50374,1.31132.21179,1.971.27533a3.28619,3.28619,0,0,1,2.13508.87445h-6.52648a2.27,2.27,0,0,1-1.98049.33591c-11.73565-1.72792-22.03474-6.62078-30.39927-15.72359-1.28449-1.39785-2.31941-3.02671-3.68121-4.83569.73583,5.55519,1.32924,10.79274,4.37289,15.25591,5.07016,9.73128,12.24294,16.1371,23.219,16.1028a30.71458,30.71458,0,0,0,11.44441-2.34486A44.42128,44.42128,0,0,1,311.825,207.32883Z" fill="#381534"/>
      <path d="M281.811,191.15138a7.384,7.384,0,0,1-2.46474-1.75494c.35889-.97654-.55893-1.18508-.95188-1.61828-4.47632-4.935-4.27859-13.68582.47185-18.27785.23206-.2243.43035-.87746.92294-.29219a15.01755,15.01755,0,0,0-1.3297,15.3534,11.578,11.578,0,0,0,8.48494,7.01818c-1.05747.74347-2.07055.12008-3.10678-.09069C283.16755,191.35271,282.59008,190.53622,281.811,191.15138Z" fill="#6f655e"/>
      <path d="M287.67257,164.74167l-1.67613.29143c-.44077-1.94957-.89788-3.8952-1.31361-5.85079-.14877-.69987-.36617-1.47284.67806-1.69761,1.08464-.23348.87381.6286.971,1.2293A41.11639,41.11639,0,0,0,287.67257,164.74167Z" fill="#070606"/>
      <path d="M283.44936,166.10571l-.9489.48553a24.57941,24.57941,0,0,1-3.7561-4.91316c-.32525-.57055-.72993-1.13682.10215-1.67362.81748-.52738,1.11938.019,1.36568.6714C280.97659,162.70054,282.78056,164.01972,283.44936,166.10571Z" fill="#060606"/>
      <path d="M293.87378,166.56679l-1.66184-.80959a28.84062,28.84062,0,0,1-.7478-5.41425c.00478-.631-.15884-1.39368.84936-1.44125.99226-.04684.96074.6284.92315,1.31759A27.81977,27.81977,0,0,0,293.87378,166.56679Z" fill="#070707"/>
      <path d="M269.39512,175.76923c-.06987-.38022.07819-.8349-.33154-1.09889q.203-.94055.40585-1.88127C269.70831,173.82737,269.98917,174.8326,269.39512,175.76923Z" fill="#52354b"/>
      <path d="M271.77852,195.59792c-2.633-3.74626-3.57239-8.1245-4.08832-12.63716a13.45488,13.45488,0,0,1-.31988-4.02091c9.088,13.28739,21.47788,19.90739,36.46382,21.47816a13.581,13.581,0,0,0,5.09363.20983,17.50394,17.50394,0,0,1,5.862.85575c.66806.63212.05128,1.00588-.31735,1.24045-1.80109,1.14606-3.41279,2.64295-5.441,3.3725-.43477.22691-.776.72169-1.35495.53568-1.03936-1.4986-2.14163-.99648-3.50274-.39727-2.69688,1.18729-4.94085.50519-6.76531-1.75813-.40065-.497-.75962-.70353-1.32062-.393-.30586.16928-.61224.33805-.92313.49681-3.11855,1.59271-5.77425.85682-7.51882-2.29748a2.3795,2.3795,0,0,0-2.74449-1.52265c-2.53965.36218-4.72511-.18817-5.65628-3.18085-.32456-1.04316-1.0632-.63872-1.726-.51553C275.40971,197.45616,273.392,197.41584,271.77852,195.59792Z" fill="#f3f3f3"/>
      <path d="M354.91309,214.64271c-4.56506,2.3213-9.12517,4.65378-13.7028,6.94665-.45723.229-.87056.87921-1.51483.40878,2.12764-3.20586,3.20432-7.12247,5.927-9.92638.10351-.051.21495-.15938.30931-.14455A28.16754,28.16754,0,0,1,354.91309,214.64271Z" fill="#bfbec0"/>
      <path d="M344.27193,211.361c-4.47253,3.14312-9.46615,5.04911-14.72418,7.07357,1.60353-3.85291,4.337-6.60115,6.15134-9.97615C338.53679,209.49357,341.52015,210.04,344.27193,211.361Z" fill="#bfbec0"/>
      <path d="M353.90643,223.91943c-.385.04271-.799.46991-1.12854.15989-.37924-.35682.05028-.786.16831-1.15338a24.73836,24.73836,0,0,1,3.71763-7.90821,55.344,55.344,0,0,1,9.54772,2.52337c-3.67453,1.81423-7.098,4.16609-10.88515,5.738C354.84766,223.47776,354.3795,223.70527,353.90643,223.91943Z" fill="#bfbec0"/>
      <path d="M376.24177,219.47883a.42845.42845,0,0,1-.0069.24866,8.52528,8.52528,0,0,0-3.24879,1.579,102.65735,102.65735,0,0,1-9.89578,5.51506,47.48015,47.48015,0,0,1,4.34373-9.19636Q371.83835,218.55222,376.24177,219.47883Z" fill="#bfbec0"/>
      <path d="M334.18131,208.38577a86.6189,86.6189,0,0,0-15.86415,6.0498,34.874,34.874,0,0,1,8.337-8.58578A23.19736,23.19736,0,0,1,334.18131,208.38577Z" fill="#bfbec0"/>
      <path d="M380.53743,206.20141a32.76161,32.76161,0,0,1,9.72247-5.53176c-.49581,2.99-2.10825,5.24257-3.2526,7.71407-.39986.37792-.79039.2889-1.25468.079C384.02507,207.68182,382.27749,206.951,380.53743,206.20141Z" fill="#bfbec0"/>
      <path d="M375.64813,227.18347c-.55846.15619-1.25811.50464-.70078-.677.93681-1.98635,1.85105-3.98473,2.77489-5.97808.20255-.20089.4448-.60642.60152-.57193,2.42527.5336,4.94407.4757,7.3201,1.30548A76.2295,76.2295,0,0,1,375.64813,227.18347Z" fill="#bfbec0"/>
      <path d="M325.55994,205.45192c-5.17424.15106-10.32073.713-15.47339,1.18335-.21032.10351-.45541.20417-.61222-.02877-.27465-.408.03146-.71277.3011-.86753,1.97426-1.13314,3.67486-2.77322,5.831-3.56676A41.24154,41.24154,0,0,1,325.55994,205.45192Z" fill="#bfbec0"/>
      <path d="M356.37244,193.01441q-.04176.7081-.08368,1.416a2.02116,2.02116,0,0,0-.31683,1.3856c-.12874,2.5427-.13,2.55257-2.38387,1.95845-1.8332-.4832-3.66008-.99359-5.48942-1.492,2.6077-1.95418,5.528-3.29843,8.39751-5.07361Z" fill="#bebdbf"/>
      <path d="M371.20358,202.56468a49.80793,49.80793,0,0,0,6.51108-4.7687c.57552-.20595,1.151-.41216,1.9929-.71382-.96109,2.67045-1.84539,5.1275-2.72992,7.58411A14.9273,14.9273,0,0,1,371.20358,202.56468Z" fill="#bfbec0"/>
      <path d="M360.72709,199.60552c2.216-1.79713,4.91177-2.78927,7.0336-4.74511.5909-.13744,1.15913-.297.90981.75989-.48176,2.04246-.92363,4.09557-1.38249,6.14393Q364.00713,200.68456,360.72709,199.60552Z" fill="#bfbec0"/>
      <path d="M387.78787,209.18055c3.179-1.56541,6.59857-2.00461,10.33846-2.64241-2.03935,2.04044-3.80925,3.81128-5.57915,5.58227Q390.16757,210.65064,387.78787,209.18055Z" fill="#bebdbf"/>
      <path d="M337.04328,192.6611l8.47536-2.52406c-.20575,1.80415-.91735,3.3688-.9314,5.0657-2.59648-.09518-4.9719-1.20445-7.44865-1.84778C336.695,193.23971,336.90542,192.9206,337.04328,192.6611Z" fill="#bfbec0"/>
      <path d="M327.412,189.378q2.55-.59963,5.09987-1.1994a5.45875,5.45875,0,0,0,2.43464-.34977c-1.08491,1.29419-1.93569,2.30909-2.78655,3.324A5.20121,5.20121,0,0,1,327.412,189.378Z" fill="#bdbcbf"/>
      <path d="M315.60642,202.17221c-1.80946,1.21915-3.62405,2.4299-5.42261,3.667-.25574.17593-1.19916.38177-.09718.79578-.69411.58032-.96791.22806-1.05515-.53832,1.36581-1.38439,3.09874-2.18271,4.6261-3.30626.44045-.324,1.3125-.33761,1.13271-1.30693Q315.19784,201.82793,315.60642,202.17221Z" fill="#7c7d84"/>
      <path d="M318.34479,212.80159c-.40141.85056-1.24768,1.40941-1.45175,2.49589,1.86443.41792,3.27775-.84844,4.87186-1.32187,3.4058,5.37691,4.61195,11.55424,5.9569,17.99547-2.00656-1.08421-3.716-2.05989-5.4661-2.94468q-12.59278-6.36666-25.20075-12.69931c-.51089-.25779-.98048-.60815-1.46935-.91535A118.27049,118.27049,0,0,0,318.34479,212.80159Z" fill="#b9b3ae"/>
      <path d="M320.53722,176.15428c1.22282.16129,2.10764,1.7395,1.89322,3.37682-.22195,1.69469-1.17658,2.69731-2.37267,2.49192-1.23926-.21282-2.16057-1.81484-1.94583-3.3836C318.33256,177.02793,319.33938,175.99628,320.53722,176.15428Z" fill="#040404"/>
      <path d="M271.77852,195.59792c2.1718,1.20411,4.40412,1.7324,6.75213.60494.50649-.2432.73258-.12035.85642.42616.90672,4.00117,3.21417,4.17213,6.55494,3.50795.88724-.17639,1.14658.10226,1.50936.89648,1.84712,4.0439,4.42964,4.89336,8.12271,2.72423.98-.57557,1.72977-1.25923,2.25167.60755.36975,1.32252,1.65436,1.75439,2.92858,1.875a5.68118,5.68118,0,0,0,3.84142-.70622c1.59568-1.09856,2.49775-.68078,3.08061,1.098,1.21012,1.39764,2.78322.3463,4.14853.69675a34.64094,34.64094,0,0,1-12.80888,4.39862,21.53774,21.53774,0,0,1-12.005-1.07935C280.08823,207.78894,275.05958,202.67332,271.77852,195.59792Z" fill="#6c404f"/>
      <path d="M295.88632,178.97788c-.04561,1.94016-1.61046,3.80476-3.1299,3.72945-1.38049-.06843-2.619-1.65224-2.6172-3.34692.00206-1.96721,1.47166-3.78751,3.06087-3.79128C294.69372,175.56559,295.92968,177.134,295.88632,178.97788Z" fill="#020202"/>
    </g>
    <g>
      <g>
        <path d="M270.79905,109.19039s4.4525-10.714-12.18848-16.6426-4.83844,29.998,3.56482,33.63913c0,0,22.07558-5.73025,26.32394-15.86959S280.32763,95.10578,270.79905,109.19039Z" fill="#f3859b"/>
        <path d="M309.70906,112.65713s3.92793-5.79686,12.42395.65484-13.52216,12.37379-18.1388,9.33009c0,0-4.41676-13.05781-.711-18.56127S313.65641,103.17833,309.70906,112.65713Z" fill="#f3859b"/>
        <path d="M315.51482,135.80245c-2.16855-1.96449-6.6198-2.74614-9.30309-2.1059a5.83186,5.83186,0,0,0-1.37721.54465,9.31014,9.31014,0,0,0-7.12113-8.29415,6.12626,6.12626,0,0,0-7.80443,6.90842c1.00356,5.56592,5.52416,10.06092,8.16128,14.855a37.15028,37.15028,0,0,0,3.96957,6.40417C305.50192,151.11775,321.70708,141.412,315.51482,135.80245Z" fill="#f3859b"/>
        <path d="M250.74813,95.57311s-2.37978,8.21552,4.6231,22.47118c1.45892,2.96991,3.695,6.27967,6.80416,8.14263,0,0-10.95433-12.53441-8.50752-27.30776,0,0,1.35908-5.34225,4.9427-6.33137C258.61057,92.54779,252.68746,90.1139,250.74813,95.57311Z" fill="#ab477e" opacity="0.5"/>
        <path d="M270.79905,109.19039s9.18835-13.12686,16.54975-7.15943C287.3488,102.031,279.58284,100.23529,270.79905,109.19039Z" fill="#ab477e" opacity="0.5"/>
        <path d="M300.811,127.21963s-4.57775-2.27828-6.62288.44582-3.09156,6.883.66506,13.29247c0,0,6.89854,11.566,7.18659,13.15674,0,0-7.6096-12.87585-8.68921-13.47627,0,0-5.21877-7.14623-2.68445-11.854C290.66615,128.78441,294.31224,123.07008,300.811,127.21963Z" fill="#ab477e" opacity="0.5"/>
        <path d="M304.83452,134.2412s.398,1.45907.13227,1.90387c0,0,5.62876-3.71321,9.83868-.7028A10.53682,10.53682,0,0,0,304.83452,134.2412Z" fill="#ab477e" opacity="0.5"/>
        <path d="M303.99421,122.64206s-4.37072-12.64839-.711-18.56127a3.914,3.914,0,0,1,4.82493-2.05959S301.05806,102.67008,303.99421,122.64206Z" fill="#ab477e" opacity="0.5"/>
        <path d="M309.70906,112.65713l-.31627,1.85533s5.34853-6.70814,12.74022-1.20049C322.133,113.312,315.16516,107.14824,309.70906,112.65713Z" fill="#ab477e" opacity="0.5"/>
        <path d="M277.80351,116.78053s5.09282-3.54031,6.49073-7.05494l1.84115,2.09574S281.06387,116.42275,277.80351,116.78053Z" fill="#fff" opacity="0.5"/>
        <circle cx="286.69321" cy="107.51594" r="1.32057" fill="#fff" opacity="0.5"/>
        <path d="M314.11485,120.779s5.76358-1.95783,5.98473-3.27068l.48352,1.40018A9.45812,9.45812,0,0,1,314.11485,120.779Z" fill="#fff" opacity="0.5"/>
        <circle cx="321.86055" cy="117.15335" r="0.84778" fill="#fff" opacity="0.5"/>
        <path d="M303.58258,136.32628s-.34353-4.49221-1.81948-5.34174c0,0-1.29454.91449-1.50973.83783S302.93906,133.58841,303.58258,136.32628Z" fill="#fff" opacity="0.5"/>
        <circle cx="299.23191" cy="129.92092" r="1.14281" fill="#fff" opacity="0.5"/>
      </g>
      <path d="M262.06819,75.64606a6.06173,6.06173,0,0,0-4.65082,1.37061,2.97046,2.97046,0,0,0-.47686.58313,4.72411,4.72411,0,0,0-5.2113-1.91761,3.11809,3.11809,0,0,0-1.75783,5.0014c1.821,2.22246,4.93887,3.09782,7.29441,4.57276a18.8446,18.8446,0,0,0,3.345,1.85955C261.40733,84.92731,266.20366,76.602,262.06819,75.64606Z" fill="#f3859b"/>
      <path d="M262.06819,75.64606a6.06173,6.06173,0,0,0-4.65082,1.37061,2.97046,2.97046,0,0,0-.47686.58313,4.72411,4.72411,0,0,0-5.2113-1.91761,3.11809,3.11809,0,0,0-1.75783,5.0014c1.821,2.22246,4.93887,3.09782,7.29441,4.57276a18.8446,18.8446,0,0,0,3.345,1.85955C261.40733,84.92731,266.20366,76.602,262.06819,75.64606Z" fill="#ab477e" opacity="0.5"/>
      <path d="M254.42522,68.53319A9.61845,9.61845,0,0,0,255.633,66.82c.79718-1.27829,2.19963-2.50252,2.46693-3.9608.21751-1.18666-1.17794-2.07089-2.56262-1.69652a2.63555,2.63555,0,0,0-2.19752,2.24364,2.13508,2.13508,0,0,0-.44571-.1242,4.52693,4.52693,0,0,0-2.955.66366C248.01277,65.48045,253.28908,67.7982,254.42522,68.53319Z" fill="#f3859b"/>
    </g>
  </g>
</svg>
