<svg xmlns="http://www.w3.org/2000/svg" width="600" height="600" viewBox="0 0 600 600">
  <title>character-splash-full</title>
  <g id="Layer_16" data-name="Layer 16">
    <path d="M559.23155,218.79838C600,144.06589,581.15938,57.59718,497.61836,17.30581,393.46568-32.92645,328.253,41.83186,286.62713,45.27041c-40.03324,3.307-136.18437-7.8717-204.94189,23.03593C-6.41586,107.90921,48.72374,190,48.72374,190s-106.146,224.94031-5.09852,333.0726c-33.49171,20.783-14.35023,64.73,30.51472,72.56217C165.71,611.6204,333.26362,578.55739,333.26362,578.55739S465.564,593.996,512.10322,544.173C677.05237,523.83705,559.23155,218.79838,559.23155,218.79838Z" fill="#b2d4cd"/>
  </g>
  <g id="Background">
    <g>
      <path d="M364.41991,414.60467c-.33645-.1293-.829-.15879-.98527-.40325-1.63254-2.55392-3.8895-4.71421-4.87738-7.6757a129.04112,129.04112,0,0,0-2.83-26.575c-.53446-2.41938-.468-5.12743-2.21431-7.21258a5.34334,5.34334,0,0,1,.48845-.98261c3.00115-3.83725,5.85358-7.81187,7.36059-12.47184,1.60307-4.95717,1.36845-9.77182-1.76644-14.33156-1.70246-2.47626-4.43407-3.812-6.05239-6.27737-1.45476-1.83234-1.54919-4.15533-2.24313-6.26-1.26912-3.84936-1.32261-7.93629-2.257-11.8532,1.61616-.35929.8463-1.27926.409-2.00347-.54214-.89776-1.20068-1.72674-1.82791-2.57138A27.25823,27.25823,0,0,0,332.22065,305.632a81.43031,81.43031,0,0,0-19.894-2.18445c-14.61261-.13529-29.26156-.83627-43.82553,1.20484-7.80985,1.09455-14.56689,4.11893-19.55487,10.435-1.15219,1.459-2.479,2.8249-3.09125,4.664-.20972.63-.49552,1.18192.51488,1.26881a35.9112,35.9112,0,0,1-.94182,7.758c-.8598,3.32289-1.77517,6.63142-2.66663,9.94613-3.059,2.25513-5.93553,4.74877-7.61912,8.206-2.92457,6.00555-1.62249,11.76018,1.58047,17.24167,1.62189,2.77568,3.41485,5.45141,5.13048,8.17232-.29231,1.1633-.57225,2.32986-.8791,3.4893a124.992,124.992,0,0,0-2.69163,14.62071,102.32962,102.32962,0,0,0-.547,15.31082c1.04252-.22911,1.60582-.82657,1.68014-1.4056,1.31151-10.21864,2.55312-20.44626,3.80986-30.67194.46131-.31079.26877-.83136.40034-1.24794a14.15174,14.15174,0,0,0,4.19784-4.87131c2.20015-3.54681,3.7639-7.36449,3.56628-11.6313-.169-3.64806-1.63745-4.98566-4.95833-4.905a20.75307,20.75307,0,0,1-.02147-2.46913,57.86249,57.86249,0,0,0,.4101-12.05437,3.08712,3.08712,0,0,0,.05863-3.14891,9.06593,9.06593,0,0,1,4.56324-1.73373c4.65195-.55564,7.80127-.40123,10.20087,5.71852,1.13363,2.89106.77766,5.711.70463,8.64018-.17854,7.16061-.71983,14.29306-1.48572,21.40254a63.86435,63.86435,0,0,1-2.11869,11.72205c-1.17582,3.865-2.56169,7.64238-3.49555,11.60935a75.92886,75.92886,0,0,0-.97428,30.49749c1.54821,8.99576,4.6171,17.55992,10.382,24.94492a36.15062,36.15062,0,0,0,19.6542,13.30952c7.15763,1.87633,14.45875,1.80069,21.78547,1.02956,9.4754-.99722,17.22453-5.42719,23.45312-12.31984a46.86586,46.86586,0,0,0,10.34674-20.0962,73.62718,73.62718,0,0,0,2.37659-25.7028,80.015,80.015,0,0,0-3.51812-18.33279c-3.07587-8.90962-4.18061-18.1102-4.80966-27.45563-.26266-3.90242-.26689-7.81814-.6602-11.72479-.436-4.33025.05614-8.65889,3.60317-11.86836,2.74852-2.4869,7.59591-2.2866,11.74137.35915q-.03181,1.54368-.06331,3.08771.40707,7.31565.81415,14.63127c-3.22131-.21123-4.76692.98033-4.87965,4.34017-.23071,6.87779,2.54145,12.48591,7.74006,16.93429.56439.30716.38551.84666.41314,1.32161.36065,2.975.61512,5.96744,1.10321,8.92134,1.15259,6.97563,1.58758,14.01562,2.07993,21.05284-.51067,3.60568.73025,6.3432,3.29426,9.04978a116.7133,116.7133,0,0,1,19.2577,26.92122c5.28558,10.28342,8.64938,21.10057,7.804,32.79978-.76972,10.65241-4.55766,20.36342-10.187,29.38213a76.37338,76.37338,0,0,1-18.00279,19.77c-.666.52085-2.269.58194-1.89078,1.5625.40173,1.04153,1.91558.93272,3.01615.85422,3.82481-.27267,7.64424-.51214,11.45348-1.08372,5.652-.848,11.16788-.20676,15.26866,4.24347,4.08,4.42773,5.49448,9.75769,3.57544,15.66138-.37994,1.16881-.94012,2.4252-2.47714,2.62421-.53244-3.1751-.83056-6.43386-3.17463-9.333a37.82152,37.82152,0,0,0,2.09687,10.33458,14.27927,14.27927,0,0,1-7.63679,2.6384,21.98872,21.98872,0,0,0-7.12436-13.434c1.7084,4.49757,3.65067,8.89115,4.3134,13.69561-5.95464,1.28843-11.887.44463-17.77164-.40733a83.24493,83.24493,0,0,1-16.21466-3.95815,28.09581,28.09581,0,0,1-8.42924-4.63505,3.34018,3.34018,0,0,1-1.32854-2.67947c-.46825-8.25556,1.7488-15.96615,4.60143-23.568,1.588-4.23183,3.26292-8.49514,3.64247-13.01412.688-8.19081-3.34952-14.54412-11.154-18.45842-6.07516-3.04695-12.60648-4.3912-19.23957-5.36843-4.39582-.64763-8.83037-1.40091-13.25792-1.20584a115.47336,115.47336,0,0,0-12.74121,1.67175,57.437,57.437,0,0,0-15.99643,4.62324,21.2786,21.2786,0,0,0-9.68212,8.72818c-2.68423,4.71549-2.59214,9.69367-1.10112,14.65023,1.66788,5.54448,3.75815,10.96081,5.48594,16.48877,1.09951,3.51779,1.21152,7.26647,1.96544,10.84723,1.24981,5.9359-2.07812,8.50783-6.63981,10.58575-6.22935,2.83757-12.876,4.19424-19.544,5.318-5.7938.97651-11.67068,1.55978-17.55024.42329.7152-4.81992,2.545-9.29161,4.3605-13.81851a12.79966,12.79966,0,0,0-3.71444,3.96852,33.51979,33.51979,0,0,0-3.85494,9.51778,13.46817,13.46817,0,0,1-6.738-2.30231,68.71216,68.71216,0,0,1,2.37471-11.99625c-2.88736,3.014-3.38491,6.913-4.25027,10.6709-3.1648-2.30314-3.54009-5.67016-2.96721-9.05685,1.69886-10.04322,9.27-15.12506,19.395-13.48945,3.85426.62263,7.78636.76254,11.68256,1.127a6.739,6.739,0,0,0,3.33868-.69973c-2.23134-1.84953-4.32436-3.515-6.3412-5.26815a71.90811,71.90811,0,0,1-20.18248-28.88148,55.11507,55.11507,0,0,1-3.9511-21.79368,57.69852,57.69852,0,0,1,3.64755-18.04185A93.1025,93.1025,0,0,1,224.8883,427.369c.978-1.38658,1.09268-2.02254-.769-2.63153-1.81829-.5948-3.47088-1.70712-5.51579-1.249a76.42377,76.42377,0,0,0,5.56747-15.99767,162.23978,162.23978,0,0,1-11.12712,17.14472c-4.63445-.211-7.08664-2.4168-7.91848-7.12439a6.66647,6.66647,0,0,1-.28288-1.77935c.35363-3.23392-1.94712-4.621-4.15379-6.04363a38.30388,38.30388,0,0,0-26.6287-5.89089,28.66246,28.66246,0,0,0-19.0031,11.29956c-5.81617,7.51007-8.3841,16.42445-10.913,25.38379-2.88125,10.20775-5.448,20.5747-11.741,29.43046-.8725,1.22779-1.87462,2.36306-2.80771,3.54825-1.11576,1.41729-2.02349,1.23306-2.93522-.2569a12.788,12.788,0,0,1-1.50253-3.26552,41.1105,41.1105,0,0,1-.90527-16.38667,161.7295,161.7295,0,0,1,3.35995-19.57244,94.68636,94.68636,0,0,1,7.42662-18.8308c2.75647-5.52068,5.20346-11.21275,9.18243-16.01424a49.87058,49.87058,0,0,1,12.21833-10.24863,63.63307,63.63307,0,0,1,12.7284-6.29722,36.52151,36.52151,0,0,1,13.76242-1.8128c7.86737.32434,14.66738,3.55435,21.27109,7.43024a18.73973,18.73973,0,0,0,2.47445,1.10855c.65422.26506,1.33129,1.47347,2.02235.211.60631-1.10756,1.974-2.07,1.01825-3.65172-5.30292-8.77677-10.37156-17.69331-14.964-26.85642-2.69084-5.36888-5.41355-10.76657-6.23729-16.899-.66172-4.92618,1.11817-9.22215,2.84534-13.55841,5.48607-13.77333,14.17319-25.27383,25.25564-35.00344,4.03676-3.544,7.96864-7.2602,12.79718-9.78391,3.05722,3.2748,5.00638,3.65865,8.12064,1.64371a51.23268,51.23268,0,0,0,5.29582-4.19508c1.00319-.855,1.71011-2.11938,3.14763-2.41193a4.124,4.124,0,0,1,3.14527,2.24552,30.68811,30.68811,0,0,0-9.70394,11.3604,7.42421,7.42421,0,0,0,.99761,8.98692c1.72432,1.97325,3.18622,1.98689,4.71568-.138,1.50024-2.08435,2.17664-4.55581,3.1084-6.903,1.17409-2.95759,2.28374-6.02947,5.83837-6.84742,1.242-.28579,2.46442-.58729,3.66717-.99358,4.21883,1.90418,8.17084,4.31289,12.49391,6.06849a59.70152,59.70152,0,0,0,15.37734,4.16442,94.09375,94.09375,0,0,0,19.6321.352,96.02356,96.02356,0,0,0,21.24431-4.64c4.39342-1.44237,8.38591-3.752,12.63176-5.503,2.32085.54469,4.84137.65719,6.28674,3.03758a26.95113,26.95113,0,0,1,2.25411,4.63352c.90774,2.44863,1.703,4.95983,3.32388,7.07015,1.16956,1.52272,2.447,1.53306,3.84643.245,2.94021-2.70633,3.36685-6.05084,1.53877-9.62346a37.28494,37.28494,0,0,0-8.75121-10.7687,7.95777,7.95777,0,0,1,3.18993-2.29547,66.62838,66.62838,0,0,0,6.91194,5.7122c4.01478,2.57526,5.58221,2.35666,8.63569-1.19536,3.362,1.60673,6.09643,4.08429,8.96846,6.386a104.82109,104.82109,0,0,1,12.84143,12.27685,89.73209,89.73209,0,0,1,9.2193,12.237,111.35435,111.35435,0,0,1,8.29147,16.74008,22.71839,22.71839,0,0,1-.0857,17.594c-3.31349,8.43252-7.82223,16.243-12.12329,24.16514-2.25018,4.14457-4.59966,8.23679-6.9865,12.3044a2.87,2.87,0,0,0-.16769,2.94447c4.284,9.71434,6.35633,19.73384,4.00918,30.33463a7.50124,7.50124,0,0,1-7.84521,5.99477,3.79924,3.79924,0,0,0-.462-1.22449,69.6017,69.6017,0,0,1-6.31226-9.244c-1.27973-2.03118-2.41489-4.15341-3.61486-6.23482.66889,5.5712,3.15986,10.44517,5.15041,15.494a13.51465,13.51465,0,0,1-6.87405-3.40352,73.26056,73.26056,0,0,1-7.01094-12.2047,4.15338,4.15338,0,0,0,.13842,3.26208A5.414,5.414,0,0,1,364.41991,414.60467Zm36.8528-76.57024a19.71133,19.71133,0,0,0-3.15675-12.03022c-1.17945-1.86336-2.56977-3.96716-5.01845-3.4385-2.72649.5887-2.79783,3.2386-2.88306,5.52558-.2087,5.60045,1.06452,10.73265,5.05255,14.90733,2.03925,2.13467,4.14557,1.76829,5.48866-.795C401.583,340.62469,401.09638,338.93581,401.27271,338.03443Zm-206.76206-.69821a20.21045,20.21045,0,0,0,.03119,3.16943c.25537,1.5899.82515,3.1572,2.52993,3.70992,1.53448.49749,2.74571-.33642,3.72333-1.469,4.21027-4.87795,5.41067-10.57507,4.52406-16.82362a3.76534,3.76534,0,0,0-2.54887-3.42849c-1.56639-.44546-2.71327.66343-3.67355,1.74C195.7724,327.9615,194.53771,332.44624,194.51065,337.33622Zm20.80424,134.419c-.23523,1.10747.37689,2.79921.73257,4.46831.8192,3.84418,4.19313,5.15146,6.76708,2.78363,3.69492-3.399,4.52021-13.86692,1.39957-17.75221-1.54529-1.92392-3.33857-2.12484-5.2117-.43241C215.95887,463.57254,215.55551,467.2966,215.31489,471.7552Zm165.13905-.55128c-.18689-3.96151-.77091-7.61156-3.723-10.42153-1.3521-1.287-2.66077-1.49922-4.16589-.1921a7.94658,7.94658,0,0,0-2.51,5.08455c-.74128,4.69528-.25486,9.15075,2.81661,12.98274,1.86649,2.32869,4.10214,2.00025,5.79591-.51725C380.13725,475.95588,380.25818,473.51418,380.45394,471.20392Zm-37.92328-87.69651c.28111,4.848,1.44639,8.96848,4.52629,12.32114.77238.84078,1.6676,1.90563,3.09015,1.402,1.35449-.4795,1.79155-1.62242,2.09128-2.95324a20.6727,20.6727,0,0,0-1.31105-12.11651,10.29457,10.29457,0,0,0-4.07321-5.496,1.97763,1.97763,0,0,0-2.91725.399C342.01882,379.12588,342.77135,381.583,342.53066,383.50741Zm-89.20357-.74217a16.73986,16.73986,0,0,0-.13348-2.03049c-.33586-1.82672-.3929-4.15644-2.6556-4.46576-1.91112-.26131-3.12914,1.48462-4.09191,3.04354a21.59427,21.59427,0,0,0-3.05351,14.49052c.19617,1.54706.81453,2.88347,2.25051,3.381,1.60207.555,2.631-.692,3.54813-1.81635C252.18354,391.69919,253.08417,387.341,253.32709,382.76524Zm-17.06744,67.69818a10.91551,10.91551,0,0,0-1.0387-5.73025c-1.16235-2.42309-3.29888-2.81961-4.87021-.59884a16.46049,16.46049,0,0,0-2.14126,16.25961c.90846,2.33244,2.86766,2.60861,4.55782.73907C235.50183,458.10827,236.17312,454.36633,236.25965,450.46342Zm132.41346,3.98135c-.19724-3.63861-.79145-7.18656-3.04334-10.19182-1.63487-2.18174-3.72-1.93012-4.89914.52158-2.29845,4.77895-1.08017,9.38847.78438,13.93793a8.26421,8.26421,0,0,0,1.16638,1.917c.69751.88965,1.47779,1.88382,2.76043,1.61541a3.40167,3.40167,0,0,0,2.38662-2.47862A12.569,12.569,0,0,0,368.67311,454.44477ZM237.41543,502.97053c.38622,4.89337,1.68693,9.47481,5.07552,13.18973,1.68165,1.84354,3.09525,1.427,3.54842-.99836,1.13526-6.076-.854-11.39-4.3333-16.24686a2.44129,2.44129,0,0,0-2.71128-1.23217c-1.30121.42223-1.4457,1.59254-1.46248,2.77892C237.52059,501.29057,237.457,502.11858,237.41543,502.97053Zm121.02978-.67407c0-.45228-.01079-.90489.002-1.35678.03889-1.37341-.32068-2.66312-1.64165-3.19811-1.29639-.525-2.24674.67446-2.81482,1.46056a22.03794,22.03794,0,0,0-4.32365,15.40206c.09837,1.02413.32229,2.25,1.55826,2.49117,1.12687.2199,1.88237-.67013,2.52559-1.485A23.2294,23.2294,0,0,0,358.44521,502.29646ZM219.59167,310.22511a4.88636,4.88636,0,0,0-.26077-1.99312,3.44008,3.44008,0,0,0-4.77735-1.47,12.55171,12.55171,0,0,0-6.76342,9.23823c-.562,3.47982,1.58035,5.1376,4.85725,3.94626C216.04931,318.70975,219.52264,313.84557,219.59167,310.22511Zm160.70367-3.72785c-2.55006-.04285-3.733.97152-3.95028,2.72676-.49011,3.96056,3.44928,9.777,7.34693,10.84761,2.66836.733,4.44-.67354,4.39313-3.46188a8.31817,8.31817,0,0,0-.96991-3.45721C385.5393,309.90368,383.27931,307.32529,380.29534,306.49726ZM253.16748,501.98016c-.34146-3.91408-.44428-7.81248-3.17678-10.90881-1.57351-1.783-3.32367-1.53384-3.79364.73294-1.10006,5.306-.79972,10.50542,2.56675,15.08709,1.07018,1.45651,2.71,1.22956,3.56982-.373C253.11341,505.065,252.87645,503.435,253.16748,501.98016ZM207.46966,370.11169a16.5513,16.5513,0,0,0,3.69712,9.57263,3.48844,3.48844,0,0,0,3.58422,1.334c1.6298-.325,1.5484-1.79038,1.72077-2.83543a13.147,13.147,0,0,0-2.75371-10.08912c-.95632-1.317-2.24514-2.49965-3.97092-2.00361C207.84692,366.63639,207.742,368.51938,207.46966,370.11169Zm3.5201-35.484c.04583,1.52153-.227,3.21438,1.445,4.00793a2.77255,2.77255,0,0,0,3.27741-.84178,15.8004,15.8004,0,0,0,4.30955-11.64266c-.045-1.05767.06979-2.502-1.50867-2.949a3.11839,3.11839,0,0,0-3.3551,1.29356A17.62574,17.62574,0,0,0,210.98976,334.6277ZM349.939,496.09864c0-.73737.04154-1.86743-.01062-2.99317a3.25755,3.25755,0,0,0-1.96693-3.02122c-1.35008-.48654-2.24159.88194-2.76424,1.83079a17.792,17.792,0,0,0-2.462,8.31582c-.02522,1.78339-.47107,3.665.39743,5.342.42894.82829.47891,2.11778,1.93129,2.15541a2.80791,2.80791,0,0,0,2.60037-1.78439A16.2544,16.2544,0,0,0,349.939,496.09864ZM219.643,361.42991a13.362,13.362,0,0,0-3.53106-10.09644c-1.6239-1.72744-3.21023-1.3355-4.21847.8098-1.70927,3.637.70836,11.83413,4.09267,13.91315a1.82327,1.82327,0,0,0,2.55869-.37894C220.02106,364.29534,219.45144,362.59365,219.643,361.42991Zm168.46691,9.97161c.0354-2.529-.1694-4.20021-1.79085-5.13877-1.396-.808-2.57487.16679-3.39542,1.0652a12.49182,12.49182,0,0,0-3.31948,11.60181c.55114,2.465,2.67972,2.8914,4.50963,1.12191A13.77011,13.77011,0,0,0,388.1099,371.40152Zm-11.88585-10.03635a15.53425,15.53425,0,0,0,.23091,2.76448c.48995,2.15818,2.07184,2.81013,3.63869,1.62469,3.24265-2.4532,5.32686-9.74211,3.83293-13.40472-.94949-2.32784-2.357-2.63394-4.21741-.8335C377.10708,354.03448,376.34736,357.27694,376.22405,361.36517ZM219.93258,446.54273a8.39481,8.39481,0,0,0,.568,3.55882,2.07717,2.07717,0,0,0,3.55911.66508c2.61459-2.47728,4.50546-10.66487,3.245-14.051-.96562-2.594-2.249-2.863-3.97141-.68829C220.90547,439.09276,220.23894,442.77319,219.93258,446.54273ZM384.53169,334.282c.02522-3.48581-1.51252-6.74822-3.87312-9.67792a3.02845,3.02845,0,0,0-3.36768-1.28236c-1.359.41744-1.41535,1.75909-1.43289,2.7973a15.61348,15.61348,0,0,0,3.38982,10.45348c1.0187,1.25024,2.10638,2.84819,4.00253,2.08105C385.01354,337.94022,384.412,336.10519,384.53169,334.282ZM375.87654,446.56a19.3085,19.3085,0,0,0-3.19808-10.14627c-.5629-.78738-1.2475-1.86652-2.43227-1.67287-1.08705.17767-1.36662,1.29235-1.69357,2.20148a10.07532,10.07532,0,0,0-.02245,5.78615c.63768,2.77961,1.19292,5.6026,3.27713,7.77467,1.53919,1.604,2.72366,1.38566,3.54132-.61656A8.61093,8.61093,0,0,0,375.87654,446.56ZM231.84179,294.37421c.01739-1.53387-.55916-2.3979-2.27861-2.3481-3.24843.09413-8.0796,4.66471-8.2418,7.88172a2.00588,2.00588,0,0,0,2.09192,2.38019C226.73414,302.51092,231.7639,297.77346,231.84179,294.37421Zm140.26133,7.8209c1.78448.00363,2.751-1.09361,2.25968-2.76423-1.10334-3.7523-3.84657-5.97417-7.35045-7.26993a2.12132,2.12132,0,0,0-2.98189,2.25791C364.12683,297.53748,368.95537,302.18874,372.10312,302.19511ZM249.66351,519.54667c-.1524,2.3701.59322,4.61022,1.03355,6.89007a1.61691,1.61691,0,0,0,1.4931,1.47508c.75337-.0046.75587-.84092.93993-1.37181,1.5272-4.40488.89522-8.75074-.41063-13.07165a1.129,1.129,0,0,0-1.165-.87712c-.628-.00244-.89074.3448-1.02708.95556A19.8091,19.8091,0,0,0,249.66351,519.54667Zm96.36735-.949a12.93963,12.93963,0,0,0-.7144-4.39469c-.25305-.53764-.05471-1.49564-1.02734-1.51992-.96324-.02417-1.3248.826-1.46779,1.48456-.88555,4.07916-1.46632,8.17978-.14,12.297.19091.59275.35546,1.33677.99735,1.35268.72235.01791,1.08826-.68532,1.275-1.36415A25.4124,25.4124,0,0,0,346.03086,518.59765ZM225.37255,420.03116c5.00437-1.13671,7.28613-7.4288,7.674-13.703A62.11037,62.11037,0,0,1,225.37255,420.03116Zm8.14055-15.033a1.60423,1.60423,0,0,0-.2099.271.28925.28925,0,0,0,.01017.21466c.08648.19405.20394.1834.25315-.03844A1.44993,1.44993,0,0,0,233.5131,404.99815ZM362.876,406.71366c-.06976.137-.17863.258-.18091.381a1.06859,1.06859,0,0,0,.15519.38307c.06386-.12084.174-.23991.1788-.36306A1.146,1.146,0,0,0,362.876,406.71366Zm-.52434-1.25789.066.18288.06433-.18132ZM383.421,535.40988l-.10275-.16413-.14928.09534.18124.246Z" fill="#c2b59d"/>
      <path d="M249.1228,281.05319a4.12388,4.12388,0,0,0-3.14528-2.24549c-.578-1.80909-2.44846-2.25829-3.62113-3.44165-3.73641-3.5-7.59588-6.85692-11.49836-10.172a38.02584,38.02584,0,0,1-4.05756-4.7322c-.15359-.24548.108-.72526-.42648-.75588l.05183.06147a1.862,1.862,0,0,0-.0538-.65993c-3.28407-6.641-4.15379-13.53125-1.66044-20.57608a63.74543,63.74543,0,0,1,13.59695-21.84127c2.46969-2.68731,5.10685-5.22071,7.66787-7.82409l-.05638.04044c.60794.37506.77-.15455,1.02115-.50331,1.41765-.31394,2.00609-1.4862,2.67045-2.58045.21565.05406.489.0425.63861.17291a23.5722,23.5722,0,0,0,17.34008,6.06271c9.644-.50152,16.49427-5.25259,21.01733-13.59578.26265-.48446,1.14668-1.26734.01081-1.88835.49908-1.886,2.18406-3.08612,2.76376-4.96921,1.26934-4.12322.99931-8.311.80663-12.50927a46.88216,46.88216,0,0,1,15.49867-.19147,23.77661,23.77661,0,0,0-.59271,8.14474c.32776,2.56062,1.85448,4.50343,2.39728,6.86855-.73664.28215-.4555.83851-.34173,1.32946a20.74057,20.74057,0,0,0,4.13892,8.41391c6.785,8.4037,15.73133,10.83,25.87649,8.74514,2.93344-.60283,5.26615-2.49282,8.02822-3.43a39.86607,39.86607,0,0,0,5.99929,5.82246,86.51831,86.51831,0,0,1,13.04632,18.69175c4.33435,8.56365,4.97419,17.12833.714,25.9597-1.4202,2.944-3.52431,5.46539-4.77275,8.48143.13457,1.80573-1.481,2.2627-2.49244,3.13782-1.74257,1.50764-3.63817,2.846-4.92136,4.81889a8.13153,8.13153,0,0,0-3.95286,3.371,7.95859,7.95859,0,0,0-3.19,2.29544q-4.24936,2.703-8.49866,5.406c-4.24585,1.751-8.23834,4.06065-12.63176,5.503a96.02356,96.02356,0,0,1-21.24431,4.64,94.09375,94.09375,0,0,1-19.6321-.352A59.70152,59.70152,0,0,1,270.24,292.587c-4.32307-1.7556-8.27508-4.16431-12.49394-6.06844C254.98453,284.51868,252.32484,282.35809,249.1228,281.05319Zm50.72695-41.68887a46.08355,46.08355,0,0,0,4.82746-.32646c4.8179-1.07737,8.89649-3.57756,12.97835-6.1951a5.28975,5.28975,0,0,0,2.759-5.62758,66.31568,66.31568,0,0,0-1.86254-8.55288c-.29874-1.1731-.90264-2.54629-2.71618-1.8401a27.78414,27.78414,0,0,1-9.33205,1.45258c-9.19348.27693-18.39556.11144-27.48768-1.61319-1.71142-.32463-2.93251-.03371-3.20093,2.06632-.26635,2.08372-.99822,4.11856-1.15609,6.20286-.20919,2.76142.06122,5.74717,2.6962,7.25765C284.33592,236.19,291.66339,239.32442,299.84975,239.36432Zm27.27369,13.24861a1.50152,1.50152,0,0,0-1.57462.69136c-5.581,5.36264-11.43144,10.332-18.76292,13.221a23.68974,23.68974,0,0,1-14.589,1.3299c-7.904-1.94872-13.28557-6.87837-16.53972-14.371-1.569-3.61263-3.35982-7.22375-6.69761-9.68094-1.738-1.27944-3.60276-2.35282-5.82962-1.57779-4.4547,1.55044-7.68938,9.25-5.78148,13.91967a16.029,16.029,0,0,1,2.766-4.99689c3.57394-4.59406,5.84712-3.98316,9.01078-.411a28.95674,28.95674,0,0,1,4.38774,7.22843c2.89657,6.29974,7.19158,10.67054,14.06269,12.83094,8.92907,2.80747,17.33447,1.51346,25.36886-2.39566C319.55857,265.18288,322.61951,258.41526,327.12344,252.61293Z" fill="#ece1d1"/>
      <path d="M353.19327,214.79847a39.844,39.844,0,0,1-5.9992-5.82287,2.41029,2.41029,0,0,1,.405-.52688c11.09177-8.19994,13.21065-25.05283,4.05575-35.74456-2.55672-2.98593-5.39693-5.68638-9.47784-6.51548l.035.02769-.48731-.48877.03417.03214c-.09529-.2108-.21813-.29625-.40524-.089-1.23386-.34279-2.07936-1.34174-3.29344-1.81065a30.74248,30.74248,0,0,0-11.83837-1.85708c2.29949-2.60062,1.99254-7.10376,6.21741-8.28-.66844-.53421-2.1775-.05044-1.50275-1.69089a45.37905,45.37905,0,0,0,2.59624-8.82853c1.354-7.13783,2.09272-14.27235.89174-21.54626-.35218-2.133-1.24329-4.173-1.14884-6.3796a5.04483,5.04483,0,0,1,.89855.04987c4.35486,1.01923,4.45566,1.05515,5.7946-3.07916,2.54918-7.87123,5.15687-15.74867,8.7661-23.177,3.50277-7.2092,7.37971-14.27226,12.8934-20.27492,2.71947-2.96064,5.46863-5.79011,9.066-7.71364a4.99,4.99,0,0,1,6.23549.7148,22.60268,22.60268,0,0,1,5.88351,8.9687c-.20884.72127-.84818,1.03037-1.38142,1.4368A44.82142,44.82142,0,0,0,369.73684,85.818a54.59272,54.59272,0,0,0-6.82111,17.3282c-.94206,5.13456-1.07194,10.31182-1.56751,15.46507-.31755,3.3019-.05954,6.65916-.05954,10.66594,1.95965-2.91378,3.78814-4.91072,6.51241-5.72281,3.31249-.98743,6.6731-1.81286,9.99061-2.78442,1.32153-.387,1.67763-.3761,1.34578,1.252-1.04938,5.14814-1.8709,10.34275-2.77493,15.52038-.077.44082-.19047.944.28257,1.2216.46281.27159.85445-.04873,1.23453-.30418,1.12316-.75489,2.25208-1.50118,3.37876-2.25084l.00851.00864a9.96265,9.96265,0,0,1-.13647,1.1157c-1.32214,5.632-2.60459,11.25254-2.61193,17.10457a68.42523,68.42523,0,0,0,.96606,12.13888c.65616,3.67806.80123,7.46992,2.27883,10.97923a15.69588,15.69588,0,0,0,.575,6.01514c1.43689,6.49414,1.75837,13.06749,2.1836,19.66515.4555,7.0671,1.05725,14.11938.8619,21.2086a21.492,21.492,0,0,1-.37289,5.39515c-.171.60379-.31966,1.36266.39773,1.85045a16.27085,16.27085,0,0,0-1.56444.79558c-.25768.16465-.74657.428-.43537.79152.16771.196.69219.08653,1.05573.11488.31128,1.89215-.75115,3.55792-.88608,5.37651a46.877,46.877,0,0,1-6.676.64038c-.89059.00864-1.626-.09137-2.01261-1.00093a45.30619,45.30619,0,0,0-6.38588-13.15357C364.70467,219.92662,359.15506,217.02945,353.19327,214.79847Z" fill="#c2b59d"/>
      <path d="M249.61161,205.82326c-.66435,1.09369-1.25279,2.266-2.67068,2.57991-.36243.12323-.87382-.05613-1.02091.50329l.05638-.04043c-4.50283,1.87866-8.41755,4.73866-12.47367,7.38044-8.48724,5.5278-13.49813,13.4479-16.20186,23.0186a20.05856,20.05856,0,0,1-6.31525-.2609,4.82356,4.82356,0,0,0-.17636-1.33276c-3.606-8.19867-3.92249-16.78158-2.97547-25.50183.87684-8.07413,2.05317-16.10524,3.59783-24.08152.71287-3.68118,2.314-7.17257,2.34037-10.99867,2.15247-3.98142,3.04087-8.43071,4.32125-12.68851a76.44832,76.44832,0,0,0,3.1792-16.55441,80.40711,80.40711,0,0,0,.56976-10.60011c-.06783-1.12037-.81109-2.23177-.13259-3.44642,1.93729,1.27821,3.23145,3.06948,4.806,4.566.33769.321.43665,1.11633,1.16883.75237a1.161,1.161,0,0,0,.50782-1.18791,31.85049,31.85049,0,0,0-.19413-4.51418c-.75529-4.19556-2.14966-8.22344-3.36589-12.58808,3.9,1.0691,7.5211,1.91256,11.04806,3.16473,2.31306.82119,3.96551,2.65651,6.17,3.59215l.09869.198.09491-.08861-.1936-.10935a19.55784,19.55784,0,0,0-.08082-2.93739,106.7586,106.7586,0,0,0-6.63842-23.56185C231.34,92.18317,226.6664,83.76363,219.17,77.37151c-2.20883-1.88344-4.51621-3.957-7.68167-4.29769a24.29114,24.29114,0,0,1,6.13892-10.82465c3.1511-3.06629,4.61609-2.43888,7.1789-.90132,7.00662,4.20361,11.51927,10.6458,15.76273,17.345,4.69319,7.40918,8.01791,15.46844,11.07833,23.636,1.45091,3.87214,2.5964,7.85938,3.85506,11.80253.42462,1.33025,1.14828,1.84945,2.54985,1.29626a4.88479,4.88479,0,0,1,3.52738-.35332c-.14228,1.64482-.26209,3.292-.43088,4.93422a85.71837,85.71837,0,0,0,.781,25.40128c1.15353,5.87818,2.8112,11.62346,6.2513,16.67092-2.61935.40441-5.04626,1.619-7.71113,1.83182-1.55643-.2936-2.68894.71251-3.99193,1.252-11.5035,4.76259-16.80667,17.42359-13.70363,29.12356C243.97249,198.80633,246.67459,202.369,249.61161,205.82326Z" fill="#c2b59d"/>
      <path d="M211.48829,73.07382c3.16546.34068,5.47284,2.41425,7.68167,4.29769C226.6664,83.76363,231.34,92.18317,235.131,101.08576a106.7586,106.7586,0,0,1,6.63842,23.56185,19.55784,19.55784,0,0,1,.08082,2.93739c-2.2045-.93564-3.857-2.771-6.17-3.59215-3.527-1.25217-7.14805-2.09563-11.04806-3.16473,1.21623,4.36464,2.6106,8.39252,3.36589,12.58808a31.85049,31.85049,0,0,1,.19413,4.51418,1.161,1.161,0,0,1-.50782,1.18791c-.73218.364-.83114-.43141-1.16883-.75237-1.57452-1.4965-2.86868-3.28777-4.806-4.566-.6785,1.21465.06476,2.32605.13259,3.44642a80.40711,80.40711,0,0,1-.56976,10.60011,76.44832,76.44832,0,0,1-3.1792,16.55441c-1.28038,4.2578-2.16878,8.70709-4.32125,12.68851-2.24144-1.52171-3.50631-3.90064-5.08555-5.974a54.91359,54.91359,0,0,1-6.75023-11.11171A44.85628,44.85628,0,0,1,198.248,144.0724a98.0088,98.0088,0,0,1,1.13762-22.55138c1.01508-5.56834,1.53181-11.24691,3.06255-16.77784,1.23247-4.45318,1.80139-9.14641,3.10576-13.61294C207.32935,85.05077,208.475,78.75017,211.48829,73.07382Z" fill="#ece1d1"/>
      <path d="M381.25841,136.20889c-1.12668.74964-2.2556,1.49593-3.37876,2.25082-.38008.25545-.77172.57577-1.23453.30418-.473-.27758-.35954-.78078-.28257-1.2216.904-5.17763,1.72555-10.37224,2.77493-15.52038.33185-1.62805-.02425-1.639-1.34578-1.252-3.31751.97156-6.67812,1.797-9.99061,2.78442-2.72427.81209-4.55276,2.809-6.51241,5.72281,0-4.00678-.258-7.364.05954-10.66594.49557-5.15325.62545-10.33051,1.56751-15.46507a54.59272,54.59272,0,0,1,6.82111-17.3282A44.82142,44.82142,0,0,1,381.43178,72.2032c.53324-.40643,1.17258-.71553,1.38142-1.4368,1.75045,1.7166,2.01425,4.15863,2.78444,6.273a179.74753,179.74753,0,0,1,7.154,24.86913c1.12959,5.42348,2.07228,10.88255,3.12391,16.31892a105.78482,105.78482,0,0,1,2.09163,21.48539c-.07453,5.673-.14582,11.49886-2.43058,16.85325-1.84138,4.31537-3.72866,8.61263-6.70171,12.39351-2.07819,2.64288-3.95236,5.45772-6.16029,8.01456a1.41339,1.41339,0,0,1-.91166.58164c-1.47718-3.5092-1.62225-7.30106-2.27841-10.97912a68.42523,68.42523,0,0,1-.96606-12.13888c.00734-5.852,1.28979-11.47254,2.61193-17.10457a9.95028,9.95028,0,0,0,.13642-1.11576.58043.58043,0,0,0,.16353-.06575c.02757-.02223.02452-.08252.03522-.12571Z" fill="#ece1d1"/>
      <path d="M307.68741,178.90434a46.92441,46.92441,0,0,0-15.49813.18957,5.33231,5.33231,0,0,1-.7568-1.358,17.84547,17.84547,0,0,0-3.80045-7.33527c-4.51735-5.68649-10.63877-8.10361-17.72869-8.43636-.65059-3.15575-1.27125-6.3181-1.96659-9.464-.27578-1.24774-.20537-1.8837,1.36793-1.5632a25.03462,25.03462,0,0,1,8.23233,2.91855c5.79128,3.53208,9.83964,8.57849,12.97155,14.51a26.81117,26.81117,0,0,0,3.68482,5.94947c-2.70806-12.28823-4.38555-24.38125-3.38027-36.73665.70044-8.609.26358-17.36794,3.7348-25.566.49374-1.16609-.62529-.64032-.96432-.93228a33.00225,33.00225,0,0,1,8.2782-.12962c1.95067.14469,3.90451.15762,5.85162.31208.17069,1.93524.188,3.89865.53731,5.80111,1.88422,10.26322.59472,20.48949-.40559,30.69458-.5188,5.29288-1.10325,10.57562-1.23459,15.91479,7.49053-16.54793,10.669-33.75346,7.79632-51.88684,4.04417.45643,8.13435.61576,12.05567,1.86616.61861,4.1475,1.80306,8.19161,1.98988,12.42433.36237,8.20995-1.25941,16.18713-2.5619,24.20994a2.33294,2.33294,0,0,1-2.053,2.21429c-7.53908,1.60685-9.87326,7.69552-11.89509,14.07419a51.04425,51.04425,0,0,1,11.88293-8.82311,2.298,2.298,0,0,0,.29694.33062c.09807,1.62838-.96767,3.14665-.45539,4.81421a21.68868,21.68868,0,0,0-10.47994,6.04761C310.41143,171.79087,308.89793,175.24177,307.68741,178.90434Z" fill="#c2b59d"/>
      <path d="M293.58359,111.08015c.339.292,1.45806-.23381.96432.93228-3.47122,8.19805-3.03436,16.957-3.7348,25.566-1.00528,12.3554.67221,24.44842,3.38027,36.73665a26.81117,26.81117,0,0,1-3.68482-5.94947c-3.13191-5.93147-7.18027-10.97788-12.97155-14.51a25.03462,25.03462,0,0,0-8.23233-2.91855c-1.5733-.3205-1.64371.31546-1.36793,1.5632.69534,3.14587,1.316,6.30822,1.96637,9.46413q-.86134.05835-1.72226.11637c-3.4401-5.04746-5.09777-10.79274-6.2513-16.67092a85.71837,85.71837,0,0,1-.781-25.40128c.16879-1.64218.2886-3.2894.43088-4.93422,3.05211-1.65672,6.52111-1.28147,9.76513-2.00293-3.6824,6.95792-4.64256,14.511-4.84657,22.22609-.10806,4.08686.59312,8.1284.72061,12.19615.05774,1.84214.34841,2.05595,2.10765,1.41055a15.00686,15.00686,0,0,1,7.1366-.83848c3.26295.43527,6.4489,1.09474,8.053,4.52252.39516.85127.30487,1.95816,1.2947,2.657a4.74877,4.74877,0,0,0-.48792-2.752,126.44835,126.44835,0,0,1-1.68692-23.61357c.13708-5.79808.44688-11.59205.67967-17.38786q3.73735-.17966,7.47443-.35927l.48521-.03439Z" fill="#292423"/>
      <path d="M284.31538,111.49182c-.23279,5.79581-.54259,11.58978-.67967,17.38786a126.44549,126.44549,0,0,0,1.68695,23.61355l-.80681.095c-1.60407-3.42778-4.79-4.08725-8.053-4.52252a15.00686,15.00686,0,0,0-7.1366.83848c-1.75924.6454-2.04991.43159-2.10765-1.41055-.12749-4.06775-.82867-8.10929-.72061-12.19615.204-7.71509,1.16417-15.26817,4.84657-22.22609C275.66293,112.50162,279.95061,111.6802,284.31538,111.49182Z" fill="#c2b59d"/>
      <path d="M323.82538,157.75205a51.04425,51.04425,0,0,0-11.88293,8.82311c2.02183-6.37867,4.356-12.46734,11.89509-14.07419a2.33294,2.33294,0,0,0,2.053-2.21429c1.30249-8.02281,2.92427-16,2.5619-24.20994-.18682-4.23272-1.37127-8.27683-1.98988-12.42433,2.43214-.1339,4.57512.94454,6.813,1.62532-.09444,2.20665.79667,4.24663,1.14885,6.37963,1.201,7.27391.46222,14.40843-.89174,21.54626a45.37905,45.37905,0,0,1-2.59624,8.82853c-.67475,1.64045.83431,1.15668,1.50275,1.69089-4.22487,1.1762-3.91792,5.67934-6.21751,8.28006-.6855.77288-1.79146.34348-2.5547.89378-.51228-1.66756.55346-3.18583.45533-4.81427.081-.10647.254-.25967.22767-.3115C324.20777,157.4915,324.00815,157.6212,323.82538,157.75205Z" fill="#292423"/>
      <path d="M217.30087,239.26507c2.70373-9.5707,7.71462-17.4908,16.20186-23.0186,4.05612-2.64178,7.97084-5.50178,12.47367-7.38044-2.561,2.60337-5.19818,5.13677-7.66787,7.82408a63.74543,63.74543,0,0,0-13.59695,21.84127c-2.49335,7.04483-1.62363,13.9351,1.66044,20.57608a1.862,1.862,0,0,1,.0538.65993c-1.89807-.82451-2.822-2.67291-4.07157-4.11181-2.34879-2.70467-4.39246-5.67534-6.53613-8.5554a3.19842,3.19842,0,0,1-.30636-1.02635q.6507-2.92974,1.30126-5.86024A.77224.77224,0,0,0,217.30087,239.26507Z" fill="#292423"/>
      <path d="M353.19327,214.79847c5.96179,2.231,11.5114,5.12815,15.31074,10.45628a45.30626,45.30626,0,0,1,6.38588,13.15356c.70962.44553-1.75821,1.833.5362,1.8087a29.50927,29.50927,0,0,1,.29388,12.637c-1.80768,3.67-4.68566,6.52518-7.4474,9.41857-1.90377,1.99449-3.44861,4.43976-6.09172,5.65874,1.24841-3.016,3.35252-5.53742,4.77272-8.48143,4.26021-8.83137,3.62037-17.39605-.714-25.9597A86.51831,86.51831,0,0,0,353.19327,214.79847Zm18.92426,25.15526c.1285.06971.24718.18818.36245.185.21866-.00606.68931.10965.57243-.20028C372.94557,239.655,372.44805,239.7426,372.11753,239.95373Z" fill="#292423"/>
      <path d="M314.40686,111.78625c2.87266,18.13338-.30579,35.33891-7.79632,51.88684.13134-5.33917.71579-10.62191,1.23459-15.91479,1.00031-10.20509,2.28981-20.43136.40559-30.69458-.34928-1.90246-.36662-3.86587-.53731-5.80111C309.94227,111.465,312.22356,110.99922,314.40686,111.78625Z" fill="#292423"/>
      <path d="M375.42609,240.217c-2.29441.02428.17342-1.36317-.5362-1.8087.38661.90957,1.122,1.00958,2.01261,1.00094a46.877,46.877,0,0,0,6.676-.64038,65.05782,65.05782,0,0,1,31.43308,4.53472,140.48973,140.48973,0,0,1,18.54853,9.47952,1.29469,1.29469,0,0,1,.6055,1.137c-2.24011-.97945-4.4846-1.949-6.71956-2.94018-6.7036-2.97291-13.42368-5.97536-20.52978-7.8012-5.24442-1.34749-10.70922-1.63221-16.11826-2.05926a46.14279,46.14279,0,0,0-8.13172-.34884Q379.04646,240.49378,375.42609,240.217Z" fill="#515050"/>
      <path d="M217.30087,239.26507a.77228.77228,0,0,1-.48778.94853q-2.24509.24153-4.49033.483c-19.11614-.59433-36.86447,4.4428-53.71932,13.18207,15.9007-10.52749,32.73008-17.71674,52.38214-14.87456A20.05768,20.05768,0,0,0,217.30087,239.26507Z" fill="#515050"/>
      <path d="M207.78986,233.39648c-15.27346-4.46867-30.65775-1.80267-46.00025-1.03081-.16616.00836-.31458.36927-.24175.278,4.44285-1.65983,9.50908-2.17,14.52707-2.94978,8.43557-1.31092,16.84548-1.64641,25.21085.41357A13.16906,13.16906,0,0,1,207.78986,233.39648Z" fill="#515050"/>
      <path d="M384.46462,233.39236c-.36354-.02835-.888.08109-1.05573-.11488-.3112-.36356.17769-.62687.43537-.79152a16.27085,16.27085,0,0,1,1.56444-.79558,28.72674,28.72674,0,0,1,11.08437-2.79946,76.81156,76.81156,0,0,1,18.05141.73783c4.93993.87292,9.95461,1.32221,14.74676,2.96388l.0168.18034c-.06309-.04113-.12329-.1127-.1897-.119-5.69457-.54467-11.38071-1.22068-17.08668-1.593a92.7783,92.7783,0,0,0-26.75581,1.96569A4.39134,4.39134,0,0,0,384.46462,233.39236Z" fill="#515050"/>
      <path d="M242.35639,275.366c1.17267,1.18336,3.04314,1.63256,3.62113,3.44165-1.43751.29252-2.14443,1.55693-3.14762,2.4119a51.23268,51.23268,0,0,1-5.29582,4.19508c-3.11426,2.01494-5.06342,1.63109-8.12064-1.64371,3.05165-2.80561,6.72629-4.69079,10.19326-6.881C240.49118,276.33122,241.43813,275.87135,242.35639,275.366Z" fill="#292423"/>
      <path d="M350.81416,279.25909a8.13153,8.13153,0,0,1,3.95286-3.371q5.26467,3.40162,10.53383,6.79695c.4481.28742.92358.51555,1.061,1.09084-3.05351,3.5521-4.62094,3.7707-8.63572,1.19544A66.62838,66.62838,0,0,1,350.81416,279.25909Z" fill="#292423"/>
      <path d="M186.93508,267.91072c.908-2.35405,2.56949-4.23207,3.99414-6.25314,3.80183-5.39343,8.07225-10.28688,14.15951-13.26811,2.86458-1.40293,5.95359-1.93647,9.00913-2.63052a.2287.2287,0,0,0,.03834.29451,90.69768,90.69768,0,0,0-25.43693,20.32933c-.5424.60985-1.21951.98641-1.78317,1.52918Z" fill="#515050"/>
      <path d="M355.8356,403.648c-.49235-7.03722-.92734-14.07721-2.07993-21.05284-.48809-2.9539-.74256-5.94638-1.10321-8.92131l.86052-.93574c1.74631,2.08515,1.67985,4.7932,2.21431,7.21258a129.04112,129.04112,0,0,1,2.83,26.575C357.14283,406.04644,357.12817,404.243,355.8356,403.648Z" fill="#847a68"/>
      <path d="M381.79282,246.147c10.71158.39261,19.19344,7.90046,26.55112,20.979-2.64718-2.61464-5.26657-5.25825-7.94945-7.83576a75.98,75.98,0,0,0-8.5725-7.0556A60.67172,60.67172,0,0,0,381.79282,246.147Z" fill="#515050"/>
      <path d="M375.42609,240.217q3.62022.27678,7.24024.55361c-.94172,4.50927-3.47494,8.19192-6.15594,11.7914-.14063.18877-.52135.19875-.79036.292A29.51022,29.51022,0,0,0,375.42609,240.217Z" fill="#c2b59d"/>
      <path d="M213.04389,424.6355A162.23978,162.23978,0,0,0,224.171,407.49078a76.42377,76.42377,0,0,1-5.56747,15.99767A8.78833,8.78833,0,0,1,213.04389,424.6355Z" fill="#847a68"/>
      <path d="M377.24449,423.544c-1.99055-5.0488-4.48152-9.92277-5.15041-15.494,1.2,2.08141,2.33513,4.20364,3.61486,6.23482a69.6017,69.6017,0,0,0,6.31226,9.244,3.79924,3.79924,0,0,1,.462,1.22449A10.25316,10.25316,0,0,1,377.24449,423.544Z" fill="#847a68"/>
      <path d="M217.25793,549.04413a33.51979,33.51979,0,0,1,3.85494-9.51778,12.79966,12.79966,0,0,1,3.71444-3.96852c-1.81548,4.5269-3.6453,8.99859-4.3605,13.81851C219.375,549.48066,218.25964,549.81154,217.25793,549.04413Z" fill="#847a68"/>
      <path d="M375.4221,549.33471c-.66273-4.80446-2.605-9.198-4.3134-13.69561a21.98872,21.98872,0,0,1,7.12436,13.434A3.38109,3.38109,0,0,1,375.4221,549.33471Z" fill="#847a68"/>
      <path d="M364.41991,414.60467a5.414,5.414,0,0,0-.922-3.40679,4.15338,4.15338,0,0,1-.13842-3.26208,73.26056,73.26056,0,0,0,7.01094,12.2047A12.65585,12.65585,0,0,1,364.41991,414.60467Z" fill="#847a68"/>
      <path d="M208.64439,545.41647c.86536-3.75793,1.36291-7.65694,4.25027-10.6709A68.71216,68.71216,0,0,0,210.52,546.74182,3.07522,3.07522,0,0,1,208.64439,545.41647Z" fill="#847a68"/>
      <path d="M214.1362,246.05346a.2287.2287,0,0,1-.03834-.29451c.61187-.371.48055-.761.1569-1.30551-.71907-1.20983-1.75179-2.26851-1.93216-3.75688q2.24544-.2414,4.49049-.483-.6507,2.93031-1.30133,5.86023Q214.82392,246.06327,214.1362,246.05346Z" fill="#c2b59d"/>
      <path d="M385.86985,546.43466a37.82152,37.82152,0,0,1-2.09687-10.33458c2.34407,2.8991,2.64219,6.15786,3.17463,9.333Q386.40892,545.9336,385.86985,546.43466Z" fill="#847a68"/>
      <path d="M226.374,259.70592c.5345.03062.27289.5104.42648.75588Z" fill="#292423"/>
      <path d="M186.9161,267.912l-.34008.10452c.19212.21081.30332.14679.359-.10574Z" fill="#515050"/>
      <path d="M292.275,111.09816l-.48521.03439C291.93138,110.83363,292.08908,110.76678,292.275,111.09816Z" fill="#c2b59d"/>
      <path d="M246.36981,321.0201c-1.01032-.08684-.72452-.63873-.5148-1.26876.61223-1.83911,1.93906-3.205,3.09125-4.664,4.988-6.316,11.745-9.34042,19.55487-10.435,14.564-2.04111,29.21292-1.34013,43.82553-1.20484a81.43031,81.43031,0,0,1,19.894,2.18445,27.25823,27.25823,0,0,1,15.40341,10.35473c.62723.84464,1.28577,1.67362,1.82791,2.57138.43734.72421,1.2072,1.64418-.409,2.00353a2.08878,2.08878,0,0,0-1.7503-.77111c-2.49564-1.558-5.27741-1.49655-8.42239-1.6536,2.281,2.68743,4.23039,5.1278,6.34968,7.41037.84891.91434,1.17577,2.33407,2.55342,2.75.25677,1.75871,1.39326,3.16081,1.94557,4.79972l-.42861.39105-.66209-.12908c-4.1456-2.64591-8.993-2.84621-11.74151-.35931-3.547,3.20947-4.03914,7.53811-3.60317,11.86836.39331,3.90665.39754,7.82237.6602,11.72479.62905,9.34543,1.73379,18.546,4.80966,27.45563a80.015,80.015,0,0,1,3.51812,18.33279,73.62718,73.62718,0,0,1-2.37659,25.7028,46.86586,46.86586,0,0,1-10.34674,20.0962c-6.22859,6.89265-13.97772,11.32262-23.45312,12.31984-7.32672.77113-14.62784.84677-21.78547-1.02956a36.15062,36.15062,0,0,1-19.6542-13.30952c-5.76486-7.385-8.83375-15.94916-10.382-24.94492a75.92886,75.92886,0,0,1,.97428-30.49749c.93386-3.967,2.31973-7.74438,3.49555-11.60935a63.86435,63.86435,0,0,0,2.11869-11.72205c.76589-7.10948,1.30718-14.24193,1.48572-21.40254.073-2.92918.429-5.74912-.70463-8.64018-2.3996-6.11975-5.54892-6.27416-10.20087-5.71852a9.06754,9.06754,0,0,0-4.56325,1.73353.5288.5288,0,0,1-.37337.056,4.20139,4.20139,0,0,0-.32912-.31054c.34489-1.66022,1.60308-2.9825,1.7457-4.71759.43727-.09761.88943-.14174,1.15941-.59316a54.35539,54.35539,0,0,1,5.08966-6.54256c.82953-1.0029,2.10333-1.6794,2.57652-3.28539-2.8612.47351-5.6812.17365-8.03779,1.9484A2.39385,2.39385,0,0,0,246.36981,321.0201Z" fill="#ece1d1"/>
      <path d="M249.1228,281.05319c3.202,1.3049,5.86173,3.46549,8.62326,5.46541-1.20272.40624-2.42511.70774-3.66714.99353-3.55463.81795-4.66428,3.88983-5.83837,6.84742-.93176,2.34715-1.60816,4.81861-3.1084,6.903-1.52946,2.12489-2.99136,2.11125-4.71568.138a7.42421,7.42421,0,0,1-.99761-8.98692A30.68811,30.68811,0,0,1,249.1228,281.05319Z" fill="#292423"/>
      <path d="M401.27271,338.03443c-.17633.90138.31024,2.59026-.51705,4.16916-1.34309,2.56332-3.44941,2.9297-5.48866.795-3.988-4.17468-5.26125-9.30688-5.05255-14.90733.08523-2.287.15657-4.93688,2.88306-5.52558,2.44868-.52866,3.839,1.57514,5.01845,3.4385A19.71133,19.71133,0,0,1,401.27271,338.03443Z" fill="#292423"/>
      <path d="M194.51065,337.33622c.02706-4.89,1.26175-9.37472,4.58609-13.10177.96028-1.0766,2.10716-2.18549,3.67355-1.74a3.76534,3.76534,0,0,1,2.54887,3.42849c.88661,6.24855-.31379,11.94567-4.52406,16.82362-.97762,1.13262-2.18885,1.96653-3.72333,1.469-1.70478-.55272-2.27456-2.12-2.52993-3.70992A20.21045,20.21045,0,0,1,194.51065,337.33622Z" fill="#292423"/>
      <path d="M339.12551,286.96049q4.24929-2.703,8.49866-5.406a37.28468,37.28468,0,0,1,8.75127,10.76873c1.82808,3.57262,1.40144,6.91713-1.53877,9.62346-1.39941,1.2881-2.67687,1.27776-3.84643-.245-1.62089-2.11032-2.41614-4.62152-3.32388-7.07015a26.95113,26.95113,0,0,0-2.25411-4.63352C343.96688,287.6177,341.44636,287.5052,339.12551,286.96049Z" fill="#292423"/>
      <path d="M215.31489,471.7552c.24062-4.4586.644-8.18266,3.68752-10.93268,1.87313-1.69243,3.66641-1.49151,5.2117.43241,3.12064,3.88529,2.29535,14.35319-1.39957,17.75221-2.57395,2.36783-5.94788,1.06055-6.76708-2.78363C215.69178,474.55441,215.07966,472.86267,215.31489,471.7552Z" fill="#292423"/>
      <path d="M380.45394,471.20392c-.19576,2.31026-.31669,4.752-1.78636,6.93641-1.69377,2.5175-3.92942,2.84594-5.79591.51725-3.07147-3.832-3.55789-8.28746-2.81661-12.98274a7.94658,7.94658,0,0,1,2.51-5.08455c1.50512-1.30712,2.81379-1.09489,4.16589.1921C379.683,463.59236,380.26705,467.24241,380.45394,471.20392Z" fill="#292423"/>
      <path d="M342.53066,383.50741c.24069-1.92439-.51184-4.38153,1.40621-6.44367a1.97763,1.97763,0,0,1,2.91725-.399,10.29457,10.29457,0,0,1,4.07321,5.496,20.6727,20.6727,0,0,1,1.31105,12.11651c-.29973,1.33082-.73679,2.47374-2.09128,2.95324-1.42255.50361-2.31777-.56124-3.09015-1.402C343.97705,392.47589,342.81177,388.35538,342.53066,383.50741Z" fill="#292423"/>
      <path d="M253.327,382.76754c-.24278,4.57341-1.14341,8.93165-4.13572,12.60011-.91709,1.12432-1.94606,2.37138-3.54813,1.81635-1.436-.49748-2.05434-1.83389-2.25051-3.381a21.59427,21.59427,0,0,1,3.05351-14.49052c.96277-1.55892,2.18079-3.30485,4.09191-3.04354,2.2627.30932,2.31974,2.639,2.6556,4.46576A16.71893,16.71893,0,0,1,253.327,382.76754Z" fill="#292423"/>
      <path d="M236.25965,450.46342c-.08653,3.90291-.75782,7.64485-3.49235,10.66959-1.69016,1.86954-3.64936,1.59337-4.55782-.73907a16.46049,16.46049,0,0,1,2.14126-16.25961c1.57133-2.22077,3.70786-1.82425,4.87021.59884A10.91551,10.91551,0,0,1,236.25965,450.46342Z" fill="#292423"/>
      <path d="M368.67311,454.44477a12.569,12.569,0,0,1-.84467,5.32147,3.40167,3.40167,0,0,1-2.38662,2.47862c-1.28264.26841-2.06292-.72576-2.76043-1.61541a8.26421,8.26421,0,0,1-1.16638-1.917c-1.86455-4.54946-3.08283-9.159-.78438-13.93793,1.17915-2.4517,3.26427-2.70332,4.89914-.52158C367.88166,447.25821,368.47587,450.80616,368.67311,454.44477Z" fill="#292423"/>
      <path d="M237.41543,502.97053c.04156-.85195.10516-1.68.11688-2.50874.01678-1.18638.16127-2.35669,1.46248-2.77892a2.44129,2.44129,0,0,1,2.71128,1.23217c3.47927,4.85683,5.46856,10.17088,4.3333,16.24686-.45317,2.42532-1.86677,2.8419-3.54842.99836C239.10236,512.44534,237.80165,507.8639,237.41543,502.97053Z" fill="#292423"/>
      <path d="M358.44521,502.29646a23.2294,23.2294,0,0,1-4.69428,13.31395c-.64322.81482-1.39872,1.70485-2.52559,1.485-1.236-.24114-1.45989-1.467-1.55826-2.49117a22.03794,22.03794,0,0,1,4.32365-15.40206c.56808-.7861,1.51843-1.98557,2.81482-1.46056,1.321.535,1.68054,1.8247,1.64165,3.19811C358.43442,501.39157,358.44521,501.84418,358.44521,502.29646Z" fill="#292423"/>
      <path d="M219.59024,310.22531c-.0676,3.62026-3.54093,8.48444-6.94286,9.72121-3.2769,1.19134-5.41926-.46644-4.85725-3.94626a12.55171,12.55171,0,0,1,6.76342-9.23823,3.44008,3.44008,0,0,1,4.77735,1.47A4.86151,4.86151,0,0,1,219.59024,310.22531Z" fill="#292423"/>
      <path d="M380.29534,306.49726c2.984.828,5.244,3.40642,6.81987,6.65528a8.31817,8.31817,0,0,1,.96991,3.45721c.04687,2.78834-1.72477,4.19488-4.39313,3.46188-3.89765-1.07063-7.837-6.88705-7.34693-10.84761C376.56231,307.46878,377.74528,306.45441,380.29534,306.49726Z" fill="#292423"/>
      <path d="M253.16748,501.98016c-.291,1.45485-.05407,3.08486-.83385,4.53826-.8598,1.60252-2.49964,1.82947-3.56982.373-3.36647-4.58167-3.66681-9.78108-2.56675-15.08709.47-2.26678,2.22013-2.51595,3.79364-.73294C252.7232,494.16768,252.826,498.06608,253.16748,501.98016Z" fill="#292423"/>
      <path d="M207.46966,370.11169c.27233-1.59231.37726-3.4753,2.27748-4.02148,1.72578-.496,3.0146.6866,3.97092,2.00361a13.147,13.147,0,0,1,2.75371,10.08912c-.17237,1.04505-.091,2.51043-1.72077,2.83543a3.48844,3.48844,0,0,1-3.58422-1.334A16.5513,16.5513,0,0,1,207.46966,370.11169Z" fill="#292423"/>
      <path d="M210.98976,334.6277a17.62574,17.62574,0,0,1,4.16819-10.132,3.11839,3.11839,0,0,1,3.3551-1.29356c1.57846.44707,1.46362,1.89138,1.50867,2.949a15.8004,15.8004,0,0,1-4.30955,11.64266,2.77255,2.77255,0,0,1-3.27741.84178C210.76273,337.84208,211.03559,336.14923,210.98976,334.6277Z" fill="#292423"/>
      <path d="M349.939,496.09864a16.2544,16.2544,0,0,1-2.27468,9.84522,2.80791,2.80791,0,0,1-2.60037,1.78439c-1.45238-.03763-1.50235-1.32712-1.93129-2.15541-.8685-1.677-.42265-3.55859-.39743-5.342a17.792,17.792,0,0,1,2.462-8.31582c.52265-.94885,1.41416-2.31733,2.76424-1.83079a3.25755,3.25755,0,0,1,1.96693,3.02122C349.98055,494.23121,349.939,495.36127,349.939,496.09864Z" fill="#292423"/>
      <path d="M219.643,361.42991c-.19155,1.16374.37807,2.86543-1.09817,4.24757a1.82327,1.82327,0,0,1-2.55869.37894c-3.38431-2.079-5.80194-10.27618-4.09267-13.91315,1.00824-2.1453,2.59457-2.53724,4.21847-.8098A13.362,13.362,0,0,1,219.643,361.42991Z" fill="#292423"/>
      <path d="M388.1099,371.40152a13.77011,13.77011,0,0,1-3.99612,8.65015c-1.82991,1.76949-3.95849,1.3431-4.50963-1.12191a12.49182,12.49182,0,0,1,3.31948-11.60181c.82055-.89841,1.99947-1.87317,3.39542-1.0652C387.9405,367.20131,388.1453,368.87251,388.1099,371.40152Z" fill="#292423"/>
      <path d="M376.22405,361.36517c.12331-4.08823.883-7.33069,3.48512-9.849,1.86039-1.80044,3.26792-1.49434,4.21741.8335,1.49393,3.66261-.59028,10.95152-3.83293,13.40472-1.56685,1.18544-3.14874.53349-3.63869-1.62469A15.53425,15.53425,0,0,1,376.22405,361.36517Z" fill="#292423"/>
      <path d="M349.37891,351.07779c1.11473,2.11134.35763,4.43313.74613,6.643a136.4067,136.4067,0,0,1,2.11428,14.63143c-5.19861-4.44838-7.97077-10.0565-7.74006-16.93429C344.612,352.05812,346.1576,350.86656,349.37891,351.07779Z" fill="#292423"/>
      <path d="M243.55219,370.52661c1.08642-6.11786,2.35719-12.21,2.52442-18.4551a3.71329,3.71329,0,0,1,.35487-1.03926c3.32107-.08085,4.78956,1.25675,4.95852,4.90481.19762,4.26681-1.36613,8.08449-3.56628,11.6313a14.15174,14.15174,0,0,1-4.19784,4.87131l-.17907-.518Z" fill="#292423"/>
      <path d="M219.93258,446.54273c.30636-3.76954.97289-7.45,3.40066-10.5154,1.72237-2.17476,3.00579-1.90571,3.97141.68829,1.26049,3.38614-.63038,11.57373-3.245,14.051a2.07717,2.07717,0,0,1-3.55911-.66508A8.39481,8.39481,0,0,1,219.93258,446.54273Z" fill="#292423"/>
      <path d="M384.53169,334.282c-.11974,1.82317.48185,3.6582-1.28134,4.37155-1.89615.76714-2.98383-.83081-4.00253-2.08105A15.61348,15.61348,0,0,1,375.858,326.119c.01754-1.03821.07386-2.37986,1.43289-2.7973a3.02845,3.02845,0,0,1,3.36768,1.28236C383.01917,327.5338,384.55691,330.79621,384.53169,334.282Z" fill="#292423"/>
      <path d="M375.87654,446.56a8.61093,8.61093,0,0,1-.52792,3.3266c-.81766,2.00222-2.00213,2.22055-3.54132.61656-2.08421-2.17207-2.63945-4.99506-3.27713-7.77467a10.07532,10.07532,0,0,1,.02245-5.78615c.327-.90913.60652-2.02381,1.69357-2.20148,1.18477-.19365,1.86937.88549,2.43227,1.67287A19.3085,19.3085,0,0,1,375.87654,446.56Z" fill="#292423"/>
      <path d="M241.85327,372.34432c.75527.14358.7445,1.06973,1.37234,1.34337-1.25681,10.2256-2.49842,20.45322-3.80993,30.67186-.07432.579-.63762,1.17649-1.68014,1.4056a102.32962,102.32962,0,0,1,.547-15.31082,124.992,124.992,0,0,1,2.69163-14.62071C241.281,374.67418,241.561,373.50762,241.85327,372.34432Z" fill="#847a68"/>
      <path d="M231.84007,294.3759c-.07617,3.39756-5.10593,8.135-8.42677,7.91212a2.00588,2.00588,0,0,1-2.09192-2.38019c.1622-3.217,4.99337-7.78759,8.2418-7.88172C231.28263,291.97631,231.85918,292.84034,231.84007,294.3759Z" fill="#292423"/>
      <path d="M372.10312,302.19511c-3.14775-.00637-7.97629-4.65763-8.07266-7.77625a2.12132,2.12132,0,0,1,2.98189-2.25791c3.50388,1.29576,6.24711,3.51763,7.35045,7.26993C374.85408,301.1015,373.8876,302.19874,372.10312,302.19511Z" fill="#292423"/>
      <path d="M249.6637,519.54728a19.80419,19.80419,0,0,1,.86371-6.00048c.13634-.61076.39908-.958,1.02708-.95556a1.129,1.129,0,0,1,1.165.87712c1.30585,4.32091,1.93783,8.66677.41063,13.07165-.18406.53089-.18656,1.36721-.93993,1.37181a1.61691,1.61691,0,0,1-1.4931-1.47508C250.25673,524.15689,249.51111,521.91677,249.6637,519.54728Z" fill="#292423"/>
      <path d="M346.03086,518.59765a25.4124,25.4124,0,0,1-1.07724,7.85545c-.18673.67883-.55264,1.38206-1.275,1.36415-.64189-.01591-.80644-.75993-.99735-1.35268-1.32627-4.11719-.7455-8.21781.14-12.297.143-.65855.50455-1.50873,1.46779-1.48456.97263.02428.77429.98228,1.02734,1.51992A12.93963,12.93963,0,0,1,346.03086,518.59765Z" fill="#292423"/>
      <path d="M353.54319,338.67477c-1.24043.25289-1.80828-.9075-2.733-1.32422-.739-.333-1.32366-1.02149-2.24538-.904q.03156-1.544.06331-3.08774.33126.06477.66287.12844.236.07486.47085.1513l-.04288-.54155c-.55231-1.63891-1.6888-3.041-1.946-4.79963.45242-.45295.17481-.94627.12484-1.45518-.23049-2.34773-.4084-4.70063-.60516-7.05169a2.08878,2.08878,0,0,1,1.7503.77111c.93452,3.91685.988,8.00378,2.25713,11.85314C351.994,334.51944,352.08843,336.84243,353.54319,338.67477Z" fill="#847a68"/>
      <path d="M246.82028,336.50858q-2.02929,1.10788-4.05871,2.21578c.89133-3.31477,1.8067-6.6233,2.6665-9.94619a35.9112,35.9112,0,0,0,.94182-7.758,2.39033,2.39033,0,0,1,2.33953-1.10434q-.39415,4.2369-.78729,8.47155c-.14262,1.73509-1.40081,3.05737-1.74412,4.71826.004.17472.00647.34878.00892.52284l.3186-.213a.52884.52884,0,0,0,.37339-.056A3.0874,3.0874,0,0,1,246.82028,336.50858Z" fill="#847a68"/>
      <path d="M225.37255,420.03116a62.11037,62.11037,0,0,0,7.674-13.703C232.65868,412.60236,230.37692,418.89445,225.37255,420.03116Z" fill="#847a68"/>
      <path d="M233.5131,404.99815a1.44993,1.44993,0,0,1,.05342.44723c-.04921.22184-.16667.23249-.25315.03844a.28925.28925,0,0,1-.01017-.21466A1.60423,1.60423,0,0,1,233.5131,404.99815Z" fill="#847a68"/>
      <path d="M362.876,406.71366a1.146,1.146,0,0,1,.15308.401c-.00482.12315-.11494.24222-.1788.36306a1.06859,1.06859,0,0,1-.15519-.38307C362.69741,406.97168,362.80628,406.85067,362.876,406.71366Z" fill="#847a68"/>
      <polygon points="362.352 405.456 362.482 405.457 362.418 405.639 362.352 405.456" fill="#847a68"/>
      <path d="M383.421,535.40988l-.07079.17717-.18124-.246.14928-.09534Z" fill="#847a68"/>
      <path d="M323.66693,162.89688c.76324-.5503,1.8692-.1209,2.5547-.89378a30.74071,30.74071,0,0,1,11.83847,1.857c1.21408.46891,2.05958,1.46786,3.29341,1.8107l.19016.10138.21511-.01242-.0342-.032c.00158.32339.2053.4451.48734.48868l-.035-.02765c.36924.36912.71248.76936,1.11157,1.10268,6.51568,5.44163,9.10225,12.52859,7.70258,20.72a21.66191,21.66191,0,0,1-18.71162,17.99771c-9.907,1.316-19.21756-3.81919-22.78737-12.09155-.5428-2.36512-2.06952-4.30793-2.39728-6.86855a23.77661,23.77661,0,0,1,.59271-8.14474c1.21042-3.66247,2.72392-7.11337,5.49948-9.95975A21.68868,21.68868,0,0,1,323.66693,162.89688Zm3.321,24.24471c-.05407-4.51426-3.4753-7.46494-8.59587-7.41364-3.788.038-7.02126,3.55789-6.97492,7.59336a8.03995,8.03995,0,0,0,7.71252,7.85509A8.21916,8.21916,0,0,0,326.988,187.14159Z" fill="#fffefe"/>
      <path d="M268.18086,162.08079q.861-.0581,1.72226-.11637c7.09014.33259,13.21156,2.74971,17.72891,8.4362a17.84547,17.84547,0,0,1,3.80045,7.33527,5.33231,5.33231,0,0,0,.7568,1.358c.19224,4.20008.46227,8.38785-.80707,12.51107-.5797,1.88309-2.26468,3.08325-2.76381,4.96934-5.71849,9.2661-19.03765,12.54412-29.14749,6.85453-13.96085-7.85681-15.23966-27.70754-2.11007-37.03728,1.05749-.75146,2.54-1.08221,3.10889-2.479C263.1346,163.69976,265.56151,162.4852,268.18086,162.08079Zm12.38865,17.66173c-4.02853-.601-7.7895,3.32752-7.6031,7.61753.20975,4.82689,3.22051,7.47187,7.69312,7.7727,3.96048.26637,7.799-3.73081,7.84194-7.756C288.54761,183.04738,284.4417,178.89923,280.56951,179.74252Z" fill="#fffefe"/>
      <path d="M299.84975,239.36432c-8.18636-.0399-15.51383-3.17437-22.49444-7.1759-2.635-1.51048-2.90539-4.49623-2.6962-7.25765.15787-2.0843.88974-4.11914,1.15609-6.20286.26842-2.1,1.48951-2.391,3.20093-2.06632,9.09212,1.72463,18.2942,1.89012,27.48768,1.61319a27.78414,27.78414,0,0,0,9.33205-1.45258c1.81354-.70619,2.41744.667,2.71618,1.8401a66.31568,66.31568,0,0,1,1.86254,8.55288,5.28975,5.28975,0,0,1-2.759,5.62758c-4.08186,2.61754-8.16045,5.11773-12.97835,6.1951A46.08355,46.08355,0,0,1,299.84975,239.36432Zm-4.4242-11.92832c.67863,0,1.35733.00533,2.03589-.00089,3.76512-.03451,3.24712.47277,3.43328-3.36367.09845-2.02889-.53881-2.65333-2.53807-2.47343a44.9886,44.9886,0,0,1-14.954-1.51566c-3.75029-.93509-3.71811-1.05882-3.41971,2.61567a1.50448,1.50448,0,0,1-.02969.672c-.57624,1.36133.22885,1.535,1.314,1.9104A48.07835,48.07835,0,0,0,295.42555,227.436Z" fill="#ec9b83"/>
      <path d="M309.49208,193.91753c3.56981,8.27236,12.88041,13.40752,22.78737,12.09155a21.66191,21.66191,0,0,0,18.71162-17.99771c1.39967-8.19138-1.1869-15.27834-7.70258-20.72-.39909-.33332-.74233-.73356-1.11157-1.10268,4.08093.82906,6.92114,3.52951,9.47786,6.51544,9.1549,10.69173,7.036,27.54462-4.05575,35.74456a2.41029,2.41029,0,0,0-.405.52688c-2.76216.93762-5.09487,2.82761-8.02831,3.43044-10.14516,2.08489-19.09145-.34144-25.87649-8.74514a20.74057,20.74057,0,0,1-4.13892-8.41391C309.03658,194.756,308.75544,194.19968,309.49208,193.91753Z" fill="#847a68"/>
      <path d="M260.46973,163.91261c-.56886,1.39675-2.0514,1.7275-3.10889,2.479-13.12959,9.32974-11.85078,29.18047,2.11007,37.03728,10.10984,5.68959,23.429,2.41157,29.14749-6.85453,1.13592.62088.25189,1.40376-.01076,1.88822-4.52306,8.34319-11.37337,13.09426-21.01733,13.59578a23.5722,23.5722,0,0,1-17.34008-6.06271c-.14959-.13041-.423-.11885-.63861-.17291-2.937-3.45374-5.63913-7.01637-6.83745-11.53456-3.103-11.7,2.20013-24.361,13.70363-29.12356C257.78079,164.62512,258.9133,163.619,260.46973,163.91261Z" fill="#847a68"/>
      <path d="M327.12344,252.61293c-4.50393,5.80233-7.56487,12.57-14.17884,15.788-8.03439,3.90912-16.43979,5.20313-25.36886,2.39566-6.87111-2.1604-11.16612-6.5312-14.06269-12.83094a28.95674,28.95674,0,0,0-4.38774-7.22843c-3.16366-3.57215-5.43684-4.18305-9.01078.411a16.029,16.029,0,0,0-2.766,4.99689c-1.9079-4.66972,1.32678-12.36923,5.78148-13.91967,2.22686-.775,4.09161.29835,5.82962,1.57779,3.33779,2.45719,5.1286,6.06831,6.69761,9.68094,3.25415,7.49261,8.63574,12.42226,16.53972,14.371a23.68974,23.68974,0,0,0,14.589-1.3299c7.33148-2.889,13.18195-7.85832,18.76292-13.221A1.50152,1.50152,0,0,1,327.12344,252.61293Z" fill="#292423"/>
      <path d="M245.92,208.90646c.14709-.55942.65848-.38006,1.02091-.50329C246.69,208.75191,246.528,209.28152,245.92,208.90646Z" fill="#292423"/>
      <path d="M342.21192,166.21637c-.282-.04358-.48576-.16529-.48734-.48868Q341.9683,165.97194,342.21192,166.21637Z" fill="#847a68"/>
      <path d="M341.75878,165.75974l-.21511.01242-.19016-.10138C341.54065,165.46349,341.66349,165.54894,341.75878,165.75974Z" fill="#847a68"/>
      <polygon points="241.85 127.585 242.044 127.694 241.949 127.783 241.85 127.585" fill="#ece1d1"/>
      <path d="M381.25841,136.20889l.20721-.1829c-.0107.04319-.00765.10348-.03522.12571a.58043.58043,0,0,1-.16353.06575Z" fill="#c2b59d"/>
      <path d="M284.51585,152.58827l.80681-.095a4.7491,4.7491,0,0,1,.48789,2.752C284.82072,154.54643,284.911,153.43954,284.51585,152.58827Z" fill="#847a68"/>
      <path d="M323.82538,157.75205c.18277-.13085.38239-.26055.52455.01906.02636.05183-.14669.205-.22767.3115A2.29744,2.29744,0,0,1,323.82538,157.75205Z" fill="#c2b59d"/>
      <path d="M372.11753,239.95373c.33052-.21113.828-.29872.93488-.0153.11688.30993-.35377.19422-.57243.20028C372.36471,240.14191,372.246,240.02344,372.11753,239.95373Z" fill="#515050"/>
      <path d="M347.29263,319.7905c.19676,2.35106.37467,4.704.60516,7.05169.05.50891.32758,1.00223-.12484,1.45518-1.37726-.416-1.70412-1.83576-2.553-2.7501-2.11929-2.28257-4.06868-4.72294-6.34968-7.41037C342.01522,318.294,344.797,318.23255,347.29263,319.7905Z" fill="#c2b59d"/>
      <path d="M247.92213,328.38736q.39337-4.23519.78729-8.47155c2.3571-1.77591,5.1771-1.47605,8.0383-1.94956-.47319,1.606-1.747,2.28249-2.57652,3.28539a54.35539,54.35539,0,0,0-5.08966,6.54256C248.81156,328.24562,248.3594,328.28975,247.92213,328.38736Z" fill="#c2b59d"/>
      <path d="M243.55219,370.52661l-.10538,1.39509A.88465.88465,0,0,1,243.55219,370.52661Z" fill="#c2b59d"/>
      <path d="M349.71891,333.097l.04288.54155q-.23511-.076-.47085-.1513Q349.5043,333.29293,349.71891,333.097Z" fill="#ece1d1"/>
      <path d="M246.50553,333.41549l-.3186.213c-.00245-.17406-.00489-.34812-.00892-.52284A4.32691,4.32691,0,0,1,246.50553,333.41549Z" fill="#ece1d1"/>
      <path d="M326.988,187.14159a8.21916,8.21916,0,0,1-7.85827,8.03481,8.03995,8.03995,0,0,1-7.71252-7.85509c-.04634-4.03547,3.18689-7.55538,6.97492-7.59336C323.51265,179.67665,326.93388,182.62733,326.988,187.14159Z" fill="#292423"/>
      <path d="M280.56951,179.74252c3.87219-.84329,7.9781,3.30486,7.932,7.63421-.04289,4.02521-3.88146,8.02239-7.84194,7.756-4.47261-.30083-7.48337-2.94581-7.69312-7.7727C272.78,183.07,276.541,179.14155,280.56951,179.74252Z" fill="#292423"/>
      <path d="M295.42555,227.436a48.07835,48.07835,0,0,1-14.1583-2.15562c-1.08516-.37537-1.89025-.54907-1.314-1.9104a1.50448,1.50448,0,0,0,.02969-.672c-.2984-3.67449-.33058-3.55076,3.41971-2.61567a44.9886,44.9886,0,0,0,14.954,1.51566c1.99926-.1799,2.63652.44454,2.53807,2.47343-.18616,3.83644.33184,3.32916-3.43328,3.36367C296.78288,227.44133,296.10418,227.436,295.42555,227.436Z" fill="#f4bbb1"/>
    </g>
  </g>
</svg>
