<svg xmlns="http://www.w3.org/2000/svg" width="600" height="600" viewBox="0 0 600 600">
  <title>character-splash-full</title>
  <g id="Background">
    <path d="M559.27121,218.88656c40.77132-74.76255,21.92941-161.26617-61.61753-201.5738-104.16009-50.25243-169.37736,24.536-211.00623,27.97588-40.0361,3.30834-136.194-7.87488-204.95642,23.0453C-6.41629,107.95269,48.72721,190.07661,48.72721,190.07661S-80.04547,467.65305,81.26979,515.59042c.83906,139.35834,430.79409,74.43376,430.86978,28.80184C677.10036,524.04837,559.27121,218.88656,559.27121,218.88656Z" fill="#b2d4cd"/>
    <g>
      <g>
        <path d="M430.72853,542.5132c.107,10.41037-23.82723,13.71643-31.2311,15.67439-6.013,1.60489-31.88376,4.3439-16.62663,12.07945-4.53648,9.9717-38.3782,3.13488-47.09809,1.04853-7.30758-1.75468-14.31559-3.55215-21.08821-5.6706-4.75047-1.49789-14.08021-7.1578-18.55249-1.91517,1.27321,2.00076,1.00572,3.841,1.54069,6.013-7.42528,3.95872-18.5632,1.3909-26.88721.0321-9.9396-1.62629-18.67019-3.70194-29.04845-3.85173-1.26252-.0214-2.53573-.0321-3.83033-.0428l.04279-3.01718c5.799,0,10.956-2.50363,8.39891-8.77339,6.72983-.62055,10.956,7.76766,17.71795,8.45241,9.00877.92013,14.123-5.80969,22.02975-7.25409-2.55712-9.319-15.23573.73825-19.922-1.97936-6.72982-3.89453,9.533-9.60793,12.11155-13.42756-2.7925-1.99006-5.6492-1.92586-8.22772-3.88382,1.62629-3.02789,6.441-5.46732,5.24263-8.93387-1.65838-4.79327-4.07641-2.05426-6.93311-.71685-7.25409,3.381-9.55443,9.24415-17.81425,9.06226-8.77338-.20329-12.02595-2.8032-20.72444,1.28391-6.12,2.8781-13.47035,5.84179-19.96479,5.88458l3.56285-1.43369c-5.55291,1.54069-6.71913-.1177-10.88113-1.24112-2.48223-.674-4.75047-4.34389-7.1471-.37447-3.55215,5.89528,8.23842,7.1043,8.62359,11.48029a7.8774,7.8774,0,0,1-1.56209.43867c-4.81466-5.09284-12.47532-2.11845-17.93194-6.45165-8.4952-6.75122,2.28964-10.34617,8.67709-13.03168.80245-.33168,1.59419-.642,2.38594-.92013,2.28963,1.75467,6.55863.89873,6.80472-1.89377a83.82586,83.82586,0,0,1,13.25636-1.4123c5.92739-.25678,18.5097.67405,23.12107-2.7925-6.69772-13.13868,13.67364-9.36184,22.05115-8.003,11.63008,1.89377,24.85435,6.91171,36.55933,5.30683-.69545-12.8819,35.4573-1.316,43.792-1.27321,12.51812.83454,25.17533-.98434,37.34037-2.59992,5.91669-.78105,11.08442-1.00573,17.1295.39587,10.37827,2.39663,4.64347,4.17271,8.03513,11.11652C408.24941,539.22853,430.60014,531.32179,430.72853,542.5132Z" fill="#edf0f4" opacity="0.8"/>
        <path d="M266.17411,553.30874c4.68627,2.71761,17.36488-7.33968,19.922,1.97936-7.90674,1.4444-13.021,8.17422-22.02975,7.25409-6.76192-.68475-10.98812-9.073-17.71795-8.45241,2.55712,6.26976-2.59992,8.77339-8.39891,8.77339a20.03934,20.03934,0,0,1-8.67709-1.90447c-4.30109-2.18265-2.70691-5.05-7.96024-4.804-3.78753.16049-6.52654,4.055-10.62435,4.14061.48147-.86664.47077-2.9102,1.16622-4.02292-3.32747-1.62629-6.99731-1.04853-10.65645-.69545-3.10278.31028-6.19486.44937-9.08366-1.03783,2.11845-3.81963,6.58-2.418,10.34617-3.09208a7.8774,7.8774,0,0,0,1.56209-.43867c-.38517-4.376-12.17574-5.585-8.62359-11.48029,2.39663-3.96942,4.66487-.29958,7.1471.37447,4.162,1.12342,5.32822,2.78181,10.88113,1.24112l-3.56285,1.43369c6.49444-.04279,13.84483-3.00648,19.96479-5.88458,8.69849-4.08711,11.95106-1.4872,20.72444-1.28391,8.25982.18189,10.56016-5.6813,17.81425-9.06226,2.8567-1.33741,5.27473-4.07642,6.93311.71685,1.19832,3.46655-3.61634,5.906-5.24263,8.93387,2.57852,1.958,5.43522,1.89376,8.22772,3.88382C275.70714,543.70081,259.44429,549.41421,266.17411,553.30874Z" fill="#f9f9fa"/>
        <path d="M237.9495,562.86317l-.04279,3.01718c-8.22773-.11769-16.99041-.23538-25.4-1.19831-7.27548-.82384-16.29495-3.44516-11.3091-9.10506,3.65914-.35308,7.329-.93084,10.65645.69545-.69545,1.11272-.68475,3.15628-1.16622,4.02292,4.09781-.0856,6.83682-3.98012,10.62435-4.14061,5.25333-.24608,3.65915,2.62131,7.96024,4.804A20.03934,20.03934,0,0,0,237.9495,562.86317Z" fill="#edf0f4"/>
        <path d="M198.46928,523.13686c3.04929,2.48223,4.055,4.52578,3.92663,6.013-.24609,2.7925-4.51509,3.64844-6.80472,1.89377a3.65637,3.65637,0,0,1-1.423-2.739c-2.37524-1.13412-6.38745-1.54069-4.84676-5.7241C190.89422,518.3008,196.27594,521.36079,198.46928,523.13686Z" fill="#f9f9fa"/>
      </g>
      <path d="M264.17774,511.29681c4.28291-2.13354,8.41057-.47227,11.14123-5.25975,2.12156-3.7197-.63681-6.35375,2.30334-9.89573,4.72168,1.72193,4.63652,9.04525,2.01295,12.73456-3.40984,4.79583-10.17262,4.7938-15.45752,4.34978-.20842-.71471.09244-1.3082,0-1.92886" fill="#f9f9fa"/>
      <path d="M207.00471,510.47767s9.97887-6.5658,7.86042,3.56713c-1.443,6.90016-10.73006,2.25262-7.86042-3.56713" fill="#f9f9fa"/>
      <path d="M194.16562,510.47767a10.75357,10.75357,0,0,1,.10763-3.61827,10.74135,10.74135,0,0,1,2.63769.15985,12.37787,12.37787,0,0,1,0,4.06133c-3.2009.30086-2.58334,1.30188-2.74532-.60291" fill="#f9f9fa"/>
    </g>
    <path d="M411.11,505.87526c5.22759,1.61559,8.10614,5.08214,11.08095,9.9289-.2503.428-.51024.84524-.78943,1.26251C418.7444,512.75487,414.41214,508.76406,411.11,505.87526Z" fill="#807868"/>
    <path d="M400.443,512.3911c6.845,1.62629,11.65859,4.2048,16.21227,10.26058-.57763.55636-1.17452,1.08062-1.781,1.56209A71.93581,71.93581,0,0,0,400.443,512.3911Z" fill="#807868"/>
    <path d="M434.24426,234.46747c-17.27127-2.62131-32.43418-4.376-49.71507-.66335.05776-.34238.1059-.69545.154-1.04853C396.775,226.20765,420.8624,230.65854,434.24426,234.46747Z" fill="#4c4a4d"/>
    <path d="M411.73577,272.4391c-1.10713-1.4872-13.29522-17.46117-30.46059-25.88148C395.5235,248.16251,401.63679,256.67911,411.73577,272.4391Z" fill="#4c4a4d"/>
    <path d="M400.18308,331.60593c1.87731,5.88459,1.36707,11.77987-1.136,13.19217-2.51271,1.4123-6.07479-2.21474-7.95211-8.08863-1.88693-5.87388-1.37669-11.77987,1.136-13.19217C394.74369,322.1157,398.29614,325.72135,400.18308,331.60593Z" fill="#231f20"/>
    <path d="M375.74914,140.53879c-.077.22468-.18292.73824-.27919.92013,1.65589-6.72982,2.55122-14.23,3.67761-20.61745-5.96889,3.28467-13.68994,1.4551-17.54084,8.71989h-.00962c-.154.0214-.51025.51356-.59689.65265.20217-12.23993-.30807-24.0733,4.42853-35.66059,3.331-8.13142,9.59836-17.80354,17.42531-22.92848,8.14464,17.37558,14.38309,51.1531,14.93185,64.73044.80869,20.01829-4.75586,28.90937-16.23153,42.476-7.1723-27.572.24068-42.49741.24068-42.49741C379.84072,137.5537,377.68422,139.287,375.74914,140.53879Z" fill="#c2b69c"/>
    <path d="M384.972,366.67806c2.32979-.37447,3.54282,2.739,2.71488,6.94381-.82794,4.21551-3.38879,7.91744-5.71858,8.27052-2.32979.36377-3.54282-2.76041-2.71488-6.95451C380.0814,370.73308,382.64225,367.03114,384.972,366.67806Z" fill="#231f20"/>
    <path d="M385.74222,311.68393c2.48383,3.60565,2.81115,7.63927.7413,8.98737-2.06986,1.35881-5.76672-.47077-8.25055-4.08711s-2.81115-7.63926-.7413-8.99807C379.56153,306.238,383.25839,308.06759,385.74222,311.68393Z" fill="#231f20"/>
    <path d="M386.32948,461.49478c1.87731,5.33893,1.15527,10.48527-1.60775,11.53379-2.77264,1.03783-6.5369-2.418-8.41421-7.73555-1.88694-5.31753-1.16489-10.47457,1.60775-11.52309C380.68792,452.7321,384.45217,456.188,386.32948,461.49478Z" fill="#231f20"/>
    <path d="M407.49016,244.10749c-5.45865-1.4123-16.34706-2.30034-24.76127-2.8032.19255-.55636.36584-1.11272.5295-1.66908,14.78744-1.21972,27.92863-.35308,54.75975,16.89411C436.77623,255.94086,416.77082,246.52552,407.49016,244.10749Z" fill="#4c4a4d"/>
    <path d="M384.68322,232.75559c-.04813.35308-.09627.70615-.154,1.04853q-1.1264.24073-2.25278.51356A14.47429,14.47429,0,0,1,384.68322,232.75559Z" fill="#4c4a4d"/>
    <path d="M381.25592,351.04646c2.20464-.43867,3.45618,2.77111,2.7919,7.1792s-2.99407,8.33471-5.20833,8.78408c-2.20464.43867-3.45618-2.77111-2.7919-7.1792S379.04166,351.49583,381.25592,351.04646Z" fill="#231f20"/>
    <path d="M383.17175,329.65867c1.79066,4.269,1.8388,8.63429.10589,9.747-1.7329,1.12342-4.58256-1.423-6.3636-5.692-1.79067-4.269-1.82918-8.61289-.1059-9.747C378.541,322.854,381.39071,325.41107,383.17175,329.65867Z" fill="#231f20"/>
    <path d="M383.25839,239.63521c-.16366.55636-.337,1.11272-.5295,1.66908-2.97482-.17119-5.64156-.31028-7.65365-.39587l-.11553-.48147C377.83825,240.14877,380.57239,239.85989,383.25839,239.63521Z" fill="#4c4a4d"/>
    <path d="M382.81554,425.48112a15.35748,15.35748,0,0,1-5.218-.781c-2.17575-3.72334-4.42853-8.92318-6.47913-17.43978C371.11844,407.2603,377.53981,419.60723,382.81554,425.48112Z" fill="#807868"/>
    <path d="M382.72889,241.30429a38.88263,38.88263,0,0,1-4.92915,9.80051q-1.24191,1.79748-2.59935,3.56285a35.095,35.095,0,0,0,.58726-9.8968c-.18292-1.34811-.4236-2.632-.71241-3.86243C377.08733,240.994,379.75407,241.1331,382.72889,241.30429Z" fill="#c2b69c"/>
    <path d="M374.72865,436.45855c2.23352,4.2262,2.70526,8.40961,1.10714,9.37254-1.627.96293-4.73661-1.67978-6.95087-5.89529-2.21427-4.2048-2.71488-8.4203-1.10713-9.37254C369.39516,429.60033,372.50476,432.23234,374.72865,436.45855Z" fill="#231f20"/>
    <path d="M375.43144,495.3365c1.45372,5.41382,1.03012,10.13219-.94347,10.52806-1.98321.39587-4.76548-3.66984-6.21919-9.09436-1.46335-5.40312-1.04937-10.12149.93384-10.51736C371.1762,485.857,373.9681,489.92268,375.43144,495.3365Z" fill="#231f20"/>
    <path d="M374.95971,240.427l.11553.48147c-2.35868-.107-3.822-.14979-3.822-.14979C372.51439,240.65164,373.7563,240.54464,374.95971,240.427Z" fill="#4c4a4d"/>
    <path d="M371.99452,511.20348c2.1565,3.70194,3.11922,7.1471,2.14687,7.71416-.9916.54566-3.52357-1.97936-5.68007-5.6813-2.1565-3.69124-3.11923-7.1364-2.13725-7.70346C367.2868,504.97652,369.82839,507.51224,371.99452,511.20348Z" fill="#231f20"/>
    <path d="M371.18583,295.41038c2.66675,2.418,3.87978,5.52081,2.69563,6.92241-1.17453,1.4123-4.29375.56706-6.9605-1.86167-2.67637-2.42873-3.8894-5.54221-2.70525-6.93311C365.39023,292.13641,368.50946,292.971,371.18583,295.41038Z" fill="#231f20"/>
    <path d="M368.779,226.764a44.44532,44.44532,0,0,1,6.18069,13.66294c-1.20341.11769-2.44532.22469-3.70649.33168l-2.50308.535c-1.213-4.62207-3.591-8.81618-6.39249-13.43825a67.25409,67.25409,0,0,0-9.79091-12.45393C359.2673,217.85154,365.36135,221.41439,368.779,226.764Z" fill="#231f20"/>
    <path d="M370.46379,447.29688c2.06023,5.02865,1.9447,9.91821-.28882,10.90254-2.20464,1.01642-5.68007-2.26824-7.75956-7.29689-2.0506-5.01795-1.91582-9.9075.28882-10.91323C364.9185,438.99427,368.40356,442.25754,370.46379,447.29688Z" fill="#231f20"/>
    <path d="M362.09771,405.40933a46.32593,46.32593,0,0,0,8.83781,16.16657,33.19912,33.19912,0,0,1-5.53566-4.2904A34.77495,34.77495,0,0,1,362.09771,405.40933Z" fill="#807868"/>
    <path d="M249.67079,281.68325a7.6279,7.6279,0,0,0-3.06146,1.73327c-3.87978,3.47726-10.744,11.87617-8.058,16.42335C245.3,311.256,247.004,293.6771,250.749,289.99656c2.07948-2.05425,4.2745-1.80817,6.51764-2.55712l.25031-.49216c1.23229.77034,2.44532,1.47649,3.61022,2.13985,23.04761,13.04238,53.77777,11.57658,77.47041-1.4872,2.06985.56706,4.09158.50286,6.0074,2.39663,3.745,3.68054,5.449,21.2594,12.19771,9.84331,2.686-4.54718-4.17822-12.94609-8.058-16.42335a8.36482,8.36482,0,0,0-1.69439-1.18761c1.08787-.80245,2.1565-1.61559,3.19624-2.47153l.00963-.0107c1.9447,1.54069,4.12046,3.734,6.32509,5.40312,3.3214,2.51433,6.68131,3.81963,9.271-.29958l.35621-.63125c15.07626,10.54946,27.92862,23.52764,35.563,39.523,2.09873,4.3974,4.48629,9.89681,5.36237,14.42259,1.65588,8.5594-6.61392,23.06757-21.65167,49.34492,3.98568,8.94457,7.1723,19.80431,4.94841,30.96362-.97236,4.86816-3.92792,6.85822-7.61515,7.008-5.27573-5.87389-11.6971-18.22082-11.6971-18.22082,2.0506,8.5166,4.30338,13.71644,6.47913,17.43978a28.85924,28.85924,0,0,1-6.66205-3.12418,46.32593,46.32593,0,0,1-8.83781-16.16657,34.77495,34.77495,0,0,0,3.30215,11.87617,22.25656,22.25656,0,0,1-2.94594-3.42376c-1.40558-2.05426-2.84-4.08711-4.2071-6.12-.22143-12.23994-1.08788-23.28156-4.68847-34.78325,5.11207-7.30759,16.66476-21.08822-.40434-33.19976-.65466-1.92587-1.2708-3.91593-1.93508-6.00228a86.33961,86.33961,0,0,1-2.24315-12.52882,15.97458,15.97458,0,0,1,1.964,1.13412,38.27894,38.27894,0,0,0-2.18538-3.80893,27.80123,27.80123,0,0,0-16.90544-12.19714,74.41028,74.41028,0,0,0-16.38556-2.02216c-6.06517-.23538-12.09182-.25678-17.78152-.14979-5.6897-.107-11.71635-.08559-17.79114.14979a73.84623,73.84623,0,0,0-16.39519,2.03286c-7.78844,2.10775-14.32534,6.50514-19.08119,15.99537a15.85959,15.85959,0,0,1,1.95433-1.13412l.00962.0107a86.13851,86.13851,0,0,1-2.24314,12.51812c-.66428,2.097-1.28043,4.07641-1.93508,6.013-17.0691,12.10084-5.50678,25.88147-.40434,33.19976-3.60059,11.50169-4.467,22.54331-4.68847,34.78325-1.3767,2.03286-2.80153,4.055-4.20711,6.10927a23.53487,23.53487,0,0,1-2.917,3.40236,34.85033,34.85033,0,0,0,3.27326-11.85477,46.09471,46.09471,0,0,1-8.82818,16.16657,32.17474,32.17474,0,0,1-4.25524,2.23614,24.3016,24.3016,0,0,1-2.40681.888c2.17576-3.72334,4.4189-8.92318,6.46951-17.43978,0,0-6.42137,12.34693-11.6971,18.22082-3.68723-.14979-6.6428-2.13985-7.61515-7.008a38.57624,38.57624,0,0,1-.67391-5.28542,46.79064,46.79064,0,0,1,1.49223-14.02672,66.34626,66.34626,0,0,1,2.50308-7.72485c.51024-1.34811,1.059-2.65342,1.627-3.92663-.43322-.74894-.85682-1.49789-1.27079-2.22544-14.22907-24.87575-21.98862-38.80617-20.38087-47.11948.87608-4.52578,3.26363-10.02519,5.36237-14.42259,7.6344-15.98467,20.48677-28.96286,35.5534-39.523l.36584.63125c1.60775,2.54642,3.49469,3.01719,5.49715,2.418,3.73537-1.12342,7.83658-6.03437,11.09059-8.24912.06739.0535.12515.0963.19254.14979C247.418,280.03556,248.5444,280.8701,249.67079,281.68325ZM399.04707,344.7981c2.50308-1.4123,3.01332-7.30758,1.136-13.19217-1.88694-5.88458-5.43939-9.49023-7.9521-8.08863-2.51271,1.4123-3.02295,7.31829-1.136,13.19217C392.97228,342.58336,396.53436,346.2104,399.04707,344.7981Zm-11.36015,28.82377c.82794-4.2048-.38509-7.31828-2.71488-6.94381-2.32979.35308-4.89064,4.055-5.71858,8.25982-.82794,4.1941.38509,7.31828,2.71488,6.95451C384.29813,381.53931,386.859,377.83738,387.68692,373.62187Zm-1.2034-52.95057c2.06985-1.3481,1.74253-5.38172-.7413-8.98737-2.48383-3.61634-6.18069-5.44591-8.25055-4.09781-2.06985,1.35881-1.74253,5.38172.7413,8.99807S384.41366,322.03011,386.48352,320.6713Zm-2.4357,37.55436c.66428-4.40809-.58726-7.61787-2.7919-7.1792-2.21426.44937-4.54405,4.376-5.20833,8.78408s.58726,7.61787,2.7919,7.1792C381.05375,366.56037,383.38354,362.63375,384.04782,358.22566Zm-.77018-18.82c1.73291-1.11272,1.68477-5.478-.10589-9.747-1.781-4.2476-4.63071-6.80472-6.36361-5.692-1.72328,1.13412-1.68477,5.478.1059,9.747C378.69508,337.98268,381.54474,340.5291,383.27764,339.40568Zm-9.39618-37.07289c1.18415-1.4016-.02888-4.50438-2.69563-6.92241-2.67637-2.43943-5.7956-3.274-6.97012-1.87237-1.18415,1.3909.02888,4.50438,2.70525,6.93311C369.58771,302.89985,372.70693,303.74509,373.88146,302.33279Zm-145.44837-1.86167c2.67638-2.42873,3.88941-5.54221,2.70526-6.93311-1.17452-1.4016-4.29375-.56706-6.97012,1.87237-2.66675,2.418-3.87978,5.52081-2.69563,6.92241C222.64712,303.74509,225.76635,302.89985,228.43309,300.47112Zm-11.91852,66.53862c2.20464.43867,3.45618-2.77111,2.7919-7.1792s-2.99407-8.33471-5.20834-8.78408c-2.20464-.43867-3.45618,2.77111-2.7919,7.1792S214.3003,366.56037,216.51457,367.00974ZM218.44,333.71368c1.79066-4.269,1.82917-8.61289.1059-9.747-1.73291-1.11272-4.58257,1.4444-6.36361,5.692-1.79067,4.269-1.8388,8.63429-.1059,9.747C213.80931,340.5291,216.659,337.98268,218.44,333.71368Zm-1.31893-17.12949c2.48382-3.61635,2.81115-7.63926.74129-8.99807-2.06985-1.3481-5.76671.48147-8.25054,4.09781-2.48383,3.60565-2.81116,7.63927-.7413,8.98737C210.9404,322.03011,214.63726,320.20053,217.12109,316.58419Zm-3.73537,65.3082c2.32979.36377,3.54282-2.76041,2.71488-6.95451-.82794-4.2048-3.38879-7.90674-5.71858-8.25982-2.3298-.37447-3.54283,2.739-2.71489,6.94381C208.49508,377.83738,211.05592,381.53931,213.38572,381.89239Zm-9.12663-45.18292c1.88694-5.87388,1.3767-11.77987-1.136-13.19217-2.51271-1.4016-6.06517,2.204-7.9521,8.08863-1.87732,5.88459-1.36707,11.77987,1.136,13.19217C198.8197,346.2104,202.38178,342.58336,204.25909,336.70947Z" fill="#c2b69c"/>
    <path d="M366.20855,284.219l-.35621.63125c-2.58973,4.11921-5.94964,2.81391-9.271.29958-2.20463-1.66908-4.38039-3.86243-6.32509-5.40312.5295-.428,1.03011-.85594,1.55-1.3053.75093-.65266,1.51148-1.30531,2.2624-1.96867C358.22756,278.90144,362.29989,281.48,366.20855,284.219Z" fill="#231f20"/>
    <path d="M364.36012,491.72016c1.92544,4.61137,1.99283,8.93387.154,9.61862-1.84843.67405-4.89064-2.525-6.81609-7.1578-1.92544-4.62207-2.00246-8.93387-.16366-9.61862C359.38283,483.88831,362.44429,487.07668,364.36012,491.72016Z" fill="#231f20"/>
    <path d="M371.25322,240.75863s1.46334.0428,3.822.14979c.28881,1.23041.52949,2.51432.71241,3.86243a35.095,35.095,0,0,1-.58726,9.8968,143.04107,143.04107,0,0,1-16.00048,17.16159c4.81362-6.24836,9.18439-13.06378,10.12786-19.922a26.85319,26.85319,0,0,0-.57763-10.61365Z" fill="#231f20"/>
    <path d="M361.60672,129.56136c-.00962.0107-.01925.0321-.02888.0428.00963-.0107.00963-.0321.01926-.0428Z" fill="#c2b69c"/>
    <path d="M348.74473,283.41652c3.87978,3.47726,10.744,11.87617,8.058,16.42335C350.054,311.256,348.35,293.6771,344.605,289.99656c-1.91582-1.89377-3.93755-1.82957-6.0074-2.39663a79.0753,79.0753,0,0,0,8.45272-5.371A8.36482,8.36482,0,0,1,348.74473,283.41652Z" fill="#231f20"/>
    <path d="M353.55835,372.95852c3.60059,11.50169,4.467,22.54331,4.68847,34.78325q-1.37189-2.02216-2.61861-4.06571c-.55838-9.87541-1.79067-19.79361-3.254-29.58342l.47173-.08559C353.06736,373.67537,353.308,373.32229,353.55835,372.95852Z" fill="#807868"/>
    <path d="M351.78694,386.08649c1.49222,5.7776.71241,11.08442-1.73291,11.86547-2.44531.79174-5.64156-3.26327-7.12415-9.04086-1.49223-5.7669-.71242-11.07372,1.7329-11.86547C347.1081,376.27529,350.30434,380.3196,351.78694,386.08649Z" fill="#231f20"/>
    <path d="M352.30681,373.62187h-.00963l-.03851.0107c-4.28412-3.59495-7.93284-10.34617-8.08688-15.74929-.154-5.39242,2.46457-6.82612,5.19871-5.83109.3177,3.83033.77981,7.92814,1.50185,12.43253Q351.60884,369.02654,352.30681,373.62187Z" fill="#231f20"/>
    <path d="M348.08045,330.643a21.21808,21.21808,0,0,1,1.91582,4.32249q-.82313-.5617-1.67514-1.02712C348.25374,332.847,348.1671,331.745,348.08045,330.643Z" fill="#ece1d1"/>
    <path d="M350.93974,322.36178a15.97458,15.97458,0,0,0-1.964-1.13412c-.09627-.96293-.17329-1.87237-.22142-2.67481A38.27894,38.27894,0,0,1,350.93974,322.36178Z" fill="#ece1d1"/>
    <path d="M351.21893,333.75648c.66428,2.08635,1.28042,4.07641,1.93508,6.00228a44.487,44.487,0,0,0-4.65959-2.8674c-.05776-.98433-.1059-1.96866-.17329-2.953q.852.4654,1.67514,1.02712a21.21808,21.21808,0,0,0-1.91582-4.32249c-.27919-3.31677-.66428-6.70843-1.2708-10.32477a17.76131,17.76131,0,0,1,2.16613.90943A86.33961,86.33961,0,0,0,351.21893,333.75648Z" fill="#807868"/>
    <path d="M346.80965,320.31823c.60652,3.61634.99161,7.008,1.2708,10.32477a61.31111,61.31111,0,0,0-9.59836-11.87616A30.06224,30.06224,0,0,1,346.80965,320.31823Z" fill="#c2b69c"/>
    <path d="M340.15723,165.9067a22.05392,22.05392,0,1,1-31.99132,26.30945,22.04427,22.04427,0,0,1-.645-12.38973,22.05986,22.05986,0,0,1,15.7598-16.22006,20.55335,20.55335,0,0,1,2.30091-.48146,20.95977,20.95977,0,0,1,3.39841-.26749A21.88323,21.88323,0,0,1,340.15723,165.9067ZM326.7176,187.97925a7.75956,7.75956,0,1,0-7.75955,7.75695A7.76191,7.76191,0,0,0,326.7176,187.97925Z" fill="#fff"/>
    <path d="M308.16591,192.21615a22.0558,22.0558,0,1,0,31.99132-26.30945v-.0107a24.61,24.61,0,1,1-32.001,26.33085Z" fill="#807868"/>
    <path d="M332.58059,115.67374c3.79313,10.64575,2.54159,26.03126-2.2624,38.2498-1.60775-.57776-2.81115-1.3053-5.08318-.995,2.43569-12.33623,4.83287-24.405,1.03011-38.04652l.12516-.642Q329.755,114.9141,332.58059,115.67374Z" fill="#231f20"/>
    <path d="M329.71167,155.4a45.12007,45.12007,0,0,0-5.45864,2.57852v.0107c-5.39126,2.97439-11.07133,7.23269-13.33373,10.57085,1.964-4.46158,3.745-11.277,8.36607-13.54524a19.6787,19.6787,0,0,1,5.94964-2.08636c2.272-.31027,3.47543.41727,5.08318.995a9.95174,9.95174,0,0,0,2.42606.57776A17.4269,17.4269,0,0,0,329.71167,155.4Z" fill="#202020"/>
    <path d="M328.98,162.85741a20.95977,20.95977,0,0,0-3.39841.26749v-.0107A46.79326,46.79326,0,0,0,329.71167,155.4a17.4269,17.4269,0,0,1,3.03258-.89874,9.95174,9.95174,0,0,1-2.42606-.57776c4.804-12.21854,6.05553-27.604,2.2624-38.2498,2.12762.55636,4.04344,1.12342,5.72821,1.69048,1.67514-5.07144,3.822-11.3733,6.24808-17.95334,4.313-11.705,14.19055-31.43438,26.446-37.95022,4.11083-2.18265,8.17353,2.32173,11.85114,10.16428-7.82695,5.12494-14.09429,14.79706-17.42531,22.92848-4.7366,11.58729-4.22636,23.42066-4.42853,35.66059.08664-.13909.44285-.63125.59689-.65265-.00963.0107-.00963.0321-.01926.0428.00963-.0107.01926-.0321.02888-.0428,3.8509-7.26479,11.572-5.43522,17.54084-8.71989-1.12639,6.38745-2.02172,13.88763-3.67761,20.61745.09627-.18189.20217-.69545.27919-.92013,1.93508-1.25182,4.09158-2.98509,6.04591-4.20481,0,0-7.413,14.92545-.24068,42.49741-.09627.107-.18292.214-.27919.321h.00963c2.40681,10.67785,3.05183,21.79436,3.70648,34.29108a103.90855,103.90855,0,0,1-.30807,19.31214,14.47429,14.47429,0,0,0-2.40681,1.56209q1.12639-.27282,2.25278-.51356a47.32792,47.32792,0,0,1-1.2708,5.83109c-2.686.22468-5.42014.51356-8.29868.79174A44.44532,44.44532,0,0,0,368.779,226.764c-3.41767-5.34962-9.51172-8.91247-16.21228-11.3626h-.00962a78.04537,78.04537,0,0,0-6.2192-5.6599,24.617,24.617,0,0,0-6.18069-43.84551v.0107A21.88323,21.88323,0,0,0,328.98,162.85741Z" fill="#c2b69c"/>
    <path d="M323.28068,163.60636c.28881-1.89376.62577-3.75543.97235-5.6171v-.0107A45.12007,45.12007,0,0,1,329.71167,155.4a46.79326,46.79326,0,0,1-4.13008,7.71416v.0107A20.55335,20.55335,0,0,0,323.28068,163.60636Z" fill="#231f20"/>
    <circle cx="318.95805" cy="187.97925" r="7.75956" fill="#202020"/>
    <path d="M282.62484,264.11508c15.86569,11.74778,32.61709,1.29461,46.58622-14.1765-7.3841,10.30338-11.4853,17.64306-18.59983,20.26438-7.9136,2.92089-15.71166,3.99081-23.12464,1.3909-9.21327-3.22048-10.64773-6.00228-15.29768-14.94685-4.77512-9.20135-9.531-11.99386-15.34583.46007-1.53073-9.09436,5.10244-19.31214,13.14119-11.50169C274.93267,250.42005,276.17458,259.34322,282.62484,264.11508Z" fill="#231f20"/>
    <path d="M315.46336,304.33355a74.41028,74.41028,0,0,1,16.38556,2.02216c-3.72574-.41727-17.512-1.851-34.16708-2.17195C303.37154,304.07677,309.39819,304.09817,315.46336,304.33355Z" fill="#ece1d1"/>
    <path d="M314.04815,112.39977c1.83881,6.64423,1.24192,18.80927.32733,24.93994-1.32856,8.859-4.082,20.18948-8.33719,27.77525,1.2034-18.24222,5.12169-34.38738,1.11676-53.23946C309.56186,112.0039,311.86277,112.18578,314.04815,112.39977Z" fill="#231f20"/>
    <path d="M300.76256,222.31313v5.46731c-12.708,1.33741-21.22807-2.28964-21.22807-2.28964v-5.85248S290.77911,223.67193,300.76256,222.31313Z" fill="#f3bdb0"/>
    <path d="M276.36713,217.37008s27.45689,4.07641,41.18534-.0535c0,0,3.3214,8.70919,2.49345,14.337-8.72228,5.87389-14.74893,11.07372-30.06587,6.89031-3.1-.84524-12.525-4.66487-14.30608-7.0187C273.37306,228.48659,275.20223,220.184,276.36713,217.37008Zm24.39543,4.943c-9.98345,1.3588-21.22807-2.67481-21.22807-2.67481v5.85248s8.52011,3.627,21.22807,2.28964Z" fill="#ea9983"/>
    <path d="M279.8907,304.33355c6.07479-.23538,12.10144-.25678,17.79114-.14979-16.684.321-30.48947,1.75468-34.18633,2.18265A73.84623,73.84623,0,0,1,279.8907,304.33355Z" fill="#ece1d1"/>
    <path d="M286.89933,160.204a50.75972,50.75972,0,0,0,7.19155,15.08594,118.789,118.789,0,0,1-3.67761-34.75115c.48137-8.92318.38509-20.12529,4.20711-28.83447,4.467-.11769,8.64526-.0428,12.53467.17118,4.00493,18.85208.08664,34.99724-1.11676,53.23946,4.25524-7.58577,7.00863-18.91627,8.33719-27.77525.91459-6.13067,1.51148-18.29571-.32733-24.93994,4.58257.46007,8.703,1.11272,12.34213,1.84027l-.12516.642c3.80276,13.64154,1.40558,25.71029-1.03011,38.04652a19.6787,19.6787,0,0,0-5.94964,2.08636c-4.62107,2.26824-6.40211,9.08366-8.36607,13.54524,2.2624-3.33816,7.94247-7.59646,13.33373-10.57085-.34658,1.86167-.68354,3.72334-.97235,5.6171a22.05986,22.05986,0,0,0-15.7598,16.22006,36.282,36.282,0,0,0-15.89457.13909,22.05563,22.05563,0,0,0-21.49763-17.1081c-.13478,0-.26957,0-.40435.0107a98.11821,98.11821,0,0,1-2.29128-11.21281v-.0107c8.66452-.06419,17.0691,7.06151,21.05478,14.57238.06739.19258.11552.28888.1444.26748-.04813-.08559-.09627-.18189-.1444-.26748-.29845-.86664-.97236-3.69124-1.59813-6.013Z" fill="#c2b69c"/>
    <path d="M288.48783,166.217c.04813.08559.09627.18189.1444.26748C288.60335,166.50586,288.55522,166.40956,288.48783,166.217Z" fill="#202020"/>
    <circle cx="280.43945" cy="187.97925" r="7.75956" fill="#202020"/>
    <path d="M284.00153,113.27711c-.85682,14.64726-1.57887,32.00144,2.8978,46.92689h-.00963a26.72607,26.72607,0,0,0-.94347-2.953c-1.31893-2.93159-1.67514-5.22123-4.47666-6.93311-3.48506-2.13985-10.0701-2.172-14.20981.08559-1.7329-12.7107-1.56924-27.83944,4.01456-36.677q6.61392-.96293,12.64057-1.45509Z" fill="#c2b69c"/>
    <path d="M283.91489,112.27138c3.73537-.31028,7.30707-.49217,10.70549-.56706-3.822,8.70918-3.72574,19.91129-4.20711,28.83447a118.789,118.789,0,0,0,3.67761,34.75115,50.75972,50.75972,0,0,1-7.19155-15.08594c-4.47667-14.92545-3.75462-32.27963-2.8978-46.92689Z" fill="#231f20"/>
    <path d="M268.107,162.95371a16.07015,16.07015,0,0,1,1.61737-.0856c.13478-.0107.26957-.0107.40435-.0107a22.05563,22.05563,0,0,1,21.49763,17.1081,21.58466,21.58466,0,0,1,.568,4.95375,21.95265,21.95265,0,0,1-1.7329,8.5808c-.1059.24608-.2118.48146-.3177.72755-.00963,0-.00963.01069-.00963.02139a22.06407,22.06407,0,1,1-26.25348-30.48215A21.24526,21.24526,0,0,1,268.107,162.95371Zm20.092,25.02554a7.75956,7.75956,0,1,0-7.75956,7.75695A7.76192,7.76192,0,0,0,288.199,187.97925Z" fill="#fff"/>
    <path d="M265.33431,151.80509a8.47681,8.47681,0,0,1,1.92545-1.3909v-.0107c4.13971-2.25754,10.72475-2.22544,14.20981-.08559,2.80152,1.71188,3.15773,4.00152,4.47666,6.93311a26.72607,26.72607,0,0,1,.94347,2.953c.62577,2.32174,1.29968,5.14634,1.59813,6.013-3.98568-7.51087-12.39026-14.63657-21.05478-14.57238A15.39991,15.39991,0,0,0,265.33431,151.80509Z" fill="#202020"/>
    <path d="M268.107,162.95371c-4.14934-6.013-6.1133-14.32629-7.076-20.81a101.99,101.99,0,0,1-.61614-13.27776,71.11319,71.11319,0,0,1,1.1649-13.50245c3.331-.642,6.56578-1.17692,9.69463-1.637-5.5838,8.83758-5.74746,23.96632-4.01456,36.677v.0107a8.47681,8.47681,0,0,0-1.92545,1.3909,15.39991,15.39991,0,0,1,2.09874-.16049v.0107a98.11821,98.11821,0,0,0,2.29128,11.21281A16.07015,16.07015,0,0,0,268.107,162.95371Z" fill="#231f20"/>
    <path d="M260.41479,128.86591a101.99,101.99,0,0,0,.61614,13.27776c.96273,6.48375,2.92669,14.79706,7.076,20.81a21.24526,21.24526,0,0,0-4.22636.81314v-.0107a24.61357,24.61357,0,0,0-17.77189,38.62428,24.25236,24.25236,0,0,0,3.90866,4.35459c-.35621.25679-.71242.51357-1.07825.77035-.414.29958-.82794.60986-1.24192.94153-7.48036,3.734-20.6408,11.22351-25.4833,19.56893a62.15081,62.15081,0,0,0-5.31424,12.34693c-1.99284-.18189-3.90866-.38518-5.786-.55636a38.64013,38.64013,0,0,1-2.8978-8.40961c-2.73414-13.10658,1.39595-36.50583,4.55368-49.03465.3177-1.26251.645-2.54642.99161-3.841l-.00963-.0107c-.03851-.04279-.077-.09629-.11553-.13909,5.218-13.40615,9.04961-31.092,7.49963-44.26278,2.20463,2.204,4.91952,3.948,6.14218,6.78332,1.74253-5.10354-1.25155-14.72216-3.12886-19.494,6.12293,2.13985,12.7561,2.38594,17.60823,7.74626-1.15527-17.19369-12.68871-49.07745-30.62426-55.76447,3.71612-8.91248,7.9521-14.2621,12.36138-11.919C235.75943,67.9765,245.637,87.70591,249.95,99.41088c2.28166,6.21626,4.33226,12.17575,5.95926,17.0974v.0107q2.88817-.62591,5.67045-1.15552A71.11319,71.11319,0,0,0,260.41479,128.86591Z" fill="#c2b69c"/>
    <path d="M241.6513,188.24673a24.60843,24.60843,0,0,1,22.2293-24.49058v.0107A22.05672,22.05672,0,1,0,290.13408,194.249a24.618,24.618,0,0,1-40.11671,12.486,24.555,24.555,0,0,1-8.36607-18.48829Z" fill="#807868"/>
    <path d="M258.25829,380.22331l-.02888.12839c.00962-.0321,0-.0428.00962-.0749v-.0107C258.24866,380.25541,258.24866,380.234,258.25829,380.22331Z" fill="#ece1d1"/>
    <path d="M257.26668,287.43944c-2.24314.749-4.43816.50287-6.51764,2.55712-3.745,3.68054-5.449,21.2594-12.19771,9.84331-2.686-4.54718,4.17822-12.94609,8.058-16.42335a7.6279,7.6279,0,0,1,3.06146-1.73327c2.686,1.93656,5.33349,3.71264,7.8462,5.264Z" fill="#231f20"/>
    <path d="M253.60833,520.8542c.14441,4.2797-.66428,7.757-1.79067,7.82115-1.12638.0428-2.14687-3.39166-2.28165-7.67136s.6739-7.77835,1.79066-7.82115C252.45306,513.14005,253.47355,516.57451,253.60833,520.8542Z" fill="#231f20"/>
    <path d="M252.59747,498.98494c.82794,4.94306-.04814,9.27625-1.97358,9.69352-1.92545.38517-4.159-3.29537-4.98692-8.23842-.83757-4.95375.05777-9.27625,1.97359-9.68282C249.536,490.36135,251.76953,494.04189,252.59747,498.98494Z" fill="#231f20"/>
    <path d="M250.69128,377.04563c2.44532.79175,3.22512,6.09857,1.7329,11.86547-1.4826,5.77759-4.67884,9.8326-7.12416,9.04086-2.44532-.781-3.22512-6.08787-1.7329-11.86547C245.04971,380.3196,248.246,376.27529,250.69128,377.04563Z" fill="#231f20"/>
    <path d="M248.5444,320.31823a30.06231,30.06231,0,0,1,8.32757-1.55139c-3.24438,3.28466-7.12416,7.53226-9.58874,11.87616C247.5528,327.32623,247.93789,323.93457,248.5444,320.31823Z" fill="#c2b69c"/>
    <path d="M247.6972,208.4469c.414-.33167.82795-.642,1.24192-.94153.36583-.25678.722-.51356,1.07825-.77035a24.618,24.618,0,0,0,40.11671-12.486c0-.0107,0-.02139.00963-.02139.1059-.24609.2118-.48147.3177-.72755a21.95265,21.95265,0,0,0,1.7329-8.5808,21.58466,21.58466,0,0,0-.568-4.95375,36.282,36.282,0,0,1,15.89457-.13909,22.04427,22.04427,0,0,0,.645,12.38973l-.00963.0107a24.62543,24.62543,0,0,0,38.18164,17.51466,78.04537,78.04537,0,0,1,6.2192,5.6599h.00962a67.25409,67.25409,0,0,1,9.79091,12.45393c2.80153,4.62207,5.17946,8.81618,6.39249,13.43825a26.85319,26.85319,0,0,1,.57763,10.61365c-.94347,6.85822-5.31424,13.67364-10.12786,19.922-1.704,1.59419-3.41767,3.13488-5.13132,4.64347-.75092.66336-1.51147,1.316-2.2624,1.96867-.51987.44936-1.02048.87733-1.55,1.3053l-.00963.0107c-1.03974.85594-2.10837,1.66908-3.19624,2.47153a79.0753,79.0753,0,0,1-8.45272,5.371c-23.69264,13.06378-54.4228,14.52958-77.47041,1.4872-1.1649-.66336-2.37793-1.36951-3.61022-2.13985-2.51271-1.55139-5.1602-3.32747-7.8462-5.264-1.12639-.81315-2.25278-1.64769-3.38879-2.51433-.06739-.05349-.12515-.09629-.19254-.14979q-1.94952-1.47649-3.899-3.07068a159.32026,159.32026,0,0,1-15.14365-13.98391c0-.0107-.00963-.0107-.00963-.0214-3.5717-6.65493-5.12169-13.43826-3.09034-21.07752a31.54167,31.54167,0,0,1,1.473-4.269A72.61,72.61,0,0,1,247.6972,208.4469Zm62.914,61.75606c7.11453-2.62132,11.21573-9.961,18.59983-20.26438-13.96913,15.47111-30.72053,25.92428-46.58622,14.1765-6.45026-4.77186-7.69217-13.695-12.64057-18.50969-8.03875-7.81045-14.67192,2.40733-13.14119,11.50169,5.81486-12.45393,10.57071-9.66142,15.34583-.46007,4.64995,8.94457,6.08441,11.72637,15.29768,14.94685C294.89957,274.19377,302.69763,273.12385,310.61123,270.203Zm9.43469-38.54939c.82795-5.6278-2.49345-14.337-2.49345-14.337-13.72845,4.12991-41.18534.0535-41.18534.0535-1.1649,2.8139-2.99407,11.11651-.69316,14.1551,1.781,2.35383,11.20611,6.17346,14.30608,7.0187C305.297,242.72729,311.32364,237.52746,320.04592,231.65357Z" fill="#ece1d1"/>
    <path d="M247.28323,330.643c-.09627,1.102-.17329,2.204-.24068,3.29537-.568.31027-1.12639.65265-1.68477,1.02712A20.7552,20.7552,0,0,1,247.28323,330.643Z" fill="#ece1d1"/>
    <path d="M246.36865,321.22766a15.85959,15.85959,0,0,0-1.95433,1.13412c4.75585-9.49023,11.29275-13.88762,19.08119-15.99537,3.69686-.428,17.50232-1.86167,34.18633-2.18265,16.65513.321,30.44134,1.75468,34.16708,2.17195a27.80123,27.80123,0,0,1,16.90544,12.19714c.04813.80244.12515,1.71188.22142,2.67481a17.76131,17.76131,0,0,0-2.16613-.90943,30.06224,30.06224,0,0,0-8.32756-1.55139,61.31111,61.31111,0,0,1,9.59836,11.87616c.08665,1.102.17329,2.204.24068,3.29537-6.7872-3.69124-14.19055-2.26824-15.06663,7.86394,0-.0214-.01926,2.8674.01925,3.13488.35621,11.20211.645,22.40422,3.822,35.28612a.06994.06994,0,0,1,.00963.04279c13.33372,34.58,1.44408,82.73728-38.00835,81.34638l-.8472.0107-1.99284-.0107c-39.45244,1.3909-51.34208-46.75571-38.018-81.33568-.00962.0321,0,.0428-.00962.0749l.02888-.12839c3.177-12.8819,3.46581-24.084,3.822-35.28612.03851-.26748.01926-3.15628.01926-3.13488-.87608-10.13218-8.2698-11.55518-15.057-7.86394.06739-1.09133.14441-2.19335.24068-3.29537,2.46458-4.3439,6.34436-8.5915,9.58874-11.87616a30.06231,30.06231,0,0,0-8.32757,1.55139A18.55821,18.55821,0,0,0,246.36865,321.22766Z" fill="#ece1d1"/>
    <path d="M246.85963,336.89136a40.97468,40.97468,0,0,0-4.65958,2.8781c.65465-1.93657,1.2708-3.91593,1.93508-6.013a86.13851,86.13851,0,0,0,2.24314-12.51812l-.00962-.0107a18.55821,18.55821,0,0,1,2.17575-.90943c-.60651,3.61634-.9916,7.008-1.26117,10.32477a20.7552,20.7552,0,0,0-1.92545,4.32249c.55838-.37447,1.11676-.71685,1.68477-1.02712C246.97516,334.9227,246.9174,335.907,246.85963,336.89136Z" fill="#807868"/>
    <path d="M245.02083,506.80609c1.64626,5.36033,1.45371,10.282-.43322,10.99883-1.88694.72755-4.75586-3.06-6.40212-8.40961-1.63663-5.371-1.43446-10.29267.45248-11.00952S243.3842,501.43507,245.02083,506.80609Z" fill="#231f20"/>
    <path d="M243.05687,373.62187q.69316-4.59,1.42484-9.13715c.73167-4.51509,1.18415-8.6022,1.50185-12.44323,2.73413-.98433,5.35274.44937,5.19871,5.84179-.154,5.40312-3.80276,12.15434-8.08689,15.74929Z" fill="#231f20"/>
    <path d="M350.054,397.952c2.44532-.781,3.22513-6.08787,1.73291-11.86547-1.4826-5.76689-4.67884-9.8112-7.12416-9.04086-2.44532.79175-3.22513,6.09857-1.7329,11.86547C344.41247,394.68869,347.60872,398.7437,350.054,397.952Zm20.40976,49.34492c-2.06023-5.03934-5.54529-8.30261-7.75956-7.30758-2.20464,1.00573-2.33942,5.89528-.28882,10.91323,2.07949,5.02865,5.55492,8.31331,7.75956,7.29689C372.40849,457.21509,372.524,452.32553,370.46379,447.29688Zm-5.94964,54.0419c1.8388-.68475,1.77141-5.00725-.154-9.61862-1.91583-4.64348-4.97729-7.83185-6.82572-7.1578-1.8388.68475-1.76178,4.99655.16366,9.61862C359.62351,498.81376,362.66572,502.01283,364.51415,501.33878Zm3.75463-4.56858c1.45371,5.42452,4.236,9.49023,6.21919,9.09436,1.97359-.39587,2.39719-5.11424.94347-10.52806-1.46334-5.41382-4.25524-9.47953-6.22882-9.08366C367.21941,486.64871,366.80543,491.36708,368.26878,496.7702Zm.61614-56.8344c2.21426,4.21551,5.32386,6.85822,6.95087,5.89529,1.59812-.96293,1.12638-5.14634-1.10714-9.37254-2.22389-4.22621-5.33349-6.85822-6.95086-5.89529C366.17,431.5155,366.67065,435.731,368.88492,439.9358Zm-118.261,68.74266c1.92544-.41727,2.80152-4.75046,1.97358-9.69352s-3.06146-8.62359-4.98691-8.22772c-1.91582.40657-2.81116,4.72907-1.97359,9.68282C246.46492,505.38309,248.69844,509.06363,250.62389,508.67846Zm-5.60306-1.87237c-1.63663-5.371-4.49592-9.13715-6.38286-8.4203s-2.08911,5.6385-.45248,11.00952c1.64626,5.34962,4.51518,9.13716,6.40212,8.40961C246.47454,517.08807,246.66709,512.16642,245.02083,506.80609Zm-1.45371-120.7196c-1.49222,5.7776-.71242,11.08442,1.7329,11.86547,2.44532.79174,5.64156-3.26327,7.12416-9.04086,1.49222-5.7669.71242-11.07372-1.7329-11.86547C248.246,376.27529,245.04971,380.3196,243.56712,386.08649Zm-22.08489,66.26044c1.80992.535,4.17822-2.78181,5.295-7.41458,1.11676-4.62207.57763-8.82688-1.22266-9.36184s-4.1686,2.7818-5.295,7.41458C219.13318,447.62856,219.69156,451.80127,221.48223,452.34693Zm11.30238-8.88038c-2.38756-.40657-4.96766,3.60565-5.73784,8.99807-.77018,5.371.53913,10.07869,2.94594,10.496,2.38755.43867,4.958-3.58425,5.73783-8.97667C236.4911,448.61289,235.17216,443.90522,232.78461,443.46655Zm4.26487-30.80313c.79906-.87734,1.60774-1.73328,2.40681-2.56782a293.29033,293.29033,0,0,1,3.44655-35.468c.04813-.33168.09627-.674.14441-1.00573h.00962l.03851.0107c4.28413-3.59495,7.93285-10.34617,8.08689-15.74929.154-5.39242-2.46458-6.82612-5.19871-5.84179.44285-5.39242.61614-10.282.87607-15.15013.05777-.98433.11553-1.96866.18292-2.953,6.78721-3.69124,14.18093-2.26824,15.057,7.86394,0-.0214.01925,2.8674-.01926,3.13488-.3562,11.20211-.645,22.40422-3.822,35.28612-.00963.0107-.00963.0321-.01926.04279v.0107c-13.3241,34.58-1.43446,82.72658,38.018,81.33568l1.99284.0107.8472-.0107c39.45243,1.3909,51.34207-46.76641,38.00835-81.34638a.06994.06994,0,0,0-.00963-.04279c-3.177-12.8819-3.46581-24.084-3.822-35.28612-.03851-.26748-.01925-3.15628-.01925-3.13488.87608-10.13218,8.27943-11.55518,15.06663-7.86394.06739.98433.11553,1.96866.17329,2.953.25994,4.86816.43323,9.76841.87608,15.16083-2.73414-.995-5.35275.43867-5.19871,5.83109.154,5.40312,3.80276,12.15434,8.08688,15.74929l.03851-.0107h.00963c.01925.14979.03851.31028.06739.47077,1.46334,9.78981,2.69563,19.708,3.254,29.58342.13478,2.22544.22142,4.45088.27919,6.67633h-.00963c.75093.84524,1.55,1.71188,2.37793,2.61061,3.09034,3.29537,6.67168,6.91172,10.33966,10.73135,9.96419,10.35687,20.583,22.20093,23.683,33.44584,4.69809,17.0974-1.11676,33.54214-5.02542,54.92993-.02888.0107-.04814.0107-.077.0214q-.37546.41727.05777.0642c.00962-.0321.00962-.0535.01925-.0856,11.45642-3.01718,15.4421-18.78787,28.54477-15.32132,11.389,3.01719,10.51295,11.92966,6.37323,19.05536-2.97481-4.84676-5.85336-8.31331-11.08095-9.9289,3.30214,2.8888,7.6344,6.87961,10.29152,11.19141a28.41,28.41,0,0,1-3.08072,3.93732c-.53912.57776-1.0975,1.13412-1.66551,1.64769-4.55368-6.05578-9.36731-8.63429-16.21227-10.26058a71.93581,71.93581,0,0,1,14.43123,11.82267c-13.15081,10.77414-31.69288,10.87043-31.69288,10.87043-10.87878-1.87237-18.41691-19.14095-24.0681-27.99993-5.69933-8.92317-13.12193-17.73935-23.00911-22.45771-10.01233-4.79327-26.98516-6.687-38.47045-7.98164-22.38334,2.02215-37.941,5.6171-41.61857,19.19445-3.2155,11.84406,8.95334,23.549,7.96173,43.899-6.28659,6.44095-17.29053,8.06724-24.52058,9.66142a63.77551,63.77551,0,0,1-19.6492.94154,69.67438,69.67438,0,0,1,5.61268-15.37482c-4.47667,4.45089-7.16267,8.70919-8.18316,14.979a23.76868,23.76868,0,0,1-7.14341-2.38594,62.21991,62.21991,0,0,1,2.82078-12.58231c-3.05183,3.48795-3.98568,7.18989-4.2071,11.69428a9.12007,9.12007,0,0,1-1.02049-.83455c-4.313-4.01221-3.01333-16.33774,6.03628-20.86353,8.2698-4.11921,18.2725,1.4979,26.83112-.77034-15.17253-9.86471-27.51465-27.74315-30.70127-46.72361-2.97482-17.73935,5.08318-35.92807,16.09675-51.23869A147.62325,147.62325,0,0,1,237.04948,412.66342Zm147.67225,60.36515c2.763-1.04852,3.48506-6.19486,1.60775-11.53379-1.87731-5.30682-5.64156-8.76268-8.41421-7.72485-2.77264,1.04852-3.49469,6.20556-1.60775,11.52309C378.18483,470.61054,381.94909,474.0664,384.72173,473.02857Zm-10.58034,45.88907c.97235-.56706.00963-4.01222-2.14687-7.71416-2.16613-3.69124-4.70772-6.227-5.67045-5.6706-.982.56706-.01925,4.01222,2.13725,7.70346C370.61782,516.93828,373.14979,519.4633,374.14139,518.91764Zm-122.32373,9.75771c1.12639-.06419,1.93508-3.54145,1.79067-7.82115-.13478-4.27969-1.15527-7.71415-2.28166-7.67136-1.11676.0428-1.92544,3.54145-1.79066,7.82115S250.69128,528.71815,251.81766,528.67535ZM225.7856,471.33809c.5295-5.6171-1.43446-10.44246-4.38039-10.78484-2.94594-.33168-5.74746,3.948-6.26734,9.56513-.51024,5.6171,1.44409,10.43176,4.3804,10.77414C222.4642,481.22419,225.26573,476.9445,225.7856,471.33809Z" fill="#c2b69c"/>
    <path d="M237.10724,407.75247c.22143-12.23994,1.08788-23.28156,4.68847-34.78325.42359.59916.79906,1.15552,1.10713,1.65838a293.29033,293.29033,0,0,0-3.44655,35.468c-.79907.83454-1.60775,1.69048-2.40681,2.56782Q237.06391,410.1598,237.10724,407.75247Z" fill="#807868"/>
    <path d="M247.6972,208.4469a72.61,72.61,0,0,0-22.27743,28.14972,31.54167,31.54167,0,0,0-1.473,4.269l-2.763-.107c-1.473-.11769-2.8978-.25678-4.28412-.39587a62.15081,62.15081,0,0,1,5.31424-12.34693C227.0564,219.67041,240.21684,212.18094,247.6972,208.4469Z" fill="#231f20"/>
    <path d="M232.78461,443.46655c2.38755.43867,3.70649,5.14634,2.94593,10.51736-.7798,5.39242-3.35028,9.41534-5.73783,8.97667-2.40681-.41727-3.71612-5.12494-2.94594-10.496C227.817,447.0722,230.39705,443.06,232.78461,443.46655Z" fill="#231f20"/>
    <path d="M241.7572,129.14409c-4.85213-5.36032-11.4853-5.60641-17.60823-7.74626,1.87731,4.77187,4.87139,14.39049,3.12886,19.494-1.22266-2.8353-3.93755-4.57928-6.14218-6.78332,1.55,13.17077-2.28166,30.85663-7.49963,44.26278-11.21573-13.30986-16.65512-22.22233-15.84643-42.01594.53912-13.13867,5.91112-45.16152,13.34335-62.97576C229.06849,80.06664,240.60193,111.9504,241.7572,129.14409Z" fill="#ece1d1"/>
    <path d="M232.90013,413.86174c1.40558-2.05426,2.83041-4.07641,4.20711-6.10927q-.04332,2.40733-.05776,4.91095a147.62325,147.62325,0,0,0-11.10021,13.57735c-1.91582-.69545-3.8509-1.5086-5.77635-2.42873a32.17474,32.17474,0,0,0,4.25524-2.23614,34.03818,34.03818,0,0,0,5.55492-4.3118A23.53487,23.53487,0,0,0,232.90013,413.86174Z" fill="#a3967e"/>
    <path d="M233.25634,405.40933a34.85033,34.85033,0,0,1-3.27326,11.85477,34.03818,34.03818,0,0,1-5.55492,4.3118A46.09471,46.09471,0,0,0,233.25634,405.40933Z" fill="#807868"/>
    <path d="M231.13835,293.538c1.18415,1.3909-.02888,4.50438-2.70526,6.93311-2.66674,2.42873-5.786,3.274-6.96049,1.86167-1.18415-1.4016.02888-4.50438,2.69563-6.92241C226.8446,292.971,229.96383,292.13641,231.13835,293.538Z" fill="#231f20"/>
    <path d="M229.50172,284.85022l-.36584-.63125c4.19748-2.9316,8.57788-5.692,13.05454-8.27052q1.94952,1.58884,3.899,3.07068c-3.254,2.21475-7.35522,7.1257-11.09059,8.24912C232.99641,287.86741,231.10947,287.39664,229.50172,284.85022Z" fill="#231f20"/>
    <path d="M225.55455,435.57051c1.80029.535,2.33942,4.73977,1.22266,9.36184-1.11676,4.63277-3.48506,7.94954-5.295,7.41458-1.79067-.54566-2.349-4.71837-1.22266-9.36184C221.386,438.35231,223.75426,435.03555,225.55455,435.57051Z" fill="#231f20"/>
    <path d="M221.40521,460.55325c2.94593.34238,4.90989,5.16774,4.38039,10.78484-.51987,5.60641-3.3214,9.8861-6.26733,9.55443-2.93631-.34238-4.89064-5.157-4.3804-10.77414C215.65775,464.50127,218.45927,460.22157,221.40521,460.55325Z" fill="#231f20"/>
    <path d="M223.9468,240.86562c-2.03135,7.63926-.48136,14.42259,3.09034,21.07752a103.69238,103.69238,0,0,1-11.71635-14.62587c.02888-.27818.05777-.52427.09627-.75965a44.46861,44.46861,0,0,1,1.30931-5.6171c2.73414-.1284,4.45741-.18189,4.45741-.18189Z" fill="#231f20"/>
    <path d="M225.41977,534.96651a69.67438,69.67438,0,0,0-5.61268,15.37482c-.86646-.107-1.73291-.23539-2.57048-.39587C218.2571,543.6757,220.9431,539.4174,225.41977,534.96651Z" fill="#807868"/>
    <path d="M219.30647,359.83054c.66428,4.40809-.58726,7.61787-2.7919,7.1792-2.21427-.44937-4.54406-4.376-5.20834-8.78408s.58726-7.61787,2.7919-7.1792C216.3124,351.49583,218.64219,355.42245,219.30647,359.83054Z" fill="#231f20"/>
    <path d="M218.54592,323.96667c1.72327,1.13412,1.68476,5.478-.1059,9.747-1.781,4.269-4.63071,6.81542-6.36361,5.692-1.7329-1.11272-1.68477-5.478.1059-9.747C213.96335,325.41107,216.813,322.854,218.54592,323.96667Z" fill="#231f20"/>
    <path d="M224.23562,407.2603c-2.05061,8.5166-4.29375,13.71644-6.46951,17.43978h-.00963a15.35746,15.35746,0,0,1-5.218.781C217.81425,419.60723,224.23562,407.2603,224.23562,407.2603Z" fill="#807868"/>
    <path d="M217.86238,307.58612c2.06986,1.35881,1.74253,5.38172-.74129,8.99807s-6.18069,5.44592-8.25055,4.08711c-2.06986-1.3481-1.74253-5.38172.7413-8.98737C212.09567,308.06759,215.79253,306.238,217.86238,307.58612Z" fill="#231f20"/>
    <path d="M216.89966,240.36276c1.38632.13909,2.81115.27818,4.28412.39587,0,0-1.72327.05349-4.45741.18189C216.77451,240.74793,216.8419,240.55534,216.89966,240.36276Z" fill="#4c4a4d"/>
    <path d="M216.89966,240.36276c-.05776.19258-.12515.38517-.17329.57776-1.41521.06419-3.1.13909-4.9484.24608q-.34659-.69011-.66428-1.3802C212.991,239.97758,214.90682,240.18087,216.89966,240.36276Z" fill="#4c4a4d"/>
    <path d="M216.1006,374.93788c.82794,4.1941-.38509,7.31828-2.71488,6.95451-2.3298-.35308-4.89064-4.055-5.71859-8.27052-.82794-4.2048.38509-7.31828,2.71489-6.94381C212.71181,367.03114,215.27266,370.73308,216.1006,374.93788Z" fill="#231f20"/>
    <path d="M215.32079,247.31727a63.966,63.966,0,0,1-3.54282-6.13067c1.84843-.107,3.53319-.18189,4.9484-.24608a44.46861,44.46861,0,0,0-1.30931,5.6171C215.37856,246.793,215.34967,247.03909,215.32079,247.31727Z" fill="#c2b69c"/>
    <path d="M214.36769,246.55762c-17.15574,8.42031-29.34383,24.39428-30.451,25.88148C194.00608,256.67911,200.129,248.16251,214.36769,246.55762Z" fill="#4c4a4d"/>
    <path d="M212.914,534.97721a62.21991,62.21991,0,0,0-2.82078,12.58231,13.45718,13.45718,0,0,1-1.38632-.888C208.9283,542.1671,209.86215,538.46516,212.914,534.97721Z" fill="#807868"/>
    <path d="M208.24477,234.31768c-18.22437-4.376-33.95528-2.58922-51.96785.14979C170.62151,230.39106,197.25046,225.5657,208.24477,234.31768Z" fill="#4c4a4d"/>
    <path d="M203.12308,323.5173c2.51271,1.4123,3.023,7.31829,1.136,13.19217-1.87731,5.87389-5.43939,9.50093-7.9521,8.08863-2.50308-1.4123-3.01333-7.30758-1.136-13.19217C197.05791,325.72135,200.61037,322.1157,203.12308,323.5173Z" fill="#231f20"/>
    <path d="M205.74169,399.161a46.79064,46.79064,0,0,0-1.49223,14.02672c-.75092-.60986-1.53073-1.19832-2.33942-1.744-.645-7.42528.154-16.10237,2.91706-22.02975,1.14564.66335,2.28165,1.33741,3.41767,2.02216A66.34626,66.34626,0,0,0,205.74169,399.161Z" fill="#a3967e"/>
    <path d="M204.8271,389.414c-2.763,5.92738-3.56208,14.60447-2.91706,22.02975-9.67537-6.69773-23.25941-9.65072-34.29223-5.23193-27.77459,11.10582-19.83212,49.56961-39.74125,69.35251-3.83164-2.93159-4.65-10.94533-3.99531-19.922,4.01456.86664,8.34682,1.51929,10.07972.09629v.0321l.04814-.0642c-.01925.0107-.02888.0214-.04814.0321.62578-4.46159-4.09157-7.82115-8.80892-10.23918a126.77714,126.77714,0,0,1,3.68723-15.84558c4.9484,2.42873,10.253,5.43521,11.29276,2.00076,1.36706-4.50439-2.28166-10.0573-6.33473-13.73784,2.08911-4.45088,3.899-8.4203,6.04591-12.07945,4.60182,3.30607,9.5791,7.53227,11.52381,3.88383,2.07948-3.91592-.23106-9.55443-3.50432-13.94112a43.85244,43.85244,0,0,1,4.32263-3.50935,75.62378,75.62378,0,0,1,8.73191-5.478,13.48206,13.48206,0,0,1,3.43693,3.68055c1.46334,2.25754,2.70525,8.4738,6.81608,7.53227,3.87978-.888,4.25524-9.43674,2.82078-16.02748a33.54656,33.54656,0,0,1,13.80547.16049,31.07136,31.07136,0,0,1,1.55,7.78905c.14441,3.12418-1.49222,6.55864.53913,9.03017,5.786-1.3802,8.14465-6.85822,9.7524-12.38973C201.38055,387.456,203.10382,388.41893,204.8271,389.414Z" fill="#c2b69c"/>
    <path d="M211.778,241.1866c-8.626.47077-20.91037,1.3802-26.83112,2.92089-9.28067,2.418-29.28607,11.83337-30.528,12.42183,27.996-17.99613,41.08907-18.15662,56.69483-16.72292Q211.43139,240.49649,211.778,241.1866Z" fill="#4c4a4d"/>
    <path d="M134.00911,455.70649l-.04814.0642v-.0321C133.98023,455.72789,133.98986,455.71719,134.00911,455.70649Z" fill="#c2b69c"/>
    <g>
      <path d="M199.638,386.568c-1.60775,5.53151-3.96643,11.00953-9.7524,12.38973-2.03135-2.47153-.39472-5.906-.53913-9.03017a31.07136,31.07136,0,0,0-1.55-7.78905A49.08478,49.08478,0,0,1,199.638,386.568Z" fill="#231f20"/>
      <path d="M173.991,381.978c1.43446,6.59074,1.059,15.13944-2.82078,16.02748-4.11083.94153-5.35274-5.27473-6.81608-7.53227a13.48206,13.48206,0,0,0-3.43693-3.68055A45.948,45.948,0,0,1,173.991,381.978Z" fill="#231f20"/>
      <path d="M147.86271,395.78c3.27326,4.38669,5.5838,10.0252,3.50432,13.94112-1.94471,3.64844-6.922-.57776-11.52381-3.88383A42.4182,42.4182,0,0,1,147.86271,395.78Z" fill="#231f20"/>
      <path d="M133.79731,417.91675c4.05307,3.68054,7.70179,9.23345,6.33473,13.73784-1.03975,3.43445-6.34436.428-11.29276-2.00076a44.81553,44.81553,0,0,1,2.35868-6.32326C132.1318,421.4475,132.979,419.65,133.79731,417.91675Z" fill="#231f20"/>
      <path d="M125.15205,445.49941c4.71735,2.418,9.4347,5.77759,8.80892,10.23918-1.7329,1.423-6.06516.77035-10.07972-.09629C124.13156,452.32553,124.57441,448.88037,125.15205,445.49941Z" fill="#231f20"/>
    </g>
    <path d="M233.39655,536.86951c-.84739-1.29354-1.94609-6.57319,2.93234-7.41009,4.59318-.78885,3.23588,2.48051,2.85188,4.99227-.35051,2.28825,2.7924,6.081.65255,7.51558-3.32158,2.22769-5.51054-3.13135-6.43677-5.09776" fill="#f9f9fa"/>
    <path d="M218.77388,525.45662c-.40122-1.91731,4.63342-7.81548,6.873-3.565,3.19993,6.07471-8.49874,8.08082-6.873,3.565" fill="#f9f9fa"/>
    <path d="M254.76059,533.9638c1.13155-1.96748,4.95407-2.29552,4.32977.78255-.64206,3.17008-4.53723,1.60285-4.65214-1.08662" fill="#f9f9fa"/>
    <path d="M381.25841,136.20889c-1.12668.74964-2.2556,1.49593-3.37876,2.25082-.38008.25545-.77172.57577-1.23453.30418-.473-.27758-.35954-.78078-.28257-1.2216.904-5.17763,1.72555-10.37224,2.77493-15.52038.33185-1.62805-.02425-1.639-1.34578-1.252-3.31751.97156-6.67812,1.797-9.99061,2.78442-2.72427.81209-4.55276,2.809-6.51241,5.72281,0-4.00678-.258-7.364.05954-10.66594.49557-5.15325.62545-10.33051,1.56751-15.46507a54.59272,54.59272,0,0,1,6.82111-17.3282A44.82142,44.82142,0,0,1,381.43178,72.2032c.53324-.40643,1.17258-.71553,1.38142-1.4368,1.75045,1.7166,2.01425,4.15863,2.78444,6.273a179.74753,179.74753,0,0,1,7.154,24.86913c1.12959,5.42348,2.07228,10.88255,3.12391,16.31892a105.78482,105.78482,0,0,1,2.09163,21.48539c-.07453,5.673-.14582,11.49886-2.43058,16.85325-1.84138,4.31537-3.72866,8.61263-6.70171,12.39351-2.07819,2.64288-3.95236,5.45772-6.16029,8.01456a1.41339,1.41339,0,0,1-.91166.58164c-1.47718-3.5092-1.62225-7.30106-2.27841-10.97912a68.42523,68.42523,0,0,1-.96606-12.13888c.00734-5.852,1.28979-11.47254,2.61193-17.10457a9.95028,9.95028,0,0,0,.13642-1.11576.58043.58043,0,0,0,.16353-.06575c.02757-.02223.02452-.08252.03522-.12571Z" fill="#ece1d1"/>
  </g>
</svg>
