<svg xmlns="http://www.w3.org/2000/svg" width="600" height="600" viewBox="0 0 600 600">
  <title>character-nigel-dungsworth-full</title>
  <g id="Background">
    <path d="M544.89584,516.8212c121.8216-119.26643,0-198.77739,24.6025-314.66125,14.6048-68.79225-2.737-177.38577-94.004-167.42186-88.51683-83.68319-306.68251,7.50322-335.39443,27.915C38.34933.53661-10.87377,193.85991,49.96348,313.90054c-67.1528,39.74673-87.06214,255.86451,72.21253,196.92329C142.08534,628.70626,540.272,628.70626,544.89584,516.8212Z" fill="#56786a"/>
    <g>
      <g>
        <path d="M323.19422,312.22637a6.45824,6.45824,0,0,1,.3193-1.26215,5.40043,5.40043,0,0,1,.447-.96764,13.8843,13.8843,0,0,1,2.817-3.21146c3.08658-2.71362,7.45746-5.22389,9.96221-7.22228a17.67273,17.67273,0,0,0,3.55489-4.24923c5.73323-8.96124,11.60838-26.99591,21.01713-40.19936l-.54636-.37865a.14121.14121,0,0,0-.0071-.09115,1.0618,1.0618,0,0,0-.25544-.45578c-2.31316-11.59772-8.77015-22.48023-13.79382-33.3417a11.93113,11.93113,0,0,0,1.65327-.25243,21.39227,21.39227,0,0,0,7.36522-3.24652,36.40308,36.40308,0,0,0,6.15188-5.72874c2.53312,9.90083,6.684,18.47642,10.6079,27.90746,1.90162,4.57878,4.09415,9.389,5.9461,14.108,1.97258,5.04858,2.38412,6.458-.53926,11.21908-5.30041,8.67375-9.85577,16.06432-15.6103,24.4646a45.99075,45.99075,0,0,0-6.44989,14.38847c-1.22044,4.8803.70247,11.42944-1.69584,16.12042a16.3402,16.3402,0,0,1-1.334,2.13162c-1.88743,2.62947-4.40636,5.28-5.50618,9.424l7.18074-9.72554a1.57788,1.57788,0,0,1,1.77389,1.22709c.69537,2.12461-5.96739,14.06592-10.019,13.75739a6.82651,6.82651,0,0,1-.82309-.13322,31.06019,31.06019,0,0,1-8.22378-3.527,16.67806,16.67806,0,0,1,.38316-4.712,9.20413,9.20413,0,0,0-2.24221,3.527,26.72183,26.72183,0,0,1-3.95934-3.25353c-.32639-.33657-.6386-.67315-.93661-1.02374a13.40246,13.40246,0,0,1,1.01467-4.91536c-.95081.97466-1.75971,2.02645-2.63956,3.04317a38.72849,38.72849,0,0,1-3.61166-4.80316c.8018-1.774,1.83066-3.513,2.45508-5.12572-1.01467,1.00972-2.34155,2.13162-3.42008,3.34469a9.9017,9.9017,0,0,1-.70956-2.04748A13.45845,13.45845,0,0,1,323.19422,312.22637Z" fill="#f8cca5"/>
        <path d="M346.709,220.847a50.53773,50.53773,0,0,1-6.44989.06311c-1.114-2.62246-2.19254-5.266-3.14335-7.9375l.24835-.09116c5.20106,1.739,18.58334-4.55775,23.41544-10.16729l.8089-.09816c1.00047,1.5917,2.92338,3.60413,3.74647,5.287-1.263,1.26916-2.36283,2.51027-3.45555,3.71632a36.40308,36.40308,0,0,1-6.15188,5.72874,21.39227,21.39227,0,0,1-7.36522,3.24652A11.93113,11.93113,0,0,1,346.709,220.847Z" fill="#caad83"/>
        <path d="M335.85275,209.2212q-.53217-1.73546-.9721-3.47792c.12772-8.4704,3.76066-17.17921,10.64338-26.1685l.07806-.12621a20.3773,20.3773,0,0,0,1.95128,1.11489c1.01467-1.63377,1.63908-3.73735,3.29236-4.84524l.38316-.10518c.75213,2.945,4.83919,18.231,10.35956,27.00293l-.8089.09816c-4.8321,5.60954-18.21438,11.90625-23.41544,10.16729l-.24835.09116Q336.43458,211.1004,335.85275,209.2212Z" fill="#e7d1af"/>
        <path d="M354.47867,321.65741l-7.18074,9.72554c1.09982-4.144,3.61875-6.79456,5.50618-9.424C353.15889,321.95892,353.81878,321.69948,354.47867,321.65741Z" fill="#b07e5c"/>
        <path d="M351.22889,175.613l-.38316.10518c-1.65328,1.10789-2.27769,3.21147-3.29236,4.84524a20.3773,20.3773,0,0,1-1.95128-1.11489c-3.193-2.03346-6.32217-4.96445-9.6571-6.88571l-.4896.18932a19.86383,19.86383,0,0,0-4.12253-6.85065l-.19868-.25243c.63151-.48382,1.27011-.97466,1.91581-1.45848,7.73419,5.65862,14.36147,8.72985,18.05118,10.92458C351.10117,175.1152,351.14374,175.2905,351.22889,175.613Z" fill="#af9674"/>
        <path d="M328.80683,325.64719c.6457.75028,1.20625,1.37434,1.56812,1.80908.02129.021.03548.04207.05677.06311.298.35059.61022.68717.93661,1.02374l-.03547.03506c2.04353,7.59391,6.70533,13.30863,14.844,16.85667.149,6.479-.39026,13.01413-.38316,19.48613.02128,14.9915-1.10692,30.09518-1.88743,44.87632-.83728,15.73476,5.421,29.00833,5.43522,44.43457,0,.4137,0,.83442-.0071,1.24812-4.825,2.08955-8.26636,4.44556-13.76544,5.25193a31.57273,31.57273,0,0,1-15.41871-1.21306c-.41154-3.79345-.84438-7.56587-1.334-11.38737-.83019-6.59822-2.84533-12.38306-2.70342-19.07243.27673-13.505,1.94419-28.244-.09224-41.69992-1.10691-7.28539-3.12916-14.28329-4.65471-21.49856-.19868-.94661-.43283-1.87919-.69537-2.79776-1.46169-5.16077-3.70389-9.94992-4.6547-15.20886a.00689.00689,0,0,0-.0071-.007,28.12269,28.12269,0,0,1-.41864-3.49194c-2.8879-8.18993-1.82356-21.82111-1.15658-27.83734,2.39831-.23139,4.68309-.55394,6.78338-.94661l.26254,1.59171,4.39927-.70821-.3264-1.97736,1.38364-.22438c2.2422-.61,4.32121-1.29721,6.25831-2.02645a13.45845,13.45845,0,0,0,.32639,4.78915,9.9017,9.9017,0,0,0,.70956,2.04748,17.504,17.504,0,0,0,.965,1.781A38.72849,38.72849,0,0,0,328.80683,325.64719Z" fill="#878248"/>
        <path d="M348.59642,537.16891c.28383.79235.4825,1.39537.56056,1.71091.6386,2.42613-1.412,14.087-5.13012,7.11009,0,0-.45411,5.11871-2.02933,6.91376-1.80938,2.04047-6.22993,1.26916-7.74129-.23841-.57474,1.32526-3.71809,9.5853-11.79287,3.59011-1.49007,3.56907-3.0582,3.548-6.73371,3.72333-4.76824.23139-3.98772-1.38135-7.45747-3.89863-2.54022,2.27888-3.5265,3.03616-6.81886,2.56637-2.00095-.28749-6.237-4.27728-4.9811-7.71312,3.01563,2.377,11.96316,2.01242,16.334,2.01943a72.12985,72.12985,0,0,0,14.89364-1.31123c8.47213-1.788,14.72334-9.09446,20.60558-15.3C348.41194,536.636,348.51128,536.90947,348.59642,537.16891Z" fill="#914826"/>
        <path d="M348.49709,536.13816c.04257.34358.078.68717.09933,1.03075-.08514-.25944-.18448-.53291-.29092-.82741C348.36936,536.27138,348.43323,536.20828,348.49709,536.13816Z" fill="#878248"/>
        <path d="M348.3055,536.3415c-5.88224,6.20556-12.13345,13.512-20.60558,15.3a72.12985,72.12985,0,0,1-14.89364,1.31123c-4.37089-.007-13.31842.35761-16.334-2.01943a2.61191,2.61191,0,0,1-.86566-1.10087c.02838-.007,0-.021,0-.007-2.69632-7.24331-.62441-18.04869,6.21573-23.09026,5.59133-4.123,13.39648-1.51458,20.51335-1.33928.298-3.40078.61022-6.76651.99338-10.41972,1.58941-15.293-.65989-30.32657-2.14286-45.33911-.34059-3.42883-.68118-6.78053-1.036-10.1182a31.57273,31.57273,0,0,0,15.41871,1.21306c5.49908-.80637,8.94044-3.16238,13.76544-5.25193-.1561,14.2903-3.22139,28.95925-3.90966,43.24254-.3264,6.78754-.68828,14.54974-.10644,20.93059.50379,5.48333,2.54022,10.86849,3.17883,16.485C348.43323,536.20828,348.36936,536.27138,348.3055,536.3415Z" fill="#743016"/>
        <path d="M329.47381,273.78a118.48316,118.48316,0,0,1,6.71953,12.25684l-.0071.007s-4.14382,5.36413-12.80754,9.9359c-.19867-.71521-.38316-1.42342-.56055-2.13162a38.42055,38.42055,0,0,1-3.96643,1.55664c-.63861.22439-1.23464.41371-1.71.55395a16.85119,16.85119,0,0,0,.35478,2.349l.12062.2945c-.97919.37865-2.00095.74327-3.06529,1.07984l-1.38364.22438-.26254-1.59872-4.40636.7082.35478,2.14565a67.15293,67.15293,0,0,1-11.58,1.2341v-.11219c1.114-10.74928,1.44041-22.97106-.00709-33.65022-1.40493-10.27949-5.49908-19.92088-7.06721-30.17933-1.75261-11.48553.79471-23.00612,6.30088-33.92369.87276-.84844,1.71-1.73194,2.526-2.63648l1.08563,2.04047-.05677-3.20445c3.95225-4.48062,7.62066-9.19263,12.914-12.31294a68.4648,68.4648,0,0,1,17.51192-7.068,17.70976,17.70976,0,0,1-2.98725-6.56316c3.64,2.61545,7.422,5.01352,11.1117,7.60794-.67409-2.07553-1.68166-5.98819-3.15045-9.6414l.4896-.18932c3.33493,1.92126,6.46408,4.85225,9.6571,6.88571l-.07806.12621c-6.88272,8.98929-10.51566,17.6981-10.64338,26.1685a50.56168,50.56168,0,0,1-1.41912-8.63869,46.83054,46.83054,0,0,0,.41864,15.72074c-2.90209,5.91806-4.99529,13.71532-6.17316,19.68948C326.02536,241.02028,323.40708,260.0296,329.47381,273.78Zm-2.15-64.02588a11.20263,11.20263,0,0,1,1.17077-2.60143c-2.16415-.98167-8.55728-1.80908-10.99107-1.81609a28.88621,28.88621,0,0,0-7.69871,1.164c0,.04909-.46121,1.10087-.95081,2.2929-.36187.89753-.745,1.87219-.94371,2.55935a104.56238,104.56238,0,0,0-2.34864,10.9947c-.3264,1.8231-1.34107,9.51518-.9579,11.05079,1.47588.16829,3.35621.28749,5.31459.37164,2.001.09115,4.08706.14725,5.91772.18932,3.07949.05609,5.42813.05609,5.42813.05609A160.57175,160.57175,0,0,1,327.32385,209.75411Zm-19.05166-8.53352a2.74618,2.74618,0,1,0-2.746,2.71362A2.72754,2.72754,0,0,0,308.27219,201.22059Zm-.70955,90.45383a2.74619,2.74619,0,1,0-2.746,2.71361A2.72755,2.72755,0,0,0,307.56264,291.67442Zm-3.5478-34.35843a2.74618,2.74618,0,1,0-2.746,2.71361A2.72756,2.72756,0,0,0,304.01484,257.316ZM300.467,221.55517a2.74619,2.74619,0,1,0-2.746,2.71362A2.72755,2.72755,0,0,0,300.467,221.55517Z" fill="#e7d1af"/>
        <path d="M335.32767,331.79665c.61022.42072,1.23464.81339,1.859,1.185a31.06019,31.06019,0,0,0,8.22378,3.527,63.85534,63.85534,0,0,1,.76633,8.92618c-8.13864-3.548-12.80044-9.26276-14.844-16.85667l.03547-.03506A26.72183,26.72183,0,0,0,335.32767,331.79665Z" fill="#6e683c"/>
        <path d="M347.823,66.68981a66.36034,66.36034,0,0,1-10.33827,11.59772c2.12868-1.50055,3.81743-.75027,6.237-.65912-6.01,3.98277-9.62161,8.91917-10.9272,15.83293a8.35256,8.35256,0,0,0-1.81647-.13323c-5.18688.16127-7.94,3.78644-9.42294,8.46339l-.15611-.04908c-1.64617-1.34629-4.3354-2.69258-6.74081-2.45417l-.369-.16829a52.94926,52.94926,0,0,1,2.75309-5.18882c2.80276-4.60684,4.9811-6.94181,4.71147-12.5233-.19158-3.9407-1.09272-9.80968-3.93095-12.80378.816-.89752,1.66036-1.774,2.526-2.60142,4.38507-4.2352,9.45132-7.53081,15.26261-8.30913a20.62812,20.62812,0,0,1,8.44375.65912c-2.299,1.45147-6.1093,1.13593-8.43666,3.34469C340.83385,61.92871,343.87076,63.52743,347.823,66.68981Z" fill="#c48b37"/>
        <path d="M337.56988,328.26965a16.67806,16.67806,0,0,0-.38316,4.712c-.62441-.37163-1.24883-.7643-1.859-1.185A9.20413,9.20413,0,0,1,337.56988,328.26965Z" fill="#b07e5c"/>
        <path d="M328.49462,303.64378a.75762.75762,0,0,0,.19158-.1753.49594.49594,0,0,0,.12772-.43474c.01419-.014,0-.02805-.02128-.04909a.02626.02626,0,0,0,.02128-.007h-.03547a1.21923,1.21923,0,0,0-.35478-.20334q.13836.15777.21286.25243-.01063.01052,0,.04207C328.296,303.26513,328.38819,303.43342,328.49462,303.64378Zm-1.185-5.97416c.07095-.1122.1632-.23841.23415-.34359v-.007c.12063-.07713.19158-.14024.09225-.13323l-.0071-.007v.007c-.0071-.007-.0071-.007-.0071.007a3.859,3.859,0,0,0-.58893.31554c-.0071,0-.0071,0-.0071.007-.02838.021-.03547.04207-.01419.04909a.22785.22785,0,0,0,.1703.30852C327.189,297.85193,327.2458,297.76778,327.30966,297.66962Zm5.3075-3.78644a.15636.15636,0,0,0,.00709-.04909,2.96682,2.96682,0,0,1,.22706-.25243,1.35761,1.35761,0,0,0-.3122.21036.63906.63906,0,0,0-.18449.10518c-.23415.16127-.4754.44876-.1632.40669,0,.30853.45412-.45577.41864-.39968C332.61006,293.8972,332.61716,293.89019,332.61716,293.88318Zm2.17834,5.60252c.31221.014.19159-.30852.149-.32956C334.93742,299.15614,334.85227,299.35248,334.7955,299.4857Zm-.04966.14024c-.0142-.62406.28382-.28749-.22706-.8274-.04258.28748-.13482.79234-.19158,1.12892C334.36267,299.89941,334.56845,299.75216,334.74584,299.62594Zm5.54875-4.31233a17.67273,17.67273,0,0,1-3.55489,4.24923c-2.50475,1.99839-6.87563,4.50866-9.96221,7.22228l-.05677-.06311c-1.07853-3.42182-2.34154-7.10308-3.342-10.74227,8.66372-4.57177,12.80754-9.9359,12.80754-9.9359l.0071-.007C337.655,289.073,339.06,292.24239,340.29459,295.31361Z" fill="#743016"/>
        <path d="M325.76992,169.86327c1.74551-1.41641,3.5265-2.8188,5.36426-4.21417l.19868.25243a19.86383,19.86383,0,0,1,4.12253,6.85065c1.46879,3.65321,2.47636,7.56587,3.15045,9.6414-3.68971-2.59442-7.47166-4.99249-11.1117-7.60794a17.70976,17.70976,0,0,0,2.98725,6.56316,68.4648,68.4648,0,0,0-17.51192,7.068c-5.29331,3.12031-8.96172,7.83232-12.914,12.31294l-.03548-2.46119a102.06506,102.06506,0,0,1,11.17556-14.75309A128.48107,128.48107,0,0,1,325.76992,169.86327Z" fill="#caad83"/>
        <path d="M334.88065,205.74328q.43638,1.746.9721,3.47792l-.26254.50486a33.62691,33.62691,0,0,0-1.71,3.09927,46.83054,46.83054,0,0,1-.41864-15.72074A50.56168,50.56168,0,0,0,334.88065,205.74328Z" fill="#85735b"/>
        <path d="M335.59021,57.56729l.02129.12622c-5.81129.77832-10.87754,4.07393-15.26261,8.30913l-.369-.37163c-4.009-4.705-6.40732-7.15216-12.77206-6.73846-5.1514.32956-9.0185,2.86788-13.75125,5.06962a25.77162,25.77162,0,0,1-15.51806,2.328,30.395,30.395,0,0,1-12.56628-5.49735c3.42717-.43474,9.17459-2.60844,10.99816-5.883-3.12206-1.51458-7.98254-3.527-8.54309-6.80858,5.32169.68015,10.67886.39968,14.26923-.97466,4.34959-1.66183,8.614-4.24222,13.04879-5.68667,5.41393-1.76,9.6358-1.795,15.25551-.70119C320.56175,42.716,328.75006,49.99442,335.59021,57.56729Z" fill="#dea84e"/>
        <path d="M334.17819,97.56331c1.53265,1.192,1.412,4.03186,1.036,5.58851-.05676-3.33768-1.30558-7.72013-6.35055-4.56477a3.758,3.758,0,0,0-1.51845,3.77242,4.69937,4.69937,0,0,1,1.51845.78533,2.32507,2.32507,0,0,1,.54636,2.73466c-1.00048,1.5917-3.56908,1.8231-3.56908,1.8231.87985,3.95472,3.98772,3.95472,7.06721,2.68556-1.54684,1.28318-3.36331,1.94231-5.30041,1.02374a4.47059,4.47059,0,0,1-2.63246-3.99679c1.2914-.4698,4.35669-.37865,3.96643-2.63649a2.576,2.576,0,0,0-1.1211-1.43043c-.91533-.65912-1.19206-.40669-1.185-1.60573C326.67106,98.68522,331.29028,95.30547,334.17819,97.56331Z" fill="#381534"/>
        <path d="M332.79455,93.46134c9.27393,1.746,5.1443,19.95593-3.31364,21.8772a6.99791,6.99791,0,0,1-2.85243-.028,8.07742,8.07742,0,0,1-3.86709-2.0615c-.58894,2.08955-1.19916,4.33337-1.75971,6.65431l-1.42621-.33657c.149-3.0011.149-7.43965.72375-11.8221.03547-.32255.08514-.63809.12772-.95362a33.11861,33.11861,0,0,1,.894-4.21417c.071-.26645.149-.5259.23416-.78534,1.483-4.677,4.23606-8.30212,9.42294-8.46339A8.35256,8.35256,0,0,1,332.79455,93.46134Zm2.41959,9.69048c.37607-1.55665.4967-4.39648-1.036-5.58851-2.88791-2.25784-7.50713,1.12191-7.54261,4.17911-.0071,1.199.26963.94661,1.185,1.60573a2.576,2.576,0,0,1,1.1211,1.43043c.39026,2.25784-2.675,2.16669-3.96643,2.63649a4.47059,4.47059,0,0,0,2.63246,3.99679c1.9371.91857,3.75357.25944,5.30041-1.02374-3.07949,1.26916-6.18736,1.26916-7.06721-2.68556,0,0,2.5686-.2314,3.56908-1.8231a2.32507,2.32507,0,0,0-.54636-2.73466,4.69937,4.69937,0,0,0-1.51845-.78533,3.758,3.758,0,0,1,1.51845-3.77242C333.90856,95.43169,335.15738,99.81414,335.21414,103.15182Z" fill="#f8cca5"/>
        <path d="M318.46855,135.19631a39.66147,39.66147,0,0,0,.071,6.18452c.90114,9.08044,6.95368,15.79085,13.50291,22.06653.34058.25242.67408.50485,1.00757.74326-.6457.48382-1.2843.97466-1.91581,1.45848-1.83776,1.39537-3.61875,2.79776-5.36426,4.21417a128.48107,128.48107,0,0,0-14.57434,13.65221A102.06506,102.06506,0,0,0,300.02,198.26857l-.03547-1.99138.21286-.2945a38.05628,38.05628,0,0,0-.70246-7.49575,47.202,47.202,0,0,0-2.5686-8.91917c-1.73133-4.30532-4.79662-10.32856-5.52037-15.44727.12063-.1192.24835-.23841.37607-.3506-.0071,0-.23416-.78533-.39736-1.3533a43.58824,43.58824,0,0,0,8.89078-7.36252,13.97029,13.97029,0,0,0,5.86805,1.732c-1.4546-1.04478-3.2285-1.95633-4.63342-3.13433a5.99413,5.99413,0,0,1-2.377-3.96174c-.35478-3.18341,1.78808-6.75248,3.13625-10.16729,2.19253-.50486,5.37845-1.63378,6.159-1.90023a10.80885,10.80885,0,0,0,4.39926-2.66453c1.036-1.192,2.47636-4.691,4.05868-15.68568.99338.09116,1.91581.21036,2.68923.2945l1.42621.33657A89.65364,89.65364,0,0,0,318.46855,135.19631Z" fill="#f8cca5"/>
        <path d="M331.44639,322.604a13.40246,13.40246,0,0,0-1.01467,4.91536c-.02129-.021-.03548-.04207-.05677-.06311-.36187-.43474-.92242-1.0588-1.56812-1.80908C329.68668,324.63047,330.49558,323.57868,331.44639,322.604Z" fill="#b07e5c"/>
        <path d="M328.49462,207.15268a11.20263,11.20263,0,0,0-1.17077,2.60143l-.12772-.02805a15.773,15.773,0,0,0-5.68357,1.746,21.60928,21.60928,0,0,0-6.71242,5.57448c-.6457-.98868-1.16368-2.13864-1.76681-3.24652-.19867-.37865-.41864-.75729-.65279-1.12191-1.00048-1.54263-2.4125-2.41912-3.51941-3.88461h-.0071c.4896-1.192.95081-2.24381.95081-2.2929a28.88621,28.88621,0,0,1,7.69871-1.164C319.93734,205.3436,326.33047,206.171,328.49462,207.15268Z" fill="#caad83"/>
        <path d="M327.19613,209.72606l.12772.02805a160.57175,160.57175,0,0,0-6.05963,24.26125s-2.34864,0-5.42813-.05609l.0071-.16128c.11353-2.04047,1.01467-4.123,1.42621-6.06531.38316-1.85816,1.00757-3.61815,1.561-5.50436.97919-3.37274,1.62489-6.94882,2.53313-10.18132.04257-.14023.1561-.568.1561-.568l-.0071-.007A15.773,15.773,0,0,1,327.19613,209.72606Z" fill="#af9674"/>
        <path d="M323.3787,295.97974c1.00048,3.63919,2.26349,7.32045,3.342,10.74227l.05677.06311a13.8843,13.8843,0,0,0-2.817,3.21146,5.40043,5.40043,0,0,0-.447.96764l-.10644-.03506-3.8458-13.11229-.70956-2.41211a38.42055,38.42055,0,0,0,3.96643-1.55664C322.99554,294.55632,323.18,295.26453,323.3787,295.97974Z" fill="#904825"/>
        <path d="M327.65025,315.71831c-.62442,1.61274-1.65328,3.3517-2.45508,5.12572a17.504,17.504,0,0,1-.965-1.781C325.3087,317.84993,326.63558,316.728,327.65025,315.71831Z" fill="#b07e5c"/>
        <path d="M325.13131,129.43952v.007h-.00709v-.007Z" fill="#f8cca5"/>
        <path d="M325.13131,129.43952h-.00709v.007c-3.48394,1.79506-5.42813,3.2886-6.65567,5.74978a89.65364,89.65364,0,0,1,2.53313-15.293c.56055-2.32094,1.17077-4.56476,1.75971-6.65431a8.07742,8.07742,0,0,0,3.86709,2.0615A33.60548,33.60548,0,0,0,325.13131,129.43952Z" fill="#c48b37"/>
        <path d="M323.40708,310.92916l.10644.03506a6.45824,6.45824,0,0,0-.3193,1.26215c-1.9371.72924-4.01611,1.41641-6.25831,2.02645l-1.38364.22438-2.38412-14.57078,1.38364-.22438c1.06434-.33657,2.0861-.70119,3.06529-1.07984.667-.25243,1.31269-.51888,1.9442-.78533Z" fill="#743016"/>
        <path d="M309.01014,86.95427c-1.036-3.95472-4.22188-6.82961-7.98964-6.82961a3.30905,3.30905,0,0,0-.37606.014v-.83442a8.7316,8.7316,0,0,0-4.25736,2.44015,9.80282,9.80282,0,0,0-3.562,6.19854,10.71435,10.71435,0,0,0-.149,1.80207,9.59782,9.59782,0,0,0,5.6339,9.08745,7.19988,7.19988,0,0,0,2.71051.5259c4.61214,0,8.35151-4.30533,8.35151-9.61335A10.90533,10.90533,0,0,0,309.01014,86.95427Zm-27.90695-6.41591a5.31461,5.31461,0,0,1,1.96547,5.04157c-.00709.007-.00709.021-.01419.028-.00709.02805-.02128.0561-.02838.08414h.01419l1.263-.19633a9.43106,9.43106,0,0,0-.30511-2.76971,5.93354,5.93354,0,0,0-1.14949-2.01943c-1.2843-1.64079-4.42765-2.27888-5.17978-2.27888A11.17448,11.17448,0,0,1,281.10319,80.53836Zm-8.67791,28.92419a12.47128,12.47128,0,0,1,1.09982-1.10789,13.06306,13.06306,0,0,0,2.90919-3.6462,22.11165,22.11165,0,0,0,1.71713-5.06261q.47895-1.87218,1.09982-3.74436c.19158-.617.39735-1.2341.61022-1.85115.68117-1.95633,1.43331-3.89863,2.19253-5.82691.20578-.51187.40445-1.03075.60313-1.55665a6.21086,6.21086,0,0,1-.95081-.014,14.614,14.614,0,0,1-3.264-.66613l-.05676-.596c-.03548.19634-.06386.37865-.08515.55394a15.64868,15.64868,0,0,1-3.74647-1.66883l-1.05724-.30853-1.56813-.45577-.71665-.1753a10.29735,10.29735,0,0,1,1.14239-2.377,55.26533,55.26533,0,0,0,4.05158-7.28539,8.922,8.922,0,0,1,.77342-.582c2.90209-2.26486,7.18073-2.15266,9.054,1.42342.7947-1.61275,1.55393-3.24652,2.34864-4.85226a19.06358,19.06358,0,0,0-6.56342-.83441,11.05838,11.05838,0,0,0-4.36379,1.03075,8.20715,8.20715,0,0,0,.10643-2.47521l.17739-1.09386a25.77162,25.77162,0,0,0,15.51806-2.328c4.73275-2.20174,8.59985-4.74006,13.75125-5.06962,6.36474-.4137,8.76305,2.03346,12.77206,6.73846l.369.37163c-.86567.82741-1.71,1.7039-2.526,2.60142,2.83823,2.9941,3.73937,8.86308,3.93095,12.80378.26963,5.58149-1.90871,7.91646-4.71147,12.5233A52.94926,52.94926,0,0,0,314.28925,99.12c-.25544.53992-.50378,1.09386-.73794,1.65481-.52507,1.22008-1.01467,2.48223-1.4475,3.76541-.12062.34358-.23415.68717-.34768,1.03776a43.10181,43.10181,0,0,0-1.34816,5.3501,8.02935,8.02935,0,0,0-5.76872-2.05449c-3.413,0-5.82548,1.45147-6.457,2.22278,1.97967-.38566,4.28573-1.27617,6.35764-1.30422-1.69584,9.94992-5.22944,12.59342-12.67272,13.39979-6.84724.75027-14.43242-.38566-20.29338-5.315,3.27107-1.08685,4.96691-1.57067,7.43618-3.84254,3.5265-1.157,7.40779-1.09386,11.26779-1.42342,1.91581-.16127,4.87467-.95362,3.01563-3.68126-1.263-1.84413-5.08754-1.95632-6.20864-1.40238v.04908c3.17882.0561,5.60551,1.00271,5.9532,2.52429.596,2.55936-5.08045,1.85115-6.88982,2.01944a43.85009,43.85009,0,0,0-6.237,1.04477c-2.03644.48383-4.0232,1.08685-6.25831,1.774-2.32026-.86247-2.9021-2.03346-2.5757-3.28158A5.81352,5.81352,0,0,1,272.42528,109.46255ZM316.60951,72.117c-4.43474,2.98007-5.03787,2.48923-6.34346.30852a13.4331,13.4331,0,0,0-3.40588-4.20715c-3.54779-2.56637-7.78386-.81338-11.51614.24542.3193,1.72493.87276,3.4148,1.24883,5.20986,1.61779-.35761,2.62536-1.66183,4.50569-1.72494,1.19206-.70119,3.3846.03506,4.55537.82741,1.27721.86247,2.01515,2.19473,3.15044,3.15537C312.07543,78.69422,315.6587,75.47575,316.60951,72.117Z" fill="#f8cca5"/>
        <path d="M321.399,101.74242l.15611.04908c-.08515.25944-.1632.51889-.23416.78534a14.55287,14.55287,0,0,0-7.76967-1.80207c.23416-.561.4825-1.11489.73794-1.65481l.369.16829C317.06363,99.04984,319.75286,100.39613,321.399,101.74242Z" fill="#c48b37"/>
        <path d="M321.51256,211.472l.0071.007s-.11353.42773-.1561.568c-.90824,3.2325-1.55394,6.80858-2.53313,10.18132-.55346,1.88621-1.17787,3.6462-1.561,5.50436-.41154,1.9423-1.31268,4.02484-1.42621,6.06531l-.0071.16128c-1.83066-.04207-3.91676-.09817-5.91772-.18932l.0071-.08415a51.005,51.005,0,0,1,.92242-10.77732c.61732-2.86087,1.00048-6.53512,2.15706-9.09447l.02838-.014c.60313,1.10788,1.12111,2.25784,1.76681,3.24652A21.60928,21.60928,0,0,1,321.51256,211.472Z" fill="#9a8265"/>
        <path d="M321.321,102.57684a33.11861,33.11861,0,0,0-.894,4.21417,24.46008,24.46008,0,0,0-8.32313-2.25083c.43283-1.28318.92243-2.54533,1.4475-3.76541A14.55287,14.55287,0,0,1,321.321,102.57684Z" fill="#c48b37"/>
        <path d="M320.42694,106.791c-.04258.31553-.09225.63107-.12772.95362l-.3193-.04207A20.6652,20.6652,0,0,0,311.82,105.599l-.06386-.021c.11353-.35059.22706-.69418.34768-1.03776A24.46008,24.46008,0,0,1,320.42694,106.791Z" fill="#c48b37"/>
        <path d="M316.88624,119.27223c-.447-.03506-.90824-.07012-1.37655-.08414a11.539,11.539,0,0,0-5.2933.78533,24.11823,24.11823,0,0,1,.09933-8.51948c.27673.12621.447.20334.447.20334.05676-.14024-.06386-.40669-.35478-.72924a43.10181,43.10181,0,0,1,1.34816-5.3501l.06386.021a20.6652,20.6652,0,0,1,8.15993,2.10358l.3193.04207c-.57475,4.38245-.57475,8.821-.72375,11.8221C318.80205,119.48259,317.87962,119.36339,316.88624,119.27223Z" fill="#c48b37"/>
        <path d="M318.85172,295.40476l.70956,2.41211c-.63151.26645-1.27721.5329-1.9442.78533l-.12062-.2945a16.85119,16.85119,0,0,1-.35478-2.349C317.61708,295.81847,318.21311,295.62915,318.85172,295.40476Z" fill="#e7d1af"/>
        <path d="M315.50969,119.18809c.46831.014.92953.04908,1.37655.08414-1.58232,10.9947-3.02272,14.49365-4.05868,15.68568a10.80885,10.80885,0,0,1-4.39926,2.66453c-.78052.26645-3.96644,1.39537-6.159,1.90023.22706-.575.42573-1.14294.596-1.71091,3.59746-.73625,7.66323-1.90023,9.30231-4.52269C313.74289,130.75776,314.88528,123.91413,315.50969,119.18809Z" fill="#b07e5c"/>
        <polygon points="311.217 315.571 308.854 301.162 308.499 299.016 312.906 298.308 313.168 299.906 315.552 314.477 315.879 316.455 311.479 317.163 311.217 315.571" fill="#904825"/>
        <path d="M310.21639,119.97342a11.539,11.539,0,0,1,5.2933-.78533c-.62441,4.726-1.7668,11.56967-3.342,14.101-1.63908,2.62246-5.70485,3.78644-9.30231,4.52269-1.28431.25944-2.50475.4698-3.5407.66613a48.59706,48.59706,0,0,1-11.24651.96064,59.84935,59.84935,0,0,1-.46121-7.25735c-.91533,1.29721-1.01467,4.55776-.79471,7.18021-5.76162-.49784-11.33875-2.60843-14.38276-8.16889-1.65327-3.02214,1.12111-5.92507,2.20673-9.03837l.37607-.65912c4.66889,3.15537,11.64386,3.56206,16.93007,3.03616,4.0232-.39968,8.018-1.92126,10.55824-5.35009,1.62489-2.18772,2.64665-7.50276,3.06529-9.32586a24.28427,24.28427,0,0,1,4.73985,1.59872A24.11823,24.11823,0,0,0,310.21639,119.97342Zm.00709.007v.014C310.23767,119.98745,310.23767,119.98044,310.22348,119.98044Z" fill="#f8cca5"/>
        <path d="M313.03333,213.8l-.02838.014c-1.15658,2.55935-1.53974,6.2336-2.15706,9.09447a51.005,51.005,0,0,0-.92242,10.77732l-.0071.08415c-1.95838-.08415-3.83871-.20335-5.31459-.37164-.38317-1.53561.6315-9.22769.9579-11.05079a104.56238,104.56238,0,0,1,2.34864-10.9947c.19868-.68716.58184-1.66182.94371-2.55935h.0071c1.10691,1.46549,2.51893,2.342,3.51941,3.88461C312.61469,213.0427,312.83466,213.42134,313.03333,213.8Z" fill="#af9674"/>
        <path d="M310.26605,72.42556c1.30559,2.18071,1.90872,2.67155,6.34346-.30852-.95081,3.35871-4.53408,6.57718-7.80515,3.81449-1.13529-.96064-1.87323-2.2929-3.15044-3.15537-1.17077-.79235-3.36331-1.5286-4.55537-.82741-1.88033.06311-2.8879,1.36733-4.50569,1.72494-.37607-1.79506-.92953-3.48493-1.24883-5.20986,3.73228-1.0588,7.96835-2.81179,11.51614-.24542A13.4331,13.4331,0,0,1,310.26605,72.42556Z" fill="#dea84e"/>
        <path d="M295.89749,302.41669c.46121,0,.92242-.007,1.37654-.021a67.15293,67.15293,0,0,0,11.58-1.2341l2.36283,14.40951c-2.10029.39267-4.38507.71522-6.78338.94661-2.7318.26645-5.61971.4137-8.57857.40669-1.46878,0-2.95886-.03506-4.44893-.11219l.56055-14.48664C293.28631,302.39565,294.599,302.4237,295.89749,302.41669Zm3.95934,4.59982a.95476.95476,0,0,0-.05677.32956l.04258-.08414a.77836.77836,0,0,1-.02839.14725,2.20819,2.20819,0,0,1,.26964-.47681c.04257-.06311.08514-.11921.10643-.14725-.02129.021-.06386.07713-.11353.14024A.162.162,0,0,0,299.85683,307.01651Z" fill="#743016"/>
        <path d="M310.408,110.928c.29092.32255.41154.589.35478.72924,0,0-.1703-.07713-.447-.20334C310.337,111.27864,310.37249,111.10334,310.408,110.928Z" fill="#c48b37"/>
        <path d="M305.57587,109.85522a6.27712,6.27712,0,0,0-1.036-.06311c-2.07191.02805-4.378.91856-6.35764,1.30422.6315-.77131,3.044-2.22278,6.457-2.22278A8.02935,8.02935,0,0,1,310.408,110.928c-.03548.1753-.071.3506-.09225.5259A24.28427,24.28427,0,0,0,305.57587,109.85522Z" fill="#381534"/>
        <path d="M310.6705,363.06282c-.24125.95363-.58184,2.03346-.97209,3.16238-1.71-6.39487-3.73228-11.00171-5.90353-20.026a13.01906,13.01906,0,0,1,2.21382,1.6478.00689.00689,0,0,1,.0071.007C306.96661,353.1129,309.20881,357.902,310.6705,363.06282Z" fill="#57522b"/>
        <path d="M309.01014,86.95427A10.90533,10.90533,0,0,1,309.372,89.745c0,5.308-3.73937,9.61335-8.35151,9.61335a7.19988,7.19988,0,0,1-2.71051-.5259l.02838-.07012c-3.96643-2.04748-5.49908-6.53511-4.91724-10.71422.22706.04207.45412.07713.68117.11219a7.79909,7.79909,0,0,0,1.50427,6.30372,6.25846,6.25846,0,0,0,6.14478,2.7627,6.63239,6.63239,0,0,0,5.22235-3.09226,8.97193,8.97193,0,0,0,.84438-6.75949Q308.478,87.17515,309.01014,86.95427Z" fill="#b07e5c"/>
        <path d="M307.81808,87.375a22.37711,22.37711,0,0,1-2.27059.55394,33.19211,33.19211,0,0,1-4.0161.51187,34.38832,34.38832,0,0,1-7.42909-.28048c.04258-.20334.09225-.40669.15611-.617,0,0,1.38364-6.1775,6.386-7.33447a3.25035,3.25035,0,0,1,.37606-.08414c3.76776,0,6.95368,2.87489,7.98964,6.82961Q308.478,87.17514,307.81808,87.375Z" fill="#f8cca5"/>
        <path d="M307.81808,87.375a8.97193,8.97193,0,0,1-.84438,6.75949,6.63239,6.63239,0,0,1-5.22235,3.09226,6.25846,6.25846,0,0,1-6.14478-2.7627,7.79909,7.79909,0,0,1-1.50427-6.30372,34.38832,34.38832,0,0,0,7.42909.28048c.00709,1.4094.22,6.01623,2.71051,4.5858,1.07143-.61705,1.51846-4.03186,1.36945-4.78214l-.06386-.31553A22.37711,22.37711,0,0,0,307.81808,87.375Z" fill="#fff"/>
        <ellipse cx="305.5262" cy="201.22059" rx="2.74599" ry="2.71361" fill="#cdb76f"/>
        <path d="M303.79488,346.19915c2.17125,9.02434,4.19349,13.63118,5.90353,20.026-1.16368,3.44987-2.7389,7.2924-3.16463,8.98228-1.32688,5.25193-2.675,10.19534-3.81034,15.42623-2.4125,11.08585-5.81128,22.53633-6.88981,34.18313-.28383,3.08525.91533,9.69048.76632,12.79677-.43283,9.0594-2.50474,16.51308-5.05206,24.15608l-2.079-.31554c-6.975,1.4725-20.64816.46279-26.43816-5.7638.27673-4.86628.45412-9.88682.45412-15.50337a61.59865,61.59865,0,0,1,.90114-10.31454c1.68875-9.971,5.40684-19.11451,8.18831-29.422a248.93453,248.93453,0,0,0,7.44327-43.47394c1.27011-14.136-.06386-28.68578,1.20625-42.55537.02838.007.05677.007.08515.014v1.171c1.9229.32956,3.81033.589,5.641.79235l-.04257,1.14294,4.46312.16127.03548-.89051c1.49007.07713,2.98015.11219,4.44893.11219v.08414c1.74552,4.29831,1.53265,9.04539,1.76681,13.67326.20577,4.102-1.04306,8.98928-.53217,12.64951A23.27162,23.27162,0,0,1,303.79488,346.19915Z" fill="#878248"/>
        <ellipse cx="304.81664" cy="291.67442" rx="2.74599" ry="2.71361" fill="#cdb76f"/>
        <path d="M303.79488,346.19915a23.27162,23.27162,0,0,0-6.70533-2.86788c-.51089-3.66023.73794-8.54754.53217-12.64951-.23416-4.62787-.02129-9.375-1.76681-13.67326v-.08414c2.95886.007,5.84677-.14024,8.57857-.40669-.667,6.01623-1.73132,19.64741,1.15658,27.83734a28.12269,28.12269,0,0,0,.41864,3.49194A13.01906,13.01906,0,0,0,303.79488,346.19915Z" fill="#6e683c"/>
        <path d="M305.61135,88.24446c.149.75028-.298,4.16509-1.36945,4.78214-2.49055,1.43043-2.70342-3.1764-2.71051-4.5858a33.19211,33.19211,0,0,0,4.0161-.51187Z" fill="#253c97"/>
        <path d="M304.53991,109.79211a6.27712,6.27712,0,0,1,1.036.06311c-.41864,1.8231-1.4404,7.13814-3.06529,9.32586-2.54022,3.42883-6.535,4.95041-10.55824,5.35009-5.28621.5259-12.26118.11921-16.93007-3.03616a11.226,11.226,0,0,1-3.46265-3.61114c.00709,0,.00709-.007.01419-.007,5.861,4.92938,13.44614,6.06531,20.29338,5.315C299.31047,122.38553,302.84407,119.742,304.53991,109.79211Z" fill="#381534"/>
        <path d="M306.14352,156.786a13.97029,13.97029,0,0,1-5.86805-1.732c.41864-.44876.83018-.91856,1.23463-1.40238C302.915,154.8297,304.68892,155.74125,306.14352,156.786Z" fill="#b07e5c"/>
        <ellipse cx="301.26885" cy="257.31599" rx="2.74599" ry="2.71361" fill="#cdb76f"/>
        <path d="M301.0205,80.12466a3.25035,3.25035,0,0,0-.37606.08414v-.07012A3.30905,3.30905,0,0,1,301.0205,80.12466Z" fill="#b07e5c"/>
        <path d="M300.64444,80.13868v.07012c-5.00239,1.157-6.386,7.33447-6.386,7.33447-.06386.21036-.11353.41371-.15611.617-.22705-.03506-.45411-.07012-.68117-.11219a11.20863,11.20863,0,0,1,2.966-6.30372A7.566,7.566,0,0,1,300.64444,80.13868Z" fill="#b07e5c"/>
        <path d="M300.64444,79.30426v.83442a7.566,7.566,0,0,0-4.25736,1.60573A8.7316,8.7316,0,0,1,300.64444,79.30426Z" fill="#f8cca5"/>
        <path d="M299.495,188.48694a38.05628,38.05628,0,0,1,.70246,7.49575l-.21286.2945c-.71666.98868-1.44041,2.01242-2.13578,3.03616a74.676,74.676,0,0,0-2.95886-8.246c-1.31268-2.31394-3.95224-6.62627-6.66275-7.27838,1.34106-2.4682,2.34154-4.705,4.59794-6.65432.00709,0,.02128.007.02838.007-.0071,0-.0071-.007-.01419-.014-.0071,0-.0071.007-.01419.007-3.48394-.65211-7.62776.72223-10.99107,2.09657a29.24546,29.24546,0,0,1,3.76066-8.27407,35.48783,35.48783,0,0,1,5.81129-6.83663c.72375,5.11871,3.789,11.142,5.52037,15.44727A47.202,47.202,0,0,1,299.495,188.48694Z" fill="#caad83"/>
        <path d="M300.0555,200.72976l.05677,3.20445-1.08563-2.04047C299.37433,201.50808,299.71491,201.12243,300.0555,200.72976Z" fill="#e7d1af"/>
        <path d="M300.02,198.26857l.03548,2.46119c-.34059.39267-.68117.77832-1.02886,1.164l-.55345-1.03075C298.96278,199.99351,299.48076,199.124,300.02,198.26857Z" fill="#caad83"/>
        <path d="M299.98455,196.27719l.03547,1.99138c-.53926.85546-1.05724,1.72494-1.54683,2.59442l-.13482-.25243a6.71455,6.71455,0,0,1-.4896-1.29721C298.54414,198.28961,299.26789,197.26587,299.98455,196.27719Z" fill="#85735b"/>
        <ellipse cx="297.72105" cy="221.55517" rx="2.74599" ry="2.71361" fill="#cdb76f"/>
        <path d="M298.47319,200.863l.55345,1.03075c-.816.90454-1.65327,1.788-2.526,2.63648C297.11793,203.30313,297.77782,202.07605,298.47319,200.863Z" fill="#caad83"/>
        <path d="M296.50061,204.53022c-5.50617,10.91757-8.05349,22.43816-6.30088,33.92369,1.56813,10.25845,5.66228,19.89984,7.06721,30.17933,1.4475,10.67916,1.1211,22.90094.00709,33.65022v.11219c-.45412.014-.91533.021-1.37654.021.05676-7.9375,1.02886-15.80488.65279-23.74238a112.17191,112.17191,0,0,0-4.0232-22.90094c-1.93-7.29241-4.35669-14.087-5.15139-21.737-.78052-7.48874.99338-14.676,3.78194-21.50557a70.29561,70.29561,0,0,1,4.20059-9.36092c.73794-1.24812,1.58942-2.55234,2.49055-3.85656a6.71455,6.71455,0,0,0,.4896,1.29721l.13482.25243C297.77782,202.07605,297.11793,203.30313,296.50061,204.53022Z" fill="#85735b"/>
        <path d="M298.33837,98.76235l-.02838.07012a9.59782,9.59782,0,0,1-5.6339-9.08745,10.71435,10.71435,0,0,1,.149-1.80207c.19867.03506.39735.07713.596.10518C292.83929,92.22724,294.37194,96.71487,298.33837,98.76235Z" fill="#b07e5c"/>
        <path d="M294.88991,191.06733a74.676,74.676,0,0,1,2.95886,8.246c-.90113,1.30422-1.75261,2.60844-2.49055,3.85656a70.29561,70.29561,0,0,0-4.20059,9.36092c-2.78856,6.82961-4.56246,14.01683-3.78194,21.50557.7947,7.65,3.22139,14.44456,5.15139,21.737a112.17191,112.17191,0,0,1,4.0232,22.90094c.37607,7.9375-.596,15.80488-.65279,23.74238-1.29849.007-2.61118-.021-3.931-.09116l.09224-2.2929-4.456-.16127-.078,2.00541q-3.01208-.35762-6.21573-.99569c-.31221-1.20605-.61022-2.74167-.90114-4.51568-2.20673-13.547-3.81033-41.40542-4.76824-50.87853-.35478-3.52-.6457-6.96284-.85147-10.36362l.61022-.03506c0,.18932,1.16368-.06311,2.56151-.46279a42.9916,42.9916,0,0,0,4.62632-1.54963,123.79061,123.79061,0,0,1,4.71857-26.68038,21.43333,21.43333,0,0,0,.75213-3.16939c-.04967.014-9.36617.554-12.623.9396a170.36173,170.36173,0,0,1,5.4778-26.2246l1.05014-5.99519c1.39783-.40669,2.66085-.74327,3.63294-.98868a29.24546,29.24546,0,0,0-3.76066,8.27407c-.00709-.014-.02129-.007-.02838.014.00709-.007.02129-.007.02838-.014,0,.007-.00709.014-.00709.021.02128-.007.02128-.021.00709-.021,3.36331-1.37434,7.50713-2.74868,10.99107-2.09657-2.2564,1.94932-3.25688,4.18612-4.59794,6.65432-.01419,0-.02129-.007-.03548-.007a.055.055,0,0,1,.02838.028.02554.02554,0,0,0,.0071-.021C290.93767,184.44106,293.57723,188.75339,294.88991,191.06733Z" fill="#e7d1af"/>
        <path d="M295.60657,549.82543c0-.014.02838,0,0,.007Z" fill="#743016"/>
        <path d="M292.8251,87.943a9.80282,9.80282,0,0,1,3.562-6.19854,11.20863,11.20863,0,0,0-2.966,6.30372C293.22245,88.02008,293.02377,87.978,292.8251,87.943Z" fill="#b07e5c"/>
        <path d="M293.29341,108.92964c1.859,2.72764-1.09982,3.52-3.01563,3.68126-3.86.32956-7.74129.26646-11.26779,1.42342.29092-.25944.58893-.55394.90114-.86948a43.85009,43.85009,0,0,1,6.237-1.04477c1.80937-.16829,7.48585.53992,6.88982-2.01944-.34769-1.52158-2.77438-2.46819-5.9532-2.52429v-.04908C288.20587,106.97332,292.03039,107.08551,293.29341,108.92964Z" fill="#b07e5c"/>
        <polygon points="287.525 301.877 287.603 299.871 292.059 300.033 291.967 302.326 291.406 316.812 291.371 317.703 286.907 317.541 286.95 316.398 287.525 301.877" fill="#904825"/>
        <path d="M291.78205,163.7699c-.12772.11219-.25544.2314-.37607.3506a14.53593,14.53593,0,0,1-.14191-1.62677c.03548-.028.07805-.04908.12062-.07713C291.54789,162.98457,291.775,163.7699,291.78205,163.7699Z" fill="#f8cca5"/>
        <path d="M220.39333,539.1042a7.22128,7.22128,0,0,1-.3193-3.44987c.69537-5.39217,3.95224-13.93269,9.82739-15.77683,3.68971-1.157,7.37232.28749,10.764,1.5286,4.71856,1.72494,6.57761,2.73465,11.45937,2.11761,6.61309-9.431,7.80515-27.62,9.0043-43.13736.70956-9.12953,1.4475-16.70942,1.90162-24.696,5.79,6.22659,19.4632,7.2363,26.43816,5.7638l2.079.31554c-1.53264,4.59281-3.24268,9.26275-4.86757,14.39548-4.49151,14.14305-6.7621,27.76021-9.0043,42.08557-1.90162,12.15166,0,16.79356-.46122,22.47322a71.87282,71.87282,0,0,1-19.42772,5.08364,100.08051,100.08051,0,0,1-22.20919,0C230.313,545.23964,222.25237,544.20187,220.39333,539.1042Z" fill="#743016"/>
        <path d="M281.96175,171.94581A67.0536,67.0536,0,0,0,273.149,175.017l-4.25735-4.20715c4.81081-1.10789,13.80092-2.952,22.37239-8.31615a14.53593,14.53593,0,0,0,.14191,1.62677,35.48783,35.48783,0,0,0-5.81129,6.83663C284.6226,171.20254,283.35958,171.53912,281.96175,171.94581Z" fill="#af9674"/>
        <path d="M287.61694,132.18118a59.84935,59.84935,0,0,0,.46121,7.25735c-.41864-.014-.83728-.04208-1.25592-.07714C286.60227,136.73894,286.70161,133.47839,287.61694,132.18118Z" fill="#b07e5c"/>
        <path d="M281.309,313.55864V300.88108q3.20365.64158,6.21573.99569l-.57474,14.5217c-1.83066-.20335-3.71809-.46279-5.641-.79235v-2.04748Z" fill="#743016"/>
        <path d="M288.58194,69.66286c-.79471,1.60574-1.55394,3.23951-2.34864,4.85226-1.87324-3.57608-6.15188-3.68828-9.054-1.42342a8.922,8.922,0,0,0-.77342.582,17.64828,17.64828,0,0,0,1.24172-3.81449s0-.007.0071,0a11.05838,11.05838,0,0,1,4.36379-1.03075A19.06358,19.06358,0,0,1,288.58194,69.66286Z" fill="#dea84e"/>
        <path d="M288.05686,203.226a21.43333,21.43333,0,0,1-.75213,3.16939l-.3193-.05609c-1.84485,1.52159-3.35621,2.81178-5.20816,4.5297-.77342.72223-1.57522,1.53561-2.34864,2.39107-1.01467,1.10087-1.99386,2.25784-2.85243,3.31664a14.1788,14.1788,0,0,0-1.7739-2.87489l-.25544-.007.02129-.46279c.07805-1.68987.20577-3.35871.36187-4.90134.0071-.07011.02129-.18932.03548-.35059.071-.63809.22-1.97736.46831-3.81449C278.69069,203.78,288.00719,203.24,288.05686,203.226Z" fill="#caad83"/>
        <path d="M286.98543,206.3393l.3193.05609a123.79061,123.79061,0,0,0-4.71857,26.68038,42.9916,42.9916,0,0,1-4.62632,1.54963l-.078-.35761c0-3.75839.06386-7.48873.23415-11.21908.12772-2.87488.49669-7.27837,1.53975-9.5853l-.22706-.20334c.77342-.85546,1.57522-1.66884,2.34864-2.39107C283.62922,209.15108,285.14058,207.86089,286.98543,206.3393Z" fill="#af9674"/>
        <path d="M284.3033,85.49579l-1.263.19633a.34785.34785,0,0,0,.01419-.08414c.0071-.007.0071-.021.01419-.028.3335-.93959.6528-1.89322.92953-2.85385A9.43106,9.43106,0,0,1,284.3033,85.49579Z" fill="#f8cca5"/>
        <path d="M281.10319,80.53836a11.17448,11.17448,0,0,0-3.43427-2.11059c.75213,0,3.89548.63809,5.17978,2.27888a5.93354,5.93354,0,0,1,1.14949,2.01943c-.27673.96063-.596,1.91426-.92953,2.85385A5.31461,5.31461,0,0,0,281.10319,80.53836Z" fill="#b07e5c"/>
        <path d="M283.02609,85.69212c.0071-.028.02129-.05609.02838-.08414a.34785.34785,0,0,1-.01419.08414Z" fill="#f1ba94"/>
        <path d="M281.70631,86.65276a6.21086,6.21086,0,0,0,.95081.014c-.19868.5259-.39735,1.04478-.60313,1.55665-.75922,1.92828-1.51136,3.87058-2.19253,5.82691l-.11353-.04207h-.0071a6.59117,6.59117,0,0,1-3.64-3.46389c-.965-1.781-.9721-3.52-1.54684-6.26866a15.64868,15.64868,0,0,0,3.74647,1.66883c-.3264,2.53131.3122,3.42883.8018,4.13C279.606,90.81083,280.70583,90.77577,281.70631,86.65276Z" fill="#fff"/>
        <path d="M281.96175,171.94581l-1.05014,5.99519a170.36173,170.36173,0,0,0-5.4778,26.2246,5.48689,5.48689,0,0,0-1.06434.18231,31.49107,31.49107,0,0,0-.6457,3.33768c-5.93191-1.50055-13.6732-4.59982-16.185-10.581,1.62489-3.34468,3.66842-7.97255,5.56294-12.4111,2.99434.021,8.07478.65211,9.46551-1.38135,2.15-3.14836-2.26349-6.78053-5.76161-7.41862,1.25591-3.04317,2.0861-5.08364,2.0861-5.08364L273.149,175.017A67.0536,67.0536,0,0,1,281.96175,171.94581Z" fill="#d3bda1"/>
        <path d="M281.309,313.55864v.87649c-.02838-.007-.05677-.007-.08515-.014Z" fill="#904825"/>
        <path d="M281.309,300.88108v12.67756l-.08515.86246c-1.09272-.19633-2.39831-.49784-3.73228-.65912l.03548-.25944c.28382-5.16078-.14191-11.42944-.20577-16.56216.87985-.14024,1.632-.27347,2.5686-.49785l.518-.07713C280.69874,298.13941,280.99675,299.675,281.309,300.88108Z" fill="#904825"/>
        <path d="M278.4991,95.74021a5.02217,5.02217,0,0,1-2.05772-1.61975,16.46287,16.46287,0,0,1-1.043-1.49354c-1.58941-2.4682-2.04353-6.69639-1.90161-8.65973l1.05724.30853c.57474,2.74867.58184,4.48763,1.54684,6.26866a6.59117,6.59117,0,0,0,3.64,3.46389h.0071l.11353.04207c-.21287.617-.41864,1.2341-.61022,1.85115A2.43909,2.43909,0,0,1,278.4991,95.74021Z" fill="#b07e5c"/>
        <path d="M278.44234,85.98663a14.614,14.614,0,0,0,3.264.66613c-1.00048,4.123-2.10029,4.15807-2.60408,3.42182-.4896-.7012-1.1282-1.59872-.8018-4.13A.54562.54562,0,0,0,278.44234,85.98663Z" fill="#253c97"/>
        <path d="M274.44752,216.38739c.02129-.89052.05677-1.788.09934-2.69258l.25544.007a14.1788,14.1788,0,0,1,1.7739,2.87489c.85857-1.0588,1.83776-2.21577,2.85243-3.31664l.22706.20334c-1.04306,2.30693-1.412,6.71042-1.53975,9.5853-.17029,3.73035-.23415,7.46069-.23415,11.21908l.078.35761c-1.39783.39968-2.56151.65211-2.56151.46279l-.61022.03506C274.39076,228.85459,274.25594,222.70513,274.44752,216.38739Z" fill="#9a8265"/>
        <path d="M278.4991,95.74021a2.43909,2.43909,0,0,0,.75214.16128q-.61732,1.87218-1.09982,3.74436a22.11165,22.11165,0,0,1-1.71713,5.06261l-.24125-.1192-.149-.12621c.34059-.72924.58184-1.37434.6528-1.54263C277.59087,100.64856,277.527,97.8508,278.4991,95.74021Z" fill="#b07e5c"/>
        <path d="M278.38558,85.39061l.05676.596a.54562.54562,0,0,1-.14191-.04208C278.32172,85.76926,278.3501,85.587,278.38558,85.39061Z" fill="#f8cca5"/>
        <path d="M275.56863,94.64635c.11353-.15426.22706-.32255.34059-.51187l.53216-.014a5.02217,5.02217,0,0,0,2.05772,1.61975c-.97209,2.11059-.90823,4.90835-1.80227,7.18021-.071.16829-.31221.81339-.6528,1.54263-2.04353-1.774-3.264-2.931-2.5686-6.25464C273.87988,96.25909,274.6533,95.94356,275.56863,94.64635Z" fill="#f8cca5"/>
        <path d="M277.2148,540.724s.88695,6.57017.19158,8.37925c-.94371,2.45417-3.98062,2.61544-5.66937.561a.24676.24676,0,0,0,.01419-.07012c-.01419.007-.03548.021-.04967.02805.01419.014.02129.02805.03548.04207-.69537,4.93639-9.43,3.75138-11.55162.81338-4.08,4.63489-9.728,3.38676-13.00621-.96764-3.88129,1.781-3.96644,3.00811-8.79853,2.76971-2.84533-.14024-5.03077.11219-6.83305-4.54373-1.6107,1.49354-4.12964,2.04748-6.29379,2.14565-1.78809.07713-3.12916-.77832-4.903-2.945-.12063-2.08955-.63151-4.57879.04257-7.83232,1.859,5.09767,9.91963,6.13544,15.18456,6.7034a100.08051,100.08051,0,0,0,22.20919,0A71.87282,71.87282,0,0,0,277.2148,540.724Z" fill="#914826"/>
        <path d="M276.44138,94.12046l-.53216.014c-.11353.18932-.22706.35761-.34059.51187-3.044-3.98277-5.69067-7.15917-4.35669-11.31023l.71665.1753,1.56813.45577c-.14192,1.96334.3122,6.19153,1.90161,8.65973A16.46287,16.46287,0,0,0,276.44138,94.12046Z" fill="#f8cca5"/>
        <path d="M276.193,104.58926l.24125.1192a13.06306,13.06306,0,0,1-2.90919,3.6462,12.47128,12.47128,0,0,0-1.09982,1.10789c.87276-1.22008,1.97967-2.38406,2.72471-3.42883a11.40916,11.40916,0,0,0,.894-1.57067Z" fill="#b07e5c"/>
        <path d="M275.43381,204.1656c-.24834,1.83713-.39735,3.1764-.46831,3.81449l-.04257-.007c-.39026-.09116-.78761-.18231-1.19916-.28749a31.49107,31.49107,0,0,1,.6457-3.33768A5.48689,5.48689,0,0,1,275.43381,204.1656Z" fill="#d3bda1"/>
        <path d="M274.92293,207.97308l.04257.007c-.01419.16127-.02838.28048-.03548.35059-.1561,1.54263-.28382,3.21147-.36187,4.90134l-.02129.46279c-.04257.90454-.078,1.80206-.09934,2.69258-.41864,0-.83728-.007-1.25592-.02805a60.66282,60.66282,0,0,1,.53217-8.67375C274.13532,207.79077,274.53267,207.88192,274.92293,207.97308Z" fill="#af9674"/>
        <path d="M273.72377,207.68559a60.66282,60.66282,0,0,0-.53217,8.67375c-.60312-.014-1.19915-.04207-1.80227-.09116-4.38508-.3576-8.60695-1.61274-11.80706-5.04157a24.6013,24.6013,0,0,1-2.39831-2.90294,10.82147,10.82147,0,0,1-1.51136-3.15536c-1.05725-3.75839.71665-4.31935,1.86614-8.06372C260.05057,203.08577,267.79186,206.185,273.72377,207.68559Z" fill="#af9674"/>
        <path d="M266.80558,175.89352c3.49812.63809,7.91158,4.27026,5.76161,7.41862-1.39073,2.03346-6.47117,1.40238-9.46551,1.38135C264.47822,181.475,265.78381,178.35471,266.80558,175.89352Z" fill="#f8cca5"/>
        <path d="M271.57381,117.87686c-.0071,0-.0071.007-.01419.007-.0071-.014-.01419-.021-.02129-.03506C271.55252,117.85582,271.55962,117.86985,271.57381,117.87686Z" fill="#381534"/>
        <path d="M271.53833,117.84881c.0071.014.01419.021.02129.03506-.0071,0-.01419.007-.02129.007Z" fill="#381534"/>
        <path d="M243.85135,244.04242c1.17077-2.82581,2.09319-5.74978,2.90919-8.14085.87985-2.56636,1.14239-5.98818,1.58231-8.6457.11353-.68717.39026-1.73195.65989-2.86788v-.007a88.60932,88.60932,0,0,0,8.18122-16.05731,24.6013,24.6013,0,0,0,2.39831,2.90294c3.20011,3.42883,7.422,4.684,11.80706,5.04157l-.0142.11921c-11.36713,13.87659-15.7522,34.702-31.3554,45.31806l.27673.39267c-13.53839,8.38626-14.404-7.25033-13.141-16.87069,1.47588-11.198,4.36378-21.62477,5.80419-32.6966.68827-5.28.40445-13.69429.91533-22.17171.77342-12.79676,3.3704-25.73376,13.90026-28.18793a18.67746,18.67746,0,0,1,6.52084-.23841l.93662.34358a5.74039,5.74039,0,0,0-.30511,1.38837c.56055-.77833,1.05015-1.5286,1.483-2.26486,2.35573-4.03886,2.824-7.51678,2.90919-12.348.17029-10.25844,6.77629-6.88571,6.9111,1.02375.10644,5.74977-2.10029,11.8782-4.896,16.8216a36.67118,36.67118,0,0,0-3.81033,8.77893c-2.08611.87649-4.527-.04207-6.72662.28048-1.99386.28749-4.72566,1.57067-5.23655,3.71632-.01419.014-.02128.03506-.03547.04908a.02626.02626,0,0,1,.02128-.007c-.00709.021-.00709.04908-.01419.07012a.07471.07471,0,0,1,.06386-.03506c-.00709-.021-.02129-.02805-.04257-.03506a.08806.08806,0,0,1,.00709-.04207c1.02886-1.48653,3.27816-2.4121,5.11592-2.79075a8.55568,8.55568,0,0,1,4.1793.32956c.72375.20335,1.4546.42072,2.228.568.00709-.07713.02129-.15426.03548-.23841a9.48467,9.48467,0,0,0,2.99434-.46278,47.22454,47.22454,0,0,1,4.95272-1.22008,4.86757,4.86757,0,0,1,1.73842.03506c-1.02177,2.46119-2.32736,5.58149-3.7039,8.8a8.7294,8.7294,0,0,0-1.36236.0631c-3.88128.568-10.11121,2.24382-13.63062,7.67105-.21287-.07713-.41154-.15426-.61022-.23139l.02129,1.22007c.22705,11.42944.39735,23.1674-.85148,34.65293A113.01759,113.01759,0,0,1,243.85135,244.04242Z" fill="#f8cca5"/>
        <path d="M248.81826,156.68085a28.52382,28.52382,0,0,0,.68117-13.29461c-.65989-3.18341-2.299-8.828-1.53264-11.98338,1.20625-4.98548,5.98867-.28048,7.5568,2.49625,1.57522,2.78373,3.44846,10.595,2.44088,19.73155-.02128.24542-.05676.49084-.08515.73625-.41863,2.75569-1.97257,5.80588-2.64665,7.90945l-.93662-.34358a18.67746,18.67746,0,0,0-6.52084.23841l-.41864-1.54263A28.141,28.141,0,0,0,248.81826,156.68085Z" fill="#f8cca5"/>
        <path d="M257.52455,175.67615c-.1632.61705-.298,1.2341-.40445,1.86517a16.0263,16.0263,0,0,1-2.2635-.32956,8.55568,8.55568,0,0,0-4.1793-.32956c-1.83776.37865-4.08706,1.30422-5.11592,2.79075.51089-2.14565,3.24269-3.42883,5.23655-3.71632C252.99756,175.63408,255.43844,176.55264,257.52455,175.67615Z" fill="#b07e5c"/>
        <path d="M257.1201,177.54132c-.01419.08415-.02839.16128-.03548.23841-.77342-.14725-1.50427-.36462-2.228-.568A16.0263,16.0263,0,0,0,257.1201,177.54132Z" fill="#f8cca5"/>
        <path d="M255.23267,162.27636c.67408-2.10357,2.228-5.15376,2.64665-7.90945a44.206,44.206,0,0,1-1.46878,7.033c-.43283.73626-.92243,1.48653-1.483,2.26486A5.74039,5.74039,0,0,1,255.23267,162.27636Z" fill="#b07e5c"/>
        <path d="M248.66216,151.62525a41.58585,41.58585,0,0,1,.1561,5.0556,28.141,28.141,0,0,1-1.46169,3.94771C247.36366,158.09025,248.78988,154.71751,248.66216,151.62525Z" fill="#b07e5c"/>
        <path d="M240.84991,154.4791a25.2958,25.2958,0,0,0-1.43331-8.16889c-1.14948-2.80477-4.77533-6.56316-4.42764-9.74657.53926-4.90134,5.47779-3.19043,7.869-.89052,2.02225,1.93529,5.06625,7.46069,5.8042,15.92408.00709.007.00709.014,0,.02805.12772,3.09226-1.2985,6.465-1.30559,9.00331l.41864,1.54263c-10.52986,2.45417-13.12684,15.39117-13.90026,28.18793-1.483-1.4725-3.64-3.96875-4.28574-6.57718-1.38364-5.56747-.518-9.26977,3.24978-15.50337,2.24221-3.71632,3.56908-6.85065,2.05063-11.06482-1.07144-2.966-9.86287-7.79726-6.51375-10.609,2.34864-1.97736,8.11735-.22438,11.16136,4.86628l.02129.04207c.05676.09116.11352.18231.16319.28048a.02554.02554,0,0,1,.0071.021c.97209,2.13864.09224,7.89543.48959,9.90084A26.67509,26.67509,0,0,0,240.84991,154.4791Z" fill="#f8cca5"/>
        <path d="M249.00274,224.388c-.26963,1.13593-.54636,2.18071-.65989,2.86788-.43992,2.65752-.70246,6.07934-1.58231,8.6457-.816,2.39107-1.73842,5.315-2.90919,8.14085a113.01759,113.01759,0,0,0,2.81694-15.97317C247.51267,226.751,248.28609,225.538,249.00274,224.388Z" fill="#b07e5c"/>
        <path d="M248.1087,192.42764a11.4017,11.4017,0,0,0-.58893.98868l-.02129-1.22007C247.69716,192.27338,247.89583,192.35051,248.1087,192.42764Z" fill="#f8cca5"/>
        <path d="M245.55429,179.715c.02128.007.03548.014.04257.03506a.07471.07471,0,0,0-.06386.03506c.0071-.021.0071-.04908.01419-.07012Z" fill="#f8cca5"/>
        <path d="M245.56138,179.67295a.08806.08806,0,0,0-.00709.04207h-.0071a.02626.02626,0,0,0-.02128.007C245.5401,179.708,245.54719,179.687,245.56138,179.67295Z" fill="#f8cca5"/>
        <path d="M240.84991,154.4791a26.67509,26.67509,0,0,1-.63151,7.23631c-.39735-2.00541.4825-7.7622-.48959-9.90084A12.72482,12.72482,0,0,1,240.84991,154.4791Z" fill="#b07e5c"/>
      </g>
      <g>
        <path d="M300.20451,306.76408a.08653.08653,0,0,0-.01419.021c-.02129.021-.06386.07713-.11353.14024-.07805.11219-.17739.25243-.23415.33657l-.04258.08414a.95476.95476,0,0,1,.05677-.32956.162.162,0,0,1,.22-.09115.00689.00689,0,0,1,.0071.007c.05676.014.11352.04207.149.02805" fill="none" stroke="#010101" stroke-linecap="round" stroke-linejoin="round" stroke-width="2"/>
        <path d="M299.52333,307.19181a.57881.57881,0,0,1,.36188-.6451c-.01419.14024-.01419.30853-.02838.4698a1.34577,1.34577,0,0,1-.01419.24542.77836.77836,0,0,1-.02839.14725,2.20819,2.20819,0,0,1,.26964-.47681c.04257-.06311.08514-.11921.10643-.14725" fill="none" stroke="#010101" stroke-linecap="round" stroke-linejoin="round" stroke-width="2"/>
        <path d="M299.99164,311.63036a.54457.54457,0,0,1-.18448.71521c.21286-1.00971.17029-.24541.18448-.24541" fill="none" stroke="#010101" stroke-linecap="round" stroke-linejoin="round" stroke-width="2"/>
        <path d="M327.03293,297.50834c.03548-.09115.10643-.14725.1632-.13323" fill="none" stroke="#010101" stroke-linecap="round" stroke-linejoin="round" stroke-width="2"/>
        <path d="M327.54381,297.326c-.07095.10518-.1632.23139-.23415.34359-.06386.09816-.12063.18231-.12772.20334a.22785.22785,0,0,1-.1703-.30852.10056.10056,0,0,1,.01419-.04909" fill="none" stroke="#010101" stroke-linecap="round" stroke-linejoin="round" stroke-width="2"/>
        <path d="M327.61477,297.19982a.45894.45894,0,0,1-.071.1192" fill="none" stroke="#010101" stroke-linecap="round" stroke-linejoin="round" stroke-width="2"/>
        <polyline points="327.636 297.186 327.629 297.179 327.629 297.186" fill="none" stroke="#010101" stroke-linecap="round" stroke-linejoin="round" stroke-width="2"/>
        <path d="M327.629,297.18579c-.0071-.007-.0071-.007-.0071.007" fill="none" stroke="#010101" stroke-linecap="round" stroke-linejoin="round" stroke-width="2"/>
        <path d="M327.62186,297.1928l.0071-.007h.0071c.09933-.007.02838.0561-.09225.13323v.007c-.06386.04207-.149.09116-.22706.14024-.18448.09817-.34768.1753-.26963.10518a.05372.05372,0,0,1-.03548-.007c-.02128-.007-.01419-.02805.01419-.04909,0-.007,0-.007.0071-.007a3.859,3.859,0,0,1,.58893-.31554" fill="none" stroke="#010101" stroke-linecap="round" stroke-linejoin="round" stroke-width="2"/>
        <path d="M327.62186,297.1928a.0069.0069,0,0,0-.00709.007" fill="none" stroke="#010101" stroke-linecap="round" stroke-linejoin="round" stroke-width="2"/>
        <path d="M327.43028,297.60651c-.02838.09817-.08514.10518-.12062.06311a.18851.18851,0,0,1,.00709-.20335.65969.65969,0,0,1,.298-.26645" fill="none" stroke="#010101" stroke-linecap="round" stroke-linejoin="round" stroke-width="2"/>
        <path d="M328.61525,304.15565a.7311.7311,0,0,0-.12063-.51187c-.10643-.21036-.19867-.37865.14191-.575a.02628.02628,0,0,1,.02129-.007,1.13852,1.13852,0,0,1,.13482-.07714.02626.02626,0,0,0,.02128-.007h-.03547c-.08515-.007-.12773.014-.14192.04909q-.01063.01052,0,.04207c.0071.09816.19158.23139.02129-.007-.0071-.014-.01419-.021-.02129-.03506q-.0745-.09467-.21286-.25243a1.21923,1.21923,0,0,1,.35478.20334.02488.02488,0,0,1,.01419.007c.02128.021.03547.03506.02128.04909a.49594.49594,0,0,1-.12772.43474.75762.75762,0,0,1-.19158.1753c-.19867.09115-.12772-.42072-.12062-.42773" fill="none" stroke="#010101" stroke-linecap="round" stroke-linejoin="round" stroke-width="2"/>
        <path d="M334.7955,299.4857a.06461.06461,0,0,0-.03547-.007" fill="none" stroke="#010101" stroke-linecap="round" stroke-linejoin="round" stroke-width="2"/>
        <path d="M334.7955,299.4857c.05677-.13322.14192-.32956.149-.32956C334.98709,299.17718,335.10771,299.49973,334.7955,299.4857Z" fill="none" stroke="#010101" stroke-linecap="round" stroke-linejoin="round" stroke-width="2"/>
        <path d="M334.74584,299.62594s.02128-.0631.04966-.14024" fill="none" stroke="#010101" stroke-linecap="round" stroke-linejoin="round" stroke-width="2"/>
        <path d="M334.74584,299.62594c-.17739.12622-.38317.27347-.41864.30152.05676-.33658.149-.84144.19158-1.12892C335.02966,299.33845,334.73164,299.00188,334.74584,299.62594Z" fill="none" stroke="#010101" stroke-linecap="round" stroke-linejoin="round" stroke-width="2"/>
        <path d="M334.76,299.71009c.45411-.37164.24834-.25243-.01419-.08415" fill="none" stroke="#010101" stroke-linecap="round" stroke-linejoin="round" stroke-width="2"/>
        <path d="M332.33333,293.99537c.0071-.03506.0142-.06311.02129-.09817.01419-.07713.02838-.16829.04258-.25944" fill="none" stroke="#010101" stroke-linecap="round" stroke-linejoin="round" stroke-width="2"/>
        <path d="M332.51072,293.96732c-.12772.14024-.24125.26645-.3122.33657h-.0071c-.3122.04207-.07095-.24542.1632-.40669a.63906.63906,0,0,1,.18449-.10518c.04967-.014.08514-.007.08514.04207a.15636.15636,0,0,1-.00709.04909c0,.007-.0071.014-.0071.021.03548-.05609-.41864.70821-.41864.39968a.91043.91043,0,0,0,.11353-.21737.3918.3918,0,0,0,.02838-.08414" fill="none" stroke="#010101" stroke-linecap="round" stroke-linejoin="round" stroke-width="2"/>
        <path d="M332.63135,293.86915c-.0071.007-.01419.007-.01419.014a1.039,1.039,0,0,0-.09224.07012s-.0142.007-.0142.014a.92826.92826,0,0,1-.20577.1192c-.02838,0-.01419-.02805.02838-.08414v-.007a1.84188,1.84188,0,0,1,.20578-.20335,1.35761,1.35761,0,0,1,.3122-.21036,2.96682,2.96682,0,0,0-.22706.25243,1.472,1.472,0,0,0-.09933.11921" fill="none" stroke="#010101" stroke-linecap="round" stroke-linejoin="round" stroke-width="2"/>
      </g>
    </g>
  </g>
</svg>
