<svg xmlns="http://www.w3.org/2000/svg" width="600" height="600" viewBox="0 0 600 600">
  <title>character-superbear-and-panda-girl-full</title>
  <g id="SuperBear">
    <path d="M542.03013,135.243c-.67447-1.64033,34.8766-87.88247-8.50509-117.70164C462.88663-31.01317,347.32872,35.74128,300.46611,44.14105,246.39167,53.83355,130.484,16.344,62.1237,84.56716c-67.58139,67.44578,4.67574,145.52636-12.97633,194.07637C8.78256,389.66228-59.696,600,104.24161,572.22026c62.51991,71.0576,194.50638-20.30217,354.27947,10.15109,27.38148,5.219,88.12315,22.44485,113.69454,7.58626,31.35665-18.22038,52.13024-80.10235-28.59937-180.26317C568.39262,292.80873,578.52457,223.99942,542.03013,135.243Z" fill="#b3ccc8"/>
    <g>
      <path d="M495.68113,340.79759c6.47886,11.35023,11.67392,22.71557,13.94056,34.11523,8.164-2.723,11.91713.84793,11.34986,10.58316H488.52577s-25.911-21.50283-42.46355-21.69485c-26.16052-.30348-25.14216,17.7106-25.14216,17.7106H393.77915c-.9596-6.04652.11162-9.97568,5.92156-8.9646-3.78433-5.88-4.519-13.64816-1.23358-23.90554Z" fill="#1d232b"/>
      <path d="M466.04342,295.57266l28.68308,43.51556,13.50884,29.50841s12.02836-2.05438,14.619-11.019c0,0,35.77546,7.59479,27.57281-14.941-3.33094-9.15134,20.35574-13.63363,20.35574-13.63363l-56.99606-32.68336Z" fill="#83295c"/>
      <path d="M483.62337,290.34333s19.80058,0,33.86454,3.922,35.86365,17.69379,48.85377,20.54383c4.2562.93381,13.50878,1.30733,13.50878,1.30733,1.77392,9.31374-.48985,14.18487-4.62628,16.99535-26.09383-7.97113-53.24636-28.11628-64.21307-32.87013-6.75591-2.92855-23.87323-4.516-23.87323-4.516Z" fill="#ab477e"/>
      <path d="M484.578,289.0645s56.94393,32.12757,55.865,42.45031a30.92874,30.92874,0,0,1-6.80275,16.72391s-11.70242,2.79071-12.44263.176a29.73111,29.73111,0,0,1-.90457-5.56278s-3.48988.97578-3.74688-2.007c-.11628-1.34965,3.77931-5.63332,3.77931-5.63332-2.9653-4.69443-12.15192-3.2861-24.08924-4.686l-25.72222-42.395Z" fill="#1d232b"/>
      <path d="M415.41429,289.1371c-7.67966-3.26834-14.81393,2.24471-22.68916,2.15931s-14.50237-2.71875-19.11744-6.84388c0,0-.88126-9.78346,1.572-14.80028a1.12585,1.12585,0,0,0-.38853-1.46587c-2.66425-1.60538-4.18075,1.40343-5.74806,4.0021a38.27489,38.27489,0,0,0-6.896-8.73116,1.59524,1.59524,0,0,0-2.24427.08,2.366,2.366,0,0,0-.44561,2.84632,9.08844,9.08844,0,0,1,.51821,4.68426l-3.98747-2.58707a1.749,1.749,0,0,0-2.19763.23829h0a2.58309,2.58309,0,0,0-.62561,2.5914,7.78292,7.78292,0,0,1,2.22013,6.16291s-4.14069-1.56709-5.942-1.29669a2.00693,2.00693,0,0,0-1.68087,2.85967l8.88254,8.093c.69517,7.68025,7.20768,17.93817,14.434,28.51235,9.65362,1.68086,17.70339.74705,26.03073,1.49409Z" fill="#1d232b"/>
      <path d="M477.40576,292.13529s29.60582,28.05,18.40875,54.19173c-9.80717,22.89678-41.1621,19.14156-56.55471,18.31833-17.83941-.95408-50.88289-7.80654-51.43063-25.76015-.9489-31.103,27.51823-48.84889,27.51823-48.84889Z" fill="#fff"/>
      <path d="M389.36884,344.91044v.00017c6.76981,13.49544,34.20553,18.89586,49.891,19.73475,15.39259.82319,46.74752,4.57844,56.55465-18.31834a31.95794,31.95794,0,0,0,2.40083-15.43805h0C490.69042,367.88921,410.03352,365.59943,389.36884,344.91044Z" fill="#a0d0e9"/>
      <path d="M493.20705,169.344s10.475-22.25673,29.265-6.88646c17.04255,13.94088-2.06577,37.79154-2.06577,37.79154Z" fill="#1d232b"/>
      <path d="M402.73234,189.8316s-14.56773-16.21276-4.38624-28.79393c14.25528-17.6151,27.04847,3.5569,27.04847,3.5569Z" fill="#1d232b"/>
      <path d="M421.81739,163.57831c18.59705-8.29942,78.10763-12.02569,95.40289,24.89828,9.85759,21.04516,17.76613,44.35662,16.36541,64.02413-2.23165,31.33456-39.7977,43.02151-82.205,42.0186-39.46028-.93321-52.25234-7.8284-64.52584-21.016-24.07821-25.87139-7.89164-43.36936-1.11584-58.096C402.10451,179.83841,403.35806,171.81627,421.81739,163.57831Z" fill="#fff"/>
      <path d="M505.44062,187.48634c14.10508,35.16744,10.17865,63.60491-10.93883,85.62624-23.77445.49762-43.4427-9.39826-55.04152-39.718-4.45605-2.11343-8.52986-2.93786-11.85692-1.24509-8.56072,15.5769-18.18249,26.55314-28.70656,33.61718-10.92029-3.76731-20.28562-11.2284-23.8388-32.4966a28.08336,28.08336,0,0,0,5.3669-14.31843c1.1233-20.41932,4.99242-27.76529,4.99242-27.76529l2.621,6.47442,3.4947-7.595,5.99091,10.08516,1.74733-8.96459c7.76429,12.51974,16.1296,19.0861,25.21178,18.55171l4.99239,10.33416,5.61648.62254,3.86917-11.20572c15.27753.04437,31.07779-6.72344,43.18447-20.1703l3.36982,6.59893a42.21037,42.21037,0,0,0,9.23593-9.46262,19.90133,19.90133,0,0,1,3.61961,9.33811C500.88922,195.01481,503.20436,191.735,505.44062,187.48634Z" fill="#1d232b"/>
      <path d="M495.97625,284.73029c-34.93356,8.01779-80.8538,4.63794-109.12137-11.22694,12.2735,13.18757,25.06553,20.08272,64.52585,21.016,36.97444.87442,70.26495-7.9001,79.66793-30.93074C522.17109,272.70173,510.40679,281.41828,495.97625,284.73029Z" fill="#a0d0e9"/>
      <ellipse cx="404.5373" cy="226.1744" rx="19.96043" ry="18.39417" fill="#fdfeff"/>
      <ellipse cx="469.99173" cy="230.91925" rx="25.19592" ry="22.59821" fill="#fdfeff"/>
      <ellipse cx="461.49521" cy="229.64111" rx="13.93883" ry="13.84959" fill="#1f242c"/>
      <ellipse cx="410.03986" cy="226.99725" rx="12.55974" ry="12.3263" fill="#1f242c"/>
      <path d="M417.76841,243.32634c2.765,4.59119,8.04429,11.31486,8.04429,11.31486l8.04424-.06392c4.37049-3.77162,7.09414-10.73953,7.15754-10.73953C434.67283,239.35738,426.2581,241.22705,417.76841,243.32634Z" fill="#1d232b"/>
      <path d="M418.53989,262.09814c7.98365,4.56121,11.31418,5.224,20.4175,5.04256,6.12065-.122,4.74151-5.86578,4.74151-5.86578s9.44891,12.17074-2.70595,12.46473a28.31409,28.31409,0,0,1-11.31858-2.20225C424.19509,269.41269,421.10032,266.00658,418.53989,262.09814Z" fill="#1d232b"/>
      <path d="M427.81259,267.41058l1.4474,2.06228s9.84314,1.41249,15.2403.4726c2.42954-.42309.22806-4.88573.22806-4.88573a3.704,3.704,0,0,1-3.34572,3.37663A42.20174,42.20174,0,0,1,427.81259,267.41058Z" fill="#fffdf9"/>
    </g>
    <g>
      <path d="M60.93531,333.96523s4.73859,2.225,9.58828,26.15408c3.8463,6.02412,66.3905,32.46328,66.3905,32.46328L112.8329,434.24938C74.472,417.22247,69.88946,401.88443,59.41372,383.951a28.71108,28.71108,0,0,0-8.54087-9.19216A106.42236,106.42236,0,0,1,33.733,359.78465Z" fill="#5b5b5b"/>
      <path d="M54.97832,335.747s10.63017,12.99476,1.02873,22.00172c-8.39587,7.876-22.632-1.29282-22.632-1.29282Z" fill="#9c8563"/>
      <g>
        <path d="M56.72707,345.22637c3.014.11033,7.08639-10.5422,5.39318-12.42474s-7.21181-2.63555-9.03044-.62751S51.58473,345.03811,56.72707,345.22637Z" fill="#9c8563"/>
        <path d="M56.777,346.74716c-.0356,0-.07046-.00075-.10532-.00149h0c-2.17023-.08015-3.94959-1.51181-5.01245-4.033-1.59838-3.794-1.4441-9.62751.30484-11.55939a6.30569,6.30569,0,0,1,4.7573-1.68919h.01929c2.20435.00371,5.07178.72288,6.50846,2.32078,2.15688,2.39723-.76989,8.86381-1.11033,9.59337C60.98916,343.83857,59.13193,346.74716,56.777,346.74716Zm-.02893-3.03773Zm.03412-.00223h0Zm-.06156-11.20314a3.54629,3.54629,0,0,0-2.50548.69022c-.61413.70136-1.10366,5.20859.267,8.39178.58669,1.3619,1.35287,2.07513,2.27778,2.1204.30113-.0757,1.23791-.88467,2.31116-2.97241,1.62878-3.16687,2.128-6.25283,1.87354-6.96458a6.81162,6.81162,0,0,0-4.20918-1.26541Zm4.20918,1.229Z" fill="#3f403d"/>
      </g>
      <g>
        <path d="M50.8322,345.21307c2.71933-2.04079.75253-10.35394-2.75931-13.17774s-10.47281,1.94528-7.90164,6.52612C42.7576,343.16933,48.82543,346.7191,50.8322,345.21307Z" fill="#9c8563"/>
        <path d="M49.59062,347.08262a5.76144,5.76144,0,0,1-1.19118-.13211c-3.34731-.70581-7.54314-4.06415-9.55317-7.64441-1.44336-2.57312-.76395-5.60343,1.73189-7.71863,2.26517-1.92,5.89211-2.7891,8.44654-.73772,2.95347,2.3757,4.65791,7.43957,4.59932,10.96342-.0356,2.12262-.68534,3.719-1.88023,4.61559v.00074A3.49938,3.49938,0,0,1,49.59062,347.08262Zm-4.04229-14.37743a4.92271,4.92271,0,0,0-3.00614,1.20158c-.51548.43714-2.11386,2.00981-1.04654,3.91053a14.02142,14.02142,0,0,0,7.331,6.11181,1.86536,1.86536,0,0,0,1.09624.0668,3.04745,3.04745,0,0,0,.66308-2.23321c.05044-3.02659-1.568-7.018-3.46451-8.54318A2.459,2.459,0,0,0,45.54833,332.70519Z" fill="#3f403d"/>
      </g>
      <g>
        <path d="M45.3763,355.818c-.73028,2.81859-6.89826,4.76909-10.66094,4.32984s-7.83893-7.40464-1.81863-10.10294C35.748,348.767,46.25426,352.42946,45.3763,355.818Z" fill="#9c8563"/>
        <path d="M35.86536,361.7302a11.42408,11.42408,0,0,1-1.32543-.07273c-2.84592-.3325-5.66218-3.29452-6.15022-6.46881-.43687-2.84772.97905-5.22788,3.88653-6.53114,2.89933-1.301,9.77569.84162,12.78849,3.39026,1.93734,1.638,2.03821,3.16166,1.78158,4.15173h0C45.93921,359.70109,40.12127,361.7302,35.86536,361.7302Zm-1.387-10.44315a2.482,2.482,0,0,0-.96051.14472c-1.63324.73253-2.34824,1.84134-2.125,3.29526.30336,1.97567,2.16207,3.75467,3.49863,3.91127,3.60543.41562,8.60082-1.6083,9.01469-3.20175.0267-.1039-.13425-.50171-.80253-1.06725A16.6085,16.6085,0,0,0,34.47837,351.28705Z" fill="#3f403d"/>
      </g>
      <g>
        <path d="M44.74919,350.17042c1.37965-1.506-1.6305-9.34993-4.64065-10.73045s-12.73256,6.62671-5.644,9.34992C41.48819,351.48819,43.36954,351.67645,44.74919,350.17042Z" fill="#9c8563"/>
        <path d="M42.51846,352.6237c-2.00335,0-4.69277-.91436-8.5986-2.415-2.57965-.9908-3.311-2.588-3.4697-3.75244-.43834-3.201,2.8578-5.92256,3.87838-6.68106.90934-.67538,4.06158-2.79652,6.41279-1.7174,2.88375,1.32256,5.09478,6.23428,5.68147,9.13693.37827,1.87325.19729,3.18245-.55331,4.00255h0A4.2344,4.2344,0,0,1,42.51846,352.6237Zm-3.23087-11.82879a6.59752,6.59752,0,0,0-3.41333,1.62462c-1.55907,1.23646-2.55073,2.73269-2.412,3.63963.09568.63011.89376,1.06057,1.54646,1.31142,6.23107,2.39352,7.8109,2.536,8.54816,1.84654.41239-1.4851-1.96181-7.424-4.08087-8.3955A.52583.52583,0,0,0,39.28759,340.79491Zm4.34194,8.348v0Z" fill="#3f403d"/>
      </g>
      <path d="M122.19787,408.98154c-14.51,13.97851-36.33635,1.27357-61.0702-22.03613,9.38165,16.665,15.49664,31.23243,51.70523,47.304l5.18564-8.97235Z" fill="#3f403d"/>
      <path d="M283.7047,526.16678c31.86129-.95646,36.959-27.09918,64.67823-19.44764l-37.91482-72.37076L256.9413,462.72282Z" fill="#97854d"/>
      <path d="M256.50125,392.13711c54.85167,34.13661,114.53553,71.56349,122.56266,108.71216,1.08215,9.6507-6.02037,31.12462-13.713,31.45929S312.50611,449.979,312.50611,449.979L119.85658,410.4876l7.02368-19.411Z" fill="#f7f07b"/>
      <path d="M290.26449,537.747c-1.77156-23.419-9.71293-35.03906-20.0677-48.19292,3.59949-5.57256,2.9094-20.02554,2.8414-20.02557,5.04545-.68169,9.57609,1.8349,14.39805,6.65991l13.86542-4.45568L273.077,459.80407,121.17561,497.80348c-3.48175,10.66172-5.55,21.34859-.48285,32.16237-7.156,1.34612-19.95137,6.96773-16.97392,14.05626,2.71435,6.46217,47.66069.33468,47.66069.33468s4.43161-25.68616,38.29578-24.18013c28.33535,1.26015,68.23,30.826,68.23,30.826,4.87619,1.67313,53.51376,7.68084,54.18272,0C312.51183,546.13719,299.77426,537.949,290.26449,537.747Z" fill="#3f403d"/>
      <path d="M121.947,404.71449s12.93028,1.43782,43.898,8.53416c32.86079,7.53014,63.464-6.02412,84.78592-4.7691,31.18427,2.38883,60.99278,26.41226,65.97236,53.213,1.2809,6.894,1.20434,12.31541-1.1288,17.69583-3.2753,7.55313-12.745,13.93514-20.50664,14.93479-6.33386.81576-10.78637-5.71036-11.727-12.17373-.30366-2.08646-.72367-5.20179,4.139-6.02412,0,0-6.83555-14.49552-16.9948-10.98145,0,0-.18814,16.88006-10.47281,28.67729-27.35571,31.37885-133.52758,27.6574-150.75829-1.004C89.83871,460.68854,121.947,404.71449,121.947,404.71449Z" fill="#5b5b5b"/>
      <path d="M130.22479,413.165c10.87007,12.38292,11.03729,29.95321,32.94453,41.332,12.30518-.77084,25.08822-4.37085,33.61329-13.72155,8.696-9.53818,17.81008-19.16,20.56943-22.42306-25.75358,1.004-27.99429,21.00246-51.50707,19.74568C153.82159,437.45545,141.26208,408.47956,130.22479,413.165Z" fill="#cbcbcb"/>
      <path d="M105.66553,542.32277c.66892,2.09171,12.23408,2.48365,13.18767.277s-.98517-7.31266-3.51184-7.78114S104.78846,539.58019,105.66553,542.32277Z" fill="#9c8563"/>
      <path d="M309.37145,550.696c-.91494,1.42938-10.8366.00366-11.23365-1.73816s2.08751-5.18793,4.24384-5.17306S310.57109,548.82185,309.37145,550.696Z" fill="#9c8563"/>
      <path d="M235.58008,212.69587s15.26378-33.26069,42.64378-10.2912c24.83372,20.8334-3.01015,56.47607-3.01015,56.47607Z" fill="#3f403d"/>
      <path d="M117.93343,248.58954s-19.99481-24.0263-6.0203-42.6708c19.566-26.10449,37.12517,5.2711,37.12517,5.2711Z" fill="#3f403d"/>
      <path d="M146.78069,209.68381c25.08457-12.29923,105.35521-17.82133,128.68386,36.8977,13.29639,31.18762,23.96378,65.73375,22.07443,94.87978-3.01015,46.43588-53.681,63.75521-110.88189,62.269-53.22586-1.383-70.48039-11.60121-87.03545-31.14437-32.47781-38.33978-10.64461-64.2707-1.5051-86.09462C120.191,233.78027,121.88189,221.892,146.78069,209.68381Z" fill="#5b5b5b"/>
      <path d="M246.80962,389.22352c-47.12,11.88186-109.05938,6.87314-147.188-16.63764,16.55506,19.54316,33.80955,29.76135,87.03546,31.14439,49.87285,1.29584,94.77664-11.70745,107.45981-45.83743C282.14244,371.39794,266.27421,384.31532,246.80962,389.22352Z" fill="#3f403d"/>
      <ellipse cx="136.94283" cy="286.39468" rx="25.64114" ry="27.25902" fill="#fdfeff"/>
      <ellipse cx="221.63502" cy="286.24025" rx="29.24665" ry="28.86554" fill="#fdfeff"/>
      <ellipse cx="208.33567" cy="285.4086" rx="16.17976" ry="15.93541" fill="#1f242c"/>
      <ellipse cx="126.32322" cy="284.97011" rx="15.32297" ry="15.43426" fill="#1f242c"/>
      <path d="M198.48939,242.35174a43.27577,43.27577,0,0,0-10.62381,14.4713c-1.01943,2.20491,2.25287,4.13743,3.27905,1.9179a40.60566,40.60566,0,0,1,10.03-13.70224c1.85537-1.59793-.84088-4.27542-2.68526-2.687Z" fill="#3f403d"/>
      <path d="M163.63489,257.62738a32.50889,32.50889,0,0,0-7.33153-14.76766c-1.59658-1.85681-4.27236.84118-2.68526,2.687a28.59751,28.59751,0,0,1,6.35491,13.09087c.4931,2.39345,4.15441,1.3805,3.66188-1.01018Z" fill="#3f403d"/>
      <g>
        <path d="M229.93605,324.393c-23.70825,18.81741-46.7861,19.11938-77.00969,16.81734a52.79827,52.79827,0,0,0-9.78291,13.42874s15.72714,20.33948,39.00649,14.43277C217.26834,360.16115,229.93605,324.393,229.93605,324.393Z" fill="#9c8563"/>
        <path d="M173.75884,371.6568c-19.12563,0-31.67454-15.90334-31.81695-16.08814l-.603-.77929.46579-.86908a54.46885,54.46885,0,0,1,10.07607-13.8119l.48879-.4646.672.05121c28.523,2.17161,52.228,2.33785,75.95067-16.49337l4.14169-3.2871-1.766,4.98594c-.12906.36515-13.35,36.63825-48.845,45.64455A35.531,35.531,0,0,1,173.75884,371.6568ZM144.974,354.45465c3.09366,3.52311,17.30177,18.09128,36.8027,13.14394,25.92039-6.57717,39.45133-28.45651,44.43856-38.54268-22.82229,15.88108-45.675,15.75491-72.722,13.72209A51.29427,51.29427,0,0,0,144.974,354.45465Z" fill="#3f403d"/>
      </g>
      <g>
        <path d="M234.08733,321.04177s-11.15408,18.086-35.4387,24.87569c-17.98379,5.02807-33.05845-6.35125-57.91832-1.05852L134.383,320.77709s19.83509-7.14514,25.389-18.25984c12.42994-3.17561,27.76906.79392,27.76906.79392C197.59084,320.77711,214.25224,329.7747,234.08733,321.04177Z" fill="#9c8563"/>
        <path d="M188.66193,348.751a92.17156,92.17156,0,0,1-15.53428-1.77306c-9.55095-1.635-19.4275-3.32569-32.08174-.63233L139.63,346.647l-7.06994-26.82817,1.30837-.472c.19284-.069,19.32959-7.07294,24.54453-17.50942l.31077-.6212.672-.17144c12.66314-3.23515,27.88368.62862,28.526.79487l.61784.16031.31819.55292c10.71913,18.6301,26.98252,24.86363,44.61731,17.09751l4.468-1.96677-2.56334,4.15693c-.468.7585-11.74862,18.67017-36.32281,25.54049A38.13413,38.13413,0,0,1,188.66193,348.751Zm-34.26606-6.84657a110.57825,110.57825,0,0,1,19.2443,2.07661c8.74842,1.49845,16.30269,2.79132,24.59941.47276A64.41065,64.41065,0,0,0,229.73166,324.28c-16.92053,5.12918-32.75817-1.9638-43.17543-19.64169-2.86595-.65831-15.34589-3.23366-25.75944-.80674-5.29355,9.60821-20.078,16.08-24.59719,17.87753l5.634,21.37689A66.56428,66.56428,0,0,1,154.39587,341.90446Z" fill="#3f403d"/>
      </g>
      <path d="M147.65865,314.60379s-2.88885,10.03849,2.00677,12.04823c4.89149,2.008,24.332,4.51808,28.09472,1.506s6.485-6.71914,4.76607-11.79722C179.89233,308.57968,147.65865,314.60379,147.65865,314.60379Z" fill="#1f242c"/>
      <polygon points="151.547 316.361 152.174 319.875 160.076 320.251 160.326 315.859 151.547 316.361" fill="#fdfeff"/>
    </g>
  </g>
</svg>
