<svg xmlns="http://www.w3.org/2000/svg" xmlns:xlink="http://www.w3.org/1999/xlink" width="640" height="740" viewBox="0 0 640 740"><defs><symbol id="Smyke_Smart-2" data-name="Smyke Smart" viewBox="0 0 237.25 414.343"><path d="M73.875,342.25l.87482,43.49113c10.8482,4.3717,21.65708,5.98511,29.6124.01758,2.83783-6.39087,3.30734-24.67253,4.76278-41.13371Z" fill="#e0cfa5"/><path d="M74.46155,371.4093l.28827,14.33183c10.8482,4.3717,21.65708,5.98511,29.6124.01758,1.22455-2.75781,2.13778-7.75871,2.621-13.8229Z" fill="#fff"/><path d="M74.74982,385.74113h0S54.65972,387.42705,48.375,389.65c-7.704,2.725-9.01614,9.39763-8.625,14.475.5029,6.528,7.15625,11.85938,19.25,9.75,13.30666-3.94315,29.25-8.75,46.25-21.25a4.04852,4.04852,0,0,0-.88778-6.86629C96.41276,391.693,85.58087,390.10588,74.74982,385.74113Z" fill="#603719"/><path d="M68.375,396c5.96674-2.65735,14.01672-4.65637,22.982-6.366-5.185-.12642-10.80873-1.661-16.60717-3.8929h0s-7.60791.628-14.92481,1.64241A9.80879,9.80879,0,0,1,68.375,396Z" fill="#736155"/><path d="M165.84949,342.25l-.88349,43.49113c-10.95576,4.37171-21.87181,5.98511-29.906.01758-2.866-6.39087-3.34012-24.67253-4.81-41.13371Z" fill="#e0cfa5"/><path d="M165.25713,371.4093l-.29113,14.33183c-10.95576,4.37171-21.87181,5.98511-29.906.01758-1.23669-2.75781-2.12249-7.50871-2.62824-13.63953Z" fill="#fff"/><path d="M164.966,385.74113h0s20.28928,1.68592,26.63632,3.9089c7.78035,2.725,9.10553,9.39763,8.71051,14.475-.50788,6.528-7.2272,11.85938-19.44086,9.75-13.43859-3.94314-29.54-8.75-46.70856-21.25a4.02952,4.02952,0,0,1,.89658-6.86629C143.08827,391.693,154.02756,390.10588,164.966,385.74113Z" fill="#603719"/><path d="M171.404,396c-6.02589-2.65735-14.1557-4.65637-23.20986-6.366,5.23647-.12642,10.9159-1.661,16.77184-3.89291h0s7.68334.628,15.07278,1.64242A9.83749,9.83749,0,0,0,171.404,396Z" fill="#736155"/><path d="M232.946,248.5a322.80285,322.80285,0,0,0-5.05542-33.3031c-3.5819-17.75555-11.2536-34.79614-20.89874-50.38672l.004-.008a269.35619,269.35619,0,0,0-46.59137-55.57856l-78.79217.18588C53.61231,132.11682,4.37566,193.5,5.37463,250.5L.25,250,0,265.75c32.91667,3.08333,44.6673-3.28833,44.6673-3.28833l5.662,82.455C70.75,356.31962,93.867,356.0271,113.9903,354.25l4.73919-26.41675L125.02386,353.75s37.48327,9.75,61.76215-8.73413l8.16211-83.78723C211.5,264.5,226.39477,264.91117,237.25,258.48291V248.5Z" fill="#fff"/><path d="M194.94812,261.22864a38.37845,38.37845,0,0,0-9.92834,20.65735c-1.32453,10.407.65338,19.53344,6.021,19.68676,4.21741-.4602,4.49909-13.8175,4.49909-13.8175s4.24243,1.77869,4.36187,7.77307c.24756,12.42334-4.94629,36.43457,2.18158,36.92993a7.21811,7.21811,0,0,0,6.12195-2.33984c10.7237-3.14807,27.76471-20.13013,25.5611-69.9895C224.55566,263.65405,210.60907,263.16748,194.94812,261.22864Z" fill="#e0cfa5"/><path d="M212.1875,298.6875c-.33388,11.84165-.70166,22.04749-3.98224,31.43091a21.143,21.143,0,0,0,2.26455-.83947A68.16288,68.16288,0,0,0,212.1875,298.6875Z" fill="#806442"/><path d="M221.33333,299.8125A171.5874,171.5874,0,0,1,219,323.0625l1.875-2.36441A51.95213,51.95213,0,0,0,221.33333,299.8125Z" fill="#806442"/><path d="M55.16632,283.18652c-1.62714-12.2445-10.05322-20.30578-10.49908-20.72485-11.27039,4.04321-25.22412,4.5271-40.24555,3.59448-1.04364,46.08863,15.89459,62.0437,26.68048,65.0763a6.47931,6.47931,0,0,0,6.35395,2.32592C43,332.48,39.46344,309.09741,39.7204,296.7478c.124-5.95874,4.52716-7.7268,4.52716-7.7268s.29236,13.27783,4.66955,13.73535C54.48816,302.604,56.54108,293.53174,55.16632,283.18652Z" fill="#e0cfa5"/><path d="M24.78186,298.6875c.625,11.71094,2.69531,23.25574,6.32031,32.445a6.24382,6.24382,0,0,1-2.6784-.97754C24.44653,320.924,23.42769,309.79167,24.78186,298.6875Z" fill="#806442"/><path d="M15.14009,300.41667c-.08441,7.75,2.98222,21.53914,2.98222,21.53914a12.51351,12.51351,0,0,1-1.808-2.36609C14.73139,311.91542,14.08333,306.25,15.14009,300.41667Z" fill="#806442"/><path d="M121.5,145.17779a44.53352,44.53352,0,0,1-13.23438-1.93768L122,199.362l11.78345-55.76779A46.12069,46.12069,0,0,1,121.5,145.17779Z" fill="#81a6a5"/><path d="M154.92621,129.0824a44.81288,44.81288,0,0,1-4.29712,4.79687l-1.875,19.87073L136,160c5.78925,4.807,6.75,8.95355,6.75,8.95355L121.25,206.75a136.52694,136.52694,0,0,0-21.5-37.79645l4.19336-11L92.381,153.75a234.10928,234.10928,0,0,0-2.89514-23.585A49.773,49.773,0,0,1,83.842,121.519C86.7019,138.83246,87.75,156,87.75,156l12.75,4.75-6.75,7c14.51562,16.163,26.31824,41.8855,26.31824,41.8855L116.27863,228.25S121.25,206.75,147,168.95355c0,0-3.22321-5.48907-6.5-8.20355l11.47461-4.5Z" fill="#d7dddf"/><path d="M7.25,246.715v4.20488c13.5,2.22612,32.75,0,32.75,0s-2.75-36.60721,7.45539-50.33553C56.2259,188.78619,62.92078,172.93174,69.75,150.25c-17,36.85456-27.48473,41.02335-32,50.82961-4.75,10.316-6.64783,45.14065-6.64783,45.14065S18.12231,248.199,7.25,246.715Z" fill="#d7dddf"/><path d="M230.25,245.26277l.75,4.23966c-15.65076,3.44589-33.84924-.19832-32.75,0,0,0,1.5-36.25243-7.45539-50.75183C183.02824,186.17631,177.60421,174.88449,172,150.25c17,37.15937,23.98473,39.11264,28.5,49,4.75,10.40137,6.64783,45.514,6.64783,45.514S219.37769,246.75912,230.25,245.26277Z" fill="#d7dddf"/><circle cx="117.10491" cy="237.97945" r="4.45782" fill="#8e9ba4"/><circle cx="117.60491" cy="270.97945" r="4.45782" fill="#8e9ba4"/><circle cx="118.35491" cy="308.47945" r="4.45782" fill="#8e9ba4"/><polygon points="158.395 164.372 158.395 169.502 160.443 169.5 160.443 178.375 159.502 178.375 159.502 179.813 161.25 179.813 161.25 166.75 158.395 164.372" fill="#081a33"/><path d="M167.12229,173.55221h2.00658a1,1,0,0,1,1,1v5.00987a0,0,0,0,1,0,0h-4.00658a0,0,0,0,1,0,0v-5.00987A1,1,0,0,1,167.12229,173.55221Z" fill="#d06060"/><rect x="166.12229" y="179.56209" width="4.00658" height="5.5342" fill="#e2b83d"/><path d="M140.2226,187.57526a129.18391,129.18391,0,0,0,38.34869,0v6.43914a74.70034,74.70034,0,0,1-38.34869.71546Z" fill="#c5cbd1"/><path d="M170.12885,188.54169v-3.44544h-4.00654v3.71234C167.45782,188.73871,168.79333,188.6532,170.12885,188.54169Z" fill="#a84024"/><path d="M158.39532,188.98749V162.53412l-4.46911.25.24359,26.10834C155.57831,188.94977,156.98682,188.9765,158.39532,188.98749Z" fill="#365a73"/><g id="Ear"><path d="M70.54072,60.39453c-5.73431,9.38654-5.48555,18.34845,0,26.93878A33.78191,33.78191,0,0,0,89.16042,78.75C83.05876,70.45947,77.86917,65.16187,70.54072,60.39453Z" fill="#e0cfa5"/><path d="M66.41754,72.20239c4.19592,1.24054,13.25952,3.88153,13.21857,1.6615-.03784-2.054-6.86347-7.53-10.7215-10.46338A25.14835,25.14835,0,0,0,66.41754,72.20239Z" fill="#bb9a78"/></g><g id="Ear-2" data-name="Ear"><path d="M171.01258,61.48189c5.54732,8.93291,5.30668,17.46172,0,25.6369C163.5641,86.05658,157.016,82.34046,151.75,77.818,157.65272,69.92818,163.92309,66.01883,171.01258,61.48189Z" fill="#e0cfa5"/><path d="M175.00131,72.71911c-4.05911,1.18059-12.82716,3.694-12.78754,1.5812.03661-1.95469,6.63966-7.16606,10.37189-9.95771A23.6363,23.6363,0,0,1,175.00131,72.71911Z" fill="#bb9a78"/></g><path id="Hair" d="M144.75,16c2.4353-5.26672,9.46088-9.86072,23-13.5-14.82574-.10516-29.12122.42157-37.5,8C129.97052,7.41882,132.47858,3.92981,138,0c-17.28467,2.38953-27.37659,10.96039-31.92157,24.29828C119.23218,17.70441,134.53052,19.46075,151.25,26.75c7.79016-4.9516,14.58582-6.736,26.25-5.25C166.78882,14.38489,155.79144,14.626,144.75,16Z" fill="#613519"/><path id="Head" d="M93,34.5c15.62018-17.36469,35.63776-17.60834,58.25-7.75A418.89611,418.89611,0,0,0,162,116.25s-9,29.05152-40.5,29c-31.78537-.052-40.5-30.5-40.5-30.5C83.5,90.5,90.34369,63.70465,93,34.5Z" fill="#e0cfa5"/><path d="M79.78906,60.82222h0c-1.43684,10.20112,7.47841,19.59444,17.15346,19.59444S114.75,72.34558,114.21094,60.82222Z" fill="#b99574"/><ellipse cx="97" cy="60.82222" rx="17.21094" ry="17.03316" fill="#fff"/><ellipse cx="92.38096" cy="61.9376" rx="3.22054" ry="3.30348" fill="#1d3c3c"/><g id="Eye"><path d="M161.596,60.39452h0c1.43684,10.28913-7.72841,20.02214-17.40346,20.02214S126.08834,70.40559,127.1741,60.39452Z" fill="#b99574"/><ellipse cx="144.38504" cy="60.39453" rx="17.21094" ry="16.60547" fill="#fff"/><circle cx="148.75408" cy="61.4819" r="3.22054" fill="#1d3c3c"/></g><g id="Nose"><path d="M124.375,55.75c.54,6.0298,4.16253,26.31491,1.125,33.68453C123,95.5,110.44069,93.375,110.44341,85.7282c.00453-12.773,2.13316-28.83545,2.80659-30.6032C115.25,49.875,123.625,47.375,124.375,55.75Z" fill="#d79c93"/><path d="M125.55829,89.27472c-4.64044-1.6416-4.50366,3.46417-4.50366,3.46417l.44281-.06885A5.65852,5.65852,0,0,0,125.5,89.43451C125.52081,89.384,125.53809,89.32648,125.55829,89.27472Z" fill="#8a4d44"/><path d="M115.30028,89.527c-1.07049-.7-2.50994.05357-3.13872.56113a8.948,8.948,0,0,0,4.05084,2.42334A2.966,2.966,0,0,0,115.30028,89.527Z" fill="#8a4d44"/></g><path id="Brow" d="M79.63611,52.33331C82.6712,42.45251,91.173,36.48462,103.25,35.585a.70762.70762,0,0,1,0,1.415A29.49628,29.49628,0,0,0,79.63611,52.33331Z" fill="#60381a"/><path id="Brow-2" data-name="Brow" d="M132.42609,35.9776c-1.41328.13239-1.37522,1.58071,0,1.44946,10.324-.98529,21.231,1.00867,27.93048,9.16736C156.19025,37.85217,146.22,34.68541,132.42609,35.9776Z" fill="#60381a"/><path id="Mouth" d="M87.75,113.25l.41669.66669c15.49749-9.23371,32.46972-1.7793,49.91662,11.66662C121.61743,109.67841,104.93829,101.83582,87.75,113.25Z" fill="#703b57"/><circle cx="96.87667" cy="60.47958" r="16.52042" fill="none" stroke="#2b2c2c" stroke-miterlimit="10" stroke-width="3"/><ellipse cx="144.55292" cy="60.39453" rx="16.90802" ry="16.60547" fill="none" stroke="#2b2c2c" stroke-miterlimit="10" stroke-width="3"/><path d="M110.71326,60.39453a26.62824,26.62824,0,0,1,18.71,0" fill="none" stroke="#2b2c2c" stroke-miterlimit="10" stroke-width="4"/><line x1="77.12173" y1="60.39453" x2="79.78906" y2="60.39453" fill="none" stroke="#2b2c2c" stroke-miterlimit="10" stroke-width="4"/><line x1="161.62173" y1="60.39453" x2="164.8265" y2="60.39453" fill="none" stroke="#2b2c2c" stroke-miterlimit="10" stroke-width="4"/></symbol><symbol id="Smyke-2" data-name="Smyke" viewBox="0 0 229.591 414.343"><path d="M69.25468,342.25l.87482,43.49113c10.84821,4.3717,21.65708,5.98511,29.61241.01758,2.83783-6.39087,3.30733-24.67253,4.76277-41.13371Z" fill="#e0cfa5"/><path d="M69.84123,371.4093l.28827,14.33183c10.84821,4.3717,21.65708,5.98511,29.61241.01758,1.22455-2.75781,2.13777-7.82121,2.62718-13.88477Z" fill="#fff"/><path d="M70.1295,385.74113h0S50.03941,387.42705,43.75468,389.65c-7.704,2.725-9.01614,9.39763-8.625,14.475.5029,6.528,7.15625,11.85938,19.25,9.75,13.30666-3.94315,29.25-8.75,46.25-21.25a4.04852,4.04852,0,0,0-.88777-6.86629C91.79244,391.693,80.96056,390.10588,70.1295,385.74113Z" fill="#603719"/><path d="M63.75468,396c5.96674-2.65735,14.01673-4.65637,22.982-6.366-5.18506-.12642-10.80873-1.661-16.60718-3.8929h0s-7.60791.628-14.9248,1.64241A9.80878,9.80878,0,0,1,63.75468,396Z" fill="#736155"/><path d="M161.22917,342.25l-.88349,43.49113c-10.95576,4.37171-21.87181,5.98511-29.906.01758-2.866-6.39087-3.34012-24.67253-4.81-41.13371Z" fill="#e0cfa5"/><path d="M160.63681,371.4093l-.29113,14.33183c-10.95576,4.37171-21.87181,5.98511-29.906.01758-1.23668-2.75781-2.12249-7.82121-2.63392-13.695Z" fill="#fff"/><path d="M160.34568,385.74113h0S180.635,387.42705,186.982,389.65c7.78035,2.725,9.10554,9.39763,8.71052,14.475-.50788,6.528-7.2272,11.85938-19.44086,9.75-13.43859-3.94314-29.54-8.75-46.70856-21.25a4.02952,4.02952,0,0,1,.89657-6.86629C138.468,391.693,149.40724,390.10588,160.34568,385.74113Z" fill="#603719"/><path d="M166.78371,396c-6.0259-2.65735-14.1557-4.65637-23.20986-6.366,5.23646-.12642,10.9159-1.661,16.77183-3.89291h0s7.68335.628,15.07279,1.64242A9.83747,9.83747,0,0,0,166.78371,396Z" fill="#736155"/><path d="M46.62968,272.42264l3.161,67.744C70.50753,347.567,90.90352,351.22583,110.945,350.75l3.31276-28.66675L118.335,350a114.5809,114.5809,0,0,0,60.63869-6.83337l7.69833-67.11109C142.31322,310.35632,90.86283,303.19656,46.62968,272.42264Z" fill="#917d4a"/><path d="M156.44228,110.54269a725.0708,725.0708,0,0,0,22.677,73.37027l23.50628-19.11077A245.85672,245.85672,0,0,0,156.44228,110.54269Z" fill="#465d5d"/><path d="M223.52025,215.1969q-.56488-2.80014-1.2602-5.5614c-7.51873,11.30224-17.80725,18.37414-28.44824,20.69867,2.01032,11.37689,1.52588,21.36267-3.0058,30.66266A38.36394,38.36394,0,0,0,180.64946,281.886c-1.32452,10.407.65338,19.53344,6.021,19.68676,4.2174-.4602,4.49908-13.8175,4.49908-13.8175s4.24243,1.77869,4.36188,7.77307c.24756,12.42334-4.94629,36.43457,2.18158,36.92993a7.21813,7.21813,0,0,0,6.12195-2.33984C217.29637,326.16663,240.713,300.41663,223.52025,215.1969Z" fill="#e0cfa5"/><path d="M202.61961,164.807l-23.50006,19.10571c.22724.62073.45655,1.25128.68213,1.8642,6.35693,17.27325,11.7544,31.7912,14.01013,44.55725,10.641-2.32453,20.92951-9.39643,28.44824-20.69867C218.18132,193.37909,210.90025,178.19128,202.61961,164.807Z" fill="#fff"/><path d="M202.61961,164.807l-23.50006,19.10571c.22724.62073.45655,1.25128.68213,1.8642,6.35693,17.27325,11.7544,31.7912,14.01013,44.55725,10.641-2.32453,20.92951-9.39643,28.44824-20.69867C218.18132,193.37909,210.90025,178.19128,202.61961,164.807Z" fill="#fff"/><path d="M76.37968,114.75c-7.65171,29.03448-16.25089,50.79493-23.99547,71.0456L27.99077,166.80123A209.737,209.737,0,0,1,76.37968,114.75Z" fill="#465d5d"/><path d="M6.3005,216.89368q.58629-2.7835,1.308-5.52836c7.80368,11.2351,18.48211,18.265,29.52638,20.5757-2.08651,11.3093-1.58371,21.23576,3.11971,30.48049,0,0,8.87015,8.18788,10.54147,20.76506,1.37472,10.34516-.67814,19.4174-6.24918,19.56981-4.37724-.45747-4.66959-13.73542-4.66959-13.73542s-4.40322,1.76812-4.52719,7.7269c-.25694,12.34953,3.27963,35.73208-2.26426,36.71053a6.47938,6.47938,0,0,1-6.354-2.32594C12.76025,327.20414-11.54383,301.60712,6.3005,216.89368Z" fill="#e0cfa5"/><path d="M27.99077,166.80123,52.3839,185.79536c-.23585.617-.47385,1.24385-.708,1.85312-6.59785,17.17064-12.19987,31.60233-14.54109,44.29254-11.04427-2.31071-21.7227-9.3406-29.52638-20.5757C11.84176,195.20549,19.39631,180.106,27.99077,166.80123Z" fill="#fff"/><path d="M27.99077,166.80123,52.3839,185.79536c-.23585.617-.47385,1.24385-.708,1.85312-6.59785,17.17064-12.19987,31.60233-14.54109,44.29254-11.04427-2.31071-21.7227-9.3406-29.52638-20.5757C11.84176,195.20549,19.39631,180.106,27.99077,166.80123Z" fill="#fff"/><path d="M179.11961,183.91284l-.00036.00012c-7.07917-19.32708-14.50049-41.74066-21.53846-68.92883q-.228-.72931-.45581-1.45825L76.37968,114.75C68.728,143.78448,60.12877,165.54492,52.3842,185.79559l-.0003-.00024c-12.5727,32.89587-22.40155,56.43579-12.12934,76.62616,6.91229,6.38074,10.27674,15.9237,10.89,24.12817,19.4162,19.00074,37.14581,23.85559,65.453,23.51111,23.75659-.28906,42.0614-6.55322,63.74829-25.22632.68451-8.16809,3.94543-17.55884,10.46014-23.83764C200.69151,240.70959,191.26433,217.08813,179.11961,183.91284Z" fill="#81a6a5"/><path d="M158.07555,116.88574l-.4242-.62408c-.70117,2.0332-7.88873,21.41864-28.32989,27.29718l2.80822,19.77447c13.20514-2.98016,23.64795-12.73138,29.16419-34.55853Q159.67467,122.98379,158.07555,116.88574Z" fill="#fff"/><circle cx="115.98145" cy="154.85177" r="3.10177" fill="#465d5d"/><circle cx="115.98145" cy="165.85177" r="3.10177" fill="#465d5d"/><circle cx="115.98145" cy="177.10177" r="3.10177" fill="#465d5d"/><path d="M139.45941,173.63524l24.758.42191s-.3988,13.14607-2.15734,16.03274c-4.81926,7.91089-16.9048,6.53967-20.34056.84383C139.32476,186.96373,139.45941,173.63524,139.45941,173.63524Z" fill="#465d5d"/><path d="M207.81718,298.6875c-.33387,11.84165-.70166,22.04749-3.98223,31.43091a21.14206,21.14206,0,0,0,2.26454-.83947A68.16274,68.16274,0,0,0,207.81718,298.6875Z" fill="#806442"/><path d="M216.963,299.8125a171.58581,171.58581,0,0,1-2.33334,23.25l1.875-2.36441A51.95214,51.95214,0,0,0,216.963,299.8125Z" fill="#806442"/><path d="M20.41154,298.6875c.625,11.71094,2.69532,23.25574,6.32032,32.445a6.24386,6.24386,0,0,1-2.67841-.97754C20.07622,320.924,19.05737,309.79167,20.41154,298.6875Z" fill="#806442"/><path d="M10.76978,300.41667c-.08442,7.75,2.98222,21.53914,2.98222,21.53914a12.51355,12.51355,0,0,1-1.80805-2.36609C10.36107,311.91542,9.713,306.25,10.76978,300.41667Z" fill="#806442"/><g id="Ear-3" data-name="Ear"><path d="M65.9204,60.39453c-5.7343,9.38654-5.48555,18.34845,0,26.93878A33.78191,33.78191,0,0,0,84.54011,78.75C78.43844,70.45947,73.24885,65.16187,65.9204,60.39453Z" fill="#e0cfa5"/><path d="M61.79723,72.20239c4.19592,1.24054,13.25952,3.88153,13.21856,1.6615-.03784-2.054-6.86346-7.53-10.72149-10.46338A25.14814,25.14814,0,0,0,61.79723,72.20239Z" fill="#bb9a78"/></g><g id="Ear-4" data-name="Ear"><path d="M166.39226,61.48189c5.54732,8.93291,5.30668,17.46172,0,25.6369-7.44848-1.06221-13.9966-4.77833-19.26256-9.30075C153.03241,69.92818,159.30278,66.01883,166.39226,61.48189Z" fill="#e0cfa5"/><path d="M170.381,72.71911c-4.0591,1.18059-12.82716,3.694-12.78754,1.5812.03661-1.95469,6.63966-7.16606,10.37189-9.95771A23.63588,23.63588,0,0,1,170.381,72.71911Z" fill="#bb9a78"/></g><path id="Hair-2" data-name="Hair" d="M140.12968,16c2.43531-5.26672,9.46088-9.86072,23-13.5-14.82574-.10516-29.12121.42157-37.5,8-.27948-3.08118,2.22858-6.57019,7.75-10.5C116.095,2.38953,106.0031,10.96039,101.45811,24.29828c13.15375-6.59387,28.45209-4.83753,45.17157,2.45172,7.79017-4.9516,14.58582-6.736,26.25-5.25C162.1685,14.38489,151.17113,14.626,140.12968,16Z" fill="#613519"/><path id="Head-2" data-name="Head" d="M88.37968,34.5c15.62018-17.36469,35.63776-17.60834,58.25-7.75a411.5019,411.5019,0,0,0,11.08686,89.31989s-9.33686,29.23163-40.83686,29.18011c-31.78537-.052-40.5-30.5-40.5-30.5C78.87968,90.5,85.72337,63.70465,88.37968,34.5Z" fill="#e0cfa5"/><path d="M76.37968,114.75c-1.26715,4.80817-1.9425,7.18677-3.25341,11.62213,4.48095,18.15521,13.06465,32.80371,28.33675,36.96118l2.54844-19.98736C82.66838,136.68365,76.37968,114.75,76.37968,114.75Z" fill="#fff"/><path d="M75.16875,60.39453h0C73.73191,70.33951,82.64716,79.497,92.32221,79.497s17.80747-7.86841,17.26841-19.10243Z" fill="#b99574"/><ellipse cx="92.37968" cy="60.39453" rx="17.21094" ry="16.60547" fill="#fff"/><circle cx="87.76064" cy="61.4819" r="3.22054" fill="#1d3c3c"/><g id="Eye-2" data-name="Eye"><path d="M156.97566,60.39453h0c1.43685,9.945-7.72841,19.35243-17.40345,19.35243S121.468,70.07075,122.55379,60.39453Z" fill="#b99574"/><ellipse cx="139.76473" cy="60.39453" rx="17.21094" ry="16.60547" fill="#fff"/><circle cx="144.13377" cy="61.4819" r="3.22054" fill="#1d3c3c"/></g><g id="Nose-2" data-name="Nose"><path d="M119.75468,55.75c.54,6.0298,4.16253,26.31491,1.125,33.68453-2.5,6.06547-15.0593,3.94047-15.05659-3.70633.00454-12.773,2.13317-28.83545,2.80659-30.6032C110.62968,49.875,119.00468,47.375,119.75468,55.75Z" fill="#d79c93"/><path d="M120.938,89.27472c-4.64044-1.6416-4.50366,3.46417-4.50366,3.46417l.44281-.06885a5.6585,5.6585,0,0,0,4.00256-3.23553C120.9005,89.384,120.91777,89.32648,120.938,89.27472Z" fill="#8a4d44"/><path d="M110.68,89.527c-1.0705-.7-2.50994.05357-3.13873.56113a8.94811,8.94811,0,0,0,4.05085,2.42334A2.966,2.966,0,0,0,110.68,89.527Z" fill="#8a4d44"/></g><path id="Brow-3" data-name="Brow" d="M75.01579,52.33331c3.0351-9.8808,11.53693-15.84869,23.61389-16.74829a.70762.70762,0,0,1,0,1.415A29.49628,29.49628,0,0,0,75.01579,52.33331Z" fill="#60381a"/><path id="Brow-4" data-name="Brow" d="M127.80577,35.9776c-1.41328.13239-1.37522,1.58071,0,1.44946,10.324-.98529,21.231,1.00867,27.93048,9.16736C151.56993,37.85217,141.59966,34.68541,127.80577,35.9776Z" fill="#60381a"/><path id="Mouth-2" data-name="Mouth" d="M83.12968,113.25l.41669.66669c15.4975-9.23371,32.46973-1.7793,49.91663,11.66662C116.99712,109.67841,100.318,101.83582,83.12968,113.25Z" fill="#703b57"/></symbol></defs><title>character-smyke-full</title><g id="Smyke"><path d="M598.044,269.85134c70.0635-50.25753,23.38969-198.81482-65.72073-248.50751C421.22712-40.60928,351.667,51.59263,307.266,55.83351c-42.70212,4.07862-145.26332-9.70843-218.60468,28.411C-5.31319,133.088,53.50238,234.33333,53.50238,234.33333S-59.72,511.75972,48.064,645.12287c-35.72449,25.63239-15.30691,79.83364,32.549,89.49335,97.67474,19.71561,276.39859-21.0621,276.39859-21.0621S498.132,732.595,547.77382,671.14666C723.71958,646.0657,598.044,269.85134,598.044,269.85134Z" fill="#377784"/><use id="Smyke_Smart-4" data-name="Smyke Smart" width="237.25" height="414.34308" transform="translate(323.05464 183.15) scale(1.2344 1.23333)" xlink:href="#Smyke_Smart-2"/><use id="Smyke-4" data-name="Smyke" width="229.59069" height="414.34308" transform="translate(26.02084 183.15) scale(1.2344 1.23333)" xlink:href="#Smyke-2"/></g></svg>