<svg xmlns="http://www.w3.org/2000/svg" width="600" height="600" viewBox="0 0 600 600">
  <title>character-wendel-and-sally-full</title>
  <g id="Background">
    <path d="M450.71326,117.44816C429.3823-43.40142,123.95625-16.86628,49.94858,65.385-3.47514,124.75944,43.95531,280,85.1448,320-59.01841,480-18.56769,640,194.74183,560c43.21082,40,257.5083,67.69922,353.56027-4.27686,55.8782-41.87207-7.68622-146.62248-7.68622-146.62248C672.49976,303.01826,556.58681,38.15493,450.71326,117.44816Z" fill="#8bbad8"/>
  </g>
  <g id="Olivia">
    <g>
      <g>
        <path d="M331.34386,419.21651c-4.52818,2.30492-9.03276,4.65986-13.5897,6.90372-7.94875,3.91405-15.88812,7.86427-24.38157,10.45063a46.02785,46.02785,0,0,1-13.97673,2.29829,16.81017,16.81017,0,0,1-4.23545-.52315,89.03032,89.03032,0,0,0,7.33211-9.10744,10.297,10.297,0,0,1,1.35395-2.19809c5.703-8.51162,10.68363-17.47529,15.78057-26.36607a27.55259,27.55259,0,0,0,1.3724-2.48564,141.31431,141.31431,0,0,1,8.908-13.16828,47.30017,47.30017,0,0,1,12.52628-11.05822c2.06273-1.23419,4.35437-1.18734,6.57183-1.53753,5.96384-.94184,11.95441-1.77735,17.69589-3.75181a120.00512,120.00512,0,0,0,13.7283-5.34812,33.106,33.106,0,0,0,3.71229-2.11144,9.01974,9.01974,0,0,1,1.57921-.966c-1.47632.84719-3.32218,1.36589-5.06708,2.13743-.4359.19274-.88469.454-1.39367.20225a29.64281,29.64281,0,0,1-4.15452-7.12264,62.562,62.562,0,0,1-5.11334-16.92732,29.47738,29.47738,0,0,1-.50141-5.45657,42.07465,42.07465,0,0,0,.95089,17.306,84.76691,84.76691,0,0,0,4.41813,12.36166,2.00877,2.00877,0,0,1,.29335,1.30387c-.27463.613-.88472.67327-1.40178.87522a67.05721,67.05721,0,0,1-9.30844,2.36336c-1.38254.32331-2.74819.71863-4.13913,1.00114a2.3772,2.3772,0,0,1-1.66389.04182,23.17371,23.17371,0,0,1-3.3856-7.50954,68.95292,68.95292,0,0,1-2.261-12.31256c-.28524-2.36834-.53857-4.74077-.63872-7.12682.001-.16639-.20949.03762-.06174-.03092.03408-.01579.05119.02151.05291.11185a42.66591,42.66591,0,0,1-.68382,5.28035,45.93747,45.93747,0,0,0,2.479,20.5049,2.6887,2.6887,0,0,1,.32342,1.55345,1.21271,1.21271,0,0,1-1.17629.73822c-1.29813.03073-2.57285.35192-3.8735.30822a20.61741,20.61741,0,0,0-6.12854.778c-.53727.146-1.08538.39941-1.6479.06875a17.78065,17.78065,0,0,1-2.998-5.48712,56.77747,56.77747,0,0,1-3.8024-18.841c-.00559-.41054.015-.82253-.018-1.23342-.02689-.3344-.19772-.65216-.12027-.81984a11.053,11.053,0,0,1,.13622,2.0484,47.909,47.909,0,0,1-.71386,7.89157,26.66736,26.66736,0,0,0,2.53529,14.44507c.52322,1.16357,1.06542,2.31795,1.48952,3.52375.07228.6394-.34846.97759-.78335,1.29033-6.25285,4.49654-10.79276,10.50285-14.53925,17.21265a55.89767,55.89767,0,0,0-3.26936,6.77741,1.69056,1.69056,0,0,0-.05725,1.35326,2.14438,2.14438,0,0,1-1.24637.42841c-9.05561,1.90937-18.16681,3.51256-27.29251,5.01446-8.44321,1.38956-16.9248,2.50813-25.43516,3.41063-4.83493.51275-9.666,1.08645-14.49828,1.63068-7.09154.79868-14.19944,1.51341-21.21379,2.82848-11.40694,2.1386-22.911,3.68532-34.28693,5.99859a179.169,179.169,0,0,0-18.31876,5.01552A300.19911,300.19911,0,0,0,127.135,434.99906a86.8652,86.8652,0,0,0-7.75713,4.39076c-1.7692.714-3.55376,1.39092-5.30493,2.14847-7.56258,3.27163-13.57465,8.63282-18.99388,14.78809-5.31553,6.03749-10.14111,12.5023-15.52051,18.487a85.098,85.098,0,0,1-38.57484,24.898c-1.59168.49631-1.57554.50387-1.35012-1.21007a121.30562,121.30562,0,0,1,11.00513-35.85819,126.93859,126.93859,0,0,1,16.94-26.88136c.48133-.584.65473-.92628-.02606-1.56675-10.05318-9.45785-18.4599-20.33116-26.01612-31.91479a253.31,253.31,0,0,1-15.70383-27.00006,87.57835,87.57835,0,0,1-5.6124-14.26306c-.39052-1.35861-.37857-1.34992,1.0139-1.11091,16.90662,2.902,32.02309,10.02436,45.91594,20.14316a151.19977,151.19977,0,0,0,23.88024,14.77974c7.41276,3.52358,15.10763,5.97154,23.3588,6.09223a42.883,42.883,0,0,0,11.09245-1.11116c.8901-.18526.80445.54336.80121,1.0112-.01377,1.98872.259,3.95806.31091,5.94493a28.83563,28.83563,0,0,0,1.96013,10.17457,9.74071,9.74071,0,0,0,1.76761,2.91063,48.6067,48.6067,0,0,1,1.66626-20.525,2.10326,2.10326,0,0,1,.60264-1.19q2.64914-.74438,5.29791-1.49c.37357-.1056.80918-.09624,1.01547-.53616,4.845-1.35262,9.68589-2.72083,14.50257-4.17544,4.15809-1.2557,8.32718-2.47577,12.43234-3.90919.5948-.20767,1.20333-.57181,1.86069-.15643a2.9838,2.9838,0,0,1,.48053,2.12331,49.23188,49.23188,0,0,0,2.512,14.88208,22.7699,22.7699,0,0,1,1.063,2.88284,16.10873,16.10873,0,0,1-.5515-3.691c-.32655-5.31-.25292-10.60129,1.24369-15.76119.303-1.04478.40232-2.24019,1.49485-2.87229,7.94028-2.79024,15.76513-5.89465,23.57079-9.05137.41218-.16668.8308-.31668,1.24643-.47443.38116.43391.22813.93628.16348,1.42056a67.69151,67.69151,0,0,0-.7691,8.14948,55.33667,55.33667,0,0,0,1.28294,12.19511,21.78249,21.78249,0,0,1,.57561,3.84879c-.54223-5.61048.27233-11.25909,1.2993-16.88663a82.09368,82.09368,0,0,1,2.57121-9.70448,3.38241,3.38241,0,0,1,1.00828-1.66673l8.92568-3.77587c.50927-.7862,1.40213-.93787,2.15118-1.27639,3.09313-1.3979,6.143-2.88795,9.202-4.35971.46453-.22349.94871-.74014,1.52695-.183a1.49074,1.49074,0,0,1,.18411.8377,106.06622,106.06622,0,0,0,.214,10.68087,66.19868,66.19868,0,0,0,2.43179,14.79965,2.68051,2.68051,0,0,1,.27006,1.82912,6.08865,6.08865,0,0,0-.02424-1.89781c.12724-5.178.5012-10.33422,1.08692-15.4803.55408-4.86831,1.56958-9.64488,2.53669-14.43168-.00695-.4438.28726-.64495.62461-.826,9.00909-4.83481,17.743-10.15384,26.38224-15.64133.43857-.27856.95356-.91586,1.55767-.18153.00894,2.61-.23,5.21-.37791,7.80858a82.94846,82.94846,0,0,0,1.48857,22.239,45.86,45.86,0,0,0,1.60125,5.34466,22.10406,22.10406,0,0,0,2.39938,4.84072c-.38626-2.88226-.66817-5.9292-.78642-8.99611a119.69643,119.69643,0,0,1,2.3347-27.30346c.55512-2.88633,1.01725-5.78931,1.73215-8.64269a4.97971,4.97971,0,0,1,.93048-1.99732c8.18458-5.44825,16.25054-11.07717,24.3242-16.69436.811.20287.55883.9106.58824,1.42083a121.41168,121.41168,0,0,0,1.23331,13.23225,52.48993,52.48993,0,0,0,5.20068,16.54479,137.51321,137.51321,0,0,1-.06046-23.97435,106.70176,106.70176,0,0,1,1.80141-12.16474,3.50882,3.50882,0,0,1,.49315-1.2606c3.00152-2.03389,6.02117-4.04051,9.0007-6.1076,5.52907-3.83587,11.03472-7.707,16.55014-11.56351.54523.725.34523,1.58371.39642,2.39182.23791,3.7548.33259,7.51861.80147,11.258a69.11471,69.11471,0,0,0,5.957,20.86217,172.61033,172.61033,0,0,1-2.92372-21.08421c-.28984-3.51065-.50657-7.01369-.44594-10.5352a25.26037,25.26037,0,0,1,.87831-5.50352,1.89346,1.89346,0,0,1,.45818-.86341,14.10863,14.10863,0,0,1,3.19992-2.42007,178.03849,178.03849,0,0,1,22.9387-13.941c.43334-.21028.89506-.3596,1.34355-.53732.34009.48762.06928.96246-.05086,1.42565a82.83959,82.83959,0,0,0-2.45653,25.38185,88.77129,88.77129,0,0,0,3.97373,21.69835,119.5281,119.5281,0,0,0,7.04942,17.584c.25262.50877.42425,1.05181.61175,1.43116a63.70612,63.70612,0,0,1-1.14272-6.559c-.84981-5.27485-1.58043-10.56847-2.13623-15.88382-.24956-2.38643-.41766-4.78694-.52021-7.18464-.52322-12.23548.31925-24.28045,5.003-35.7563.76487-1.874,1.56355-3.735,2.50463-5.52607a6.52008,6.52008,0,0,1,1.613-2.30424c5.28334-1.53048,10.605-2.90391,15.97636-4.07336.78317-.17413.66309.364.57093.80467-.14353.68653-.41392,1.33951-.562,2.02745-.12712.59038-.19311,1.1915.37512,1.56855.52057.34542,1.04241.05534,1.46869-.24457,1.61688-1.1376,2.84905-2.48986,2.253-4.73994a.524.524,0,0,1,.07561-.35608l6.72748-1.23276c.22838.53367-.06176.97476-.27891,1.40345-3.31514,6.54417-4.7455,13.62216-5.658,20.8457A124.05664,124.05664,0,0,0,397.357,302.3617c.05719,8.84868.75884,17.631,3.86268,26.02475.45892,1.24107,1.12344,2.38983,1.52157,3.65294.10179.34449.42675.62093.41059.74411.002-.16385-.3269-.491-.436-.88649a32.93705,32.93705,0,0,1-1.82874-9.09083,73.76683,73.76683,0,0,1,.0178-12.90207c.9018-10.60975,1.84341-21.21839,5.32775-31.37011a53.332,53.332,0,0,1,7.36056-14.6408,4.22339,4.22339,0,0,1,1.4995-1.41221l.00975-.00441c.39326-.23832.86368.03079,1.25808-.2,6.59916-.50755,13.20279-.93875,19.816-1.20266,1.25027-.0499,2.50128-.08009,3.752-.11938a5.2708,5.2708,0,0,1,4.46962,1.21525c3.11813,2.43821,5.61094,5.48732,8.27354,8.36676a56.60591,56.60591,0,0,1,8.41546,11.80895c2.06989,3.88151,4.17989,7.76217,5.29935,12.08625a5.71746,5.71746,0,0,1,.23366.79854,11.51325,11.51325,0,0,0-.32143-1.16468c-1.1868-4.32136-1.47807-8.825-2.59233-13.15958a45.07985,45.07985,0,0,0-4.41466-11.67741,15.1932,15.1932,0,0,0-2.69-3.51178,39.45123,39.45123,0,0,1-3.195-3.58176c-.29047-.34716-.60206-.76535-.39864-1.23389.21115-.48628.72126-.25745,1.09533-.259,3.894-.01571,7.78812-.00654,11.6822-.01441a2.65712,2.65712,0,0,0,1.1989-.09275l3.11383-.0186a11.4233,11.4233,0,0,1,3.16828,3.02c3.73158,4.52325,6.09188,9.8217,8.1186,15.28714,1.6326,4.40278,3.05254,8.88271,4.29523,13.41815a6.30235,6.30235,0,0,0,.30131,1.33723c-.24112-.61309-.24249-1.435-.52146-2.19057-.94767-4.74266-1.41233-9.56261-2.26125-14.32137a74.06629,74.06629,0,0,0-4.02962-15.03814c-.2539-.62406-.73044-1.22171-.48189-1.98513,5.54582-.14223,11.06959-.00722,16.47768,1.45777a23.30016,23.30016,0,0,1,4.89535,1.73432,2.8566,2.8566,0,0,1,.58819,1.21033c1.27555,5.39858,3.2195,10.5892,4.738,15.91191a57.7631,57.7631,0,0,1,2.20991,10.79713,3.07,3.07,0,0,1-.16685,1.54248,53.4125,53.4125,0,0,0,1.03568-6.57731c.56252-5.41509.06488-10.82621.00285-16.23915-.00737-.64024-.16614-1.34177.3826-1.87585a72.04272,72.04272,0,0,1,12.33985,9.68632c.3747.5764-.11587.9216-.36976,1.2904a15.53852,15.53852,0,0,0-2.42561,5.10477,1.85287,1.85287,0,0,0,.2949,1.9717c.64481.60782,1.37888.34591,2.05316.05394a4.0351,4.0351,0,0,0,2.35395-3.62484c.08574-.78848-.16239-1.56044-.08515-2.34728.08366-.184.193-.323.4217-.25121A156.63182,156.63182,0,0,0,559.3982,307.55c-.11925.79763-.80293.699-1.30864.81754a36.39468,36.39468,0,0,1-5.663.72643,85.401,85.401,0,0,1-12.00978-.07c-8.81785-.59445-17.5622-1.84948-26.31908-3.013-4.61419-.6131-9.24768-1.092-13.89966-1.39383a96.85833,96.85833,0,0,0-16.62123.08846,69.38935,69.38935,0,0,0-22.35616,6.02844,6.73654,6.73654,0,0,1-2.38475.87364c-.5496-.233-.45557-.73619-.41985-1.16865a16.49934,16.49934,0,0,0-13.91265-17.66118c-6.80972-.88458-12.77741,2.19417-16.35192,8.234a7.66127,7.66127,0,0,1-.932,1.45,14.92654,14.92654,0,0,0-3.29417,13.74609A15.94459,15.94459,0,0,0,434.926,328.05046c.33533.11484.73846.09384.92242.49875-1.97437,1.62988-3.82257,3.40575-5.711,5.13681-2.1707,1.98982-4.34389,3.979-6.48422,6.00066-8.73,8.246-17.64057,16.25415-27.69258,22.82217-2.15216,1.40621-4.24169,2.91162-6.38645,4.32992a5.39014,5.39014,0,0,0-1.7359,1.87009,114.1177,114.1177,0,0,1-14.402,19.34472,99.97255,99.97255,0,0,1-14.26081,13.46935,218.79906,218.79906,0,0,1-18.57636,12.51342c-2.82811,1.69956-5.609,3.48136-8.57393,4.93209C331.80186,419.07771,331.5614,419.108,331.34386,419.21651Z" fill="#677987"/>
        <path d="M458.69616,311.48091a72.9806,72.9806,0,0,1,22.33211-6.851,92.17152,92.17152,0,0,1,18.6457-.42052c4.40331.27345,8.78481.7348,13.15829,1.30757q7.15623.93722,14.318,1.82956c5.659.70505,11.32551,1.28123,17.03111,1.4808a69.091,69.091,0,0,0,13.89509-.80288,1.97822,1.97822,0,0,0,1.32177-.47444c.76134.26756.70661.72716.35022,1.33207a77.42706,77.42706,0,0,1-6.15195,8.97974,21.508,21.508,0,0,1-5.34528,5.10035c-4.18162.157-8.2211-.82139-12.20153-1.88023-7.332-1.95035-14.82452-2.7641-22.30116-3.74546a108.22613,108.22613,0,0,0-12.84194-.98231,117.29023,117.29023,0,0,0-18.14866,1.56017c-3.73508.54081-7.46178,1.15125-11.14309,1.97348a34.94641,34.94641,0,0,0-10.12328,4.47033,44.7084,44.7084,0,0,0-8.07446,6.16714c-2.91581,2.79536-5.51332,5.8624-6.591,9.95817a8.9704,8.9704,0,0,0,1.68,8.18109,7.27236,7.27236,0,0,0,7.542,2.91194,33.75155,33.75155,0,0,0,10.66281-4.4033c2.191-1.26111,4.36851-2.54621,6.54349-3.83485a38.679,38.679,0,0,1,12.79227-4.92121,129.21642,129.21642,0,0,1,25.12713-2.57156c6.46354.08414,12.88169.77025,18.89876,3.511.79212.36081,1.73064.55412,2.107,1.53112a10.94978,10.94978,0,0,1-2.61681,3.97606,35.84466,35.84466,0,0,1-18.22406,11.24155,59.78,59.78,0,0,1-8.371,1.20451c-3.48713.3575-6.96712.7864-10.45128,1.17467-1.123.12514-2.25352.14474-3.38053.25186a51.19312,51.19312,0,0,1-6.90306.26164c-1.68661-.06856-2.85188.806-4.0563,1.68387-7.2792,5.30584-14.5763,10.59343-22.319,15.17339-6.26966,3.70864-12.848,6.81563-19.43535,9.89493-5.7039,2.66633-11.429,5.2813-17.21331,7.75735-6.37742,2.72992-12.71779,5.55748-19.25439,7.88223-.87631.31165-1.75.631-2.6249.9468a5.96028,5.96028,0,0,1-1.59766.87275q-11.147,3.90348-22.52924,7.01609c-7.1198,1.93435-14.28891,3.66112-21.49279,5.23573-.57553.12582-1.16423.41188-1.7665.07387-4.378.90912-8.75281,1.83475-13.13553,2.71945-1.81258.36589-3.64212.64412-5.464.96212,3.90639-2.34784,7.85407-4.62725,11.71013-7.0586A176.13307,176.13307,0,0,0,361.976,398.8878a118.74821,118.74821,0,0,0,14.623-14.87894,102.17055,102.17055,0,0,0,11.3524-16.09226,3.2805,3.2805,0,0,1,1.13451-1.08271c6.993-4.79864,14.11732-9.404,20.59557-14.94955,4.41011-3.77519,8.70141-7.685,12.95867-11.63616q5.80227-5.38509,11.601-10.77426c.439-.406.8682-.8969,1.56426-.81928.499-.38626,1.01785-.10525,1.51183-.01437a16.80336,16.80336,0,0,0,17.42523-8.29553,2.22853,2.22853,0,0,0,.44119-1.117,17.0681,17.0681,0,0,0,3.01062-6.94194A1.03588,1.03588,0,0,1,458.69616,311.48091Z" fill="#ced7dc"/>
        <path d="M301.2056,398.36166c-1.59038,2.83011-3.15617,5.675-4.77593,8.48747-4.1916,7.27791-8.31008,14.60346-13.14159,21.47241a2.50828,2.50828,0,0,1-.79556.917c-.38881-1.8367-1.25963-2.4452-2.91582-2.24578-2.43864.2936-4.88727.50611-7.33471.71614-3.93447.33764-7.871.65031-11.80752.96234-1.32683.10516-2.658.13635-3.98669.231-3.98657.284-7.989.32774-11.97873.57465-5.4413.33675-10.88751.52349-16.33222.76591-3.913.17421-7.8235.37439-11.73953.49607-3.06185.09513-6.11444.47511-9.18565.40808.0331-.75374.66329-.98657,1.13951-1.33888a102.7284,102.7284,0,0,1,9.811-6.35516,11.05156,11.05156,0,0,0-3.47732-.07147c-2.4548.33672-4.92644.19816-7.38806.40515a135.91644,135.91644,0,0,0-13.96715,1.77319,2.37231,2.37231,0,0,0-1.64512,1.15276c-.67655,1.08262-1.27837,2.20787-1.899,3.32341-.30224.54322-.469,1.26538-1.2309,1.41111-3.63872.00227-7.28714-.1628-10.91327.05674-3.23083.19563-6.45667.05727-9.67946.21039-4.29946.20429-8.59621.47318-12.89172.75329a10.86316,10.86316,0,0,0-1.87069.45376,162.65972,162.65972,0,0,0-23.39592,3.71795c-1.44285.34753-1.492.4362-1.53737,2.02607-.01941.67988.1955,1.42518-.385,1.99884a4.07156,4.07156,0,0,1-.22116-2.17358c-.033-1.57875-.01907-1.60846-1.45443-1.18573-2.28231.67218-4.55239,1.38781-6.82768,2.085a28.714,28.714,0,0,1,7.99651-4.86606,288.47448,288.47448,0,0,1,34.66835-13.26713,172.51558,172.51558,0,0,1,21.64786-4.976c9.01488-1.5303,18.0371-3.0114,27.03681-4.63917,5.81255-1.05129,11.69107-1.69651,17.56212-2.35239,7.07711-.79059,14.14566-1.66569,21.22856-2.39654,8.01391-.82691,15.97187-2.05593,23.91721-3.36416,8.22336-1.354,16.4236-2.85637,24.5863-4.55886.505-.10532,1.07183.03861,1.51875-.33923A1.24323,1.24323,0,0,1,301.2056,398.36166Z" fill="#ced7dc"/>
        <path d="M226.51109,363.52775c-4.18839,2.08251-8.39518,4.12408-12.69451,5.95961a6.08547,6.08547,0,0,0-1.44308-1.95915,152.62812,152.62812,0,0,0-13.02614-14.75135c-3.81678-3.61582-8.15336-6.55136-12.205-9.859-1.42639-1.16448-2.77209-2.41863-4.11562-3.68128-.78993-.74239-.519-1.08891.20954-1.52344a17.11705,17.11705,0,0,1,6.9445-2.05528c11.71523-1.37448,23.206.07237,34.52929,3.12031a106.85766,106.85766,0,0,0,24.15085,4.05827,119.79016,119.79016,0,0,0,12.88-.1945c.19052.15609.15377.307-.01008.45482-5.12222,3.14734-10.2177,6.34141-15.37542,9.42664-3.83149,2.29189-7.742,4.44571-11.62254,6.65147-.38141.21681-.79928.36658-1.20021.54749a.66916.66916,0,0,1-.26162.40077A39.07793,39.07793,0,0,1,226.51109,363.52775Z" fill="#445560"/>
        <path d="M349.94348,415.535c6.0666-1.44465,12.1493-2.82251,18.19608-4.34924q14.43994-3.64585,28.49384-8.64563c.22772-.08072.464-.13626.69627-.20354-.33164.80937-1.08942,1.19177-1.68949,1.71949-9.25276,8.13729-19.59765,14.63577-30.10645,20.87811a101.24345,101.24345,0,0,1-18.55746,9.10541,38.11658,38.11658,0,0,1-7.192,1.72193c-1.24008.17254-1.15775-.37193-.84669-1.15091a67.26666,67.26666,0,0,1,2.9812-6.37338,93.45926,93.45926,0,0,1,7.5896-11.96612A8.09764,8.09764,0,0,0,349.94348,415.535Z" fill="#445560"/>
        <path d="M377.467,270.0172a67.41764,67.41764,0,0,0-7.212,19.28729,83.741,83.741,0,0,0-1.66168,14.51412,168.56549,168.56549,0,0,0,2.62906,31.83409c.45693,2.80851.86437,5.62544,1.084,8.53086-1.05371-2.20025-2.15329-4.379-3.15287-6.60466a103.84053,103.84053,0,0,1-7.73674-24.50389,85.2042,85.2042,0,0,1,1.60128-37.36476,82.05625,82.05625,0,0,1,12.39791-4.99982C376.09907,270.47765,376.78325,270.24819,377.467,270.0172Z" fill="#ced7dc"/>
        <path d="M167.60114,387.90622c-2.50872.78276-5.00935,1.59392-7.52774,2.3427q-9.88485,2.939-19.787,5.8165c-.42507.12345-.91241.4455-1.38256.04485a62.42052,62.42052,0,0,0-12.72366-16.3592c-.98193-.9303-.98647-.97478.27083-1.42954a28.25457,28.25457,0,0,1,10.55332-1.35185,87.44462,87.44462,0,0,1,36.18949,8.442c.10529.54566-.29777.75527-.65852.88635A31.58586,31.58586,0,0,1,167.60114,387.90622Z" fill="#445560"/>
        <path d="M532.17964,340.88771a31.33358,31.33358,0,0,0-12.03848-3.98521c-8.24825-1.275-16.47108-.66436-24.69289.37657-3.17547.402-6.31149,1.01516-9.46569,1.53142a36.27673,36.27673,0,0,0-12.32577,4.69455c-3.97906,2.29928-7.83417,4.8364-12.0602,6.66938a23.15082,23.15082,0,0,1-5.3181,1.69183c-5.82072.991-10.72151-3.7743-10.09342-9.83526a14.4167,14.4167,0,0,1,3.25714-7.50541,41.80779,41.80779,0,0,1,21.65991-14.81c5.8447-1.65086,11.92309-2.30477,17.96357-2.98181,3.30441-.37038,6.61441-.64687,9.93772-.69691,7.19357-.10834,14.28493,1.03073,21.41421,1.77718,7.406.77542,14.53675,2.8704,21.81048,4.26637a39.831,39.831,0,0,0,5.18193.63815c.285.01672.66413-.19952.8412.24365-2.04806.973-4.14834.34261-6.20264.11221-2.48425-.27861-4.94848-.76683-7.40825-1.23627-.66947-.12777-.889-.04248-1.0469.67928a108.56836,108.56836,0,0,1-4.09528,15.12713c-.18812.5-.14819.77472.38046,1.04629a19.31918,19.31918,0,0,1,2.14295,1.3939C532.29991,340.27832,532.71958,340.50027,532.17964,340.88771Z" fill="#371633"/>
        <path d="M188.55463,431.44708c.98989-1.70622,2.00083-3.40024,2.95877-5.125a2.0248,2.0248,0,0,1,1.5285-1.05783,108.19179,108.19179,0,0,1,14.68852-1.79061q4.911-.246,9.82389-.45149a2.18509,2.18509,0,0,1,1.44915.25028,103.13738,103.13738,0,0,0-11.79177,7.87462c-3.239,2.20368-6.211,4.7667-9.25784,7.2267-5.40317,4.36249-10.8426,8.6716-16.63579,12.489a2.76133,2.76133,0,0,1-1.459.69655c.85676-2.20477,1.66765-4.2993,2.48429-6.39149C184.17294,440.48037,186.367,435.96518,188.55463,431.44708Z" fill="#677a87"/>
        <path d="M402.72546,332.38709c-2.63684-4.71483-3.79733-9.90008-4.66306-15.18627a79.03529,79.03529,0,0,1-1.07156-14.45286c.22641-10.55136.86674-21.07992,4.0929-31.23641a56.08565,56.08565,0,0,1,3.2684-7.7404c3.574-.4844,7.13546-1.07764,10.74068-1.29014-6.67329,8.42552-9.91148,18.32927-11.6647,28.81388a149.10707,149.10707,0,0,0-2.39833,28.63874,45.89419,45.89419,0,0,0,1.95031,12.2047C403.05669,332.394,402.9514,332.45511,402.72546,332.38709Z" fill="#ced7dc"/>
        <path d="M127.17806,440.66412a23.64171,23.64171,0,0,0-.0347-2.59534c-.12-1.026.266-1.42866,1.26984-1.65169,3.59993-.79987,7.20581-1.5668,10.847-2.14984q6.13981-.98314,12.33782-1.52635c.51758-.04467,1.13073-.39087,1.6015.18036-4.6196,2.66852-8.14764,6.495-11.391,10.62383-2.20081,2.80163-4.14827,5.79549-6.51771,8.46995a14.32973,14.32973,0,0,1-2.88915,2.53232c-.49011.32013-.82922.41748-1.11843-.28808C129.47836,449.85615,127.70242,445.44846,127.17806,440.66412Z" fill="#445560"/>
        <path d="M261.7309,343.09675l.01008-.45484c1.11595-.09814,1.86745-.93864,2.7429-1.48453,2.30507-1.43732,4.53747-2.99643,6.79882-4.507-3.14517,12.43411-6.51911,31.38636-3.69872,48.18321a17.60847,17.60847,0,0,1-2.66667-4.52035,47.60707,47.60707,0,0,1-3.39512-14.41312,93.14427,93.14427,0,0,1-.365-13.3981C261.313,349.36507,261.53726,346.23169,261.7309,343.09675Z" fill="#ced7dc"/>
        <path d="M466.98455,260.5351a11.5421,11.5421,0,0,1-3.59815.20714c-3.39351.051-6.78824.01786-10.29236.01786a5.65617,5.65617,0,0,0,2.00138,2.81171c5.692,5.15225,7.8142,12.10286,9.37526,19.30931.81951,3.78318,1.35835,7.6299,2.02393,11.44793.07371.2508-.02389.31047-.24638.23088A69.70776,69.70776,0,0,0,451.257,269.41866a68.0152,68.0152,0,0,0-8.00348-7.76355c-1.12338-.86024-2.22988-.44612-3.32494-.7005a7.792,7.792,0,0,1,2.98343-.17931c3.09948-.02811,6.2106.14511,9.29632-.07132C457.13691,260.35826,462.0599,260.59584,466.98455,260.5351Z" fill="#ced7dc"/>
        <path d="M304.86326,313.75418c-.43623,2.68644-.88493,5.37083-1.30568,8.05978a95.642,95.642,0,0,0-1.00531,10.97478c-.12053,3.01467-.15018,6.03819-.08045,9.0544.0773,3.343.31325,6.68223.48114,10.04439-.56409-.00962-.58492-.47805-.737-.76338a52.538,52.538,0,0,1-5.13211-16.47,102.43142,102.43142,0,0,1-1.2063-13.93894c-.00716-.28.05621-.59464-.27059-.75922Q300.23511,316.85508,304.86326,313.75418Z" fill="#ced7dc"/>
        <path d="M508.851,268.00546c.05924,4.92507.18194,9.85049.15467,14.77506a36.38819,36.38819,0,0,1-1.11518,9.20448,1.99128,1.99128,0,0,1-.48961,1.14343c-.34951-6.6465-2.35-12.84335-4.32155-19.05311a86.09947,86.09947,0,0,1-3.01873-10.8394A42.057,42.057,0,0,1,508.851,268.00546Z" fill="#ced7dc"/>
        <path d="M485.47971,292.32071c-1.87057-5.81683-3.56211-11.69656-5.94357-17.33176a42.87986,42.87986,0,0,0-9.43776-14.47247l8.5892-.47267c3.12009,6.82235,4.49535,14.116,5.55895,21.4945q.72469,5.02651,1.46462,10.0507C485.74335,291.86907,486.06992,292.24643,485.47971,292.32071Z" fill="#ced7dc"/>
        <path d="M335.53585,292.60867a37.324,37.324,0,0,0-.94509,12.0717,187.8387,187.8387,0,0,0,3.47381,26.66474c.04834.22351.21213.4447-.05407.76886a47.39712,47.39712,0,0,1-3.18135-7.24441,68.95084,68.95084,0,0,1-3.94264-19.49545c-.18366-3.09539-.31655-6.19393-.47241-9.291A31.965,31.965,0,0,1,335.53585,292.60867Z" fill="#ced7dc"/>
        <path d="M132.59042,398.13645c-.59866,2.69527-1.40028,5.33743-1.81313,8.08316a49.72569,49.72569,0,0,0-.02446,14.432,7.91384,7.91384,0,0,1-2.56729-3.71157,33.31333,33.31333,0,0,1-1.99945-12.026c-.02463-1.44492-.109-2.88872-.14717-4.33355-.01089-.41226-.06335-.74557-.55727-.77039Q129.03605,398.97327,132.59042,398.13645Z" fill="#ced7dc"/>
        <path d="M204.8909,373.26323a77.89689,77.89689,0,0,0-4.76867,28.81112,70.86847,70.86847,0,0,1-1.86656-9.2589,57.45278,57.45278,0,0,1,.50346-16.90822Q201.82509,374.58513,204.8909,373.26323Z" fill="#ced7dc"/>
        <path d="M167.60114,387.90622c1.3616-.88806,2.96861-1.127,4.43-1.751.42694-.18228.95641-.1996,1.16266-.74353l.74817.02118a23.12,23.12,0,0,0-2.20085,8.17851,46.57468,46.57468,0,0,0,.44745,14.89279,2.202,2.202,0,0,1-.07408.5057,34.54756,34.54756,0,0,1-3.30009-9.80231,55.08238,55.08238,0,0,1-1.01565-9.96172A9.48039,9.48039,0,0,0,167.60114,387.90622Z" fill="#ced7dc"/>
        <path d="M523.16048,280.166c.88238,3.1047-.37469,5.8574-2.95526,6.47125-1.66273.39553-2.4984-.40533-2.20891-2.12265a13.77827,13.77827,0,0,1,2.70868-5.88865c.2091-.28413.59128-.47783.48587-.93416.53988.45487.86651,1.13533,1.50431,1.48668A2.64893,2.64893,0,0,1,523.16048,280.166Z" fill="#ced7dc"/>
        <path d="M397.62463,265.00392a4.49928,4.49928,0,0,1-3.2072,5.81268c-.886.16554-1.51436-.45075-1.36109-1.49709a17.56047,17.56047,0,0,1,.69167-2.60783c.11908-.38473.30645-.71966-.30473-.76781Q395.534,265.47388,397.62463,265.00392Z" fill="#ced7dc"/>
        <path d="M523.16048,280.166a1.38693,1.38693,0,0,1-.46537-.98759,1.60878,1.60878,0,0,1,.73894.71089Z" fill="#a1acb4"/>
        <path d="M416.36062,262.27661a1.92431,1.92431,0,0,1-1.25808.2C415.47536,262.104,415.92623,262.24451,416.36062,262.27661Z" fill="#ced7dc"/>
        <path d="M458.69616,311.48091a18.03053,18.03053,0,0,1-2.35463,6.53353c-.32648.511-.70988.984-1.06711,1.47446.10268.44808-.40244.606-.44894.98363a14.74923,14.74923,0,0,1-9.90881,5.70645,15.94929,15.94929,0,0,1-12.44375-3.038c-6.2384-4.71033-8.23818-11.85069-6.30718-19.0647a7.94327,7.94327,0,0,1,.8674-1.76924,24.77338,24.77338,0,0,1,3.42753-4.91864c4.81948-4.78262,10.51438-6.30948,16.86749-4.23518,6.3754,2.08161,10.06758,6.79869,11.29227,13.50945A19.173,19.173,0,0,1,458.69616,311.48091Z" fill="#f3f3f3"/>
        <path d="M301.2056,398.36165q-.83265.13427-1.66522.26856c-.732.017-.5917-.32015-.4017-.83672a57.66764,57.66764,0,0,1,4.71873-9.47192,54.38286,54.38286,0,0,1,9.68311-12.13065c1.098-1.02282,2.32459-1.90313,3.51015-2.82466.35185-.2735.774-.45433.96776-.90083a15.79927,15.79927,0,0,1,3.66069-2.01153c.59318.36227,1.09221-.09217,1.61266-.22571a23.443,23.443,0,0,1,5.9906-.75729c1.369.00743,2.73951-.15053,4.108-.25286a1.27216,1.27216,0,0,0,.95151-.48273c1.47469-.01849,2.87392-.7295,4.3758-.49853,5.07667-1.237,10.25828-2.02772,15.22322-3.73735.37169-.128.80067-.15326,1.081-.49864a10.47917,10.47917,0,0,1,4.36789-1.48254l7.30608-2.89585a26.41119,26.41119,0,0,1-6.15762,4.01348,137.63189,137.63189,0,0,1-13.70831,5.35012c-4.58709,1.66062-9.40119,2.32721-14.15837,3.21315-2.53288.4717-5.11334.67024-7.66434,1.04827a9.997,9.997,0,0,0-3.70936,1.79433,46.36815,46.36815,0,0,0-12.06994,11.36578,102.4313,102.4313,0,0,0-6.96263,10.44537C301.95413,397.38168,301.56086,397.86,301.2056,398.36165Z" fill="#445560"/>
        <path d="M427.03314,302.30706a23.03471,23.03471,0,0,0-1.23292,8.24939c.43914,7.79236,7.17135,14.81272,14.78893,15.418a16.40757,16.40757,0,0,0,14.21016-5.742.18707.18707,0,0,1,.30678-.01293c-3.12441,5.6991-7.986,8.51713-14.26408,8.95255a15.80005,15.80005,0,0,1-5.03669-.51744,16.98246,16.98246,0,0,1-7.27476-3.96687,16.2401,16.2401,0,0,1-5.0934-9.07533,16.04731,16.04731,0,0,1,2.59765-12.25666A2.57162,2.57162,0,0,1,427.03314,302.30706Z" fill="#314149"/>
        <path d="M226.51109,363.52775q3.51083-1.90268,7.02161-3.80539c.46374.33168.18744.73755.1,1.11732a134.69769,134.69769,0,0,0-3.33967,24.7547c-.08916,2.1754-.10277,4.35336-.2517,6.54523a27.49625,27.49625,0,0,1-2.07477-7.026,95.78432,95.78432,0,0,1-1.386-20.72718A7.27774,7.27774,0,0,0,226.51109,363.52775Z" fill="#ced7dc"/>
        <path d="M359.38977,362.51825a20.69049,20.69049,0,0,1-4.36813,1.48265c-1.36384-3.22221-2.77843-6.42367-3.82908-9.77411a48.41622,48.41622,0,0,1-2.51141-16.91824,18.50449,18.50449,0,0,1,.87926-5.12893A63.52082,63.52082,0,0,0,359.38977,362.51825Z" fill="#314149"/>
        <path d="M338.71771,368.23678c-1.45048.24259-2.83248,1.11336-4.3761.49856a46.45711,46.45711,0,0,1-2.15887-27.19631,8.474,8.474,0,0,1,.32288-.87583c.52607,4.42629.86289,8.63874,1.51563,12.81635a40.50884,40.50884,0,0,0,4.53745,14.29108A2.49756,2.49756,0,0,1,338.71771,368.23678Z" fill="#314149"/>
        <path d="M321.67912,370.4539a9.64129,9.64129,0,0,1-3.66084,2.0116c-1.91734-3.96755-3.72772-7.97144-4.27731-12.4333a32.79914,32.79914,0,0,1,.23464-7.65c.22161-2.004.59586-3.9907.635-6.015a.26057.26057,0,0,1,.446.00631C315.74119,354.83811,317.18142,363.08544,321.67912,370.4539Z" fill="#314149"/>
        <path d="M430.88011,292.27069c8.4736-4.793,9.1582-12.54566,8.37048-20.91492,2.69525,1.80576,4.21067,7.58,2.538,12.70453C440.13486,289.12681,435.73854,292.55406,430.88011,292.27069Z" fill="#010101"/>
        <path d="M295.63239,336.13246c.01509,2.56577-1.58435,4.45345-3.56078,4.69518-1.32112.16161-3.91182-1.605-4.29184-3.05769a6.795,6.795,0,0,1,.82305-5.69466,2.52581,2.52581,0,0,1,3.88258-.75884A6.93243,6.93243,0,0,1,295.63239,336.13246Z" fill="#ced7dc"/>
        <path d="M348.99239,310.1006c.08117-.487.12668-.98365.24974-1.45933.53055-2.0506,2.18267-3.42825,3.7565-3.16019a4.42366,4.42366,0,0,1,3.32527,4.43737,5.53653,5.53653,0,0,1-3.11011,4.82134,2.03456,2.03456,0,0,1-2.5402-.50741A5.809,5.809,0,0,1,348.99239,310.1006Z" fill="#ced7dc"/>
        <path d="M278.242,341.6212c2.26336-.01941,4.04712,1.9335,4.18741,4.58457a4.37367,4.37367,0,0,1-3.66906,4.28138,2.277,2.277,0,0,1-2.40463-1.51773,14.21294,14.21294,0,0,1-1.13215-4.03606A2.79857,2.79857,0,0,1,278.242,341.6212Z" fill="#ced7dc"/>
        <path d="M300.23525,357.10212c-.01744,3.20889-1.73679,4.74715-4.0787,3.97672a1.74109,1.74109,0,0,1-.964-.69085,13.41138,13.41138,0,0,1-1.51516-2.67314,4.127,4.127,0,0,1,2.73141-5.52305,2.28632,2.28632,0,0,1,2.53544,1.03655A6.76009,6.76009,0,0,1,300.23525,357.10212Z" fill="#ced7dc"/>
        <path d="M308.759,317.23081c.24391-1.16292-.02068-2.78523,1.4754-3.42135,1.48153-.62992,2.6394.38089,3.67516,1.324a3.57649,3.57649,0,0,1,.8586,4.40286,9.86107,9.86107,0,0,1-3.56033,4.1502c-.92212.64391-1.31723-.20371-1.46242-.82945A27.69769,27.69769,0,0,1,308.759,317.23081Z" fill="#ced7dc"/>
        <path d="M157.96973,404.84886a3.40128,3.40128,0,0,1-3.44317-3.37426,4.69229,4.69229,0,0,1,4.25718-4.32254,4.33864,4.33864,0,0,1,3.69558,3.82347C162.50965,403.093,160.47843,404.83762,157.96973,404.84886Z" fill="#ced7dc"/>
        <path d="M248.34242,355.279a4.23,4.23,0,0,1,3.59212,2.36719,3.59515,3.59515,0,0,1-.96894,3.84705,5.71478,5.71478,0,0,1-2.09568,1.4414c-1.70126.701-2.5787.48006-3.63942-1.0401a4.00819,4.00819,0,0,1-.22561-4.34146A3.58741,3.58741,0,0,1,248.34242,355.279Z" fill="#ced7dc"/>
        <path d="M325.81554,310.46712a5.252,5.252,0,0,1-3.93657,5.05344c-.32386.05681-.53929.04075-.69794-.27669-.515-1.03057-1.33675-1.85508-1.81973-2.91755a4.53736,4.53736,0,0,1,2.18332-5.72751c1.401-.58908,2.845.04005,3.71743,1.65823A4.11868,4.11868,0,0,1,325.81554,310.46712Z" fill="#ced7dc"/>
        <path d="M412.1968,290.034a4.1827,4.1827,0,0,1,1.73052-3.60742c1.402-.94926,2.31351-1.04052,3.4608-.25092a3.63423,3.63423,0,0,1,1.53854,3.76732,6.67274,6.67274,0,0,1-4.08925,4.73063,1.277,1.277,0,0,1-1.89336-.88327A16.45253,16.45253,0,0,1,412.1968,290.034Z" fill="#ced7dc"/>
        <path d="M393.95125,318.5068c-.01289,2.522-2.11659,4.23059-4.26343,3.48373a2.56043,2.56043,0,0,1-1.659-1.67985c-.38126-1.12875-.75846-2.26367-1.04628-3.41965-.51139-2.05387.77631-3.44511,2.81189-3.09983A4.78718,4.78718,0,0,1,393.95125,318.5068Z" fill="#ced7dc"/>
        <path d="M247.90513,383.35174a5.89453,5.89453,0,0,1-2.74941,4.56141c-1.24905.78476-2.17791.28169-2.75476-1.08136-1.03086-2.43613-.37454-4.79093.20934-7.126.3495-1.39783,2.8-1.52933,3.91756-.252A6.12168,6.12168,0,0,1,247.90513,383.35174Z" fill="#ced7dc"/>
        <path d="M412.42327,310.73856c-.03895-2.6833,1.38815-3.39557,3.79908-3.96426.84838-.2001,1.893,1.043,2.23175,2.41587.57731,2.33948-1.61816,6.80989-3.808,7.79065-.37381.16741-.59289.14732-.733-.27827A20.212,20.212,0,0,1,412.42327,310.73856Z" fill="#ced7dc"/>
        <path d="M184.94647,400.32069A3.05848,3.05848,0,0,1,188.252,402.192a3.58151,3.58151,0,0,1-.68077,4.02137,7.13556,7.13556,0,0,1-3.14757,2.01976,1.02032,1.02032,0,0,1-1.48748-.74758c-.53893-1.51642-.99142-3.05473-1.43177-4.60255a1.51258,1.51258,0,0,1,1.12446-2.13578A5.64736,5.64736,0,0,1,184.94647,400.32069Z" fill="#ced7dc"/>
        <path d="M142.90807,418.5338c-2.61144.01324-3.32071-1.08069-2.36864-3.62161a5.21409,5.21409,0,0,0,.11111-.85286,3.35328,3.35328,0,0,1,3.62792-2.92094,3.54449,3.54449,0,0,1,2.7599,3.818C146.86826,417.21662,145.36187,418.52136,142.90807,418.5338Z" fill="#ced7dc"/>
        <path d="M195.60735,388.96433a4.48672,4.48672,0,0,1-4.16983,4.34479,2.15809,2.15809,0,0,1-2.21751-1.57354,4.86307,4.86307,0,0,1,.36036-4.16816,3.01088,3.01088,0,0,1,2.64816-1.92508A3.08617,3.08617,0,0,1,195.60735,388.96433Z" fill="#ced7dc"/>
        <path d="M314.04252,328.65636c2.48784.02977,3.89287,3.06067,2.52748,5.46027a4.10961,4.10961,0,0,1-.41894.60354c-1.22554,1.46335-2.72124,2.05208-3.779,1.49624-1.35122-.71-2.15028-2.94574-1.70411-4.768A3.35649,3.35649,0,0,1,314.04252,328.65636Z" fill="#ced7dc"/>
        <path d="M472.22166,280.87594c2.78841.0229,4.06539,2.19635,3.143,4.16526a4.66447,4.66447,0,0,1-4.49779,2.5874c-1.69588-.22519-2.06517-1.78038-2.696-3.05037-.50271-1.01215.34439-1.4289.85647-1.93171A5.59013,5.59013,0,0,1,472.22166,280.87594Z" fill="#ced7dc"/>
        <path d="M352.66639,292.10576c1.6812-.029,3.17449,2.06242,2.9501,4.13163a4.22694,4.22694,0,0,1-3.39491,3.73587,1.40723,1.40723,0,0,1-1.75444-.75249c-.42633-1.29709-1.043-2.5091-1.45562-3.80417a.86785.86785,0,0,1,.09888-.46571A4.61811,4.61811,0,0,1,352.66639,292.10576Z" fill="#ced7dc"/>
        <path d="M290.71784,369.36356c-.00505-2.21575.93457-3.05924,2.39209-2.80074a4.961,4.961,0,0,1,3.87935,3.83116,3.29577,3.29577,0,0,1-1.27543,3.51025c-1.47353,1.10833-2.49337.89339-3.426-.69156A9.81363,9.81363,0,0,1,290.71784,369.36356Z" fill="#ced7dc"/>
        <path d="M147.39425,401.73088a1.8889,1.8889,0,0,1-1.60311,2.00833c-3.064.70627-5.33652-1.48515-4.77615-4.62772.12976-.72773.3691-1.43572.48733-2.16477.1381-.85164.66785-.92712,1.3307-.80825C144.80235,396.4916,147.42074,399.70649,147.39425,401.73088Z" fill="#ced7dc"/>
        <path d="M281.52,371.06958a3.02534,3.02534,0,0,1-3.15411,3.147c-2.08266-.0245-3.229-1.13532-3.15236-3.16407a14.26792,14.26792,0,0,1,.3922-2.55344c.34285-1.5313.69571-1.72725,2.20035-1.36063C280.11914,367.70206,281.5321,369.19764,281.52,371.06958Z" fill="#ced7dc"/>
        <path d="M494.23814,272.22575a10.77854,10.77854,0,0,1-5.83875-1.76356c-1.37217-.93884-1.34507-2.07242.01717-3.03467,1.95589-1.38157,2.5713-1.39328,4.53088-.05762a15.62862,15.62862,0,0,1,3.01314,2.47926c.43477.49207.934,1.02328.60108,1.74827-.30743.66936-.98855.61351-1.59587.62741C494.72336,272.23039,494.48069,272.22575,494.23814,272.22575Z" fill="#ced7dc"/>
        <path d="M324.08288,336.58094a4.54016,4.54016,0,0,1-3.36312-2.44462,1.12913,1.12913,0,0,1-.05463-.24069c-.10678-1.25035,2.36957-3.92353,3.80826-4.11343,1.50422-.19855,3.0328,1.30994,3.24445,3.20177C327.95588,335.11141,326.46383,336.58787,324.08288,336.58094Z" fill="#ced7dc"/>
        <path d="M390.55162,280.88442a4.13119,4.13119,0,0,1-2.03029,3.62953,10.18584,10.18584,0,0,1-2.02393,1.11532c-1.39046.61056-2.18383.14078-1.733-1.27516a57.17833,57.17833,0,0,0,1.259-5.75022,1.90516,1.90516,0,0,1,1.87443-1.52177,2.1596,2.1596,0,0,1,2.02705,1.34146A4.70085,4.70085,0,0,1,390.55162,280.88442Z" fill="#ced7dc"/>
        <path d="M499.0496,287.60188a4.8016,4.8016,0,0,1-1.96594,3.84958c-.75623.53548-1.334.57072-1.819-.42854a18.2751,18.2751,0,0,1-1.52-5.31589,1.95955,1.95955,0,0,1,1.47669-2.42929,2.43856,2.43856,0,0,1,2.92353.8423A6.06848,6.06848,0,0,1,499.0496,287.60188Z" fill="#ced7dc"/>
        <path d="M323.769,348.04019c1.30844.00175,2.14767.73137,2.63548,2.2912.57167,1.82809.24644,3.365-1.06557,4.2-1.91133,1.21654-2.823,1.10721-3.76711-.71771-.22626-.43738-.46783-.86736-.67583-1.31366A3.03721,3.03721,0,0,1,323.769,348.04019Z" fill="#ced7dc"/>
        <path d="M260.56828,376.11535a3.89057,3.89057,0,0,1-1.49561,3.02394,1.17669,1.17669,0,0,1-1.82071-.21892c-.88161-1.23288-1.75509-2.48013-2.51765-3.79089-.519-.89223-.91689-1.91231.03687-2.832a2.55447,2.55447,0,0,1,3.33308-.19264A5.16647,5.16647,0,0,1,260.56828,376.11535Z" fill="#ced7dc"/>
        <path d="M239.141,367.37464a6.44165,6.44165,0,0,1-.604,3.04978,2.76331,2.76331,0,0,1-3.13792,1.52258c-.56388-.13145-.81514-.509-.59178-.97748.71677-1.50339.24959-3.02878.21008-4.55069a5.00845,5.00845,0,0,1,.73929-3.0668,2.11736,2.11736,0,0,1,1.9684-1.00594c.79648.08262.774.94152.94441,1.54365A11.179,11.179,0,0,1,239.141,367.37464Z" fill="#ced7dc"/>
        <path d="M420.19481,270.65954a4.44246,4.44246,0,0,1,1.075-3.191,2.77686,2.77686,0,0,1,3.9016-.53964,3.267,3.267,0,0,1,.57562,4.148,5.3361,5.3361,0,0,1-3.32562,2.31614C420.85787,273.75279,420.17948,272.89275,420.19481,270.65954Z" fill="#ced7dc"/>
        <path d="M211.934,394.42135a3.99826,3.99826,0,0,1-1.86159,3.66679,1.01733,1.01733,0,0,1-1.67742-.49307c-.64329-2.41642-1.38952-4.8549-.93358-7.41385.27622-1.55039,1.2665-1.85309,2.39242-.74726A6.96531,6.96531,0,0,1,211.934,394.42135Z" fill="#ced7dc"/>
        <path d="M375.83376,306.91369a3.13745,3.13745,0,0,1,2.8287,3.99011,5.08255,5.08255,0,0,1-2.39482,3.28158c-1.06735.614-1.84487.32746-2.10216-.86831a21.44848,21.44848,0,0,0-.993-2.50787A2.76533,2.76533,0,0,1,375.83376,306.91369Z" fill="#ced7dc"/>
        <path d="M360.37943,332.92541a6.314,6.314,0,0,1-1.14174,3.95421c-.41148.55234-.86951.69225-1.42926.19517a6.59313,6.59313,0,0,1-2.59127-5.3385,2.15305,2.15305,0,0,1,1.41367-2.10634,3.03946,3.03946,0,0,1,3.02131.15242C360.5067,330.50991,360.3775,331.80841,360.37943,332.92541Z" fill="#ced7dc"/>
        <path d="M447.45642,280.21556a4.30167,4.30167,0,0,1,.36278-1.94075,2.80938,2.80938,0,0,1,2.45395-2.08245,2.89852,2.89852,0,0,1,2.63987,1.66628,2.81212,2.81212,0,0,1-.19543,3.24422,3.90291,3.90291,0,0,1-4.40456,1.5C447.35841,282.174,447.62045,281.0614,447.45642,280.21556Z" fill="#ced7dc"/>
        <path d="M221.91535,386.91658a2.33875,2.33875,0,0,1,1.778,1.32465,5.31986,5.31986,0,0,1-1.04919,6.74784c-.45922.45894-.76728.42126-1.10686-.19272a20.18988,20.18988,0,0,1-2.09312-5.65453C219.22435,388.096,220.51318,386.88716,221.91535,386.91658Z" fill="#ced7dc"/>
        <path d="M388.35745,300.458c-.05124,1.737-2.4111,4.22507-4.13217,4.35663a1.32946,1.32946,0,0,1-1.6116-1.51173c.02713-1.40622.697-2.71822.64348-4.14536a.445.445,0,0,1,.08363-.229,6.51233,6.51233,0,0,1,3.05292-.98017A2.53773,2.53773,0,0,1,388.35745,300.458Z" fill="#ced7dc"/>
        <path d="M343.3417,299.90746a3.934,3.934,0,0,1-2.05076,3.42462,1.11317,1.11317,0,0,1-1.62624-.42092,14.50068,14.50068,0,0,1-1.63088-3.44576c-.352-1.127.41938-1.786,1.15071-2.36321a2.14331,2.14331,0,0,1,2.80764.03083A3.26294,3.26294,0,0,1,343.3417,299.90746Z" fill="#ced7dc"/>
        <path d="M344.182,321.51277a6.22686,6.22686,0,0,1-1.31833,3.51642c-.48355.564-.91716.71093-1.24777-.07105a44.445,44.445,0,0,1-2.06-4.4547c-.44626-1.49111-.30681-1.849,1.02908-2.49778a2.05917,2.05917,0,0,1,2.86819.69229A5.404,5.404,0,0,1,344.182,321.51277Z" fill="#ced7dc"/>
        <path d="M378.33486,291.3414a2.21136,2.21136,0,0,1-1.49858,1.86879c-2.397,1.12965-3.17568.70817-3.58-1.93976-.00621-.04064-.00555-.08233-.0112-.12308-.29588-2.13373.13643-3.17337,1.35844-3.26634A4.11064,4.11064,0,0,1,378.33486,291.3414Z" fill="#ced7dc"/>
        <path d="M208.44935,379.05241a4.33453,4.33453,0,0,1,.91868-3.06018,1.43393,1.43393,0,0,1,2.69822.39575,4.9418,4.9418,0,0,1-.66813,4.80318,2.6598,2.6598,0,0,1-1.24783.94231c-.92506.32715-1.36413-.04573-1.53036-1.0459A12.99038,12.99038,0,0,1,208.44935,379.05241Z" fill="#ced7dc"/>
        <path d="M455.28452,293.20627a9.88014,9.88014,0,0,1,1.52972-3.83168c.13-.1948.2536-.483.5553-.37287a3.67466,3.67466,0,0,1,2.397,1.76662,2.19835,2.19835,0,0,1-.51688,2.40661,3.93175,3.93175,0,0,1-2.55731,1.53112C455.69692,294.81379,455.22754,294.36441,455.28452,293.20627Z" fill="#ced7dc"/>
        <path d="M376.6809,326.06915c.00472-2.06408.54015-2.73295,2.01276-2.51443a2.05336,2.05336,0,0,1,1.81175,2.35524,2.85755,2.85755,0,0,1-.16451.72067c-.38046,1.0336-.62871,2.251-2.02749,2.27473C377.41873,328.92053,376.67751,327.5427,376.6809,326.06915Z" fill="#ced7dc"/>
        <path d="M356.64239,284.68905c-.14323.203-.24448.37327-.37072.52124a8.98847,8.98847,0,0,1-3.79563,2.58213c-.36361.13546-.70691.18658-.98692-.17708-.24659-.32028-.4105-.74447-.10838-1.01159a3.73744,3.73744,0,0,0,.89574-2.47478c.19537-1.10153.6605-1.48629,1.74241-1.01585A12.46714,12.46714,0,0,1,356.064,284.181,6.2527,6.2527,0,0,1,356.64239,284.68905Z" fill="#ced7dc"/>
        <path d="M465.55237,266.99971a9.5959,9.5959,0,0,1,.70317-2.8715c.35414-.78061.71555-.72466,1.24224-.18226a2.974,2.974,0,0,1-.92738,4.66114C465.82662,268.92007,465.51678,268.465,465.55237,266.99971Z" fill="#cdd6da"/>
        <path d="M315.05668,346.37355q-.22317-.00332-.44617-.00648.00021-1.21747.00014-2.43531A4.6211,4.6211,0,0,1,315.05668,346.37355Z" fill="#51626e"/>
        <path d="M485.47971,292.32071c.28319-.17576.16525-.484.23132-.73163a7.38961,7.38961,0,0,1,.39888,2.25361A2.40305,2.40305,0,0,1,485.47971,292.32071Z" fill="#a5b3bb"/>
        <path d="M402.72546,332.3871l.25446-.24869a1.44881,1.44881,0,0,1,.3913,1.16526C402.94014,333.10459,402.86316,332.72112,402.72546,332.3871Z" fill="#a6b4bc"/>
        <path d="M466.24823,294.55993q.123-.11543.2462-.23086a1.06056,1.06056,0,0,1,.07246,1.21883Z" fill="#9eadb5"/>
        <path d="M455.10609,320.21954l-.30678.01292.47508-.74356C455.73762,319.85751,455.246,319.99618,455.10609,320.21954Z" fill="#6d797f"/>
        <path d="M472.02207,342.05771c-1.0762-6.02469-3.02431-11.73059-4.25824-17.61512-.3517-1.67723-.40928-1.67156,1.14931-2.26679a61.15763,61.15763,0,0,1,12.56761-3.192q3.481-.53688,6.99493-.80559c.73739-.05568,1.03163.07552,1.16194.91849.82658,5.34874,1.43028,10.73974,2.70784,16.00642.22663.93393-.39715.71125-.79752.7783a72.52545,72.52545,0,0,0-15.1102,4.00824A39.28471,39.28471,0,0,0,472.02207,342.05771Z" fill="#f3f3f3"/>
        <path d="M448.16677,343.2823a10.51469,10.51469,0,0,1,1.42948-5.074,34.3352,34.3352,0,0,1,14.26666-13.79037c.3449-.1853.67435-.40877.80379.20235.91862,4.33709,2.86757,8.33811,3.94,12.62313a25.83181,25.83181,0,0,0,1.6389,5.30467.58406.58406,0,0,1-.25859.90081c-3.6123,2.2762-7.08635,4.78014-11.00364,6.53674-4.57441,2.05128-7.86592-.21883-9.93264-3.14966A5.72315,5.72315,0,0,1,448.16677,343.2823Z" fill="#f3f3f3"/>
        <path d="M501.7376,317.94073q6.67751.08037,13.33036.742c.43269.0435.90935-.06041.81856.69485-.57844,4.812-.12038,9.68781-.85183,14.49664-.12852.845-.41332.91826-1.13966.86333a89.30949,89.30949,0,0,0-17.57229.54761c-.44238.05389-.89158.06814-1.32754.15415-.61541.12144-.75-.14491-.75754-.72859-.06714-5.20373-1.12052-10.27213-2.12149-15.3401-.227-1.14957-.10731-1.49671,1.11589-1.4582C496.06486,318.00154,498.90212,317.94073,501.7376,317.94073Z" fill="#f3f3f3"/>
        <path d="M519.73634,319.18666a115.98722,115.98722,0,0,1,11.63425,1.98247c.55325.11456.635.35084.54713.83758a82.23882,82.23882,0,0,1-3.70876,14.86753c-.231.605-.45853.79217-1.13032.52352a38.47277,38.47277,0,0,0-9.41567-2.26461c-.41433-.05375-.91261.058-.71481-.74641,1.14079-4.639,1.21233-9.41051,1.60414-14.1418C518.64261,319.15412,518.62877,319.15292,519.73634,319.18666Z" fill="#f3f3f3"/>
        <path d="M435.513,308.07707a2.0722,2.0722,0,0,1-2.12132,2.06776,1.9981,1.9981,0,0,1-2.01567-2.13933,2.03563,2.03563,0,0,1,2.0821-2.08719A2.12734,2.12734,0,0,1,435.513,308.07707Z" fill="#020202"/>
      </g>
      <g>
        <path d="M156.08247,184.39692c-.32282-.80762-.92326-.23975-1.29544-.16407a121.53627,121.53627,0,0,0-15.2287,4.16309,106.57654,106.57654,0,0,0-19.79657,9.04c-.23395.13867-.48183.2539-.86274.45312a16.57936,16.57936,0,0,1,1.65364-5.55908,25.24748,25.24748,0,0,1,10.92026-11.57226c.8681-.47022.85732-.709.21355-1.41211a90.14486,90.14486,0,0,1-11.99815-15.52539,17.58189,17.58189,0,0,1-2.26784-5.5962,25.77527,25.77527,0,0,0,6.16457,2.02588,160.98322,160.98322,0,0,0,16.915,2.57032,68.3947,68.3947,0,0,0,7.88807.479c.40142-.0044.89134.22754,1.1996-.26318a.856.856,0,0,1,.45836-.11036,66.51993,66.51993,0,0,0,12.11724-.459,17.14059,17.14059,0,0,1,1.77725.13867c5.99678-.71191,11.98952-1.44531,17.74462-3.41357a6.76276,6.76276,0,0,1,2.29393-.97168,181.06929,181.06929,0,0,0,19.12438-8.72779,3.50805,3.50805,0,0,1,1.66065-.61621,113.83043,113.83043,0,0,1,13.34026-6.231c9.204-3.333,18.51547-3.29126,27.95246-1.127,10.96441,2.51465,20.56308,7.76368,29.47584,14.43457,2.26956,1.699,4.50652,3.44117,6.75847,5.16333.60173.34766.41986.85889.29913,1.37012a9.10008,9.10008,0,0,0-.29719,3.30176,6.68844,6.68844,0,0,0,3.39313,5.06152,1.39027,1.39027,0,0,1,.46081.36768c-.02072.27539.13982.31689.37782.35791.444.07568.93074.12256,1.11907.65527a.3288.3288,0,0,1-.18468.29883c-1.2314.0874-2.45944-.05176-3.68968-.06348a6.93549,6.93549,0,0,0-5.923,3.01905,11.19032,11.19032,0,0,0-1.59769,2.79443,1.90522,1.90522,0,0,1-2.28885,1.40186,35.47486,35.47486,0,0,1-16.46892-5.3418,39.50105,39.50105,0,0,1-7.83525-6.647c-1.12829-1.15235-1.80035-2.334-.7056-3.86475a4.12979,4.12979,0,0,0,.33348-1.35986c.0087.1997-.12638.54834-.159.91406-.95939,2.23975-1.499,2.61523-5.37237,3.7085a1.18986,1.18986,0,0,1,1.36667.00683.83812.83812,0,0,1-.2445.76367,23.32784,23.32784,0,0,0-4.00924,10.14551,3.89669,3.89669,0,0,1-.41379,1.48633c-.64888.39648-.8159-.25293-1.06212-.55469-.87317-1.07031-1.79338-2.10156-2.63808-3.19336a.86221.86221,0,0,0-.77038-.42724,4.02585,4.02585,0,0,0-3.012-.40821c-5.80211.51465-11.31355,1.95752-16.21171,5.27588a20.26587,20.26587,0,0,0-3.90686,3.47949,68.08189,68.08189,0,0,1,8.55972,3.18018c.44267.18848,1.049.22461,1.11105.90234a118.20226,118.20226,0,0,1-12.65294-.563c-5.40085-.43506-10.77958-1.09473-16.14955-1.82081-5.28947-.71533-10.56415-1.55175-15.88054-2.05175a47.68036,47.68036,0,0,0-8.593-.33594c.02682-.79736.77075-1.05078,1.19805-1.53418.50212-.56738.36549-.792-.3105-.91748a14.394,14.394,0,0,0-4.045.20557c-2.53881.24121-5.06157.65234-7.5787,1.08837-1.03691.17969-1.70166.54932-1.84922,1.65918C156.61291,183.829,156.62918,184.31635,156.08247,184.39692Z" fill="#948d86"/>
        <path d="M273.84767,179.38383c1.265.27131,1.78008-.45334,2.23377-1.49883,1.00165-2.30823,2.39944-4.346,4.87252-5.27277,2.14278-.803,4.37245-.53325,6.57879-.20558a1.75223,1.75223,0,0,1,1.12629.08835c.11312.63816.66509.12255.93533.3514a22.223,22.223,0,0,0,3.01471,1.27331,2.01313,2.01313,0,0,1,.517.42492c.92934.271,1.8379.73763,2.84234.30215.13453.06189.28256.10719.33632.26931a16.769,16.769,0,0,0,3.87832,1.211c.44913.1371.91379.22119,1.36665.35139a1.293,1.293,0,0,1,.42661.2765l.96515.30431c.34669.15514.7004-.02078,1.04945.02048,1.27608.28436,2.55925.53852,3.824.87593,1.17495.31344,1.17712.30382,1.27588-.868.03286-.3896-.01132-.80608.36747-1.07909.41553-.05174.2309.34537.37327.49809.00844.1187.02575.23753.024.35607-.02956,1.97246-.0301,1.97246,1.96223,2.36236.31431.10731.65233.044.96991.13119a31.66386,31.66386,0,0,1,3.12055.81191,1.99158,1.99158,0,0,0,1.72039-.11622c.19657.0499.32628.13628.1984.36268.33553,1.06228,1.08379.94314,1.88934.66a.92636.92636,0,0,1,.452.19366,22.46262,22.46262,0,0,0,3.67321,1.26594,2.68488,2.68488,0,0,0,.82943.24886c.12084.58054.72445.43867,1.0552.70514.26293.142.55923-.04568.82434.0805,1.42256.45588,2.79518,1.04253,4.18016,1.59656.25414.1178.52011.20872.7754.32473,1.12143.6944,2.3294,1.24092,3.42129,1.9871a.87378.87378,0,0,1,.374.3203c.12355.41143.50675.60255.76832.89553,1.19584,1.33937,1.02955,2.62011-.49612,3.59568a8.02437,8.02437,0,0,1-4.2389,1.05787,4.73737,4.73737,0,0,1-1.3266.34688c-1.7131-.38316-3.4785-.41244-5.19747-.75783-.40251.00318-.72923-.2532-1.11076-.32182-2.16307-.32064-4.288-.877-6.47464-1.05432a2.95991,2.95991,0,0,1-.70973-.20043,52.255,52.255,0,0,0-6.50486-1.71672,7.2982,7.2982,0,0,0-1.2965-.35174c-2.04633-.67462-4.14549-1.15881-6.21522-1.74711-.339-.119-.696-.16914-1.04106-.26514a53.7511,53.7511,0,0,0-6.30954-1.7364c-.39339-.20215-.85661-.154-1.25664-.33995a24.015,24.015,0,0,0-4.59117-1.50976c-.28166-.09083-.56535-.17475-.84747-.26429-1.95875-.63933-3.9355-1.219-5.90577-1.82a2.24741,2.24741,0,0,0-2.02934.28258c-.82711.5445-1.70367,1.01108-2.53926,1.54423a1.78665,1.78665,0,0,1-1.19106.45962.56281.56281,0,0,1-.30818-.18188c.09142-.69951.702-.92534,1.18222-1.2439.76238-.5057,1.54462-.982,2.44887-1.56873a4.96275,4.96275,0,0,0-2.32615-.50258,32.68981,32.68981,0,0,1-3.70517.00622c-.35058-.01806-1.03062.135-.79251-.67281a17.307,17.307,0,0,1,3.88122-.00912,21.53361,21.53361,0,0,0-2.23683-.09142C274.53367,179.805,274.006,180.01825,273.84767,179.38383Z" fill="#817a74"/>
        <path d="M222.52117,187.74686a60.55547,60.55547,0,0,0-9.08-3.58031c-.34034-.10486-.68638-.19113-1.16619-.32371a18.79122,18.79122,0,0,1,4.113-3.79949,32.48068,32.48068,0,0,1,15.28648-5.29322c1.0723-.098,2.14147-.11037,3.20767-.2049a1.12658,1.12658,0,0,1,1.29074.7484.50514.50514,0,0,1,.27728.21824c1.70209,4.10021,4.59983,7.48405,6.76933,11.30427a59.41542,59.41542,0,0,1,5.56686,12.19591c.14241.47509.49036.95125.13673,1.48017-2.60155-1.35622-5.19255-2.73311-7.80678-4.06442q-8.61736-4.38841-17.47515-8.27132C223.27749,187.9978,222.89493,187.8824,222.52117,187.74686Z" fill="#817a74"/>
        <path d="M204.76413,148.87621c-2.77263,1.67055-5.73043,2.983-8.624,4.41563a116.04351,116.04351,0,0,1-12.95734,5.53419,3.49248,3.49248,0,0,1-1.49761.36575,92.85591,92.85591,0,0,0-9.71083-11.99927c-1.702-1.893-3.39015-3.7985-5.25154-5.88559a67.09082,67.09082,0,0,1,7.62243-.05635,80.47381,80.47381,0,0,1,20.50487,3.31141,59.06055,59.06055,0,0,1,8.67081,3.42945A2.44194,2.44194,0,0,1,204.76413,148.87621Z" fill="#817a74"/>
        <path d="M240.25832,179.57879a30.03238,30.03238,0,0,1,3.05493-9.89108,11.63233,11.63233,0,0,1,1.79171-2.52894c1.15138-.7916,1.63326-.60316,1.88128.8504a32.22548,32.22548,0,0,0,2.40526,8.26883,21.4886,21.4886,0,0,0,8.54633,9.932,18.10263,18.10263,0,0,0,11.59415,2.06377,22.3544,22.3544,0,0,0,9.7924-3.68359,9.56331,9.56331,0,0,1,3.051-.46973c1.22972-.07793,2.45632-.192,3.68556-.26962.42912-.02709.98688-.09528,1.19717.33509.24845.50847-.32333.7235-.62527.99918-1.08781.9933-2.02226,2.14607-3.18577,3.0621a20.97123,20.97123,0,0,1-5.61151,1.201,58.7692,58.7692,0,0,1-8.3639.60206c-.76071-.01952-1.51121-.11447-2.26779-.15219-1.79888-.07248-3.59979-.11253-5.39626-.224-4.14662-.25724-8.28961-.53223-12.4131-1.10043-.99648-.13732-2.061-.70571-3.10941-.09764-.49395.0907-.58023-.33868-.74717-.62054a75.25032,75.25032,0,0,0-4.75008-7.01748C240.51273,180.47411,240.10951,180.13385,240.25832,179.57879Z" fill="#e7e2de"/>
        <path d="M267.20384,189.89805a1.5851,1.5851,0,0,1,.5341-.19775,65.29084,65.29084,0,0,0,9.29566-.50157,42.15144,42.15144,0,0,0,6.43347-1.20893c.25432.61571-.48386.91342-.48424,1.452.9569.15973,1.678-.877,2.65994-.47878,2.24779,3.5645,3.22463,7.56217,4.1056,11.8091-1.08534-.55738-1.99529-1.02166-2.90257-1.4911-6.09466-3.15349-12.44476-5.76911-18.58424-8.82812C267.90528,190.27534,267.55625,190.08332,267.20384,189.89805Z" fill="#b9b3ae"/>
        <path d="M163.94055,162.60544a11.54024,11.54024,0,0,1-3.02818.38777,60.0169,60.0169,0,0,1-6.178.32509c-1.49619.02126-2.98828.37376-4.48-.04261-.22691-.06333-.44479-.159-.66679-.23976a30.08745,30.08745,0,0,1-8.075-9.32671,19.1887,19.1887,0,0,1,6.288.81964,31.44152,31.44152,0,0,1,10.6671,4.66192C160.22864,160.41976,162.11228,161.473,163.94055,162.60544Z" fill="#827b74"/>
        <path d="M286.13381,171.42988a7.26692,7.26692,0,0,1-3.87616-8.97479c.12838-.43674.44859-.88274.0335-1.33886.76267-.17571.7842-.94308,1.14763-1.4375.55021-.32771.78893-1.03929,1.47633-1.19791a2.07519,2.07519,0,0,0,1.65445-.96223,2.96825,2.96825,0,0,1,1.17022.45835l1.965.50268a1.24437,1.24437,0,0,1,.9903.73125c2.947,3.1892,3.22642,6.96787.77081,10.41425A4.55115,4.55115,0,0,1,286.13381,171.42988Z" fill="#f3f3f3"/>
        <path d="M156.08247,184.39705c.00857-2.5269,1.72461-2.86749,3.73787-3.15973,3.00824-.43668,6.02819-.75686,9.03968-1.153a8.63042,8.63042,0,0,1,2.23285.27451c.56365.07014.46262.42413.13144.73907q-.9885.94-1.97918,1.8778a43.67479,43.67479,0,0,1-12.22764,6.71335c-.9957.39374-2.02581.70047-3.35529,1.155A49.33062,49.33062,0,0,0,156.08247,184.39705Z" fill="#827b74"/>
        <path d="M240.25832,179.57879A105.77028,105.77028,0,0,1,246.285,188.476a38.5824,38.5824,0,0,1,4.41631,10.50344c.20228.8998-.00972,1.82475.52846,2.86635a6.92078,6.92078,0,0,1-2.30676-1.35362,64.03243,64.03243,0,0,0-9.07442-18.3756,24.86244,24.86244,0,0,1-3.67552-6.82307c.17368-.69848.4258-.20755.58482-.01471C237.93377,176.70469,239.09351,178.14383,240.25832,179.57879Z" fill="#b9b3ae"/>
        <path d="M286.13381,171.42988c3.1019.13961,4.88444-.92627,6.02684-3.60381a7.68471,7.68471,0,0,0-1.354-8.20632c-.13223-.12931-.372-.17041-.35323-.42539.09644-.17686.201-.3388.446-.24232a.67763.67763,0,0,0,.353.5576,6.23062,6.23062,0,0,1,3.21281,6.34865,6.7215,6.7215,0,0,1-4.48721,6.109c-.73164.71722-1.55291.48624-2.37707.22468C287.20614,171.75653,286.36217,172.18583,286.13381,171.42988Z" fill="#6e635d"/>
        <path d="M285.64277,188.963c-1.0995.19746-2.03593,1.04893-3.38641.84907.4437-.66777.82722-1.245,1.21073-1.82223a32.53017,32.53017,0,0,1,3.73424-3.77218,53.67852,53.67852,0,0,0-7.82988.61453,3.01505,3.01505,0,0,0-.7496.109,11.3065,11.3065,0,0,1-1.7433.01126c-.41815-.042-.88367-.0542-.95585-.6356a.4607.4607,0,0,1,.59764-.40056l.29565.01761c2.98658-.22083,5.96743-.51075,8.95724-.69966a8.80336,8.80336,0,0,1,2.69666.18179c.26194.03689.5494-.02269.76186.2014-.06707.51621-.52807.66949-.86982.91972a24.45783,24.45783,0,0,0-4.35933,4.09077,50.31372,50.31372,0,0,1,8.50258-3.23281c.47244-.14324.98032-.41888,1.49216-.06488.32451.156.90134-.55181,1.023.29878a.607.607,0,0,1-.05225.5744,56.32077,56.32077,0,0,1-3.77509,5.21215c-.19215.00066-.35407-.0275-.26761-.28683a28.375,28.375,0,0,1,3.53128-5.36537C291.30158,186.79937,288.2421,187.22891,285.64277,188.963Z" fill="#6b6b73"/>
        <path d="M317.57066,180.32663c-.08617.52142-.28195.73705-.88949.55818-1.36175-.4009-2.751-.70818-4.12912-1.05359-.41881-.60476.19966-.6334.47543-.82685,1.06849-.7496,2.3654-1.1393,3.30541-2.09345a6.21117,6.21117,0,0,1,1.70945-.90987.55321.55321,0,0,1,.48569.77332A16.23782,16.23782,0,0,1,317.57066,180.32663Z" fill="#bebdbf"/>
        <path d="M331.50684,185.85132c-.26271-.0197-.5489.0383-.73855-.22315-.10113-.8693.53156-1.4428.89479-2.10874a15.91471,15.91471,0,0,0,1.20937-2.766,20.94567,20.94567,0,0,0-4.63415,2.2933,3.65893,3.65893,0,0,1-1.79282.87445c-.26156-.01029-.54406.04413-.71928-.23281,2.69761-1.57636,5.28385-3.38783,8.57743-4.12106a61.97606,61.97606,0,0,1-2.84973,5.81251A30.15325,30.15325,0,0,1,340,183.61375c-1.54828,1.72185-3.45267,2.71583-4.69852,4.38379l-.52476-.03873c.09164-1.10315,1.111-1.46824,1.72227-2.15661a10.00328,10.00328,0,0,1,1.47457-1.25345,33.45516,33.45516,0,0,0-4.97534,1.05363A2.29131,2.29131,0,0,1,331.50684,185.85132Z" fill="#717178"/>
        <path d="M316.55124,191.337a.5926.5926,0,0,1,.53641.2702c.1403.53819-.24339.90623-.4613,1.30926-.81423,1.506-1.40927,3.12082-2.296,4.59-.1374.12952-.27975.23247-.46788.08675a18.22878,18.22878,0,0,1,2.52115-5.62108c-2.10507,1.06034-3.92317,1.997-5.76088,2.89349a14.18059,14.18059,0,0,1-3.13116,1.12153c-.30233.06735-.66751.33436-.89336.074-.22789-.26271.13062-.56776.21685-.85844a.39543.39543,0,0,1,.32105-.04057,1.57178,1.57178,0,0,0,1.25867-.16856,57.52513,57.52513,0,0,0,6.19123-3.02874A2.665,2.665,0,0,1,316.55124,191.337Z" fill="#706f77"/>
        <path d="M290.92538,191.12868l.18411.22862c.15758.30437.37547.17762.60218.09674a54.26141,54.26141,0,0,0,8.62316-3.84756,1.68088,1.68088,0,0,1,1.11581-.33792c.33225.04084.69654-.08321.9834.19114-.01655.37307-.26363.53625-.57823.63819a1.71915,1.71915,0,0,0-.559.10858c-.23725.1861-.54151.15257-.80608.24956a48.70233,48.70233,0,0,1-10.3459,4.40594A4.30251,4.30251,0,0,1,290.92538,191.12868Z" fill="#6e6e76"/>
        <path d="M307.04916,195.21113q-.117-.0048-.23408-.00844a22.146,22.146,0,0,1,1.99743-4.884c-2.5459.68032-4.57195,1.97861-6.79948,2.74476a.23946.23946,0,0,1-.33053-.00832c-.02454-.45775.3457-.59871.65057-.754,1.84009-.93752,3.68-1.87586,5.53582-2.782.31738-.155.64771-.3344,1.01049-.09942.40006-.173.78482-.28571,1.00384.25473a.62169.62169,0,0,1-.14105.659,15.82789,15.82789,0,0,0-1.96829,4.04934C307.65279,194.74051,307.56234,195.17437,307.04916,195.21113Z" fill="#727179"/>
        <path d="M287.73978,157.97694c-.38757-.15919-1.12279.56924-1.17022-.45835.3155-1.06683.69548-2.12018.92246-3.20552.13734-.6568.41964-.73806.97964-.62613.74.14791.45541.61513.3345,1.00507C288.46524,155.7915,288.09716,156.88256,287.73978,157.97694Z" fill="#090909"/>
        <path d="M301.66992,193.02131l.343.04209c-1.59426.78418-3.1886,1.56833-5.05833,2.48793a65.97818,65.97818,0,0,1,3.8186-6.81616c.12787-.28993.36035-.51832.47867-.81386.18022-.20574.33615-.1714.47336.0479a1.34835,1.34835,0,0,1-.33342,1.10486c-1.16772,1.46978-1.73885,3.277-2.82463,4.85159C299.71914,193.83493,300.43769,192.55576,301.66992,193.02131Z" fill="#7a7981"/>
        <path d="M284.91511,158.48082c-.43386.4711-.7066,1.14075-1.47633,1.19791a16.57671,16.57671,0,0,0,.27643-3.30779c-.02427-.508.078-.80052.70361-.7941.6019.00618.76813.24831.71024.78327C285.05261,157.06646,284.986,157.77387,284.91511,158.48082Z" fill="#0b0b0b"/>
        <path d="M301.97635,176.955l-.53886-.01367c-.58853-.99663.26489-1.91681.16576-2.99719-1.40625.18335-2.6705.78649-4.009,1.0857-.45114.10084-.90113.39328-1.363.02822l-.26278-.21129,7.09941-2.20234A19.061,19.061,0,0,0,301.97635,176.955Z" fill="#75757d"/>
        <path d="M313.86249,197.59322l.38535-.30063c2.63581-1.359,5.28545-2.69182,7.84163-4.20012a2.012,2.012,0,0,1,1.68475-.366.19078.19078,0,0,1,.0266.30364,79.7587,79.7587,0,0,1-8.58979,4.38541,2.5973,2.5973,0,0,1-1.3439.36345.10021.10021,0,0,1-.05572-.07969A.30348.30348,0,0,1,313.86249,197.59322Z" fill="#74747b"/>
        <path d="M290.89942,158.952l-.446.2423q-.37432-.35733-.74863-.71472a17.34939,17.34939,0,0,0,.45641-2.0914c.05793-.57612.205-.69519.79154-.62015.65935.08437.68306.40871.56269.88469C291.321,157.42193,291.10583,158.18588,290.89942,158.952Z" fill="#0d0d0d"/>
        <path d="M330.04116,193.7575a1.9269,1.9269,0,0,1,1.29341-.21085c-2.6078,1.54272-5.03925,3.41372-7.99948,4.30133-.25815.09934-.30223-.05886-.312-.25879.39372-.633,1.145-.67006,1.71089-1.018,1.321-.81236,2.70513-1.51913,4.00128-2.3748A1.59341,1.59341,0,0,1,330.04116,193.7575Z" fill="#707078"/>
        <path d="M324.671,182.98324c-.27141.43168-.48746.37311-.65958-.07448-.2978-.73294.2116-1.29581.42021-1.91523.26723-.79355.6313-1.55237.91255-2.35358-.20619-.3014-.52932.02923-.74893-.1446a.18424.18424,0,0,1-.1079-.16976q.00662-.10817.03618-.10816c.54016-.30215,1.19517-1.00689,1.63614-.68928.45328.32649.03652,1.17246-.161,1.75755C325.57984,180.52622,325.11625,181.75163,324.671,182.98324Z" fill="#717178"/>
        <path d="M303.88363,177.44047c-.3196-.03169-.67022.09791-.94218-.18118.65191.02125,1.08739-.43539,1.60117-.72156,1.8939-1.0549,3.79008-2.10566,5.9219-3.28928l-.55021,2.32044a.5675.5675,0,0,1-.39929-.30027c-.05249-.58613-.3122-.59375-.76-.31826-1.18889.73149-2.45289,1.33038-3.6607,2.02946A2.28967,2.28967,0,0,1,303.88363,177.44047Z" fill="#7a7a81"/>
        <path d="M323.08757,197.63018l.24752.21779a2.90927,2.90927,0,0,1-1.58942.32864c.52241-1.55543,1.36269-2.80528,1.94786-4.16831.11829-.27548.68275-.5954.10729-.97817l-.02455-.29436-.02607-.1513,1.03584.22712c-.063,1.30789-.984,2.25829-1.41975,3.4106C323.1952,196.67453,322.73443,197.073,323.08757,197.63018Z" fill="#7c7c81"/>
        <path d="M324.52356,178.21743q.00141.09942.00192.19885c.00845.03827.03732.09718.02247.11188a9.96732,9.96732,0,0,1-4.55366,3.00763l-.27789-.261A28.09169,28.09169,0,0,1,324.52356,178.21743Z" fill="#72737a"/>
        <path d="M317.57066,180.32664q.34142-1.598.68262-3.196c.0864-.40539.19742-.81622-.21094-1.1296.28685-.11171.52746-.36367,1.01476-.258q-.61533,2.43665-1.23012,4.87155Z" fill="#7d7d84"/>
        <path d="M293.12611,174.54463a.49492.49492,0,0,1-.52779-.23413c-.00247-.96134.96669-1.22744,1.36224-1.91178a1.78725,1.78725,0,0,1-.876-.10695.58214.58214,0,0,1-.29613-.40043,8.1348,8.1348,0,0,1,2.84068-.27889C294.74352,172.71175,293.67376,173.41814,293.12611,174.54463Z" fill="#73727a"/>
        <path d="M316.33289,176.91092c.38069.38735-.07193.43841-.24734.54432-.94187.5687-1.90117,1.1084-2.84617,1.672-.2857.1704-.70508.23008-.68759.704q-.36675-.20311-.734-.40609Q314.07534,178.16807,316.33289,176.91092Z" fill="#79797f"/>
        <path d="M292.78838,171.89134l.29149.23661a4.22554,4.22554,0,0,1-3.54828.78436c-.80056.27575-.80056.27575-.768-.20055.44322-.62468,1.15834-.34413,1.736-.52143Z" fill="#6e6e77"/>
        <path d="M290.49955,172.19034q-.86793.26068-1.7359.5214c-.40976-.1039-.89033.078-1.23087-.3051a.784.784,0,0,0,.06819-.21472q1.18857-.11232,2.37709-.22467Z" fill="#edecec"/>
        <path d="M309.67872,175.29005l.23556.27881-.08271,1.13787-.21117-.49108A.61341.61341,0,0,1,309.67872,175.29005Z" fill="#686770"/>
        <path d="M301.25188,187.92131a.86321.86321,0,0,1-.47867.81386l-.28248-.27914Z" fill="#dfdee0"/>
        <path d="M261.91123,156.82022a8.71186,8.71186,0,0,1,3.11845.66956c.60035-.29224.84039.21933,1.1725.52555,5.534,3.555,4.85133,11.55706.91866,14.82306-1.716,1.42514-3.67527,1.58615-5.73968,1.51375a6.15307,6.15307,0,0,1-5.13061-2.81853,9.51808,9.51808,0,0,1-1.1732-10.17287,3.16373,3.16373,0,0,1,1.3256-1.63462q.81941-.85671,1.63878-1.71343a1.17333,1.17333,0,0,1,1.15785-.53047l1.504-.46426A1.03431,1.03431,0,0,1,261.91123,156.82022Z" fill="#f3f3f3"/>
        <path d="M278.92224,184.64327a.44872.44872,0,0,1,.44918.18892c-6.55622,4.7213-15.89982,5.29231-22.21875,1.258-4.91344-3.137-7.71356-7.83366-9.39943-13.28a21.59489,21.59489,0,0,1-.99889-4.54212c-.098-1.16008-.48182-1.65478-1.64936-1.10935h-1.42951l-.14385-.2988c2.40788-.344,4.49328-1.13968,5.41664-3.56278.46333-.012.30648.27609.24967.51581-.02332.15776.00806.36-.07844.46639-.86145,1.05988-.42334,1.85295.3657,2.75773a35.67153,35.67153,0,0,0,23.76331,12.3397,5.83833,5.83833,0,0,0,.59932.0069,4.8448,4.8448,0,0,0,2.206.19684,2.486,2.486,0,0,1,1.64548.55006h-4.56875a2.1773,2.1773,0,0,1-1.73243.20414c-7.891-1.2418-14.905-4.29208-20.59265-10.05258-.97455-.987-1.75881-2.13481-2.72164-3.327.34573,3.50907.96135,6.77238,2.7701,9.69539,3.77627,7.31047,10.62048,12.31833,19.976,10.46077a25.34217,25.34217,0,0,0,5.50163-1.59106C277.16954,185.14442,278.0599,184.93864,278.92224,184.64327Z" fill="#371633"/>
        <path d="M256.40295,159.72611a9.328,9.328,0,0,0-.92436,10.038,7.95418,7.95418,0,0,0,5.90257,4.588c-1.74138.468-3.16557-.322-4.507-1.23148a8.60648,8.60648,0,0,1-1.196-13.1173C255.85819,159.83373,255.99142,159.36092,256.40295,159.72611Z" fill="#6e635d"/>
        <path d="M259.19958,157.48222a2.118,2.118,0,0,1-1.15785.53046,25.668,25.668,0,0,1-2.5221-3.31981c-.21477-.41362-.402-.73812.1869-1.06142.55221-.30314.7694-.10553,1.004.35943A17.25252,17.25252,0,0,0,259.19958,157.48222Z" fill="#060505"/>
        <path d="M261.91123,156.82022l-1.20765.19774a23.51911,23.51911,0,0,1-.96553-3.933c-.0772-.44807-.218-.95435.52831-1.08916.81293-.14684.68428.47275.77866.87359C261.354,154.18153,261.6254,155.50258,261.91123,156.82022Z" fill="#070707"/>
        <path d="M266.20218,158.01533l-1.17249-.52555a12.64836,12.64836,0,0,1-.54986-3.7449c.00315-.48838.07741-.81222.71129-.806.64018.00633.721.33522.683.82529A24.21939,24.21939,0,0,0,266.20218,158.01533Z" fill="#070707"/>
        <path d="M249.19794,163.813l-.24973-.51587q.14327-.61661.28642-1.23331A2.01384,2.01384,0,0,1,249.19794,163.813Z" fill="#4b2e45"/>
        <path d="M250.60621,176.70843c-2.1377-3.161-2.511-6.80293-2.9774-10.81186,6.45456,8.88014,15.07609,13.20638,25.50167,14.234a13.10688,13.10688,0,0,0,4.11021.13176,8.80964,8.80964,0,0,1,3.55746.6903c-1.34515,1.19252-3.05168,1.7464-4.27786,2.96361l-.4864.2811c-1.04216-1.0448-2.11764-.52676-3.27578-.18274-1.65128.49051-3.18317.27517-4.12506-1.43217a.51236.51236,0,0,0-.78324-.25248c-.21236.10987-.41833.23157-.63106.34065-2.17218,1.1138-3.93933.74145-5.26542-1.31529a1.91464,1.91464,0,0,0-2.22959-1.00679,2.95236,2.95236,0,0,1-3.54383-1.95025c-.29464-.7738-.78977-.691-1.43924-.55923A3.90394,3.90394,0,0,1,250.60621,176.70843Z" fill="#f3f3f3"/>
        <path d="M301.66992,193.02131c-1.27934.207-2.27728,1.11315-3.72224,1.51074,1.30145-2.30256,2.346-4.53937,3.77756-6.5626q.35442-.25479.70883-.50943c2.0521.5359,4.10538,1.06781,6.1534,1.61935.11932.03214.19582.22332.29207.34038C306.45,190.56762,304.00423,191.683,301.66992,193.02131Z" fill="#bfbec0"/>
        <path d="M301.45064,187.26856a49.7485,49.7485,0,0,1-10.64565,4.79368c.12466-.28809.21482-.49649.30475-.70492q1.95493-2.86431,3.91047-5.72849c.18071-.06781.39242-.23447.53716-.1888A42.45824,42.45824,0,0,1,301.45064,187.26856Z" fill="#bfbec0"/>
        <path d="M307.04916,195.21113c.48962-1.15547.93072-2.33493,1.48613-3.45785a20.23,20.23,0,0,1,1.3479-2.07883,22.915,22.915,0,0,1,6.66829,1.66267,41.035,41.035,0,0,0-4.32761,2.21981c-1.4399.66317-2.84782,1.39632-4.34464,1.92817C307.56338,195.59733,307.09264,195.999,307.04916,195.21113Z" fill="#bfbec0"/>
        <path d="M323.7502,192.58447a1.43853,1.43853,0,0,1,.02622.15167,7.48185,7.48185,0,0,0-2.70185,1.23887c-1.92291,1.23084-4.00737,2.149-6.02818,3.1907a.9874.9874,0,0,1-.79878.12718,40.785,40.785,0,0,1,2.84-5.68569c.52358-.45879,1.06307-.08493,1.5753.00433C320.36353,191.90789,322.05514,192.25613,323.7502,192.58447Z" fill="#bfbec0"/>
        <path d="M293.99734,185.33018a58.25324,58.25324,0,0,0-10.56051,3.77545,19.35907,19.35907,0,0,1,5.795-5.488,38.354,38.354,0,0,1,4.48675,1.265A.363.363,0,0,1,293.99734,185.33018Z" fill="#bfbec0"/>
        <path d="M288.46989,183.416c-3.81032.2914-7.62142.57334-11.43.88623-.47332.03889-.31733-.14479-.22441-.36846,1.22719-.72847,2.4795-1.418,3.67087-2.20041a2.183,2.183,0,0,1,2.12682-.24106C284.54781,182.18384,286.58427,182.56982,288.46989,183.416Z" fill="#bfbec0"/>
        <path d="M323.08757,197.63019c-.41491.12-.86707.30129-.48363-.45375.73648-1.45031,1.45556-2.90947,2.182-4.36491,1.49017.124,2.94307.54928,4.45339.53253a.834.834,0,0,1,.80182.41347A53.9759,53.9759,0,0,1,323.08757,197.63019Z" fill="#bfbec0"/>
        <path d="M326.44548,183.92118a24.04606,24.04606,0,0,1,6.82969-3.63328,18.6067,18.6067,0,0,1-2.50691,5.34011Q328.6069,184.77477,326.44548,183.92118Z" fill="#bfbec0"/>
        <path d="M309.6787,175.29005q-.029.46291-.05818.92571c-.40374.61626-.15908,1.31351-.24071,1.97006-.04677.37626-.05194.78186-.60118.58418-1.5968-.5747-3.32293-.66833-4.895-1.32953,1.8365-1.26443,3.86891-2.16976,5.87934-3.32943Z" fill="#bebdbf"/>
        <path d="M319.99429,181.53579a34.76329,34.76329,0,0,0,4.53116-3.11966c.40038-.13465.80076-.26945,1.38693-.46681-.66929,1.74664-1.28493,3.35329-1.90075,4.95969A7.46716,7.46716,0,0,1,319.99429,181.53579Z" fill="#bfbec0"/>
        <path d="M331.50684,185.85132a30.47845,30.47845,0,0,1,7.23679-1.75636c-1.36142,1.49809-2.93024,2.41509-3.96656,3.86415C333.80134,187.07852,332.43476,186.80524,331.50684,185.85132Z" fill="#bebdc0"/>
        <path d="M296.23126,175.05807l5.875-1.64343c-.23223,1.22548-.4503,2.37619-.66856,3.52681q-2.51177-.65976-5.02357-1.3176C296.04068,175.52669,295.64907,175.45514,296.23126,175.05807Z" fill="#bfbec0"/>
        <path d="M289.53159,172.91231q1.77414-.39205,3.54829-.78424a3.46482,3.46482,0,0,0,1.74506-.29582c-.89955,1.00125-1.56308,1.73979-2.22661,2.47829C291.546,173.91031,290.312,173.90879,289.53159,172.91231Z" fill="#bdbcbf"/>
        <path d="M283.00142,166.1767c-.00567-1.11167.62164-1.95245,1.47309-1.9744a1.78183,1.78183,0,0,1,1.608,1.98621,1.86081,1.86081,0,0,1-1.497,2.00013C283.70847,168.22617,283.00732,167.33564,283.00142,166.1767Z" fill="#030303"/>
        <path d="M250.60621,176.70843a4.85771,4.85771,0,0,0,4.87135.592c.51-.23924.586.04579.74808.40839,1.051,2.35135,1.69164,2.67874,4.28081,2.201.57846-.10673.97321-.14765,1.30845.5607,1.27522,2.6944,3.03377,3.21219,5.63527,1.7128.744-.4288,1.17879-.75419,1.55962.44047.33756,1.059,1.44095,1.29062,2.49308,1.29105a4.86377,4.86377,0,0,0,2.62205-.73724c.674-.4264,1.09418-.44495,1.40794.365a2.925,2.925,0,0,0,.501.65479c.17216.69454.73679.40308,1.14907.43209.57724.0406,1.15929.01248,1.7393.01378a23.89846,23.89846,0,0,1-8.30113,2.83587c-4.45135.74655-8.74878.35253-12.6109-2.262A19.698,19.698,0,0,1,250.60621,176.70843Z" fill="#6b414f"/>
        <path d="M267.64209,166.07158a2.36786,2.36786,0,0,1-2.177,2.52679,2.05127,2.05127,0,0,1-1.903-2.19864,2.45716,2.45716,0,0,1,2.13283-2.59883A2.07026,2.07026,0,0,1,267.64209,166.07158Z" fill="#020202"/>
      </g>
    </g>
  </g>
</svg>
