<svg xmlns="http://www.w3.org/2000/svg" width="600" height="600" viewBox="0 0 600 600">
  <title>character-nigel-dungsworth-full</title>
  <g id="Background">
    <path d="M544.89584,516.8212c121.8216-119.26643,0-198.77739,24.6025-314.66125,14.6048-68.79225-2.737-177.38577-94.004-167.42186-88.51683-83.68319-306.68251,7.50322-335.39443,27.915C38.34933.53661-10.87377,193.85991,49.96348,313.90054c-67.1528,39.74673-87.06214,255.86451,72.21253,196.92329C142.08534,628.70626,540.272,628.70626,544.89584,516.8212Z" fill="#56786a"/>
    <g>
      <g>
        <path d="M381.59137,202.616c1.00048,1.59171,2.92338,3.60413,3.74647,5.287-1.27011,1.27617-2.36283,2.51728-3.45555,3.71632a36.40181,36.40181,0,0,1-6.15187,5.72874,21.39226,21.39226,0,0,1-7.36523,3.24653,11.93065,11.93065,0,0,1-1.65327.25243,50.53891,50.53891,0,0,1-6.44989.0631c-1.114-2.62947-2.18544-5.266-3.14334-7.9375l.24834-.09115c5.20107,1.739,18.58335-4.55775,23.41544-10.16729Z" fill="#caad83"/>
        <path d="M355.85567,209.22122c-.35478-1.157-.68117-2.31393-.97209-3.48492.12772-8.47041,3.76066-17.17922,10.64338-26.16149l.07805-.12622a20.37543,20.37543,0,0,0,1.95129,1.1149c1.01467-1.63378,1.63908-3.73736,3.29235-4.84524l.38316-.10518c.75213,2.945,4.83919,18.231,10.35956,27.00292l-.8089.09817c-4.83209,5.60954-18.21437,11.90625-23.41544,10.16729l-.24834.09115C356.67166,211.73149,356.24593,210.47636,355.85567,209.22122Z" fill="#e7d1af"/>
        <path d="M381.32174,255.11427l-.55346-.37864a.14114.14114,0,0,0-.00709-.09116,1.06184,1.06184,0,0,0-.25544-.45577c-2.31317-11.59773-8.77015-22.48023-13.79383-33.3417a11.93065,11.93065,0,0,0,1.65327-.25243,21.39226,21.39226,0,0,0,7.36523-3.24653,36.40181,36.40181,0,0,0,6.15187-5.72874c2.53313,9.90084,6.68405,18.47642,10.60791,27.90746,1.90161,4.57879,4.09415,9.389,5.9461,14.108,1.97257,5.04859,2.38412,6.458-.53927,11.21908-5.3004,8.67375-9.85577,16.06432-15.61029,24.46461a45.99042,45.99042,0,0,0-6.44989,14.38847c-1.22044,4.8803.70246,11.42943-1.69585,16.12041a17.13555,17.13555,0,0,1-1.334,2.13163h-.00709c-1.87324,2.62246-4.39927,5.273-5.49908,9.424l7.18073-9.72554a1.5779,1.5779,0,0,1,1.7739,1.22709c.69537,2.12461-5.96739,14.06592-10.019,13.7574a6.82646,6.82646,0,0,1-.82309-.13323,31.2052,31.2052,0,0,1-8.21669-3.52,16.4466,16.4466,0,0,1,.37606-4.719,9.28858,9.28858,0,0,0-2.2422,3.527,26.2899,26.2899,0,0,1-3.95934-3.25354c-.3264-.32956-.6386-.67314-.93662-1.02374a13.40254,13.40254,0,0,1,1.01467-4.91536c-.95081.97466-1.7597,2.02645-2.64665,3.04318a38.598,38.598,0,0,1-3.59747-4.79616s-.00709-.007,0-.007c.79471-1.767,1.82357-3.513,2.448-5.12572-1.01467,1.00972-2.34154,2.13163-3.413,3.34469a9.5372,9.5372,0,0,1-.71665-2.04748,13.45838,13.45838,0,0,1-.3264-4.78914,6.33515,6.33515,0,0,1,.3193-1.26215,5.44424,5.44424,0,0,1,.447-.96765,13.8842,13.8842,0,0,1,2.81694-3.21146c3.09368-2.71361,7.45747-5.22388,9.96221-7.22228a17.67188,17.67188,0,0,0,3.55489-4.24923C366.03075,286.35239,371.90589,268.31071,381.32174,255.11427Z" fill="#f8cca5"/>
        <path d="M374.48159,321.65743l-7.18073,9.72554c1.09981-4.15106,3.62584-6.80156,5.49908-9.424h.00709C373.16181,321.959,373.8217,321.69951,374.48159,321.65743Z" fill="#b07e5c"/>
        <path d="M371.10409,175.11522s.04258.1753.12772.49785l-.38316.10518c-1.65327,1.10788-2.27768,3.21146-3.29235,4.84524a20.37543,20.37543,0,0,1-1.95129-1.1149c-3.193-2.03346-6.32217-4.96444-9.6571-6.88571l-.48959.19634a19.96608,19.96608,0,0,0-4.12254-6.85767l-.19867-.25242c.6315-.48383,1.27011-.96765,1.9158-1.45849C360.78711,169.84927,367.41439,172.92049,371.10409,175.11522Z" fill="#af9674"/>
        <path d="M368.59935,537.16894c.28382.79234.4825,1.39537.56055,1.71091.6386,2.42612-1.412,14.087-5.13011,7.11009,0,0-.45412,5.1187-2.02934,6.91375-1.80937,2.04047-6.22992,1.26916-7.74129-.2384-.57474,1.32525-3.71808,9.5853-11.79286,3.5901-1.49008,3.56907-3.0582,3.548-6.73372,3.72334-4.76823.23139-3.98772-1.38135-7.45746-3.89863-2.54022,2.27887-3.52651,3.03616-6.81886,2.56636-2.001-.28749-6.237-4.27727-4.9811-7.71312,3.01562,2.377,11.96316,2.01243,16.334,2.01944a72.13054,72.13054,0,0,0,14.89364-1.31123c8.47213-1.788,14.72335-9.09447,20.60559-15.3C368.41486,536.636,368.5142,536.90949,368.59935,537.16894Z" fill="#914826"/>
        <path d="M368.5,536.13818c.04257.34359.07805.68717.09934,1.03076-.08515-.25945-.18449-.53291-.29092-.82741C368.37229,536.27141,368.43615,536.2083,368.5,536.13818Z" fill="#878248"/>
        <path d="M325.52913,198.507a2.71381,2.71381,0,1,0,2.746,2.71362A2.72756,2.72756,0,0,0,325.52913,198.507ZM365.527,179.57481c-6.88272,8.98227-10.51566,17.69108-10.64338,26.16149a49.0211,49.0211,0,0,1-1.41912-8.63168,46.83047,46.83047,0,0,0,.41864,15.72073c-2.9021,5.91807-4.9953,13.71533-6.17316,19.68949-1.68166,8.50546-4.29993,27.51479,1.7668,41.26517a118.53052,118.53052,0,0,1,6.71952,12.26386h-.0071s-4.14382,5.36412-12.80753,9.94291c-.19868-.71522-.38316-1.43043-.56055-2.13864a38.42065,38.42065,0,0,1-3.96644,1.55665c-.6386.22438-1.23463.4137-1.71.55394a16.851,16.851,0,0,0,.35477,2.349l.12063.2945c-.97919.37864-2.001.74326-3.06529,1.07983l-1.38364.22438-.26254-1.59871-4.40636.7082.35478,2.14565a67.154,67.154,0,0,1-11.58,1.2341v-.11219c1.114-10.74928,1.4404-22.97107-.0071-33.65023-1.40492-10.27948-5.49908-19.92088-7.0672-30.17932-1.75261-11.48553.7947-23.00613,6.30088-33.92369q1.30914-1.28319,2.51893-2.6435l1.09272,2.04748-.05676-3.19743c3.94515-4.48062,7.62066-9.19965,12.914-12.32a68.46459,68.46459,0,0,1,17.51191-7.068,17.70983,17.70983,0,0,1-2.98724-6.56316c3.64,2.61545,7.422,5.01353,11.11169,7.60794-.67408-2.07553-1.67456-5.98818-3.15044-9.63438l.48959-.19634c3.33493,1.92127,6.46409,4.85225,9.6571,6.88571Zm-18.20728,30.17932a11.11071,11.11071,0,0,1,1.17787-2.60142c-2.16416-.98167-8.55728-1.80908-10.99107-1.81609a28.88569,28.88569,0,0,0-7.69871,1.164c0,.04908-.46122,1.10087-.95081,2.2929-.36188.90454-.745,1.87919-.94372,2.55935a104.56636,104.56636,0,0,0-2.34864,10.9947c-.32639,1.8231-1.34106,9.51518-.9579,11.05079,1.47588.16829,3.35621.28749,5.3146.37163,2.001.09116,4.08706.14725,5.91772.18932,3.07948.0561,5.42812.0561,5.42812.0561A161.54036,161.54036,0,0,1,347.31968,209.75413Zm-19.75412,81.92032a2.74618,2.74618,0,1,0-2.746,2.71361A2.72755,2.72755,0,0,0,327.56556,291.67445ZM324.01777,257.316a2.74619,2.74619,0,1,0-2.746,2.71362A2.72755,2.72755,0,0,0,324.01777,257.316ZM320.47,221.5552a2.74618,2.74618,0,1,0-2.746,2.71361A2.72755,2.72755,0,0,0,320.47,221.5552Z" fill="#e7d1af"/>
        <path d="M357.19674,332.9887c-.62441-.37163-1.25592-.77131-1.86614-1.192a9.28858,9.28858,0,0,1,2.2422-3.527A16.4466,16.4466,0,0,0,357.19674,332.9887Z" fill="#b07e5c"/>
        <path d="M366.17975,345.43487c-8.13864-3.548-12.80044-9.26275-14.844-16.85667l.03548-.03506a26.2899,26.2899,0,0,0,3.95934,3.25354c.61022.42071,1.24173.82039,1.86614,1.192a31.2052,31.2052,0,0,0,8.21669,3.52A64.94634,64.94634,0,0,1,366.17975,345.43487Z" fill="#6e683c"/>
        <path d="M355.59314,57.56732l.02128.12621c-5.81128.77833-10.87753,4.07393-15.26261,8.30914l-.369-.37164c-4.009-4.705-6.40732-7.15216-12.77206-6.73846-5.1514.32956-9.01849,2.86788-13.75125,5.06963a25.77151,25.77151,0,0,1-15.518,2.32795,30.39517,30.39517,0,0,1-12.56629-5.49734c3.42717-.43474,9.1746-2.60844,10.99816-5.883-3.12206-1.51458-7.98253-3.527-8.54308-6.80858,5.32169.68016,10.67886.39968,14.26922-.97466,4.3496-1.66182,8.61405-4.24221,13.04879-5.68667,5.41393-1.76,9.63581-1.795,15.25552-.70119C340.56468,42.71606,348.753,49.99444,355.59314,57.56732Z" fill="#dea84e"/>
        <path d="M344.97814,107.41509a4.47061,4.47061,0,0,0,2.63246,3.9968c1.93709.91856,3.75356.25944,5.3004-1.02374-3.07948,1.26916-6.18735,1.26916-7.0672-2.68557,0,0,2.5686-.23139,3.56908-1.8231a2.32507,2.32507,0,0,0-.54636-2.73465,4.69926,4.69926,0,0,0-1.51846-.78534,3.758,3.758,0,0,1,1.51846-3.77241c5.045-3.15537,6.29378,1.22709,6.35055,4.56476.37607-1.55665.49669-4.39648-1.036-5.5885-2.8879-2.25784-7.50713,1.12191-7.54261,4.1791-.00709,1.199.26964.94661,1.185,1.60574a2.576,2.576,0,0,1,1.1211,1.43043C349.33483,107.03645,346.26953,106.94529,344.97814,107.41509Zm7.81933-13.95373c9.27394,1.746,5.14431,19.95594-3.31364,21.87721a6.998,6.998,0,0,1-2.85242-.02805,8.07743,8.07743,0,0,1-3.8671-2.06151c-.58893,2.08956-1.19915,4.33337-1.7597,6.65432l-1.42622-.33657c.149-3.00111.149-7.43966.71666-11.82211.04257-.31553.08514-.63808.13481-.95362a34.95341,34.95341,0,0,1,.88695-4.21417c.071-.26645.149-.52589.23416-.78533,1.49007-4.66994,4.24316-8.29511,9.43-8.46339A8.35253,8.35253,0,0,1,352.79747,93.46136Z" fill="#f8cca5"/>
        <path d="M353.8831,212.82535a46.83047,46.83047,0,0,1-.41864-15.72073,49.0211,49.0211,0,0,0,1.41912,8.63168c.29092,1.171.61731,2.328.97209,3.48492l-.26253.50486A33.62585,33.62585,0,0,0,353.8831,212.82535Z" fill="#85735b"/>
        <path d="M348.80266,325.64722c.6457.75729,1.20625,1.38135,1.57522,1.80908.02128.021.03548.04207.05676.0631.298.3506.61022.69418.93662,1.02374l-.03548.03506c2.04353,7.59392,6.70533,13.30864,14.844,16.85667.149,6.479-.39025,13.01413-.38316,19.48614.02129,14.99149-1.10691,30.09518-1.88742,44.87632-.83728,15.73475,5.421,29.00833,5.43522,44.43456,0,.42072,0,.83442-.0071,1.25514-4.825,2.08254-8.26636,4.43854-13.76544,5.24492a31.57278,31.57278,0,0,1-15.41872-1.21307c-.41154-3.79345-.84437-7.56586-1.334-11.38736-.83018-6.59822-2.84533-12.38306-2.70342-19.07244.27673-13.505,1.9442-28.244-.09224-41.69991-1.10691-7.28539-3.12915-14.28329-4.6547-21.49856-.19868-.94661-.43283-1.8792-.69537-2.79776-1.46169-5.16779-3.7039-9.95693-4.6618-15.21588a.00693.00693,0,0,0-.0071-.007,29.24565,29.24565,0,0,1-.41154-3.48493c-2.88791-8.18992-1.82357-21.82111-1.15658-27.83734,2.39831-.23139,4.68308-.55394,6.78338-.94661l.26254,1.59171,4.39926-.7082-.3264-1.97737,1.38364-.22438c2.24221-.61,4.32122-1.2972,6.25831-2.02644a13.45838,13.45838,0,0,0,.3264,4.78914,9.5372,9.5372,0,0,0,.71665,2.04748,16.21148,16.21148,0,0,0,.965,1.781c-.00709,0,0,.007,0,.007A38.598,38.598,0,0,0,348.80266,325.64722Z" fill="#878248"/>
        <path d="M351.44931,322.604a13.40254,13.40254,0,0,0-1.01467,4.91536c-.02128-.021-.03548-.04207-.05676-.0631-.369-.42773-.92952-1.05179-1.57522-1.80908C349.68961,324.63049,350.4985,323.5787,351.44931,322.604Z" fill="#b07e5c"/>
        <path d="M354.79843,299.48573c.31221.014.19158-.30853.149-.32956A2.17091,2.17091,0,0,0,354.79843,299.48573Zm-2.44088-5.5885c-.23416.16127-.47541.44876-.1632.40669,0,.30852.45412-.45578.41864-.39968a.02559.02559,0,0,0,.00709-.021.13529.13529,0,0,0,.0071-.04908,2.96357,2.96357,0,0,1,.22706-.25243,1.35733,1.35733,0,0,0-.31221.21036A.63879.63879,0,0,0,352.35755,293.89723Zm2.39121,5.72874c-.01419-.62406.28382-.28749-.22706-.82741-.04257.28749-.13481.79235-.19158,1.12892C354.3656,299.89943,354.57137,299.75218,354.74876,299.626Zm-7.124-2.43314a3.5536,3.5536,0,0,0-.58893.31554c-.0071,0-.0071,0-.0071.007-.02838.021-.03548.04207-.01419.04908a.22785.22785,0,0,0,.17029.30853c.0071-.021.06386-.10518.12772-.20335.071-.11219.1632-.2384.23416-.34358v-.007c.12062-.07713.19158-.14023.09224-.13322l-.00709-.007v.007C347.62479,297.17881,347.62479,297.17881,347.62479,297.19283Zm9.11783,2.37c-2.50474,1.9984-6.86853,4.50867-9.96221,7.22228l-.05676-.0631c-1.07853-3.42182-2.33445-7.09607-3.342-10.73526,8.66371-4.57879,12.80753-9.94291,12.80753-9.94291h.0071c1.46169,3.03616,2.86662,6.19854,4.10125,9.26976A17.67188,17.67188,0,0,1,356.74262,299.56286Zm-8.10316,3.506c-.34059.19634-.24835.36462-.14191.575a.75776.75776,0,0,0,.19158-.1753.496.496,0,0,0,.12772-.43474c.01419-.014,0-.028-.02129-.04908.0071,0,.01419-.007.02129-.007h-.03548a1.03057,1.03057,0,0,0-.35478-.20335q.13836.15777.21287.25243Q348.62881,303.03726,348.63946,303.06882Z" fill="#743016"/>
        <path d="M348.49755,207.15271a11.11071,11.11071,0,0,0-1.17787,2.60142l-.12063-.02805a15.63665,15.63665,0,0,0-5.68356,1.746,21.60934,21.60934,0,0,0-6.71243,5.57448c-.6457-.98868-1.16368-2.13863-1.7668-3.24652-.19868-.37864-.41864-.75729-.65279-1.12191-1.00048-1.54262-2.4125-2.41911-3.51942-3.8846H328.857c.48959-1.192.95081-2.24382.95081-2.2929a28.88569,28.88569,0,0,1,7.69871-1.164C339.94027,205.34363,346.33339,206.171,348.49755,207.15271Z" fill="#caad83"/>
        <path d="M347.19905,209.72608l.12063.02805a161.54036,161.54036,0,0,0-6.05254,24.26126s-2.34864,0-5.42812-.0561l.00709-.16127c.11353-2.04047,1.01467-4.123,1.42622-6.06531.38316-1.85816,1.00757-3.61816,1.561-5.50437.97919-3.37273,1.62489-6.94881,2.53312-10.18131.04257-.14024.1561-.568.1561-.568l-.00709-.007A15.63665,15.63665,0,0,1,347.19905,209.72608Z" fill="#af9674"/>
        <path d="M344.24019,319.063c1.07144-1.21306,2.39831-2.335,3.413-3.34469-.62441,1.61275-1.65327,3.35872-2.448,5.12572A16.21148,16.21148,0,0,1,344.24019,319.063Z" fill="#b07e5c"/>
        <path d="M348.86652,103.14483a2.32507,2.32507,0,0,1,.54636,2.73465c-1.00048,1.59171-3.56908,1.8231-3.56908,1.8231.87985,3.95473,3.98772,3.95473,7.0672,2.68557-1.54684,1.28318-3.36331,1.9423-5.3004,1.02374a4.47061,4.47061,0,0,1-2.63246-3.9968c1.29139-.4698,4.35669-.37864,3.96643-2.63648a2.576,2.576,0,0,0-1.1211-1.43043c-.91533-.65913-1.19206-.4067-1.185-1.60574.03548-3.05719,4.65471-6.43694,7.54261-4.1791,1.53265,1.192,1.412,4.03185,1.036,5.5885-.05677-3.33767-1.30559-7.72013-6.35055-4.56476a3.758,3.758,0,0,0-1.51846,3.77241A4.69926,4.69926,0,0,1,348.86652,103.14483Z" fill="#381534"/>
        <path d="M345.13424,129.43955v.007h-.0071v-.007Z" fill="#f8cca5"/>
        <path d="M345.13424,129.43955h-.0071v.007c-3.48393,1.79505-5.42812,3.28859-6.65566,5.74978a88.96,88.96,0,0,1,2.53313-15.293c.56055-2.32095,1.17077-4.56476,1.7597-6.65432a8.07743,8.07743,0,0,0,3.8671,2.06151A33.60532,33.60532,0,0,0,345.13424,129.43955Z" fill="#c48b37"/>
        <path d="M343.96347,309.9966a5.44424,5.44424,0,0,0-.447.96765l-.10643-.03506-3.84581-13.1123-.70956-2.4121a38.42065,38.42065,0,0,0,3.96644-1.55665c.17739.70821.36187,1.42342.56055,2.13864,1.00757,3.63919,2.26349,7.31344,3.342,10.73526l.05676.0631A13.8842,13.8842,0,0,0,343.96347,309.9966Z" fill="#904825"/>
        <path d="M343.41,310.92919l.10643.03506a6.33515,6.33515,0,0,0-.3193,1.26215c-1.93709.72924-4.0161,1.4164-6.25831,2.02644l-1.38364.22438-2.38411-14.57078,1.38364-.22438c1.06433-.33657,2.0861-.70119,3.06529-1.07983.667-.25243,1.31268-.51889,1.94419-.78534Z" fill="#743016"/>
        <path d="M341.31681,102.57686a34.95341,34.95341,0,0,0-.88695,4.21417,24.41648,24.41648,0,0,0-8.32312-2.25083c.43283-1.27617.92242-2.53831,1.4475-3.75839A14.47872,14.47872,0,0,1,341.31681,102.57686Z" fill="#c48b37"/>
        <path d="M335.51972,119.18811a11.55494,11.55494,0,0,0-5.30041.78534,24.1183,24.1183,0,0,1,.09934-8.51949c.27673.12621.447.20335.447.20335.05677-.14024-.06386-.4067-.35478-.72924a43.10136,43.10136,0,0,1,1.34816-5.3501l.06386.021a20.6655,20.6655,0,0,1,8.15993,2.10358l.31221.04207c-.56765,4.38245-.56765,8.821-.71666,11.82211-.77342-.08415-1.69584-.20335-2.68923-.2945C336.44214,119.2372,335.988,119.20214,335.51972,119.18811Z" fill="#c48b37"/>
        <path d="M338.85464,295.40479l.70956,2.4121c-.63151.26645-1.2772.53291-1.94419.78534l-.12063-.2945a16.851,16.851,0,0,1-.35477-2.349C337.62,295.81849,338.216,295.62917,338.85464,295.40479Z" fill="#e7d1af"/>
        <polygon points="328.857 301.162 328.502 299.016 332.909 298.308 333.171 299.906 335.555 314.477 335.882 316.455 331.482 317.163 331.22 315.571 328.857 301.162" fill="#904825"/>
        <path d="M335.839,233.95929c-1.83066-.04207-3.91677-.09816-5.91772-.18932l.00709-.08414a51.00517,51.00517,0,0,1,.92243-10.77733c.61731-2.86086,1.00048-6.53511,2.15706-9.09447l.02838-.014c.60312,1.10789,1.1211,2.25784,1.7668,3.24652a21.60934,21.60934,0,0,1,6.71243-5.57448l.00709.007s-.11353.42773-.1561.568c-.90823,3.2325-1.55393,6.80858-2.53312,10.18131-.55346,1.88621-1.17787,3.64621-1.561,5.50437-.41155,1.9423-1.31269,4.02484-1.42622,6.06531Z" fill="#9a8265"/>
        <path d="M330.21931,119.97345a11.55494,11.55494,0,0,1,5.30041-.78534c-.63151,4.726-1.7739,11.56968-3.34912,14.101-1.63908,2.62246-5.70486,3.78644-9.30232,4.52269-1.2843.25945-2.50474.4698-3.5407.66614a48.597,48.597,0,0,1-11.24651.96063,59.85323,59.85323,0,0,1-.46121-7.25734c-.91533,1.29721-1.01467,4.55775-.7947,7.18021-5.76162-.49785-11.33875-2.60844-14.38276-8.16889-1.65327-3.02214,1.1211-5.92508,2.20673-9.03837l.37606-.65912c4.6689,3.15536,11.64386,3.562,16.93008,3.03616,4.02319-.39968,8.018-1.92127,10.55823-5.3501,1.62489-2.18772,2.65375-7.50276,3.0653-9.32586a24.12307,24.12307,0,0,1,4.73985,1.59872A24.1183,24.1183,0,0,0,330.21931,119.97345Zm.0071.007v.014C330.2406,119.98747,330.2406,119.98046,330.22641,119.98046Z" fill="#f8cca5"/>
        <path d="M341.402,101.74244c-1.64618-1.34628-4.33541-2.69257-6.74081-2.45417l-.369-.16829a52.94941,52.94941,0,0,1,2.75309-5.18882c2.80275-4.60683,4.9811-6.9418,4.71147-12.5233-.19158-3.9407-1.09272-9.80968-3.931-12.80377.816-.89753,1.66037-1.774,2.526-2.60142,4.38508-4.23521,9.45133-7.53081,15.26261-8.30914a20.62812,20.62812,0,0,1,8.44375.65913c-2.299,1.45146-6.1093,1.13593-8.43665,3.34468,5.21526.2314,8.25217,1.83012,12.20441,4.99249a66.36157,66.36157,0,0,1-10.33827,11.59773c2.12867-1.50055,3.81742-.75028,6.237-.65912-6.01,3.98277-9.62162,8.91916-10.92721,15.83292a8.35253,8.35253,0,0,0-1.81647-.13322c-5.18687.16828-7.94,3.79345-9.43,8.46339Z" fill="#c48b37"/>
        <path d="M334.66115,99.28827c2.4054-.2384,5.09463,1.10789,6.74081,2.45417l.149.04909c-.08515.25944-.1632.51888-.23416.78533a14.47872,14.47872,0,0,0-7.76257-1.79505c.23415-.56095.4825-1.11489.73794-1.66183Z" fill="#c48b37"/>
        <path d="M333.03626,213.8l-.02838.014c-1.15658,2.55936-1.53975,6.23361-2.15706,9.09447a51.00517,51.00517,0,0,0-.92243,10.77733l-.00709.08414c-1.95839-.08414-3.83872-.20334-5.3146-.37163-.38316-1.53561.63151-9.22769.9579-11.05079a104.56636,104.56636,0,0,1,2.34864-10.9947c.19868-.68016.58184-1.65481.94372-2.55935h.00709c1.10692,1.46549,2.51894,2.342,3.51942,3.8846C332.61762,213.04272,332.83758,213.42137,333.03626,213.8Z" fill="#af9674"/>
        <path d="M330.269,72.42559c1.30559,2.18071,1.90871,2.67154,6.34346-.30853-.95081,3.35872-4.53408,6.57719-7.80515,3.81449-1.1353-.96063-1.87324-2.2929-3.15044-3.15537-1.17077-.79234-3.36331-1.5286-4.55537-.8274-1.88033.0631-2.8879,1.36732-4.5057,1.72493-.37607-1.79505-.92952-3.48493-1.24882-5.20986,3.73228-1.0588,7.96834-2.81178,11.51614-.24542A13.43314,13.43314,0,0,1,330.269,72.42559Z" fill="#dea84e"/>
        <path d="M339.98284,107.70258a20.6655,20.6655,0,0,0-8.15993-2.10358l-.06386-.021c.11353-.3506.22706-.69418.34769-1.03777a24.41648,24.41648,0,0,1,8.32312,2.25083c-.04967.31554-.09224.63809-.13481.95362Z" fill="#c48b37"/>
        <path d="M330.41089,110.92807c.29092.32254.41155.589.35478.72924,0,0-.17029-.07714-.447-.20335C330.33994,111.27866,330.37541,111.10336,330.41089,110.92807Z" fill="#c48b37"/>
        <path d="M327.821,87.375a8.972,8.972,0,0,1-.84437,6.7595,6.63243,6.63243,0,0,1-5.22236,3.09226,6.2585,6.2585,0,0,1-6.14478-2.7627,7.79914,7.79914,0,0,1-1.50426-6.30372,34.3882,34.3882,0,0,0,7.42908.28047c.0071,1.4094.22,6.01624,2.71052,4.5858,1.07143-.617,1.51845-4.03185,1.36944-4.78213l-.06386-.31554A22.37111,22.37111,0,0,0,327.821,87.375Z" fill="#fff"/>
        <ellipse cx="325.52913" cy="201.22062" rx="2.74599" ry="2.71361" fill="#cdb76f"/>
        <ellipse cx="324.81957" cy="291.67445" rx="2.74599" ry="2.71361" fill="#cdb76f"/>
        <path d="M326.01163,347.847c.9579,5.259,3.20011,10.04809,4.6618,15.21588-.24835.95362-.58894,2.04047-.9721,3.16939-1.71-6.40189-3.73228-11.00872-5.89643-20.03307a13.44371,13.44371,0,0,1,2.19963,1.64079A.00693.00693,0,0,1,326.01163,347.847Z" fill="#57522b"/>
        <path d="M325.61427,88.24449c.149.75028-.298,4.16508-1.36944,4.78213-2.49056,1.43044-2.70342-3.1764-2.71052-4.5858a33.18759,33.18759,0,0,0,4.0161-.51187Z" fill="#253c97"/>
        <path d="M322.86828,137.81178c3.59746-.73625,7.66324-1.90023,9.30232-4.52269,1.57522-2.5313,2.71761-9.37494,3.34912-14.101.4683.014.92242.04909,1.36944.08415-1.58231,10.99469-3.02272,14.49364-4.05867,15.68567a10.80878,10.80878,0,0,1-4.39927,2.66453c-.78051.26646-3.96643,1.39538-6.159,1.90023C322.49931,138.94772,322.698,138.37975,322.86828,137.81178Z" fill="#b07e5c"/>
        <path d="M325.5788,109.85524a6.27828,6.27828,0,0,0-1.036-.06311c-2.07191.028-4.378.91857-6.35765,1.30422.63151-.77131,3.044-2.22278,6.457-2.22278a8.02929,8.02929,0,0,1,5.76871,2.0545c-.03548.17529-.07095.35059-.09224.52589A24.12307,24.12307,0,0,0,325.5788,109.85524Z" fill="#381534"/>
        <path d="M326.14644,156.78605a13.97035,13.97035,0,0,1-5.868-1.73194c.42574-.45578.83019-.91857,1.23463-1.40239C322.918,154.82973,324.69185,155.74128,326.14644,156.78605Z" fill="#b07e5c"/>
        <ellipse cx="321.27177" cy="257.31601" rx="2.74599" ry="2.71361" fill="#cdb76f"/>
        <path d="M332.9724,188.41684c-5.29331,3.12031-8.96882,7.83934-12.914,12.32l-.03548-2.4682a102.065,102.065,0,0,1,11.17555-14.75309,128.48208,128.48208,0,0,1,14.57434-13.65222c1.74552-1.41641,3.52651-2.81178,5.36427-4.21416l.19867.25242a19.96608,19.96608,0,0,1,4.12254,6.85767c1.47588,3.6462,2.47636,7.55885,3.15044,9.63438-3.68971-2.59441-7.47165-4.99249-11.11169-7.60794a17.70983,17.70983,0,0,0,2.98724,6.56316A68.46459,68.46459,0,0,0,332.9724,188.41684Z" fill="#caad83"/>
        <path d="M314.26133,87.5433s1.38364-6.17751,6.386-7.33448a3.25307,3.25307,0,0,1,.37607-.08414c3.76776,0,6.95367,2.87489,7.98963,6.82962q-.53217.22087-1.19206.42071a22.37111,22.37111,0,0,1-2.27059.55394,33.18759,33.18759,0,0,1-4.0161.51187,34.3882,34.3882,0,0,1-7.42908-.28047C314.1478,87.957,314.19747,87.75366,314.26133,87.5433Z" fill="#f8cca5"/>
        <path d="M320.64736,80.13871a3.36979,3.36979,0,0,1,.37607-.014,3.25307,3.25307,0,0,0-.37607.08414Z" fill="#b07e5c"/>
        <path d="M320.64736,79.30429v.83442a7.51462,7.51462,0,0,0-4.28573,1.63377A8.77763,8.77763,0,0,1,320.64736,79.30429Z" fill="#f8cca5"/>
        <path d="M319.49788,188.487a38.05711,38.05711,0,0,1,.70246,7.49575l-.21287.2945c-.71665.98868-1.4404,2.00541-2.14287,3.02214a74.44824,74.44824,0,0,0-2.95176-8.232c-1.31268-2.31393-3.95224-6.62627-6.66276-7.27838,1.34107-2.46819,2.34155-4.705,4.59794-6.65431.0071,0,.02129.007.02839.007a.01517.01517,0,0,1-.0142-.014c-.00709,0-.00709.007-.01419.007-3.48393-.65211-7.62775.72223-10.99106,2.09656a29.30706,29.30706,0,0,1,3.76775-8.28108,35.1608,35.1608,0,0,1,5.8042-6.82961c.72375,5.1187,3.789,11.14194,5.52036,15.44727A47.20192,47.20192,0,0,1,319.49788,188.487Z" fill="#caad83"/>
        <path d="M316.92927,179.5678c-1.73132-4.30533-4.79661-10.32857-5.52036-15.44727.12062-.11921.24834-.23841.37606-.3506-.00709,0-.23415-.78534-.39735-1.3533a43.361,43.361,0,0,0,8.89077-7.36252,13.97035,13.97035,0,0,0,5.868,1.73194c-1.45459-1.04477-3.22849-1.95632-4.63342-3.13433a5.98316,5.98316,0,0,1-2.377-3.96174c-.35478-3.18341,1.78809-6.75248,3.13625-10.16729,2.19254-.50485,5.37846-1.63377,6.159-1.90023a10.80878,10.80878,0,0,0,4.39927-2.66453c1.036-1.192,2.47636-4.691,4.05867-15.68567.99339.09115,1.91581.21035,2.68923.2945l1.42622.33657a88.96,88.96,0,0,0-2.53313,15.293,39.66134,39.66134,0,0,0,.071,6.18451c.90114,9.08045,6.95367,15.79086,13.5029,22.06653.34059.25243.67408.50486,1.00757.74326-.64569.49084-1.2843.97466-1.9158,1.45849-1.83776,1.40238-3.61875,2.79775-5.36427,4.21416a128.48208,128.48208,0,0,0-14.57434,13.65222A102.065,102.065,0,0,0,320.023,198.2686l-.03548-1.99139.21287-.2945a38.05711,38.05711,0,0,0-.70246-7.49575A47.20192,47.20192,0,0,0,316.92927,179.5678Z" fill="#f8cca5"/>
        <path d="M320.05843,200.7368l.05676,3.19743-1.09272-2.04748C319.37725,201.50811,319.71784,201.12245,320.05843,200.7368Z" fill="#e7d1af"/>
        <path d="M320.023,198.2686l.03548,2.4682c-.34059.38565-.68118.77131-1.036,1.15l-.54636-1.02374C318.96571,199.99353,319.48369,199.12405,320.023,198.2686Z" fill="#caad83"/>
        <path d="M319.98747,196.27721l.03548,1.99139c-.53926.85545-1.05724,1.72493-1.54684,2.59441l-.13481-.25243a7.15342,7.15342,0,0,1-.4967-1.31123C318.54707,198.28262,319.27082,197.26589,319.98747,196.27721Z" fill="#85735b"/>
        <ellipse cx="317.72398" cy="221.5552" rx="2.74599" ry="2.71361" fill="#cdb76f"/>
        <path d="M320.09391,306.92538c.04257-.06311.07805-.11219.09933-.14024-.02128.021-.06386.07713-.11353.14024a.1637.1637,0,0,0-.21286.07012l-.0071.007a.9822.9822,0,0,0-.05676.34359l.04257-.08415a.77825.77825,0,0,1-.02838.14725A2.28108,2.28108,0,0,1,320.09391,306.92538Zm-4.1935-4.50867c.46122,0,.92243-.007,1.37655-.021a67.154,67.154,0,0,0,11.58-1.2341l2.36283,14.4095c-2.1003.39267-4.38507.71522-6.78338.94661-2.73181.26646-5.61971.41371-8.57857.4067-1.46879,0-2.95886-.03506-4.44893-.1122l.56055-14.48663C313.28924,302.39568,314.60192,302.42373,315.90041,302.41671Z" fill="#743016"/>
        <path d="M318.47611,200.863l.54636,1.02374q-1.21334,1.35681-2.51893,2.6435C317.12085,203.30316,317.78074,202.07607,318.47611,200.863Z" fill="#caad83"/>
        <path d="M315.60949,549.82546c-2.69632-7.24332-.62441-18.04869,6.21574-23.09027,5.59132-4.123,13.39647-1.51457,20.51335-1.33928.298-3.40078.61022-6.7665.99338-10.41972,1.58941-15.293-.65989-30.32657-2.14287-45.3391-.34059-3.42883-.68118-6.78053-1.036-10.11821a31.57278,31.57278,0,0,0,15.41872,1.21307c5.49908-.80638,8.94044-3.16238,13.76544-5.24492-.1632,14.2903-3.2214,28.95223-3.90967,43.23552-.3264,6.78755-.68827,14.54975-.10643,20.9306.50378,5.48332,2.54022,10.86848,3.17882,16.485-.06386.07012-.12772.13323-.19158.20335-5.88224,6.20555-12.13346,13.512-20.60559,15.3a72.13054,72.13054,0,0,1-14.89364,1.31123c-4.37088-.007-13.31842.35761-16.334-2.01944a2.61181,2.61181,0,0,1-.86567-1.10087C315.63788,549.82546,315.60949,549.81144,315.60949,549.82546Z" fill="#743016"/>
        <path d="M323.8049,346.19917a23.3029,23.3029,0,0,0-6.71243-2.86788c-.51088-3.66022.73794-8.54753.53217-12.64951-.23415-4.62787-.02129-9.37494-1.7668-13.67325v-.08414c2.95886.007,5.84676-.14024,8.57857-.4067-.667,6.01623-1.73133,19.64742,1.15658,27.83734a29.24565,29.24565,0,0,0,.41154,3.48493A13.44371,13.44371,0,0,0,323.8049,346.19917Z" fill="#6e683c"/>
        <path d="M315.60949,549.82546c0-.014.02839,0,0,.007Z" fill="#743016"/>
        <path d="M312.828,87.943a9.76516,9.76516,0,0,1,3.53361-6.1705,11.22827,11.22827,0,0,0-2.93758,6.27568C313.22538,88.02011,313.0267,87.978,312.828,87.943Z" fill="#b07e5c"/>
        <path d="M313.42405,88.04816a11.22827,11.22827,0,0,1,2.93758-6.27568,7.51462,7.51462,0,0,1,4.28573-1.63377v.07011c-5.00239,1.157-6.386,7.33448-6.386,7.33448-.06386.21036-.11353.4137-.1561.617C313.87817,88.12529,313.65111,88.09023,313.42405,88.04816Z" fill="#b07e5c"/>
        <path d="M314.10523,88.16035a7.79914,7.79914,0,0,0,1.50426,6.30372,6.2585,6.2585,0,0,0,6.14478,2.7627,6.63243,6.63243,0,0,0,5.22236-3.09226,8.972,8.972,0,0,0,.84437-6.7595q.65989-.19984,1.19206-.42071a10.90488,10.90488,0,0,1,.36188,2.79074c0,5.308-3.73938,9.61335-8.35151,9.61335a7.334,7.334,0,0,1-2.71052-.51888l.02839-.07713c-3.96644-2.04749-5.49909-6.53512-4.91725-10.71422C313.65111,88.09023,313.87817,88.12529,314.10523,88.16035Z" fill="#b07e5c"/>
        <path d="M318.31291,98.83951A9.61518,9.61518,0,0,1,312.679,89.745a10.71529,10.71529,0,0,1,.149-1.80206c.19868.03506.39736.07713.596.10518-.58184,4.1791.95081,8.66673,4.91725,10.71422Z" fill="#b07e5c"/>
        <path d="M311.16056,212.53085a70.29491,70.29491,0,0,1,4.20059-9.36092c.73794-1.24812,1.59651-2.55935,2.48345-3.87058a7.15342,7.15342,0,0,0,.4967,1.31123l.13481.25243c-.69537,1.21306-1.35526,2.44015-1.97257,3.66724-5.50618,10.91756-8.05349,22.43816-6.30088,33.92369,1.56812,10.25844,5.66228,19.89984,7.0672,30.17932,1.4475,10.67916,1.1211,22.90095.0071,33.65023v.11219c-.45412.014-.91533.021-1.37655.021.05677-7.9375,1.02886-15.80487.6528-23.74237a112.17188,112.17188,0,0,0-4.0232-22.90095c-1.93-7.2924-4.35669-14.087-5.1514-21.737C306.5981,226.54769,308.372,219.36047,311.16056,212.53085Z" fill="#85735b"/>
        <polygon points="306.953 316.398 307.528 301.877 307.606 299.871 312.062 300.033 311.969 302.326 311.409 316.812 311.373 317.703 306.91 317.541 306.953 316.398" fill="#904825"/>
        <path d="M311.785,163.76993c-.12772.11219-.25544.23139-.37606.3506a14.5364,14.5364,0,0,1-.14192-1.62677c.03548-.02805.07806-.04908.12063-.07713C311.55082,162.98459,311.77788,163.76993,311.785,163.76993Z" fill="#f8cca5"/>
        <path d="M272.12063,523.52373c6.62019-9.431,7.81225-27.613,9.0114-43.13736.70956-9.12953,1.4475-16.70942,1.90162-24.696,5.79,6.22659,19.4632,7.23631,26.43816,5.7638l2.079.32255c-1.53265,4.59281-3.23559,9.25574-4.86758,14.38847-4.4915,14.14305-6.76209,27.76021-9.0043,42.08557-1.90162,12.15167,0,16.79356-.46121,22.47322A71.8726,71.8726,0,0,1,277.79,545.80763a100.08172,100.08172,0,0,1-22.20919,0c-5.26493-.568-13.32552-1.60573-15.18456-6.7034a7.22117,7.22117,0,0,1-.31931-3.44987c.69537-5.39217,3.95225-13.93269,9.82739-15.77683,3.68971-1.157,7.37232.28749,10.764,1.5286C265.38692,523.12405,267.23887,524.14078,272.12063,523.52373Z" fill="#743016"/>
        <path d="M301.96468,171.94583a67.05261,67.05261,0,0,0-8.81272,3.07123l-4.25736-4.20716c4.81081-1.10788,13.80092-2.952,22.37239-8.31614a14.5364,14.5364,0,0,0,.14192,1.62677,35.1608,35.1608,0,0,0-5.8042,6.82961C304.63262,171.20257,303.36251,171.53914,301.96468,171.94583Z" fill="#af9674"/>
        <path d="M311.95527,124.5312c-5.28622.52589-12.26118.1192-16.93008-3.03616a11.22608,11.22608,0,0,1-3.46265-3.61114c.0071,0,.0071-.007.0142-.007,5.861,4.92939,13.44614,6.06532,20.29338,5.315,7.44327-.80637,10.97687-3.44986,12.67272-13.39979a6.27828,6.27828,0,0,1,1.036.06311c-.41155,1.8231-1.44041,7.13814-3.0653,9.32586C319.97328,122.60993,315.97846,124.13152,311.95527,124.5312Z" fill="#381534"/>
        <path d="M307.61986,132.18121a59.85323,59.85323,0,0,0,.46121,7.25734c-.41863-.014-.83727-.04207-1.25591-.07713C306.60519,136.739,306.70453,133.47842,307.61986,132.18121Z" fill="#b07e5c"/>
        <path d="M301.31188,313.55866V300.8811q3.20367.64159,6.21574.9957l-.57474,14.52169c-1.83067-.20334-3.71809-.46279-5.641-.79235v-2.04748Z" fill="#743016"/>
        <path d="M308.58486,69.66289c-.7947,1.60573-1.55393,3.23951-2.34864,4.85225-1.87323-3.57608-6.15187-3.68827-9.054-1.42342a8.92519,8.92519,0,0,0-.77342.582,17.64761,17.64761,0,0,0,1.24173-3.81449s0-.007.0071,0a11.05829,11.05829,0,0,1,4.36378-1.03075A19.06388,19.06388,0,0,1,308.58486,69.66289Z" fill="#dea84e"/>
        <path d="M308.05979,203.226a22.93225,22.93225,0,0,1-.75213,3.1764l-.31931-.06311c-1.84485,1.52159-3.35621,2.81178-5.20816,4.52971-.77342.72222-1.57522,1.53561-2.34864,2.39106-1.01467,1.10087-1.99386,2.25784-2.85242,3.31664a14.17979,14.17979,0,0,0-1.7739-2.87489l-.25544-.007.02128-.46278c.07806-1.68988.20578-3.35872.36188-4.90134.00709-.07012.02129-.18932.03548-.3506.07095-.63808.22-1.97736.46121-3.81448C298.68652,203.78,308.01012,203.24005,308.05979,203.226Z" fill="#caad83"/>
        <path d="M306.98835,206.33932l.31931.06311a123.61736,123.61736,0,0,0-4.71857,26.67336,42.98964,42.98964,0,0,1-4.62632,1.54964l-.07806-.35761c0-3.75839.06386-7.48874.23416-11.21908.12772-2.87489.49669-7.27838,1.53974-9.5853l-.22706-.20335c.77342-.85545,1.57522-1.66884,2.34864-2.39106C303.63214,209.1511,305.1435,207.86091,306.98835,206.33932Z" fill="#af9674"/>
        <path d="M303.07868,85.53789c.34059-.92558.6528-1.86517.92243-2.81178a9.46211,9.46211,0,0,1,.30511,2.76971l-1.263.19633a.62523.62523,0,0,0,.02128-.11219C303.07159,85.56593,303.07159,85.55191,303.07868,85.53789Z" fill="#f8cca5"/>
        <path d="M303.06449,85.58a.62523.62523,0,0,1-.02128.11219h-.02129C303.03611,85.65709,303.0503,85.615,303.06449,85.58Z" fill="#f1ba94"/>
        <path d="M312.828,87.943a10.71529,10.71529,0,0,0-.149,1.80206,9.61518,9.61518,0,0,0,5.63389,9.09447,7.334,7.334,0,0,0,2.71052.51888c4.61213,0,8.35151-4.30532,8.35151-9.61335a10.90488,10.90488,0,0,0-.36188-2.79074c-1.036-3.95473-4.22187-6.82962-7.98963-6.82962a3.36979,3.36979,0,0,0-.37607.014v-.83442a8.77763,8.77763,0,0,0-4.28573,2.46819A9.76516,9.76516,0,0,0,312.828,87.943Zm-8.82691-5.21687a5.93347,5.93347,0,0,0-1.14948-2.01944c-1.28431-1.64079-4.42765-2.27887-5.17978-2.27887a11.17421,11.17421,0,0,1,3.43426,2.11058,5.31628,5.31628,0,0,1,1.97257,4.99951c-.00709.014-.00709.028-.01419.04207-.01419.03506-.02838.07713-.04257.11219h.02129l1.263-.19633A9.46211,9.46211,0,0,0,304.00111,82.72611Zm-7.5639,21.98238a22.11229,22.11229,0,0,0,1.71714-5.06261q.47895-1.87218,1.09981-3.74437c.19158-.61705.39736-1.2341.61022-1.85115.68118-1.95632,1.43331-3.89863,2.19254-5.82691.20577-.51187.40445-1.03075.60313-1.55664a6.21217,6.21217,0,0,1-.95081-.014,14.61392,14.61392,0,0,1-3.264-.66613l-.05677-.596c-.03548.19633-.06386.37864-.08515.55394a15.64884,15.64884,0,0,1-3.74647-1.66884l-1.05724-.30852-1.56812-.45578-.71666-.1753a10.14494,10.14494,0,0,1,1.14239-2.377,55.26418,55.26418,0,0,0,4.05158-7.28539,8.92519,8.92519,0,0,1,.77342-.582c2.9021-2.26485,7.18074-2.15266,9.054,1.42342.79471-1.61274,1.55394-3.24652,2.34864-4.85225a19.06388,19.06388,0,0,0-6.56342-.83442,11.05829,11.05829,0,0,0-4.36378,1.03075,8.20715,8.20715,0,0,0,.10643-2.47521l.17739-1.09386a25.77151,25.77151,0,0,0,15.518-2.32795c4.73276-2.20175,8.59985-4.74007,13.75125-5.06963,6.36474-.4137,8.76305,2.03346,12.77206,6.73846l.369.37164c-.86566.8274-1.71,1.70389-2.526,2.60142,2.83824,2.99409,3.73938,8.86307,3.931,12.80377.26963,5.5815-1.90872,7.91647-4.71147,12.5233A52.94941,52.94941,0,0,0,334.29218,99.12c-.25544.54694-.50379,1.10088-.73794,1.66183-.52508,1.22008-1.01467,2.48222-1.4475,3.75839-.12063.34359-.23416.68717-.34769,1.03777a43.10136,43.10136,0,0,0-1.34816,5.3501,8.02929,8.02929,0,0,0-5.76871-2.0545c-3.413,0-5.82548,1.45147-6.457,2.22278,1.97967-.38565,4.28574-1.27617,6.35765-1.30422-1.69585,9.94993-5.22945,12.59342-12.67272,13.39979-6.84724.75028-14.43243-.38565-20.29338-5.315,3.27816-1.08685,4.974-1.57067,7.43617-3.84253,3.52651-1.157,7.4007-1.09386,11.2607-1.42342,1.91581-.16128,4.87467-.95362,3.01563-3.68126-1.263-1.84414-5.08754-1.95633-6.20864-1.40239v.04909c3.18592.05609,5.61261.99569,5.96029,2.52429.596,2.55935-5.08044,1.85115-6.88982,2.01943a43.84911,43.84911,0,0,0-6.237,1.04478c-2.03643.48382-4.0232,1.08685-6.25831,1.774-2.32025-.86247-2.90209-2.03346-2.5757-3.28158a5.75551,5.75551,0,0,1,1.31978-2.16669,14.21767,14.21767,0,0,1,1.1282-1.13593A12.96475,12.96475,0,0,0,296.43721,104.70849Zm40.17523-32.59143c-4.43475,2.98007-5.03787,2.48924-6.34346.30853a13.43314,13.43314,0,0,0-3.40588-4.20716c-3.5478-2.56636-7.78386-.81338-11.51614.24542.3193,1.72493.87275,3.41481,1.24882,5.20986,1.6178-.35761,2.62537-1.66183,4.5057-1.72493,1.19206-.7012,3.3846.03506,4.55537.8274,1.2772.86247,2.01514,2.19474,3.15044,3.15537C332.07836,78.69425,335.66163,75.47578,336.61244,72.11706Z" fill="#f8cca5"/>
        <path d="M304.00111,82.72611c-.26963.94661-.58184,1.8862-.92243,2.81178a5.31628,5.31628,0,0,0-1.97257-4.99951,11.17421,11.17421,0,0,0-3.43426-2.11058c.75213,0,3.89547.63808,5.17978,2.27887A5.93347,5.93347,0,0,1,304.00111,82.72611Z" fill="#b07e5c"/>
        <path d="M295.40126,235.08821c0,.18933,1.16367-.0631,2.56151-.46278a42.98964,42.98964,0,0,0,4.62632-1.54964,123.61736,123.61736,0,0,1,4.71857-26.67336,22.93225,22.93225,0,0,0,.75213-3.1764c-.04967.014-9.37327.55394-12.63015.9396a171.37246,171.37246,0,0,1,5.48489-26.2246l1.05015-5.9952c1.39783-.40669,2.66794-.74326,3.64-.99569a29.30706,29.30706,0,0,0-3.76775,8.28108c-.0071-.014-.02129-.007-.02839.014.0071-.007.02129-.007.02839-.014,0,.007-.0071.014-.0071.021.02129-.007.02129-.021.0071-.021,3.36331-1.37433,7.50713-2.74867,10.99106-2.09656-2.25639,1.94931-3.25687,4.18612-4.59794,6.65431-.01419,0-.02128-.007-.03548-.007a.05509.05509,0,0,1,.02839.02805.02558.02558,0,0,0,.00709-.021c2.71052.65211,5.35008,4.96445,6.66276,7.27838a74.44824,74.44824,0,0,1,2.95176,8.232c-.88694,1.31123-1.74551,2.62246-2.48345,3.87058a70.29491,70.29491,0,0,0-4.20059,9.36092c-2.78857,6.82962-4.56246,14.01684-3.78195,21.50558.79471,7.65,3.2214,14.44456,5.1514,21.737a112.17188,112.17188,0,0,1,4.0232,22.90095c.37606,7.9375-.596,15.80487-.6528,23.74237-1.29849.007-2.61117-.021-3.93095-.09115l.09224-2.2929-4.456-.16128-.078,2.00542q-3.01208-.35762-6.21574-.9957c-.3122-1.21306-.61022-2.74166-.90114-4.52269-2.20672-13.54-3.81033-41.3984-4.76823-50.87151-.35478-3.52-.6457-6.96284-.85147-10.36363Z" fill="#e7d1af"/>
        <path d="M300.02049,356.9765c1.27011-14.136-.06386-28.68578,1.20625-42.55537.02838.007.05676.007.08514.014v1.171c1.92291.32956,3.81033.589,5.641.79235l-.04258,1.14294,4.46313.16128.03548-.89052c1.49007.07714,2.98014.1122,4.44893.1122v.08414c1.74551,4.29831,1.53265,9.04538,1.7668,13.67325.20577,4.102-1.043,8.98929-.53217,12.64951a23.3029,23.3029,0,0,1,6.71243,2.86788c2.16415,9.02435,4.1864,13.63118,5.89643,20.03307-1.17077,3.44285-2.73889,7.28539-3.16463,8.97526-1.32687,5.25193-2.675,10.19534-3.81033,15.42624-2.4125,11.08585-5.81129,22.53632-6.88982,34.18313-.28382,3.08525.91533,9.69048.76633,12.79676-.43283,9.06642-2.49765,16.51308-5.05206,24.16309l-2.079-.32255c-6.975,1.47251-20.64816.46279-26.43816-5.7638.27673-4.86627.45412-9.88681.45412-15.50336a61.59857,61.59857,0,0,1,.90113-10.31454c1.68875-9.971,5.40684-19.11451,8.18831-29.422A248.93444,248.93444,0,0,0,300.02049,356.9765Z" fill="#878248"/>
        <path d="M301.31188,313.55866v.87649c-.02838-.007-.05676-.007-.08514-.014Z" fill="#904825"/>
        <path d="M300.41074,296.35841c.29092,1.781.58894,3.30963.90114,4.52269v12.67756l-.08514.86247c-1.09272-.19634-2.39831-.49785-3.73228-.65912l.03547-.25944c.28383-5.16078-.14191-11.42944-.20577-16.56217.87986-.14024,1.632-.27346,2.56861-.49785Z" fill="#904825"/>
        <path d="M313.28924,108.92967c1.859,2.72764-1.09982,3.52-3.01563,3.68126-3.86.32956-7.73419.26645-11.2607,1.42342.29092-.25944.58894-.55394.90114-.86948a43.84911,43.84911,0,0,1,6.237-1.04478c1.80938-.16828,7.48585.53992,6.88982-2.01943-.34768-1.5286-2.77437-2.4682-5.96029-2.52429v-.04909C308.2017,106.97334,312.02622,107.08553,313.28924,108.92967Z" fill="#381534"/>
        <path d="M298.3885,85.39064l.05677.596a.54566.54566,0,0,1-.14192-.04207C298.32464,85.76928,298.353,85.587,298.3885,85.39064Z" fill="#f8cca5"/>
        <path d="M298.44527,85.98665a14.61392,14.61392,0,0,0,3.264.66613c-1.00048,4.123-2.1003,4.15807-2.60408,3.42182-.4896-.70119-1.1282-1.59872-.80181-4.13A.54566.54566,0,0,0,298.44527,85.98665Z" fill="#253c97"/>
        <path d="M297.21773,540.724s.88695,6.57017.19158,8.37925c-.94371,2.45417-3.98063,2.61545-5.66938.561a.2465.2465,0,0,0,.0142-.07012c-.0142.007-.03548.021-.04967.028.01419.014.02128.02805.03547.04208-.69536,4.93639-9.43,3.75137-11.55161.81338-4.08,4.63488-9.72806,3.38676-13.00622-.96765-3.88128,1.781-3.96643,3.00812-8.79853,2.76971-2.84533-.14024-5.03077.11219-6.83305-4.54372-1.6107,1.49354-4.12963,2.04748-6.29379,2.14564-1.78808.07714-3.12915-.77832-4.90305-2.945-.12062-2.08956-.6315-4.57879.04258-7.83232,1.859,5.09767,9.91963,6.13543,15.18456,6.7034a100.08172,100.08172,0,0,0,22.20919,0A71.8726,71.8726,0,0,0,297.21773,540.724Z" fill="#914826"/>
        <path d="M296.03986,104.45606c.34768-.72924.58184-1.36733.6528-1.53561.894-2.27187.83018-5.06962,1.80227-7.18021a2.48364,2.48364,0,0,0,.75923.16127q-.61731,1.87218-1.09981,3.74437a22.11229,22.11229,0,0,1-1.71714,5.06261l-.24125-.1192C296.14629,104.5402,296.08953,104.49813,296.03986,104.45606Z" fill="#381534"/>
        <path d="M295.57155,94.64638c.11353-.15427.22706-.32255.34059-.51187l.53217-.014a5.10685,5.10685,0,0,0,2.05062,1.61976c-.97209,2.11059-.90823,4.90834-1.80227,7.18021-.071.16828-.30512.80637-.6528,1.53561-2.04353-1.767-3.25687-2.924-2.56151-6.24763C293.8828,96.25912,294.65622,95.94358,295.57155,94.64638Z" fill="#f8cca5"/>
        <path d="M296.43721,104.70849a12.96475,12.96475,0,0,1-2.90919,3.6462,14.21767,14.21767,0,0,0-1.1282,1.13593c.87986-1.2341,2.001-2.40509,2.746-3.45688a9.86262,9.86262,0,0,0,.894-1.57768c.04967.04207.10643.08414.1561.13323Z" fill="#381534"/>
        <path d="M295.40126,92.62694a15.13386,15.13386,0,0,0,1.043,1.49354l-.53217.014c-.11353.18932-.22706.3576-.34059.51187-3.044-3.98278-5.69066-7.15918-4.35669-11.31024l.71666.1753,1.56812.45578C293.35773,85.93055,293.81185,90.15875,295.40126,92.62694Z" fill="#f8cca5"/>
        <path d="M295.42964,204.16563c-.24125,1.83712-.39026,3.1764-.46121,3.81448l-.04258-.007c-.39025-.09115-.7947-.18932-1.20625-.2945a33.27916,33.27916,0,0,1,.6528-3.33066A5.99771,5.99771,0,0,1,295.42964,204.16563Z" fill="#d3bda1"/>
        <path d="M296.10372,90.5444c-.965-1.781-.97209-3.52-1.54684-6.26866a15.64884,15.64884,0,0,0,3.74647,1.66884c-.32639,2.5313.31221,3.42883.80181,4.13.50378.73625,1.6036.70119,2.60408-3.42182a6.21217,6.21217,0,0,0,.95081.014c-.19868.52589-.39736,1.04477-.60313,1.55664-.75923,1.92828-1.51136,3.87059-2.19254,5.82691l-.11353-.04207h-.00709A6.59121,6.59121,0,0,1,296.10372,90.5444Z" fill="#fff"/>
        <path d="M294.80523,213.70184a14.17979,14.17979,0,0,1,1.7739,2.87489c.85856-1.0588,1.83775-2.21577,2.85242-3.31664l.22706.20335c-1.043,2.30692-1.412,6.71041-1.53974,9.5853-.1703,3.73034-.23416,7.46069-.23416,11.21908l.07806.35761c-1.39784.39968-2.56151.65211-2.56151.46278l-.61022.03506c-.39736-6.26866-.53217-12.41811-.34059-18.73586.02838-.89051.05676-1.788.09934-2.69258Z" fill="#9a8265"/>
        <path d="M295.40126,92.62694c-1.58941-2.46819-2.04353-6.69639-1.90162-8.65972l1.05724.30852c.57475,2.74868.58184,4.48763,1.54684,6.26866a6.59121,6.59121,0,0,0,3.64,3.46389h.00709l.11353.04207c-.21286.61705-.41864,1.2341-.61022,1.85115a2.48364,2.48364,0,0,1-.75923-.16127,5.10685,5.10685,0,0,1-2.05062-1.61976A15.13386,15.13386,0,0,1,295.40126,92.62694Z" fill="#b07e5c"/>
        <path d="M294.54979,213.69483c-.04258.90454-.071,1.80207-.09934,2.69258-.41864,0-.83728-.007-1.25592-.028a62.89867,62.89867,0,0,1,.52507-8.68076c.41155.10518.816.20335,1.20625.2945l.04258.007c-.01419.16128-.02839.28048-.03548.3506-.1561,1.54262-.28382,3.21146-.36188,4.90134Z" fill="#af9674"/>
        <path d="M291.57674,117.87688c-.0071,0-.0071.007-.0142.007-.00709-.014-.01419-.021-.02128-.03506C291.55545,117.85585,291.56254,117.86987,291.57674,117.87688Z" fill="#381534"/>
        <path d="M291.54126,117.84884c.00709.014.01419.021.02128.03506-.00709,0-.01419.007-.02128.007Z" fill="#381534"/>
        <path d="M288.8946,170.8099l4.25736,4.20716a67.05261,67.05261,0,0,1,8.81272-3.07123l-1.05015,5.9952a171.37246,171.37246,0,0,0-5.48489,26.2246,5.99771,5.99771,0,0,0-1.05724.18231,33.27916,33.27916,0,0,0-.6528,3.33066c-5.93191-1.50055-13.6732-4.59281-16.17794-10.574.55346-1.143,1.14949-2.42613,1.781-3.80046,1.21335-2.67155,2.526-5.67966,3.78195-8.61065,2.98725.021,8.07478.65211,9.45842-1.38135,2.15706-3.14835-2.26349-6.78053-5.76162-7.41861C288.06442,172.85738,288.8946,170.8099,288.8946,170.8099Z" fill="#d3bda1"/>
        <path d="M260.84574,154.45108a25.35448,25.35448,0,0,0-1.42621-8.14084c-1.15658-2.80477-4.77533-6.56316-4.42765-9.74658.53927-4.90133,5.4778-3.19042,7.869-.89051,1.94419,1.86517,4.85338,7.068,5.719,15.03356a.61034.61034,0,0,1,.01419.11921q.03194.31553.06387.65211c.17029,3.12731-1.2914,6.57017-1.30559,9.15056a27.44127,27.44127,0,0,0,1.46878-3.98278,28.47438,28.47438,0,0,0,.68118-13.25955c-.65989-3.18341-2.30607-8.828-1.53974-11.98337,1.21334-4.98548,5.99577-.28048,7.56389,2.49624,1.56813,2.78373,3.44137,10.595,2.43379,19.73156-.02129.2384-.05676.48382-.08515.73625-.51088,3.44987-2.83114,7.35551-2.94466,9.29781.56055-.77832,1.05014-1.5286,1.47588-2.26485,2.36283-4.03887,2.83114-7.51678,2.90919-12.348.17739-10.25845,6.78338-6.88571,6.9182,1.02374.09934,5.74978-2.1003,11.8782-4.90305,16.82161a37.37158,37.37158,0,0,0-3.81033,8.77893c-2.079.87649-4.51989-.04207-6.72662.28047-1.98677.28749-4.72566,1.57068-5.23655,3.72334-.00709.014-.02128.028-.02838.04207a.02628.02628,0,0,1,.02129-.007.26494.26494,0,0,0-.02129.07011.099.099,0,0,1,.071-.035.05333.05333,0,0,0-.04967-.03506.05206.05206,0,0,1,.00709-.03506c1.02886-1.49354,3.27816-2.41912,5.123-2.79776a8.56281,8.56281,0,0,1,4.1793.32956c.72375.19633,1.4475.42071,2.22092.568a2.40487,2.40487,0,0,1,.03548-.2384,9.48469,9.48469,0,0,0,2.99433-.46279,47.357,47.357,0,0,1,4.95982-1.22007,4.82811,4.82811,0,0,1,1.73132.03506c3.49813.63808,7.91868,4.27026,5.76162,7.41861-1.38364,2.03346-6.47117,1.40239-9.45842,1.38135a10.81279,10.81279,0,0,0-1.36235.06311c-4.10835.603-10.84206,2.44015-14.21956,8.65271,0,.10518.0071.20335.0071.30853.22,11.33127.37606,22.957-.85857,34.34441a112.49,112.49,0,0,1-2.824,15.9942c1.17786-2.82581,2.09319-5.75679,2.91628-8.15487.87986-2.56637,1.14239-5.98819,1.58232-8.64571.11353-.68716.39026-1.73194.65989-2.86787v-.007a88.60993,88.60993,0,0,0,8.18121-16.05731,24.6022,24.6022,0,0,0,2.39831,2.90293c3.20011,3.42884,7.422,4.684,11.80706,5.04158l-.01419.1192c-8.06768,9.83773-12.616,23.18142-20.15147,33.89564-3.13625,4.45959-6.29379,8.70881-10.9343,11.8151-13.53839,8.38626-14.39695-7.25033-13.13394-16.87069,1.46879-11.198,4.35669-21.62478,5.80419-32.69661.68828-5.273.39736-13.68727.91533-22.16469-1.483-1.47251-3.63294-3.97576-4.28573-6.5842-1.38364-5.56747-.518-9.26976,3.24978-15.50336,2.2422-3.71632,3.56908-6.85065,2.04353-11.06482-1.06434-2.966-9.85577-7.79726-6.50666-10.609,2.34864-1.97736,8.11736-.22438,11.15427,4.86627a.15254.15254,0,0,1,.03548.0561c.04257.07012.08514.14024.12062.21036.01419.021.02838.03506.02838.05609.98629,2.12462.09934,7.90945.50379,9.92188A26.35286,26.35286,0,0,0,260.84574,154.45108Z" fill="#f8cca5"/>
        <path d="M277.54166,197.10462c2.50474,5.98117,10.246,9.07343,16.17794,10.574a62.89867,62.89867,0,0,0-.52507,8.68076c-.60312-.014-1.19915-.04207-1.80228-.09115-4.38507-.35761-8.60695-1.61274-11.80706-5.04158a24.6022,24.6022,0,0,1-2.39831-2.90293,10.73711,10.73711,0,0,1-1.51136-3.15537C274.61828,201.40994,276.39218,200.849,277.54166,197.10462Z" fill="#af9674"/>
        <path d="M277.87515,154.36694a44.20627,44.20627,0,0,1-1.46878,7.033c-.42574.73625-.91533,1.48653-1.47588,2.26485C275.044,161.72245,277.36427,157.81681,277.87515,154.36694Z" fill="#b07e5c"/>
        <path d="M277.11593,177.54135a2.40487,2.40487,0,0,0-.03548.2384c-.77342-.14725-1.49717-.37163-2.22092-.568A15.11219,15.11219,0,0,0,277.11593,177.54135Z" fill="#f8cca5"/>
        <path d="M274.85953,177.21179a8.56281,8.56281,0,0,0-4.1793-.32956c-1.84486.37864-4.09416,1.30422-5.123,2.79776.51089-2.15266,3.24978-3.43585,5.23655-3.72334,2.20673-.32254,4.64761.596,6.72662-.28047-.1632.61705-.298,1.2341-.40445,1.86517A15.11219,15.11219,0,0,1,274.85953,177.21179Z" fill="#b07e5c"/>
        <path d="M268.658,151.478a43.37421,43.37421,0,0,1,.16319,5.16778,27.44127,27.44127,0,0,1-1.46878,3.98278C267.36659,158.0482,268.82828,154.60534,268.658,151.478Z" fill="#b07e5c"/>
        <path d="M263.84718,244.05647a112.49,112.49,0,0,0,2.824-15.9942c.84438-1.31825,1.61779-2.53131,2.33445-3.67425-.26963,1.13593-.54636,2.18071-.65989,2.86787-.43993,2.65752-.70246,6.07934-1.58232,8.64571C265.94037,238.29968,265.025,241.23066,263.84718,244.05647Z" fill="#b07e5c"/>
        <path d="M265.55012,179.71505a.05333.05333,0,0,1,.04967.03506.099.099,0,0,0-.071.035A.26494.26494,0,0,1,265.55012,179.71505Z" fill="#f8cca5"/>
        <path d="M265.55721,179.68a.05206.05206,0,0,0-.00709.03506.02628.02628,0,0,0-.02129.007C265.53593,179.708,265.55012,179.694,265.55721,179.68Z" fill="#f8cca5"/>
        <path d="M260.84574,154.45108a26.35286,26.35286,0,0,1-.62441,7.26436c-.40445-2.01243.4825-7.79726-.50379-9.92188A12.31407,12.31407,0,0,1,260.84574,154.45108Z" fill="#b07e5c"/>
      </g>
      <g>
        <path d="M319.86685,306.9955a.1637.1637,0,0,1,.21286-.07012h.0142c.05676.021.10643.04908.14191.03506" fill="none" stroke="#010101" stroke-linecap="round" stroke-linejoin="round" stroke-width="2"/>
        <path d="M320.20744,306.76411a.08675.08675,0,0,0-.0142.021c-.02128.021-.06386.07713-.11353.14024-.078.11219-.17738.25243-.23415.33657l-.04257.08415a.9822.9822,0,0,1,.05676-.34359" fill="none" stroke="#010101" stroke-linecap="round" stroke-linejoin="round" stroke-width="2"/>
        <path d="M319.85975,307.00251a1.50737,1.50737,0,0,1-.01419.25944.77825.77825,0,0,1-.02838.14725,2.28108,2.28108,0,0,1,.27673-.48382c.04257-.06311.07805-.11219.09933-.14024" fill="none" stroke="#010101" stroke-linecap="round" stroke-linejoin="round" stroke-width="2"/>
        <path d="M319.85975,307.00251l.0071-.007" fill="none" stroke="#010101" stroke-linecap="round" stroke-linejoin="round" stroke-width="2"/>
        <path d="M319.52626,307.19183a.57879.57879,0,0,1,.36187-.64509c-.01419.13322-.01419.2945-.02128.44876" fill="none" stroke="#010101" stroke-linecap="round" stroke-linejoin="round" stroke-width="2"/>
        <path d="M319.99457,311.63038a.54457.54457,0,0,1-.18449.71522c.21287-1.00972.1703-.24542.18449-.24542" fill="none" stroke="#010101" stroke-linecap="round" stroke-linejoin="round" stroke-width="2"/>
        <path d="M347.03586,297.50837c.03547-.09116.10643-.14725.16319-.13323" fill="none" stroke="#010101" stroke-linecap="round" stroke-linejoin="round" stroke-width="2"/>
        <path d="M347.54674,297.32606c-.071.10518-.1632.23139-.23416.34358-.06386.09817-.12062.18231-.12772.20335a.22785.22785,0,0,1-.17029-.30853.10041.10041,0,0,1,.01419-.04908" fill="none" stroke="#010101" stroke-linecap="round" stroke-linejoin="round" stroke-width="2"/>
        <path d="M347.61769,297.19984a.45839.45839,0,0,1-.07095.1192" fill="none" stroke="#010101" stroke-linecap="round" stroke-linejoin="round" stroke-width="2"/>
        <polyline points="347.639 297.186 347.632 297.179 347.632 297.186" fill="none" stroke="#010101" stroke-linecap="round" stroke-linejoin="round" stroke-width="2"/>
        <path d="M347.63189,297.18582c-.0071-.007-.0071-.007-.0071.007" fill="none" stroke="#010101" stroke-linecap="round" stroke-linejoin="round" stroke-width="2"/>
        <path d="M347.62479,297.19283l.0071-.007h.00709c.09934-.007.02838.05609-.09224.13322v.007c-.06386.04207-.149.09115-.22706.14023-.18449.09817-.34768.1753-.26963.10518-.02129,0-.02839,0-.03548-.007-.02129-.007-.01419-.02805.01419-.04908,0-.007,0-.007.0071-.007a3.5536,3.5536,0,0,1,.58893-.31554" fill="none" stroke="#010101" stroke-linecap="round" stroke-linejoin="round" stroke-width="2"/>
        <path d="M347.62479,297.19283a.00689.00689,0,0,0-.0071.007" fill="none" stroke="#010101" stroke-linecap="round" stroke-linejoin="round" stroke-width="2"/>
        <path d="M347.43321,297.60653c-.02838.09817-.08515.10518-.12063.06311a.18851.18851,0,0,1,.0071-.20335.65965.65965,0,0,1,.298-.26645" fill="none" stroke="#010101" stroke-linecap="round" stroke-linejoin="round" stroke-width="2"/>
        <path d="M348.61817,304.15567a.73105.73105,0,0,0-.12062-.51187c-.10644-.21036-.19868-.37864.14191-.575a.02627.02627,0,0,1,.02129-.007,1.13756,1.13756,0,0,1,.13481-.07713c.0071,0,.01419-.007.02129-.007h-.03548c-.08515-.007-.12772.014-.14191.04908q-.01065.01051,0,.04207c.00709.09817.19158.2314.02129-.007a.15263.15263,0,0,1-.02129-.03506q-.0745-.09466-.21287-.25243a1.03057,1.03057,0,0,1,.35478.20335.02484.02484,0,0,1,.01419.007c.02129.021.03548.03506.02129.04908a.496.496,0,0,1-.12772.43474.75776.75776,0,0,1-.19158.1753c-.19868.09116-.12772-.42072-.12063-.42773" fill="none" stroke="#010101" stroke-linecap="round" stroke-linejoin="round" stroke-width="2"/>
        <path d="M354.79843,299.48573a.06464.06464,0,0,0-.03548-.007" fill="none" stroke="#010101" stroke-linecap="round" stroke-linejoin="round" stroke-width="2"/>
        <path d="M354.79843,299.48573a2.17091,2.17091,0,0,1,.149-.32956C354.99,299.1772,355.11064,299.49975,354.79843,299.48573Z" fill="none" stroke="#010101" stroke-linecap="round" stroke-linejoin="round" stroke-width="2"/>
        <path d="M354.74876,299.626s.02129-.07012.04967-.14024" fill="none" stroke="#010101" stroke-linecap="round" stroke-linejoin="round" stroke-width="2"/>
        <path d="M354.74876,299.626c-.17739.12621-.38316.27346-.41864.30151.05677-.33657.149-.84143.19158-1.12892C355.03258,299.33848,354.73457,299.00191,354.74876,299.626Z" fill="none" stroke="#010101" stroke-linecap="round" stroke-linejoin="round" stroke-width="2"/>
        <path d="M354.763,299.71011c.45412-.37163.24835-.25243-.01419-.08414" fill="none" stroke="#010101" stroke-linecap="round" stroke-linejoin="round" stroke-width="2"/>
        <path d="M352.33626,293.99539c.0071-.03506.01419-.06311.02129-.09816.01419-.07714.02838-.16829.04257-.25945" fill="none" stroke="#010101" stroke-linecap="round" stroke-linejoin="round" stroke-width="2"/>
        <path d="M352.50655,293.96734a4.484,4.484,0,0,1-.30511.33658h-.00709c-.31221.04207-.071-.24542.1632-.40669a.63879.63879,0,0,1,.18448-.10518c.04967-.014.08515-.007.08515.04207a.13529.13529,0,0,1-.0071.04908.02559.02559,0,0,1-.00709.021c.03548-.0561-.41864.7082-.41864.39968a.91043.91043,0,0,0,.11353-.21737.39242.39242,0,0,0,.02838-.08415" fill="none" stroke="#010101" stroke-linecap="round" stroke-linejoin="round" stroke-width="2"/>
        <path d="M352.63428,293.86918c-.0071.007-.0142.007-.0142.014-.04257.02805-.078.0561-.10643.07713l-.0071.007a.96312.96312,0,0,1-.19867.11921c-.02838,0-.01419-.02805.02838-.08415v-.007a2.75282,2.75282,0,0,1,.20577-.20334,1.35733,1.35733,0,0,1,.31221-.21036,2.96357,2.96357,0,0,0-.22706.25243c-.04257.04207-.07805.08414-.11353.12621" fill="none" stroke="#010101" stroke-linecap="round" stroke-linejoin="round" stroke-width="2"/>
      </g>
    </g>
  </g>
</svg>
