<svg xmlns="http://www.w3.org/2000/svg" width="600" height="600" viewBox="0 0 600 600">
  <title>character-winey-pierre-full</title>
  <g id="Background">
    <path d="M457.49987,90.522C498.8167,11.86715,271.76573-46.42334,126.96521,51.19459,40.38621,109.56214,0,170.74589,64.99,267.4955,4.87923,298.89345-1.78791,431.20063,3.01472,464.1327,20,580.60233,460,680.70618,480,504.49642c40.86832,29.04169,91.23329-11.322,101.45037-40.36372,25.98279-73.85517-70.10061-148.1884,6.53292-254.91209C628.792,152.38834,560.792,31.53087,457.49987,90.522Z" fill="#93bd95"/>
    <g>
      <path d="M309.98625,518.85575a54.35689,54.35689,0,0,1,1.32462-7.53245c1.39429-6.50253,3.04422-12.95345,4.178-19.50856a78.312,78.312,0,0,0,1.34981-13.07186,46.00781,46.00781,0,0,0-2.88359-16.44036,128.69483,128.69483,0,0,0-17.9867-33.10091A84.79986,84.79986,0,0,0,263.09173,402.77c-9.33813-4.23158-18.58439-8.64911-28.38138-11.823a171.44348,171.44348,0,0,0-23.95691-6.16087,51.04806,51.04806,0,0,0-9.16592-.81934c-1.52428.01692-1.32785.194-1.50962,1.21258-2.04812,11.47646-5.77706,22.49126-9.79982,33.42286-.0306.08317-.11985.14592-.18171.21821-.77681.10051-.91426-.58239-1.24-.99535a42.35053,42.35053,0,0,0-3.82166-4.88253c-1.53929-1.88394-2.7262-4.00376-4.34658-5.84748a40.978,40.978,0,0,0-11.85218-9.04931c-5.92995-3.1412-12.26437-5.42393-18.39086-8.1483-5.10665-2.2709-10.06214-4.79488-14.29819-8.45575-.52326-.45223-1.28975-.80306-1.14915-1.70164.6381-2.52059,1.243-5.04962,1.92059-7.56014,1.93433-7.16675,4.269-14.228,6.05974-21.43165a78.87871,78.87871,0,0,1,8.708-21.25409,61.58591,61.58591,0,0,1,15.695-18.135,39.16113,39.16113,0,0,1,18.87058-7.9065,56.73415,56.73415,0,0,1,8.75453-.38984c.64356.01639,1.28774.00929,1.93163.013,1.299-.67408,2.64443-.1413,3.917-.005a72.37614,72.37614,0,0,1,21.79132,5.38007c5.14259,2.27484,10.24714,4.62287,14.57642,8.25917,2.846,2.87708,5.37527,6.0248,8.1641,8.959,5.98883,6.30119,12.49612,11.95107,20.23372,16.13774,6.97123,3.772,14.06686,7.30114,21.72831,9.61469A92.43664,92.43664,0,0,0,305.84529,354.8c3.84288.34726,7.692.4984,11.54349.6664a5.51293,5.51293,0,0,0,1.76371.17446c1.98091.00143,3.96185-.00777,5.9427.003,2.1289.01157,2.39674.31327,1.88855,2.28318-.92794,3.5969-1.68474,7.23-2.47836,10.8552-.36411,1.66324-.33474,1.65709,1.29825,2.05274A112.604,112.604,0,0,1,357.255,384.2a124.032,124.032,0,0,1,21.2874,16.11121,4.32181,4.32181,0,0,1,1.40368,1.83246c1.89444,7.46443,3.82759,14.91791,5.32427,22.47151,1.06661,5.383,1.82243,10.80637,2.44447,16.25025a2.5,2.5,0,0,1-.31861,1.94292,100.3378,100.3378,0,0,1-.41324,22.06655c-.47818,3.48111-1.20175,6.92984-1.7824,10.39828-.89092,5.322-1.71332,10.65511-2.63929,15.97125-1.40647,8.07526-3.08514,16.08819-6.19015,23.74781a63.47174,63.47174,0,0,1-2.85078,6.03314,3.36206,3.36206,0,0,1-1.87653,1.71371c-1.33787.496-2.63234,1.10265-3.9453,1.6622a3.07757,3.07757,0,0,1-1.78548.94986,97.574,97.574,0,0,1-23.53307,4.43508c-11.897.94693-22.0559-2.8954-31.28951-9.7739A5.3414,5.3414,0,0,1,309.98625,518.85575Z" fill="#054554"/>
      <path d="M379.591,402.00143a23.21147,23.21147,0,0,0-3.21874-3.19265,129.9,129.9,0,0,0-17.10509-12.92523,118.72966,118.72966,0,0,0-27.306-12.92294,69.24374,69.24374,0,0,0-7.14531-1.92713c-1.08294-.221-1.11326-.26155-.898-1.31927q1.25248-6.15339,2.7599-12.253c.05772-.23366.14466-.4607.198-.69511.10564-.46388-.03645-.75152-.58331-.74134-.34676.00642-.69381-.002-1.04073-.00461-2.2301-.01683-4.46025-.03082-6.69028-.05388a1.85241,1.85241,0,0,1-1.15091-.17024c.46876-.5908,1.15482-.46923,1.77832-.47818,1.92987-.02778,3.86306-.07067,5.78948.01015a1.93384,1.93384,0,0,0,2.26049-1.72292c1.6326-6.79425,3.23122-13.5944,4.39408-20.48391a202.98511,202.98511,0,0,0,2.80129-22.8538c.279-4.63165.45712-9.26663.579-13.90444.18973-10.137.17829-20.26945-.587-30.38618a57.33055,57.33055,0,0,0-1.31107-10.35453,31.38479,31.38479,0,0,0-2.49914-6.94c.14657-.68745.45189-1.23049,1.26354-1.31362,1.79252.16821,3.55026-.326,5.33592-.26807q8.688.28158,17.32,1.28217c5.55664.654,11.12648,1.17025,16.70641,1.58374,2.36977.17561,2.47742.0633,3.05893-2.122,1.61441-6.06667,3.65719-12.01178,5.42176-18.0364a78.7003,78.7003,0,0,0,3.58254-26.09838,71.55169,71.55169,0,0,0-1.90907-14.3062c-.19543-.76329-.64648-1.56143-.0109-2.34347,2.83385-.87513,5.755-1.40069,8.656-1.99454a114.917,114.917,0,0,1,13.768-2.17822,97.03651,97.03651,0,0,1,10.39857-.19663c10.12792.2678,20.16334,1.25923,29.91653,4.08649a61.34279,61.34279,0,0,1,23.4624,12.3528,42.22233,42.22233,0,0,1,9.86985,12.20239,117.34886,117.34886,0,0,1,10.89431,28.636,73.3036,73.3036,0,0,1,1.86,21.95118,105.49929,105.49929,0,0,1-3.55493,19.4491c-.13335.49665-.08417,1.065-.47412,1.48913-7.44515,3.84761-15.49936,5.4721-23.80836,6.1721a80.42948,80.42948,0,0,1-9.77422.54608c-6.59877-.24917-13.15032-.82287-19.3502-3.3235A19.49925,19.49925,0,0,1,429.33521,284.2a1.27953,1.27953,0,0,0-1.62047-.15612c-.75175-.34989-.59439-1.04352-.62545-1.63969-.23626-4.5361.37575-9.02944.71841-13.538.26041-3.4259,1.20309-6.73028,1.75331-10.1034a15.27662,15.27662,0,0,0,.16971-3.599,7.08124,7.08124,0,0,0-5.15016-6.59272,19.39227,19.39227,0,0,0-11.68561-.11652c-3.82995.12975-6.91215,2.21748-9.86586,3.6625,2.55886-.84777,5.561-1.41832,8.51169-2.18242.51277-.13279,1.03109-.395,1.57815-.09022.7827.87549.82255,2.04213,1.26576,3.05205,4.58181,10.43973,6.84309,21.48863,8.90157,32.57678.38882,2.09432,1.02437,4.22818.57259,6.418-.7953.6142-1.02666-.15986-1.29986-.56759-.83813-1.25084-1.63823-2.52606-2.46474-3.78506a1.93544,1.93544,0,0,0-2.38057-.88956,17.60715,17.60715,0,0,0-7.04136,3.27c-2.47858,1.9867-2.87823,4.19334-1.41331,6.99346,1.101,2.10459,2.35435,4.12952,3.3987,6.26207,1.156,2.00086,2.17915,4.07061,3.34806,6.06467a2.39831,2.39831,0,0,1,.58462,1.72364,2.98959,2.98959,0,0,1-1.33314,1.10807,32.6356,32.6356,0,0,0-7.448,5.93169c-4.77964,5.2414-5.09211,10.95388.19165,16.01751,1.17327,1.12442,1.66,2.04739,1.04206,3.74069-1.1178,3.06307.70427,6.41888,4.23254,7.95491,1.51978.66164,2.11508,1.40072,1.86258,3.0169a6.81375,6.81375,0,0,0,.49646,3.96945,4.25274,4.25274,0,0,0,3.1765,2.76372,1.75177,1.75177,0,0,1,1.667,1.97174,6.16217,6.16217,0,0,0,3.16673,5.39658c.68.423,1.76442.656,1.54335,1.8441a124.60065,124.60065,0,0,1-3.77408,20.88123,248.537,248.537,0,0,1-10.46563,30.07664q-3.79449,9.42069-8.35288,18.51876c-.21734.43329-.23477,1.09614-.98285,1.10988-.90868-1.66032-1.36147-3.49426-2.138-5.214a88.51258,88.51258,0,0,0-15.689-23.39253C382.377,405.12013,380.66974,403.82219,379.591,402.00143Z" fill="#9a6075"/>
      <path d="M237.01273,316.98664a69.42,69.42,0,0,0-29.20444-12.51318c-3.60158-.66158-7.23125-1.05171-10.8709-1.39748,2.38761-9.01887,6.93734-17.07218,11.8254-24.9695a118.65281,118.65281,0,0,1,7.5487-11.42182,103.2831,103.2831,0,0,1,10.9048-11.43886c.42373-.39353.95058-.71188,1.15587-1.29443a69.345,69.345,0,0,1,6.113-5.62572c2.01922-1.837,3.98611-3.72231,5.96841-5.59409a15.94843,15.94843,0,0,1,1.69113-1.39236.21158.21158,0,0,1,.24728-.08613c.01021.00288.02419-.04948.01133-.053-.15078-.041-.16915.15445-.29826.1603a84.69135,84.69135,0,0,0-15.44341,12.18542q-7.04643-1.74842-13.97625-3.8926a50.96419,50.96419,0,0,1-17.23842-9.73071c-8.627-7.05539-13.54827-16.19383-16.08557-26.6944a71.3562,71.3562,0,0,1-1.86318-13.28868c-.74949-15.22782,1.985-29.911,7.23987-44.2062.03015-.08205.1201-.14331.18213-.21428a19.08254,19.08254,0,0,1,5.95911-2.54419c7.90985-2.462,16.03264-2.852,24.26319-2.28653a58.27186,58.27186,0,0,1,11.42895,1.791,13.072,13.072,0,0,1,5.10883,2.22731c.39308.68772.00236,1.294-.244,1.89776a67.29179,67.29179,0,0,0-2.41741,6.43325c-.61372,2.09423-1.14376,4.17892-.41357,6.37208a6.88451,6.88451,0,0,0,2.60779,3.576,30.49087,30.49087,0,0,0,5.93535,2.94207,2.69163,2.69163,0,0,1,1.46178.9233c.11737.73113-.52446.97611-.94282,1.3419a16.08759,16.08759,0,0,0-4.69544,6.21622c-.623,1.60575-.27783,2.32275,1.45239,2.732a7.03781,7.03781,0,0,0,3.22107.28068,1.24712,1.24712,0,0,1,1.25326.212,3.19924,3.19924,0,0,0-.04139,2.75636c2.05642,6.1675,6.42286,9.58048,12.98551,10.52551a18.76168,18.76168,0,0,0,7.43844-.84667,3.914,3.914,0,0,1,.42908-.11045,1.76551,1.76551,0,0,1,.44117-.03247c.78809.30292,1.75939.358,2.01855,1.39026-.14789.65909-.53212,1.232-.72134,1.87834a4.0366,4.0366,0,0,0,1.061,3.9805c.36131.41561.99017.70787.76316,1.427a3.19013,3.19013,0,0,1-2.017.79673,82.41,82.41,0,0,0-9.392,2.166,16.98426,16.98426,0,0,0-4.61445,2.293c-1.20306.8763-1.20035,1.3604-.20137,2.46089a23.06682,23.06682,0,0,0,8.69953,5.6453,58.2746,58.2746,0,0,0,15.13381,3.48739,76.2069,76.2069,0,0,0,8.15883.27725,3.69629,3.69629,0,0,1,2.02711.284c.38436.64879.08495,1.32065.07294,1.98207a10.45526,10.45526,0,0,1-1.26357,2.88757c-.38427.55425.2147.47289.35271.68911.01246.04895.04216.131.0295.13775-2.1739,1.15458-3.46585,3.36977-5.7316,4.4618.43692-.09418.75528-.1076.60771.44454a28.11415,28.11415,0,0,0-9.84209,6.76654c-1.63465,1.69891-1.194,3.273,1.04368,4.17885a14.15577,14.15577,0,0,0,4.62,1.01219c1.85834.09121,3.73363.46157,5.58489-.09694a1.86,1.86,0,0,1,1.00956.43412c.095.28684-.057.46033-.30654.55355-3.19923,1.1948-4.54434,3.909-5.66014,6.72343-.56228,1.41826.27066,2.5696,1.36616,3.52845.7601.66529,1.80941.993,2.34853,1.9128a1.01589,1.01589,0,0,1-.28435.78582,9.6822,9.6822,0,0,1-1.37911,1.05353c-1.24755.8652-2.372,1.80447-2.55858,3.41559-.89128.14626-.52309-.56195-.66881-.92931a96.76863,96.76863,0,0,0-14.99774,16.96558c-1.76363,2.47485-3.35662,5.05636-5.01875,7.59485-2.60465,4.17793-5.20034,8.36019-7.41958,12.75024A72.6805,72.6805,0,0,0,238.13,314.533,4.69163,4.69163,0,0,1,237.01273,316.98664Z" fill="#9a6075"/>
      <path d="M228.71051,163.04771a25.819,25.819,0,0,1,1.7362-5.03872c.39851-1.03412.82782-2.057,1.2433-3.08494.0341-1.64619.96789-2.99486,1.5884-4.43978a49.17691,49.17691,0,0,1,2.975-6.25417c.62162-.18784.68037-.78563.92054-1.23438a148.16665,148.16665,0,0,1,24.38528-33.4949,95.57186,95.57186,0,0,1,43.90966-26.15075,87.08917,87.08917,0,0,1,26.552-3.29292,50.68125,50.68125,0,0,1,12.87977,1.91052,1.48472,1.48472,0,0,1,.79837.34518,33.38768,33.38768,0,0,1,3.06135,8.4074c1.14771,6.39229.45477,12.68849-1.00436,18.916-2.501,10.67429-6.64861,20.67465-13.38376,29.5515a57.65556,57.65556,0,0,1-17.248,15.685,34.61363,34.61363,0,0,1-14.815,4.28575,70.72662,70.72662,0,0,1-10.38886.18626c-4.60985-.324-9.21173-.23831-13.81321-.20016-8.612.07138-17.21068.4233-25.78687,1.32192-4.127.43243-8.29215.54216-12.42943.94568a56.52893,56.52893,0,0,0-8.91162,1.55675C230.245,163.162,229.48587,163.598,228.71051,163.04771Z" fill="#a1502a"/>
      <path d="M281.08,226.17966c-1.88083-.014-3.76313.01351-5.64224-.0493a58.98222,58.98222,0,0,1-19.94295-3.82651,23.31566,23.31566,0,0,1-9.00828-5.94072c-1.05185-1.17053-1.075-1.56191.18417-2.57584A15.83641,15.83641,0,0,1,251.3419,211.32a72.6481,72.6481,0,0,1,9.63289-2.26018,10.58928,10.58928,0,0,0,2.27861-.59456,45.17436,45.17436,0,0,1,4.73328-1.80584c-.5414-.075-1.50155.563-2.12348-.37074a.81655.81655,0,0,1,.98445-.45783c2.1961.32874,3.79281-.846,5.38355-1.99789a24.017,24.017,0,0,0,5.25991-5.05,4.63972,4.63972,0,0,0,.65705-1.42146c1.8295-1.45139,2.36069-3.62044,3.25389-5.58541.48058-1.05719.65062-2.22024,1.11842-3.28832a1.61607,1.61607,0,0,1,1.25781-.65507c3.4709-.39449,6.983-.31843,10.44124-.864a1.79526,1.79526,0,0,1,.87061.11715.85308.85308,0,0,1,.3914.31278,4.29661,4.29661,0,0,1-.00094,1.20278,6.87542,6.87542,0,0,0-.11321,2.55949,3.71014,3.71014,0,0,0,3.04376,2.972,16.35775,16.35775,0,0,0,9.68909-.89891c.52316-.21109.99428-.68012,1.64508-.36719.24634,1.3784-.10425,2.77385.12934,4.15194-.2889,2.65473.68867,4.15907,3.27406,5.08772a15.0024,15.0024,0,0,0,9.05866.03443,20.50945,20.50945,0,0,0,10.0484-5.60229,8.17943,8.17943,0,0,0,2.10191-3.76418,3.6891,3.6891,0,0,0-1.21961-3.814,8.344,8.344,0,0,0-6.91142-1.78715,13.16367,13.16367,0,0,0-12.22784,1.29559,1.64736,1.64736,0,0,1-1.36822.38272.88872.88872,0,0,1-.19027-.93732c.90742-2.66635,1.23315-5.49988,2.46159-8.07389a14.23351,14.23351,0,0,1,1.27487-2.08563,9.5035,9.5035,0,0,1,5.45148-4.24442c4.50306-1.26321,7.97571.75935,11.26549,3.35145.42212.3326.74133.77677,1.19118,1.08286a.56105.56105,0,0,0,.13524.0477c1.04486-2.65607.03-8.37727-4.04455-11.37393-.181-.853.52-1.18208,1.04377-1.57079,4.84851-3.5984,9.90664-6.8309,15.85819-8.48631a2.30447,2.30447,0,0,0,1.29092-.65266c1.16486-1.72806,2.02036-3.63909,3.36383-5.2632a12.84448,12.84448,0,0,1,5.99094-4.54391c.65035-.20206.91837-.87306,1.57435-1.00891.11646.31448-.0785.82545.601.76024,5.06448-.486,8.92839,1.57919,11.88176,5.42425a22.87615,22.87615,0,0,1,4.28573,10.33027c.70369,4.1247-.30241,8.01662-1.4235,11.91488-.13024.45289-.40159.89573-.16675,1.39233-1.64175,4.2698-3.74186,8.26244-7.28176,11.38669-2.73472,2.296-5.79692,3.2914-9.35925,2.1676-1.052-.33188-1.28509.112-1.34959,1.031a94.76526,94.76526,0,0,1-8.4644,32.349,122.3142,122.3142,0,0,1-6.98482,13.24643c-2.64115,3.87122-5.17681,7.81579-8.19372,11.43372-.33324.39962-.57784.91761-1.20983.97143l-.832,1.18583c-.36423.13268-.58313-.065-.77725-.32082-.67229-1.91931-.76418-3.95527-1.273-5.91565a43.70336,43.70336,0,0,0-9.91312-18.816,21.39187,21.39187,0,0,0-8.89834-6.05992,4.18076,4.18076,0,0,1-1.20606-.54245c-.50822-.44351-.35655-.9472-.13476-1.45513.21308-.48808.48717-.94867.69677-1.438a5.02358,5.02358,0,0,0-2.46485-6.63665c-.38819-.21439-.80539-.37218-1.20593-.5612a3.76357,3.76357,0,0,0-.90845-.34257,3.67226,3.67226,0,0,1,.80249.33087c3.60715,1.7644,4.35059,5.28266,1.849,8.25753-4.556,5.418-10.49478,8.52134-17.413,10.03722-2.36823.51892-4.76625.87971-7.16975,1.20182A2.06733,2.06733,0,0,1,281.08,226.17966Z" fill="#eab492"/>
      <path d="M359.29762,145.09272a2.007,2.007,0,0,1-1.35644,1.29631,12.00051,12.00051,0,0,0-5.6766,4.16638,50.70448,50.70448,0,0,0-3.60631,5.55655,82.3064,82.3064,0,0,0-16.91331,5.79026c-4.85788,2.29424-9.55633,4.88867-14.43118,7.14849A72.28864,72.28864,0,0,1,303.11,174.11218a49.62458,49.62458,0,0,1-14.32591.753c-4.3457-.27076-8.66468-.82511-13.01782-1.01963-2.12439-.09493-4.24239-.27241-6.37443-.269-5.00732.008-9.9772.53087-14.95158.97725-3.54708.3183-7.09061.68445-10.637,1.00843a8.2375,8.2375,0,0,0-3.65081,1.04014c-.47572.28717-.97548.73336-1.627.33979-1.12929-.48509-2.24475-1.004-3.39121-1.44713a17.5,17.5,0,0,1-4.51187-2.46335,7.24416,7.24416,0,0,1-2.688-7.0995,6.42064,6.42064,0,0,1,.77627-2.88448c1.58424-.13315,3.03917-.7866,4.59124-1.06938,2.226-.40558,4.46165-.705,6.7068-.99089,3.07955-.39218,6.18853-.36758,9.26348-.79541,1.40748-.19583,2.84478-.0317,4.2765-.28819a56.45659,56.45659,0,0,1,6.61381-.55516c2.75467-.16367,5.52169-.296,8.28313-.40414,6.5805-.25783,13.162-.34523,19.7372-.18258,3.65477.09041,7.31459.35,10.96519.20344,5.694-.22855,11.31066-.94064,16.41619-3.70439a54.22346,54.22346,0,0,0,8.39836-5.62784,48.01144,48.01144,0,0,0,3.7836-3.44962,69.33161,69.33161,0,0,0,10.292-13.13633,82.09641,82.09641,0,0,0,9.31989-23.433,52.05153,52.05153,0,0,0,1.35208-9.08313,36.07785,36.07785,0,0,0,.222-4.30255,30.61849,30.61849,0,0,0-2.53452-11.59394c-.291-.60688-.68212-1.1682-1.02357-1.75245-.209-.35772-.05554-.52647.325-.56924a20.41463,20.41463,0,0,1,11.33038,8.63156,29.41747,29.41747,0,0,1,4.11173,10.7647,73.67764,73.67764,0,0,1,1.05514,16.69609c-.14808,3.99629-.30475,7.99027-.68769,11.9757a114.60439,114.60439,0,0,1-2.10038,13.997C359.35592,144.61294,359.33382,144.85431,359.29762,145.09272Z" fill="#824729"/>
      <path d="M126.03112,429.28181a46.14947,46.14947,0,0,1-7.55948-5.31046,75.91963,75.91963,0,0,1-23.33321-33.20866,91.02234,91.02234,0,0,1-4.63479-17.123,30.13222,30.13222,0,0,1,.12571-11.62153,11.76478,11.76478,0,0,1,1.40817-3.47386,8.878,8.878,0,0,1,7.14265-4.3034,2.21971,2.21971,0,0,1,2.02357.64077,36.70507,36.70507,0,0,1,7.39983,7.86017c1.94742,2.736,3.73141,5.57379,5.54645,8.39146,4.77078,7.40627,11.25644,13.13166,18.55532,18.08962,5.99018,4.069,12.5032,7.26045,18.83851,10.75142a74.30877,74.30877,0,0,1,11.14208,7.1724c.44434.36075,1.02588.63647,1.04361,1.324-.24806.94573-1.06248,1.501-1.6754,2.16509a80.235,80.235,0,0,1-13.38708,12.20443,34.81106,34.81106,0,0,1-15.42668,5.58367C130.84079,428.742,128.41985,428.88313,126.03112,429.28181Z" fill="#372225"/>
      <path d="M425.18814,364.67822c-.08359-.84035-.87591-1.01159-1.43626-1.32428a7.08612,7.08612,0,0,1-3.53645-4.44135,8.0979,8.0979,0,0,1-.14944-2.15333c-.00516-.45249-.1429-.70747-.65295-.77119a4.56327,4.56327,0,0,1-3.40393-1.815,7.15228,7.15228,0,0,1-1.33259-4.34993,9.0756,9.0756,0,0,0,.071-2.83c-.269-.77258-1.61245-.7391-2.39547-1.25406-2.14127-1.40818-3.701-3.1601-4.00145-5.77971a4.80549,4.80549,0,0,1,.53271-3.06235c.53239-.87507.18922-1.27824-.39634-1.80773a15.45831,15.45831,0,0,1-3.74473-4.80182,9.46131,9.46131,0,0,1-.045-8.36678c1.557-3.42311,4.27926-5.84984,7.23112-8.086,1.44738-1.09641,3.0301-1.99748,4.57236-2.95651,1.3958-1.459,3.341-1.99782,5.10058-2.82862a73.13015,73.13015,0,0,1,9.02518-3.24808,41.77667,41.77667,0,0,1,7.49652-1.33216c1.81873.46213,3.59224,1.0728,5.43788,1.45,5.33963,1.09146,10.72056.85152,16.09921.48755,2.36629-.16014,4.7327-.37136,7.08858-.66729a1.70081,1.70081,0,0,1,1.52751.35616,61.318,61.318,0,0,1-2.8714,18.09649,71.31285,71.31285,0,0,1-2.88336,7.8448,3.00313,3.00313,0,0,0-.23615.97206,5.58154,5.58154,0,0,1-.79606,2.15145c-3.8309,8.31481-10.3,13.88242-18.92883,17.20806-3.96167,1.52688-7.9452,2.99573-11.99329,4.29388-1.30233.4176-1.36692.54859-.68324,1.70558q1.92516,3.258,3.83028,6.52707c.34778.59506.936,1.16741.60536,1.97795a1.37817,1.37817,0,0,1-.84151.20584,39.62091,39.62091,0,0,1-7.29527-1.617C425.7486,364.29054,425.44794,364.28962,425.18814,364.67822Z" fill="#eab492"/>
      <path d="M470.40878,345.30645c1.98688,3.31377,3.95029,6.64106,5.9662,9.93806,2.90482,4.75095,5.89628,9.45231,8.76277,14.22481,4.01714,6.68843,7.95352,13.42266,11.4009,20.41333a2.49907,2.49907,0,0,1-1.39442.76427,119.50231,119.50231,0,0,0-21.53549,10.6614,145.91174,145.91174,0,0,0-12.321,8.55753c-.4197.31969-.77264.76446-1.36027.8335-2.24538-3.77283-4.50034-7.54032-6.73285-11.32029-1.59751-2.70479-3.19383-5.41093-4.73928-8.144-2.47611-4.37892-4.80816-8.8318-7.16527-13.27232-1.69689-3.19671-3.602-6.28861-5.39487-9.4377a3.46568,3.46568,0,0,1-.66138-1.58812c-.02695-.73461.54234-1.10985,1.01747-1.5065a126.14166,126.14166,0,0,1,18.90333-13.433A81.39921,81.39921,0,0,1,470.40878,345.30645Z" fill="#e7d8d2"/>
      <path d="M309.98625,518.85575a1.97446,1.97446,0,0,1,.89192.4839,60.36061,60.36061,0,0,0,10.52434,6.427A37.89469,37.89469,0,0,0,332.5467,529.048a36.26964,36.26964,0,0,0,7.8102.4928c2.74373-.24545,5.4971-.36718,8.23849-.73285a108.92309,108.92309,0,0,0,11.31776-2.08556c2.63861-.64046,5.1759-1.59329,7.78532-2.32112a19.74857,19.74857,0,0,0,7.0556,4.91792,47.01685,47.01685,0,0,0,11.3889,3.16066,32.64529,32.64529,0,0,1,13.82172,5.66094,17.10564,17.10564,0,0,1,4.18921,4.06274c1.72966,2.47912,2.13447,5.0382.418,7.69578a1.25422,1.25422,0,0,0-.23586.80807c-.5544,1.37334-1.84954,1.97234-3.03639,2.62682a22.8139,22.8139,0,0,1-10.61013,2.40669c-6.68719.183-13.34858-.27084-20.024-.74753-14.72995-1.05193-28.92591-4.52864-43.05349-8.39477a133.73087,133.73087,0,0,1-15.04124-5.00229,6.78519,6.78519,0,0,0-1.43091-.38007,9.57242,9.57242,0,0,1-1.40749-4.33468,49.39975,49.39975,0,0,1-.21189-15.19267A10.62279,10.62279,0,0,1,309.98625,518.85575Z" fill="#4a2d32"/>
      <path d="M367.12944,185.91874a28.04684,28.04684,0,0,0,6.5557-9.9344c.165-.39216.10258-1.0161.79113-1.06931a27.58763,27.58763,0,0,1,6.62287,11.85437,2.80661,2.80661,0,0,0,.28922.292l-.00323-.00136c.10582,1.68917.78775,3.262,1.0453,4.92257.44113,2.84438.89723,5.68026,1.09084,8.56067.12591,1.87213.20321,3.73961.24284,5.61309a71.99634,71.99634,0,0,1-2.511,19.65836c-1.50979,5.82483-3.40146,11.54013-5.1531,17.29593-.64437,2.11726-1.24579,4.24933-1.77342,6.39635a1.004,1.004,0,0,1-1.19637.91668c-2.51964-.05022-5.02167-.31315-7.53135-.49045-2.3156-.16361-4.6163-.434-6.92188-.67149-2.30389-.23725-4.60719-.48565-6.90438-.77653-1.1262-.14262-2.26618-.20875-3.38832-.29549a46.85224,46.85224,0,0,0-5.61567-.38979c-1.88068.08021-3.73583-.31454-5.62382-.28544-1.39085.02144-2.74666.37294-4.13626.28733-.4731-.02913-1.00577.17934-1.37589-.30123a123.57667,123.57667,0,0,0,8.22647-11.32247c.2342-.365.52693-.69442.79249-1.04036,2.55965-2.26068,5.45986-4.12269,7.83762-6.60908A62.90748,62.90748,0,0,0,359.96385,211.777a78.229,78.229,0,0,0,6.056-17.48216,26.7453,26.7453,0,0,0,.704-6.59011A2.33169,2.33169,0,0,1,367.12944,185.91874Z" fill="#50303a"/>
      <path d="M243.005,104.32824c.03418.47233.40673.75086.66039,1.09943a13.97589,13.97589,0,0,1,2.83955,8.9149,17.47483,17.47483,0,0,1-2.84351,8.53926,51.23766,51.23766,0,0,1-10.57455,11.59262q-1.27373,1.09421-2.54759,2.18822c-.5083.31164-.96006.02212-1.40492-.15-8.54753-3.30612-17.209-3.25776-25.95728-.86274-.596.16317-1.19632.54-1.84278.12787a38.00456,38.00456,0,0,0-3.56336-8.20321c-1.95873-3.55036-4.09978-7.01278-5.363-10.897a22.463,22.463,0,0,1-1.1036-5.92368,50.10061,50.10061,0,0,1,.16726-9.06172,39.8105,39.8105,0,0,1,1.56243-6.5728,1.362,1.362,0,0,1,.25164-.3452c.45337.33427.37833.8614.50645,1.314,1.11486,3.93855,2.913,7.48922,6.33841,10.02435a5.49042,5.49042,0,0,0,7.33788-.079,1.53561,1.53561,0,0,1,2.31719-.007,7.69831,7.69831,0,0,0,6.60917,1.87144c1.15184-.16633,1.62663.21469,1.71906,1.34573.23242,2.84391,1.9096,4.42535,4.94522,4.79153a21.40494,21.40494,0,0,0,4.00512-.01876c1.18991-.07934,1.39469.21414.76272,1.20271a21.77259,21.77259,0,0,0-2.37747,4.483,6.544,6.544,0,0,0,.62807,6.18224c-.73544-6.07992,3.32245-9.72849,7.21486-13.75a22.5157,22.5157,0,0,1-6.92386.94739,12.28818,12.28818,0,0,1-6.47988-1.8094c-.83362-.57754-1.21309-1.31846-.67084-2.23794,2.69154-4.56408,6.07869-8.34322,11.68226-9.53781C235.10842,98.59961,240.97164,100.94787,243.005,104.32824Z" fill="#eab492"/>
      <path d="M459.92746,410.69935a6.59672,6.59672,0,0,1,1.85011-1.63585,128.34106,128.34106,0,0,1,32.37713-18.42576,10.14519,10.14519,0,0,1,2.384-.75509,74.62711,74.62711,0,0,0,4.89222,7.92159,114.81647,114.81647,0,0,1,6.12483,9.73343,25.23751,25.23751,0,0,1,2.20015,5.35121,6.18954,6.18954,0,0,1-.7661,5.1312,18.62882,18.62882,0,0,1-3.576,4.04074c-.81.70833-1.63892,1.4023-2.50884,2.03876a82.9267,82.9267,0,0,1-17.59685,9.84881,21.00134,21.00134,0,0,1-5.7274,1.46209,5.271,5.271,0,0,1-4.57866-1.55526,39.86944,39.86944,0,0,1-3.73143-4.67847,147.61914,147.61914,0,0,1-8.35851-13.314Q461.42159,413.28006,459.92746,410.69935Z" fill="#495554"/>
      <path d="M163.55972,408.39472a47.09447,47.09447,0,0,0-7.462-5.37784c-5.19687-3.16755-10.69446-5.81859-15.993-8.80924a103.40861,103.40861,0,0,1-13.06554-8.69205,65.78587,65.78587,0,0,1-7.36727-6.682,70.3158,70.3158,0,0,1-8.07964-10.992c-2.68013-4.27205-5.53994-8.43218-9.45161-11.77131a6.23155,6.23155,0,0,0-2.96051-1.82943,13.38924,13.38924,0,0,1,6.98893.49136,22.98772,22.98772,0,0,1,5.96854,2.85432,56.97683,56.97683,0,0,1,9.48914,8.04987c3.64346,3.67327,6.98943,7.60809,10.55811,11.34681a23.24029,23.24029,0,0,0,2.8127,2.75678,27.18013,27.18013,0,0,0,6.64714,5.236,116.51252,116.51252,0,0,0,15.98965,7.56681c5.27539,2.18215,10.56005,4.37462,15.3513,7.49971a34.99451,34.99451,0,0,1,11.49015,11.64322,10.44255,10.44255,0,0,0,.78679,1.03914c.46357.61122-.01467,1.10406-.26251,1.58227a44.87619,44.87619,0,0,1-6.06252,8.66412,19.13676,19.13676,0,0,0-1.45056,1.81134,1.21841,1.21841,0,0,0-1.047.40779,3.09251,3.09251,0,0,1-.95949.88185c-1.13267-1.32242-1.41438-3.02561-2.10175-4.54315a37.50043,37.50043,0,0,0-5.76258-8.82749C166.33638,411.20222,164.6,410.10788,163.55972,408.39472Z" fill="#4a2d32"/>
      <path d="M468.27616,305.09584c-2.80834.243-5.61454.51367-8.4255.72334-6.23646.46517-12.46562.69565-18.579-.99519-1.13894-.315-2.25085-.72221-3.37526-1.08685-2.36823-.3393-3.7241-2.04649-5.05306-3.687a20.73115,20.73115,0,0,1-3.51858-7.10215,52.15168,52.15168,0,0,1-1.75371-7.43881c-.07969-.51828-.23211-1.0487.20063-1.50368l.11787-.97709a1.00889,1.00889,0,0,1,.832.28668c3.6181,2.62465,7.81367,3.85671,12.15388,4.68936a54.81768,54.81768,0,0,0,8.51337.96414c1.47331.04925,2.95255.24441,4.43244.19292,3.59758-.1252,7.18415-.366,10.76466-.7783a86.00879,86.00879,0,0,0,10.043-1.69157,48.80908,48.80908,0,0,0,10.27016-3.67176c.3723-.18263.776-.74429,1.28257-.1621a46.52718,46.52718,0,0,1-6.16232,13.81116,23.7934,23.7934,0,0,1-4.27265,4.77121A17.87627,17.87627,0,0,1,468.27616,305.09584Z" fill="#50303a"/>
      <path d="M201.33431,135.77784a44.66319,44.66319,0,0,1,12.77894-2.2345,37.30449,37.30449,0,0,1,16.42607,3.11936c.53335.33906,1.0811.65873,1.59762,1.02057a9.867,9.867,0,0,1,4.116,6.54605c-.002.23509.0769.50844-.01918.69789-1.6589,3.27081-3.01374,6.67163-4.54358,9.99707a34.12431,34.12431,0,0,0-10.57135-3.18146,77.5523,77.5523,0,0,0-15.528-.8021,51.81244,51.81244,0,0,0-18.98555,4.06459,4.31934,4.31934,0,0,1-1.685.51359,58.36544,58.36544,0,0,1,6.34816-12.666,18.08108,18.08108,0,0,1,7.6294-6.019C199.69714,136.45614,200.52148,136.12849,201.33431,135.77784Z" fill="#50303a"/>
      <path d="M167.74023,412.42659a22.20142,22.20142,0,0,1,3.72347,4.75911,34.48336,34.48336,0,0,1,4.01694,8.88665,48.50583,48.50583,0,0,1-14.08424,10.66072c-4.66555,2.24166-9.54786,2.26966-14.49222,1.124a72.13538,72.13538,0,0,1-15.42886-5.49068,2.07957,2.07957,0,0,1-.34142-.2643c.28234-.68062.949-.59808,1.50926-.70322,5.48747-1.02954,10.96245-2.06981,16.1134-4.32037a49.416,49.416,0,0,0,12.91847-8.57763,58.79653,58.79653,0,0,0,5.07525-5.24686C167.03468,412.93126,167.25973,412.53163,167.74023,412.42659Z" fill="#372225"/>
      <path d="M311.13989,541.21623c.04248-.53052.37885-.46.73012-.32894q1.658.61885,3.31184,1.24811a181.00723,181.00723,0,0,0,17.47386,5.425c3.5161.94923,7.05345,1.81161,10.60537,2.61534,4.88624,1.10561,9.77476,2.204,14.74938,2.89663,2.18761.3046,4.34613.86811,6.54076,1.04388,1.66551.13335,3.32078.41193,5.01008.39441a33.03836,33.03836,0,0,1,5.57556.5c.14614.02348.29476.03446.44268.045a142.50035,142.50035,0,0,0,16.1589.23489,21.18426,21.18426,0,0,0,9.3912-2.2846,39.02133,39.02133,0,0,0,3.20636-2.29863,4.92457,4.92457,0,0,1-2.18889,6.566,19.01214,19.01214,0,0,1-5.91825,1.83168,74.19835,74.19835,0,0,1-16.45283.765,154.32238,154.32238,0,0,1-15.39672-1.33785,176.48533,176.48533,0,0,1-33.31452-7.73738,27.036,27.036,0,0,1-6.47951-3.16313c-.09136,1.29317-.95283,1.83923-2.00283,2.24173a5.8123,5.8123,0,0,1-4.20156.10111,7.88357,7.88357,0,0,1-2.93911-1.91863A18.45436,18.45436,0,0,1,311.13989,541.21623Z" fill="#372225"/>
      <path d="M470.40878,345.30646c.0037.42878-.29656.53157-.65378.64444-12.1103,3.82666-22.32448,10.72326-31.89785,18.65155a20.33531,20.33531,0,0,0-2.6233,2.33449c-.50336-.19328-.554-.75433-.91434-1.06376-.99691-2.20694-2.39162-4.20088-3.57666-6.30712-.6605-1.174-1.357-2.32885-2.07588-3.55821a6.45628,6.45628,0,0,1,1.70115-.64937c4.9512-1.67517,9.885-3.38231,14.67365-5.48251a30.705,30.705,0,0,0,15.57216-14.83658,14.0136,14.0136,0,0,1,1.67154-3.02991c2.4614,3.51982,4.53474,7.26406,6.697,10.95714C469.44365,343.75442,469.93263,344.52691,470.40878,345.30646Z" fill="#495554"/>
      <path d="M379.591,402.00143a23.3852,23.3852,0,0,1,3.48541,3.324c2.32107,2.54965,4.59761,5.13911,6.69739,7.871a81.89837,81.89837,0,0,1,9.9145,16.51032,34.6662,34.6662,0,0,1,1.68989,4.14686,4.227,4.227,0,0,1,.23452,1.41117,32.98953,32.98953,0,0,1-2.70264,3.04733,16.03756,16.03756,0,0,1-10.48459,4.41431c-.34389.0167-.68666.05491-1.02964.0826-.29881-4.0181-.85331-8.00251-1.48352-11.98412-.90079-5.69181-2.09945-11.32057-3.47142-16.91738-.89237-3.64025-1.83693-7.26835-2.74594-10.90479A6.891,6.891,0,0,1,379.591,402.00143Z" fill="#50303a"/>
      <path d="M243.005,104.32824a11.74343,11.74343,0,0,1-2.23678-1.83169c-5.07594-3.95383-11.037-3.65318-15.89892.26661a22.60512,22.60512,0,0,0-5.09819,5.97583c-.81237,1.34-.75989,1.50124.6183,2.40765a11.261,11.261,0,0,0,5.64515,1.53,18.7782,18.7782,0,0,0,7.15431-.96864.8324.8324,0,0,1,.74624-.03795,5.63869,5.63869,0,0,1-1.39979,1.79657,36.26536,36.26536,0,0,0-4.28156,4.97554,9.89852,9.89852,0,0,0-1.69314,7.54846,1.1921,1.1921,0,0,1-.13163.858,5.23178,5.23178,0,0,1-1.84726-3.75967,10.95985,10.95985,0,0,1,2.01834-6.67256c.42386-.69922.91236-1.36139,1.45117-2.15864a22.92921,22.92921,0,0,1-4.49056.23078,8.39846,8.39846,0,0,1-3.76511-1.21138,3.92018,3.92018,0,0,1-2.09968-3.58642c.00883-.33712.00854-.67446.01567-1.01163.00934-.442-.2199-.63731-.64849-.51665a7.01833,7.01833,0,0,1-1.46146.221,7.89866,7.89866,0,0,1-6.31842-2.30971c-.17037-.16681-.36192-.31315-.51639-.44563-.48518.11886-.68706.47911-.97729.72636a6.09026,6.09026,0,0,1-7.28513.52,14.43284,14.43284,0,0,1-4.73166-5.08435,22.78391,22.78391,0,0,1-2.327-5.29986,6.30932,6.30932,0,0,1-.1599-1.71622,13.22572,13.22572,0,0,1,1.88295-3.117c.79979.10009.60852.78347.68592,1.22662a44.6805,44.6805,0,0,0,1.33053,6.22293,11.94529,11.94529,0,0,0,2.91648,5.29589,3.35794,3.35794,0,0,0,4.44228.66608c3.50835-1.70176,4.76859-4.71568,5.02227-8.281a38.16647,38.16647,0,0,0-.99534-10.18848c-.13091-.657-.321-1.336.21993-1.92764l.30631-.06482c.92362-.23571,1.0639.49649,1.29249,1.04025a17.25,17.25,0,0,1,1.27377,5.03251c.35845,3.698.59739,7.41155-.635,11.0101a2.25585,2.25585,0,0,0,1.0569,2.93642c3.525,2.4615,6.46646,1.84859,8.62934-1.84326,3.3221-5.67055,3.08924-11.59175,1.36269-17.63172-.2-.69952-.78176-1.40314-.149-2.16789l2.3411-.034a1.56882,1.56882,0,0,1,.98317,1.17492c1.37872,5.41,1.91857,10.812-.21069,16.37159a25.2421,25.2421,0,0,1,4.56134-2.2721,7.11187,7.11187,0,0,1,2.72879-.62881,2.21754,2.21754,0,0,0,2.43421-1.78716,23.27428,23.27428,0,0,0,1.25651-9.66548c-.02963-.48707-.48534-1.36565.72285-1.22713l2.38753.9365a.78355.78355,0,0,1,.28617.26354l-.0028-.00038a1.13785,1.13785,0,0,1,.36491,1.04808c-.31216,3.2851-.29745,6.62906-1.70634,9.72674-.41456.91146-.24175,1.43336.679,1.97714a18.66433,18.66433,0,0,1,4.86333,4.311C243.61011,103.66,243.22831,103.95424,243.005,104.32824Z" fill="#996750"/>
      <path d="M221.92839,82.983c.29425,1.75658,1.01112,3.40722,1.3227,5.16514.89877,5.07094.64445,9.97418-2.01635,14.57328a8.83246,8.83246,0,0,1-2.21708,2.68433,4.86707,4.86707,0,0,1-5.54592.55806A12.2009,12.2009,0,0,1,210.598,103.928a1.02146,1.02146,0,0,1-.28886-1.27947c1.44895-3.50462,1.32494-7.18074,1.11606-10.835a20.34808,20.34808,0,0,0-1.47693-6.30861c-.16156-.40823-.31524-.82525-.85142-.89824a37.59848,37.59848,0,0,1,5.18552-.99733A50.73328,50.73328,0,0,1,221.92839,82.983Z" fill="#eab492"/>
      <path d="M208.79086,84.67138a10.046,10.046,0,0,0,.46423,3.40555,31.28915,31.28915,0,0,1,.70207,9.15537c-.3052,3.71857-1.87978,6.71672-5.55527,8.38877a3.78544,3.78544,0,0,1-4.3681-.66826,10.80507,10.80507,0,0,1-2.85993-4.6479,35.33093,35.33093,0,0,1-1.76042-7.847c-.03945-.28226.00768-.58281-.24475-.8009,1.56286-2.1658,3.857-3.40959,6.21764-4.50861A36.63026,36.63026,0,0,1,208.79086,84.67138Z" fill="#eab492"/>
      <path d="M167.74023,412.42659a16.82033,16.82033,0,0,1-2.97362,3.56429,51.31578,51.31578,0,0,1-9.26291,7.83267,43.03144,43.03144,0,0,1-12.56356,5.70583A98.88744,98.88744,0,0,1,131.6807,431.881a2.54026,2.54026,0,0,0-.5468.22112,26.23041,26.23041,0,0,1-5.10278-2.82032,1.46627,1.46627,0,0,1,1.26348-.63226,54.6102,54.6102,0,0,0,5.70955-.59459,33.40646,33.40646,0,0,0,14.127-4.68744,73.86621,73.86621,0,0,0,7.30017-5.5901c2.42725-2.00186,4.29811-4.48756,6.62275-6.56372a31.154,31.154,0,0,0,2.50563-2.81908A31.75676,31.75676,0,0,1,167.74023,412.42659Z" fill="#201215"/>
      <path d="M236.74567,84.91475c-.31823.06181-.53245.15727-.46029.56661a21.48181,21.48181,0,0,1-1.532,11.59272c-.1963.51186-.42343.84653-1.029.832-3.18239-.07634-5.82229,1.32689-8.39319,2.91757-.27607.17081-.50864.449-1.00626.36719a22.66353,22.66353,0,0,0,1.54992-5.67431,21.24212,21.24212,0,0,0,.09414-5.185,47.3354,47.3354,0,0,0-1.1059-6.24193,2.76665,2.76665,0,0,0-.5939-1.1408A42.27612,42.27612,0,0,1,236.74567,84.91475Z" fill="#eab492"/>
      <path d="M243.61744,103.17733a10.51375,10.51375,0,0,1-2.38535-1.92049,13.00646,13.00646,0,0,0-3.42031-2.5026c-.51476-.23973-.745-.46765-.47428-1.0925a21.25612,21.25612,0,0,0,1.86047-8.96929,23.54986,23.54986,0,0,1,.21868-2.578,6.1592,6.1592,0,0,1,2.571,1.36556,12.74369,12.74369,0,0,1,3.69543,3.70145,7.94175,7.94175,0,0,1,.752,7.32531A12.77474,12.77474,0,0,1,243.61744,103.17733Z" fill="#eab492"/>
      <path d="M177.48711,424.78271c-.29208-.76262.33817-1.12373.741-1.56882a45.18094,45.18094,0,0,0,6.6611-9.41523,2.05722,2.05722,0,0,0,.37372-1.07368c.90511.49291,1.29615,1.41177,1.87978,2.167,1.00206,1.2967,1.97091,2.61767,2.95369,3.92843a9.792,9.792,0,0,1-8.66563,6.31683A12.43334,12.43334,0,0,1,177.48711,424.78271Z" fill="#04323a"/>
      <path d="M226.66169,253.5458a1.14675,1.14675,0,0,1,.462-.85963,68.51626,68.51626,0,0,1,6.03491-5.49131,63.02813,63.02813,0,0,1,7.93013-5.4744,2.65633,2.65633,0,0,1,1.33631-.54963l-.01567-.01481a87.11862,87.11862,0,0,1-6.46553,6.37288c-1.99518,1.86905-4.08606,3.64154-6.1353,5.456-.43417.38445-.78239.89057-1.43642.96641Z" fill="#51303b"/>
      <path d="M381.38836,187.06135c-.20763.00664-.293-.10112-.28925-.29209Z" fill="#9a6075"/>
      <path d="M239.41937,86.11479a.32975.32975,0,0,1-.28639-.2637A.26859.26859,0,0,1,239.41937,86.11479Z" fill="#eab492"/>
      <path d="M237.01273,316.98664a52.75754,52.75754,0,0,1,3.59555-9.76528,24.761,24.761,0,0,1,2.11088-4.12922,1.02467,1.02467,0,0,1,.80767-.29482c6.023.37538,12.06367.40287,18.08338.80025a113.68374,113.68374,0,0,1,23.1684,4.25427c4.71182,1.319,9.4865,2.43315,14.11192,4.03368a88.4791,88.4791,0,0,1,25.58132,14.44107c2.27859,1.78326,4.3738,3.76571,6.61608,5.58616a2.4056,2.4056,0,0,1,.88163,1.30332,35.7171,35.7171,0,0,1-.9539,5.65617c-1.03089,4.87433-2.162,9.72889-3.28354,14.58469-.53342,2.30957-.56483,2.293-3.07239,2.30532-2.41681.01184-4.83444-.12956-7.24981.03372a137.19734,137.19734,0,0,1-18.77556-1.47321,77.27912,77.27912,0,0,1-21.35072-6.32118c-3.96392-1.86543-7.91334-3.75307-11.77283-5.81972-7.68468-4.11493-14.12925-9.70135-20.05407-15.90351a80.722,80.722,0,0,1-6.65406-7.37436A22.606,22.606,0,0,0,237.01273,316.98664Z" fill="#ecca83"/>
      <path d="M295.98353,407.803a92.652,92.652,0,0,1-6.46426-9.1079c-1.75387-2.55294-3.436-5.15126-5.38089-7.57942a34.7648,34.7648,0,0,0-10.28375-8.98144,107.38375,107.38375,0,0,0-10.982-5.35807c-.14191-.05859-.24258-.14956-.24976-.43569a18.86567,18.86567,0,0,1,8.071.79143,29.11911,29.11911,0,0,1,8.36906,5.06653,56.22885,56.22885,0,0,1,10.95268,13.12078,61.29484,61.29484,0,0,1,5.41758,10.55884,4.94877,4.94877,0,0,1,.54694,1.92794Z" fill="#04323a"/>
      <path d="M200.43205,383.77351a26.94459,26.94459,0,0,1,.417-4.36766,39.2207,39.2207,0,0,0,.49274-4.98675,41.46147,41.46147,0,0,1,.29609-4.44151c.1818-2.59393-.48625-5.16338-.287-7.76027.0422-.55-.526-1.04649-.09063-1.7309a7.33586,7.33586,0,0,1,1.57159,2.59505,26.10043,26.10043,0,0,1,1.533,6.27131,62.22085,62.22085,0,0,1,.53366,8.15935c-.06628,1.81677-.36275,3.6252-.27777,5.452.02422.52092-.19714.816-.77367.81178C202.71706,383.76768,201.58692,383.77351,200.43205,383.77351Z" fill="#04323a"/>
      <path d="M295.9801,407.806c.04108.02123.11991.05033.11722.06248-.02084.09493-.06561.07172-.11381-.06548Z" fill="#04323a"/>
      <path d="M270.94908,266.90376c.00649-.42794.01775-.85587.01785-1.28381a.86786.86786,0,0,1,.34262-.747,16.21914,16.21914,0,0,1,3.5124-2.54563,29.80854,29.80854,0,0,0,8.02532,1.96157c.83243.048.93225.71361,1.03727,1.36246a29.49621,29.49621,0,0,0,1.35438,6.49677,10.24529,10.24529,0,0,0,1.05046,2.06606c1.78867,2.56684,4.07314,3.396,7.0852,2.32466,3.69128-1.31292,6.98992-3.39829,10.3834-5.28788,2.32258-1.29329,4.33965-3.03686,6.68581-4.29678,8.51845-1.48473,16.06662-4.78974,22.02225-11.08849.25665-.27142.48016-.64814.97526-.47735a37.5839,37.5839,0,0,1,1.20091,7.5078,9.25269,9.25269,0,0,1,.03251,2.85877,1.88657,1.88657,0,0,1-.33526,1.36224,53.06813,53.06813,0,0,1-15.36187,17.53563c-.1989.14305-.39755.28651-.59116.43618-1.123.86823-1.11842,1.05392-.04065,1.95007a49.27088,49.27088,0,0,0,9.19138,5.8015c2.05768,1.0533,4.20829,1.91671,6.35167,2.79163.49189.20079,1.06311.28652,1.37035.79412a2.77457,2.77457,0,0,1,.22342,2.0939,19.41245,19.41245,0,0,0-.19,3.71382c.0623,2.44128-.36532,4.85615-.34558,7.29263a.8546.8546,0,0,1-.27674.778c-1.08244.09428-1.831-.62683-2.6823-1.06812a209.75467,209.75467,0,0,0-19.983-9.57747,124.31489,124.31489,0,0,0-32.84931-8.25277,182.61294,182.61294,0,0,0-23.85924-1.23106c-1.23987.037-2.45428.32483-3.69564.34941-.47962.00948-.9918.22086-1.38488-.23782a57.0387,57.0387,0,0,1,4.995-7.46108c1.61989-.73844,3.38951-.46744,5.08181-.64473a79.57063,79.57063,0,0,0,13.93672-2.75383c1.171-.34008,1.21637-.58071.44224-1.60518a20.65846,20.65846,0,0,1-3.911-9.55036C270.68932,267.80111,270.55206,267.31594,270.94908,266.90376Z" fill="#ecca83"/>
      <path d="M250.21583,290.28674a74.1505,74.1505,0,0,1,14.81393-.442c4.143.212,8.28339.5578,12.41451.99823,4.03225.42987,8.042.96713,12.02738,1.69223a123.49875,123.49875,0,0,1,18.645,5.254c9.31141,3.25808,17.97749,7.79213,26.55355,12.51528.09114.27123.319.58166.25061.80719a19.71835,19.71835,0,0,0-.29633,3.71436c-.27178,2.46428-.54131,4.92929-.86207,7.38779-.29608,2.26978-.6549,4.53187-.99227,6.79648-.1545,1.03717-.34922,2.06937-.47321,3.10975a3.76215,3.76215,0,0,1-.32729,1.09574c-2.995-2.52038-5.88536-5.156-9.0004-7.54453-7.96338-6.1062-16.56033-11.12758-26.28184-14.07239-7.74532-2.34616-15.5516-4.52688-23.51456-6.09375a84.26787,84.26787,0,0,0-9.84171-1.33194c-4.051-.31028-8.10854-.4147-12.16238-.61882a81.326,81.326,0,0,1-8.44959-.46236,24.11692,24.11692,0,0,1,2.1252-4.0798c1.5821-2.80919,3.3127-5.5394,4.989-8.29819A3.07142,3.07142,0,0,1,250.21583,290.28674Z" fill="#7b4d60"/>
      <path d="M335.25918,296.42624a56.31119,56.31119,0,0,1-17.42851-9.3478c-.03794-.03076-.07287-.06507-.10959-.09728-1.15968-1.01555-1.16116-1.01751.14139-1.93722a53.33731,53.33731,0,0,0,16.38142-18.53314c.13747-.25507.28689-.50407.4308-.75591.09108.16375.2702.33305.25972.49042a47.98341,47.98341,0,0,0,.3588,5.599c.38142,7.64535.24411,15.29279.25681,22.93975C335.55092,295.33462,335.7744,295.95082,335.25918,296.42624Z" fill="#7b4d60"/>
      <path d="M423.64493,292.14188c.61034,1.62262,1.78652,2.96636,2.39373,4.59052-.25617.58252-.84453.62-1.35475.742a28.9074,28.9074,0,0,0-11.04139,5.32273c-.36971.285-.70049.7133-1.28442.54821-1.36314-2.4582-2.71793-4.92087-4.09382-7.37231a3.58935,3.58935,0,0,1-.21664-2.80043,7.81509,7.81509,0,0,1,4.072-4.74406,20.70923,20.70923,0,0,1,6.06933-2.27623,1.51916,1.51916,0,0,1,1.86356.70584c.91645,1.42952,1.867,2.83838,2.79926,4.25836C423.08945,291.4786,423.23282,291.90787,423.64493,292.14188Z" fill="#cc7b29"/>
      <path d="M412.3581,303.3453a29.7067,29.7067,0,0,1,10.82427-5.8441c.94914-.26613,1.904-.51322,2.85622-.76892a75.47924,75.47924,0,0,1,4.22676,8.13554.94645.94645,0,0,1,.14981.26582l.01733.0213a4.12124,4.12124,0,0,1-1.48828.57922,64.17532,64.17532,0,0,0-11.89569,4.95537,3.32482,3.32482,0,0,1-.54778.18872Q414.42939,307.11175,412.3581,303.3453Z" fill="#495554"/>
      <path d="M333.4413,255.3883a35.54726,35.54726,0,0,1-6.48375,5.62326,39.08777,39.08777,0,0,1-13.0641,5.60014,10.64424,10.64424,0,0,1-3.33151.58549c-.0975-.81019.64043-1.02437,1.11144-1.36239a103.33926,103.33926,0,0,0,13.25553-11.49594c.3393-.34383.75206-.63662.8506-1.14887a.92336.92336,0,0,1,.25435-.53027c1.76557-.74469,2.66429-2.33286,3.78786-3.69891.14825-.18026.18846-.44343.42461-.56774l.55414.29335A18.42451,18.42451,0,0,1,333.4413,255.3883Z" fill="#af945d"/>
      <path d="M412.61234,248.38853a4.76787,4.76787,0,0,1,.30666,1.45409c-2.49892.91313-5.13272,1.34219-7.69837,2.01574a13.60332,13.60332,0,0,1-3.35544.7389,28.11259,28.11259,0,0,1,9.63146-4.45971A1.35038,1.35038,0,0,1,412.61234,248.38853Z" fill="#51313c"/>
      <path d="M238.52553,176.94214a7.96952,7.96952,0,0,0,2.20233-1.14359,3.73631,3.73631,0,0,1,1.65919-.5648c1.08887-.03812,2.16116-.24452,3.23458-.28975,2.56359-.108,5.10583-.44693,7.65148-.67963a74.14455,74.14455,0,0,0,7.47955-.7758,1.90543,1.90543,0,0,1,.29625-.02c4.052-.142,8.11726-.6028,12.15219-.22121,2.00831.19,4.02811.123,6.04212.413,1.53465.221,3.14513.26469,4.70488.42919,1.85977.19614,3.73062.19083,5.59057.45051a43.45334,43.45334,0,0,0,4.9.08475c5.63492.13818,10.93192-1.311,16.14454-3.19144a120.5554,120.5554,0,0,0,13.4326-6.1334c2.239-1.13316,4.46017-2.30427,6.73112-3.37449a69.83316,69.83316,0,0,1,15.818-5.66067c.67923-.13794,1.36585-.5117,2.0933-.15287-.12318.54887-.61969.55394-1.03685.66629-6.28025,1.69141-11.59629,5.0839-16.659,8.92311a1.65731,1.65731,0,0,0-.6621.75733c-1.65094,1.57856-3.51632,2.91525-5.24923,4.40091-1.14123.97841-2.32888,1.906-3.42124,2.93819a16.15567,16.15567,0,0,0-3.19662,1.79378c-.73368.66115-1.19208,1.5357-1.931,2.1817a45.79551,45.79551,0,0,1-15.68594,8.43031,21.87784,21.87784,0,0,1-5.46216,1.18307,13.17251,13.17251,0,0,0-3.79918.32879c-2.4978.26345-5.00351.289-7.50474.42646-.6178.034-1.17854.03725-1.41514.71869-.47216-.12865-.87795-.4668-1.39175-.45424-4.245.10366-8.46147-.42291-12.69685-.534-5.29139-.49231-10.58247-.98708-15.9061-.9736-.6158.00732-1.23219.04114-1.8475-.00478-1.859.07061-3.74106-.18479-5.56561.37354-1.46414.17848-2.9182.4242-4.37575.64877a2.29428,2.29428,0,0,1-1.974-.23611,2.47832,2.47832,0,0,0-1.16417.06751,6.86913,6.86913,0,0,1-4.56963-.73025c-1.06282-.55669-1.16469-.97065-.76842-2.1221a15.92485,15.92485,0,0,1,5.53738-7.35152C238.14421,177.36242,238.41225,177.23143,238.52553,176.94214Z" fill="#733d26"/>
      <path d="M326.038,252.76758l-.00209.53555a40.77526,40.77526,0,0,1-5.05329,4.664,149.285,149.285,0,0,1-13.08623,10.4621,61.63353,61.63353,0,0,1-13.78726,7.34279c-4.36854,1.562-6.71192-.0474-8.44758-3.51109a18.77369,18.77369,0,0,1-1.55245-6.44c-.11885-1.03343.59626-1.39586,1.434-1.48537a22.6826,22.6826,0,0,0,8.05811-2.82148,10.4881,10.4881,0,0,0,1.65862-.80395c.13083-.03677.2395-.12361.37-.16345-.176-.06318-.23846.14875-.394.15366a18.84467,18.84467,0,0,1-2.1423,1.02456c-5.27277,2.35739-10.65822,2.97882-16.21328,1.0078a2.89553,2.89553,0,0,1-1.70489-1.05887c-.68438-.45852-1.38118-.90059-2.05087-1.3786-2.20717-1.5754-2.66028-3.39069-1.382-5.7411a29.504,29.504,0,0,1,3.55837-4.73237,1.48444,1.48444,0,0,1,1.27654-.5788,1.32706,1.32706,0,0,0,.97975-.22387c.50249-.624,1.28019-.40089,1.92489-.57777a64.34971,64.34971,0,0,1,17.15961-1.92,72.46923,72.46923,0,0,1,21.74149,3.33484q3.03732.9497,6.05166,1.96826C325.03313,252.02525,325.69527,252.14622,326.038,252.76758Z" fill="#eab492"/>
      <path d="M276.69918,248.74091c-3.19959.83286-6.32949.22707-9.44886-.45738a6.24394,6.24394,0,0,1-2.15741-.92486,2.19174,2.19174,0,0,1-.91347-2.993,9.89511,9.89511,0,0,1,3.447-3.689c1.79144-1.34784,3.72632-2.514,5.54732-3.82683.64686-.46631,1.33423-.214,1.98521-.37468.79529-.56716,1.71473-.30356,2.58327-.34981.73875-.03931,1.48145-.008,2.2224-.00818,2.75532-.00068,3.76255-1.32621,3.08381-4.00171-.13457-.53041-.4154-.56633-.86007-.46287-.65567.15255-1.31574.50594-1.97655.0095-.312-.1152-.68.06443-1.02412-.21511.73472-.9819.97248-2.20611,1.63344-3.23782a.9384.9384,0,0,1,.60285-.38544,129.73693,129.73693,0,0,0,13.56966-2.86847.8855.8855,0,0,1,.79807.42427,6.43414,6.43414,0,0,0,.02662,4.73341c.23083.68317.5607.80586,1.19167.39955a119.70759,119.70759,0,0,1,11.92614-6.49525,2.71842,2.71842,0,0,0-1.56625-.39967,24.6178,24.6178,0,0,0-7.65782.59652,2.368,2.368,0,0,1-1.3155.10487.54358.54358,0,0,1-.40441-.46057c.55589-.86209,1.55567-1.134,2.36458-1.65167a35.106,35.106,0,0,0,5.97441-4.1686,1.78071,1.78071,0,0,1,1.59591-.57158,38.08066,38.08066,0,0,1,8.996,5.8c.56282.46844,1.12008.94657,1.67294,1.42766.303.26362.55968.59644.37781,1.01372a.92356.92356,0,0,1-.87834.44378,32.50123,32.50123,0,0,0-4.26091.57165c-5.25494,1.06873-9.5377,3.89075-13.55366,7.17007-3.71228,3.03134-7.02441,6.5046-10.87685,9.38058a30.27622,30.27622,0,0,1-11.834,5.47914A1.40192,1.40192,0,0,1,276.69918,248.74091Z" fill="#eab492"/>
      <path d="M276.69918,248.74091a35.8529,35.8529,0,0,0,16.04056-8.64655c2.92821-2.66047,5.77569-5.41123,8.95246-7.80292a31.40462,31.40462,0,0,1,11.0579-5.72125,26.69205,26.69205,0,0,1,6.03831-.70794c.093-.6397-.43171-.8544-.76013-1.15941a46.98827,46.98827,0,0,0-10.1529-6.97667c-.35021-.21774-.46528-.48658-.15477-.81381a.8.8,0,0,1,1.06651-.08053,21.89971,21.89971,0,0,1,10.683,6.97778,43.502,43.502,0,0,1,9.81519,19.33328c.415,1.72844.6456,3.49874.96105,5.25a2.08005,2.08005,0,0,1-.5019,1.43758q-1.26786,1.28637-2.4249,2.67432a1.04235,1.04235,0,0,1-1.28175.26274c-5.62981-1.83143-11.222-3.79452-17.10149-4.77777a75.73549,75.73549,0,0,0-17.46459-.87092c-1.38361.09-2.76878.26494-4.15089.2451-2.58172-.0371-4.9055,1.09077-7.4007,1.42771-.7874.10635-1.57379.16674-2.363.22743C277.282,248.8945,276.92571,249.0069,276.69918,248.74091Z" fill="#381534"/>
      <path d="M252.54535,186.48761a94.77784,94.77784,0,0,1,10.497.48569c1.42582.12226,2.86143.10325,4.28267.31976a2.51463,2.51463,0,0,1,1.23132.40572c.87335.25347,1.23939,1.03455,1.719,1.6559.75916.98363,1.51284,1.97411,2.24263,2.97922.31428.43284.85453.83944.50817,1.50312a16.49467,16.49467,0,0,1-3.05012,1.03123,11.32788,11.32788,0,0,0-5.04249,3.59621,5.86439,5.86439,0,0,0-1.30907,3.59043,1.68376,1.68376,0,0,1-.3193,1.2218c-1.10314-.29252-.67045-1.45374-1.22872-2.05479a10.43948,10.43948,0,0,0-2.10648-1.1467,6.62529,6.62529,0,0,1-3.42144-2.38358c-2.58748-2.74316-4.68223-5.72889-4.40416-9.71574C252.1809,187.45214,252.1151,186.90847,252.54535,186.48761Z" fill="#eab492"/>
      <path d="M270.94908,266.90376a25.06072,25.06072,0,0,0,1.58987,6.41535,18.7314,18.7314,0,0,0,3.51928,5.55735c-.12969.57758-.59178.599-.93649.70458a71.21489,71.21489,0,0,1-12.24558,2.68864,51.04366,51.04366,0,0,1-7.66533.556c.53632-1.53344,1.75438-2.63105,2.70628-3.88555a80.69312,80.69312,0,0,1,6.29262-7.39453c1.17859-1.2171,2.34491-2.45085,3.54-3.65625a12.39876,12.39876,0,0,1,2.77937-2.24769C270.855,265.9979,270.4997,266.60826,270.94908,266.90376Z" fill="#7b4d60"/>
      <path d="M293.8769,261.67905a23.52723,23.52723,0,0,1-6.36135,2.725c-.77805.20829-1.5753.13084-2.34361.34834-.4965.14054-.8078.33718-.73651.88574a18.24539,18.24539,0,0,0,1.96016,7.19905,6.31012,6.31012,0,0,0,3.27523,3.00659,5.64041,5.64041,0,0,0,3.48148-.1779,41.48171,41.48171,0,0,0,9.25215-4.23517,80.6292,80.6292,0,0,0,12.57792-8.92589q5.51325-4.616,11.05347-9.20161c.33335.36661-.077.51132-.24894.67639a118.71081,118.71081,0,0,1-9.37684,8.615c-1.81411,1.40272-3.60115,2.83626-5.47621,4.16314a2.2686,2.2686,0,0,0-.37191.43943,92.15333,92.15333,0,0,1-9.05016,5.77144c-2.137,1.11272-4.26931,2.23408-6.41366,3.33323a10.02971,10.02971,0,0,1-2.93684.98271,5.81523,5.81523,0,0,1-5.93133-2.45337,12.47871,12.47871,0,0,1-2.08329-4.8987,29.88661,29.88661,0,0,1-.62383-4.27212c-.06512-.8161-.38149-1.02789-1.17151-1.07984a18.02938,18.02938,0,0,1-6.16614-1.42563,2.99547,2.99547,0,0,1-1.363-.82783q.1761-.32631.35293-.65313a34.50667,34.50667,0,0,0,4.78465,1.512,21.24042,21.24042,0,0,0,8.09683-.19474c1.797-.38143,3.48829-1.0592,5.23174-1.58909C293.60105,261.26038,293.90469,261.13677,293.8769,261.67905Z" fill="#9b6950"/>
      <path d="M308.78712,216.83183c-.50752.10194-1.31047-.0807-.91163.89439a1.38073,1.38073,0,0,0-1.178.47767c-2.5106,2.38384-5.57714,3.97234-8.58376,5.64564a4.31257,4.31257,0,0,1-3.04084,1.38226,89.51885,89.51885,0,0,1-12.63016,2.856,14.97556,14.97556,0,0,1-1.62167.1208,3.56357,3.56357,0,0,1,.25918-2.02934,55.48764,55.48764,0,0,0,14.41893-3.01517,27.25334,27.25334,0,0,0,7.72407-4.48519,40.54713,40.54713,0,0,0,3.8819-3.75081c1.88722-1.99989,1.85088-4.61167-.242-6.69567a14.13912,14.13912,0,0,0-1.639-1.22794c-.06989-.26579-.00823-.40494.30625-.30071a5.77648,5.77648,0,0,1,4.64164,4.641,4.81267,4.81267,0,0,1-.5622,3.0522,14.47671,14.47671,0,0,1-.88805,1.64964A.62905.62905,0,0,0,308.78712,216.83183Z" fill="#996750"/>
      <path d="M280.21178,231.662a15.32267,15.32267,0,0,0,3.2397-.83929,17.64794,17.64794,0,0,1-.27187,5.17006c-.09392.60871-.64676.49217-1.0647.51041a65.83812,65.83812,0,0,1-6.95572-.028c-.16577-.25963-.58363-.12275-.72605-.44411,1.29741-1.15468,2.871-2.04664,3.82927-3.52884C278.75454,231.741,279.64565,232.11281,280.21178,231.662Z" fill="#502f22"/>
      <path d="M262.07644,201.2219c.52868.07123.88405.2924.87885.8812a1.60618,1.60618,0,0,0,.223,1.19224,8.53,8.53,0,0,0,2.73475,2.89494c.75086.51851,1.637.0778,2.64653.37471a13.0133,13.0133,0,0,1-5.30623,1.90034,4.3317,4.3317,0,0,0-.45637-.55572C260.47811,205.86587,260.24294,203.71423,262.07644,201.2219Z" fill="#9a6851"/>
      <path d="M242.425,241.17083c.01817-.04117.0431-.11952.05344-.11774.09624.01658.07216.05681-.06907.10291Z" fill="#51303b"/>
      <path d="M259.67707,200.28759a.30226.30226,0,0,1,.29291-.21175A.24277.24277,0,0,1,259.67707,200.28759Z" fill="#eab492"/>
      <path d="M367.12944,185.91874c.27759,5.37618-.98914,10.50347-2.64871,15.56862a74.93224,74.93224,0,0,1-9.81,20.15881,47.774,47.774,0,0,1-13.10753,13.031,2.10848,2.10848,0,0,1-.91162.46045,15.84408,15.84408,0,0,1,1.682-3.03918,110.50839,110.50839,0,0,0,9.4715-21.10637,89.80288,89.80288,0,0,0,3.41078-14.12085,56.19686,56.19686,0,0,0,.90242-8.13491c.00571-1.01446.26507-1.18019,1.28307-.80065a8.918,8.918,0,0,0,7.95666-.72721A20.13791,20.13791,0,0,1,367.12944,185.91874Z" fill="#ba886c"/>
      <path d="M312.62252,188.7983a23.32545,23.32545,0,0,1,5.00192-2.45514,15.11857,15.11857,0,0,1,6.883-.1751,16.496,16.496,0,0,1,1.87587.81787c2.65367.53927,4.17341,4.12413,2.80805,6.626a5.77339,5.77339,0,0,1-1.96016,2.1386,25.40947,25.40947,0,0,1-13.59077,4.42372,4.67048,4.67048,0,0,1-3.2583-1.18361,1.81943,1.81943,0,0,1-.75838-1.763,7.57167,7.57167,0,0,1,.03847-4.38766c.06815-1.2993,1.49629-1.763,1.87887-2.89624C311.7015,189.46877,311.86847,188.82287,312.62252,188.7983Z" fill="#fffbe4"/>
      <path d="M312.62252,188.7983a15.03738,15.03738,0,0,1-2.96023,4.04165c-3.369,2.065-7.06228,2.3-10.8778,1.80459-2.66394-.34589-4.27856-2.0665-3.82008-5.296.04057-.28575.10919-.56773.16477-.85147.20783-.27147.03145-.63243.22365-.90754a.28755.28755,0,0,1,.00131-.2029,12.00607,12.00607,0,0,1,3.36426-.95769,43.48752,43.48752,0,0,0,14.2673-6.52347c.84538-.58106,1.65494-1.21118,2.49353-1.80188.29714-.20929.571-.54865,1.023-.33031a22.77091,22.77091,0,0,0-2.87371,7.30433C313.35119,186.33,312.96138,187.55883,312.62252,188.7983Z" fill="#4f2f22"/>
      <path d="M309.62378,197.22764a4.02593,4.02593,0,0,0,3.90816,2.58417,12.58358,12.58358,0,0,0,3.388-.25809,34.00323,34.00323,0,0,0,8.569-3.14585,10.442,10.442,0,0,0,2.17526-1.49411,4.31657,4.31657,0,0,0,.68911-6.20947,5.64234,5.64234,0,0,0-1.9699-1.71824c.03918-.19169.09641-.43312.325-.41416a12.85016,12.85016,0,0,1,5.56555,1.23775,4.71262,4.71262,0,0,1,1.85134,6.82307,14.82181,14.82181,0,0,1-5.892,5.53516,23.15,23.15,0,0,1-9.94894,3.02246,10.833,10.833,0,0,1-7.18989-1.70968A3.51513,3.51513,0,0,1,309.62378,197.22764Z" fill="#996750"/>
      <path d="M265.913,206.19028a3.09566,3.09566,0,0,1-2.7346-2.89478,7.38811,7.38811,0,0,1,2.4792-6.23646,13.09814,13.09814,0,0,1,5.67385-3.01369c.57451-.13733,1.16045-.2294,1.74113-.34225.14223-.05252.32587-.078.41184.02373a27.03161,27.03161,0,0,0,4.65578,3.7887c.181.24.53426.37552.18.80486a29.12437,29.12437,0,0,1-3.48848,3.90387,44.78634,44.78634,0,0,1-3.96784,3.00023,4.91992,4.91992,0,0,1-3.17521.94328C267.10006,206.12864,266.50512,206.17992,265.913,206.19028Z" fill="#fffbe4"/>
      <path d="M278.14024,197.51553a8.88431,8.88431,0,0,1-3.9639-2.66191c-.36465-.38633-.73555-.76708-1.10363-1.15046q-2.25817-3.00225-4.51626-6.00437a1.83688,1.83688,0,0,1,1.93284-.245,13.83329,13.83329,0,0,0,1.89536.19232,79.89525,79.89525,0,0,0,9.26857.27671c.72734-.00629.965.31784.98171.93772a25.9187,25.9187,0,0,1-3.37928,8.15692C278.97861,197.48516,278.581,197.49761,278.14024,197.51553Z" fill="#4f2f22"/>
      <path d="M368.04062,160.99888a23.36223,23.36223,0,0,0-1.55182-2.791,7.07253,7.07253,0,0,0-1.7275-1.77353,3.48585,3.48585,0,0,0-3.91709-.2185,9.304,9.304,0,0,0-4.59048,6.11671,3.60285,3.60285,0,0,0,.01993,1.43038c.13963.81273.47871,1.31565,1.43642,1.31378a3.35808,3.35808,0,0,1,1.93617.65089,3.53946,3.53946,0,0,1,.87228,5.52193,8.0812,8.0812,0,0,1-2.68489,2.24224c-.49941.2643-.57256.51742-.275,1.01812a4.69029,4.69029,0,0,0,5.54124,2.30668c1.04929-.26586,2.05806-.68384,3.08314-1.03851a6.2965,6.2965,0,0,1,1.86579-.49861c-1.78014,2.35536-3.83141,3.85154-6.81327,3.696a7.03589,7.03589,0,0,1-6.322-4.10789c-.56989-1.13773-.562-1.18381.57742-1.75823a14.01231,14.01231,0,0,0,3.42961-1.98941,2.41219,2.41219,0,0,0-.11495-3.89538,4.09994,4.09994,0,0,0-.86525-.5531,5.49045,5.49045,0,0,0-1.37369-.52831c-1.46249-.24569-1.8778-1.22-2.00007-2.47582-.37351-3.836,2.69515-8.133,6.53866-9.13021a5.20272,5.20272,0,0,1,5.91026,2.23962,7.80431,7.80431,0,0,1,1.297,3.34641C368.37672,160.46053,368.73319,160.88364,368.04062,160.99888Z" fill="#391534"/>
      <path d="M321.6298,173.79779c-.44251-.42082.05858-.59761.26142-.76543,2.453-2.02946,4.92724-4.03451,7.38552-6.05794a1.96231,1.96231,0,0,1,1.02344-.51562c3.06073,1.975,4.29165,4.92991,4.6353,8.321a12.07948,12.07948,0,0,1-.21918,4.1152,9.117,9.117,0,0,1-1.7481-1.48865,15.63154,15.63154,0,0,0-6.92793-3.74353A10.90732,10.90732,0,0,0,321.6298,173.79779Z" fill="#4f2f22"/>
      <path d="M368.04062,160.99888c.32088-.22429.19379-.58.27186-.87565a2.78659,2.78659,0,0,1,.17067,1.95149A2.28057,2.28057,0,0,1,368.04062,160.99888Z" fill="#5a3247"/>
      <path d="M305.53036,206.7038l-.3064.30082q-.45927-.1803-.91886-.3604C304.73693,206.45921,305.15485,206.3131,305.53036,206.7038Z" fill="#b27f63"/>
      <path d="M295.35283,187.58956c.04434.33029.09557.66218-.22369.90764A.96563.96563,0,0,1,295.35283,187.58956Z" fill="#733d26"/>
      <path d="M430.41516,305.13364a.1892.1892,0,0,1-.15021-.26681A.1892.1892,0,0,1,430.41516,305.13364Z" fill="#eab492"/>
      <path d="M250.84889,186.50934a24.46518,24.46518,0,0,0-2.852,6.16647,23.83308,23.83308,0,0,1-2.93539-5.57013,2.83533,2.83533,0,0,1,2.00917-.622C248.33008,186.489,249.58948,186.50045,250.84889,186.50934Z" fill="#503024"/>
      <path d="M293.8769,261.67905c-.126-.23316-.35846-.25239-.58845-.27681a8.55439,8.55439,0,0,1,2.10316-.89459q.12837.11074.08427.22-.04386.10885-.08725.1089A6.51332,6.51332,0,0,1,293.8769,261.67905Z" fill="#af7c61"/>
      <path d="M295.38861,260.83657q.00142-.16414.00291-.3286a1.26036,1.26036,0,0,1,1.01687-.43812C296.21005,260.59163,295.7264,260.6196,295.38861,260.83657Z" fill="#c99577"/>
      <path d="M298.43421,224.1509a25.0199,25.0199,0,0,1,8.78873-.93935,5.765,5.765,0,0,1,2.802.74305,102.56416,102.56416,0,0,0-13.95431,7.65307,10.54981,10.54981,0,0,1-1.22548-4.77115c-.05424-.62863.54626-.871.84287-1.29287A4.68128,4.68128,0,0,1,298.43421,224.1509Z" fill="#4f2f22"/>
      <path d="M298.43421,224.1509l-2.74615,1.39275c-.12728-.24884-.37028-.28184-.61508-.31174q1.51992-.69154,3.04037-1.38263Q298.27416,224.00035,298.43421,224.1509Z" fill="#c99679"/>
      <path d="M316.84635,247.27375c-1.92468-.33045-3.70668-.667-5.4995-.93557-1.7579-.26338-3.52587-.46457-5.29135-.67815-.54412-.06581-.90352-.1779-.86038-.864.26545-4.22092.216-8.46058.8509-12.66029a1.768,1.768,0,0,1,.86558-1.39727,22.758,22.758,0,0,1,8.14324-3.332c.34015-.058.68724-.07677,1.02841-.13008.63107-.09862.9003.118.87425.77284-.20654,5.19339.277,10.38324.0989,15.57668C317.01557,244.81667,316.92087,246.00571,316.84635,247.27375Z" fill="#fffbe4"/>
      <path d="M327.81218,250.78819a66.597,66.597,0,0,0-7.32722-2.4989.72621.72621,0,0,1-.62707-.81362c.07934-6.30914-.35622-12.61534-.11987-18.92587.00541-.14444,0-.28988.016-.43314.0251-.22595-.036-.51033.28074-.58842a.687.687,0,0,1,.68008.1772,4.21416,4.21416,0,0,1,.46242.5616c4.28622,6.343,6.81006,13.22385,6.72871,20.89578C327.90088,249.64137,327.852,250.11946,327.81218,250.78819Z" fill="#fffbe4"/>
      <path d="M288.69351,245.29006c5.28067-3.72045,9.73965-8.36485,15.034-12.35747a26.02207,26.02207,0,0,1-.261,4.65321c-.26187,2.244-.48886,4.492-.76971,6.73363-.12464.99477-.16806.99346-1.19025.959C297.25515,245.135,293.00453,245.06342,288.69351,245.29006Z" fill="#fffbe4"/>
      <path d="M312.96945,192.65439a2.84568,2.84568,0,1,1,5.64946.10406,2.88612,2.88612,0,0,1-2.87036,3.032A2.94367,2.94367,0,0,1,312.96945,192.65439Z" fill="#37192e"/>
      <path d="M273.66,198.6845a3.12892,3.12892,0,0,1-.57394,1.9218,2.64418,2.64418,0,0,1-4.46183.04885,3.28129,3.28129,0,0,1-.21929-3.55938,2.672,2.672,0,0,1,4.8379-.05461A2.99656,2.99656,0,0,1,273.66,198.6845Z" fill="#37192e"/>
    </g>
  </g>
</svg>
