<svg xmlns="http://www.w3.org/2000/svg" width="600" height="600" viewBox="0 0 600 600">
  <title>character-wendel-and-sally-full</title>
  <g id="Background">
    <path d="M440,119.00754C418.66905-42.0739,123.95625-18.056,49.94858,64.31377c-53.42372,59.46007-5.99327,214.9244,35.19622,254.98206-144.16321,160.23064-103.71249,320.46127,109.597,240.346,43.21082,40.05766,257.5083,67.79681,353.56027-4.283,55.8782-41.93242-7.68622-146.83383-7.68622-146.83383C600,317.80948,540,98.97871,440,119.00754Z" fill="#89b9da"/>
    <g>
      <g>
        <path d="M270.79905,109.19039s4.4525-10.714-12.18848-16.6426-4.83844,29.998,3.56482,33.63913c0,0,22.07558-5.73025,26.32394-15.86959S280.32763,95.10578,270.79905,109.19039Z" fill="#f3859b"/>
        <path d="M309.70906,112.65713s3.92793-5.79686,12.42395.65484-13.52216,12.37379-18.1388,9.33009c0,0-4.41676-13.05781-.711-18.56127S313.65641,103.17833,309.70906,112.65713Z" fill="#f3859b"/>
        <path d="M315.51482,135.80245c-2.16855-1.96449-6.6198-2.74614-9.30309-2.1059a5.83186,5.83186,0,0,0-1.37721.54465,9.31014,9.31014,0,0,0-7.12113-8.29415,6.12626,6.12626,0,0,0-7.80443,6.90842c1.00356,5.56592,5.52416,10.06092,8.16128,14.855a37.15028,37.15028,0,0,0,3.96957,6.40417C305.50192,151.11775,321.70708,141.412,315.51482,135.80245Z" fill="#f3859b"/>
        <path d="M250.74813,95.57311s-2.37978,8.21552,4.6231,22.47118c1.45892,2.96991,3.695,6.27967,6.80416,8.14263,0,0-10.95433-12.53441-8.50752-27.30776,0,0,1.35908-5.34225,4.9427-6.33137C258.61057,92.54779,252.68746,90.1139,250.74813,95.57311Z" fill="#ab477e" opacity="0.5"/>
        <path d="M270.79905,109.19039s9.18835-13.12686,16.54975-7.15943C287.3488,102.031,279.58284,100.23529,270.79905,109.19039Z" fill="#ab477e" opacity="0.5"/>
        <path d="M300.811,127.21963s-4.57775-2.27828-6.62288.44582-3.09156,6.883.66506,13.29247c0,0,6.89854,11.566,7.18659,13.15674,0,0-7.6096-12.87585-8.68921-13.47627,0,0-5.21877-7.14623-2.68445-11.854C290.66615,128.78441,294.31224,123.07008,300.811,127.21963Z" fill="#ab477e" opacity="0.5"/>
        <path d="M304.83452,134.2412s.398,1.45907.13227,1.90387c0,0,5.62876-3.71321,9.83868-.7028A10.53682,10.53682,0,0,0,304.83452,134.2412Z" fill="#ab477e" opacity="0.5"/>
        <path d="M303.99421,122.64206s-4.37072-12.64839-.711-18.56127a3.914,3.914,0,0,1,4.82493-2.05959S301.05806,102.67008,303.99421,122.64206Z" fill="#ab477e" opacity="0.5"/>
        <path d="M309.70906,112.65713l-.31627,1.85533s5.34853-6.70814,12.74022-1.20049C322.133,113.312,315.16516,107.14824,309.70906,112.65713Z" fill="#ab477e" opacity="0.5"/>
        <path d="M277.80351,116.78053s5.09282-3.54031,6.49073-7.05494l1.84115,2.09574S281.06387,116.42275,277.80351,116.78053Z" fill="#fff" opacity="0.5"/>
        <circle cx="286.69321" cy="107.51594" r="1.32057" fill="#fff" opacity="0.5"/>
        <path d="M314.11485,120.779s5.76358-1.95783,5.98473-3.27068l.48352,1.40018A9.45812,9.45812,0,0,1,314.11485,120.779Z" fill="#fff" opacity="0.5"/>
        <circle cx="321.86055" cy="117.15335" r="0.84778" fill="#fff" opacity="0.5"/>
        <path d="M303.58258,136.32628s-.34353-4.49221-1.81948-5.34174c0,0-1.29454.91449-1.50973.83783S302.93906,133.58841,303.58258,136.32628Z" fill="#fff" opacity="0.5"/>
        <circle cx="299.23191" cy="129.92092" r="1.14281" fill="#fff" opacity="0.5"/>
      </g>
      <path d="M262.06819,75.64606a6.06173,6.06173,0,0,0-4.65082,1.37061,2.97046,2.97046,0,0,0-.47686.58313,4.72411,4.72411,0,0,0-5.2113-1.91761,3.11809,3.11809,0,0,0-1.75783,5.0014c1.821,2.22246,4.93887,3.09782,7.29441,4.57276a18.8446,18.8446,0,0,0,3.345,1.85955C261.40733,84.92731,266.20366,76.602,262.06819,75.64606Z" fill="#f3859b"/>
      <path d="M262.06819,75.64606a6.06173,6.06173,0,0,0-4.65082,1.37061,2.97046,2.97046,0,0,0-.47686.58313,4.72411,4.72411,0,0,0-5.2113-1.91761,3.11809,3.11809,0,0,0-1.75783,5.0014c1.821,2.22246,4.93887,3.09782,7.29441,4.57276a18.8446,18.8446,0,0,0,3.345,1.85955C261.40733,84.92731,266.20366,76.602,262.06819,75.64606Z" fill="#ab477e" opacity="0.5"/>
      <path d="M254.42522,68.53319A9.61845,9.61845,0,0,0,255.633,66.82c.79718-1.27829,2.19963-2.50252,2.46693-3.9608.21751-1.18666-1.17794-2.07089-2.56262-1.69652a2.63555,2.63555,0,0,0-2.19752,2.24364,2.13508,2.13508,0,0,0-.44571-.1242,4.52693,4.52693,0,0,0-2.955.66366C248.01277,65.48045,253.28908,67.7982,254.42522,68.53319Z" fill="#f3859b"/>
    </g>
    <g>
      <path d="M398.90805,209.968a23.64178,23.64178,0,0,0-3.40607,3.06919,15.9735,15.9735,0,0,0-2.93181,3.1964,31.60855,31.60855,0,0,0-5.10193-3.1646,16.97174,16.97174,0,0,1,4.74264-1.81288C394.43848,210.74724,396.59422,210.31788,398.90805,209.968Z" fill="#c0bfc1"/>
      <path d="M387.22392,212.62374c3.29111-1.8765,9.21221-2.98967,12.77638-3.21231-1.40842,1.73338-7.73194,6.47233-6.65406,7.47419-.23-.20674-.48864-.42937-.77607-.652a15.9735,15.9735,0,0,1,2.93181-3.1964,23.64178,23.64178,0,0,1,3.40607-3.06919c-2.31383.34986-4.46957.77922-6.69717,1.28811a16.97174,16.97174,0,0,0-4.74264,1.81288c-.14371-.07951-.28743-.14312-.43115-.22263l.01438-.04771c.01437,0,.05748-.04771.14371-.14312Z" fill="#686871"/>
      <path d="M388.79043,208.74353c-.44552.92234-1.27907,2.46489-2.06951,3.94382-1.95454-.97005-4.1534-1.94011-6.496-2.87835.77606-.46118,1.5665-1.145,2.29945-1.60616.91979-.57249,1.76771-1.2563,2.67313-1.81289,1.78208-1.09727,3.66476-1.73337,5.43247-2.68752A42.34355,42.34355,0,0,1,388.79043,208.74353Z" fill="#c0bfc1"/>
      <path d="M391.73661,203.03452c-1.59525,3.19641-2.5294,6.72677-4.51269,9.58922-.01437,0-.02874.0159-.04311.0159a1.63307,1.63307,0,0,0-.12934.159l-.01438.04771c-.115-.04771-.21557-.11132-.31617-.159.79044-1.47893,1.624-3.02148,2.06951-3.94382a42.34355,42.34355,0,0,0,1.83957-5.0411c-1.76771.95415-3.65039,1.59025-5.43247,2.68752-.90542.55659-1.75334,1.2404-2.67313,1.81289-.733.46117-1.52339,1.145-2.29945,1.60616-.22995-.09542-.47427-.19083-.70421-.28625C383.3867,207.01015,387.78442,203.82965,391.73661,203.03452Z" fill="#686871"/>
      <path d="M379.7938,200.14026a40.5496,40.5496,0,0,1-1.66711,5.057c-.35929,1.09728-.8623,2.21046-1.2647,3.32363-1.96892-.74742-4.02406-1.463-6.09357-2.16274.66109-.41347,1.30782-.986,1.9258-1.38352a18.80829,18.80829,0,0,0,2.25634-1.68567A18.65487,18.65487,0,0,1,379.7938,200.14026Z" fill="#c0bfc1"/>
      <path d="M386.20354,225.10722c-2.91744,2.30587-10.017,6.9494-11.77036,6.9494,0,0,1.19285-2.942,1.71022-4.071.54613-1.19269,1.32219-2.68753,1.91143-4.02334A47.46286,47.46286,0,0,0,386.20354,225.10722Z" fill="#c0bfc1"/>
      <path d="M373.74334,232.5178c1.10662-2.942,2.64438-5.77262,3.82286-8.66688.15808.04771.33054.07951.48863.11132-.58924,1.33581-1.3653,2.83065-1.91143,4.02334-.51737,1.12908-1.71022,4.071-1.71022,4.071,1.75334,0,8.85292-4.64353,11.77036-6.9494q.75452.02385,1.509,0C383.81785,227.28587,378.05483,232.29516,373.74334,232.5178Z" fill="#686871"/>
      <path d="M374.95056,203.289a18.80829,18.80829,0,0,1-2.25634,1.68567c-.618.39756-1.26471.97005-1.9258,1.38352a3.88736,3.88736,0,0,1-.5605-.19083,70.50556,70.50556,0,0,1,10.10325-6.88579c-.07185,3.11689-1.624,6.40871-2.55814,9.57331-.28744-.11131-.58924-.22263-.891-.33395.4024-1.11317.90541-2.22635,1.2647-3.32363a40.5496,40.5496,0,0,0,1.66711-5.057A18.65487,18.65487,0,0,0,374.95056,203.289Z" fill="#686871"/>
      <path d="M366.60065,229.44861c-.41678.22263-3.31985,2.03552-3.59291,1.84469.15809-.82693,2.127-5.29554,2.515-6.18608a12.86239,12.86239,0,0,1,1.96891-3.419c1.60962.39756,2.90307.68381,3.80848.84283,1.4659.23854,3.37733.69971,5.49,1.16089-2.28509.62019-4.51269,2.51259-6.52472,3.73709A33.58218,33.58218,0,0,1,366.60065,229.44861Z" fill="#c0bfc1"/>
      <path d="M369.08694,197.46864c-.2012.57249-.87667,3.97563-1.63837,7.80814-2.41443-.77923-4.82886-1.51074-7.17144-2.19455,1.09225-.73152,3.248-2.14684,4.369-2.83065A36.12166,36.12166,0,0,1,369.08694,197.46864Z" fill="#c0bfc1"/>
      <path d="M369.08694,197.46864a36.12166,36.12166,0,0,0-4.44083,2.78294c-1.121.68381-3.27673,2.09913-4.369,2.83065-.24431-.07951-.48863-.159-.733-.22264a104.35807,104.35807,0,0,1,10.26134-6.21788c-.57487,2.81474-1.33656,5.85213-1.8252,8.81-.17246-.06361-.35929-.11132-.53175-.17493C368.21027,201.44427,368.88574,198.04113,369.08694,197.46864Z" fill="#686871"/>
      <path d="M365.79584,222.62643a13.37185,13.37185,0,0,1,1.3653-1.01776c.115.0318.21558.0477.33055.07951a12.86239,12.86239,0,0,0-1.96891,3.419c-.388.89054-2.35695,5.35915-2.515,6.18608.27306.19083,3.17613-1.62206,3.59291-1.84469a33.58218,33.58218,0,0,0,3.66476-2.01962c2.012-1.2245,4.23963-3.1169,6.52472-3.73709h.01437c.24432.06361.48863.11131.74732.159-4.71389,2.4808-10.56314,6.75857-15.2914,8.158.8623-2.91017,2.14137-7.02892,4.024-9.462-.02874,0,.12935-.23854.17246-.30215C366.24136,222.372,366.01141,222.48331,365.79584,222.62643Z" fill="#686871"/>
      <path d="M356.7992,218.73031c3.88034,1.12908,7.25767,2.08323,9.90205,2.767-1.394.318-2.71624,1.49484-3.9522,2.21045-1.3653.76332-2.68749,1.59025-4.05279,2.29a38.06429,38.06429,0,0,1-6.36663,2.89426s.77607-2.32177,1.25033-3.7848A29.73155,29.73155,0,0,1,354.859,221.879,12.99987,12.99987,0,0,1,356.7992,218.73031Z" fill="#c0bfc1"/>
      <path d="M355.75007,219.39822c-.01437,0-.01437.0159-.02874.0159,0-.0159.01437-.0159.01437-.03181C355.7357,219.39822,355.7357,219.39822,355.75007,219.39822Z" fill="#686871"/>
      <path d="M352.02782,196.86434c.7617-.46117,4.72827-2.89425,4.77138-2.91016-.33055,1.41533-.43115,2.91016-.64672,4.43681-.14372,1.04956-.04312,2.33767-.15809,3.43494-3.03241-.85874-5.83488-1.62206-8.23494-2.27406C348.89481,198.69313,351.36673,197.27781,352.02782,196.86434Z" fill="#c0bfc1"/>
      <path d="M356.7992,193.95418c-.04311.01591-4.00968,2.449-4.77138,2.91016-.66109.41347-3.133,1.82879-4.26837,2.68753-.15809-.04771-.31617-.07951-.45989-.12722,3.2911-2.32177,6.72592-4.34139,10.16074-6.3292a35.13713,35.13713,0,0,0-1.006,8.8577c-.15808-.04771-.31617-.07951-.45989-.12722.115-1.09727.01437-2.38538.15809-3.43494C356.36805,196.86434,356.46865,195.36951,356.7992,193.95418Z" fill="#686871"/>
      <path d="M335.93161,196.14873c4.72826-1.47893,10.132-3.38724,10.04576-3.32363a.13271.13271,0,0,1,.08623-.06361,11.10967,11.10967,0,0,0-1.006,3.18051c-.115.52478-.27306,1.59025-.43115,2.767-1.81083-.47708-3.1905-.84284-3.98094-1.08138C339.30894,197.246,337.69932,196.73712,335.93161,196.14873Z" fill="#c0bfc1"/>
      <path d="M355.477,218.33275c-4.3546,2.49669-9.629,5.27963-13.73927,7.36286a12.97363,12.97363,0,0,1-2.44317,1.19269,35.9205,35.9205,0,0,0,3.07552-5.99525,22.65258,22.65258,0,0,1,3.66477-5.43866C349.36907,216.48805,352.55957,217.45811,355.477,218.33275Z" fill="#c0bfc1"/>
      <path d="M341.73774,225.69561c4.11029-2.08323,9.38467-4.86617,13.73927-7.36286.44552.12722.891.25444,1.32219.39756a12.99987,12.99987,0,0,0-1.94017,3.1487,29.73155,29.73155,0,0,0-1.27907,3.22821c-.47426,1.463-1.25033,3.7848-1.25033,3.7848a38.06429,38.06429,0,0,0,6.36663-2.89426c1.3653-.69971,2.68749-1.52664,4.05279-2.29,1.236-.71561,2.55815-1.8924,3.9522-2.21045.15809.0318.31617.07951.45989.11132a13.37185,13.37185,0,0,0-1.3653,1.01776c-4.3546,2.48079-9.54276,5.96344-14.06982,6.72676,1.29345-3.21231,1.897-7.09252,3.99531-9.93907.01437,0,.01437-.0159.02874-.0159-.01437,0-.01437,0-.01437-.01591,0,.01591-.01437.01591-.01437.03181-5.74865,2.68752-11.871,5.6931-17.519,8.76229,2.42881-4.3891,3.70788-8.88951,7.22893-12.75382q.02156-.04772.04311-.04771c-.28743.20673-.57486.39756-.87666.58839.25868-.25444.53175-.493.80481-.71561.21557.06361.43114.12722.63235.20673a22.65258,22.65258,0,0,0-3.66477,5.43866,35.9205,35.9205,0,0,1-3.07552,5.99525A12.97363,12.97363,0,0,0,341.73774,225.69561Z" fill="#686871"/>
      <path d="M332.18061,217.60123c1.22159-1.76518,2.47192-3.56216,3.53542-5.43866,3.06116.986,6.06483,1.956,8.9679,2.86245a49.70969,49.70969,0,0,1-7.99063,4.65944c-2.515,1.2404-5.17378,1.92421-7.6457,3.35543C330.08236,221.32242,331.00214,219.33461,332.18061,217.60123Z" fill="#c0bfc1"/>
      <path d="M346.0636,192.76149a.13271.13271,0,0,0-.08623.06361c.08623-.06361-5.3175,1.8447-10.04576,3.32363-.20121-.06361-.41678-.14312-.63235-.22263,3.89471-1.27221,7.91876-2.70343,11.59789-3.88022a26.126,26.126,0,0,0-1.69585,6.82218c-.2012-.06361-.388-.11132-.57486-.159.15809-1.17679.31617-2.24226.43115-2.767A11.10967,11.10967,0,0,1,346.0636,192.76149Z" fill="#686871"/>
      <path d="M331.82132,194.6857c-1.65273-.6043-3.37733-1.28811-5.07318-2.03552a35.04836,35.04836,0,0,1,3.72225-1.08138,17.99879,17.99879,0,0,1,4.757-.73151,14.50525,14.50525,0,0,0-1.66711,1.68567C333.3016,192.8251,332.61176,193.69974,331.82132,194.6857Z" fill="#c0bfc1"/>
      <path d="M329.09072,170.86372a6.74376,6.74376,0,0,0-1.35094-1.145,44.82488,44.82488,0,0,0,.81919-4.72305c.77606.23854.99164.09542,1.75333.34986a17.97077,17.97077,0,0,1-1.14973,5.34324C329.13383,170.7524,329.11946,170.80011,329.09072,170.86372Z" fill="#010101"/>
      <path d="M330.47039,191.5688a35.04836,35.04836,0,0,0-3.72225,1.08138c-.33055-.12722-.67546-.27035-1.006-.42937,1.68148-.47708,7.73193-2.19455,10.54877-1.8924a38.61959,38.61959,0,0,0-3.96657,4.54812c-.15809-.06361-.33055-.12722-.503-.19083.79044-.986,1.48028-1.8606,1.739-2.16274a14.50525,14.50525,0,0,1,1.66711-1.68567A17.99879,17.99879,0,0,0,330.47039,191.5688Z" fill="#686871"/>
      <path d="M386.72092,212.68735c.1006.04771.2012.11132.31617.159.14372.07951.28744.14312.43115.22263a31.60855,31.60855,0,0,1,5.10193,3.1646c.28743.22264.54612.44527.77607.652,2.4288,2.21045,2.94618,4.37319.503,6.361a10.18658,10.18658,0,0,1-6.13668,1.86059q-.75452.02385-1.509,0a47.46286,47.46286,0,0,1-8.14871-1.145c-.15809-.03181-.33055-.06361-.48863-.11132h-.01438c-.25869-.04771-.503-.09541-.74732-.159h-.01437c-2.11263-.46118-4.02406-.92235-5.49-1.16089-.90541-.159-2.19886-.44527-3.80848-.84283-.115-.03181-.21558-.04771-.33055-.07951-.14372-.03181-.3018-.07952-.45989-.11132-2.64438-.68381-6.02171-1.638-9.90205-2.767-.43115-.14312-.87667-.27034-1.32219-.39756-2.91744-.87464-6.10794-1.8447-9.44215-2.87836-.20121-.07951-.41678-.14312-.63235-.20673-.23-.07951-.4599-.14312-.70421-.22264h-.01437c-2.90307-.90644-5.90674-1.87649-8.9679-2.86245-.34492-.11132-.68983-.22264-1.02038-.33395-2.55815-.82694-5.145-1.68567-7.73193-2.54441-.07186-.0318-.15809-.0477-.23-.07951-.2012-.06361-.41678-.12722-.618-.20673h-.01437c-3.44919-1.16089-6.89838-2.33767-10.247-3.49856-.22994-.07951-.45989-.159-.67546-.23854-1.37968-.47707-2.73061-.95415-4.0528-1.41532h-.01437c-.891-.318-1.78208-.6361-2.64438-.95415h-.02874c-.43115-.159-.84793-.30215-1.26471-.46117a28.26633,28.26633,0,0,1,2.45755-5.42276,11.91173,11.91173,0,0,1,6.769-5.72491,22.33268,22.33268,0,0,1,6.79778-.23854c.58924.28625,1.19285.57249,1.79645.84283l.01438.01591c.24431.11131.48863.22263.73295.318.33055.159.67546.30215,1.006.42937,1.69585.74741,3.42045,1.43122,5.07318,2.03552.17246.06361.34492.12722.503.19083,1.02039.38166,2.0264.73151,2.97493,1.04957.21557.07951.43114.159.63235.22263,1.76771.58839,3.37733,1.09727,4.71389,1.47893.79044.23854,2.17011.6043,3.98094,1.08138.18683.0477.37366.09541.57486.159.64673.17493,1.35094.36576,2.09826.55659.14372.04771.3018.07951.45989.12722,2.40006.652,5.20253,1.41532,8.23494,2.27406.14372.04771.30181.07951.45989.12722,1.006.28625,2.04077.58839,3.0899.90644.24432.06361.48864.14313.733.22264,2.34258.68381,4.757,1.41532,7.17144,2.19455.17246.06361.35929.11132.53175.17493.74733.23853,1.48028.47707,2.2276.71561a3.88736,3.88736,0,0,0,.5605.19083c2.06951.69971,4.12465,1.41532,6.09357,2.16274.3018.11132.6036.22264.891.33395l1.76771.66791c.22994.09542.47426.19083.70421.28625C382.56752,210.74724,384.76638,211.7173,386.72092,212.68735Z" fill="#827b73"/>
      <path d="M326.59005,162.08553a35.23873,35.23873,0,0,1-1.88268,6.55184v.0159a1.8426,1.8426,0,0,0-.41678-.0318,5.03733,5.03733,0,0,0-1.20721.14312c.76169-2.89426,1.78208-7.172,1.78208-7.172C325.62716,161.9106,325.84273,161.76748,326.59005,162.08553Z" fill="#010101"/>
      <path d="M329.0476,223.03989c2.47192-1.43122,5.13067-2.115,7.6457-3.35543a49.70969,49.70969,0,0,0,7.99063-4.65944h.01437c.24431.07952.47426.14313.70421.22264-.27306.22263-.54613.46117-.80481.71561l-.01438.0159a64.36322,64.36322,0,0,1-16.34053,8.07848,46.03321,46.03321,0,0,1,6.611-11.48162c-3.26236,1.2563-6.35226,1.92421-9.54276,3.24412a20.43053,20.43053,0,0,0-2.63,1.39942c-.37366.20673-.76169.44527-1.14973.652l-.51738-.6838c1.48028-.76333,3.04679-1.62206,3.83723-1.8924,1.35093-.493,7.43013-2.86246,9.84456-3.46675.33055.11131.67546.22263,1.02038.33395-1.0635,1.8765-2.31383,3.67348-3.53542,5.43866C331.00214,219.33461,330.08236,221.32242,329.0476,223.03989Z" fill="#686871"/>
      <path d="M320.25217,184.81023c-1.19285,0-2.15574-1.43122-2.15574-3.1646s.96289-3.1328,2.15574-3.1328,2.15574,1.39943,2.15574,3.1328S321.445,184.81023,320.25217,184.81023Z" fill="#010101"/>
      <path d="M316.75986,219.23919c1.22159.46117,3.00367-.36576,4.77138-1.36762l.48864.6202a38.8936,38.8936,0,0,1,2.83121,6.202,121.284,121.284,0,0,1,2.88869,11.97459c-10.54877-6.45642-21.74426-11.3703-32.63795-17.461a88.30516,88.30516,0,0,0,23.62695-2.78295C318.02457,217.36269,317.36347,218.31684,316.75986,219.23919Z" fill="#bbb3ae"/>
      <path d="M318.09643,218.49177a35.539,35.539,0,0,1,8.86729-9.20756c2.58689.85874,5.17378,1.71747,7.73193,2.54441-2.41443.60429-8.49363,2.97377-9.84456,3.46675-.79044.27034-2.35695,1.12907-3.83723,1.8924A17.04932,17.04932,0,0,1,318.09643,218.49177Z" fill="#c0bfc1"/>
      <path d="M334.37947,182.18632c-.87667,5.74081-5.3175,9.68463-9.94516,8.8736-.02874,0-.04311-.0159-.07186-.0159a7.71786,7.71786,0,0,1-4.72826-3.00558l.01437-.0159a6.49867,6.49867,0,0,0,4.642,2.09913c4.34023,0,7.86128-4.80256,7.86128-10.766a12.34365,12.34365,0,0,0-3.06115-8.492c.02874-.06361.04311-.11132.07185-.17493h.01438a7.18462,7.18462,0,0,1,1.33656.77923C333.41657,173.583,335.06931,177.78132,334.37947,182.18632Z" fill="#6e645d"/>
      <path d="M320.5396,169.90957a8.72764,8.72764,0,0,0-1.83957,1.9083,48.97834,48.97834,0,0,0,.47427-6.9335c.81918.11132.99164-.07951,1.79645.01591A16.35314,16.35314,0,0,1,320.5396,169.90957Z" fill="#010101"/>
      <path d="M318.7,171.81787a8.72764,8.72764,0,0,1,1.83957-1.9083,6.3182,6.3182,0,0,1,2.54378-1.145,5.03733,5.03733,0,0,1,1.20721-.14312,1.8426,1.8426,0,0,1,.41678.0318,5.87712,5.87712,0,0,1,3.03241,1.06547,6.74376,6.74376,0,0,1,1.35094,1.145,12.34365,12.34365,0,0,1,3.06115,8.492c0,5.96344-3.521,10.766-7.86128,10.766a6.49867,6.49867,0,0,1-4.642-2.09913,12.313,12.313,0,0,1-3.20487-8.66687,13.63578,13.63578,0,0,1,1.006-5.24783A10.8401,10.8401,0,0,1,318.7,171.81787Zm-.6036,9.82776c0,1.73338.96289,3.1646,2.15574,3.1646s2.15574-1.43122,2.15574-3.1646-.9629-3.1328-2.15574-3.1328S318.09643,179.91226,318.09643,181.64563Z" fill="#f4f4f4"/>
      <path d="M318.72878,216.42444a27.11879,27.11879,0,0,1,6.5822-6.56774l1.42279-.652c.07186.03181.15809.04771.23.07951a35.539,35.539,0,0,0-8.86729,9.20756,17.04932,17.04932,0,0,0,2.91743-1.304l.51738.6838c-1.76771,1.00186-3.54979,1.82879-4.77138,1.36762C317.36347,218.31684,318.02457,217.36269,318.72878,216.42444Z" fill="#686871"/>
      <path d="M308.78361,210.52461c.22995-.493,4.42646-3.27592,7.07084-5.0252,3.34859,1.16089,6.79778,2.33767,10.247,3.49856C319.04495,209.53865,310.52258,210.22246,308.78361,210.52461Z" fill="#c0bfc1"/>
      <path d="M308.78361,210.52461c1.739-.30215,10.26134-.986,17.31781-1.52664h.01437c.2012.07951.41678.14312.618.20673l-1.42279.652c-2.80247.42937-7.66007.79513-11.88533,1.04957-.34492.0159-.68984.0318-1.006.04771-1.88268.09541-3.57853.17493-4.8576.22263a3.58735,3.58735,0,0,1,.47426-.652c1.43716-1.60616,4.94384-3.67348,7.1427-5.26374.21557.07952.44552.159.67546.23854C313.21007,207.24869,309.01356,210.03163,308.78361,210.52461Z" fill="#686871"/>
      <path d="M306.556,207.90069a11.40067,11.40067,0,0,0,1.48028,2.62392,3.58735,3.58735,0,0,0-.47426.652c1.27907-.0477,2.97492-.12722,4.8576-.22263a42.48622,42.48622,0,0,1-7.68881,3.38723c-9.98828,3.00558-17.92141,2.27406-25.66772-5.04109a38.67657,38.67657,0,0,1-8.03374-11.44982,6.53322,6.53322,0,0,0,4.78575,2.19455,5.84,5.84,0,0,0,3.42045-1.04957c1.22159,5.16832,3.0899,5.45457,7.90439,4.246.45989,2.14685,2.0264,4.43681,3.93783,5.08881,2.48629.82693,4.23963-1.09727,6.36663-2.17864.15808,3.76889,3.62164,4.246,6.28039,3.37133A8.62828,8.62828,0,0,0,306.556,207.90069Z" fill="#6c404f"/>
      <path d="M306.58476,207.47133c.17246.07951.12934.23853-.02875.42936-.115-.27034-.14371-.46117-.04311-.46117A.22938.22938,0,0,1,306.58476,207.47133Z" fill="#f4f4f4"/>
      <path d="M315.179,205.26087c-2.19886,1.59026-5.70554,3.65758-7.1427,5.26374a11.40067,11.40067,0,0,1-1.48028-2.62392c.15809-.19083.20121-.34985.02875-.42936a.22938.22938,0,0,0-.07186-.03181l-.02874-3.51446c.87666-.0159,2.67312-.0318,4.62766-.07951h.01437C312.44838,204.30672,313.79931,204.7838,315.179,205.26087Z" fill="#f4f4f4"/>
      <path d="M306.5129,207.43952c-.1006,0-.07186.19083.04311.46117a8.62828,8.62828,0,0,1-2.83121,1.62206c-2.65875.87464-6.12231.39756-6.28039-3.37133l.618-3.21231a36.19227,36.19227,0,0,0,8.09122.986h.33055Z" fill="#f4f4f4"/>
      <path d="M298.06239,202.93911l-.618,3.21231c-2.127,1.08137-3.88034,3.00557-6.36663,2.17864-1.91143-.652-3.47794-2.942-3.93783-5.08881l1.14973-3.60987A50.1973,50.1973,0,0,0,298.06239,202.93911Z" fill="#f4f4f4"/>
      <path d="M293.70778,177.988c1.56651.334,2.52941,2.25816,2.17012,4.30958s-1.91143,3.435-3.47793,3.101c-1.55214-.318-2.515-2.27406-2.15575-4.32549S292.15565,177.6541,293.70778,177.988Z" fill="#010101"/>
      <path d="M318.72878,216.42444a88.30516,88.30516,0,0,1-23.62695,2.78295h-.388l.01437-1.57435c8.98226,0,16.08184-4.27778,18.69748-6.72677,4.22526-.25444,9.08286-.6202,11.88533-1.04957A27.11879,27.11879,0,0,0,318.72878,216.42444Z" fill="#e8e3df"/>
      <path d="M324.85109,224.69376a38.8936,38.8936,0,0,0-2.83121-6.202l-.48864-.6202c.388-.20673.77607-.44527,1.14973-.652a70.03117,70.03117,0,0,1,3.56416,8.07848c1.27908,4.16646,2.32821,10.40025,3.17613,14.70983-10.72123-6.56774-25.76831-14.40768-37.40933-20.8482.90541.0318,1.79646.04771,2.70187.04771h.388c10.89369,6.09066,22.08918,11.00454,32.63795,17.461A121.284,121.284,0,0,0,324.85109,224.69376Z" fill="#827b73"/>
      <path d="M292.18439,167.715a22.79706,22.79706,0,0,1-.618-7.04481c.79044-.11132.97727.07951,1.78208-.03181a43.19171,43.19171,0,0,0,.12935,5.08881c.07186.55659.31617,1.8924.54612,3.08509A11.66738,11.66738,0,0,0,292.18439,167.715Z" fill="#010101"/>
      <path d="M295.8779,182.29763c.35929-2.05142-.60361-3.97563-2.17012-4.30958-1.55213-.33395-3.10427,1.03367-3.46356,3.08509s.60361,4.00744,2.15575,4.32549C293.96647,185.73258,295.51861,184.34906,295.8779,182.29763Zm3.77974-2.59211c.57486,7.26746-3.44919,13.69207-9.15473,14.90067a7.63887,7.63887,0,0,1-1.04913.17492c-6.25165.5884-11.7991-5.16832-12.41708-12.881a15.258,15.258,0,0,1,4.38335-12.35626c.02874-.0159.05748-.0477.08623-.06361a6.69789,6.69789,0,0,1,.90541-.73151,8.45232,8.45232,0,0,1,1.42279-.89054,9.56875,9.56875,0,0,1,2.18449-.79513,7.86873,7.86873,0,0,1,1.22158-.20673c.20121-.01591.388-.03181.57487-.03181a9.37467,9.37467,0,0,1,4.369.89054,11.66738,11.66738,0,0,1,1.83957,1.09728A14.87061,14.87061,0,0,1,299.65764,179.70552Z" fill="#f4f4f4"/>
      <path d="M281.57814,195.9579a49.16964,49.16964,0,0,0,6.71154,3.67348L287.14,203.24125c-4.81449,1.2086-6.6828.92235-7.90439-4.246Z" fill="#f4f4f4"/>
      <path d="M287.39864,165.45686c.08623.23854.22995.74742.41678,1.36762-.18683,0-.37366.0159-.57487.03181a7.86873,7.86873,0,0,0-1.22158.20673v-.0159a46.53667,46.53667,0,0,1-1.509-7.61731c.74732-.30215.96289-.17493,1.72459-.46117A51.81472,51.81472,0,0,0,287.39864,165.45686Z" fill="#010101"/>
      <path d="M282.41169,168.74869c-1.53776-2.00372-3.363-3.97563-4.254-6.48823.63235-.54069.87667-.47708,1.53776-1.00186A39.98174,39.98174,0,0,0,282.08114,165.6c.30181.42937,1.03476,1.36761,1.75334,2.24225v.01591A8.45232,8.45232,0,0,0,282.41169,168.74869Z" fill="#010101"/>
      <path d="M289.45378,194.78111a7.63887,7.63887,0,0,0,1.04913-.17492v.0318a11.19414,11.19414,0,0,1-3.018.41347c-6.75466,0-12.23025-6.12247-12.23025-13.66027a13.9518,13.9518,0,0,1,6.16543-11.84738,15.258,15.258,0,0,0-4.38335,12.35626C277.65468,189.61279,283.20213,195.36951,289.45378,194.78111Z" fill="#6e645d"/>
      <path d="M267.59455,181.37529a43.52918,43.52918,0,0,0,13.98359,14.58261l-2.34258,3.03738a5.84,5.84,0,0,1-3.42045,1.04957,6.53322,6.53322,0,0,1-4.78575-2.19455c-.6036-1.2722-1.14972-2.5444-1.624-3.83251a35.70374,35.70374,0,0,1-1.739-8.38063c-.15809-1.2881-.30181-2.5762-.51738-3.86431A5.54959,5.54959,0,0,0,267.59455,181.37529Z" fill="#f4f4f4"/>
      <path d="M307.04465,202.81189l1.394.07951h.02874c.8623.318,1.75334.6361,2.64438.95415-1.95454.04771-3.751.06361-4.62766.07951h-.33055a36.19227,36.19227,0,0,1-8.09122-.986,50.1973,50.1973,0,0,1-9.77271-3.30773,49.16964,49.16964,0,0,1-6.71154-3.67348,43.52918,43.52918,0,0,1-13.98359-14.58261,5.54959,5.54959,0,0,1-.44552.39756c.21557,1.28811.35929,2.57621.51738,3.86431a35.70374,35.70374,0,0,0,1.739,8.38063c.47427,1.28811,1.02039,2.56031,1.624,3.83251a38.67657,38.67657,0,0,0,8.03374,11.44982c7.74631,7.31515,15.67944,8.04667,25.66772,5.04109a42.48622,42.48622,0,0,0,7.68881-3.38723c.31618-.01591.6611-.03181,1.006-.04771-2.61564,2.449-9.71522,6.72677-18.69748,6.72677a27.006,27.006,0,0,1-4.02406-.28625c-7.43012-1.06547-14.34287-5.88393-19.41606-15.10739a53.14247,53.14247,0,0,1-5.7199-19.5283,5.92135,5.92135,0,0,1-1.98328.493c.34491-.46117.71858-.90645,1.09224-1.31991,2.18448-.93825,4.51269-2.97377,4.78575-7.29926h.02874a7.56557,7.56557,0,0,1,.2012,1.71747,7.09892,7.09892,0,0,1-1.42279,4.29368C283.64765,203.12994,307.04465,202.81189,307.04465,202.81189Z" fill="#381534"/>
      <path d="M290.70411,217.34679a27.006,27.006,0,0,0,4.02406.28625l-.01437,1.57435c-.90541,0-1.79646-.01591-2.70187-.04771a215.05733,215.05733,0,0,1-27.13362-2.65572h-.01437a135.26923,135.26923,0,0,0-8.14871-13.2309c.83355-7.5378,3.04678-15.1392,6.86964-20.069a5.92135,5.92135,0,0,0,1.98328-.493,53.14247,53.14247,0,0,0,5.7199,19.5283C276.36124,211.46286,283.274,216.28132,290.70411,217.34679Z" fill="#e8e3df"/>
      <path d="M291.56641,160.67021a22.79706,22.79706,0,0,0,.618,7.04481,9.37467,9.37467,0,0,0-4.369-.89054c-.18683-.6202-.33055-1.12908-.41678-1.36762a51.81472,51.81472,0,0,1-1.1641-6.48822c-.7617.28624-.97727.159-1.72459.46117a46.53667,46.53667,0,0,0,1.509,7.61731v.0159a9.56875,9.56875,0,0,0-2.18449.79513v-.01591c-.71858-.87464-1.45153-1.81288-1.75334-2.24225a39.98174,39.98174,0,0,1-2.38569-4.34139c-.66109.52478-.90541.46117-1.53776,1.00186.891,2.5126,2.71624,4.48451,4.254,6.48823a6.69789,6.69789,0,0,0-.90541.73151c-.02875.01591-.05749.04771-.08623.06361a13.9518,13.9518,0,0,0-6.16543,11.84738c0,7.5378,5.47559,13.66027,12.23025,13.66027a11.19414,11.19414,0,0,0,3.018-.41347v-.0318c5.70554-1.2086,9.72959-7.63321,9.15473-14.90067A14.87061,14.87061,0,0,0,294.024,168.8123c-.22995-1.19269-.47426-2.5285-.54612-3.08509a43.19171,43.19171,0,0,1-.12935-5.08881C292.54368,160.74972,292.35685,160.55889,291.56641,160.67021Zm15.60758,41.76c.41678.159.83356.30214,1.26471.46117l-1.394-.07951s-23.397.318-38.77464-22.21583a7.09892,7.09892,0,0,0,1.42279-4.29368,7.56557,7.56557,0,0,0-.2012-1.71747h-.02874c-.27306,4.32549-2.60127,6.361-4.78575,7.29926a10.287,10.287,0,0,1-3.93783.84283v.01591a6.37559,6.37559,0,0,0,2.40006.47707,4.03994,4.03994,0,0,0,.44553-.0159c-3.82286,4.92978-6.03609,12.53118-6.86964,20.069-3.46356-5.00929-6.13668-8.28521-6.13668-8.28521-20.59454-.159-31.6032,10.86142-34.24758,14.86885,1.66711-.07951,7.74631,2.4808,15.3489,6.13838a291.46847,291.46847,0,0,1-37.30873-3.22822c-4.62767-.652-8.79544-1.304-12.28774-1.84469-9.38467-1.463-18.23759-2.75113-27.13362-2.87835l-.01437-.01591a17.61747,17.61747,0,0,0,3.00367-3.49855c-3.50668-1.956-21.37061,2.14684-21.37061,2.14684-.21557,1.09727-.45989,2.17864-.71858,3.24411l-.24431-.06361c-18.39568,3.99154-37.28,11.40211-53.40495,22.21583,1.46591-11.43392,9.83019-23.10637,19.63164-28.05205-21.24126-25.285-21.658-34.60389-21.68678-35.14457,4.08154,4.02333,32.35052,7.71272,39.6513,8.11028,2.42881.12722,4.8145.20674,7.17144.20674a158.52062,158.52062,0,0,0,19.91907-1.12908c5.5187-.66791,10.99429-1.60616,16.52736-2.78294a70.2006,70.2006,0,0,0,9.18347-2.67163c10.86495-3.88021,21.83049-10.16171,32.03434-15.823.28744-.159.58924-.334.891-.50888,10.56315-5.96344,26.04138-16.45911,47.92936-13.8829,25.58149,3.00558,43.158,15.85482,58.36316,28.84717,1.59525,1.36762,3.17613,2.75114,4.74263,4.11876l.81918.71561.07186.03181a13.63578,13.63578,0,0,0-1.006,5.24783,12.313,12.313,0,0,0,3.20487,8.66687l-.01437.0159a7.71786,7.71786,0,0,0,4.72826,3.00558c.02875,0,.04312.0159.07186.0159l.56049.82693c-.6036-.27034-1.20721-.55658-1.79645-.84283a22.33268,22.33268,0,0,0-6.79778.23854,11.91173,11.91173,0,0,0-6.769,5.72491A28.26633,28.26633,0,0,0,307.174,202.43023Z" fill="#958e86"/>
      <path d="M260.73928,182.727a10.287,10.287,0,0,0,3.93783-.84283c-.37366.41346-.74733.85874-1.09224,1.31991a4.03994,4.03994,0,0,1-.44553.0159,6.37559,6.37559,0,0,1-2.40006-.47707Z" fill="#381534"/>
      <path d="M264.86394,216.504h.01437c3.866,7.23564,7.0421,15.171,7.17144,21.91367-.71858-.57249-1.75334-1.304-3.03241-2.13094-5.10193-20.51425-17.8783-34.55617-18.43879-41.29884,0,0,2.67312,3.27592,6.13668,8.28521A135.26923,135.26923,0,0,1,264.86394,216.504Z" fill="#bbb3ae"/>
      <path d="M250.57855,194.98785c.56049,6.74267,13.33686,20.78459,18.43879,41.29884-7.76068-5.057-24.67608-14.201-37.33747-20.29161-7.60259-3.65758-13.68179-6.21789-15.3489-6.13838C218.97535,205.84927,229.984,194.82882,250.57855,194.98785Z" fill="#827b73"/>
      <path d="M181.2211,144.52915a82.63855,82.63855,0,0,1,23.97187,9.03263l.33054.71561c-.3018.17493-.6036.34986-.891.50888-10.20385,5.6613-21.16939,11.9428-32.03434,15.823-6.25166-10.70239-14.271-18.9081-21.48557-28.51322A117.97692,117.97692,0,0,1,181.2211,144.52915Z" fill="#827b73"/>
      <path d="M157.93908,204.52936a17.61747,17.61747,0,0,1-3.00367,3.49855c-5.993,5.6772-16.97289,11.02045-22.70717,12.69022a61.66606,61.66606,0,0,0,3.62165-10.79782c.25869-1.06547.503-2.14684.71858-3.24411C136.56847,206.6762,154.4324,202.57335,157.93908,204.52936Z" fill="#827b73"/>
      <path d="M146.87293,175.873l.01437.19083a158.52062,158.52062,0,0,1-19.91907,1.12908,49.16123,49.16123,0,0,1-12.27336-15.505,35.11177,35.11177,0,0,1,9.38467,1.59025,57.39138,57.39138,0,0,1,9.14035,3.48265C135.84989,168.049,142.64767,173.50354,146.87293,175.873Z" fill="#827b73"/>
    </g>
    <g>
      <path d="M417.65732,415.21594a419.93636,419.93636,0,0,1-52.59109,14.22878c-7.1063,1.48609-14.24622,2.86128-21.37494,4.14775a283.965,283.965,0,0,0,31.41791-19.58536c7.29685-5.21241,23.60546-20.93837,31.98955-35.99891,4.03512-2.62838,8.485-5.5673,13.428-8.90546,12.85635-8.66147,26.65422-22.35791,38.66992-32.72729v-.01109a19.42281,19.42281,0,0,0,5.3017.732A18.696,18.696,0,0,0,481.77093,326.117a17.84188,17.84188,0,0,0,3.16084-7.863,78.9568,78.9568,0,0,1,20.91538-6.80941c14.94116-2.79474,30.6333-.80958,45.39513,1.109,16.82421,2.18477,33.02074,4.2032,45.2382,1.5859.23538.13308.482.25508.71735.38816,0,0-9.71792,16.63535-15.32225,16.42464-1.5468-.05545-3.0936-.18853-4.62918-.366-8.12629-.95376-16.1517-3.34925-24.88326-4.21429-20.27649-2.00733-49.71046-3.58214-67.06148,9.03854-6.35532,4.62463-11.72427,18.82014-7.11751,22.20266,2.56679,1.88534,2.02877-3.44907,5.95181-8.55057a24.83635,24.83635,0,0,1,14.01084-9.46c22.66393-4.97951,43.87074-5.21241,75.07568.25508-8.003,12.33234-24.86083,23.21186-32.068,24.19889-10.3456,1.41955-21.10593,4.01467-31.89988,4.87971-12.49767,8.56166-22.38372,15.99212-36.32731,22.77934-13.68579,6.66524-27.74146,12.69832-42.17823,18.554Q424.276,412.89809,417.65732,415.21594Z" fill="#cfd8dd"/>
      <path d="M322.75349,344.36042l.15692-.13308c1.45713,2.1626,7.1063-1.66353,5.27929-5.48966C325.70137,333.52526,318.15794,338.4826,322.75349,344.36042Zm11.80273,20.55021a3.70621,3.70621,0,0,0,4.405-4.547c-.96394-4.21429-4.80852-3.92595-6.94937-.28835A14.45035,14.45035,0,0,0,334.55622,364.91063Zm.44835-20.06223c10.39044,1.475,3.08239-14.36186-2.61162-2.78365a7.07746,7.07746,0,0,0,2.08481,2.42876c-.02241.07763-.04483.16635-.06725.25507C334.61227,344.78185,334.814,344.81512,335.00457,344.8484Zm18.88661-35.27805.40352-.25507a2.95387,2.95387,0,0,0,.38109.49906c6.75883-3.70414-.22417-11.36749-3.18326-5.09042A19.38309,19.38309,0,0,0,353.89118,309.57035Zm-102.6266,64.20138.07846-.15526c4.15842-.31053,8.10387-5.534,2.86942-8.15133C249.58328,363.14729,245.29036,371.08789,251.26458,373.77173Zm31.17132,9.8814c1.62526,2.07388,5.38016,2.42876,6.54586-.53233,1.345-3.4047-3.04876-6.01091-5.83972-5.35658A11.36948,11.36948,0,0,0,282.4359,383.65313Zm1.24416-25.06393.02242-.01109c1.47954,2.95,6.96058.43252,6.40015-3.72632-.30263-2.30677-2.10723-4.58027-4.62918-4.40283C280.87789,350.77058,282.24535,355.32867,283.68006,358.5892Zm18.12442,26.97145a3.67042,3.67042,0,0,0,4.41622-4.55808c-1.15449-5.06824-11.53372-6.55433-4.37138,4.3141Zm3.03755-14.5393c9.11265,3.33816,4.32655-17.32295-2.88062-5.778a12.48929,12.48929,0,0,0,2.75733,5.64493c0,.03327-.01121.05545-.01121.08872A.63659.63659,0,0,0,304.842,371.02135Zm-124.08,50.81547c2.46591-.19963,6.15356-2.56185,5.6828-5.46749-.67252-4.08121-5.41379-3.71523-7.96937-1.82989A27.76233,27.76233,0,0,0,180.762,421.83682Zm27.719-11.09024.47076-.122c.04484.18853.16813.366.538.53233C218.3335,407.28643,202.97762,390.38491,208.48108,410.74658Zm-.11209-17.62239c1.46834,1.98516,4.38259-.44361,4.37138-3.37143-.02241-6.29925-5.83971-2.92782-3.923,3.32707Zm14.96358,14.82765c1.40108-.41034,3.116-3.30489,2.73492-5.44531-.62769-3.44906-3.20568-5.01278-5.58192-1.963A22.65519,22.65519,0,0,0,223.33257,407.95184Zm-88.50368.6765c-.95273,2.828-2.11844,6.45452,1.13208,7.77426,1.04241.41034,3.42985.89831,4.38259-.14417,2.26415-2.45095-2.48832-7.47482-4.89819-7.54136a.32506.32506,0,0,0,.02242.1109Zm16.58884,9.30471c3.99029.93158,8.72035-3.23835,4.57314-6.99794C151.74278,407.06462,145.34263,415.16049,151.41773,417.93305ZM497.10439,292.00342l.02242-.02218c1.58042,2.1515,7.99178-.84286,6.35531-4.69117-1.56921-3.69305-6.64674-1.09793-8.17112,1.41955A9.17386,9.17386,0,0,0,497.10439,292.00342Zm-4.20325-19.51882a3.04665,3.04665,0,0,0,1.02-5.73365A7.19548,7.19548,0,0,0,492.90114,272.4846ZM526.034,297.238c1.47955-.19962,3.0936-1.45282,3.47469-3.9703.5156-3.49343-1.75976-7.45264-5.67159-4.22538a14.61741,14.61741,0,0,0,2.18569,8.107Zm-91.205,2.86128.5268-.17744a1.11,1.11,0,0,0,.39231.49906c3.19447-.59887,7.55464-5.57839,4.136-8.83892-1.5468-1.475-2.95909-1.17556-4.53952.01109C432.77782,293.52278,433.7866,297.22692,434.829,300.09929Zm7.86848-23.7331.10088-.02218c.45956,2.79474,6.389-.08873,6.34411-3.02764C449.05281,267.84888,441.16191,269.15753,442.69749,276.36619ZM473.342,287.41206l.60527-.16635c2.88063,1.04248,6.85971-2.56185,4.31534-5.50076C474.95605,277.95209,471.06664,283.15341,473.342,287.41206Zm7.90212,11.96637c1.18812,3.04981,9.48253-3.00546,2.096-5.279A10.00659,10.00659,0,0,0,481.24412,299.37843Zm-86.7215,35.56638v.01109c2.3202,6.3658,7.59948-5.5562.30263-3.60432A8.47258,8.47258,0,0,0,394.52262,334.94481Zm41.25912-10.64662c2.578-1.0203,6.18719-6.34362,4.38259-9.40452-1.54679-2.60621-1.9391-1.87425-4.24808-.97594C431.86992,315.52581,435.16527,322.29085,435.78174,324.29819Zm-61.61407,21.71468c1.771-.6765,3.03755-4.77989,1.558-8.2955-6.85971-1.98515-6.09752,5.23459-1.58043,8.229Zm-2.77975,30.18762c1.67009-.64323,3.34019-1.33082,4.96544-2.096a35.76647,35.76647,0,0,0,7.8797-4.86861s-4.16963,1.73007-8.87727,3.49342a63.64674,63.64674,0,0,1-10.73791-33.43706s-5.33532,12.23253,5.907,35.17823a52.00793,52.00793,0,0,1-6.31048,1.841c-4.77489.88721-8.26079,1.841-11.72427,2.584-4.80852-7.863-5.67159-16.72408-6.927-29.622a46.02731,46.02731,0,0,0,2.26415,30.48706,55.26942,55.26942,0,0,1-7.44256.55451,18.7429,18.7429,0,0,0-6.51223,1.28647c-2.77976-3.682-6.81488-11.86655-7.92454-29.001.2578,4.83534-1.70371,11.37858-1.10965,17.201.49318,4.83534,2.76854,9.63741,4.887,13.84061-9.58342,5.78911-17.564,18.03273-21.49824,28.025-11.79152,2.34-25.21951,4.73553-40.553,6.9314-18.57277,2.66165-43.938,4.303-62.21934,7.7188-16.74576,3.12745-33.80536,4.6579-50.00189,9.89249-8.24958,2.67275-16.44312,5.04606-24.41249,8.57276-6.25444,2.77255-15.53522,5.6782-21.27406,10.325-1.56921.54342-3.12722,1.1312-4.6628,1.74116-30.57726,12.24362-33.032,48.24253-83.37011,63.14781,1.0312-12.532,8.86606-43.18538,31.84384-69.80195-14.15655-12.64287-25.7127-28.57954-34.321-42.10963C11.97064,396.62871,3.56413,382.777.05582,369.80143a118.10794,118.10794,0,0,1,48.881,19.55208c16.39829,11.1346,38.26641,27.01582,61.80462,24.24326.86306.122,3.31776-.28835,6.7252-1.04248-.02242,7.18647.02242,18.03272,5.08874,22.46882a50.39762,50.39762,0,0,1,2.10723-24.18781c2.24173-.5656,4.62918-1.18665,7.08388-1.841,11.81394-3.16071,25.0738-7.05339,29.99441-8.69474.57164-.18854,1.14328-.38816,1.72613-.5767.213,8.01825,1.15449,16.16957,5.02149,23.101-1.69251-7.91843-1.614-17.456,1.49075-25.27465a.53763.53763,0,0,1,.03363-.07763c9.023-3.14963,18.59518-6.73178,27.85355-10.41374-2.1969,11.48949-.76219,19.56318,1.4235,28.59063a80.71721,80.71721,0,0,1,5.07753-31.20792c3.4971-1.44173,6.91575-2.87237,10.2111-4.303,1.46833-.63215,2.91425-1.26429,4.32654-1.89643q4.80852-2.12933,9.6843-4.547c-.47077,10.48027.482,23.43367,3.76611,31.10811a142.76,142.76,0,0,1,4.21446-35.156c10.53615-5.534,21.03868-11.7002,30.84627-17.81092-1.35625,14.72784-1.65889,34.43519,6.43378,44.92655a100.8818,100.8818,0,0,1,.5268-34.85661c1.02-5.47858,1.64768-11.07915,3.37381-16.38028.03363-.09981.06726-.19962.10088-.31053,9.22474-5.96654,18.21409-12.06617,27.28191-18.11035.1345,11.93309,2.05119,25.58517,7.81244,34.87879-1.14328-14.58366-.96394-27.68123,2.17449-41.47748q3.12722-2.04615,6.31048-4.07012c7.44256-4.73553,14.66094-9.79268,21.92416-14.79438.22418,14.373,1.62526,26.10642,8.67551,39.33707a169.91709,169.91709,0,0,1-3.69886-24.01036c-.36988-4.60245-.93032-9.48215-.40351-14.11787a34.22454,34.22454,0,0,1,1.17691-5.14587c6.34411-4.303,12.77789-8.49512,19.447-12.33234,3.69886-2.12933,7.27443-3.94813,10.79395-5.55621-7.196,25.62954-2.16328,50.21659,10.51373,73.72789-4.58434-27.09345-9.23594-54.71923,5.33533-79.60572,5.907-1.77443,11.98207-3.194,18.52794-4.59135-4.86457,10.569,7.02783,2.828,3.654-.76523l1.076-.23289q3.1104-.64878,6.64674-1.17557c-6.232,10.71317-7.44256,24.97521-8.08145,36.64214-.57165,10.77971.6501,28.82353,7.05025,38.03951-4.62918-11.09023-2.578-27.45942-1.13208-39.15962,1.52438-12.3878,5.40258-27.00473,13.89876-36.9194,9.65067-.9094,20.23165-1.40846,30.16254-1.66354,2.29777,1.87425,4.84214,3.51561,6.90454,5.86674,2.43228,2.77256,5.12236,5.35658,7.42014,8.20677a76.6561,76.6561,0,0,1,12.8003,23.78856c-1.51317-6.54324-2.0736-13.21956-4.10237-19.7628a40.61291,40.61291,0,0,0-5.05511-10.96824c-1.70372-2.48422-4.9094-4.669-6.37774-7.33065,3.53073-.03327,6.87092-.04436,9.93089-.03327,3.17205.01109,6.19839-.09981,9.12386-.2218,10.11022,9.12726,13.484,23.81073,17.76574,36.09871-2.27536-12.11053-2.94788-25.60735-8.33925-36.52014,8.15991-.25508,15.69214.07763,23.66151,3.2938,2.44349,10.85734,7.77881,21.18235,8.18233,32.36131,2.64524-7.69663,1.44591-17.93292,1.49075-27.24871a79.73315,79.73315,0,0,1,13.9548,10.72425c-2.66767,2.1626-6.85971,11.62257-.28022,8.85,2.578-1.09793,3.3626-5.86673,1.4235-7.66335l.06725-.07763c2.24174,2.085,4.80852,4.547,8.0142,7.56354a175.292,175.292,0,0,0,32.89746,23.101c-12.21746,2.6173-28.414.59887-45.2382-1.5859-14.76183-1.91861-30.454-3.90377-45.39513-1.109a78.9568,78.9568,0,0,0-20.91538,6.80941,17.11115,17.11115,0,0,0,.17934-2.52858,18.24727,18.24727,0,0,0-34.87018-7.29737l-.30263-.13308a17.07527,17.07527,0,0,0-4.11359,11.09023,17.85137,17.85137,0,0,0,13.372,16.97915v.01109c-12.0157,10.36938-25.81357,24.06582-38.66992,32.72729-4.943,3.33816-9.39287,6.27708-13.428,8.90546-8.38409,15.06054-24.6927,30.7865-31.98955,35.99891a283.965,283.965,0,0,1-31.41791,19.58536c-4.33775,2.31786-8.74276,4.5359-13.24865,6.632-13.34953,6.2438-33.2225,16.43573-48.14125,13.72971a.365.365,0,0,1,.213-.46579c.01121,0,.01121.01109.01121.02218l-.01121.01109c.01121.01109.01121-.01109.01121-.01109a97.75905,97.75905,0,0,0,9.72913-11.922c4.87577-6.94249,9.25836-14.47276,13.38315-21.37089,1.74855-2.92782,3.53073-5.99982,5.41379-9.10508,6.47861-10.64663,14.12293-21.504,25.53335-26.794,0,0,6.01906-.65433,12.52009-1.75226a79.32775,79.32775,0,0,0,12.58734-2.91673C364.75239,378.52944,368.08136,377.45369,371.38792,376.20049Zm-5.3017-54.697.056-.06654c2.43228,2.11823,7.83486-3.70414,4.80852-7.77426C366.63544,307.86246,360.53793,316.657,366.08622,321.50345Zm154.76935-51.70268c-15.56885,4.90188,19.73847,11.60038,0,0Zm-66.56831,27.903c12.55371,0,16.34224-15.99212,9.3032-22.64626-.01121-.15527-.03363-.32162-.04484-.47688a.32514.32514,0,0,0-.02241-.2329c.01121.07763.01121.15527.02241.2329a1.65119,1.65119,0,0,0-.04483.38816.6727.6727,0,0,1,.08967.08872C464.43111,284.27352,463.85947,292.55793,454.28726,297.7038ZM406.6504,326.13917c.269,5.31222,7.53223,4.15884,6.75883-1.26429C412.65825,319.68465,402.60407,318.40927,406.6504,326.13917Zm-2.83579-35.12278c3.20568-.99812,6.66916-2.98328,5.78367-6.62087-1.24416-5.1126-6.35531-3.20508-4.96544,2.16259l-.22417.05545C403.31022,288.12184,402.7722,289.30849,403.81461,291.01639ZM401.6065,306.576c-3.78853,10.80189,12.12778-.87613,2.5892-3.10527-1.72613,1.94079-2.5892-.16635-2.5892,2.55076Zm-10.099,12.6096c.07846,4.97951,5.91818.25507,5.07753-3.1829C395.36327,310.90118,387.34907,313.64047,391.50749,319.18559Zm.10088-19.87371c12.58733-1.40846-5.425-13.54117-.08967.05546Zm-26.43,3.937c-.807,4.97951,7.07267,2.16259,5.73884-2.77256-1.289-4.7688-5.481-3.28271-7.16234.43252C364.90931,302.19535,363.50822,302.60569,365.17832,303.24892Zm7.06146-13.7408a8.79948,8.79948,0,0,0-4.30413-1.91861,6.18323,6.18323,0,0,0-.61648,3.02763c-.7734.95376-1.72613,1.20884-.34747,2.41767A10.13737,10.13737,0,0,0,372.23978,289.50812Zm-16.006,43.76207c4.16962-2.87237,1.89426-11.88873-3.2281-6.96467a13.1535,13.1535,0,0,0,2.06239,4.89079A4.06437,4.06437,0,0,0,356.2338,333.27019Zm-22.88811-10.66881c10.50252-3.00545,1.21053-16.73517-3.00393-5.48967a11.32876,11.32876,0,0,0,2.55558,4.61354A4.63206,4.63206,0,0,0,333.34569,322.60138Zm-11.88119,8.98309c3.19447-2.01842,7.521-6.87594,2.81337-10.05884-5.425-3.67087-5.54829,3.438-4.0127,7.72989A2.251,2.251,0,0,0,321.4645,331.58447Zm-22.41735,17.13442c1.25537,2.59511,9.3032-1.41955,3.94545-7.76317C296.63729,333.43654,292.75909,348.13111,299.04715,348.71889Zm-36.98862,41.03387c1.502,3.36034,5.87335-1.67462,2.93667-5.12369-.73977-.87613-2.27536-2.37331-3.50831-2.12932C256.10673,383.58659,261.35239,388.29994,262.05853,389.75276ZM245.806,397.51593c.54922,5.93327,6.35531,1.16447,6.176-2.76147-.14572-3.1829-2.73492-6.60978-5.82851-3.67087C246.1198,393.90051,244.50575,394.9319,245.806,397.51593Zm-8.35046-14.92746c5.92938,1.963,5.4362-6.68741,3.76611-9.92576-3.88941-.37707-3.68765,4.61354-2.89184,7.56354l-.36988.09981C237.74692,381.06911,237.63484,381.84542,237.4555,382.58847Zm-50.49507,19.91806c.1345,5.84456,7.66673,2.53967,7.30805-1.66353a3.585,3.585,0,0,0-6.52344-1.8188C187.89075,400.90954,185.77231,400.9539,186.96043,402.50653ZM133.1588,429.1231c-2.49953,5.01279,8.485,4.87971,7.30806-1.109-1.0312-5.27895-7.63311-3.316-6.8485,1.04248Z" fill="#677a89"/>
      <path d="M577.2464,330.58635a26.75649,26.75649,0,0,1-4.02392,9.27144c-31.20494-5.46749-52.41175-5.23459-75.07568-.25508a24.83635,24.83635,0,0,0-14.01084,9.46c-3.923,5.1015-3.385,10.43591-5.95181,8.55057-4.60676-3.38252.76219-17.578,7.11751-22.20266,17.351-12.62068,46.785-11.04587,67.06148-9.03854C561.0947,327.2371,569.12011,329.63259,577.2464,330.58635Z" fill="#381534"/>
      <path d="M555.50157,283.55266c1.9391,1.79662,1.15449,6.56542-1.4235,7.66335-6.57949,2.77256-2.38745-6.68741.28022-8.85.3923.35489.79581.732,1.21053,1.109Z" fill="#cfd8dd"/>
      <path d="M540.40349,271.64175c-.04484,9.31579,1.15449,19.55208-1.49075,27.24871-.40352-11.179-5.73884-21.504-8.18233-32.36131a47.056,47.056,0,0,1,5.94059,2.89455C538.02725,270.2,539.26021,270.932,540.40349,271.64175Z" fill="#cfd8dd"/>
      <path d="M523.83707,289.04233c3.91183-3.22726,6.18719.73195,5.67159,4.22538-.38109,2.51748-1.99514,3.77068-3.47469,3.9703l-.01121-.08872A14.61741,14.61741,0,0,1,523.83707,289.04233Z" fill="#cfd8dd"/>
      <path d="M520.85557,269.80077c19.73847,11.60038-15.56885,4.90188,0,0Z" fill="#cfd8dd"/>
      <path d="M507.0689,263.23535c5.39137,10.91279,6.06389,24.40961,8.33925,36.52014-4.28171-12.288-7.65552-26.97145-17.76574-36.09871C500.90413,263.5126,504.03135,263.33516,507.0689,263.23535Z" fill="#cfd8dd"/>
      <path d="M497.12681,291.98124l-.02242.02218a9.17386,9.17386,0,0,1-1.79339-3.2938c1.52438-2.51748,6.60191-5.1126,8.17112-1.41955C505.11859,291.13838,498.70723,294.13274,497.12681,291.98124Z" fill="#cfd8dd"/>
      <path d="M493.92113,266.751a3.04665,3.04665,0,0,1-1.02,5.73365A7.19548,7.19548,0,0,1,493.92113,266.751Z" fill="#cfd8dd"/>
      <path d="M490.02051,282.21074c2.02877,6.54324,2.5892,13.21956,4.10237,19.7628a76.6561,76.6561,0,0,0-12.8003-23.78856c-2.29778-2.85019-4.98786-5.43421-7.42014-8.20677-2.0624-2.35113-4.60677-3.99249-6.90454-5.86674,4.00149-.09981,7.90211-.16635,11.58976-.19962,1.46834,2.66166,4.674,4.84643,6.37774,7.33065A40.61291,40.61291,0,0,1,490.02051,282.21074Z" fill="#cfd8dd"/>
      <path d="M485.11111,315.72543a17.11115,17.11115,0,0,1-.17934,2.52858,17.84188,17.84188,0,0,1-3.16084,7.863,18.2484,18.2484,0,0,1-33.088-10.39156,17.83568,17.83568,0,0,1,1.558-7.29737,18.24727,18.24727,0,0,1,34.87018,7.29737Zm-25.74632-1.21992a2.25862,2.25862,0,1,0-2.26415,2.24023A2.25094,2.25094,0,0,0,459.36479,314.50551Z" fill="#f4f4f4"/>
      <path d="M483.34014,294.09947c7.38651,2.2735-.9079,8.32877-2.096,5.279A10.00659,10.00659,0,0,1,483.34014,294.09947Z" fill="#cfd8dd"/>
      <path d="M466.897,333.74707a18.24376,18.24376,0,0,0,14.87391-7.63008,18.696,18.696,0,0,1-17.27257,10.97933,19.42281,19.42281,0,0,1-5.3017-.732,17.85137,17.85137,0,0,1-13.372-16.97915A17.07527,17.07527,0,0,1,449.9383,308.295l.30263.13308a17.83568,17.83568,0,0,0-1.558,7.29737A18.12525,18.12525,0,0,0,466.897,333.74707Z" fill="#31414a"/>
      <path d="M473.94727,287.24571l-.60527.16635c-2.27536-4.25865,1.61405-9.46,4.92061-5.66711C480.807,284.68386,476.8279,288.28819,473.94727,287.24571Z" fill="#cfd8dd"/>
      <path d="M463.59046,275.05754c7.039,6.65414,3.25051,22.64626-9.3032,22.64626C463.85947,292.55793,464.43111,284.27352,463.59046,275.05754Z" fill="#010101"/>
      <path d="M457.10064,312.27637a2.23476,2.23476,0,1,1-2.25295,2.22914A2.25094,2.25094,0,0,1,457.10064,312.27637Z" fill="#010101"/>
      <path d="M442.79837,276.344l-.10088.02218c-1.53558-7.20866,6.35532-8.51731,6.445-3.04982C449.18732,276.25528,443.25793,279.13875,442.79837,276.344Z" fill="#cfd8dd"/>
      <path d="M440.16433,314.89367c1.8046,3.0609-1.80459,8.38422-4.38259,9.40452-.61647-2.00734-3.91182-8.77238.13451-10.38046C438.22523,313.01942,438.61754,312.28746,440.16433,314.89367Z" fill="#cfd8dd"/>
      <path d="M435.35581,299.92185l-.5268.17744c-1.04241-2.87237-2.05119-6.57651.51559-8.50621,1.58043-1.18665,2.99272-1.48609,4.53952-.01109,3.41864,3.26053-.94153,8.24-4.136,8.83892A1.11,1.11,0,0,1,435.35581,299.92185Z" fill="#cfd8dd"/>
      <path d="M436.83536,265.775c-8.49618,9.91467-12.37438,24.5316-13.89876,36.9194-1.44591,11.7002-3.4971,28.06939,1.13208,39.15962-6.40015-9.216-7.6219-27.2598-7.05025-38.03951.63889-11.66693,1.84943-25.929,8.08145-36.64214C428.75391,266.61787,432.71057,266.16317,436.83536,265.775Z" fill="#cfd8dd"/>
      <path d="M417.3771,268.58084c3.37381,3.59324-8.51859,11.33422-3.654.76523C414.9224,269.091,416.13294,268.83592,417.3771,268.58084Z" fill="#cfd8dd"/>
      <path d="M406.6504,326.13917c-4.04633-7.7299,6.00785-6.45452,6.75883-1.26429C414.18263,330.298,406.91941,331.45139,406.6504,326.13917Z" fill="#cfd8dd"/>
      <path d="M404.63284,286.55811c-1.38987-5.36767,3.72128-7.27519,4.96544-2.16259.88549,3.63759-2.578,5.62275-5.78367,6.62087-1.04241-1.7079-.50439-2.89455.59406-4.40283Z" fill="#cfd8dd"/>
      <path d="M404.1957,303.47072c9.53858,2.22914-6.37773,13.90716-2.5892,3.10527v-.55451C401.6065,303.30437,402.46957,305.41151,404.1957,303.47072Z" fill="#cfd8dd"/>
      <path d="M391.50749,319.18559c-4.15842-5.54512,3.85578-8.28441,5.07753-3.1829C397.42567,319.44066,391.586,324.1651,391.50749,319.18559Z" fill="#cfd8dd"/>
      <path d="M394.82525,331.35158c7.29685-1.95188,2.01757,9.97012-.30263,3.60432v-.01109A8.47258,8.47258,0,0,1,394.82525,331.35158Z" fill="#cfd8dd"/>
      <path d="M417.65732,415.21594a177.27351,177.27351,0,0,1-24.46853,17.67784c-10.65945,6.37689-28.44761,17.62239-40.83319,18.2878.10087-.41034.33626-.488.22417-.97594a92.31221,92.31221,0,0,1,12.48646-20.76092A419.93636,419.93636,0,0,0,417.65732,415.21594Z" fill="#435561"/>
      <path d="M379.34608,279.81525a127.79067,127.79067,0,0,1,15.84906-5.87783c-14.57127,24.88649-9.91967,52.51227-5.33533,79.60572C377.1828,330.03184,372.15011,305.44479,379.34608,279.81525Z" fill="#cfd8dd"/>
      <path d="M391.60837,299.31188l-.08967.05546C386.18337,285.77071,404.1957,297.90342,391.60837,299.31188Z" fill="#cfd8dd"/>
      <path d="M384.23306,369.23583a35.76647,35.76647,0,0,1-7.8797,4.86861c-.33626-.44361-.67252-.89831-.99757-1.37519C380.06343,370.9659,384.23306,369.23583,384.23306,369.23583Z" fill="#435561"/>
      <path d="M375.72568,337.71737c1.47954,3.51561.213,7.619-1.558,8.2955l-.02242-.06654C369.62816,342.952,368.866,335.73222,375.72568,337.71737Z" fill="#cfd8dd"/>
      <path d="M375.35579,372.72925c.325.47688.66131.93158.99757,1.37519-1.62525.76523-3.29535,1.45282-4.96544,2.096-.30263-.58778-.59406-1.16447-.86307-1.73007C372.10528,373.927,373.76416,373.32812,375.35579,372.72925Z" fill="#435561"/>
      <path d="M375.35579,372.72925c-1.59163.59887-3.25051,1.19775-4.83094,1.74117-11.24229-22.9457-5.907-35.17823-5.907-35.17823A63.64674,63.64674,0,0,0,375.35579,372.72925Z" fill="#31414a"/>
      <path d="M366.14226,321.43691l-.056.06654c-5.54829-4.84644.54922-13.641,4.86456-7.8408C373.97712,317.73277,368.57454,323.55514,366.14226,321.43691Z" fill="#cfd8dd"/>
      <path d="M370.91716,300.47636c1.33383,4.93515-6.54587,7.75207-5.73884,2.77256-1.6701-.64323-.269-1.05357-1.4235-2.34C365.43612,297.19365,369.62816,295.70756,370.91716,300.47636Z" fill="#cfd8dd"/>
      <path d="M352.4901,378.89542c3.46348-.743,6.94938-1.69681,11.72427-2.584a52.00793,52.00793,0,0,0,6.31048-1.841c.269.5656.56044,1.14229.86307,1.73007-3.30656,1.2532-6.63553,2.329-9.6955,3.44907a79.32775,79.32775,0,0,1-12.58734,2.91673l-.01121-.08872c-.45955-.9094-.88548-1.8188-1.26658-2.71711C349.44134,379.52756,350.96572,379.23922,352.4901,378.89542Z" fill="#435561"/>
      <path d="M367.31917,290.61714a6.18323,6.18323,0,0,1,.61648-3.02763,8.79948,8.79948,0,0,1,4.30413,1.91861,10.13737,10.13737,0,0,1-5.26808,3.52669C365.593,291.826,366.54577,291.5709,367.31917,290.61714Z" fill="#cfd8dd"/>
      <path d="M355.06809,331.19631a13.1535,13.1535,0,0,1-2.06239-4.89079c5.12236-4.92406,7.39772,4.0923,3.2281,6.96467A4.06437,4.06437,0,0,1,355.06809,331.19631Z" fill="#cfd8dd"/>
      <path d="M354.2947,309.31528l-.40352.25507a19.38309,19.38309,0,0,1-2.39865-4.84643c2.95909-6.27707,9.94209,1.38628,3.18326,5.09042A2.95387,2.95387,0,0,1,354.2947,309.31528Z" fill="#cfd8dd"/>
      <path d="M352.4901,378.89542c-1.52438.3438-3.04876.63214-4.66281.865a46.02731,46.02731,0,0,1-2.26415-30.48706C346.81851,362.17134,347.68158,371.03244,352.4901,378.89542Z" fill="#31414a"/>
      <path d="M349.09387,382.47757l.01121.08872c-6.501,1.09793-12.52009,1.75226-12.52009,1.75226a10.05848,10.05848,0,0,1-2.71249-2.71711,18.7429,18.7429,0,0,1,6.51223-1.28647,55.26942,55.26942,0,0,0,7.44256-.55451C348.20839,380.65877,348.63432,381.56817,349.09387,382.47757Z" fill="#435561"/>
      <path d="M348.33168,316.96754a169.91709,169.91709,0,0,0,3.69886,24.01036c-7.05025-13.23065-8.45133-24.96412-8.67551-39.33707q2.85822-1.97959,5.75-3.937a34.22454,34.22454,0,0,0-1.17691,5.14587C347.40136,307.48539,347.9618,312.36509,348.33168,316.96754Z" fill="#cfd8dd"/>
      <path d="M338.96123,360.36364a3.70621,3.70621,0,0,1-4.405,4.547,14.45035,14.45035,0,0,1-2.54436-4.83534C334.15271,356.43769,337.99729,356.14935,338.96123,360.36364Z" fill="#cfd8dd"/>
      <path d="M334.47776,344.49351a7.07746,7.07746,0,0,1-2.08481-2.42876c5.694-11.57821,13.00206,4.25865,2.61162,2.78365C334.82523,344.73749,334.64589,344.6155,334.47776,344.49351Z" fill="#cfd8dd"/>
      <path d="M332.89734,321.72525a11.32876,11.32876,0,0,1-2.55558-4.61354c4.21446-11.2455,13.50645,2.48422,3.00393,5.48967A4.63206,4.63206,0,0,1,332.89734,321.72525Z" fill="#cfd8dd"/>
      <path d="M329.72529,383.642a25.17036,25.17036,0,0,1,4.14721-2.0406,10.05848,10.05848,0,0,0,2.71249,2.71711c-11.41042,5.29-19.05474,16.14738-25.53335,26.794-.93032.18853-1.87185.37707-2.82459.55451C312.1613,401.67477,320.14187,389.43115,329.72529,383.642Z" fill="#435561"/>
      <path d="M325.948,352.60047c1.10966,17.13442,5.14478,25.319,7.92454,29.001a25.17036,25.17036,0,0,0-4.14721,2.0406c-2.11844-4.2032-4.3938-9.00527-4.887-13.84061C324.24425,363.979,326.20576,357.43581,325.948,352.60047Z" fill="#31414a"/>
      <path d="M322.91041,344.22734l-.15692.13308c-4.59555-5.87782,2.94788-10.83516,5.43621-5.62274C330.01671,342.56381,324.36754,346.38994,322.91041,344.22734Z" fill="#cfd8dd"/>
      <path d="M320.26517,329.25552c-1.53559-4.29192-1.4123-11.40076,4.0127-7.72989,4.70764,3.1829.3811,8.04042-2.81337,10.05884A2.251,2.251,0,0,1,320.26517,329.25552Z" fill="#cfd8dd"/>
      <path d="M315.12039,320.50533c-3.13843,13.79625-3.31777,26.89382-2.17449,41.47748-5.76125-9.29362-7.67794-22.9457-7.81244-34.87879Q310.0933,323.79358,315.12039,320.50533Z" fill="#cfd8dd"/>
      <path d="M308.22705,411.66707c.95274-.17744,1.89427-.366,2.82459-.55451-1.88306,3.10526-3.66524,6.17726-5.41379,9.10508-4.12479,6.89813-8.50738,14.4284-13.38315,21.37089-1.52438.13308-6.11994.25507-7.4874.38816-23.471,2.12932-45.68655,2.79473-69.6619,3.90376-2.71249.122-5.4362.2218-8.20474.28834a106.583,106.583,0,0,1,12.86755-8.14023.41831.41831,0,0,0,.19055-.47688s-17.86662,0-29.63573,2.66166q-1.95031,3.0609-3.67644,6.22162c-13.01327.08872-26.25071.22181-39.16311,1.33083a174.86341,174.86341,0,0,0-28.12255,4.48045c-3.25052.83177-6.4562,1.77444-9.59463,2.86129,5.73884-4.64681,15.01962-7.55246,21.27406-10.325,7.96937-3.5267,16.16291-5.9,24.41249-8.57276,16.19653-5.23459,33.25613-6.765,50.00189-9.89249,18.28134-3.41579,43.64657-5.05715,62.21934-7.7188C283.00754,416.4026,296.43553,414.00711,308.22705,411.66707Z" fill="#cfd8dd"/>
      <path d="M304.71874,370.88827a12.48929,12.48929,0,0,1-2.75733-5.64493c7.20717-11.54494,11.99327,9.11617,2.88062,5.778A1.33425,1.33425,0,0,1,304.71874,370.88827Z" fill="#cfd8dd"/>
      <path d="M306.2207,381.00257a3.67042,3.67042,0,0,1-4.41622,4.55808l.04484-.244C294.687,374.44824,305.06621,375.93433,306.2207,381.00257Z" fill="#cfd8dd"/>
      <path d="M302.9926,340.95572c5.35775,6.34362-2.69008,10.35828-3.94545,7.76317C292.75909,348.13111,296.63729,333.43654,302.9926,340.95572Z" fill="#cfd8dd"/>
      <path d="M283.70248,358.57811l-.02242.01109c-1.43471-3.26053-2.80217-7.81862,1.79339-8.14024,2.522-.17744,4.32655,2.09606,4.62918,4.40283C290.66306,359.01063,285.182,361.52811,283.70248,358.57811Z" fill="#cfd8dd"/>
      <path d="M283.142,377.76422c2.791-.65433,7.18476,1.95188,5.83972,5.35658-1.1657,2.96109-4.9206,2.60621-6.54586.53233A11.36948,11.36948,0,0,1,283.142,377.76422Z" fill="#cfd8dd"/>
      <path d="M277.85155,345.21437c-.03362.11091-.06725.21072-.10088.31053-1.72613,5.30113-2.35382,10.9017-3.37381,16.38028a100.8818,100.8818,0,0,0-.5268,34.85661c-8.09267-10.49136-7.79-30.19871-6.43378-44.92655.17934-.09981.35868-.21071.52681-.32161q2.15206-1.33083,4.23687-2.66166C274.08544,347.64313,275.96849,346.4343,277.85155,345.21437Z" fill="#cfd8dd"/>
      <path d="M236.57,369.64616q-4.00149,2.09605-7.98057,4.04794-4.87578,2.41212-9.6843,4.547c-1.41229.63214-2.85821,1.26428-4.32654,1.89643-7.82366-9.10509-9.72913-11.77783-15.84907-17.52258-5.98543-5.63384-13.74183-9.959-19.122-15.5596,4.192-3.99248,18.2253-3.61541,24.1659-3.32707a124.59551,124.59551,0,0,1,23.97535,4.00358c6.41136,1.64135,18.75211,5.20132,39.70111,3.815-.01121.09981-.02241.18853-.03362.28834C257.60869,357.946,247.10616,364.11214,236.57,369.64616Z" fill="#435561"/>
      <path d="M264.9952,384.62907c2.93668,3.44907-1.43471,8.484-2.93667,5.12369-.70614-1.45282-5.9518-6.16617-.57164-7.253C262.71984,382.25576,264.25543,383.75294,264.9952,384.62907Z" fill="#cfd8dd"/>
      <path d="M251.343,373.61647l-.07846.15526c-5.97422-2.68384-1.6813-10.62444,2.94788-8.30659C259.44691,368.08244,255.50146,373.30594,251.343,373.61647Z" fill="#cfd8dd"/>
      <path d="M251.98194,394.75446c.17933,3.92594-5.62676,8.69474-6.176,2.76147-1.30021-2.584.31384-3.61542.34747-6.43234C249.247,388.14468,251.83622,391.57156,251.98194,394.75446Z" fill="#cfd8dd"/>
      <path d="M238.32977,380.22625c-.79581-2.95-.99757-7.94061,2.89184-7.56354,1.67009,3.23835,2.16327,11.88873-3.76611,9.92576.17934-.743.29142-1.51936.50439-2.26241Z" fill="#cfd8dd"/>
      <path d="M236.57,369.64616a142.76,142.76,0,0,0-4.21446,35.156c-3.28414-7.67444-4.23688-20.62784-3.76611-31.10811Q232.57412,371.74776,236.57,369.64616Z" fill="#cfd8dd"/>
      <path d="M226.06749,402.50653c.38109,2.14042-1.33384,5.035-2.73492,5.44531a22.65519,22.65519,0,0,1-2.847-7.40828C222.86181,397.49375,225.4398,399.05747,226.06749,402.50653Z" fill="#cfd8dd"/>
      <path d="M186.64659,446.435q1.73174-3.16071,3.67644-6.22162c11.76911-2.66166,29.63573-2.66166,29.63573-2.66166a.41831.41831,0,0,1-.19055.47688,106.583,106.583,0,0,0-12.86755,8.14023h-.01121c-9.33683,6.77614-17.90025,14.51712-30.07287,22.10285A176.23076,176.23076,0,0,1,186.64659,446.435Z" fill="#677a89"/>
      <path d="M212.74037,389.75276c.01121,2.92782-2.903,5.35659-4.37138,3.37143l.44835-.04436C206.90066,386.82494,212.718,383.45351,212.74037,389.75276Z" fill="#cfd8dd"/>
      <path d="M208.95184,410.62459l-.47076.122c-5.50346-20.36167,9.85242-3.46015,1.00878.41034C209.12,410.99056,208.99668,410.81312,208.95184,410.62459Z" fill="#cfd8dd"/>
      <path d="M204.3675,384.44054A80.71721,80.71721,0,0,0,199.29,415.64846c-2.18569-9.02745-3.6204-17.10114-1.4235-28.59063C200.05216,386.1928,202.22664,385.31667,204.3675,384.44054Z" fill="#cfd8dd"/>
      <path d="M194.26848,400.843c.35868,4.2032-7.17355,7.50809-7.30805,1.66353-1.18812-1.55263.93032-1.597.78461-3.48233A3.585,3.585,0,0,1,194.26848,400.843Z" fill="#cfd8dd"/>
      <path d="M186.44483,416.36933c.47076,2.90564-3.21689,5.26786-5.6828,5.46749a27.76233,27.76233,0,0,1-2.28657-7.29738C181.031,412.6541,185.77231,412.28812,186.44483,416.36933Z" fill="#cfd8dd"/>
      <path d="M169.90083,397.51593c.02242.01109.056.02218.07846.03327-3.1048,7.81862-3.18326,17.35622-1.49075,25.27465-3.867-6.9314-4.80852-15.08272-5.02149-23.101Q166.62789,398.65823,169.90083,397.51593Z" fill="#cfd8dd"/>
      <path d="M163.46705,399.72288c-.58285.18854-1.15449.38816-1.72613.5767-4.92061,1.64135-18.18047,5.534-29.99441,8.69474v-.01109c-3.40744-6.75395-9.617-13.8517-15.17654-18.676,7.82365-4.41391,36.02467-1.51936,53.33086,7.20866Q166.62229,398.66376,163.46705,399.72288Z" fill="#435561"/>
      <path d="M155.99087,410.93511c4.14721,3.75959-.58285,7.92952-4.57314,6.99794C145.34263,415.16049,151.74278,407.06462,155.99087,410.93511Z" fill="#cfd8dd"/>
      <path d="M147.48348,447.76579l.01121.15526c-12.41921,7.31956-16.92509,20.772-23.314,23.68875-2.634-6.16617-5.27929-12.66505-4.81973-19.36356A174.86341,174.86341,0,0,1,147.48348,447.76579Z" fill="#435561"/>
      <path d="M135.46779,408.828a.32506.32506,0,0,1-.02242-.1109c2.40987.06654,7.16234,5.09041,4.89819,7.54136-.95274,1.04248-3.34018.55451-4.38259.14417-3.25052-1.31974-2.08481-4.94625-1.13208-7.77426Z" fill="#cfd8dd"/>
      <path d="M133.61836,429.05656c-.78461-4.35846,5.8173-6.32143,6.8485-1.04248,1.17691,5.98873-9.80759,6.12181-7.30806,1.109Z" fill="#cfd8dd"/>
      <path d="M124.66263,410.8353a50.39762,50.39762,0,0,0-2.10723,24.18781c-5.06632-4.4361-5.11116-15.28235-5.08874-22.46882C119.55147,412.09959,122.00617,411.51181,124.66263,410.8353Z" fill="#cfd8dd"/>
    </g>
  </g>
</svg>
