<svg xmlns="http://www.w3.org/2000/svg" xmlns:xlink="http://www.w3.org/1999/xlink" width="640" height="740" viewBox="0 0 640 740"><defs><symbol id="Anita-2" data-name="Anita" viewBox="0 0 175.149 524.845"><path d="M81.01464,504.78569s-26.00025,18.99623-30.35181,11.83876c-1.57275-2.587,4.2981-4.93335,5.02509-5.21326-6.10877,1.11129-18.30725,5.55371-14.10877,10.71546,7.85051,9.65161,36.3125-9.5,36.3125-9.5.875,2.6875,0,9.125,0,9.125h3.625C83.638,513.04569,82.925,506.06881,81.01464,504.78569Z" fill="#050606"/><path d="M80.31768,503.50165s-5.80289-103,1.574-152.25l-12.25,1.25c-2.54513,40.24756-.80293,93.60718,4.87314,151,0,0-9.56064,4.4375-21.03513,8.75-1.21723.45748-4.38957,1.78577-2.8168,4.37273,4.35154,7.15758,27.193-6.94333,29.49083-8.41747C81.51294,507.33492,81.469,504.74481,80.31768,503.50165Z" fill="#fdd9cd"/><path d="M88.91977,504.78569s26.00025,18.99623,30.35181,11.83876c1.57275-2.587-4.2981-4.93335-5.02509-5.21326,6.10877,1.11129,18.30725,5.55371,14.10877,10.71546-7.85051,9.65161-36.3125-9.5-36.3125-9.5-.875,2.6875,0,9.125,0,9.125h-3.625C86.2964,513.04569,86.61511,506.30126,88.91977,504.78569Z" fill="#050606"/><path d="M89.61673,503.50165c2.37317-52.74744,2.01169-103.61-1.574-152.25l12.25,1.25c2.54513,40.24756.80293,93.60718-4.87314,151,0,0,9.56064,4.4375,21.03513,8.75,1.21723.45748,4.38957,1.78577,2.8168,4.37273-4.35154,7.15758-27.193-6.94333-29.49083-8.41747C88.42147,507.33492,88.46543,504.74481,89.61673,503.50165Z" fill="#fdd9cd"/><path d="M132.27136,295.503s-6.17137,5.33195-7.8242,8.76424c-1.25374,2.60353-2.47217,7.81771-4.72217,11.23438,2.11782,1.08023,3.58107.7183,4.66929-.52725,2.10187-2.40575,2.80462-7.42524,4.12237-6.93109L126.55832,326.71s-4.125,5.625-3.875,9,1.87169,3.03923,1.87169,3.03923a98.73391,98.73391,0,0,1,7.87831-12.99756c.35908,1.88874-5.15588,8.61834-4.8847,12.36784a2.65832,2.65832,0,0,0,1.7597,2.17384l2.625-3.75c-.25059,3.07063,3,2.5,3,2.5,1.1341-6.28082,4.23359-11.82421,7.32614-17.37023a205.90232,205.90232,0,0,0-1.90913-25.70569Z" fill="#fdd9cd"/><path d="M36.46392,293.33636s6.17137,5.332,7.8242,8.76425c1.25374,2.60352,2.47217,7.8177,4.72217,11.23437-2.11782,1.08023-3.58108.7183-4.6693-.52725-2.10186-2.40574-2.80461-7.42524-4.12236-6.93108L42.177,324.54331s4.125,5.625,3.875,9-1.87169,3.03923-1.87169,3.03923A98.73623,98.73623,0,0,0,36.302,323.585c-.35907,1.88874,5.15589,8.61835,4.88471,12.36784a2.65834,2.65834,0,0,1-1.75971,2.17385l-2.625-3.75c.25058,3.07062-3,2.5-3,2.5-1.13409-6.28082-4.23358-11.82422-7.32614-17.37024A205.90118,205.90118,0,0,1,28.385,293.80075Z" fill="#fdd9cd"/><rect x="74.51479" y="193.00165" width="19.37686" height="60" fill="#7e1618"/><rect x="74.51479" y="253.00165" width="19.37686" height="103.03125" fill="#268ac5"/><path d="M22.30834,87.91827C25.093,77.43469,16.94011,71.94006,22.17376,64.058c-.07062-4.1463,1.391-8.1499,5.569-10.21844-9.35,4.58319-13.201,9.63788-13.23743,14.57953-.0517,7.00348,6.29755,13.78,4.63635,18.66583-.94647,2.78375-5.5365,3.36823-14.86981,6.86823s-.4635,20.79846-.4635,20.79846S2.54717,104.94061,4.975,100.085C6.975,96.085,21.00213,92.83588,22.30834,87.91827Z" fill="#d2a02b"/><path d="M56.975,10.41831C40.647,17.416,43.64165,45.085,27.74273,53.8396c-6.33261,3.1353-6.44816,10.714-4.39908,16.50129,1.5969,4.51018,4.53755,8.26425,5.048,10.41076,3.25,13.66666-29.41669,13.5-17.25,36,4.69068,8.6745-8.25,22,1.5,32,.07727.08722.15961.16357.23749.24951-3.78516-12.2757,5.09582-16.58289,5.26251-24.74951-.16669-7.66669-8.40307-17.23621,8.16669-22,13.33331-3.83338,11.33331-15.5,8.66662-29.5-2.17163-11.40088,4.33338-12.83338,9.66669-17.83338,6.79273-6.36816,6.16667-29,14.33331-32.83331,12.1319-5.69461,27.629,5.89649,28.54584,6.79993.11182.09582.17255.15045.17255.15045S74.55832,8.16831,56.975,10.41831Z" fill="#9c712a"/><path d="M87.69335,29.03534s-.0509-.04523-.12927-.113C87.64245,28.99017,87.69335,29.03534,87.69335,29.03534Z" fill="#fdd9cd"/><path d="M87.63231,28.94055l-.03039-.04657Z" fill="#fdd9cd"/><path d="M87.69335,29.03534l-.02063-.03229Z" fill="#fdd9cd"/><path d="M87.2362,28.34943l.009.01306Z" fill="#fdd9cd"/><path d="M58.975,22.085c-8.16662,3.83331-7.54058,26.46515-14.33331,32.83331-5.33331,5-11.83832,6.4325-9.66669,17.83338,2.66669,14,4.66669,25.66662-8.66662,29.5-16.56976,4.76379-8.33338,14.33331-8.16669,22-.16669,8.16662-9.04767,12.47381-5.26251,24.74951-.07788-.08594-.16022-.16229-.23749-.24951,15.5,17.5,43.5,8.5,43.5,8.5-8.25-27.5-10.30017-60.33136-4.25-97.25C57.14849,41.30048,67.13443,24.22693,83.10546,25.861,78.14165,21.91833,67.40069,18.12994,58.975,22.085Z" fill="#d2a02b"/><path d="M87.52123,28.88525l-.00024-.00018a32.65776,32.65776,0,0,0-4.41553-3.024C66.95109,24.12748,57.10051,41.47119,51.89165,60.00165c-.05261.32092-.09326.6358-.14465.95611,11.4591-.52063,21.91357.75159,29.228,7.6272,1.72919-2.95831,5.32294-2.89581,6.71839,0a23.40006,23.40006,0,0,1,8.98871-6.16046C87.917,52.85248,96.242,37.47943,87.52123,28.88525Z" fill="#fdd9cd"/><path d="M172.24285,91.40314c-1.86829-1.90961-7.97553-1.43592-11.6012-2.15149-6.36755-1.25672-7.5-4.57178-5.75-24.5.91956-10.47162-24.37848-8.55231-26.75-25.5C126.40337,26.82928,116.34874,7.25,97.59874,0,87.60149,1.96375,80.17858,8.13324,76.74962,11.50165c0,0-7.78442-2.74768-15.51684-1.17932,15.4024,1.16412,26.46057,18.713,26.46057,18.713s-.06061-.05457-.17212-.15009c8.81958,8.69159.19293,24.32062,9.45373,33.8664,7.73035,7.9682,20.66669,8.25,20.66669,8.25.47492,51.03-1.852,74.81311-5.84175,88.35644,0,0,32.81181,9.48061,48.34175-4.60644,12.53147-11.36716,1.59351-24.61945-2.25-31.75-2.075-3.84961,4.09094-9.0235,4.75-18.25.5-7-6.39789-8.86408-11.5-14.5625-9.625-10.75-4.25-28.6875-4.25-28.6875,8.25,6.9375-3.1875,24.75,11.5,30,16.52759,6.18219,14.75,18,14.75,18S178.20745,97.49933,172.24285,91.40314Z" fill="#d2a02b"/><path d="M116.53789,127.16315c.5791-9.0708.95862-19.82,1.09931-32.57819-.01191.00488-.02564.00745-.03766.01221-3.34784,23.75342-13.7854,35.62854-26.079,40.06329l-.29035,13.49945a69.04329,69.04329,0,0,0,21.60358,7.28308C114.43273,148.70233,115.69811,139.73608,116.53789,127.16315Z" fill="#b97d2b"/><path d="M44.14165,83.25165c2.17189,10.20556.11208,15.65-2.25,18.75-3.71093,4.8703-12.11789,7.02516-14.75,12.75-5,10.875,8.25,14.25-4.125,29.25-8.86688,10.74773,6.625,20,6.625,20" fill="none" stroke="#f7c759" stroke-linecap="round" stroke-miterlimit="10" stroke-width="1.5"/><path d="M41.26665,68.00165S39.166,89.75435,48.52586,93.6573c12.73329,5.30958,36.74079-9.36168,32.24079-23.28065C64.51665,59.87665,41.26665,68.00165,41.26665,68.00165Z" fill="#fff"/><path d="M117.63921,94.33215C104.38,95.6731,85.39263,84.4223,87.69335,71.585a4.51563,4.51563,0,0,0-6.5517,0,8.85853,8.85853,0,0,1,.11762,1.173c.00195.01922.00091.03826.00274.05749.02368.25189.02942.50311.0362.75458.005.173.01385.34625.01086.51874-.00421.233-.02228.46508-.0404.69744-.01392.17621-.02607.35236-.04792.52771-.03247.26569-.07818.52991-.12805.79419-.02209.11408-.0426.22828-.068.342C78.51238,88.03485,59.78,97.98444,48.85357,93.7749,52.975,117.00165,65.6881,132.5921,77.7846,135.678l.27929,22.94843-5.58567,1.58549,5.63953,32.78975c6.54377,4.64637,13.45441.45269,13.45441.45269l3.71948-33.62413L91.031,157.42444l.4896-22.764C103.8604,130.20905,114.33245,118.26477,117.63921,94.33215Z" fill="#fdd9cd"/><path d="M77.7846,135.678c-6.03058-1.53845-12.14478-6.01593-17.33765-13.24054-5.25275-7.19318-9.50568-16.9372-11.58478-28.61755l-.00952-.04535c-.07526-.02906-.154-.05164-.22852-.082-.06085-.021-.09826-.03528-.09826-.03528-3.1214,16.82086,3.31219,52.47839,7.22607,61.81793a121.79475,121.79475,0,0,0,22.312-6.68408Z" fill="#b97d2b"/><path d="M96.975,62.75165c-.10375-.10694-.1936-.21869-.2929-.32715A23.40006,23.40006,0,0,0,87.69335,68.585c-1.39545-2.89581-4.9892-2.95831-6.71839,0-10.03771-9.43561-25.98284-8.32941-42.33331-6.5v8.66669c16.10956-5.17249,30.875-5.5,42.5.83331a4.536,4.536,0,0,1,6.5517,0A29.09223,29.09223,0,0,1,102.24559,66.756l-.01019-.01074A23.01892,23.01892,0,0,1,96.975,62.75165Z" fill="#3a2313"/><path d="M117.64165,71.00165a36.94925,36.94925,0,0,1-15.51752-4.32355c.03742.0213.0738.04608.11127.0672l.01019.01074A30.06358,30.06358,0,0,0,87.69335,71.585C85.39266,84.42233,104.38,95.6731,117.63921,94.33215,117.71611,87.19421,117.7202,79.44507,117.64165,71.00165Z" fill="#fff"/><ellipse cx="67.40435" cy="76.00165" rx="5.6377" ry="5.41667" fill="#166166"/><path d="M54.26665,71.00165l4.9375,2.8125c4.6875-3.22917,10.1875-2.8125,15.75-1.0625-2.375-3.13689-8.89583-4.8125-16.375-1.16669Z" fill="#230e0e"/><ellipse cx="101.06646" cy="76.00165" rx="5.6377" ry="5.41667" fill="#166166"/><path d="M114.20415,71.00165l-4.9375,2.8125c-4.6875-3.22917-10.1875-2.8125-15.75-1.0625,2.375-3.13689,8.89584-4.8125,16.375-1.16669Z" fill="#230e0e"/><path d="M88.00237,82.75165l.47262.41666s2.16667,9.55356.33333,12-13.02673,1.62851-14.16667,0C73.475,93.50165,80.6986,83.8418,82.2643,76.00165l.54224.9262C79.71773,86.79193,75.46,93.11876,76.89165,94.191c1.75,1.31067,10.57825,1.90711,11.36072-.43933C89.225,90.835,88.00237,82.75165,88.00237,82.75165Z" fill="#d35052"/><path d="M99.89165,100.87665c-7.625,9.91968-21.13686,12.32027-30,7.47527,4.33988-.855,8.74089-4.674,12.68763-1.08448a6.44239,6.44239,0,0,1,3.57164-3.36152C89.5128,102.59492,94.23919,105.114,99.89165,100.87665Z" fill="#ae262a"/><path d="M82.978,106.65936l-.34284.07056c.07581.07184.15576.12842.22955.20758C82.86467,106.9375,82.901,106.83209,82.978,106.65936Z" fill="#d24f51"/><path d="M72.42919,109.3302c.9,2.17145,4.784,7.65654,13.21246,7.17145,8.6875-.5,9.75-7.5625,10.14142-11.44086C88.474,110.76642,79.45311,112.09839,72.42919,109.3302Z" fill="#d24f51"/><path d="M74.975,157.66833c7.66014,68.83332,6.79733,146.33332-.76045,228.41669-12.97852-.88415-25.00661-3.09131-35.57288-7.33337C55.39571,308.90088,64.74839,245.23943,58.936,184.03105c0,0-15.961,40.05391-17.80637,102.7206-6.11829.90372-14.488,0-14.488,0,.502-58.04663,14.488-99.33332,30.66667-124.48456C69.89165,160.335,74.975,157.66833,74.975,157.66833Z" fill="#fff"/><path d="M26.64165,286.75165v9.05743s8.18982.77942,14.488-.47961v-8.57782C35.01134,287.65533,26.64165,286.75165,26.64165,286.75165Z" fill="#7e1618"/><path d="M94.439,157.66833c-7.79733,69.83332-6.74563,148.33332.76046,228.41669,12.97851-.88415,25.0066-3.09131,35.57287-7.33337-18.38066-67.75-26.10674-133.51222-20.29436-194.7206,0,0,15.961,40.05391,17.80636,102.7206,6.1183.90372,14.488,0,14.488,0-.502-58.04663-14.488-99.33332-30.66667-124.48456C99.52231,160.335,94.439,157.66833,94.439,157.66833Z" fill="#fff"/><path d="M142.77231,286.75165v9.05743s-8.18982.77942-14.488-.47961v-8.57782C134.40262,287.65533,142.77231,286.75165,142.77231,286.75165Z" fill="#7e1618"/><path d="M69.23751,159.7352l1.25766-.37711c-2.35889,11.52057-3.63851,24.45978-2.47852,36.81024a33.67611,33.67611,0,0,1,8.22463,4.05927l-6.34963,16.52405c7.08334,8.66666,10.18882,21.17156,10.18882,21.17156v2.2784S74.43332,225.21,66.93332,219.21l7.875-18.41663a35.80172,35.80172,0,0,0-9.625-3.25A282.582,282.582,0,0,1,69.23751,159.7352Z" fill="#84c0e9"/><path d="M100.26693,159.75073l-1.31212-.39264c2.35888,11.52057,3.6385,24.45978,2.47851,36.81024a33.676,33.676,0,0,0-8.22462,4.05927l6.34962,16.52405c-7.08333,8.66666-10.25449,21.308-10.25449,21.308l-.05276,2.63552S95.01666,225.21,102.51665,219.21l-7.875-18.41663a35.80184,35.80184,0,0,1,9.625-3.25A282.94834,282.94834,0,0,0,100.26693,159.75073Z" fill="#84c0e9"/><path d="M129.89165,93.65729a5.59156,5.59156,0,0,0,2.58179,2.10229c.40063.17768.98932-.14258.51678-.63135a4.23591,4.23591,0,0,1-1.3952-4.3681c.61127-4.777,1.54663-15.34186-.20337-20.17517-2.73541-7.55493-8.79123-6.5163-15.47528-15.83331-7.43455-10.36316-2.6737-17.64862-8.10805-29.16669-2.83877-6.01678-8.81268-13.93695-22.98295-20.4295a47.2024,47.2024,0,0,0-7.14508,5.46161c7.01123,4.0047,22.21136,15.12408,24.23272,24.8944,1.84293,8.9079,2.42908,17.15961,5.189,21.45,4.6897,7.29,14.46863,11.18756,18.78961,13.21716C131.77611,72.94263,128.64165,91.56293,129.89165,93.65729Z" fill="#9c712a"/><path d="M88.79268,2.97744c33.94685,15.07993,29.11026,38.87335,34.51564,46.44087,5,7,16.53754,8.13827,18,19.16665,1.464,11.03993-.05209,18.55632,4.41667,24.32233,5.5,7.09662,9.75,8.67769,9.08333,16.17769-.91467,10.29007-9.16667,10.16667-7.5,18.5s20.16667,18.83333,4.33333,39.5" fill="none" stroke="#f7c759" stroke-linecap="round" stroke-miterlimit="10" stroke-width="1.5"/><circle cx="95.78851" cy="259.31516" r="2.79167" fill="#84c0e9"/><circle cx="98.28851" cy="290.06516" r="2.79167" fill="#84c0e9"/></symbol><symbol id="Carbonita-2" data-name="Carbonita" viewBox="0 0 189.732 556.502"><path d="M70.70977,536.44237S44.70952,555.4386,40.358,548.28113c-1.57275-2.587,4.2981-4.93335,5.02509-5.21326-6.10877,1.11129-18.30726,5.55371-14.10877,10.71546,7.85051,9.65161,36.3125-9.5,36.3125-9.5.875,2.6875,0,9.125,0,9.125h3.625C73.33314,544.70237,72.62011,537.72549,70.70977,536.44237Z" fill="#050606"/><path d="M70.01281,535.15833s-5.80289-103,1.574-152.25l-10.25,1.25c-2.54514,40.24755-1.05293,93.60717,4.62314,151,0,0-11.31064,4.4375-22.78513,8.75-1.21723.45747-4.38958,1.78576-2.8168,4.37273,4.35154,7.15758,27.193-6.94333,29.49083-8.41747C71.20807,538.99159,71.16411,536.40149,70.01281,535.15833Z" fill="#e0deb4"/><path d="M78.6149,536.44237s26.00025,18.99623,30.35181,11.83876c1.57275-2.587-4.2981-4.93335-5.02509-5.21326,6.10877,1.11129,18.30725,5.55371,14.10877,10.71546-7.85051,9.65161-36.3125-9.5-36.3125-9.5-.875,2.6875,0,9.125,0,9.125h-3.625C75.99153,544.70237,76.31024,537.95794,78.6149,536.44237Z" fill="#050606"/><path d="M79.31186,535.15833c2.37317-52.74744,2.01169-103.61-1.574-152.25l10.75,1.25c2.54513,40.24755.80293,93.60717-4.87314,151,0,0,11.06064,4.4375,22.53513,8.75,1.21723.45747,4.38957,1.78576,2.8168,4.37273-4.35154,7.15758-27.193-6.94333-29.49083-8.41747C78.1166,538.99159,78.16056,536.40149,79.31186,535.15833Z" fill="#e0deb4"/><path d="M52.83348,290.97186c-3.9967,45.20209,5.13236,92.93647,1.0033,135.93647,11.61176,4.62927,25.32587,5.37109,40.41666,0-3.81186-49.815,4.83334-90.73438,0-135.93647Z" fill="#4a5666"/><path d="M154.33678,148.18854c-5.48675,14.36615-12.61591,28.36755-23.14008,41.08514-10.575,12.779-23.85961,22.30127-35.68487,37.574H80.62151l-6.47223,32.18567-10.066-32.18567H52.95519C43.96178,265.40833,17.00341,276.90833,14.83678,336.174H26.71837a153.6665,153.6665,0,0,1,24.73987-79.18909c.58649,11.3451-1.25623,28.42585-3.54028,46.54847,4.70147,4.75494,10.97473,7.63232,17.91882,9.70831l8.3833-18.83331L82.43914,313.023A41.875,41.875,0,0,0,98.271,303.53333a556.26317,556.26317,0,0,1-4.01751-62.125c7.98041-15.5,17.08288-20.05066,29.95184-31.71979,13.4068-12.1568,30.46478-29.4469,41.63147-58.43219Z" fill="#20252c"/><path d="M64.08324,226.34766l-5.95978.5c-1.01617,13.894,3.21332,31.394,3.21332,31.394a82.50926,82.50926,0,0,1,8.7334-12.251Z" fill="#758aa2"/><path d="M80.62151,226.34766,76.62175,246.7381a62.061,62.061,0,0,1,7.715,11.50354s4.5-19.33331,2.10687-31.394Z" fill="#758aa2"/><rect x="14.83678" y="336.17395" width="11.95784" height="12" fill="#758aa2"/><polygon points="158.277 138.237 155.196 148.418 165.837 151.256 169.184 141.471 158.277 138.237" fill="#758aa2"/><path d="M180.92033,52.586a7.62433,7.62433,0,0,1,2.00264,8.14409c-2.13615,7.076-5.90158,13.11855-6.40845,16.55518-.77377,5.24613-3.33774,17.35625-3.33774,17.35625s4.18172-2.775,5.78383-1.30635-.68089,4.91111-.68089,4.91111,5.04378-3.19677,6.51239-1.39812-1.86914,6.605-1.86914,6.605,5.1056-2.82646,6.49-.66755c2.05466,3.20423-6.49,9.07865-6.49,9.07865s-7.61,10.14673-12.6834,14.95307c-3.39088,3.21241-3.48547,13.933-3.48547,13.933l-5.66568-1.67974s3.18185-19.98526,2.74269-24.00206c-.80106-7.32686-6.78716-9.12429-6.809-12.81692-.01815-3.07072,5.174-13.09507,4.89272-14.59106-.62042-3.29922-3.29061-4.38473-4.75921-6.637,0,0,2.818-2.35744,7.47653.534,3.87178,2.40317-1.76393,13.16814-1.94219,14.7229-.30211,2.63489,2.47623,5.437,3.94484,5.03652s4.67283-16.55519,4.53932-18.69134,5.34039-13.75149,6.14144-16.15466S179.0512,52.98655,180.92033,52.586Z" fill="#e0deb4"/><path d="M172.49934,94.42606l1.25869.50347s-8.65463,12.0649-5.54625,13.4163c1.31719.57265,9.658-10.4374,9.658-10.4374l.923.83913s-10.49483,11.11149-8.89351,12.91077c1.85683,2.08637,12.56843-8.59965,12.56843-8.59965l.77245.80755s-8.84088,9.7296-6.96588,10.7921c2.14011,1.21272,9.375-5.75,9.375-5.75l.342.51162s-8.85189,8.61525-10.77949,6.73838c-2.375-2.3125,3.52811-8.03764,3.52811-8.03764s-7.09061,6.97514-9.55549,4.91264c-1.34932-1.12905,0-3.4375,0-3.4375s-2.21225.89687-2.91012-.125C164.52428,106.90833,172.49934,94.42606,172.49934,94.42606Z" fill="#b49a71"/><path d="M16.67011,348.174h6.5s-1.24568,4.98389.58334,6.98438c2.66666,2.91666,6.35175,3.55166,7.51841,5.21832s.25414,11.43156,1.98159,12.94834a10.50847,10.50847,0,0,0,7.83333,2.33334s-3.58333,6.16666-7.16667,4.33333-3.48458-10.39722-3.75-12.16667c-.5-3.33333-6.14379-4.61755-6-3.58333,1.08334,7.79169-1.14634,21.26324-.22967,22.34658s9.72967,7.15342,10.89634,6.98675,4.08333-6.66666,9.16667-5.66666c1.47419,1.15371-2.86885,6.202-4.95265,8.47139a2.2926,2.2926,0,0,1-2.47243.601c-10.27556-3.7159-15.17025-6.18811-15.85708-6.90571-.71784-.75-1.13451-11.16666-1.13451-11.16666-1.28482,2.61938-2.06992,6.61315-2.5,11.58331,0,0,7.75,4.16669,12.75,10.25006,0,0,8.41667,0,9.66666,4-3.41666.33329-9.66666-.25-11.5.5-3.92853-4.5647-14.33332-13.25006-14.33332-13.25006-.1297-3.83659,1.16666-9.41665,1.58332-12,0,0-6.5,10.66669-6.41666,11.25s7.364,9.91536,7.364,9.91536,5.57621-.41536,6.21933,1.83464c0,0-6.91666,1.82522-7.58333,1.49594s-10-13.57927-10-13.57927c-1.91667.83333,7.11415,11.91935,5.58334,12.5-2.41667.91666-10.25-11.33334-10.41667-12.75s5.75-5.41667,9.16667-11.83332C11.58678,364.90833,15.93387,357.7774,16.67011,348.174Z" fill="#e0deb4"/><polygon points="3.947 391.022 5.476 390.752 9.753 382.075 3.947 391.022" fill="#b49a71"/><circle cx="73.9701" cy="269.56021" r="2.79167" fill="#c1d8ec"/><circle cx="73.9701" cy="284.56021" r="2.79167" fill="#c1d8ec"/><path d="M102.71178,158.03333c0-29.98426-13.94269-48.27442-30.06251-48.27442-19.47916,0-28.68749,22.41516-28.68749,52.39942,0,23.7637,7.05386,45.73273,19.24981,53.82726a10.25256,10.25256,0,0,1,4.46037,8.00284l.09483,2.85923H64.08325l10.066,32.18567,6.47223-32.18567H78.392l.15785-4.50418a8.132,8.132,0,0,1,3.404-6.26358C93.8685,207.38385,102.71178,182.29452,102.71178,158.03333Z" fill="#e0deb4"/><path d="M37.60485,166.99915c-.46106-.06836-.9209-.13538-1.39307-.21582-.31195-.05317-.61383-.12433-.91-.20545,1.05578,2.209,2.785,6.26764,2.785,9.16376,0,4.16669-5.5705,10.19964-5.00964,14.89282.75964,6.35718,6.42633,8.10718,3.42633,16.85718,0,0,3.66662-6.58331,3.33331-9.16669s-3.097-6.48932-3-8.99994c.23834-6.16668,4.4577-7.25464,4.25-11.83337C40.9558,174.60358,38.71392,171.49512,37.60485,166.99915Z" fill="#20252c"/><path d="M78.71206,162.99583l-1.03335-.60278s2.621,8.22079,1.07111,11.28329c-1.21026,2.39143-7.125,2.05688-8.875.625-1.03784-.84912-.29686-5.6999.93956-11.72377l-1.02842.56375c-2.546,5.92914-2.67238,10.68071-1.87057,11.91,1.83443,2.8125,10.68856,2.42267,12.52193-.25S78.71206,162.99583,78.71206,162.99583Z" fill="#727872"/><path d="M50.25345,194.575a124.66053,124.66053,0,0,1,23.08333-2.08333A102.605,102.605,0,0,1,94.25345,194.575s-2-5.75-7.58334-6.25-9.75,2.83334-15,2.5-10-1.91666-13.16666-1.58333C51.51041,189.97777,50.25345,194.575,50.25345,194.575Z" fill="#603d5d"/><path d="M73.33678,192.49164a127.33388,127.33388,0,0,0-20.38159,1.60516c.746,1.59058,3.07342,5.26386,8.08044,3.3086,5.96784-2.33045,16.00141-2.70569,21.71784-.49707,5.98852,2.31372,7.8078-1.48273,8.27411-2.95392A113.2793,113.2793,0,0,0,73.33678,192.49164Z" fill="#7f5982"/><path d="M74.2201,124.39422s-2.78862-20.90537,10.16915-34.83845c7.27092-7.8182,9.86625-17.43525,7.14462-22.38951-2.92855-5.33091-8.7503-8.18386-9.16623-15.09833-.99406-16.52528,10.62768-21.58774,5.2054-38.50528C83.61378,1.20979,70.31578,0,70.31578,0c5.35433,2.74166,13.521,11.075,5.54511,25.92548C66.56112,33.72913,52.61437,40.83624,60.4616,52.06793c8.248,11.8053.84555,22.0062-6.073,30.07105C45.49608,92.50493,49.91988,112.96721,74.2201,124.39422Z" fill="#20252c"/><path d="M21.58678,128.65833c2.62512.21325,5.15241.525,7.59717.92175q-.667-.73737-1.34717-1.54675c-3.29846-6.39863-3.98853-11.9314-3.09454-16.76624C27.34179,96.20581,44.47539,87.01166,47.9179,80.40833c7.41888-14.23072-2.524-15.7511,0-32.5.87744-5.82264,8.08479-10.92836,14.6878-15.261,4.837-4.116,9.29877-8.95807,10.73108-16.239,0,0-3.21313,8.83331-24.5202,17.16662-15.1283,5.91675-10.9798,16.33124-10.4798,26.999S35.6054,78.41907,20.50347,87.40833c-14,8.33331-11.69959,36.98541-8.58338,41.91662,5.27124,8.34143,10.32868,11.83643,13.07563,13.23248a27.28,27.28,0,0,1,.353-3.70245q-1.57892-.05924-3.1369-.07165Z" fill="#20252c"/><path d="M28.40142,139.01343l.0003-.001c-.56366-.03723-1.12237-.05853-1.68335-.08679C27.27922,138.954,27.83776,138.97571,28.40142,139.01343Z" fill="#20252c"/><path d="M25.34868,138.855c.45435.01709.91321.04767,1.36969.07062-.45636-.02313-.91553-.05457-1.36957-.07147Z" fill="#20252c"/><path d="M59.37847,114.16931C48.54088,103.15692,47.77062,89.85352,54.38866,82.139c6.91852-8.06488,14.32092-18.26575,6.07294-30.07105C53.38091,41.93341,64.49426,35.7994,72.938,28.26589,66.211,29.85287,48.8098,38.67181,47.4179,47.90833c-2.524,16.7489,7.91888,18.26932.5,32.5-4.56793,8.7621-33.24783,22.08331-20.08114,47.625,7.40784,8.83184,13.611,10.97552,18.53986,10.05633C48.81206,127.34479,53.11559,118.94458,59.37847,114.16931Z" fill="#565856"/><path d="M115.67009,119.075c-4.66662-14.33331-16-16.16662-16-25.5s3.71216-18.39856.76538-25.83331c-3.76538-9.5-11.33227-17.109-15.82183-29.60889,0,.00006-2.71456,4.28095-2.44353,13.35891.22608,7.57238,6.43523,10.34367,9.36375,15.6746,2.72162,4.95422.12628,14.57129-7.14459,22.38947C78.60949,95.77051,75.96386,103.369,74.8051,109.882c10.69049,1.0957,20.15851,10.31415,24.82715,25.673a125.62674,125.62674,0,0,1,15.99133-5.07672C115.97472,127.26154,116.74083,122.36371,115.67009,119.075Z" fill="#323333"/><path d="M112.70891,139.46863l.00434.00635q1.26315-.21433,2.56176-.39942C114.41008,139.19873,113.54992,139.32574,112.70891,139.46863Z" fill="#20252c"/><path d="M114.67012,82.139c3.90845-25.68195-12.08334-29.73065-12.08334-29.73065-11.5592-4.66669-12.41363-20.75165-12.41363-20.75165a22.08713,22.08713,0,0,0-3.577,11.30212c4.404,10.11266,10.58453,16.57117,13.83929,24.78284,2.94678,7.43475-.76538,16.5-.76538,25.83331s11.33338,11.16669,16,25.5c1.07074,3.28876.30463,8.18659-.04651,11.40326q5.35017-1.34409,11.0882-2.44488l-2.125,10.125c-.374.0202-.73059.0548-1.10052.07836a40.12089,40.12089,0,0,1,.14605,8.47187c3.17621-2.471,10.45447-8.77558,10.45447-24.63361C134.08678,93.24164,112.6133,95.65375,114.67012,82.139Z" fill="#20252c"/><path d="M115.30986,139.07056q3.917-.55692,8.17267-.83356Q119.221,138.50873,115.30986,139.07056Z" fill="#20252c"/><path d="M88.00344,18.40833c-3.16666,12.5-14.53985,18.34523-17.16666,28-4.29571,15.78878,12.5,14.33333,12.66667,29.33333.10754,9.679-12.327,7.48108-16.33334,22.59312-3.33333,12.57355,7.66667,25.90688,7.66667,25.90688" fill="none" stroke="#565856" stroke-linecap="round" stroke-miterlimit="10" stroke-width="1.5"/><path d="M22.50344,85.24164c-8.40787,14.78375-6.50226,29.821,1.16668,45" fill="none" stroke="#565856" stroke-linecap="round" stroke-linejoin="round" stroke-width="1.5"/><path d="M98.271,49.788s16.89913,13.1203,12.0658,26.287c-6.77283,18.45011-2.09581,26.53618,10.83333,35.33334,16.16667,11,2.16667,32.5,2.16667,32.5" fill="none" stroke="#565856" stroke-linecap="round" stroke-miterlimit="10" stroke-width="1.5"/><path d="M70.86785,154.82672c-11.92548-11.02014-29.4892-15.37494-45.51905-15.97259-1.21238,6.78485-.019,26.07536,10.863,27.9292C57.42468,170.39712,67.41115,161.659,70.86785,154.82672Z" fill="#fff"/><path d="M70.12365,156.15613l-.00031-.00025c-3.46106,5.635-11.33209,11.905-26.03247,11.441q.04531.9885.10651,1.9701C61.25345,169.73694,67.87735,162.075,70.12365,156.15613Z" fill="#8a876a"/><path d="M77.08678,154.90833c3.48871,7.09844,15.75,16.25,35.3584,11.8421,10.63357-2.39039,12.1264-21.066,11.04108-28.51374C102.89208,139.54938,88.5385,146.02777,77.08678,154.90833Z" fill="#fff"/><path d="M102.046,169.73694c.06854-.61225.1297-1.226.18793-1.84052-12.30451-.08471-20.532-5.86413-24.12018-11.22876l-.00135.001C80.96214,163.2023,90.548,168.92291,102.046,169.73694Z" fill="#8a876a"/><ellipse cx="62.88411" cy="155.83351" rx="4.99324" ry="4.57714" fill="#050606"/><ellipse cx="85.45174" cy="155.83351" rx="4.99324" ry="4.57714" fill="#050606"/><path d="M21.58678,128.65833l.625,10.125c16.875.125,35.94766,4.2348,48.65607,16.04339,3.1875-3.25,6.21893.08161,6.21893.08161,11.65738-9.04,26.306-15.60407,47.5-16.75l2.125-10.125c-21.86023,4.20513-39.93466,10.78527-49.625,22.625a3.64337,3.64337,0,0,0-5.59545-.3207C58.54025,138.60845,43.25917,130.419,21.58678,128.65833Z" fill="#3a2514"/><path d="M105.67388,167.777c-.81946.06268-1.62067.09772-2.40814.11255-1.03186,10.33852,4.13848,10.17,4.8869,14.494.52942,3.05915-3.27033,4.58832-3.87635,9.04084-.36,2.64544,2.924,9.05267,2.924,9.05267-1.90456-12.20328,2.17112-9.93681,4.09344-16.08093,1.41516-4.52315-3.574-8.07258-4.87257-10.23689C105.49185,172.61034,105.623,169.26385,105.67388,167.777Z" fill="#20252c"/></symbol></defs><title>character-carbonita-full</title><g id="Carbonita"><path d="M639.06665,433.74967c-5.8667-54.14293-45.76784-95.62292-47.69381-149.88887-.66314-18.68459,32.02864-154.86693-19.16772-208.18173C502.93623,3.544,432,170.85763,241.13218,24.3618,167.66949-32.02266,57.18826,17.913,18.3132,88.198c-52.56146,95.0296,24.73226,313.34374,24.73226,313.34374S-66.65841,624.144,69.9067,693.64352c81.7225,41.58948,212.43154,9.24078,212.4738,9.23831C324.78632,741.115,456.15972,753.7052,525.98134,722.046c49.66083-22.51769,101.34992-88.93963,72.05675-144.13151C625.627,535.10763,644.49782,483.87594,639.06665,433.74967Z" fill="#9474b4"/><use id="Anita-4" data-name="Anita" width="175.1487" height="524.84496" transform="translate(93.97951 45.93963) scale(1.23077 1.23333)" xlink:href="#Anita-2"/><use id="Carbonita-4" data-name="Carbonita" width="189.73188" height="556.50164" transform="translate(314.04704 6.8964) scale(1.23077 1.23333)" xlink:href="#Carbonita-2"/></g></svg>