<svg id="Layer_1" data-name="Layer 1" xmlns="http://www.w3.org/2000/svg" width="150" height="100" viewBox="0 0 150 100"><title>esr-logo</title><path d="M6.48423,73.60743c-.49716-.07553-1.02946.06383-1.41531-.236a4.84289,4.84289,0,0,0-2.39119-.63845c-.21986-.03874-.45458-.00958-.59075-.25526-.0629-.11347-.19327-.10329-.30559-.10762A3.972,3.972,0,0,1,.5011,71.94886a.24369.24369,0,0,1-.18263-.25637c.00315-.057.02451-.13759-.00365-.16818-.47726-.51886-.29955-1.10436-.188-1.69025.02132-.11194.00406-.24.0891-.31965A5.082,5.082,0,0,1,1.53951,68.343c5.09659-2.20009,5.82454-1.90514,7.83854-2.06917,3.25034-.26472,7.56055-.65856,10.49739,1.34739a5.64908,5.64908,0,0,1,2.28579,6.28806,10.4635,10.4635,0,0,1-2.04177,3.63724,17.74172,17.74172,0,0,1-1.42719,1.644c-.11354.11264-.24835.22222-.08693.39252.97722,1.031,1.56508,2.34426,2.43759,3.45573a34.35186,34.35186,0,0,1,5.00017,9.19139c1.19325,3.1584.45208,2.52238,1.28367,3.84532A6.39028,6.39028,0,0,1,28.555,99.41271a1.99153,1.99153,0,0,1-.02427.34261c-.04013.24355-.09933.29618-.38931.19814a7.01575,7.01575,0,0,1-2.43619-1.79078c-.87322-.811-1.83751-1.51967-2.73678-2.303a15.55471,15.55471,0,0,1-1.15231-1.19815c-1.70428-1.84169-2.91062-4.07106-4.51048-5.99667-.81944-.98629-1.70691-1.91529-2.49008-2.92584a20.53291,20.53291,0,0,1-1.97816-2.77854.48833.48833,0,0,0-.14475-.20164c-.32512-.17945-1.276.37842-1.30624.74861a19.941,19.941,0,0,1-1.71775,7.14433c-.49153,1.02083.11,2.66022-1.29605,4.02951-.20942.20394-.3061.22561-.51265-.04319a4.86964,4.86964,0,0,1-.87755-2.20114c-.33642-1.88079-1.51078-2.9051-1.5417-6.90407-.00807-1.04334-.59187-.16173-2.4152-.90318-.08942-.03634-.2085-.05312-.21466-.1753-.00625-.12385.10774-.16374.1987-.19266.76861-.24426,1.30566-.89922,2.05036-1.18968.24649-.09613.21324-.35369.19361-.56544-.33742-3.64-.70277-3.64428-.59874-4.59464.10238-.93524-.66454-2.52947.7068-3.11965a.47079.47079,0,0,0,.23932-.22929A1.64065,1.64065,0,0,1,6.48423,73.60743Zm3.32906-.53066c.18506.34416.49657.47582.58941.77562.44034,1.422,1.21684,2.77034.92605,4.35358-.01262.06872-.03117.15541.05156.18423a.174.174,0,0,0,.146-.05092,23.6158,23.6158,0,0,1,1.98515-1.66347,11.66029,11.66029,0,0,0,2.51536-3.37387c.22427-.4162.18513-.50192-.284-.58366C14.1507,72.44091,13.78354,72.578,9.81329,73.07677Z"/><path d="M135.93272,70.84042c.96609-.10725,1.93634-.18572,2.89718-.32943a11.69473,11.69473,0,0,1,3.201-.04115,5.57444,5.57444,0,0,1,1.3775.39976c.61882.2484.98608,1.258.20325,2.47054-.2901.44932-.73457.74711-1.02,1.19177a.60469.60469,0,0,1-.44212.22591c-1.539.28968-2.99758.90947-4.538,1.17347a16.19745,16.19745,0,0,1-2.30192.30872c-.62782.01653-.7693.1298-.83.76428-.19994,2.09081-.71752,2.4158.06025,2.66357,2.21016.70417,3.50023-.47579,9.64449-.51941a38.92082,38.92082,0,0,1,4.829.2792c.83359.098,1.28472,1.04783.76507,1.55166-.06086.059-.15655.09245-.19545.16143-.54788.97119-1.56847,1.26137-2.413,1.82417a10.17085,10.17085,0,0,1-1.78769.741c-1.12014.48973-1.28884.3051-7.58136,1.35841-1.11477.1866-2.18967.53931-3.30488.7032a1.34576,1.34576,0,0,1-.54426.012,4.81516,4.81516,0,0,0-2.70307.20377c-.20673.0584-.435.14514-.57976-.07638-.25268-.38674.6744-.57035-.023-.87861-1.9365-.85658.37854-1.38184-.92641-3.62606-.17949-.30864-.21029-.48886.01751-4.7464.04763-.89-.05283-1.77912.0316-2.66372.08879-.93028.011-1.87191.1284-2.79062a24.256,24.256,0,0,0,.12955-2.74547c.00816-.56658-.00431-.57057-.53847-.49407-.43608.06248-.59209.03579-.667-.11476-.07894-.15875.02478-.2807.13419-.37186.28712-.2392.19218-.416-.08994-.53359-.77875-.32462-.74361-.444-.4518-1.28405a5.43646,5.43646,0,0,1,1.35471-2.47728,1.205,1.205,0,0,0,.55025-1.05515c-.01557-.13844.07974-.33389.23746-.29621.31578.07544.46021-.1496.655-.29921a1.46437,1.46437,0,0,1,1.78286.06726,3.14187,3.14187,0,0,0,2.64812.41432,26.46622,26.46622,0,0,1,5.18413-.75211c1.44184-.08252,2.81653-.54467,5.25369.3501a.95126.95126,0,0,1,.22089,1.64046c-.02236.01749-.05269.0298-.06635.05256A4.00661,4.00661,0,0,1,144.061,64.771c-.26005.10766-.67035.48966-.17945.54534a.8119.8119,0,0,1,.16589.03327c.18734.06281.53194-.06374.53232.18918.00031.21072-.3536.15873-.54561.18537-1.48068.20539-2.93028.57883-4.40472.82329a31.56779,31.56779,0,0,0-3.75325.833.60361.60361,0,0,0-.51919.58046c-.06312.87176-.14088,1.74243-.21211,2.61358-.01681.2056.081.28863.27866.27158.16858-.01454.33784-.02084.5068-.03078Z"/><path d="M94.00843,75.7715a33.55536,33.55536,0,0,1-1.53013,8.68433c-.4753,1.2349-.02049,3.17575-.98305,4.60678-.19127.28434-.30037.27318-.50795-.02954a5.41523,5.41523,0,0,1-.794-2.10311c-.18928-.96854-.4969-1.91289-.74635-2.86959-.18824-.722-.26011-1.46647-.39329-2.19741-.22772-1.24979.17682-6.04287-.52861-10.27961-.13277-.79737-.08512-1.62884-.17422-2.4427-.09809-.89574.606-.77151.82807-1.768a8.51422,8.51422,0,0,1,.69-1.34495c.19017-.45977.644-.46974,1.02173-.55031a1.86412,1.86412,0,0,1,1.93216.9914c.36719.8298.77167.2291,1.34643.61758,2.62417,1.77373,2.46822,2.47658,3.22822,3.65129a24.9878,24.9878,0,0,1,2.96055,5.93082,1.08949,1.08949,0,0,0,.117.22582c.01118.01837.04821.02045.10019.04021.12946-.24831.00641-.50344.00648-.74659a36.01533,36.01533,0,0,0-.37492-6.518c-.0859-.8391-.1223-1.68438-.20066-2.52588a1.13634,1.13634,0,0,1,.40022-1.04171,1.10923,1.10923,0,0,0,.40161-.67834,5.0424,5.0424,0,0,1,.87066-1.64011,1.859,1.859,0,0,1,2.82964.69413c1.35967,3.26064.8528,2.85507,1.09749,6.41659a26.53231,26.53231,0,0,1-.1921,5.621,28.44414,28.44414,0,0,1-1.33383,6.03224c-.40839,1.08474.04,1.1698-.46171,3.39234a3.26082,3.26082,0,0,1-.38769.9503c-.55474.93383-.45377-.41576-1.414-.76388a2.10125,2.10125,0,0,1-.84411-.76554,15.61081,15.61081,0,0,0-1.73127-1.7035c-2.23458-2.05177-2.86655-4.42774-4.19114-6.45385-.31736-.48541-.6141-.98475-.92028-1.47772Z"/><path d="M29.63271,75.39179c-1.04034,0-1.36155.05834-1.63992-.2457a1.67472,1.67472,0,0,0-.9181-.48532,3.66281,3.66281,0,0,1-1.24216-.69279,1.62674,1.62674,0,0,1-.17517-1.82892,2.73635,2.73635,0,0,1,.90687-.81728,12.73053,12.73053,0,0,1,3.54308-1.3479c1.63891-.33627,3.17683-1.09,4.84523-1.36127,5.42141-.88156,5.46465.34362,8.47078-.01734a2.35254,2.35254,0,0,1,1.808.59489c.209.17583.22874.31047.06031.57042A3.48887,3.48887,0,0,1,43.63,71.08879c-1.54389.65338-2.64336,1.98536-5.49616,2.43149-1.79778.28115-3.57473.67738-5.33907,1.129-.27192.0696-.37348.11458-.14389.43547a7.29673,7.29673,0,0,1,1.01009,2.3932c.17389.64507.226.69874.8711.59052a12.40025,12.40025,0,0,1,3.18615-.3521,8.97042,8.97042,0,0,1,3.43459.81994.97575.97575,0,0,0,.61643.06753,2.06234,2.06234,0,0,1,1.6594.47728.3583.3583,0,0,1,.06786.57773,2.32048,2.32048,0,0,1-.95553.81216,6.63759,6.63759,0,0,0-1.25542.87159c-1.81311,1.35929-3.38138.80506-6.11545,1.96953-.53367.22729-1.19045-.04321-1.23928.60072-.33449,4.4126-1.17681,4.61771-.39342,4.58546,1.76505-.07262,3.40408-.78821,7.02712-.354a10.69476,10.69476,0,0,1,3.11557.74531c.59347.26348,1.92571-.26959,2.94719.64751.21.18857.24643.31716.00594.54392a2.645,2.645,0,0,1-1.19109.69555,8.78114,8.78114,0,0,0-1.89072.85353c-2.41642,1.26541-4.34482.78084-8.47458,2.07819a11.62937,11.62937,0,0,1-2.03908.31611.81956.81956,0,0,1-.76463-.37615c-.08557-.11107-.19682-.29945-.28673-.29379-.71183.04483-.87909-.63893-1.27632-.98949-.60132-.53067-.15427-1.49091-.3769-2.04258-1.7182-4.25758-.52493-4.56172-1.77455-10.63124-.14541-.70625-.11357-1.4519-.21715-2.17533a.7425.7425,0,0,1,.24309-.74619C29.13256,76.449,29.19836,75.79846,29.63271,75.39179Z"/><path d="M85.15421,86.111a3.68639,3.68639,0,0,1-2.7214,1.42669c-2.864.08239-6.4247,1.26509-7.63473,1.40618-.4072.0475-.941.59171-1.91693.38588-1.1658-.24589-1.73777.41521-2.00929.0948-.12745-.15042-.0206-.29888.06129-.43162.13551-.21966.00064-.33524-.1688-.39173a.6888.6888,0,0,1-.45-.96482,3.89,3.89,0,0,0-.32584-2.82827A15.00043,15.00043,0,0,1,69.19,82.04794a7.36937,7.36937,0,0,1-.0842-1.19925,37.764,37.764,0,0,0-.74237-6.27034c-.38646-1.86881.14155-2.75306-.68073-2.60508-.60854.10953-.82809.20575-.9596-.016-.08372-.14113.00108-.25028.09859-.33765.30031-.26908.12311-.4283-.134-.52492a.60785.60785,0,0,1-.406-.87905,6.58884,6.58884,0,0,1,1.29694-2.56439c1.0331-1.06365,1.11162-1.93722,1.86422-1.41156a2.923,2.923,0,0,0,2.46431.55938,44.81547,44.81547,0,0,1,7.45712-.96894,13.57728,13.57728,0,0,1,5.03974.25576c.50757.15412.91665.34887,1.01138.94729a.65935.65935,0,0,1-.10525.52829,4.26078,4.26078,0,0,1-1.89816,1.47583.91343.91343,0,0,0-.47312.27c-.36286.523-.09594.11379-9.11847,1.96809-.60109.12353-.62791.17323-.43266.77236a5.97787,5.97787,0,0,1,.1995,1.91241c.82479-.80452.65469,1.021,2.21413.79082,3.99934-.59025,4.85221-.643,6.18289-.14165,1.235.46531.7947,1.84391-.00992,2.91679a2.57278,2.57278,0,0,1-1.72371.933c-.91231.182-1.74645.63605-2.66705.80949a17.505,17.505,0,0,1-2.12539.34309c-.545.03424-1.06225.31932-1.62721.16382-.34495-.095-.054.78861-.87819,3.732-.03813.13619-.02509.28975.11875.327.42723.11049.80589.38469,1.29883.27662a24.40888,24.40888,0,0,1,7.75878-.66287c1.621.18728,1.42371-.391,2.76292.00993a.98307.98307,0,0,1,.64447,1.188c-.16524.3613-.21379.803-.574,1.06488-.08653.06292-.1873.17159-.14973.28958C84.86333,86.15944,85.01647,85.96346,85.15421,86.111Z"/><path d="M108.62206,75.28251a11.63694,11.63694,0,0,1,1.91208-7.05406,8.52169,8.52169,0,0,1,2.73469-2.52095c.99753-.61038,2.8745-1.76464,4.58539-1.7116,2.33938.0725,4.32611-.95233,4.55048-.46838.11027.23787-.15806.32265-.30682.43652-.39019.29868.19176.33334.91261.4371a.43454.43454,0,0,1,.42807.55382,1.71759,1.71759,0,0,1-.22144.77586,2.56,2.56,0,0,0-.49557,1.026c-.05048.31727-.394.48492-.61864.68018a24.92294,24.92294,0,0,1-2.59192,2.27095.9157.9157,0,0,1-.86761.16318,5.40015,5.40015,0,0,0-2.919.05637,2.37042,2.37042,0,0,0-1.23267.94074A5.60793,5.60793,0,0,0,113.3142,74.041a14.97984,14.97984,0,0,0-.05336,3.13238c.31066,2.60993,2.87981,3.67162,5.47693,3.88559a13.09094,13.09094,0,0,0,1.64447.08252c.948-.04117.70705-.84044.74271-1.86491.01268-.364-.13767-.52489-.50056-.51769a5.27039,5.27039,0,0,1-2.10009-.42615,1.21209,1.21209,0,0,1-.754-1.3738,4.23777,4.23777,0,0,1,.89467-1.61518c.53-.70981,1.28182-.662,1.9892-.8111,4.17829-.88056,4.21217-.8224,4.67644-1.08693a.41667.41667,0,0,1,.28579-.05446,1.646,1.646,0,0,0,1.33616-.11609c.18623-.105.27273.09662.23357.277a.66708.66708,0,0,0,.28149.73844c.32977.26391.23179.69715.23619,1.05122a10.81556,10.81556,0,0,1-.52391,3.38216c-.1575.50209-.32681.867-.65848.46682-.07721-.09317-.448-.47019-.67016-.3832-.21109.08267-.04845.30413-.04709.45957a6.36483,6.36483,0,0,0,.24654,1.94954c.19973.60973-.44863.7015-.137,1.48309.07592.19042.01465.43129-.20019.31455-.5684-.3089-.92266.18674-1.36893.309-.18313.05015-.3368.18707-.55209.12928a.37949.37949,0,0,0-.24423.04554,12.83618,12.83618,0,0,1-3.04074.96747c-1.33029.30453-.81578.601-2.2273.55552-4.21661-.13581-7.73861-1.93512-9.16184-5.97A11.88591,11.88591,0,0,1,108.62206,75.28251Z"/><path d="M59.51466,87.941a1.65932,1.65932,0,0,1-.87946.99618.86524.86524,0,0,0-.41377.40871,10.49923,10.49923,0,0,1-1.43434,1.69782c-.24244.29416-.64266.18079-.91345.14754a1.45005,1.45005,0,0,1-1.14764-.69151c-.90727-1.64782.02308-1.23643-.66839-2.01784-4.18376-4.72813-2.675-4.72793-6.96793-10.5868a23.42269,23.42269,0,0,1-1.43649-2.42763c-.46862-.83567.25174-.84442.077-1.85823a3.73,3.73,0,0,1,.283-1.68682c.095-.32537.43174-.46251.69268-.59472a1.7903,1.7903,0,0,1,2.21568.27914A8.80221,8.80221,0,0,1,51.02637,74.105c.942,2.09663,2.49824,3.69362,3.91226,8.32336.35931,1.17646.27109,1.18321.393,1.20212.1458.02265.16633-.13352.20574-.231.03537-.08749,2.6312-6.47815,3.187-8.15827.59589-1.80135,1.03032-4.94191,1.90718-6.95592a7.90638,7.90638,0,0,0,.32261-2.07169,9.23131,9.23131,0,0,1,.79651-3.19025c.06154-.106.09757-.26565.26092-.23687.13223.0233.11719.179.17567.26985.77774,1.20878.63315,2.61859.83637,3.95145C64.17077,74.53185,63.68306,76.23248,59.51466,87.941Z"/><path d="M126.40576.61583c-.79471-.13239-6.82242-.55864-8.46614-.01045A3.28346,3.28346,0,0,0,116.4937.23861c-7.45155-.10953-9.04167-.72133-10.44265,1.22877a17.75926,17.75926,0,0,0-5.22821-.13967,10.35465,10.35465,0,0,0-3.26533-.06713,3.35857,3.35857,0,0,0-2.34992-1.022c-7.86338-.11556-8.80862-.56343-10.179.90223A9.449,9.449,0,0,0,81.21059.405c-3.26431,0-2.754.08293-5.24966,1.01811A3.26788,3.26788,0,0,0,73.86327.41581C71.715.24169,69.299-.15061,67.82935.87427a3.28234,3.28234,0,0,0-2.34783-.872c-3.624.12934-4.49407.33116-5.35083,1.03435a4.2144,4.2144,0,0,0-3.27381-.719,13.86975,13.86975,0,0,0-2.92558-.007,4.41374,4.41374,0,0,0-4.1544,1.58761C47.60313.27065,45.07016.35739,39.80315.35739a5.05259,5.05259,0,0,0-1.45391.20292C37.55455.315,33.23-.2536,31.61269.87427a3.32532,3.32532,0,0,0-2.34784-.872C26.16056.113,25.1843.26815,24.38963.71391c-1.11-.11259-2.44387-.1919-4.10871-.23736C16.07852.40213,18.184.23365,15.186.67773A3.27133,3.27133,0,0,0,12.385,4.036c.52978,13.88929.53889,13.31148.4629,14.23569A8.3274,8.3274,0,0,0,12.92,20.76748c-.17228,1.71226.12287,3.59481,1.58656,4.55759a4.54422,4.54422,0,0,0-1.47831,2.52176c-.81392.94763-1.06375,1.818-.629,8.1224.39718,5.41039-.31593,5.29266,3.14946,8.33095A3.49648,3.49648,0,0,0,12.3931,47.8325c.27229,6.417.06339,11.05339,4.86252,12.40491a24.04657,24.04657,0,0,0,6.21239.785c5.54186,0,7.19241-.91074,8.77044-2.45058,1.10758.95136,3.43582,1.10419,4.85136,1.10419,7.767,0,6.948-2.5787,7.18785-7.03911a9.91964,9.91964,0,0,0,4.748-.84777V55.51a3.26984,3.26984,0,0,0,2.46463,3.16632,14.90293,14.90293,0,0,0,4.89782.77882c9.46562.54144,10.30962.73567,11.99284-.8057,2.44859,2.04219,5.43389,2.23171,8.57585,1.812,2.82351,0,4.7577.36678,7.60535-1.68559a3.27345,3.27345,0,0,0,2.69588,1.97c3.0792.29516,3.23034.41473,4.02519.207.79466-.07082,4.581.8112,6.14784-1.98166a12.89108,12.89108,0,0,0,3.21014.518c7.35577,0,9.9792,1.21491,12.36436-.69688,2.75766,1.58688,11.55582,2.07892,15.105.31038a4.37431,4.37431,0,0,0,3.23754-3.47777c.73441-.90378.84431-1.53156.84431-6.47115,0-7.18286.4057-6.93761-2.99387-9.91875a3.5027,3.5027,0,0,0,3.14364-3.43715c-.08169-5.87073.3508-8.98591-2.564-11.42027a9.895,9.895,0,0,0,2.39251-5.28688,45.84158,45.84158,0,0,0,.29178-6.49862C132.18761,9.78647,133.552,1.85611,126.40576.61583Z" fill="#e0da3c"/><path d="M16.14419,17.67428q0,.286-.04777.86905-.04837.58411-.04782.86906a3.18151,3.18151,0,0,0,.19114,1.14346,5.3434,5.3434,0,0,0-.09555.881,4.21781,4.21781,0,0,0,.14405,1.16629q5.16332.35778,7.75783.50064a.78131.78131,0,0,0,.36056-.76237,2.55661,2.55661,0,0,0-.024-.28543,2.501,2.501,0,0,1-.02376-.28582q0-.119.02376-.40488c.01581-.19064.024-.32519.024-.40489a15.4229,15.4229,0,0,1,.04777-1.73811,1.95523,1.95523,0,0,0-1.321-.38109,9.0985,9.0985,0,0,1-1.60907-.07157,3.93966,3.93966,0,0,1-.55262.07157.72669.72669,0,0,1-.67237-.3097l.192-2.90479a3.1019,3.1019,0,0,1,.79265-.09527,8.76124,8.76124,0,0,1,1.26025.13125,8.78138,8.78138,0,0,0,1.26132.13048,2.14961,2.14961,0,0,0,.31186-.02369.73755.73755,0,0,0,.43234-.714,2.94693,2.94693,0,0,0-.02377-.3219,2.781,2.781,0,0,1-.02377-.29732,1.152,1.152,0,0,1,.09531-.476,1.09045,1.09045,0,0,1-.14313-.57173,3.84474,3.84474,0,0,1,.07159-.61922,3.84333,3.84333,0,0,0,.07154-.61922,1.15166,1.15166,0,0,0-.09647-.476l-3.79137-.11945a.81787.81787,0,0,1-.32627-.61864q-.0363-.40421-.0599-.78559c-.01644-.14324-.0242-.23852-.0242-.28591a2.45921,2.45921,0,0,1,.10743-.58324,2.49768,2.49768,0,0,0,.10748-.60723.85562.85562,0,0,0-.21491-.548A3.61421,3.61421,0,0,1,21.707,7.888q.26649,0,.80065.03549.534.03627.80114.03608a3.69071,3.69071,0,0,0,1.18958-.16646,12.03674,12.03674,0,0,0,.24256-2.45289q0-.57193-.04778-1.14269l-.23872-.19054q-1.62417-.19007-4.25067-.26212-1.28946-.02335-1.95823-.0238-.7404-.07167-.59695-.07157a6.56063,6.56063,0,0,0-1.003.09537q-.83607.14276-1.003.16675l.09559,2.5Q16.1438,16.818,16.14419,17.67428Z" fill="#0d6936"/><path d="M34.88018,22.62727a4.57653,4.57653,0,0,0,1.91021-.30961,4.8371,4.8371,0,0,1,.0599-.96433,6.8411,6.8411,0,0,0,.08366-.86944,2.91675,2.91675,0,0,0-.03565-.3689,2.8348,2.8348,0,0,1-.03613-.36891,3.49336,3.49336,0,0,1,.08366-.60722,3.48054,3.48054,0,0,0,.08323-.631.73809.73809,0,0,0-.14312-.524,1.47369,1.47369,0,0,0,.11936-.78558,2.40112,2.40112,0,0,1,.048-.76228,18.76745,18.76745,0,0,1,.02377-2.09511q.11938-1.92861.14312-2.1193.072-2.11939.07179-2.33354V9.41162q.16667-.047.16689-.19006a.93877.93877,0,0,0-.0695-.28581c-.04618-.12681-.07862-.21434-.09739-.26174a3.3453,3.3453,0,0,0,.16689-1.14307V5.24528a.92932.92932,0,0,1-.16689-.54813,2.39616,2.39616,0,0,1,.048-.38109,2.41381,2.41381,0,0,0,.04758-.3807,1.36538,1.36538,0,0,0-.02381-.26212q-2.65092-.21414-2.72251-.21434a6.54955,6.54955,0,0,0-1.17013.09576q.11938,10.85783.1196,10.90532l-.14337.16675q-.50141-1.54761-1.45658-4.2621-.02437-.11911-1.05082-3.42912-.88372-2.80882-1.003-2.97645-.38239-.476-.57314-.69031a20.48377,20.48377,0,0,0-3.39085.28591q-.12,2.61936-.11956,5.50005,0,7.90537.35828,13.71522a15.74458,15.74458,0,0,0,2.006.16685,8.04335,8.04335,0,0,0,1.62372-.16685q-.07167-2.6427-.07159-5.21462,0-2.38069.07159-3.85731a12.9327,12.9327,0,0,0,.66873,1.719,5.71654,5.71654,0,0,0,.78809,1.55163,2.69332,2.69332,0,0,0,.25056.94324q.20268.41784.39417.84768,1.3128,3.34289,1.57594,3.86776h1.36128Z" fill="#0d6936"/><path d="M39.50329,23.10373l-.01309-.00291C39.47337,23.10257,39.47269,23.10373,39.50329,23.10373Z" fill="#0d6936"/><path d="M39.02546,19.81727q0,.85759-.04753,1.61953a1.36742,1.36742,0,0,1,.0713.476v.476c0,.46872.14817.70434.441.71207.071-.00754.55582-.03046,1.46948-.06915q1.69554-.0711,3.10479-.07109H45.76a2.57542,2.57542,0,0,0,1.30133-.38119,2.94668,2.94668,0,0,0,1.01469-.92825,7.85024,7.85024,0,0,0,1.12255-3.07173,26.78556,26.78556,0,0,0,.21491-3.28606q.02336-.23794.04758-.95243.048-.595.04753-.95244a4.11891,4.11891,0,0,0-.03565-.41678,4.09565,4.09565,0,0,1-.03569-.44037q0-.262.03569-.82167.03565-.55944.03565-.84526c0-.06306-.03933-.38128-.11887-.95253q-.02336-.809-.02333-1.21426Q49.24709,5.84032,48.05863,4.721a3.57729,3.57729,0,0,0-1.92549-.881,17.51366,17.51366,0,0,0-2.33023-.14266,12.632,12.632,0,0,1-2.18706-.16685,2.32731,2.32731,0,0,1-.76088.09527H39.78542q-1.04667,0-1.04621.80977V6.72118a2.71673,2.71673,0,0,0,.09511.78558,18.22425,18.22425,0,0,0-.09511,2.02441v4.11905q0,1.02444.14312,3.08391Q39.02573,18.794,39.02546,19.81727Zm4.11259-7.57186a5.04279,5.04279,0,0,0-.02924-.61873V11.126q.024-.35706.02376-.49977,0-1.66585.06951-2.23817a1.43759,1.43759,0,0,1,.4673-.07157,4.12472,4.12472,0,0,1,.97992.16684,2.30983,2.30983,0,0,1,.51352,1.667q0,.21386-.032.57125a5.58472,5.58472,0,0,0-.06358.595v6.57194a1.98455,1.98455,0,0,1-1.45634.59542,2.916,2.916,0,0,1-.40605-.02369,15.69911,15.69911,0,0,1-.096-1.83377q0-.476.03613-1.46458.03565-.98745.03613-1.48818Q43.18107,12.88877,43.13805,12.24541Z" fill="#0d6936"/><path d="M53.83155,22.60309a1.4704,1.4704,0,0,1,.04753-.32093,1.44365,1.44365,0,0,0,.04758-.29781q0-.83366.69274-.83346a4.91646,4.91646,0,0,0,1.17014-.07158c.032.0798.07954.11946.14356.11946A.55381.55381,0,0,0,56.1,21.15089a.55756.55756,0,0,1,.19071-.04788.21393.21393,0,0,1,.096.02418.69953.69953,0,0,1,.83587.54755q.14266.54785.28625,1.11889a5.93136,5.93136,0,0,0,1.81486.26222q1.43285.07182,1.81486.119l.16738-.09527v-.4045a15.19765,15.19765,0,0,0-.31051-2.71463q-.43-2.16669-.47783-2.71462-.09537-.80914-.54918-3.23819a28.72072,28.72072,0,0,1-.42981-3.23809q0-.45282-.02377-.6908-.09537-.49982-.16694-.76189Q59.13257,8.269,59.037,7.53094a5.45226,5.45226,0,0,1-.44175-1.92914,5.72387,5.72387,0,0,0-.4417-1.95235,1.00807,1.00807,0,0,0-.52541-.14276.60343.60343,0,0,0-.40556.14276,15.25161,15.25161,0,0,0-1.83911-.14276,11.40471,11.40471,0,0,0-1.81486.14276.66979.66979,0,0,0-.40561-.14276,1.56061,1.56061,0,0,0-.76453.3097q-.81211,4.53012-1.67173,11.37211l-.358,3.17058-.19071,1.574a1.424,1.424,0,0,0,.02382.238V20.41a8.86126,8.86126,0,0,1-.096,1.07285,8.94105,8.94105,0,0,0-.09511,1.09655,1.88028,1.88028,0,0,0,.02377.31q.332,0,1.032.02379.70031.02322,1.05626.0236a8.34038,8.34038,0,0,0,1.70878-.14315Zm.71607-5.85706A45.27431,45.27431,0,0,1,55.121,10.936l.215-.23852.21491.33369a13.58454,13.58454,0,0,1,.45358,2.83331q.31,3.00035.33427,3.21439a4.59644,4.59644,0,0,0-.59676.05978,4.65172,4.65172,0,0,1-.621.05968,1.359,1.359,0,0,1-.57338-.11946Z" fill="#0d6936"/><path d="M68.15933,18.75951q1.3128,3.34289,1.5757,3.86776h1.36128a4.57838,4.57838,0,0,0,1.91045-.30961,4.83785,4.83785,0,0,1,.0599-.96433,6.84155,6.84155,0,0,0,.08367-.86944,2.8501,2.8501,0,0,0-.03614-.3689,2.90327,2.90327,0,0,1-.03565-.36891,3.45022,3.45022,0,0,1,.08367-.60722,3.53519,3.53519,0,0,0,.08366-.631.73788.73788,0,0,0-.14356-.524,1.46926,1.46926,0,0,0,.11936-.78558,2.401,2.401,0,0,1,.048-.76228,18.98065,18.98065,0,0,1,.02376-2.09511q.11931-1.92861.14313-2.1193.072-2.11939.07178-2.33354V9.41162c.11112-.03134.16738-.09479.16738-.19006a.94471.94471,0,0,0-.07-.28581c-.04617-.12681-.07862-.21434-.09739-.26174a3.344,3.344,0,0,0,.16738-1.14307V5.24528a.92935.92935,0,0,1-.16738-.54813,2.38232,2.38232,0,0,1,.04758-.38109,2.37473,2.37473,0,0,0,.048-.3807,1.36552,1.36552,0,0,0-.02377-.26212q-2.65092-.21414-2.72251-.21434a6.55146,6.55146,0,0,0-1.17013.09576q.11931,10.85783.1198,10.90532l-.14357.16675q-.50139-1.54761-1.45682-4.2621-.024-.11911-1.05082-3.42912-.88343-2.80882-1.00276-2.97645-.382-.476-.57294-.69031a20.48092,20.48092,0,0,0-3.391.28591q-.12,2.61936-.11979,5.50005,0,7.90537.35847,13.71522a15.74513,15.74513,0,0,0,2.006.16685,8.0433,8.0433,0,0,0,1.62376-.16685q-.07137-2.6427-.07134-5.21462,0-2.38069.07134-3.85731a12.95559,12.95559,0,0,0,.66849,1.719,5.71386,5.71386,0,0,0,.78834,1.55163,2.69224,2.69224,0,0,0,.25055.94324Q67.96822,18.32967,68.15933,18.75951Z" fill="#0d6936"/><path d="M85.94469,12.45975c0-.1268-.00824-.30506-.02425-.53584-.01644-.22982-.03244-.393-.04893-.48788a18.0112,18.0112,0,0,0-2.62832-.19054,19.99394,19.99394,0,0,0-2.3846.14276,1.25274,1.25274,0,0,1,.16689.64282,6.49134,6.49134,0,0,1-.08366.85716,6.4848,6.4848,0,0,0-.08323.85774,2.27125,2.27125,0,0,0,.07406.61864,2.7773,2.7773,0,0,0,.6923.30961,1.10175,1.10175,0,0,1,.61868.42858,31.51538,31.51538,0,0,0-.18978,3.42864,7.21291,7.21291,0,0,1-1.374.14324q-.45,0-1.37364-.09488-.31065-6.60526-.31046-6.225V11.07226A17.16867,17.16867,0,0,1,79.0675,9.005a1.07647,1.07647,0,0,1,1.14588-.9976h1.14637a1.25777,1.25777,0,0,1,.57338.98657V9.6985l3.65353.047c.15865,0,.23867-.14325.23867-.42868V8.674a.49635.49635,0,0,1,.21491-.47645q-.454-1.28574-.64472-1.92866a1.23145,1.23145,0,0,0,.02376-.23852.75532.75532,0,0,0-.2862-.51157.84884.84884,0,0,1-.28674-.631,5.07279,5.07279,0,0,0-3.65348-1.21455q-.35874,0-1.06271.02409-.705.02394-1.06265.02369-.95545.381-1.91041.73819a2.77355,2.77355,0,0,0-1.52865,1.33323A13.38147,13.38147,0,0,0,74.5539,11.769q0,1.16736.31045,5.66739a5.90659,5.90659,0,0,0,2.627,4.97659,6.06128,6.06128,0,0,0,3.2955.85716,6.85444,6.85444,0,0,0,2.29225-.40488,6.26692,6.26692,0,0,0,1.76728-.95243,2.59867,2.59867,0,0,0,1.07459-1.64323q.07129-.80841.07178-1.21368.09465-1.90554.09555-2.95276a13.17363,13.17363,0,0,0-.26293-2.88157A2.38466,2.38466,0,0,0,85.94469,12.45975Z" fill="#0d6936"/><path d="M94.00687,18.54333a5.41387,5.41387,0,0,1-2.11343-.3688.91505.91505,0,0,0,.14308-.47646,1.93537,1.93537,0,0,0-.10743-.51166,1.95888,1.95888,0,0,1-.10748-.53614c0-.01557.00824-.08656.02425-.21424q0-.38041.03565-.78558a.85448.85448,0,0,1,.29862-.61884l3.43857.21434a3.76307,3.76307,0,0,0,.11936-1.16725,2.38655,2.38655,0,0,1,.23868-1.11889,1.20545,1.20545,0,0,1-.11931-.54755v-.73819a.851.851,0,0,0-.42987-.57173,5.31083,5.31083,0,0,0-.74027-.04739q-.26271,0-.81166.04739c-.36672.03192-.64473.04788-.83587.04788a4.01356,4.01356,0,0,1-1.21815-.16782L91.5354,7.77081a.60045.60045,0,0,1,.54913-.26405,4.06519,4.06519,0,0,1,.66854.09576h.38229a6.81,6.81,0,0,1,.72838.05919,6.503,6.503,0,0,0,.728.05939,1.375,1.375,0,0,0,.93146-.30913,1.90928,1.90928,0,0,1-.07178-.548q0-.23736.048-.70221.04729-.46442.04753-.67841a1.97027,1.97027,0,0,0-.03565-.3219,1.90214,1.90214,0,0,1-.03569-.29732,1.70219,1.70219,0,0,1,.02381-.24984,1.77647,1.77647,0,0,0,.02377-.25032.9303.9303,0,0,0-.3818-.85725q-4.87188-.07168-7.3075-.16637L87.404,3.364a4.16436,4.16436,0,0,0-.09555.952q0,.40551.07179,1.09568a3.07188,3.07188,0,0,0-.14362.97613,9.08222,9.08222,0,0,0,.08372.98851,5.9582,5.9582,0,0,1,.0599,1.03542V8.626q-.072,3.73911-.07179,4.38116v8.97715l1.11936.28591a5.0528,5.0528,0,0,0,1.14312.16646,1.01226,1.01226,0,0,0,.19022-.02379h.16694q.02328,0,1.59583.09537,2.14339.14219,3.40564.14267.5,0,.97628-.0237l.23867-.16646q.07065-1.59549.07135-1.905a7.71676,7.71676,0,0,0-.16738-1.69062A5.60714,5.60714,0,0,0,94.00687,18.54333Z" fill="#0d6936"/><path d="M97.40223,8.65525a2.184,2.184,0,0,1-.032.29771,2.13384,2.13384,0,0,0-.032.2983q-.03158.59629-.03157,1.76442,0,1.54979.04757,4.6133.048,3.06388.048,4.5895a22.474,22.474,0,0,1-.09559,2.90846,3.35539,3.35539,0,0,0,1.68594.38118q.42661,0,1.21034-.07157.87862-.095,1.21083-.11849.16733-2.30974.16738-3.61937a3.45044,3.45044,0,0,1,.58482.92235q.22705.52056.466,1.04093.238.52115.47739,1.08881.382.68525.85964.68577.2387,0,.68085-.0355.44167-.03569.68042-.03559.19069,0,.58527.03559.39372.0354.58482.0355.85948,0,.85968-.57134a1.33474,1.33474,0,0,0-.19114-.595q-.66873-1.1907-1.02657-1.78637-.81205-1.40413-1.05078-1.76181,1.02609,0,1.67173-1.71442a13.26523,13.26523,0,0,0,.66854-4.54791q0-.7614-.07178-2.27386-.07137-1.51149-.07178-2.25055,0-.59441.048-1.09519l-.50165-1.54747a3.75931,3.75931,0,0,0-2.364-.7381q-1.33746-.072-2.65072-.11906a2.62054,2.62054,0,0,1-.95523.16684,6.75818,6.75818,0,0,1-.87151-.08386,6.86662,6.86662,0,0,0-.87157-.083,3.85074,3.85074,0,0,0-.42981.03549,3.80841,3.80841,0,0,1-.42982.0356,2.58913,2.58913,0,0,0-1.12255.14315q0,.64431.13168,1.97934Q97.40128,7.96329,97.40223,8.65525Zm3.70106,3.61521q0-.52737.0599-1.58393.05966-1.05607.0599-1.584a3.19583,3.19583,0,0,0,.54918,0h.54913a1.198,1.198,0,0,1,.88344.3333,25.64938,25.64938,0,0,1,.21491,3.23819,9.6018,9.6018,0,0,1-.21947,2.26187,2.51916,2.51916,0,0,0-.75589.02379c-.37355.04778-.61775.072-.73115.072a1.3401,1.3401,0,0,1-.53681-.09614,1.84176,1.84176,0,0,1-.07314-.57627,1.67282,1.67282,0,0,1,.1198-.64795A7.45454,7.45454,0,0,1,101.10329,12.27046Z" fill="#0d6936"/><path d="M116.2162,22.651q.5,0,.97628-.0237l.23867-.16646q.07065-1.59549.07135-1.905a7.71676,7.71676,0,0,0-.16738-1.69062,5.6071,5.6071,0,0,0-2.04165-.3219,5.41419,5.41419,0,0,1-2.11348-.3688.91467.91467,0,0,0,.14313-.47646,1.93537,1.93537,0,0,0-.10743-.51166,1.95926,1.95926,0,0,1-.10748-.53614c0-.01557.00825-.08656.02425-.21424q0-.38041.03565-.78558a.85448.85448,0,0,1,.29862-.61884l3.43858.21434a3.76307,3.76307,0,0,0,.11936-1.16725,2.38645,2.38645,0,0,1,.23867-1.11889,1.20546,1.20546,0,0,1-.11936-.54755v-.73819a.85079.85079,0,0,0-.42982-.57173,5.31124,5.31124,0,0,0-.74027-.04739q-.26269,0-.81166.04739c-.36672.03192-.64472.04788-.83587.04788a4.01366,4.01366,0,0,1-1.21815-.16782L112.822,7.77081a.60058.60058,0,0,1,.54918-.26405,4.06511,4.06511,0,0,1,.66853.09576h.38224a6.80973,6.80973,0,0,1,.72844.05919,6.50282,6.50282,0,0,0,.72795.05939,1.375,1.375,0,0,0,.93146-.30913,1.90919,1.90919,0,0,1-.07183-.548q0-.23736.048-.70221.04735-.46442.04758-.67841a1.97139,1.97139,0,0,0-.03565-.3219,1.90122,1.90122,0,0,1-.0357-.29732,1.69985,1.69985,0,0,1,.02377-.24984,1.77149,1.77149,0,0,0,.02381-.25032.93022.93022,0,0,0-.38185-.85725q-4.87188-.07168-7.30745-.16637l-.42982.0237a4.16419,4.16419,0,0,0-.09559.952q0,.40551.07183,1.09568a3.07189,3.07189,0,0,0-.14361.97613,9.08414,9.08414,0,0,0,.08371.98851,5.9572,5.9572,0,0,1,.0599,1.03542V8.626q-.072,3.73911-.07183,4.38116v8.97715l1.1194.28591a5.0528,5.0528,0,0,0,1.14312.16646,1.01216,1.01216,0,0,0,.19022-.02379h.16694q.02328,0,1.59583.09537Q114.954,22.65049,116.2162,22.651Z" fill="#0d6936"/><path d="M119.22,23.10373l-.0131-.00291C119.19,23.10257,119.18936,23.10373,119.22,23.10373Z" fill="#0d6936"/><path d="M129.15394,12.53133q0-.262.03565-.82167.03637-.55944.03613-.84526c0-.06306-.04025-.38128-.11936-.95253q-.02328-.809-.02328-1.21426Q128.9637,5.84032,127.7753,4.721a3.57718,3.57718,0,0,0-1.926-.881,17.49974,17.49974,0,0,0-2.32975-.14266,12.63308,12.63308,0,0,1-2.1871-.16685,2.32724,2.32724,0,0,1-.76084.09527H119.5021q-1.04668,0-1.04622.80977V6.72118a2.69854,2.69854,0,0,0,.09555.78558,18.09627,18.09627,0,0,0-.09555,2.02441v4.11905q0,1.02444.14313,3.08391.14332,2.0599.14313,3.08314,0,.85759-.04758,1.61953a1.36535,1.36535,0,0,1,.07178.476v.476c0,.46872.14778.70434.44053.71207.071-.00754.55587-.03046,1.46949-.06915q1.69546-.0711,3.10479-.07109h1.69506a2.57584,2.57584,0,0,0,1.30181-.38119,2.94653,2.94653,0,0,0,1.01465-.92825,7.85636,7.85636,0,0,0,1.12255-3.07173,26.78318,26.78318,0,0,0,.215-3.28606q.02328-.23794.04753-.95243.048-.595.048-.95244a4.01858,4.01858,0,0,0-.03613-.41678A4.10635,4.10635,0,0,1,129.15394,12.53133Zm-4.306-1.80969a5.39022,5.39022,0,0,0-.064.595v6.57194a1.98426,1.98426,0,0,1-1.45683.59542,2.91892,2.91892,0,0,1-.40561-.02369,15.70668,15.70668,0,0,1-.09555-1.83377q0-.476.03565-1.46458.03564-.98745.0357-1.48818,0-.78505-.043-1.42841a5.29768,5.29768,0,0,0-.02832-.61873V11.126q.02328-.35706.02333-.49977,0-1.66585.06994-2.23817a1.43409,1.43409,0,0,1,.46643-.07157,4.12786,4.12786,0,0,1,.98035.16684,2.312,2.312,0,0,1,.51348,1.667C124.87945,10.293,124.86849,10.48312,124.84793,10.72164Z" fill="#0d6936"/><path d="M25.625,35.65585a3.29978,3.29978,0,0,0,.11243.93483q.56272,0,1.68754.11229,1.125.11246,1.6873.11191a5.84088,5.84088,0,0,0,1.98758-.29916l.4124.18725c.15,0,.2249-.087.2249-.26211a5.81478,5.81478,0,0,1,.45-2.31816l-.2249-.14934-.22509-4.29973a3.50644,3.50644,0,0,0-2.62488-2.468,15.47962,15.47962,0,0,0-2.81213-.37364q-1.01271-.11229-1.53758-.18726H21.57529a8.11193,8.11193,0,0,0-4.27488.93493,1.06686,1.06686,0,0,0-1.08754.97226q-.30031,1.19666-.71243,1.42028-.03768.71149-.0373,1.45877,0,1.57011.18731,4.29973.225,3.0665.26268,4.33725a26.07552,26.07552,0,0,0,4.27459,3.77635,34.38949,34.38949,0,0,1,4.35,3.664,10.33453,10.33453,0,0,1,.37486,2.50552,9.90135,9.90135,0,0,1-.15,1.60753,2.962,2.962,0,0,1-1.4624.37451,1.95461,1.95461,0,0,1-1.65-.56138,2.6793,2.6793,0,0,1-.26244-1.27094,4.393,4.393,0,0,0-.18755-1.53306,2.85275,2.85275,0,0,1,.15-.33659.88019.88019,0,0,0,.11267-.374c0-.14934-.088-.24858-.26268-.29916a2.70086,2.70086,0,0,1-1.06852-.18678,3.40566,3.40566,0,0,0-.9563-.2243.83675.83675,0,0,0-.26244.03753,2.13262,2.13262,0,0,1-1.08758.26115q-.225,0-.63731-.03694h-.6a1.79719,1.79719,0,0,0-.93753.2242q.14966,3.55313.2251,5.30951.11232.52391.18755.82253.37431,2.61777,1.2749,3.0283.48691.15032.75.22469a20.65513,20.65513,0,0,0,5.36217.67319,15.55142,15.55142,0,0,0,5.17481-.59833,2.71386,2.71386,0,0,0,.9-.5608,5.96694,5.96694,0,0,0,2.13729-4.93587,4.54389,4.54389,0,0,0-.05636-.57956,4.55558,4.55558,0,0,1-.05606-.57947.51861.51861,0,0,1,.33732-.56089,1.72115,1.72115,0,0,0,.18756-.6731q0-.37287-.45-.41107a.597.597,0,0,1-.07488-.26173c0-.07487.06853-.14934.20608-.22421.13711-.07486.20632-.16191.20632-.26212V47.9947a1.034,1.034,0,0,1-.33752-.74757,2.30948,2.30948,0,0,1,.0939-.542,2.35019,2.35019,0,0,0,.09366-.54262,1.38167,1.38167,0,0,0-.33757-.785,24.43046,24.43046,0,0,0-4.1997-4.41212q-1.08807-.89749-4.87484-3.77645a.62289.62289,0,0,0,.03754-.18725.55821.55821,0,0,0-.3-.42974.9005.9005,0,0,1-.37486-.42974q.45,0,.45-.26212a1.14456,1.14456,0,0,0-.0939-.35478,1.13335,1.13335,0,0,1-.09365-.35536.31441.31441,0,0,1,.18755-.26174,1.27353,1.27353,0,0,0-.26622-.33659q-.22146-.224-.22136-.3366,0-.18672.30987-.26163a1.38517,1.38517,0,0,1,.08847-.41146,1.37941,1.37941,0,0,0,.08924-.411.62241.62241,0,0,0-.22514-.41156.84712.84712,0,0,1,.80871-.5608,4.9444,4.9444,0,0,1,.51382.03744q.33028.03714.47792.03753a1.59958,1.59958,0,0,0,.51455-.075q1.32183.07517,1.32228,1.71984v1.75745Z" fill="#0d6936"/><path d="M45.975,26.27121H42.86233a4.77857,4.77857,0,0,1-1.76243.26125q-.638,0-1.87462-.13058-1.23727-.13072-1.83707-.13067a7.14355,7.14355,0,0,0-.75021.05571,7.05192,7.05192,0,0,1-.75021.05629,4.04489,4.04489,0,0,0-1.76219.22508l.22485,16.06007q0,.89954.11267,3.856.03666,2.39578.03734,3.85548a4.50931,4.50931,0,0,1-.07488.63721,4.43308,4.43308,0,0,0-.07513.67358q0,.48733.07513,1.47831.07464.99224.07488,1.47889a6.10646,6.10646,0,0,1-.15,1.46,11.79762,11.79762,0,0,0,2.72134.29955A15.60143,15.60143,0,0,0,40.8004,55.959q.29931-5.64552.2995-5.57124V49.378l.41128-.14934q.40982,0,1.64269.07438,1.0458.076,1.68026.075,3.24784,0,4.08917-1.88842a16.89169,16.89169,0,0,0,1.06382-5.58953q.03668-1.15849.03759-5.75791,0-.71063.05631-2.07568.05638-1.36365.05636-2.07471a7.64588,7.64588,0,0,0-.75026-3.58958A3.59283,3.59283,0,0,0,45.975,26.27121ZM43.86751,43.02179a3.69351,3.69351,0,0,0-1.14884.03743,11.6097,11.6097,0,0,1-1.18731.11239,1.99457,1.99457,0,0,1-.80376-.14982,2.85373,2.85373,0,0,1-.115-.8974,2.582,2.582,0,0,1,.18779-1.00969,11.50441,11.50441,0,0,1-.18779-2.24339q0-.82148.09389-2.46789.09291-1.64452.0939-2.4675a4.85546,4.85546,0,0,0,.862,0c.45024-.04961.73707-.07447.86288-.07447a1.83007,1.83007,0,0,1,1.34974.52346,36.42266,36.42266,0,0,1,.37515,5.08473A13.65684,13.65684,0,0,1,43.86751,43.02179Z" fill="#0d6936"/><path d="M62.8039,50.10742a8.50893,8.50893,0,0,1-3.31878-.57956,1.44131,1.44131,0,0,0,.2249-.74806,3.0413,3.0413,0,0,0-.169-.80376,3.0729,3.0729,0,0,1-.16854-.8413q0-.03655.03759-.3366,0-.59745.05631-1.23341a1.34308,1.34308,0,0,1,.469-.97284l5.39947.33708a5.9299,5.9299,0,0,0,.18731-1.83222,3.74694,3.74694,0,0,1,.37515-1.75746,1.88686,1.88686,0,0,1-.18736-.86035v-1.159a1.336,1.336,0,0,0-.67508-.897,8.32477,8.32477,0,0,0-1.16243-.07486q-.41271,0-1.27509.07486c-.57561.05011-1.01221.07487-1.31268.07487a6.28189,6.28189,0,0,1-1.9122-.264l-.45023-5.04265a.94409.94409,0,0,1,.86293-.41436,6.38728,6.38728,0,0,1,1.04975.14934h.6a10.63367,10.63367,0,0,1,1.14365.09362,10.34942,10.34942,0,0,0,1.14366.09363,2.15922,2.15922,0,0,0,1.46289-.48593,2.98636,2.98636,0,0,1-.11267-.86045c0-.24858.02444-.6169.07513-1.10284q.07464-.7289.07464-1.0655a3.04347,3.04347,0,0,0-.05587-.5046A2.99581,2.99581,0,0,1,65.11,28.6269a2.66322,2.66322,0,0,1,.03754-.39318,2.77192,2.77192,0,0,0,.03754-.39231,1.46187,1.46187,0,0,0-.6-1.34638q-7.65-.11172-11.475-.26116l-.67465.03734a6.5737,6.5737,0,0,0-.14977,1.49524q0,.6362.11223,1.71993a4.8357,4.8357,0,0,0-.2249,1.53315,14.1087,14.1087,0,0,0,.13144,1.55183,9.32075,9.32075,0,0,1,.09346,1.6263v.3365q-.112,5.87112-.11223,6.88009V55.51l1.75773.449a7.93665,7.93665,0,0,0,1.79531.26173,1.62027,1.62027,0,0,0,.29857-.03753h.262q.03666,0,2.50609.14934,3.36475.22474,5.34733.22479.78594,0,1.53331-.03753l.37467-.26212q.11124-2.504.11175-2.99087a12.10937,12.10937,0,0,0-.26292-2.65475A8.8078,8.8078,0,0,0,62.8039,50.10742Z" fill="#0d6936"/><path d="M78.58792,37.05785v1.365a18.28041,18.28041,0,0,0,2.87087.11239q1.82745,0,3.72905-.03752.03659-.48575.03754-1.234a46.4399,46.4399,0,0,0-.262-5.04777,14.36,14.36,0,0,0-.24318-1.83174,4.52764,4.52764,0,0,0-.431-.86045,6.27946,6.27946,0,0,0-2.46948-2.28073,6.7646,6.7646,0,0,0-3.25534-.89739,2.37474,2.37474,0,0,0-.43005.05619,2.3491,2.3491,0,0,1-.393.05571,12.09376,12.09376,0,0,1-1.42156.07487H73.9246q-3.77886,0-4.97645,2.39031-1.23451,2.539-1.2343,7.88,0,1.19579.14977,3.77162.03666.37359.0371.82156v.63528q.11269,3.13672.22534,6.31127a18.733,18.733,0,0,0,1.01221,6.08668,3.63858,3.63858,0,0,0,.6.97081,5.51978,5.51978,0,0,0,4.65018,1.97972,16.72006,16.72006,0,0,0,2.32485-.18677h3.26193a5.03173,5.03173,0,0,0,2.13754-.72929,4.34849,4.34849,0,0,0,1.61265-1.477,4.59683,4.59683,0,0,0,.41217-1.04722,17.33763,17.33763,0,0,0,.71267-2.16843,17.1595,17.1595,0,0,0,.33757-3.32746q.03659-1.6824.03754-3.36538A14.6316,14.6316,0,0,0,82.3968,44.929q-.64152,0-1.92345.03647-1.28239.03655-1.88543.03656v1.10612q0,.77388.2249,3.53774a1.96427,1.96427,0,0,1-1.23712.40527H75.85086a1.562,1.562,0,0,1-.82534-1.49234v-.55935c.02488-.24857.03754-.43544.03754-.55944a3.42163,3.42163,0,0,0-.07508-.74622,3.96057,3.96057,0,0,0,.03754-.55993,1.66387,1.66387,0,0,0-.14977-.74612,36.90978,36.90978,0,0,0-.08027-3.95384q-.107-2.79751-.10753-3.91728a15.64152,15.64152,0,0,1,.32816-3.46887,1.97843,1.97843,0,0,1,1.13007-.37355,14.99778,14.99778,0,0,1,1.82248.52347.56226.56226,0,0,0,.18168.48584q.21906.22473.43758.44889v1.92546Z" fill="#0d6936"/><path d="M87.32683,43.16968c0,.0678.00359.07022.01013.01838C87.3308,43.16523,87.32683,43.15556,87.32683,43.16968Z" fill="#0d6936"/><path d="M94.45114,45.03566V29.073q-.03732-1.00688-.03754-1.04431-.112-.74792-1.23707-.74806H90.8141l-.22534.44841a1.09757,1.09757,0,0,1-.18731.03743q-.07537,0-.44975-.48584a.79133.79133,0,0,1-.41269.1123,5.05131,5.05131,0,0,1-.63755-.0562,5.07307,5.07307,0,0,0-.63754-.0561q-.93733,0-.93709.821,0-.11229.11218.46582a6.33064,6.33064,0,0,1,.11272,1.21252q0,.70845-.11272,2.14445-.11262,1.43532-.11218,2.14493,0,.33558.18731,1.79014.03666.2613.03759,1.97692,0,1.75263-.09017,3.65459c-.066.99624-.107,1.5582-.1246,1.6971.01528.05648.04855.22091.102.50412a9.50088,9.50088,0,0,1,.11272,1.417,3.81981,3.81981,0,0,1-.11272.7645,3.84835,3.84835,0,0,0-.11218.69q0,.29916.0371.89594.038.59688.03846.82012.11343,6.1169.15166,9.21286,2.72811.26115,2.8798.29868a3.71686,3.71686,0,0,1,1.023-.11239c.20138,0,.49859.01876.88966.0561q.58732.0563.89062.05629a1.83487,1.83487,0,0,0,1.32626-.41011q.03732-.448.038-.9326,0-.48444-.07513-1.45491-.07537-.969-.07513-1.4549a3.46671,3.46671,0,0,1,.07513-.61516,3.49121,3.49121,0,0,0,.07513-.61516V51.15223a11.35084,11.35084,0,0,0-.1005-1.15623Q94.45092,47.79594,94.45114,45.03566Z" fill="#0d6936"/><path d="M107.5888,50.10742a8.50987,8.50987,0,0,1-3.31829-.57956,1.44129,1.44129,0,0,0,.22489-.74806,3.05543,3.05543,0,0,0-.16854-.80376,3.05909,3.05909,0,0,1-.169-.8413c0-.02437.01222-.13667.03759-.3366q0-.59745.05631-1.23341a1.34589,1.34589,0,0,1,.46856-.97284l5.39991.33708a5.91432,5.91432,0,0,0,.18731-1.83222,3.75238,3.75238,0,0,1,.37516-1.75746,1.88673,1.88673,0,0,1-.18736-.86035v-1.159a1.3346,1.3346,0,0,0-.67509-.897,8.31957,8.31957,0,0,0-1.16242-.07486q-.41337,0-1.27509.07486-.8627.07517-1.3122.07487a6.28291,6.28291,0,0,1-1.91268-.264l-.44975-5.04265a.94272.94272,0,0,1,.86244-.41436,6.39337,6.39337,0,0,1,1.04976.14934h.6a10.63387,10.63387,0,0,1,1.14365.09362,10.34061,10.34061,0,0,0,1.14365.09363,2.15645,2.15645,0,0,0,1.46245-.48593,3.00248,3.00248,0,0,1-.11223-.86045c0-.24858.02445-.6169.07465-1.10284s.07512-.84129.07512-1.0655a3.05341,3.05341,0,0,0-.05635-.5046,3.04089,3.04089,0,0,1-.05583-.46717,2.71887,2.71887,0,0,1,.03706-.39318,2.70154,2.70154,0,0,0,.03758-.39231,1.45982,1.45982,0,0,0-.6-1.34638q-7.64924-.11172-11.474-.26116l-.67513.03734a6.54693,6.54693,0,0,0-.15021,1.49524q0,.6362.11267,1.71993a4.8357,4.8357,0,0,0-.2249,1.53315,14.18961,14.18961,0,0,0,.131,1.55183,9.38473,9.38473,0,0,1,.0939,1.6263v.3365q-.1127,5.87112-.11267,6.88009V55.51l1.75772.449a7.93976,7.93976,0,0,0,1.79527.26173,1.61991,1.61991,0,0,0,.29906-.03753h.26195q.03666,0,2.50561.14934,3.36549.22474,5.34782.22479.78592,0,1.53331-.03753l.37418-.26212q.112-2.504.11223-2.99087a12.14061,12.14061,0,0,0-.26244-2.65475A8.81568,8.81568,0,0,0,107.5888,50.10742Z" fill="#0d6936"/><path d="M122.67174,35.61881c0,.12448.0873.22372.26243.29868a4.294,4.294,0,0,1,1.31264.18725,5.68278,5.68278,0,0,0,1.27465.2243,1.24758,1.24758,0,0,0,.3-.03752,1.747,1.747,0,0,1,1.05024-.29907c.14977,0,.362.01306.63706.03733.2751.02534.47463.03753.6.03753a1.79646,1.79646,0,0,0,.93752-.22478l-.07508-5.45827a4.43891,4.43891,0,0,0-1.08734-3.29091,1.90922,1.90922,0,0,0-.52488-.41107,3.8473,3.8473,0,0,0-.74973-.22469,20.66365,20.66365,0,0,0-5.36242-.6727,16.50738,16.50738,0,0,0-5.17457.5608,3.46374,3.46374,0,0,0-.9.59832,5.9014,5.9014,0,0,0-2.13754,4.93539q0,5.87042.49156,6.581a23.92386,23.92386,0,0,0,4.12011,4.2622q.79365.67347,4.72531,3.62662a.74388.74388,0,0,0-.11267.44889q0,.37433.05636,1.1217.05631.74848.05631,1.12208a2.36634,2.36634,0,0,1-.05631.42974,2.35663,2.35663,0,0,0-.05636.39231.78019.78019,0,0,0,.11267.41146,1.33853,1.33853,0,0,1-.63755.82244q-.48729.11244-1.01216.26221-1.35006-.07443-1.35022-1.71983V47.8828a3.35251,3.35251,0,0,0-.11131-.93532q-.59294,0-1.7976-.11181-1.20352-.11244-1.79764-.11191a6.10781,6.10781,0,0,0-2.07511.29859l-.40794-.18668q-.18524,0-.185.26261v.37538a3.21214,3.21214,0,0,1,.03754.41291,3.38224,3.38224,0,0,1-.26244,1.426l-.03754,1.72641q0,.71338.26244,2.85227a1.81129,1.81129,0,0,0,.37511.82533,3.53867,3.53867,0,0,0,2.21218,1.65155,15.38141,15.38141,0,0,0,2.81262.37548q1.012.113,1.53709.14972a2.02733,2.02733,0,0,0,.50655.01877c.21175-.01219.3559-.01877.431-.01877h2.1a7.60288,7.60288,0,0,0,4.04974-.93434,1.06655,1.06655,0,0,0,1.0873-.97226q.3-1.19579.67508-1.42086.1127-2.05584.11267-4.41211,0-1.83185-.07508-5.68345a28.55285,28.55285,0,0,0-4.27459-3.776,37.35173,37.35173,0,0,1-4.3873-3.66455,12.85559,12.85559,0,0,1-.26292-2.91639,1.87592,1.87592,0,0,1,.41269-1.45819,3.6822,3.6822,0,0,0,.46852-.03744,3.535,3.535,0,0,1,.39393-.03743,1.93025,1.93025,0,0,1,.59995.1123,1.34215,1.34215,0,0,1,.97512,1.3459q.14928,1.75827.18735,1.86965a2.97147,2.97147,0,0,1-.14977.33621A.88131.88131,0,0,0,122.67174,35.61881Z" fill="#0d6936"/></svg>