<svg xmlns="http://www.w3.org/2000/svg" xmlns:xlink="http://www.w3.org/1999/xlink" width="1200" height="680" viewBox="0 0 1200 680">
  <defs>
    <symbol id="Panda_Girl_2" data-name="Panda Girl 2" viewBox="0 0 415.61 409.32">
      <path d="M264.29983,79.04566c11.56322-20.072,20.83519-40.17075,24.8806-60.33016C303.75122,23.53093,310.4497,17.216,309.43725,0h-57.908s-46.245,38.02613-75.78741,38.3657C129.05144,38.90238,130.869,7.04586,130.869,7.04586H82.42886c-1.71264,10.69281.19921,17.64123,10.56859,15.8532C86.24331,33.29737,84.932,47.03479,90.79579,65.17418Z" fill="#1d232b"/>
      <path d="M211.40352,159.02243,262.596,82.06849l24.1101-52.18335s21.46779,3.633,26.09153,19.4862c0,0,63.85076-13.43081,49.211,26.422-5.94494,16.18346,36.33017,24.11,36.33017,24.11l-101.72448,57.798Z" fill="#842a5d"/>
      <path d="M242.77958,168.27012s35.33936,0,60.44021-6.93577,64.00813-31.29009,87.19241-36.33019c7.59631-1.65137,24.11-2.31192,24.11-2.31192,3.166-16.47063-.87426-25.08485-8.25683-30.055-46.57132,14.09636-95.03216,49.72149-114.60515,58.12835-12.0577,5.17892-42.60808,7.98624-42.60808,7.98624Z" fill="#ac487f"/>
      <path d="M244.48336,170.5316s101.63145-56.81515,99.70585-75.07008c-1.97073-18.683-12.14129-29.575-12.14129-29.575s-20.88606-4.93514-22.20717-.31131a52.131,52.131,0,0,0-1.61447,9.83734s-6.2286-1.72559-6.68728,3.54922c-.20755,2.38675,6.74518,9.96209,6.74518,9.96209-5.29236,8.30175-21.68831,5.81122-42.9936,8.28683L219.3825,172.183Z" fill="#1d232b"/>
      <path d="M121.04248,170.40325c-13.70638,5.7798-26.43936-3.96961-40.4948-3.81858s-25.88329,4.8079-34.1201,12.10287c0,0-1.57284,17.3013,2.80569,26.17317a1.98056,1.98056,0,0,1-.69344,2.59228c-4.755,2.839-7.46166-2.48187-10.25893-7.07742A67.782,67.782,0,0,1,25.97324,215.816a2.86576,2.86576,0,0,1-4.0055-.14151c-.91507-.88638-1.87483-2.42587-.7953-5.03349a15.93542,15.93542,0,0,0,.92488-8.28376l-7.11668,4.575a3.14319,3.14319,0,0,1-3.92226-.42142h0a4.53851,4.53851,0,0,1-1.11657-4.58268,13.67942,13.67942,0,0,0,3.9624-10.89865s-7.39013,2.77129-10.605,2.29311c-4.699-.69895-3-5.05711-3-5.05711l15.85328-14.3119c1.24071-13.58193,12.864-31.72227,25.76121-50.4219,17.22942-2.97247,31.59637-1.32108,46.45871-2.64218Z" fill="#1d232b"/>
      <path d="M231.68262,165.10116S284.522,115.497,264.5379,69.26723C247.03441,28.776,191.07325,35.41688,163.6011,36.87266,131.762,38.55988,72.78716,50.67791,71.80958,82.4275c-1.69357,55.00329,49.11355,86.3855,49.11355,86.3855Z" fill="#fff"/>
      <path d="M74.5575,71.77238v-.0003C86.64,47.90643,135.60628,38.35621,163.60115,36.87269c27.47213-1.45575,83.43328-8.09662,100.93669,32.39457a56.04878,56.04878,0,0,1,4.28491,27.301h0C255.39259,31.13618,111.43907,35.18549,74.5575,71.77238Z" fill="#a1d0e9"/>
      <path d="M259.88418,382.24816s18.69543,39.35927,52.23108,12.17817c30.417-24.65338-3.68689-66.83142-3.68689-66.83142Z" fill="#1d232b"/>
      <path d="M98.40819,346.01738s-26,28.671-7.8284,50.91984c25.4423,31.151,48.27514-6.2901,48.27514-6.2901Z" fill="#1d232b"/>
      <path d="M132.47049,392.44429c33.19134,14.67689,139.40368,21.26652,170.27164-44.03068,17.59349-37.21675,31.70835-78.44127,29.20838-113.22176-3.983-55.41276-71.02949-76.08023-146.71644-74.30667C114.80679,162.53549,91.976,174.7291,70.07069,198.0503,27.09677,243.80187,55.986,274.7457,68.07916,300.78858,97.28766,363.68956,99.525,377.87609,132.47049,392.44429Z" fill="#fff"/>
      <path d="M281.71821,350.16479c25.17424-62.1909,18.1665-112.48039-19.52324-151.42342-42.43176-.88-77.535,16.62011-98.23611,70.23834-7.953,3.73743-15.22379,5.19537-21.16179,2.20184-15.27887-27.54655-32.45145-46.95718-51.23443-59.44939-19.49013,6.6622-36.205,19.85656-42.54664,57.46774,0,0,8.78292,10.98842,9.57867,25.321,2.00481,36.11,8.91029,49.10078,8.91029,49.10078l4.67791-11.44948,6.23721,13.43117,10.69235-17.83486L92.231,343.62167c13.85741-22.14018,28.78753-33.7523,44.99706-32.80727l8.91025-18.27516,10.02407-1.10092,6.90556,19.81645c27.26676-.07846,55.4665,11.88989,77.07406,35.66963l6.01434-11.66971c5.79994,4.04068,11.26372,9.77452,16.484,16.73393a35.011,35.011,0,0,0,6.46017-16.51373C273.59505,336.85126,277.727,342.65136,281.71821,350.16479Z" fill="#1d232b"/>
      <path d="M264.82656,178.19632c-62.34815-14.17883-144.3049-8.20183-194.75587,19.854,21.90526-23.3212,44.736-35.51472,115.16338-37.16516,65.99065-1.54635,125.40637,13.97071,142.18846,54.69862C311.57815,199.46792,290.58164,184.05336,264.82656,178.19632Z" fill="#a1d0e9"/>
      <ellipse cx="101.62962" cy="281.74792" rx="35.62466" ry="32.52867" fill="#fff"/>
      <ellipse cx="218.45033" cy="273.35703" rx="44.96877" ry="39.9632" fill="#fff"/>
      <ellipse cx="203.28603" cy="275.61731" rx="24.87752" ry="24.49193" fill="#1f242c"/>
      <ellipse cx="111.45039" cy="280.29278" rx="22.41616" ry="21.79811" fill="#1f242c"/>
      <g>
        <path d="M125.244,251.416c4.9348-8.11916,14.35714-20.00946,14.35714-20.00946l14.35708.11305c7.80029,6.66981,12.66135,18.992,12.77453,18.992C155.41442,258.43483,140.39612,255.12848,125.244,251.416Z" fill="#1d232b"/>
        <path d="M134.13292,253.4738a41.42158,41.42158,0,0,1,2.46069-7.85979l13.70654.35925a27.79531,27.79531,0,0,1,.74609,9.36864A71.53045,71.53045,0,0,1,134.13292,253.4738Z" fill="#5d7794"/>
      </g>
      <path d="M167.92683,189.79007s3.8531-6.82568,10.2384-7.266c8.238-.56815,9.13756,14.97246,9.13756,14.97246A23.02875,23.02875,0,0,0,167.92683,189.79007Z" fill="#a1d0e9"/>
      <path d="M126.62093,218.21957c14.24893-8.06614,20.19314-9.23825,36.44041-8.91738,10.92393.21572,8.46247,10.37317,8.46247,10.37317s16.86407-21.523-4.82948-22.04291a50.938,50.938,0,0,0-20.201,3.8945C136.71413,205.28435,131.19069,211.30778,126.62093,218.21957Z" fill="#1d232b"/>
      <path d="M143.17051,208.82491l2.58327-3.647s17.56768-2.4979,27.20035-.83576c4.33616.74822.407,8.64.407,8.64s-.40094-5.43133-5.97131-5.97132A75.98736,75.98736,0,0,0,143.17051,208.82491Z" fill="#fffdf9"/>
    </symbol>
    <symbol id="Superbear-2-2" data-name="Superbear-2" viewBox="0 0 461.96 474.351">
      <path d="M42.95345,290.602s6.239-2.92764,12.62434-34.41379c5.06421-7.92658,87.41259-42.71546,87.41259-42.71546l-31.70633-54.82554c-50.50762,22.40418-56.54118,42.58608-70.334,66.18306a37.78759,37.78759,0,0,1-11.24527,12.09511A140.09461,140.09461,0,0,0,7.13766,256.62853Z" fill="#5c5c5c"/>
      <path d="M35.11022,288.25755s13.99614-17.09863,1.35446-28.95006c-11.05436-10.36334-29.79824,1.70109-29.79824,1.70109Z" fill="#9c8664"/>
      <g>
        <path d="M37.4127,275.78445c3.96837-.14519,9.33025,13.87152,7.1009,16.34858s-9.49538,3.46788-11.88987.82569S30.64208,276.03216,37.4127,275.78445Z" fill="#9c8664"/>
        <path d="M37.47846,273.78338c-.04688,0-.09279.001-.13868.002h0c-2.85742.10547-5.20019,1.98924-6.5996,5.30663-2.1045,4.99219-1.90137,12.668.40136,15.21,1.29981,1.43359,3.52344,2.22265,6.26367,2.22265h.02539c2.90234-.00488,6.67773-.95117,8.56933-3.05371,2.83985-3.15429-1.01367-11.66307-1.46191-12.623C43.02435,277.61052,40.579,273.78338,37.47846,273.78338Zm.00683,4Zm-.081,14.74119c-1.82422,0-2.89941-.46875-3.29883-.9082-.80859-.92285-1.45312-6.85351.35156-11.042.77246-1.792,1.78124-2.73046,2.999-2.79.39648.09961,1.62988,1.16406,3.043,3.91113,2.14453,4.167,2.80175,8.22753,2.46679,9.16407-.80664.80957-3.10351,1.66113-5.542,1.665Z" fill="#40413e"/>
      </g>
      <g>
        <path d="M29.65125,275.80193c3.5804,2.6853.99083,13.62381-3.633,17.3394s-13.789-2.55963-10.40363-8.58713C19.01989,278.49112,27.00907,273.82026,29.65125,275.80193Z" fill="#9c8664"/>
        <path d="M28.01654,273.342a7.59077,7.59077,0,0,0-1.56835.17383c-4.40722.92871-9.93163,5.34765-12.57811,10.05859-1.90039,3.38574-1.00586,7.373,2.28027,10.15624,2.98241,2.52636,7.75781,3.66992,11.12109.9707,3.88866-3.126,6.1328-9.789,6.05565-14.42577-.04687-2.793-.90234-4.89355-2.47559-6.07324v-.001A4.60941,4.60941,0,0,0,28.01654,273.342ZM22.69429,292.26a6.4838,6.4838,0,0,1-3.958-1.58106c-.67871-.57519-2.7832-2.64453-1.37793-5.1455,2.25-4.00586,6.76172-7.293,9.65233-8.042a2.45771,2.45771,0,0,1,1.44336-.08789c.52246.39551.84961,1.49316.873,2.93847.06641,3.98242-2.06445,9.23437-4.56151,11.2412a3.23914,3.23914,0,0,1-2.07125.67675Z" fill="#40413e"/>
      </g>
      <g>
        <path d="M22.46779,261.84784c-.96152-3.70872-9.08254-6.2752-14.03666-5.69723s-10.32107,9.7431-2.39449,13.29354C9.79079,271.1257,23.62375,266.30655,22.46779,261.84784Z" fill="#9c8664"/>
        <path d="M9.94527,254.06855a15.05216,15.05216,0,0,0-1.74511.09571c-3.74706.4375-7.45507,4.335-8.09765,8.51171-.57519,3.74706,1.28906,6.8789,5.11719,8.59374,3.81737,1.71191,12.87107-1.10742,16.83787-4.46093,2.55078-2.15528,2.68359-4.16016,2.3457-5.46289h0C23.209,256.73847,15.54879,254.06855,9.94527,254.06855ZM8.1191,267.80975a3.26977,3.26977,0,0,1-1.26465-.19043c-2.15038-.96386-3.09178-2.42285-2.79784-4.33593.39942-2.59961,2.84667-4.94043,4.60644-5.14648,4.74707-.54688,11.32421,2.11621,11.86913,4.21289.03516.13671-.17676.66015-1.05664,1.40429C16.63473,266.15546,10.93649,267.80975,8.1191,267.80975Z" fill="#40413e"/>
      </g>
      <g>
        <path d="M21.64211,269.279c1.81651,1.98164-2.14679,12.30272-6.11007,14.11923s-16.76424-8.71949-7.43118-12.30272C17.34854,267.54509,19.8256,267.29738,21.64211,269.279Z" fill="#9c8664"/>
        <path d="M18.705,266.051c-2.63768,0-6.1787,1.20313-11.32128,3.17774-3.39647,1.30371-4.35936,3.40527-4.56835,4.93749-.57715,4.21191,3.76269,7.793,5.10644,8.791,1.19726.88867,5.34765,3.67969,8.44335,2.25977,3.79687-1.74024,6.708-8.20312,7.48047-12.02245.498-2.46484.25976-4.1875-.72852-5.2666h0A5.57687,5.57687,0,0,0,18.705,266.051Zm-4.2539,15.56444A8.6891,8.6891,0,0,1,9.957,279.47771c-2.05273-1.627-3.35839-3.5957-3.17578-4.78906.126-.8291,1.17676-1.3955,2.03614-1.72558,8.20409-3.14941,10.28416-3.33691,11.25487-2.42969.543,1.95412-2.583,9.76855-5.37305,11.04687A.69268.69268,0,0,1,14.45113,281.6154ZM20.16792,270.631Z" fill="#40413e"/>
      </g>
      <path d="M123.61436,191.89483c-19.10447-18.39305-47.842-1.67578-80.40763,28.99533,12.35228-21.928,20.40354-41.09591,68.07733-62.243l6.82763,11.80589Z" fill="#40413e"/>
      <path d="M336.2612,37.70142c41.95,1.25855,48.6618,35.65735,85.15813,25.5894L371.49906,158.5169l-70.47571-37.33533Z" fill="#97864d"/>
      <path d="M300.444,214.05887C372.664,169.14161,451.24636,119.895,461.81526,71.01444c1.4248-12.69847-7.92669-40.954-18.0551-41.3944s-69.57779,108.33-69.57779,108.33L120.53172,189.91314l9.24769,25.54121Z" fill="#f6ef7d"/>
      <path d="M344.8981,22.46407c-2.33252,30.815-12.78847,46.10473-26.422,63.41269,4.73926,7.33242,3.83063,26.34977,3.74112,26.34983,6.64306.897,12.6083-2.41436,18.95708-8.76317l18.25581,5.86282-37.16186,15.69587L122.26844,75.02216c-4.58422-14.0288-7.30737-28.09067-.63574-42.31954-9.42186-1.77124-26.26883-9.16821-22.34859-18.49535,3.57383-8.503,62.75211-.44037,62.75211-.44037s5.83485,33.79807,50.42187,31.81641C249.76563,43.9252,302.2927,5.02219,302.2927,5.02219c6.42019-2.2015,70.45849-10.10653,71.33929,0C374.18991,11.42419,357.41908,22.19829,344.8981,22.46407Z" fill="#40413e"/>
      <path d="M123.284,197.50945s17.02456-1.89191,57.798-11.22933c43.266-9.90823,83.5594,7.92656,111.6328,6.27523,41.05856-3.14325,80.30572-34.75351,86.86205-70.01816,1.68649-9.07116,1.58569-16.20473-1.48624-23.28434-4.3124-9.93847-16.78068-18.336-27-19.65132-8.33941-1.07339-14.2018,7.51376-15.44033,16.0183-.39981,2.74539-.95282,6.84456,5.44952,7.9266,0,0-9,19.07334-22.37608,14.44951,0,0-.24771-22.211-13.789-37.73386C268.917,38.97352,129.12659,43.87024,106.43991,81.58319,81.00893,123.8583,123.284,197.50945,123.284,197.50945Z" fill="#5c5c5c"/>
      <path d="M134.183,186.39019c14.312-16.29356,14.53217-39.41271,43.37619-54.38508,16.20152,1.01428,33.03222,5.75121,44.25669,18.055,11.44951,12.55043,23.44953,25.21091,27.0826,29.50446C214.99016,178.2435,212.04,151.92932,181.082,153.583,165.25152,154.42858,148.71512,192.55535,134.183,186.39019Z" fill="#cbcbcb"/>
      <path d="M101.84718,16.44323c.88072-2.75228,16.10791-3.268,17.36345-.36444s-1.29712,9.62206-4.62384,10.23852S100.69239,20.05193,101.84718,16.44323Z" fill="#9c8664"/>
      <path d="M370.05515,5.42563c-1.20465-1.88079-14.26793-.00482-14.7907,2.28708s2.7485,6.82632,5.58761,6.80676S371.63468,7.89169,370.05515,5.42563Z" fill="#9c8664"/>
      <path d="M272.89825,450.16926s20.097,43.76472,56.14662,13.54125c32.69715-27.41277-3.96328-74.31173-3.96328-74.31173Z" fill="#40413e"/>
      <path d="M117.99963,402.94s-26.326,31.614-7.92659,56.14663c25.7614,34.34852,48.8806-6.93576,48.8806-6.93576Z" fill="#40413e"/>
      <path d="M155.98115,454.13255C189.00859,470.316,294.69636,477.582,325.41188,405.58223c17.50658-41.03695,31.55173-86.49306,29.06412-124.84367-3.96328-61.10073-70.67871-83.88967-145.99187-81.934-70.07945,1.81973-92.79751,15.265-114.59461,40.98-42.76168,50.44783-14.01515,84.56792-1.98169,113.28408C120.97209,422.42622,123.19834,438.069,155.98115,454.13255Z" fill="#5c5c5c"/>
      <path d="M287.68355,217.89261c-62.04023-15.63427-143.59226-9.04376-193.794,21.892,21.7971-25.71506,44.5151-39.16024,114.59463-40.98006,65.66473-1.70508,124.787,15.40477,141.4862,60.3133C334.20426,241.34765,313.31146,224.35085,287.68355,217.89261Z" fill="#40413e"/>
      <ellipse cx="143.02822" cy="353.19571" rx="33.76022" ry="35.86766" fill="#fff"/>
      <ellipse cx="254.5376" cy="353.3989" rx="38.5074" ry="37.98154" fill="#fff"/>
      <ellipse cx="237.02709" cy="354.49319" rx="21.30297" ry="20.96797" fill="#1f242c"/>
      <ellipse cx="129.04598" cy="355.07017" rx="20.17488" ry="20.30855" fill="#1f242c"/>
      <path d="M224.06306,411.1478a56.94487,56.94487,0,0,1-13.98776-19.04147c-1.34223-2.90123,2.96623-5.44406,4.31735-2.52359a53.4305,53.4305,0,0,0,13.206,18.02953c2.44285,2.10257-1.10715,5.62564-3.53554,3.53554Z" fill="#40413e"/>
      <path d="M178.17213,391.048a42.76487,42.76487,0,0,1-9.653,19.43142c-2.10213,2.44321-5.62518-1.10683-3.53552-3.53553a37.6193,37.6193,0,0,0,8.36715-17.22508c.64924-3.14933,5.46989-1.81649,4.82139,1.3292Z" fill="#40413e"/>
      <g>
        <path d="M265.46708,303.19723c-31.21529-24.76012-61.60059-25.15746-101.39423-22.12841a69.47448,69.47448,0,0,1-12.8806-17.66966s20.707-26.76286,51.35757-18.99077C248.78824,256.13313,265.46708,303.19723,265.46708,303.19723Z" fill="#9c8664"/>
        <path d="M191.50175,241.007c-25.18163,0-41.70406,20.92576-41.89156,21.16893l-.79395,1.02539.61328,1.14355a71.67287,71.67287,0,0,0,13.26659,18.17381l.64356.61132.88476-.06739c37.55466-2.85742,68.76557-3.07617,99.99991,21.70213l5.45312,4.32519-2.32519-6.56054c-.16992-.48047-17.57713-48.20895-64.31147-60.05951A46.80971,46.80971,0,0,0,191.50175,241.007Zm-37.89938,22.63475c4.07324-4.63574,22.78025-23.80467,48.456-17.29491,34.1279,8.65429,51.94332,37.44333,58.50972,50.7148-30.04881-20.89647-60.13765-20.73044-95.74891-18.05565A67.49582,67.49582,0,0,1,153.60237,263.64179Z" fill="#40413e"/>
      </g>
      <g>
        <path d="M270.93283,307.60676s-14.686-23.79771-46.66011-32.73166c-23.67822-6.616-43.52618,8.357-76.25775,1.39282L139.6578,307.955s26.11573,9.40164,33.4282,24.02645c16.3658,4.17849,36.562-1.04465,36.562-1.04465C222.88,307.955,244.81712,296.11588,270.93283,307.60676Z" fill="#9c8664"/>
        <path d="M211.1238,271.14666c-6.81542,0-13.51756,1.14649-20.4531,2.333-12.57519,2.15137-25.57908,4.376-42.2402.832l-1.86426-.39648-9.30858,35.30075,1.72265.62109c.25391.09084,25.45018,9.30665,32.31638,23.039l.40918.81739.88477.22558c16.67283,4.25683,36.71285-.82715,37.55856-1.0459l.81347-.21093.41895-.72754c14.11326-24.51365,35.52633-32.71579,58.74506-22.49705l5.88281,2.58789-3.375-5.46972c-.61621-.998-15.46874-24.56639-47.82418-33.60642A50.23927,50.23927,0,0,0,211.1238,271.14666Zm-45.11617,9.00877c9.36523,0,17.66893-1.42088,25.33789-2.73242,11.51854-1.97168,21.46482-3.67285,32.38864-.62207a84.8092,84.8092,0,0,1,41.46381,26.5449c-22.2783-6.749-43.13082,2.584-56.84662,25.8447-3.77344.86621-20.20506,4.25488-33.916,1.06152-6.96973-12.64255-26.43553-21.15818-32.38572-23.52341l7.418-28.12791a87.69375,87.69375,0,0,0,16.54,1.5547Z" fill="#40413e"/>
      </g>
      <path d="M157.13713,316.07791s-3.8036-13.20874,2.64219-15.85316c6.44035-2.6422,32.03661-5.94494,36.99072-1.98165s8.5384,8.84112,6.27522,15.52289C199.57737,324.0045,157.13713,316.07791,157.13713,316.07791Z" fill="#1f242c"/>
      <polygon points="162.257 313.766 163.082 309.142 173.486 308.647 173.816 314.426 162.257 313.766" fill="#fff"/>
    </symbol>
  </defs>
  <title>super-bear-and-panda-girl</title>
  <g id="Smyke">
    <g id="Background-2" data-name="Background">
      <rect width="1200" height="680" fill="#b3ccc8"/>
    </g>
    <g id="SuperBear-2" data-name="SuperBear">
      <g>
        <use width="415.61048" height="409.32045" transform="matrix(1.09623, 0, 0, -1.09623, 627.81071, 593.78131)" xlink:href="#Panda_Girl_2"/>
        <use width="461.95958" height="474.35109" transform="matrix(1.09623, 0, 0, -1.09623, 116.58296, 599.99978)" xlink:href="#Superbear-2-2"/>
      </g>
    </g>
  </g>
</svg>
