<svg xmlns="http://www.w3.org/2000/svg" xmlns:xlink="http://www.w3.org/1999/xlink" width="1200" height="680" viewBox="0 0 1200 680">
  <defs>
    <symbol id="Panda_Girl" data-name="Panda Girl" viewBox="0 0 415.611 409.321">
      <path d="M264.3,330.275c11.56323,20.072,20.8352,40.17078,24.88061,60.3302,14.57081-4.81543,21.26929,1.49951,20.25684,18.71551l-57.90809,0s-46.245-38.02614-75.78746-38.36571c-46.69038-.53667-44.87284,31.31985-44.87284,31.31985H82.4289c-1.71265-10.69281.19921-17.64124,10.5686-15.85321-6.75415-10.39832-8.06543-24.13575-2.20166-42.27515Z" fill="#1d232b"/>
      <path d="M211.40364,250.29817l51.19256,76.954,24.1101,52.18338s21.46779-3.633,26.09155-19.4862c0,0,63.85079,13.43082,49.211-26.422-5.94494-16.18346,36.3302-24.11,36.3302-24.11l-101.72456-57.798Z" fill="#83295c"/>
      <path d="M242.77972,241.05048s35.33938,0,60.44025,6.93577,64.00818,31.29013,87.19248,36.3302c7.59632,1.65137,24.11,2.31191,24.11,2.31191,3.166,16.47065-.87426,25.08487-8.25683,30.055C359.69427,302.587,311.23339,266.96184,291.6604,258.555c-12.05771-5.17892-42.60811-7.98625-42.60811-7.98625Z" fill="#ab477e"/>
      <path d="M244.4835,238.789s101.63152,56.81517,99.70592,75.07014c-1.97074,18.683-12.1413,29.575-12.1413,29.575s-20.88607,4.93516-22.20717.31132a52.12951,52.12951,0,0,1-1.61446-9.83735s-6.22861,1.72558-6.68729-3.54922c-.20754-2.38675,6.74517-9.96209,6.74517-9.96209-5.29236-8.30175-21.68831-5.81122-42.99362-8.28683l-45.90812-74.97231Z" fill="#1d232b"/>
      <path d="M121.04254,238.91735c-13.70639-5.7798-26.43938,3.96962-40.49482,3.81859s-25.88331-4.8079-34.12013-12.10288c0,0-1.57284-17.30132,2.80569-26.17318a1.98056,1.98056,0,0,0-.69344-2.59228c-4.755-2.839-7.46166,2.48187-10.25893,7.07742a67.78217,67.78217,0,0,0-12.30767-15.4404,2.86577,2.86577,0,0,0-4.0055.14151c-.91508.88638-1.87483,2.42588-.7953,5.0335a15.93558,15.93558,0,0,1,.92488,8.28376l-7.11669-4.57505a3.14318,3.14318,0,0,0-3.92226.42141h0a4.53849,4.53849,0,0,0-1.11657,4.58268,13.67947,13.67947,0,0,1,3.9624,10.89865s-7.39014-2.77129-10.605-2.2931c-4.699.69895-3,5.05712-3,5.05712L16.15249,235.367c1.24072,13.58194,12.864,31.72229,25.76123,50.42194,17.22944,2.97246,31.59639,1.32109,46.45874,2.64218Z" fill="#1d232b"/>
      <path d="M231.68275,244.21943s52.83943,49.60421,32.85529,95.834c-17.50349,40.49121-73.46468,33.85038-100.93687,32.39458-31.83915-1.68722-90.814-13.80528-91.79158-45.55488-1.69357-55.00331,49.11358-86.38556,49.11358-86.38556Z" fill="#fff"/>
      <path d="M74.55753,337.54828v.00031c12.08252,23.86566,61.04883,33.41589,89.04371,34.89941,27.47216,1.45575,83.43334,8.09662,100.93676-32.39459a56.04871,56.04871,0,0,0,4.28491-27.301h0C255.39274,378.18451,111.43913,374.13519,74.55753,337.54828Z" fill="#a0d0e9"/>
      <path d="M259.88433,27.0723S278.57977-12.287,312.11545,14.89412c30.417,24.65339-3.6869,66.83147-3.6869,66.83147Z" fill="#1d232b"/>
      <path d="M98.40824,63.3031s-26-28.671-7.82841-50.91987c25.44232-31.151,48.27517,6.2901,48.27517,6.2901Z" fill="#1d232b"/>
      <path d="M132.47056,16.87616C165.66193,2.19926,271.87433-4.39037,302.7423,60.90687c17.59349,37.21677,31.70837,78.44132,29.20841,113.22183-3.983,55.4128-71.02954,76.08028-146.71654,74.30671-70.42733-1.65032-93.25816-13.84393-115.16345-37.16515C27.09677,165.51867,55.986,134.57483,68.07919,108.53193,97.28771,45.63091,99.525,31.44437,132.47056,16.87616Z" fill="#fff"/>
      <path d="M281.71839,59.15569c25.17424,62.19095,18.16649,112.48047-19.52325,151.42353-42.4318.88-77.535-16.62012-98.23618-70.23838-7.953-3.73742-15.2238-5.19537-21.16181-2.20184-15.27888,27.54657-32.45147,46.95721-51.23447,59.44943-19.49014-6.6622-36.205-19.85657-42.54666-57.46777,0,0,8.78292-10.98844,9.57867-25.321,2.00481-36.11,8.9103-49.10082,8.9103-49.10082L72.1829,77.14831l6.23721-13.43117L89.11247,81.552l3.11858-15.85319c13.85742,22.1402,28.78754,33.75232,44.9971,32.80729l8.91025,18.27518,10.02408,1.10092,6.90557-19.81647c27.26679.07846,55.46654-11.88989,77.07412-35.66965l6.01434,11.66971c5.79994-4.04068,11.26372-9.77452,16.484-16.73394a35.01091,35.01091,0,0,1,6.46016,16.51375C273.59521,72.46923,277.72719,66.66912,281.71839,59.15569Z" fill="#1d232b"/>
      <path d="M264.82671,231.12426c-62.34819,14.17885-144.305,8.20184-194.756-19.854C91.976,234.59148,114.80678,246.785,185.23418,248.43544c65.99069,1.54635,125.40643-13.97072,142.18853-54.69866C311.57835,209.85266,290.58183,225.26722,264.82671,231.12426Z" fill="#a0d0e9"/>
      <ellipse cx="101.62967" cy="127.5726" rx="35.62468" ry="32.52869" fill="#fdfeff"/>
      <ellipse cx="218.45045" cy="135.9635" rx="44.96879" ry="39.96322" fill="#fdfeff"/>
      <ellipse cx="203.28615" cy="133.70322" rx="24.87753" ry="24.49195" fill="#1f242c"/>
      <ellipse cx="111.45045" cy="129.02774" rx="22.41618" ry="21.79812" fill="#1f242c"/>
      <g>
        <path d="M125.2441,157.90451c4.93481,8.11917,14.35716,20.00947,14.35716,20.00947l14.35708-.11305c7.8003-6.66982,12.66136-18.992,12.77453-18.992C155.41451,150.88571,140.3962,154.19207,125.2441,157.90451Z" fill="#1d232b"/>
        <path d="M134.133,155.84674a41.421,41.421,0,0,0,2.4607,7.8598l13.70654-.35925a27.79517,27.79517,0,0,0,.74609-9.36865A71.53043,71.53043,0,0,0,134.133,155.84674Z" fill="#5d7694"/>
      </g>
      <path d="M167.92693,219.53051s3.8531,6.82568,10.23841,7.26605c8.238.56814,9.13757-14.97247,9.13757-14.97247A23.0288,23.0288,0,0,1,167.92693,219.53051Z" fill="#a0d0e9"/>
      <path d="M126.621,191.101c14.24893,8.06615,20.19314,9.23825,36.44043,8.91739,10.92393-.21573,8.46248-10.37319,8.46248-10.37319s16.86408,21.523-4.82948,22.04292a50.93783,50.93783,0,0,1-20.201-3.8945C136.71421,204.03623,131.19076,198.01279,126.621,191.101Z" fill="#1d232b"/>
      <path d="M143.17059,200.49566l2.58327,3.647s17.56769,2.49789,27.20036.83576c4.33616-.74821.407-8.64005.407-8.64005s-.40094,5.43134-5.97132,5.97133A75.98739,75.98739,0,0,1,143.17059,200.49566Z" fill="#fffdf9"/>
    </symbol>
    <symbol id="Superbear-2" data-name="Superbear" viewBox="0 0 461.96 474.352">
      <path d="M42.95349,183.74929s6.239,2.92764,12.62435,34.41382c5.06421,7.92659,87.41267,42.71551,87.41267,42.71551L111.28415,315.7042C60.77648,293.3,54.74292,273.11807,40.9501,249.52107a37.78769,37.78769,0,0,0-11.24528-12.09513A140.09444,140.09444,0,0,1,7.13767,217.72275Z" fill="#5b5b5b"/>
      <path d="M35.11025,186.09371s13.99616,17.09865,1.35447,28.95009c-11.05437,10.36335-29.79827-1.7011-29.79827-1.7011Z" fill="#9c8563"/>
      <g>
        <path d="M37.41274,198.56682c3.96837.14518,9.33025-13.87154,7.1009-16.3486s-9.49539-3.46788-11.88988-.82568S30.64211,198.31911,37.41274,198.56682Z" fill="#9c8563"/>
        <path d="M37.47849,200.56789c-.04688,0-.09278-.001-.13867-.002h0c-2.85743-.10547-5.2002-1.98925-6.59961-5.30664-2.1045-4.99219-1.90137-12.668.40136-15.21,1.29981-1.43359,3.52344-2.22265,6.26368-2.22265h.02539c2.90234.00488,6.67773.95117,8.56933,3.05371,2.83985,3.15429-1.01367,11.66308-1.46191,12.623C43.02439,196.74074,40.57907,200.56789,37.47849,200.56789Zm-.03809-3.99707Zm.04492-.00293h0Zm-.08105-14.74121c-1.82422,0-2.89941.46875-3.29883.9082-.80859.92285-1.45312,6.85351.35156,11.042.77246,1.792,1.78125,2.73047,2.999,2.79.39648-.09961,1.62988-1.16406,3.043-3.91113,2.14453-4.167,2.80175-8.22754,2.46679-9.16407-.80664-.80957-3.10351-1.66113-5.542-1.665Zm5.542,1.61718Z" fill="#3f403d"/>
      </g>
      <g>
        <path d="M29.65128,198.54933c3.5804-2.6853.99083-13.62383-3.633-17.33942s-13.789,2.55963-10.40364,8.58714C19.01991,195.86014,27.00909,200.531,29.65128,198.54933Z" fill="#9c8563"/>
        <path d="M28.01657,201.00929a7.59026,7.59026,0,0,1-1.56836-.17383c-4.40722-.92871-9.93164-5.34765-12.57812-10.05859-1.90039-3.38574-1.00586-7.37305,2.28027-10.15625,2.98242-2.52637,7.75782-3.66992,11.1211-.9707,3.88867,3.126,6.13281,9.78906,6.05566,14.42578-.04687,2.793-.90234,4.89355-2.47559,6.07324v.001A4.60948,4.60948,0,0,1,28.01657,201.00929Zm-5.32226-18.918a6.48373,6.48373,0,0,0-3.958,1.58106c-.67871.57519-2.7832,2.64453-1.37793,5.14551,2.25,4.00586,6.76172,7.293,9.65234,8.042a2.45769,2.45769,0,0,0,1.44336.08789c.52246-.39551.84961-1.49317.873-2.93848.06641-3.98242-2.06445-9.23437-4.56152-11.24121A3.23913,3.23913,0,0,0,22.69431,182.09132Z" fill="#3f403d"/>
      </g>
      <g>
        <path d="M22.46781,212.50343c-.96152,3.70872-9.08255,6.27521-14.03667,5.69723s-10.32108-9.7431-2.39449-13.29355C9.7908,203.22557,23.62377,208.04472,22.46781,212.50343Z" fill="#9c8563"/>
        <path d="M9.94528,220.28273a15.05037,15.05037,0,0,1-1.74511-.0957c-3.74707-.4375-7.45508-4.335-8.09766-8.51172-.57519-3.74707,1.28906-6.87891,5.11719-8.59375,3.81738-1.71192,12.87109,1.10742,16.83789,4.46094,2.55078,2.15527,2.68359,4.16015,2.3457,5.46289h0C23.209,217.61281,15.5488,220.28273,9.94528,220.28273ZM8.11911,206.54152a3.26983,3.26983,0,0,0-1.26465.19043c-2.15039.96387-3.09179,2.42285-2.79785,4.33594.39942,2.59961,2.84668,4.94043,4.60645,5.14648,4.74707.54688,11.32422-2.11621,11.86914-4.21289.03516-.13672-.17676-.66016-1.05664-1.4043C16.63474,208.19582,10.9365,206.54152,8.11911,206.54152Z" fill="#3f403d"/>
      </g>
      <g>
        <path d="M21.64213,205.07225c1.81651-1.98165-2.14679-12.30273-6.11008-14.11924s-16.76425,8.7195-7.43118,12.30273C17.34856,206.80619,19.82562,207.0539,21.64213,205.07225Z" fill="#9c8563"/>
        <path d="M18.70505,208.30031c-2.63769,0-6.17871-1.20313-11.32129-3.17774-3.39648-1.30371-4.35937-3.40527-4.56836-4.9375-.57715-4.21191,3.7627-7.793,5.10645-8.791,1.19726-.88867,5.34765-3.67969,8.44336-2.25977,3.79687,1.74024,6.708,8.20313,7.48047,12.02246.498,2.46485.25976,4.1875-.72852,5.2666h0A5.57686,5.57686,0,0,1,18.70505,208.30031Zm-4.25391-15.56446a8.68926,8.68926,0,0,0-4.49414,2.1377c-2.05273,1.62695-3.35839,3.5957-3.17578,4.78906.126.8291,1.17676,1.39551,2.03614,1.72559,8.2041,3.14941,10.28417,3.33691,11.25488,2.42969.543-1.95411-2.583-9.76856-5.37305-11.04688A.69269.69269,0,0,0,14.45114,192.73585Zm5.7168,10.98438v0Z" fill="#3f403d"/>
      </g>
      <path d="M123.61447,282.45652c-19.10449,18.39306-47.842,1.67578-80.40771-28.99536,12.35229,21.928,20.40356,41.09594,68.07739,62.243l6.82764-11.80591Z" fill="#3f403d"/>
      <path d="M336.2615,436.65005c41.95-1.25853,48.66184-35.65738,85.15821-25.58941l-49.92033-95.22618-70.47576,37.33537Z" fill="#97854d"/>
      <path d="M300.44424,260.29245c72.22012,44.91729,150.80252,94.164,161.37141,143.04456,1.4248,12.69849-7.92669,40.95408-18.05511,41.39445S374.1827,336.4014,374.1827,336.4014L120.53183,284.4382l9.24769-25.54123Z" fill="#f7f07b"/>
      <path d="M344.89841,451.88743c-2.33252-30.815-12.78847-46.10476-26.422-63.41274,4.73925-7.33242,3.83064-26.3498,3.74111-26.34984,6.64307-.897,12.6083,2.41438,18.9571,8.76318l18.25584-5.86283-37.16191-15.69588-200,50c-4.58423,14.02881-7.30738,28.0907-.63575,42.31958-9.42187,1.77124-26.26885,9.16821-22.34861,18.49537,3.57384,8.503,62.75217.44037,62.75217.44037s5.83485-33.7981,50.42192-31.81645c37.30757,1.65811,89.83468,40.56117,89.83468,40.56117,6.4202,2.20152,70.45857,10.10653,71.33936,0C374.19024,462.92731,357.41939,452.1532,344.89841,451.88743Z" fill="#3f403d"/>
      <path d="M123.28412,276.84189s17.02458,1.8919,57.798,11.22933c43.266,9.90824,83.55947-7.92659,111.63289-6.27523,41.05859,3.14326,80.30579,34.75353,86.86212,70.01822,1.68649,9.07116,1.58568,16.20474-1.48623,23.28436-4.3124,9.93848-16.78069,18.336-27,19.65134-8.33943,1.07339-14.2018-7.51375-15.44033-16.01832-.39982-2.74538-.95282-6.84456,5.44953-7.92659,0,0-9-19.07336-22.3761-14.44951,0,0-.24771,22.211-13.789,37.73387-36.01772,41.28861-175.80829,36.39188-198.495-1.3211C81.009,350.49311,123.28412,276.84189,123.28412,276.84189Z" fill="#5b5b5b"/>
      <path d="M134.18308,287.96116c14.312,16.29357,14.53218,39.41274,43.37622,54.38513,16.20153-1.01428,33.03226-5.75121,44.25673-18.055,11.44952-12.55043,23.44955-25.21094,27.08262-29.50449-33.90829,1.32106-36.8585,27.63525-67.81648,25.98156C165.25167,319.92278,148.71526,281.796,134.18308,287.96116Z" fill="#cbcbcb"/>
      <path d="M101.84727,457.90826c.88073,2.75229,16.10793,3.268,17.36347.36445s-1.29712-9.62206-4.62385-10.23851S100.69248,454.29955,101.84727,457.90826Z" fill="#9c8563"/>
      <path d="M370.05548,468.92586c-1.20465,1.8808-14.26795.00482-14.79072-2.28708s2.7485-6.82633,5.58763-6.80677S371.635,466.45982,370.05548,468.92586Z" fill="#9c8563"/>
      <path d="M272.8985,24.18185s20.097-43.76476,56.14668-13.54126c32.69718,27.41279-3.9633,74.31178-3.9633,74.31178Z" fill="#3f403d"/>
      <path d="M117.99973,71.41111s-26.326-31.61406-7.92659-56.14668c25.76142-34.34855,48.88064,6.93577,48.88064,6.93577Z" fill="#3f403d"/>
      <path d="M155.9813,20.21855C189.00876,4.0351,294.69662-3.23094,325.41216,68.76891c17.5066,41.037,31.55177,86.49314,29.06416,124.84379-3.9633,61.10079-70.67876,83.88974-145.992,81.93412-70.07951-1.81972-92.79759-15.265-114.59471-40.98007-42.76172-50.44788-14.01516-84.568-1.98169-113.28418C120.9722,51.92491,123.19845,36.28215,155.9813,20.21855Z" fill="#5b5b5b"/>
      <path d="M287.68381,256.45871c-62.04028,15.63428-143.59239,9.04375-193.79419-21.892,21.79712,25.71508,44.51514,39.16027,114.59473,40.9801,65.66479,1.70508,124.78711-15.40479,141.48633-60.31336C334.20456,233.00364,313.31174,250.00046,287.68381,256.45871Z" fill="#3f403d"/>
      <ellipse cx="143.02835" cy="121.15549" rx="33.76025" ry="35.86769" fill="#fdfeff"/>
      <ellipse cx="254.53782" cy="120.95229" rx="38.50743" ry="37.98157" fill="#fdfeff"/>
      <ellipse cx="237.0273" cy="119.858" rx="21.30299" ry="20.96798" fill="#1f242c"/>
      <ellipse cx="129.0461" cy="119.28102" rx="20.1749" ry="20.30856" fill="#1f242c"/>
      <path d="M224.06326,63.20334a56.945,56.945,0,0,0-13.98778,19.04149c-1.34222,2.90124,2.96624,5.44407,4.31735,2.52359a53.43071,53.43071,0,0,1,13.206-18.02954c2.44286-2.10258-1.10715-5.62565-3.53554-3.53554Z" fill="#3f403d"/>
      <path d="M178.17229,83.30318a42.76491,42.76491,0,0,0-9.653-19.43143c-2.10213-2.44321-5.62518,1.10683-3.53553,3.53553a37.61927,37.61927,0,0,1,8.36715,17.2251c.64924,3.14934,5.46989,1.81649,4.8214-1.3292Z" fill="#3f403d"/>
      <g>
        <path d="M265.46732,171.154C234.252,195.91416,203.86667,196.3115,164.073,193.28244a69.47456,69.47456,0,0,0-12.88061,17.66968S171.8994,237.715,202.55,229.9429C248.78846,218.21815,265.46732,171.154,265.46732,171.154Z" fill="#9c8563"/>
        <path d="M191.50193,233.34425c-25.18165,0-41.70411-20.92578-41.89161-21.16894l-.79394-1.02539.61328-1.14356a71.67321,71.67321,0,0,1,13.2666-18.17383l.64356-.61132.88476.06738c37.55469,2.85742,68.76563,3.07617,100-21.70215l5.45313-4.32519-2.3252,6.56054c-.16992.48047-17.57715,48.209-64.31152,60.05957A46.80987,46.80987,0,0,1,191.50193,233.34425Zm-37.89942-22.63476c4.07324,4.63574,22.78027,23.80469,48.45606,17.29492,34.12793-8.6543,51.94336-37.44336,58.50976-50.71484-30.04883,20.89648-60.13769,20.73046-95.749,18.05566A67.49594,67.49594,0,0,0,153.60251,210.70949Z" fill="#3f403d"/>
      </g>
      <g>
        <path d="M270.93308,166.74448s-14.686,23.79773-46.66016,32.73169c-23.67824,6.616-43.52621-8.357-76.25781-1.39282l-8.35718-31.68714s26.11576-9.40165,33.42822-24.02648c16.36581-4.1785,36.562,1.04464,36.562,1.04464C222.88019,166.39624,244.81733,178.23536,270.93308,166.74448Z" fill="#9c8563"/>
        <path d="M211.124,203.2046c-6.81543,0-13.51758-1.14648-20.45313-2.333-12.57519-2.15137-25.5791-4.376-42.24023-.832l-1.86426.39648-9.3086-35.30078,1.72266-.62109c.25391-.09083,25.4502-9.30665,32.31641-23.03907l.40918-.81738.88476-.22559c16.67285-4.25683,36.71289.82715,37.5586,1.0459l.81347.21094.41895.72754c14.11328,24.51367,35.52637,32.71582,58.74512,22.49707l5.88281-2.58789-3.375,5.46973c-.61621.998-15.46875,24.5664-47.82422,33.60644A50.23944,50.23944,0,0,1,211.124,203.2046Zm-45.11622-9.00878c9.36524,0,17.66895,1.42089,25.3379,2.73242,11.51855,1.97168,21.46484,3.67285,32.38867.62207a84.80932,84.80932,0,0,0,41.46386-26.54492c-22.27832,6.749-43.13085-2.584-56.84668-25.84473-3.77343-.86621-20.20507-4.25488-33.916-1.06152-6.96973,12.64257-26.43555,21.1582-32.38574,23.52343l7.418,28.12793A87.69527,87.69527,0,0,1,166.00778,194.19582Z" fill="#3f403d"/>
      </g>
      <path d="M157.13727,158.27332s-3.8036,13.20875,2.64219,15.85318c6.44036,2.64219,32.03663,5.94494,36.99075,1.98165s8.53841-8.84112,6.27522-15.52291C199.57755,150.34673,157.13727,158.27332,157.13727,158.27332Z" fill="#1f242c"/>
      <polygon points="162.257 160.585 163.082 165.209 173.486 165.704 173.816 159.925 162.257 160.585" fill="#fdfeff"/>
    </symbol>
  </defs>
  <title>super-bear-and-panda-girl</title>
  <g id="Background">
    <rect width="1200" height="680" fill="#a0d39e"/>
    <ellipse cx="410" cy="595" rx="180" ry="30" fill="#1b222a" opacity="0.2"/>
    <ellipse cx="820" cy="595" rx="140" ry="25" fill="#1b222a" opacity="0.2"/>
  </g>
  <g id="SuperBear">
    <g>
      <use width="415.61076" height="409.32075" transform="translate(625.36923 185.0066)" xlink:href="#Panda_Girl"/>
      <use width="461.95996" height="474.35156" transform="translate(159.02002 125.64845)" xlink:href="#Superbear-2"/>
    </g>
  </g>
</svg>
