<svg id="Layer_1" data-name="Layer 1" xmlns="http://www.w3.org/2000/svg" width="1596" height="36" viewBox="0 0 1596 36">
  <title>torn-bottom-coral-climate-change</title>
  <path d="M7.27722,18.20361C14.78369,21.49017,26.7533,8.83075,43.304,13.34619c5.23586-.14722,10.2362-3.38171,10.2362-3.38171s8.29322-2.87559,11.41455.63458c3.15388-1.11568,4.97039,1.155,9.05567.63354,7.08471-6.129,21.25634-1.90283,32.2788-3.59265,6.29834-.21191,14.17164-1.26922,19.28956.21088,12.20294-2.74719,29.52374,0,41.33264-2.32452,12.59686,2.32452,24.40753-3.171,37.39874-1.69092,12.597,1.479,20.82074-2.46753,32.23724-3.313,2.361-.21191,5.15961-.06879,6.7342,1.19934-2.28608,6.551,1.43377,8.55151,1.43377,8.55151l14.82373-3.18676s21.39777.70526,21.40912.70562c6.34686.20929,12.49909,5.93049,18.56665,3.21955C303.6347,9.1709,312.199,12.98645,312.199,12.98645s5.2995-8.66632,10.71563-9.7121c10.462.92469,15.59217,5.5744,28.12879,2.98786,12.78772,6.61358,27.20953,6.03662,41.325,7.975,8.88611-.33368,26.03711-6.31445,26.03711-6.31445L430.52,16.20691s4.04242-5.7973,10.20227-3.34461c3.47516-.72814,8.6485-2.18981,12.95941-1.37,14.18256-5.54218,22.075,8.72827,33.11408.06769,7.84851-3.75617,19.25854.65466,27.44012-2.45453,9.0191.51776,15.54822-1.80078,23.84229-1.9422,7.447.46539,13.18927-1.87988,18.93328-4.2251,10.17749.76935,16.33735,6.48315,27.40229,6.22357,3.78814.446,9.904-.4469,13.57824.78a68.14729,68.14729,0,0,1,11.81788-.47113c5.67419.47522,16.67126,6.95935,32.29724,2.37036,6.15118-1.80646,18.41955,4.12207,18.41955,4.12207s12.84082-1.17065,19.25183-4.13635a64.66823,64.66823,0,0,1,17.69428-5.16107c1.70526-1.3009,3.70721-1.50122,6.01611-1.16889,12.08392,1.442,22.02515,7.35144,34.408,7.27607a65.48088,65.48088,0,0,0,11.75275-3.92188c11.33771,1.02112,17.87109,6.95862,30.1145,6.7403a55.55788,55.55788,0,0,0,7.68451.16064c.32983.12824.66241.26648.994.4007.74792-.1474,1.49719-.317,2.24951-.53162a55.48239,55.48239,0,0,0,14.72443,1.99835,13.49994,13.49994,0,0,0,1.28027-1.13952q.90528-.377,1.80585-.72791a55.55788,55.55788,0,0,0,7.68451-.16064c12.2434.21832,18.77679-5.71918,30.1145-6.7403,6.156,2.54346,12.7052,5.07245,20.54565,4.59473,9.4726.10144,16.43555,2.82861,26.613,2.0592,8.61529,3.51789,21.184-1.14349,29.44592,2.80976,4.79657.68383,3.25464-3.07453,8.44483-2.40412a23.87586,23.87586,0,0,0,5.87542,1.36292,3.10628,3.10628,0,0,1,2.62061-2.29413c3.16833-.50861,5.98132-2.86579,13.998-3.13837,8.0149-.27234,8.81153-1.28961,16.31842-1.26263,7.50879.0282,10.30378-.63245,15.978-1.10767a68.14714,68.14714,0,0,1,11.81787.47113c3.6742-1.22693,9.7901-.334,13.57825-.78,11.06488.25958,17.22473-5.45422,27.40222-6.22357,5.74414,2.34522,11.48639,4.69049,18.93329,4.2251,8.29407.14142,14.82324,2.46,23.84228,1.9422,8.18164,3.10919,19.59174-1.30164,27.44013,2.45453,4.00952.71051,7.28625-2.15357,7.28625-2.15357s7.48795,5.41689,23.53841,1.97486a29.07318,29.07318,0,0,1,13.45134,1.01544,33.22885,33.22885,0,0,1,11.46613-1.53974c13.58947-2.12213,25.53179,2.8863,38.68518,3.38025,14.11554-1.93835,28.53735-1.36139,41.32507-7.975C1255.12152,5.37036,1265.15289.92468,1275.61487,0c5.41614,1.04572,3.21344,7.74048,4.38617,11.15839a13.13792,13.13792,0,0,0,1.56549,5.82159l2.2157-.13019,10.70367-2.7055,1.78394-1.7641,18.73339-4.58808,21.40918-.70562,14.11512.372c2.46289-1.65259,5.31787-3.23645,2.14227-5.73676,1.57458-1.26813,3.54333-1.48,5.90436-1.26813,11.4165.84546,20.47009,4.86078,33.0672,3.38178,12.99109-1.4801,24.80176,4.01544,37.39874,1.69092,11.80884,2.32452,29.12964-.42267,41.33258,2.32452,5.11792-1.4801,12.99115-.42279,19.28961-.21088,11.02234,1.68982,25.194-2.53631,32.27887,3.59266,3.54346.21191,5.51215-1.05738,9.05554-.63355,1.08142-1.6799,7.98966-.72348,11.2782-1.11462a3.62263,3.62263,0,0,0,1.46751,1.63138,10.4274,10.4274,0,0,0,7.43306,1.74079l22.77869-3.08427h0a6.89124,6.89124,0,0,0,5.15019,7.6421,71.83881,71.83881,0,0,0,10.703,1.9359C1591.11469,22.38281,1596,24,1596,24l-.02429,12h-1596V24C4.03125,22.01764,3.21985,19.29913,7.27722,18.20361Z" fill="#962e41"/>
</svg>
